%TF.GenerationSoftware,KiCad,Pcbnew,8.0.8*%
%TF.CreationDate,2025-03-03T07:56:09-06:00*%
%TF.ProjectId,Final Project V1,46696e61-6c20-4507-926f-6a6563742056,rev?*%
%TF.SameCoordinates,Original*%
%TF.FileFunction,Copper,L2,Bot*%
%TF.FilePolarity,Positive*%
%FSLAX46Y46*%
G04 Gerber Fmt 4.6, Leading zero omitted, Abs format (unit mm)*
G04 Created by KiCad (PCBNEW 8.0.8) date 2025-03-03 07:56:09*
%MOMM*%
%LPD*%
G01*
G04 APERTURE LIST*
%TA.AperFunction,ComponentPad*%
%ADD10C,1.651000*%
%TD*%
%TA.AperFunction,ComponentPad*%
%ADD11R,2.200000X2.200000*%
%TD*%
%TA.AperFunction,ComponentPad*%
%ADD12O,2.200000X2.200000*%
%TD*%
%TA.AperFunction,ComponentPad*%
%ADD13R,1.500000X1.500000*%
%TD*%
%TA.AperFunction,ComponentPad*%
%ADD14C,1.600000*%
%TD*%
%TA.AperFunction,HeatsinkPad*%
%ADD15C,0.600000*%
%TD*%
%TA.AperFunction,ComponentPad*%
%ADD16R,1.700000X1.700000*%
%TD*%
%TA.AperFunction,ComponentPad*%
%ADD17O,1.700000X1.700000*%
%TD*%
%TA.AperFunction,ComponentPad*%
%ADD18O,1.000000X2.000000*%
%TD*%
%TA.AperFunction,ComponentPad*%
%ADD19C,1.955800*%
%TD*%
%TA.AperFunction,ViaPad*%
%ADD20C,0.600000*%
%TD*%
%TA.AperFunction,Conductor*%
%ADD21C,0.200000*%
%TD*%
G04 APERTURE END LIST*
D10*
%TO.P,U5,1,G*%
%TO.N,Motor Power Signal*%
X187400000Y-123200000D03*
%TO.P,U5,2,D*%
%TO.N,Motor Out*%
X184860000Y-123200000D03*
%TO.P,U5,3,S*%
%TO.N,3.3V*%
X182320000Y-123200000D03*
%TD*%
%TO.P,U4,1,G*%
%TO.N,Camera Power Signal*%
X168600000Y-118851000D03*
%TO.P,U4,2,D*%
%TO.N,Camera Power*%
X168600000Y-116311000D03*
%TO.P,U4,3,S*%
%TO.N,3.3V*%
X168600000Y-113771000D03*
%TD*%
D11*
%TO.P,D2,1,K*%
%TO.N,Net-(D1-K)*%
X209000000Y-91480000D03*
D12*
%TO.P,D2,2,A*%
%TO.N,Net-(D2-A)*%
X209000000Y-81320000D03*
%TD*%
D13*
%TO.P,SW5,1,B*%
%TO.N,Net-(D2-A)*%
X211260000Y-72600000D03*
D14*
%TO.P,SW5,2,C*%
%TO.N,Net-(SW5-C)*%
X208720000Y-72600000D03*
%TO.P,SW5,3,A*%
%TO.N,unconnected-(SW5-A-Pad3)*%
X213800000Y-72600000D03*
%TD*%
D15*
%TO.P,U2,41,GND*%
%TO.N,GND*%
X202580000Y-109850000D03*
X203980000Y-109850000D03*
X201880000Y-109150000D03*
X203280000Y-109150000D03*
X204680000Y-109150000D03*
X202580000Y-108450000D03*
X203980000Y-108450000D03*
X201880000Y-107750000D03*
X203280000Y-107750000D03*
X204680000Y-107750000D03*
X202580000Y-107050000D03*
X203980000Y-107050000D03*
%TD*%
D16*
%TO.P,J6,1,Pin_1*%
%TO.N,GND*%
X176400000Y-98900000D03*
D17*
%TO.P,J6,2,Pin_2*%
%TO.N,SCL*%
X173860000Y-98900000D03*
%TO.P,J6,3,Pin_3*%
%TO.N,VS*%
X176400000Y-101440000D03*
%TO.P,J6,4,Pin_4*%
%TO.N,PCLK*%
X173860000Y-101440000D03*
%TO.P,J6,5,Pin_5*%
%TO.N,D7*%
X176400000Y-103980000D03*
%TO.P,J6,6,Pin_6*%
%TO.N,D5*%
X173860000Y-103980000D03*
%TO.P,J6,7,Pin_7*%
%TO.N,D3*%
X176400000Y-106520000D03*
%TO.P,J6,8,Pin_8*%
%TO.N,D1*%
X173860000Y-106520000D03*
%TO.P,J6,9,Pin_9*%
%TO.N,Camera Power*%
X176400000Y-109060000D03*
%TO.P,J6,10,Pin_10*%
%TO.N,Net-(J6-Pin_10)*%
X173860000Y-109060000D03*
%TO.P,J6,11,Pin_11*%
%TO.N,D0*%
X176400000Y-111600000D03*
%TO.P,J6,12,Pin_12*%
%TO.N,D2*%
X173860000Y-111600000D03*
%TO.P,J6,13,Pin_13*%
%TO.N,D4*%
X176400000Y-114140000D03*
%TO.P,J6,14,Pin_14*%
%TO.N,D6*%
X173860000Y-114140000D03*
%TO.P,J6,15,Pin_15*%
%TO.N,MCLK*%
X176400000Y-116680000D03*
%TO.P,J6,16,Pin_16*%
%TO.N,HS*%
X173860000Y-116680000D03*
%TO.P,J6,17,Pin_17*%
%TO.N,SDA*%
X176400000Y-119220000D03*
%TO.P,J6,18,Pin_18*%
%TO.N,Camera Power*%
X173860000Y-119220000D03*
%TD*%
D16*
%TO.P,J3,1,Pin_1*%
%TO.N,GND*%
X192600000Y-123060000D03*
D17*
%TO.P,J3,2,Pin_2*%
%TO.N,Hall Read*%
X192600000Y-125600000D03*
%TO.P,J3,3,Pin_3*%
%TO.N,3.3V*%
X192600000Y-128140000D03*
%TD*%
D18*
%TO.P,USB-C1,S1,SHIELD*%
%TO.N,GND*%
X204800000Y-77600000D03*
%TO.P,USB-C1,S2,SHIELD__1*%
X196160000Y-77600000D03*
%TO.P,USB-C1,S3,SHIELD__2*%
X204800000Y-73800000D03*
%TO.P,USB-C1,S4,SHIELD__3*%
X196160000Y-73800000D03*
%TD*%
D11*
%TO.P,D1,1,K*%
%TO.N,Net-(D1-K)*%
X204600000Y-91400000D03*
D12*
%TO.P,D1,2,A*%
%TO.N,Net-(D1-A)*%
X204600000Y-81240000D03*
%TD*%
D16*
%TO.P,J2,1,Pin_1*%
%TO.N,GND*%
X199980000Y-132200000D03*
D17*
%TO.P,J2,2,Pin_2*%
%TO.N,RX*%
X202520000Y-132200000D03*
%TO.P,J2,3,Pin_3*%
%TO.N,TX*%
X205060000Y-132200000D03*
%TO.P,J2,4,Pin_4*%
%TO.N,DTR*%
X207600000Y-132200000D03*
%TO.P,J2,5,Pin_5*%
%TO.N,RTS*%
X210140000Y-132200000D03*
%TD*%
D16*
%TO.P,J5,1,Pin_1*%
%TO.N,Net-(J5-Pin_1)*%
X186025000Y-128750000D03*
D17*
%TO.P,J5,2,Pin_2*%
%TO.N,3.3V*%
X186025000Y-131290000D03*
%TD*%
D13*
%TO.P,SW4,1,B*%
%TO.N,Net-(SW4-B)*%
X189860000Y-72600000D03*
D14*
%TO.P,SW4,2,C*%
%TO.N,Net-(D1-A)*%
X187320000Y-72600000D03*
%TO.P,SW4,3,A*%
%TO.N,unconnected-(SW4-A-Pad3)*%
X192400000Y-72600000D03*
%TD*%
D16*
%TO.P,J4,1,Pin_1*%
%TO.N,GND*%
X192550000Y-132375000D03*
D17*
%TO.P,J4,2,Pin_2*%
%TO.N,Motor Out*%
X195090000Y-132375000D03*
%TD*%
D19*
%TO.P,J1,4,4*%
%TO.N,unconnected-(J1-Pad4)*%
X223399998Y-82600000D03*
%TO.P,J1,3,3*%
%TO.N,unconnected-(J1-Pad3)*%
X219200000Y-82600000D03*
%TO.P,J1,2,2*%
%TO.N,GND*%
X223399998Y-77100001D03*
%TO.P,J1,1,1*%
%TO.N,Net-(SW5-C)*%
X219200000Y-77100001D03*
%TD*%
D20*
%TO.N,3.3V*%
X192000000Y-92600000D03*
X195800000Y-120600000D03*
X192000000Y-120800000D03*
X190200000Y-120400000D03*
X172200000Y-111800000D03*
X171000000Y-115600000D03*
X185200000Y-105400000D03*
%TO.N,GND*%
X182200000Y-106000000D03*
X199200000Y-106400000D03*
X198000000Y-108200000D03*
%TO.N,3.3V*%
X180000000Y-103600000D03*
X183800000Y-110800000D03*
X183900000Y-108450000D03*
X183600000Y-105800000D03*
%TO.N,GND*%
X180000000Y-96800000D03*
X169000000Y-104400000D03*
X168800000Y-107800000D03*
X178600000Y-98800000D03*
%TO.N,Net-(U2-IO0)*%
X181000000Y-99000000D03*
X173000000Y-97200000D03*
X171000000Y-97200000D03*
X201187500Y-126012500D03*
%TO.N,HS*%
X195000000Y-107800000D03*
%TO.N,D5*%
X189200000Y-113000000D03*
X187000000Y-109800000D03*
%TO.N,Camera Power*%
X173200000Y-93800000D03*
%TO.N,D0*%
X172000000Y-109600000D03*
X187400000Y-101200000D03*
%TO.N,D1*%
X191000000Y-99600000D03*
%TO.N,D2*%
X200000000Y-109600000D03*
%TO.N,D6*%
X194400000Y-112200000D03*
%TO.N,D4*%
X191800000Y-114800000D03*
%TO.N,MCLK*%
X196600000Y-116200000D03*
%TO.N,Camera Power Signal*%
X191800000Y-117200000D03*
%TO.N,GND*%
X198800000Y-91450000D03*
X210800000Y-94237500D03*
X193800000Y-89037500D03*
X211000000Y-101200000D03*
X203230000Y-77605000D03*
X187800000Y-90600000D03*
X197945000Y-82000000D03*
X201200000Y-89037500D03*
X211000000Y-118700000D03*
X210375000Y-122750000D03*
X196837500Y-85800000D03*
X195400000Y-126200000D03*
X181400000Y-130600000D03*
X208200000Y-94237500D03*
X179850000Y-90600000D03*
X175600000Y-91237500D03*
X192037500Y-83200000D03*
X201000000Y-107600000D03*
X192800000Y-80200000D03*
X197730000Y-77605000D03*
X202425000Y-122750000D03*
%TO.N,Chip_PU*%
X205600000Y-93400000D03*
X190000000Y-93200000D03*
%TO.N,RTS*%
X199400000Y-96600000D03*
%TO.N,DTR*%
X189200000Y-96000000D03*
%TO.N,Net-(U3-ISET)*%
X195800000Y-81600000D03*
X197400000Y-80200000D03*
%TO.N,Net-(U3-~{CHG})*%
X201800000Y-81200000D03*
X190800000Y-84200000D03*
%TO.N,Hall Read*%
X200800000Y-120000000D03*
%TO.N,SDA*%
X208460000Y-118700000D03*
X209000000Y-130000000D03*
%TO.N,VS*%
X193240000Y-105505000D03*
%TO.N,SCL*%
X211290000Y-129690000D03*
X209730000Y-118700000D03*
%TO.N,Manual Feed*%
X195800000Y-116800000D03*
X191800000Y-118800000D03*
%TD*%
D21*
%TO.N,3.3V*%
X192200000Y-121000000D02*
X195400000Y-121000000D01*
X192000000Y-120800000D02*
X192200000Y-121000000D01*
X195400000Y-121000000D02*
X195800000Y-120600000D01*
X191600000Y-120400000D02*
X192000000Y-120800000D01*
X190200000Y-120400000D02*
X191600000Y-120400000D01*
X172200000Y-114400000D02*
X172200000Y-111800000D01*
X171000000Y-115600000D02*
X172200000Y-114400000D01*
X181400000Y-103600000D02*
X180000000Y-103600000D01*
X183600000Y-105800000D02*
X181400000Y-103600000D01*
X183900000Y-108450000D02*
X183900000Y-110700000D01*
X183900000Y-110700000D02*
X183800000Y-110800000D01*
X183900000Y-106100000D02*
X183900000Y-108450000D01*
X183600000Y-105800000D02*
X183900000Y-106100000D01*
%TO.N,Net-(U2-IO0)*%
X179200000Y-97200000D02*
X181000000Y-99000000D01*
X173000000Y-97200000D02*
X179200000Y-97200000D01*
X170700000Y-97500000D02*
X171000000Y-97200000D01*
X170700000Y-103900000D02*
X170700000Y-97500000D01*
X170500000Y-104100000D02*
X170700000Y-103900000D01*
X167074500Y-107525500D02*
X170500000Y-104100000D01*
X177005831Y-128848529D02*
X167074500Y-118917198D01*
X167074500Y-118917198D02*
X167074500Y-107525500D01*
X178800000Y-128848529D02*
X177005831Y-128848529D01*
X184351471Y-134400000D02*
X178800000Y-128848529D01*
X197400000Y-134400000D02*
X184351471Y-134400000D01*
X197400000Y-129800000D02*
X197400000Y-134400000D01*
X201187500Y-126012500D02*
X197400000Y-129800000D01*
%TO.N,HS*%
X195000000Y-115530000D02*
X195000000Y-107800000D01*
%TO.N,D5*%
X189200000Y-112000000D02*
X189200000Y-113000000D01*
X187000000Y-109800000D02*
X189200000Y-112000000D01*
%TO.N,Camera Power*%
X167474500Y-115185500D02*
X168600000Y-116311000D01*
X167474500Y-111525500D02*
X167474500Y-115185500D01*
X172000000Y-95000000D02*
X172000000Y-107000000D01*
X172000000Y-107000000D02*
X167474500Y-111525500D01*
X173200000Y-93800000D02*
X172000000Y-95000000D01*
%TO.N,D0*%
X172000000Y-108400000D02*
X172000000Y-109600000D01*
X174206346Y-107800000D02*
X172600000Y-107800000D01*
X175010000Y-106996346D02*
X174206346Y-107800000D01*
X172600000Y-107800000D02*
X172000000Y-108400000D01*
X175010000Y-103390000D02*
X175010000Y-106996346D01*
X175810000Y-102590000D02*
X175010000Y-103390000D01*
X186010000Y-102590000D02*
X175810000Y-102590000D01*
X187400000Y-101200000D02*
X186010000Y-102590000D01*
%TO.N,D1*%
X185551471Y-98800000D02*
X190200000Y-98800000D01*
X190200000Y-98800000D02*
X191000000Y-99600000D01*
X176400000Y-100200000D02*
X184151471Y-100200000D01*
X173473654Y-100200000D02*
X176400000Y-100200000D01*
X184151471Y-100200000D02*
X185551471Y-98800000D01*
X172710000Y-100963654D02*
X173473654Y-100200000D01*
X172710000Y-105370000D02*
X172710000Y-100963654D01*
X173860000Y-106520000D02*
X172710000Y-105370000D01*
%TO.N,D2*%
X200000000Y-116600000D02*
X200000000Y-109600000D01*
X197200000Y-119400000D02*
X200000000Y-116600000D01*
X191200000Y-119048529D02*
X191551471Y-119400000D01*
X191200000Y-118551471D02*
X191200000Y-119048529D01*
X191551471Y-118200000D02*
X191200000Y-118551471D01*
X191800000Y-118200000D02*
X191551471Y-118200000D01*
X192400000Y-117600000D02*
X191800000Y-118200000D01*
X178106346Y-116600000D02*
X192048529Y-116600000D01*
X192400000Y-116951471D02*
X192400000Y-117600000D01*
X176876346Y-117830000D02*
X178106346Y-116600000D01*
X191551471Y-119400000D02*
X197200000Y-119400000D01*
X172710000Y-117156346D02*
X173383654Y-117830000D01*
X173383654Y-117830000D02*
X176876346Y-117830000D01*
X172710000Y-112750000D02*
X172710000Y-117156346D01*
X192048529Y-116600000D02*
X192400000Y-116951471D01*
X173860000Y-111600000D02*
X172710000Y-112750000D01*
%TO.N,D6*%
X194400000Y-113800000D02*
X194400000Y-112200000D01*
X191951471Y-113800000D02*
X194400000Y-113800000D01*
X191070000Y-114681471D02*
X191951471Y-113800000D01*
X191070000Y-114730000D02*
X191070000Y-114681471D01*
%TO.N,D4*%
X191600000Y-115000000D02*
X191800000Y-114800000D01*
X191600000Y-115130000D02*
X191600000Y-115000000D01*
%TO.N,D6*%
X178000000Y-114730000D02*
X191070000Y-114730000D01*
X175010000Y-112990000D02*
X176876346Y-112990000D01*
X178000000Y-114113654D02*
X178000000Y-114730000D01*
X176876346Y-112990000D02*
X178000000Y-114113654D01*
X173860000Y-114140000D02*
X175010000Y-112990000D01*
%TO.N,D4*%
X176930000Y-115130000D02*
X191600000Y-115130000D01*
X176400000Y-114600000D02*
X176930000Y-115130000D01*
X176400000Y-114140000D02*
X176400000Y-114600000D01*
%TO.N,HS*%
X175010000Y-115530000D02*
X195000000Y-115530000D01*
X173860000Y-116680000D02*
X175010000Y-115530000D01*
%TO.N,MCLK*%
X176880000Y-116200000D02*
X196600000Y-116200000D01*
X176400000Y-116680000D02*
X176880000Y-116200000D01*
%TO.N,Camera Power*%
X170800000Y-114111000D02*
X168600000Y-116311000D01*
X170800000Y-111200000D02*
X170800000Y-114111000D01*
X171550000Y-110450000D02*
X170800000Y-111200000D01*
X176400000Y-109060000D02*
X175010000Y-110450000D01*
X175010000Y-110450000D02*
X171550000Y-110450000D01*
X171800000Y-120000000D02*
X173080000Y-120000000D01*
X173080000Y-120000000D02*
X173860000Y-119220000D01*
X168600000Y-116800000D02*
X171800000Y-120000000D01*
X168600000Y-116311000D02*
X168600000Y-116800000D01*
%TO.N,Camera Power Signal*%
X171749000Y-122000000D02*
X168600000Y-118851000D01*
X188600000Y-120400000D02*
X188600000Y-122000000D01*
X188600000Y-122000000D02*
X171749000Y-122000000D01*
X191800000Y-117200000D02*
X188600000Y-120400000D01*
%TO.N,Motor Out*%
X193680000Y-126990000D02*
X195090000Y-128400000D01*
X188650000Y-126990000D02*
X193680000Y-126990000D01*
X184860000Y-123200000D02*
X188650000Y-126990000D01*
X195090000Y-128310000D02*
X195090000Y-128400000D01*
X195090000Y-128400000D02*
X195090000Y-132375000D01*
%TO.N,Chip_PU*%
X205600000Y-93400000D02*
X190200000Y-93400000D01*
X190200000Y-93400000D02*
X190000000Y-93200000D01*
%TO.N,RTS*%
X207000000Y-130200000D02*
X207850000Y-131050000D01*
X207850000Y-131050000D02*
X208990000Y-131050000D01*
X208990000Y-131050000D02*
X210140000Y-132200000D01*
X199400000Y-96600000D02*
X199400000Y-99200000D01*
X199400000Y-99200000D02*
X207000000Y-106800000D01*
X207000000Y-106800000D02*
X207000000Y-130200000D01*
%TO.N,DTR*%
X193000000Y-101600000D02*
X201000000Y-109600000D01*
X193000000Y-99800000D02*
X193000000Y-101600000D01*
X201000000Y-116000000D02*
X206600000Y-121600000D01*
X189200000Y-96000000D02*
X193000000Y-99800000D01*
X201000000Y-109600000D02*
X201000000Y-116000000D01*
X206600000Y-131200000D02*
X207600000Y-132200000D01*
X206600000Y-121600000D02*
X206600000Y-131200000D01*
%TO.N,Net-(U3-ISET)*%
X195800000Y-81600000D02*
X197200000Y-80200000D01*
X197200000Y-80200000D02*
X197400000Y-80200000D01*
%TO.N,Net-(U3-~{CHG})*%
X198400000Y-80000000D02*
X198000000Y-79600000D01*
X190600000Y-81600000D02*
X190400000Y-81800000D01*
X201400000Y-80000000D02*
X198400000Y-80000000D01*
X195000000Y-79600000D02*
X193000000Y-81600000D01*
X198000000Y-79600000D02*
X195000000Y-79600000D01*
X201800000Y-81200000D02*
X201800000Y-80400000D01*
X190400000Y-82200000D02*
X190800000Y-82600000D01*
X201800000Y-80400000D02*
X201400000Y-80000000D01*
X190800000Y-82600000D02*
X190800000Y-84200000D01*
X190400000Y-81800000D02*
X190400000Y-82200000D01*
X193000000Y-81600000D02*
X190600000Y-81600000D01*
%TO.N,Hall Read*%
X200800000Y-120000000D02*
X195200000Y-125600000D01*
X195200000Y-125600000D02*
X192600000Y-125600000D01*
%TO.N,SDA*%
X209000000Y-130000000D02*
X209000000Y-120600000D01*
X208460000Y-120060000D02*
X208460000Y-118700000D01*
X209000000Y-120600000D02*
X208460000Y-120060000D01*
%TO.N,SCL*%
X209775000Y-120225000D02*
X209730000Y-120180000D01*
X211290000Y-129690000D02*
X209775000Y-128175000D01*
X209775000Y-128175000D02*
X209775000Y-120225000D01*
X209730000Y-120180000D02*
X209730000Y-118700000D01*
%TO.N,Manual Feed*%
X195600000Y-117648529D02*
X195800000Y-116800000D01*
X194448529Y-118800000D02*
X195600000Y-117648529D01*
X195800000Y-116800000D02*
X195600000Y-116800000D01*
X191800000Y-118800000D02*
X194448529Y-118800000D01*
%TD*%
%TA.AperFunction,Conductor*%
%TO.N,GND*%
G36*
X181013298Y-122620185D02*
G01*
X181059053Y-122672989D01*
X181068997Y-122742147D01*
X181066034Y-122756593D01*
X181009158Y-122968857D01*
X181009156Y-122968867D01*
X180988935Y-123199999D01*
X180988935Y-123200000D01*
X181009156Y-123431132D01*
X181009158Y-123431142D01*
X181069205Y-123655243D01*
X181069207Y-123655247D01*
X181069208Y-123655251D01*
X181118236Y-123760392D01*
X181167263Y-123865532D01*
X181167264Y-123865533D01*
X181300345Y-124055592D01*
X181464408Y-124219655D01*
X181654467Y-124352736D01*
X181864749Y-124450792D01*
X181864755Y-124450793D01*
X181864756Y-124450794D01*
X181907093Y-124462138D01*
X182088863Y-124510843D01*
X182263410Y-124526114D01*
X182319999Y-124531065D01*
X182320000Y-124531065D01*
X182320001Y-124531065D01*
X182358522Y-124527694D01*
X182551137Y-124510843D01*
X182775251Y-124450792D01*
X182985533Y-124352736D01*
X183175592Y-124219655D01*
X183339655Y-124055592D01*
X183472736Y-123865533D01*
X183477617Y-123855064D01*
X183523788Y-123802624D01*
X183590981Y-123783471D01*
X183657863Y-123803685D01*
X183702382Y-123855064D01*
X183707264Y-123865533D01*
X183840345Y-124055592D01*
X184004408Y-124219655D01*
X184194467Y-124352736D01*
X184404749Y-124450792D01*
X184404755Y-124450793D01*
X184404756Y-124450794D01*
X184447093Y-124462138D01*
X184628863Y-124510843D01*
X184803410Y-124526114D01*
X184859999Y-124531065D01*
X184860000Y-124531065D01*
X184860001Y-124531065D01*
X184876018Y-124529663D01*
X185091137Y-124510843D01*
X185203752Y-124480667D01*
X185273600Y-124482330D01*
X185323526Y-124512761D01*
X188165139Y-127354374D01*
X188165149Y-127354385D01*
X188169479Y-127358715D01*
X188169480Y-127358716D01*
X188281284Y-127470520D01*
X188281286Y-127470521D01*
X188281290Y-127470524D01*
X188405875Y-127542452D01*
X188418216Y-127549577D01*
X188530019Y-127579534D01*
X188570942Y-127590500D01*
X188570943Y-127590500D01*
X191187497Y-127590500D01*
X191254536Y-127610185D01*
X191300291Y-127662989D01*
X191310235Y-127732147D01*
X191307272Y-127746593D01*
X191264938Y-127904586D01*
X191264936Y-127904596D01*
X191244341Y-128139999D01*
X191244341Y-128140000D01*
X191264936Y-128375403D01*
X191264938Y-128375413D01*
X191326094Y-128603655D01*
X191326096Y-128603659D01*
X191326097Y-128603663D01*
X191358774Y-128673739D01*
X191425965Y-128817830D01*
X191425967Y-128817834D01*
X191448305Y-128849735D01*
X191561505Y-129011401D01*
X191728599Y-129178495D01*
X191783940Y-129217245D01*
X191922165Y-129314032D01*
X191922167Y-129314033D01*
X191922170Y-129314035D01*
X192136337Y-129413903D01*
X192364592Y-129475063D01*
X192552918Y-129491539D01*
X192599999Y-129495659D01*
X192600000Y-129495659D01*
X192600001Y-129495659D01*
X192639234Y-129492226D01*
X192835408Y-129475063D01*
X193063663Y-129413903D01*
X193277830Y-129314035D01*
X193471401Y-129178495D01*
X193638495Y-129011401D01*
X193774035Y-128817830D01*
X193873903Y-128603663D01*
X193935063Y-128375408D01*
X193935064Y-128375391D01*
X193935836Y-128371021D01*
X193966862Y-128308417D01*
X194026808Y-128272525D01*
X194096642Y-128274740D01*
X194145634Y-128304869D01*
X194453181Y-128612416D01*
X194486666Y-128673739D01*
X194489500Y-128700097D01*
X194489500Y-131085908D01*
X194469815Y-131152947D01*
X194417914Y-131198286D01*
X194412173Y-131200963D01*
X194412169Y-131200965D01*
X194218600Y-131336503D01*
X194096284Y-131458819D01*
X194034961Y-131492303D01*
X193965269Y-131487319D01*
X193909336Y-131445447D01*
X193892421Y-131414470D01*
X193843354Y-131282913D01*
X193843350Y-131282906D01*
X193757190Y-131167812D01*
X193757187Y-131167809D01*
X193642093Y-131081649D01*
X193642086Y-131081645D01*
X193507379Y-131031403D01*
X193507372Y-131031401D01*
X193447844Y-131025000D01*
X192800000Y-131025000D01*
X192800000Y-131941988D01*
X192742993Y-131909075D01*
X192615826Y-131875000D01*
X192484174Y-131875000D01*
X192357007Y-131909075D01*
X192300000Y-131941988D01*
X192300000Y-131025000D01*
X191652155Y-131025000D01*
X191592627Y-131031401D01*
X191592620Y-131031403D01*
X191457913Y-131081645D01*
X191457906Y-131081649D01*
X191342812Y-131167809D01*
X191342809Y-131167812D01*
X191256649Y-131282906D01*
X191256645Y-131282913D01*
X191206403Y-131417620D01*
X191206401Y-131417627D01*
X191200000Y-131477155D01*
X191200000Y-132125000D01*
X192116988Y-132125000D01*
X192084075Y-132182007D01*
X192050000Y-132309174D01*
X192050000Y-132440826D01*
X192084075Y-132567993D01*
X192116988Y-132625000D01*
X191200000Y-132625000D01*
X191200000Y-133272844D01*
X191206401Y-133332372D01*
X191206403Y-133332379D01*
X191256645Y-133467086D01*
X191256649Y-133467093D01*
X191342809Y-133582187D01*
X191348441Y-133587819D01*
X191381926Y-133649142D01*
X191376942Y-133718834D01*
X191335070Y-133774767D01*
X191269606Y-133799184D01*
X191260760Y-133799500D01*
X184651569Y-133799500D01*
X184584530Y-133779815D01*
X184563888Y-133763181D01*
X182090706Y-131289999D01*
X184669341Y-131289999D01*
X184669341Y-131290000D01*
X184689936Y-131525403D01*
X184689938Y-131525413D01*
X184751094Y-131753655D01*
X184751096Y-131753659D01*
X184751097Y-131753663D01*
X184807678Y-131875000D01*
X184850965Y-131967830D01*
X184850967Y-131967834D01*
X184921100Y-132067993D01*
X184986505Y-132161401D01*
X185153599Y-132328495D01*
X185204011Y-132363794D01*
X185347165Y-132464032D01*
X185347167Y-132464033D01*
X185347170Y-132464035D01*
X185561337Y-132563903D01*
X185789592Y-132625063D01*
X185977918Y-132641539D01*
X186024999Y-132645659D01*
X186025000Y-132645659D01*
X186025001Y-132645659D01*
X186064234Y-132642226D01*
X186260408Y-132625063D01*
X186488663Y-132563903D01*
X186702830Y-132464035D01*
X186896401Y-132328495D01*
X187063495Y-132161401D01*
X187199035Y-131967830D01*
X187298903Y-131753663D01*
X187360063Y-131525408D01*
X187380659Y-131290000D01*
X187360063Y-131054592D01*
X187298903Y-130826337D01*
X187199035Y-130612171D01*
X187122076Y-130502262D01*
X187063496Y-130418600D01*
X187033979Y-130389083D01*
X186941567Y-130296671D01*
X186908084Y-130235351D01*
X186913068Y-130165659D01*
X186954939Y-130109725D01*
X186985915Y-130092810D01*
X187117331Y-130043796D01*
X187232546Y-129957546D01*
X187318796Y-129842331D01*
X187369091Y-129707483D01*
X187375500Y-129647873D01*
X187375499Y-127852128D01*
X187369091Y-127792517D01*
X187351962Y-127746593D01*
X187318797Y-127657671D01*
X187318793Y-127657664D01*
X187232547Y-127542455D01*
X187232544Y-127542452D01*
X187117335Y-127456206D01*
X187117328Y-127456202D01*
X186982482Y-127405908D01*
X186982483Y-127405908D01*
X186922883Y-127399501D01*
X186922881Y-127399500D01*
X186922873Y-127399500D01*
X186922864Y-127399500D01*
X185127129Y-127399500D01*
X185127123Y-127399501D01*
X185067516Y-127405908D01*
X184932671Y-127456202D01*
X184932664Y-127456206D01*
X184817455Y-127542452D01*
X184817452Y-127542455D01*
X184731206Y-127657664D01*
X184731202Y-127657671D01*
X184680908Y-127792517D01*
X184674501Y-127852116D01*
X184674501Y-127852123D01*
X184674500Y-127852135D01*
X184674500Y-129647870D01*
X184674501Y-129647876D01*
X184680908Y-129707483D01*
X184731202Y-129842328D01*
X184731206Y-129842335D01*
X184817452Y-129957544D01*
X184817455Y-129957547D01*
X184932664Y-130043793D01*
X184932671Y-130043797D01*
X185064081Y-130092810D01*
X185120015Y-130134681D01*
X185144432Y-130200145D01*
X185129580Y-130268418D01*
X185108430Y-130296673D01*
X184986503Y-130418600D01*
X184850965Y-130612169D01*
X184850964Y-130612171D01*
X184751098Y-130826335D01*
X184751094Y-130826344D01*
X184689938Y-131054586D01*
X184689936Y-131054596D01*
X184669341Y-131289999D01*
X182090706Y-131289999D01*
X179287590Y-128486884D01*
X179287588Y-128486881D01*
X179168717Y-128368010D01*
X179168716Y-128368009D01*
X179081904Y-128317889D01*
X179081904Y-128317888D01*
X179081900Y-128317887D01*
X179031785Y-128288952D01*
X178879057Y-128248028D01*
X178720943Y-128248028D01*
X178713347Y-128248028D01*
X178713331Y-128248029D01*
X177305928Y-128248029D01*
X177238889Y-128228344D01*
X177218247Y-128211710D01*
X171818718Y-122812181D01*
X171785233Y-122750858D01*
X171790217Y-122681166D01*
X171832089Y-122625233D01*
X171897553Y-122600816D01*
X171906399Y-122600500D01*
X180946259Y-122600500D01*
X181013298Y-122620185D01*
G37*
%TD.AperFunction*%
%TA.AperFunction,Conductor*%
G36*
X189368607Y-120583141D02*
G01*
X189424540Y-120625013D01*
X189442315Y-120658369D01*
X189474210Y-120749521D01*
X189536551Y-120848735D01*
X189570184Y-120902262D01*
X189697738Y-121029816D01*
X189850478Y-121125789D01*
X190020745Y-121185368D01*
X190020750Y-121185369D01*
X190199996Y-121205565D01*
X190200000Y-121205565D01*
X190200004Y-121205565D01*
X190379249Y-121185369D01*
X190379252Y-121185368D01*
X190379255Y-121185368D01*
X190549522Y-121125789D01*
X190702262Y-121029816D01*
X190702267Y-121029810D01*
X190705097Y-121027555D01*
X190707275Y-121026665D01*
X190708158Y-121026111D01*
X190708255Y-121026265D01*
X190769783Y-121001145D01*
X190782412Y-121000500D01*
X191134083Y-121000500D01*
X191201122Y-121020185D01*
X191246877Y-121072989D01*
X191251125Y-121083546D01*
X191274210Y-121149521D01*
X191296735Y-121185369D01*
X191370184Y-121302262D01*
X191497738Y-121429816D01*
X191625462Y-121510070D01*
X191671753Y-121562405D01*
X191682401Y-121631458D01*
X191654026Y-121695307D01*
X191602824Y-121731246D01*
X191507911Y-121766646D01*
X191507906Y-121766649D01*
X191392812Y-121852809D01*
X191392809Y-121852812D01*
X191306649Y-121967906D01*
X191306645Y-121967913D01*
X191256403Y-122102620D01*
X191256401Y-122102627D01*
X191250000Y-122162155D01*
X191250000Y-122810000D01*
X192166988Y-122810000D01*
X192134075Y-122867007D01*
X192100000Y-122994174D01*
X192100000Y-123125826D01*
X192134075Y-123252993D01*
X192166988Y-123310000D01*
X191250000Y-123310000D01*
X191250000Y-123957844D01*
X191256401Y-124017372D01*
X191256403Y-124017379D01*
X191306645Y-124152086D01*
X191306649Y-124152093D01*
X191392809Y-124267187D01*
X191392812Y-124267190D01*
X191507906Y-124353350D01*
X191507913Y-124353354D01*
X191639470Y-124402421D01*
X191695403Y-124444292D01*
X191719821Y-124509756D01*
X191704970Y-124578029D01*
X191683819Y-124606284D01*
X191561503Y-124728600D01*
X191425965Y-124922169D01*
X191425964Y-124922171D01*
X191326098Y-125136335D01*
X191326094Y-125136344D01*
X191264938Y-125364586D01*
X191264936Y-125364596D01*
X191244341Y-125599999D01*
X191244341Y-125600000D01*
X191264936Y-125835403D01*
X191264938Y-125835413D01*
X191326094Y-126063655D01*
X191326097Y-126063664D01*
X191357330Y-126130642D01*
X191395779Y-126213096D01*
X191406271Y-126282172D01*
X191377751Y-126345956D01*
X191319275Y-126384196D01*
X191283397Y-126389500D01*
X188950097Y-126389500D01*
X188883058Y-126369815D01*
X188862416Y-126353181D01*
X187246714Y-124737479D01*
X187213229Y-124676156D01*
X187218213Y-124606464D01*
X187260085Y-124550531D01*
X187325549Y-124526114D01*
X187345192Y-124526269D01*
X187400000Y-124531065D01*
X187631137Y-124510843D01*
X187855251Y-124450792D01*
X188065533Y-124352736D01*
X188255592Y-124219655D01*
X188419655Y-124055592D01*
X188552736Y-123865533D01*
X188650792Y-123655251D01*
X188710843Y-123431137D01*
X188731065Y-123200000D01*
X188710843Y-122968863D01*
X188650792Y-122744749D01*
X188649391Y-122739519D01*
X188651222Y-122739028D01*
X188647314Y-122677665D01*
X188681277Y-122616605D01*
X188736174Y-122585195D01*
X188831784Y-122559577D01*
X188968716Y-122480520D01*
X189080520Y-122368716D01*
X189159577Y-122231784D01*
X189200500Y-122079057D01*
X189200500Y-120700096D01*
X189220185Y-120633057D01*
X189236815Y-120612419D01*
X189237593Y-120611641D01*
X189298915Y-120578157D01*
X189368607Y-120583141D01*
G37*
%TD.AperFunction*%
%TA.AperFunction,Conductor*%
G36*
X189966942Y-99420185D02*
G01*
X189987584Y-99436819D01*
X190169298Y-99618533D01*
X190202783Y-99679856D01*
X190204837Y-99692330D01*
X190214630Y-99779249D01*
X190274210Y-99949521D01*
X190313730Y-100012416D01*
X190370184Y-100102262D01*
X190497738Y-100229816D01*
X190650478Y-100325789D01*
X190820745Y-100385368D01*
X190820750Y-100385369D01*
X190999996Y-100405565D01*
X191000000Y-100405565D01*
X191000004Y-100405565D01*
X191179249Y-100385369D01*
X191179252Y-100385368D01*
X191179255Y-100385368D01*
X191349522Y-100325789D01*
X191502262Y-100229816D01*
X191629816Y-100102262D01*
X191725789Y-99949522D01*
X191785368Y-99779255D01*
X191791439Y-99725375D01*
X191818505Y-99660960D01*
X191876099Y-99621405D01*
X191945936Y-99619266D01*
X192002340Y-99651576D01*
X192363181Y-100012416D01*
X192396666Y-100073739D01*
X192399500Y-100100097D01*
X192399500Y-101513330D01*
X192399499Y-101513348D01*
X192399499Y-101679054D01*
X192399498Y-101679054D01*
X192440423Y-101831785D01*
X192469358Y-101881900D01*
X192469359Y-101881904D01*
X192469360Y-101881904D01*
X192519479Y-101968714D01*
X192519481Y-101968717D01*
X192638349Y-102087585D01*
X192638355Y-102087590D01*
X199421662Y-108870897D01*
X199455147Y-108932220D01*
X199450163Y-109001912D01*
X199421663Y-109046258D01*
X199370184Y-109097737D01*
X199274211Y-109250476D01*
X199214632Y-109420744D01*
X199214630Y-109420750D01*
X199194435Y-109599996D01*
X199194435Y-109600003D01*
X199214630Y-109779249D01*
X199214631Y-109779254D01*
X199274211Y-109949523D01*
X199370185Y-110102263D01*
X199372445Y-110105097D01*
X199373334Y-110107275D01*
X199373889Y-110108158D01*
X199373734Y-110108255D01*
X199398855Y-110169783D01*
X199399500Y-110182412D01*
X199399500Y-116299903D01*
X199379815Y-116366942D01*
X199363181Y-116387584D01*
X196987584Y-118763181D01*
X196926261Y-118796666D01*
X196899903Y-118799500D01*
X195597626Y-118799500D01*
X195530587Y-118779815D01*
X195484832Y-118727011D01*
X195474888Y-118657853D01*
X195503913Y-118594297D01*
X195509945Y-118587819D01*
X195841988Y-118255775D01*
X195965053Y-118132709D01*
X195977119Y-118123159D01*
X195976819Y-118122792D01*
X195983112Y-118117653D01*
X195985382Y-118115241D01*
X196029826Y-118068014D01*
X196032347Y-118065415D01*
X196080519Y-118017245D01*
X196080521Y-118017240D01*
X196080523Y-118017239D01*
X196085471Y-118010792D01*
X196085848Y-118011081D01*
X196087111Y-118009383D01*
X196086725Y-118009105D01*
X196091475Y-118002509D01*
X196091474Y-118002509D01*
X196091477Y-118002507D01*
X196123730Y-117942510D01*
X196125530Y-117939282D01*
X196159577Y-117880314D01*
X196159578Y-117880309D01*
X196162687Y-117872806D01*
X196163128Y-117872988D01*
X196163912Y-117871012D01*
X196163465Y-117870843D01*
X196166343Y-117863247D01*
X196166347Y-117863241D01*
X196181965Y-117796975D01*
X196182869Y-117793382D01*
X196200501Y-117727586D01*
X196200501Y-117727578D01*
X196201562Y-117719527D01*
X196202031Y-117719588D01*
X196203808Y-117704306D01*
X196209759Y-117679057D01*
X196250971Y-117504206D01*
X196285510Y-117443471D01*
X196297043Y-117434438D01*
X196296819Y-117434157D01*
X196302258Y-117429819D01*
X196302259Y-117429817D01*
X196302262Y-117429816D01*
X196429816Y-117302262D01*
X196525789Y-117149522D01*
X196549449Y-117081903D01*
X196590168Y-117025128D01*
X196652606Y-116999637D01*
X196732683Y-116990615D01*
X196779249Y-116985369D01*
X196779252Y-116985368D01*
X196779255Y-116985368D01*
X196949522Y-116925789D01*
X197102262Y-116829816D01*
X197229816Y-116702262D01*
X197325789Y-116549522D01*
X197385368Y-116379255D01*
X197385369Y-116379249D01*
X197405565Y-116200003D01*
X197405565Y-116199996D01*
X197385369Y-116020750D01*
X197385368Y-116020745D01*
X197342451Y-115898096D01*
X197325789Y-115850478D01*
X197229816Y-115697738D01*
X197102262Y-115570184D01*
X197027034Y-115522915D01*
X196949523Y-115474211D01*
X196779254Y-115414631D01*
X196779249Y-115414630D01*
X196600004Y-115394435D01*
X196599996Y-115394435D01*
X196420750Y-115414630D01*
X196420745Y-115414631D01*
X196250476Y-115474211D01*
X196097736Y-115570185D01*
X196094903Y-115572445D01*
X196092724Y-115573334D01*
X196091842Y-115573889D01*
X196091744Y-115573734D01*
X196030217Y-115598855D01*
X196017588Y-115599500D01*
X195724500Y-115599500D01*
X195657461Y-115579815D01*
X195611706Y-115527011D01*
X195600500Y-115475500D01*
X195600500Y-108382412D01*
X195620185Y-108315373D01*
X195627555Y-108305097D01*
X195629810Y-108302267D01*
X195629816Y-108302262D01*
X195725789Y-108149522D01*
X195785368Y-107979255D01*
X195788920Y-107947734D01*
X195805565Y-107800003D01*
X195805565Y-107799996D01*
X195785369Y-107620750D01*
X195785368Y-107620745D01*
X195763585Y-107558493D01*
X195725789Y-107450478D01*
X195629816Y-107297738D01*
X195502262Y-107170184D01*
X195480933Y-107156782D01*
X195349523Y-107074211D01*
X195179254Y-107014631D01*
X195179249Y-107014630D01*
X195000004Y-106994435D01*
X194999996Y-106994435D01*
X194820750Y-107014630D01*
X194820745Y-107014631D01*
X194650476Y-107074211D01*
X194497737Y-107170184D01*
X194370184Y-107297737D01*
X194274211Y-107450476D01*
X194214631Y-107620745D01*
X194214630Y-107620750D01*
X194194435Y-107799996D01*
X194194435Y-107800003D01*
X194214630Y-107979249D01*
X194214631Y-107979254D01*
X194274211Y-108149523D01*
X194370185Y-108302263D01*
X194372445Y-108305097D01*
X194373334Y-108307275D01*
X194373889Y-108308158D01*
X194373734Y-108308255D01*
X194398855Y-108369783D01*
X194399500Y-108382412D01*
X194399500Y-111283677D01*
X194379815Y-111350716D01*
X194327011Y-111396471D01*
X194289384Y-111406897D01*
X194220750Y-111414630D01*
X194050478Y-111474210D01*
X193897737Y-111570184D01*
X193770184Y-111697737D01*
X193674211Y-111850476D01*
X193614631Y-112020745D01*
X193614630Y-112020750D01*
X193594435Y-112199996D01*
X193594435Y-112200003D01*
X193614630Y-112379249D01*
X193614631Y-112379254D01*
X193674211Y-112549523D01*
X193719302Y-112621284D01*
X193752952Y-112674838D01*
X193770185Y-112702263D01*
X193772445Y-112705097D01*
X193773334Y-112707275D01*
X193773889Y-112708158D01*
X193773734Y-112708255D01*
X193798855Y-112769783D01*
X193799500Y-112782412D01*
X193799500Y-113075500D01*
X193779815Y-113142539D01*
X193727011Y-113188294D01*
X193675500Y-113199500D01*
X191872413Y-113199500D01*
X191719685Y-113240423D01*
X191697265Y-113253368D01*
X191697264Y-113253368D01*
X191582758Y-113319477D01*
X191582753Y-113319481D01*
X191470951Y-113431284D01*
X191470949Y-113431286D01*
X191131236Y-113771000D01*
X190809055Y-114093181D01*
X190747732Y-114126666D01*
X190721374Y-114129500D01*
X178721079Y-114129500D01*
X178654040Y-114109815D01*
X178608285Y-114057011D01*
X178601304Y-114037595D01*
X178600501Y-114034597D01*
X178559577Y-113881870D01*
X178548258Y-113862265D01*
X178480524Y-113744944D01*
X178480518Y-113744936D01*
X177976005Y-113240423D01*
X177410418Y-112674837D01*
X177376934Y-112613515D01*
X177381918Y-112543823D01*
X177410416Y-112499479D01*
X177438495Y-112471401D01*
X177574035Y-112277830D01*
X177673903Y-112063663D01*
X177735063Y-111835408D01*
X177755659Y-111600000D01*
X177735063Y-111364592D01*
X177673903Y-111136337D01*
X177574035Y-110922171D01*
X177571181Y-110918094D01*
X177438494Y-110728597D01*
X177271402Y-110561506D01*
X177271396Y-110561501D01*
X177085842Y-110431575D01*
X177042217Y-110376998D01*
X177035023Y-110307500D01*
X177066546Y-110245145D01*
X177085842Y-110228425D01*
X177119668Y-110204740D01*
X177271401Y-110098495D01*
X177438495Y-109931401D01*
X177574035Y-109737830D01*
X177673903Y-109523663D01*
X177735063Y-109295408D01*
X177755659Y-109060000D01*
X177735063Y-108824592D01*
X177682722Y-108629249D01*
X177673905Y-108596344D01*
X177673904Y-108596343D01*
X177673903Y-108596337D01*
X177574035Y-108382171D01*
X177568425Y-108374158D01*
X177438494Y-108188597D01*
X177271402Y-108021506D01*
X177271396Y-108021501D01*
X177085842Y-107891575D01*
X177042217Y-107836998D01*
X177035023Y-107767500D01*
X177066546Y-107705145D01*
X177085842Y-107688425D01*
X177108026Y-107672891D01*
X177271401Y-107558495D01*
X177438495Y-107391401D01*
X177574035Y-107197830D01*
X177673903Y-106983663D01*
X177735063Y-106755408D01*
X177755659Y-106520000D01*
X177735063Y-106284592D01*
X177673903Y-106056337D01*
X177574035Y-105842171D01*
X177522465Y-105768520D01*
X177438494Y-105648597D01*
X177271402Y-105481506D01*
X177271396Y-105481501D01*
X177085842Y-105351575D01*
X177042217Y-105296998D01*
X177035023Y-105227500D01*
X177066546Y-105165145D01*
X177085842Y-105148425D01*
X177191830Y-105074211D01*
X177271401Y-105018495D01*
X177438495Y-104851401D01*
X177574035Y-104657830D01*
X177673903Y-104443663D01*
X177735063Y-104215408D01*
X177755659Y-103980000D01*
X177755576Y-103979057D01*
X177741743Y-103820942D01*
X177735063Y-103744592D01*
X177673903Y-103516337D01*
X177604220Y-103366904D01*
X177593729Y-103297828D01*
X177622249Y-103234044D01*
X177680725Y-103195804D01*
X177716603Y-103190500D01*
X179120436Y-103190500D01*
X179187475Y-103210185D01*
X179233230Y-103262989D01*
X179243174Y-103332147D01*
X179237478Y-103355455D01*
X179214631Y-103420745D01*
X179214630Y-103420750D01*
X179194435Y-103599996D01*
X179194435Y-103600003D01*
X179214630Y-103779249D01*
X179214631Y-103779254D01*
X179274211Y-103949523D01*
X179370184Y-104102262D01*
X179497738Y-104229816D01*
X179550501Y-104262969D01*
X179647156Y-104323702D01*
X179650478Y-104325789D01*
X179820745Y-104385368D01*
X179820750Y-104385369D01*
X179999996Y-104405565D01*
X180000000Y-104405565D01*
X180000004Y-104405565D01*
X180179249Y-104385369D01*
X180179252Y-104385368D01*
X180179255Y-104385368D01*
X180349522Y-104325789D01*
X180502262Y-104229816D01*
X180502267Y-104229810D01*
X180505097Y-104227555D01*
X180507275Y-104226665D01*
X180508158Y-104226111D01*
X180508255Y-104226265D01*
X180569783Y-104201145D01*
X180582412Y-104200500D01*
X181099903Y-104200500D01*
X181166942Y-104220185D01*
X181187584Y-104236819D01*
X182769298Y-105818533D01*
X182802783Y-105879856D01*
X182804837Y-105892330D01*
X182814630Y-105979249D01*
X182874210Y-106149521D01*
X182896735Y-106185369D01*
X182970184Y-106302262D01*
X183097738Y-106429816D01*
X183241474Y-106520131D01*
X183287763Y-106572463D01*
X183299500Y-106625123D01*
X183299500Y-107867587D01*
X183279815Y-107934626D01*
X183272450Y-107944896D01*
X183270186Y-107947734D01*
X183174211Y-108100476D01*
X183114631Y-108270745D01*
X183114630Y-108270750D01*
X183094435Y-108449996D01*
X183094435Y-108450003D01*
X183114630Y-108629249D01*
X183114631Y-108629254D01*
X183174211Y-108799523D01*
X183270185Y-108952263D01*
X183272445Y-108955097D01*
X183273334Y-108957275D01*
X183273889Y-108958158D01*
X183273734Y-108958255D01*
X183298855Y-109019783D01*
X183299500Y-109032412D01*
X183299500Y-110117059D01*
X183279815Y-110184098D01*
X183263182Y-110204740D01*
X183170183Y-110297739D01*
X183074211Y-110450476D01*
X183014631Y-110620745D01*
X183014630Y-110620750D01*
X182994435Y-110799996D01*
X182994435Y-110800003D01*
X183014630Y-110979249D01*
X183014631Y-110979254D01*
X183074211Y-111149523D01*
X183155603Y-111279057D01*
X183170184Y-111302262D01*
X183297738Y-111429816D01*
X183368391Y-111474210D01*
X183433544Y-111515149D01*
X183450478Y-111525789D01*
X183577352Y-111570184D01*
X183620745Y-111585368D01*
X183620750Y-111585369D01*
X183799996Y-111605565D01*
X183800000Y-111605565D01*
X183800004Y-111605565D01*
X183979249Y-111585369D01*
X183979252Y-111585368D01*
X183979255Y-111585368D01*
X184149522Y-111525789D01*
X184302262Y-111429816D01*
X184429816Y-111302262D01*
X184525789Y-111149522D01*
X184585368Y-110979255D01*
X184586612Y-110968215D01*
X184605565Y-110800003D01*
X184605565Y-110799996D01*
X184585369Y-110620750D01*
X184585366Y-110620737D01*
X184525790Y-110450479D01*
X184519506Y-110440478D01*
X184500500Y-110374507D01*
X184500500Y-109799996D01*
X186194435Y-109799996D01*
X186194435Y-109800003D01*
X186214630Y-109979249D01*
X186214631Y-109979254D01*
X186274211Y-110149523D01*
X186367235Y-110297569D01*
X186370184Y-110302262D01*
X186497738Y-110429816D01*
X186650478Y-110525789D01*
X186820745Y-110585368D01*
X186907669Y-110595161D01*
X186972080Y-110622226D01*
X186981465Y-110630700D01*
X188563181Y-112212416D01*
X188596666Y-112273739D01*
X188599500Y-112300097D01*
X188599500Y-112417587D01*
X188579815Y-112484626D01*
X188572450Y-112494896D01*
X188570186Y-112497734D01*
X188474211Y-112650476D01*
X188414631Y-112820745D01*
X188414630Y-112820750D01*
X188394435Y-112999996D01*
X188394435Y-113000003D01*
X188414630Y-113179249D01*
X188414631Y-113179254D01*
X188474211Y-113349523D01*
X188570184Y-113502262D01*
X188697738Y-113629816D01*
X188850478Y-113725789D01*
X188905203Y-113744938D01*
X189020745Y-113785368D01*
X189020750Y-113785369D01*
X189199996Y-113805565D01*
X189200000Y-113805565D01*
X189200004Y-113805565D01*
X189379249Y-113785369D01*
X189379252Y-113785368D01*
X189379255Y-113785368D01*
X189549522Y-113725789D01*
X189702262Y-113629816D01*
X189829816Y-113502262D01*
X189925789Y-113349522D01*
X189985368Y-113179255D01*
X189993682Y-113105467D01*
X190005565Y-113000003D01*
X190005565Y-112999996D01*
X189985369Y-112820750D01*
X189985368Y-112820745D01*
X189925788Y-112650476D01*
X189864371Y-112552732D01*
X189829816Y-112497738D01*
X189829814Y-112497736D01*
X189829813Y-112497734D01*
X189827550Y-112494896D01*
X189826659Y-112492715D01*
X189826111Y-112491842D01*
X189826264Y-112491745D01*
X189801144Y-112430209D01*
X189800500Y-112417587D01*
X189800500Y-112089059D01*
X189800501Y-112089046D01*
X189800501Y-111920945D01*
X189800501Y-111920943D01*
X189759577Y-111768215D01*
X189718887Y-111697738D01*
X189680520Y-111631284D01*
X189568716Y-111519480D01*
X189568715Y-111519479D01*
X189564385Y-111515149D01*
X189564374Y-111515139D01*
X187830700Y-109781465D01*
X187797215Y-109720142D01*
X187795163Y-109707686D01*
X187785368Y-109620745D01*
X187725789Y-109450478D01*
X187629816Y-109297738D01*
X187502262Y-109170184D01*
X187349523Y-109074211D01*
X187179254Y-109014631D01*
X187179249Y-109014630D01*
X187000004Y-108994435D01*
X186999996Y-108994435D01*
X186820750Y-109014630D01*
X186820745Y-109014631D01*
X186650476Y-109074211D01*
X186497737Y-109170184D01*
X186370184Y-109297737D01*
X186274211Y-109450476D01*
X186214631Y-109620745D01*
X186214630Y-109620750D01*
X186194435Y-109799996D01*
X184500500Y-109799996D01*
X184500500Y-109032412D01*
X184520185Y-108965373D01*
X184527555Y-108955097D01*
X184529810Y-108952267D01*
X184529816Y-108952262D01*
X184625789Y-108799522D01*
X184685368Y-108629255D01*
X184685369Y-108629249D01*
X184705565Y-108450003D01*
X184705565Y-108449996D01*
X184685369Y-108270750D01*
X184685368Y-108270745D01*
X184646799Y-108160522D01*
X184625789Y-108100478D01*
X184624985Y-108099199D01*
X184581195Y-108029507D01*
X184529816Y-107947738D01*
X184529814Y-107947736D01*
X184529813Y-107947734D01*
X184527550Y-107944896D01*
X184526659Y-107942715D01*
X184526111Y-107941842D01*
X184526264Y-107941745D01*
X184501144Y-107880209D01*
X184500500Y-107867587D01*
X184500500Y-106130012D01*
X184520185Y-106062973D01*
X184572989Y-106017218D01*
X184642147Y-106007274D01*
X184690532Y-106028194D01*
X184691842Y-106026111D01*
X184697737Y-106029815D01*
X184697738Y-106029816D01*
X184850478Y-106125789D01*
X185020745Y-106185368D01*
X185020750Y-106185369D01*
X185199996Y-106205565D01*
X185200000Y-106205565D01*
X185200004Y-106205565D01*
X185379249Y-106185369D01*
X185379252Y-106185368D01*
X185379255Y-106185368D01*
X185549522Y-106125789D01*
X185702262Y-106029816D01*
X185829816Y-105902262D01*
X185925789Y-105749522D01*
X185985368Y-105579255D01*
X185993734Y-105505003D01*
X185993735Y-105504996D01*
X192434435Y-105504996D01*
X192434435Y-105505003D01*
X192454630Y-105684249D01*
X192454631Y-105684254D01*
X192514211Y-105854523D01*
X192530129Y-105879856D01*
X192610184Y-106007262D01*
X192737738Y-106134816D01*
X192890478Y-106230789D01*
X193044221Y-106284586D01*
X193060745Y-106290368D01*
X193060750Y-106290369D01*
X193239996Y-106310565D01*
X193240000Y-106310565D01*
X193240004Y-106310565D01*
X193419249Y-106290369D01*
X193419252Y-106290368D01*
X193419255Y-106290368D01*
X193589522Y-106230789D01*
X193742262Y-106134816D01*
X193869816Y-106007262D01*
X193965789Y-105854522D01*
X194025368Y-105684255D01*
X194025369Y-105684249D01*
X194045565Y-105505003D01*
X194045565Y-105504996D01*
X194025369Y-105325750D01*
X194025368Y-105325745D01*
X193998864Y-105250000D01*
X193965789Y-105155478D01*
X193964882Y-105154035D01*
X193915750Y-105075842D01*
X193869816Y-105002738D01*
X193742262Y-104875184D01*
X193704402Y-104851395D01*
X193589523Y-104779211D01*
X193419254Y-104719631D01*
X193419249Y-104719630D01*
X193240004Y-104699435D01*
X193239996Y-104699435D01*
X193060750Y-104719630D01*
X193060745Y-104719631D01*
X192890476Y-104779211D01*
X192737737Y-104875184D01*
X192610184Y-105002737D01*
X192514211Y-105155476D01*
X192454631Y-105325745D01*
X192454630Y-105325750D01*
X192434435Y-105504996D01*
X185993735Y-105504996D01*
X186005565Y-105400003D01*
X186005565Y-105399996D01*
X185985369Y-105220750D01*
X185985368Y-105220745D01*
X185934664Y-105075842D01*
X185925789Y-105050478D01*
X185905691Y-105018493D01*
X185829815Y-104897737D01*
X185702262Y-104770184D01*
X185549523Y-104674211D01*
X185379254Y-104614631D01*
X185379249Y-104614630D01*
X185200004Y-104594435D01*
X185199996Y-104594435D01*
X185020750Y-104614630D01*
X185020745Y-104614631D01*
X184850476Y-104674211D01*
X184697737Y-104770184D01*
X184570184Y-104897737D01*
X184474211Y-105050476D01*
X184412332Y-105227318D01*
X184409648Y-105226378D01*
X184381738Y-105276200D01*
X184320055Y-105309018D01*
X184250422Y-105303278D01*
X184207332Y-105275254D01*
X184102262Y-105170184D01*
X183949521Y-105074210D01*
X183779249Y-105014630D01*
X183692330Y-105004837D01*
X183627916Y-104977770D01*
X183618533Y-104969298D01*
X182051416Y-103402181D01*
X182017931Y-103340858D01*
X182022915Y-103271166D01*
X182064787Y-103215233D01*
X182130251Y-103190816D01*
X182139097Y-103190500D01*
X185923331Y-103190500D01*
X185923347Y-103190501D01*
X185930943Y-103190501D01*
X186089054Y-103190501D01*
X186089057Y-103190501D01*
X186241785Y-103149577D01*
X186252802Y-103143215D01*
X186293913Y-103119481D01*
X186293914Y-103119480D01*
X186378716Y-103070520D01*
X186490520Y-102958716D01*
X186490520Y-102958714D01*
X186500724Y-102948511D01*
X186500728Y-102948506D01*
X187418535Y-102030698D01*
X187479856Y-101997215D01*
X187492311Y-101995163D01*
X187579255Y-101985368D01*
X187749522Y-101925789D01*
X187902262Y-101829816D01*
X188029816Y-101702262D01*
X188125789Y-101549522D01*
X188185368Y-101379255D01*
X188205048Y-101204592D01*
X188205565Y-101200003D01*
X188205565Y-101199996D01*
X188185369Y-101020750D01*
X188185368Y-101020745D01*
X188125788Y-100850476D01*
X188029815Y-100697737D01*
X187902262Y-100570184D01*
X187749523Y-100474211D01*
X187579254Y-100414631D01*
X187579249Y-100414630D01*
X187400004Y-100394435D01*
X187399996Y-100394435D01*
X187220750Y-100414630D01*
X187220745Y-100414631D01*
X187050476Y-100474211D01*
X186897737Y-100570184D01*
X186770184Y-100697737D01*
X186674210Y-100850478D01*
X186614630Y-101020750D01*
X186604837Y-101107668D01*
X186577770Y-101172082D01*
X186569298Y-101181465D01*
X185797584Y-101953181D01*
X185736261Y-101986666D01*
X185709903Y-101989500D01*
X177812503Y-101989500D01*
X177745464Y-101969815D01*
X177699709Y-101917011D01*
X177689765Y-101847853D01*
X177692728Y-101833407D01*
X177702195Y-101798072D01*
X177735063Y-101675408D01*
X177755659Y-101440000D01*
X177735063Y-101204592D01*
X177673903Y-100976337D01*
X177673900Y-100976331D01*
X177672053Y-100971256D01*
X177673242Y-100970822D01*
X177663677Y-100907820D01*
X177692201Y-100844038D01*
X177750679Y-100805802D01*
X177786550Y-100800500D01*
X184064802Y-100800500D01*
X184064818Y-100800501D01*
X184072414Y-100800501D01*
X184230525Y-100800501D01*
X184230528Y-100800501D01*
X184383256Y-100759577D01*
X184452704Y-100719481D01*
X184520187Y-100680520D01*
X184631991Y-100568716D01*
X184631991Y-100568714D01*
X184642195Y-100558511D01*
X184642198Y-100558506D01*
X185763887Y-99436819D01*
X185825210Y-99403334D01*
X185851568Y-99400500D01*
X189899903Y-99400500D01*
X189966942Y-99420185D01*
G37*
%TD.AperFunction*%
%TA.AperFunction,Conductor*%
G36*
X171364210Y-104261988D02*
G01*
X171396969Y-104323702D01*
X171399500Y-104348628D01*
X171399500Y-106699903D01*
X171379815Y-106766942D01*
X171363181Y-106787584D01*
X167886681Y-110264084D01*
X167825358Y-110297569D01*
X167755666Y-110292585D01*
X167699733Y-110250713D01*
X167675316Y-110185249D01*
X167675000Y-110176403D01*
X167675000Y-107825597D01*
X167694685Y-107758558D01*
X167711319Y-107737916D01*
X169323447Y-106125788D01*
X170980520Y-104468716D01*
X170980520Y-104468715D01*
X170997948Y-104451287D01*
X170997953Y-104451280D01*
X171180520Y-104268716D01*
X171180520Y-104268715D01*
X171186267Y-104262969D01*
X171188289Y-104264991D01*
X171233541Y-104231943D01*
X171303287Y-104227781D01*
X171364210Y-104261988D01*
G37*
%TD.AperFunction*%
%TA.AperFunction,Conductor*%
G36*
X178966942Y-97820185D02*
G01*
X178987584Y-97836819D01*
X180169298Y-99018533D01*
X180202783Y-99079856D01*
X180204837Y-99092330D01*
X180214630Y-99179249D01*
X180274210Y-99349521D01*
X180311915Y-99409528D01*
X180330915Y-99476765D01*
X180310547Y-99543600D01*
X180257279Y-99588814D01*
X180206921Y-99599500D01*
X177874000Y-99599500D01*
X177806961Y-99579815D01*
X177761206Y-99527011D01*
X177750000Y-99475500D01*
X177750000Y-99150000D01*
X176833012Y-99150000D01*
X176865925Y-99092993D01*
X176900000Y-98965826D01*
X176900000Y-98834174D01*
X176865925Y-98707007D01*
X176833012Y-98650000D01*
X177750000Y-98650000D01*
X177750000Y-98002172D01*
X177749999Y-98002155D01*
X177743075Y-97937756D01*
X177755480Y-97868996D01*
X177803090Y-97817859D01*
X177866364Y-97800500D01*
X178899903Y-97800500D01*
X178966942Y-97820185D01*
G37*
%TD.AperFunction*%
%TA.AperFunction,Conductor*%
G36*
X230842539Y-69120185D02*
G01*
X230888294Y-69172989D01*
X230899500Y-69224500D01*
X230899500Y-85826000D01*
X230879815Y-85893039D01*
X230827011Y-85938794D01*
X230775500Y-85950000D01*
X212490000Y-85950000D01*
X212490000Y-133950000D01*
X230775500Y-133950000D01*
X230842539Y-133969685D01*
X230888294Y-134022489D01*
X230899500Y-134074000D01*
X230899500Y-135975500D01*
X230879815Y-136042539D01*
X230827011Y-136088294D01*
X230775500Y-136099500D01*
X164624500Y-136099500D01*
X164557461Y-136079815D01*
X164511706Y-136027011D01*
X164500500Y-135975500D01*
X164500500Y-118996252D01*
X166473998Y-118996252D01*
X166514923Y-119148983D01*
X166526316Y-119168716D01*
X166593977Y-119285910D01*
X166593981Y-119285915D01*
X166712849Y-119404783D01*
X166712855Y-119404788D01*
X176520970Y-129212903D01*
X176520980Y-129212914D01*
X176525310Y-129217244D01*
X176525311Y-129217245D01*
X176637115Y-129329049D01*
X176708364Y-129370184D01*
X176774046Y-129408106D01*
X176926774Y-129449030D01*
X176926777Y-129449030D01*
X177092484Y-129449030D01*
X177092500Y-129449029D01*
X178499903Y-129449029D01*
X178566942Y-129468714D01*
X178587583Y-129485347D01*
X183982755Y-134880520D01*
X183982757Y-134880521D01*
X183982761Y-134880524D01*
X184119680Y-134959573D01*
X184119687Y-134959577D01*
X184272414Y-135000501D01*
X184272416Y-135000501D01*
X184438125Y-135000501D01*
X184438141Y-135000500D01*
X197479055Y-135000500D01*
X197479057Y-135000500D01*
X197631784Y-134959577D01*
X197768716Y-134880520D01*
X197880520Y-134768716D01*
X197959577Y-134631784D01*
X198000500Y-134479057D01*
X198000500Y-130100096D01*
X198020185Y-130033057D01*
X198036814Y-130012420D01*
X201206035Y-126843198D01*
X201267356Y-126809715D01*
X201279811Y-126807663D01*
X201366755Y-126797868D01*
X201537022Y-126738289D01*
X201689762Y-126642316D01*
X201817316Y-126514762D01*
X201913289Y-126362022D01*
X201972868Y-126191755D01*
X201985401Y-126080520D01*
X201993065Y-126012503D01*
X201993065Y-126012496D01*
X201972869Y-125833250D01*
X201972868Y-125833245D01*
X201913288Y-125662976D01*
X201817315Y-125510237D01*
X201689762Y-125382684D01*
X201537023Y-125286711D01*
X201366754Y-125227131D01*
X201366749Y-125227130D01*
X201187504Y-125206935D01*
X201187496Y-125206935D01*
X201008250Y-125227130D01*
X201008245Y-125227131D01*
X200837976Y-125286711D01*
X200685237Y-125382684D01*
X200557684Y-125510237D01*
X200461710Y-125662978D01*
X200402130Y-125833250D01*
X200392337Y-125920168D01*
X200365270Y-125984582D01*
X200356798Y-125993965D01*
X197031286Y-129319478D01*
X196919481Y-129431282D01*
X196919480Y-129431284D01*
X196881113Y-129497738D01*
X196840423Y-129568215D01*
X196799499Y-129720943D01*
X196799499Y-129720945D01*
X196799499Y-129889046D01*
X196799500Y-129889059D01*
X196799500Y-133675500D01*
X196779815Y-133742539D01*
X196727011Y-133788294D01*
X196675500Y-133799500D01*
X195790033Y-133799500D01*
X195722994Y-133779815D01*
X195677239Y-133727011D01*
X195667295Y-133657853D01*
X195696320Y-133594297D01*
X195737629Y-133563118D01*
X195737692Y-133563088D01*
X195767830Y-133549035D01*
X195961401Y-133413495D01*
X196128495Y-133246401D01*
X196264035Y-133052830D01*
X196363903Y-132838663D01*
X196425063Y-132610408D01*
X196445659Y-132375000D01*
X196425063Y-132139592D01*
X196363903Y-131911337D01*
X196264035Y-131697171D01*
X196171473Y-131564977D01*
X196128494Y-131503597D01*
X195961402Y-131336506D01*
X195961395Y-131336501D01*
X195767831Y-131200965D01*
X195767826Y-131200962D01*
X195762091Y-131198288D01*
X195709653Y-131152113D01*
X195690500Y-131085908D01*
X195690500Y-128230945D01*
X195690500Y-128230943D01*
X195649577Y-128078216D01*
X195582817Y-127962583D01*
X195570524Y-127941290D01*
X195570518Y-127941282D01*
X195458717Y-127829481D01*
X195458709Y-127829475D01*
X195321790Y-127750426D01*
X195321782Y-127750422D01*
X195309988Y-127747262D01*
X195254404Y-127715169D01*
X194167590Y-126628355D01*
X194167588Y-126628352D01*
X194048717Y-126509481D01*
X194048716Y-126509480D01*
X193961904Y-126459360D01*
X193961904Y-126459359D01*
X193961900Y-126459358D01*
X193914319Y-126431886D01*
X193866104Y-126381318D01*
X193852883Y-126312711D01*
X193878852Y-126247847D01*
X193935767Y-126207319D01*
X193976321Y-126200500D01*
X195113331Y-126200500D01*
X195113347Y-126200501D01*
X195120943Y-126200501D01*
X195279054Y-126200501D01*
X195279057Y-126200501D01*
X195431785Y-126159577D01*
X195481904Y-126130639D01*
X195568716Y-126080520D01*
X195680520Y-125968716D01*
X195680520Y-125968714D01*
X195690728Y-125958507D01*
X195690730Y-125958504D01*
X200818535Y-120830698D01*
X200879856Y-120797215D01*
X200892311Y-120795163D01*
X200979255Y-120785368D01*
X201149522Y-120725789D01*
X201302262Y-120629816D01*
X201429816Y-120502262D01*
X201525789Y-120349522D01*
X201585368Y-120179255D01*
X201588568Y-120150858D01*
X201605565Y-120000003D01*
X201605565Y-119999996D01*
X201585369Y-119820750D01*
X201585368Y-119820745D01*
X201537398Y-119683655D01*
X201525789Y-119650478D01*
X201503265Y-119614632D01*
X201453929Y-119536114D01*
X201429816Y-119497738D01*
X201302262Y-119370184D01*
X201290227Y-119362622D01*
X201149523Y-119274211D01*
X200979254Y-119214631D01*
X200979249Y-119214630D01*
X200800004Y-119194435D01*
X200799996Y-119194435D01*
X200620750Y-119214630D01*
X200620745Y-119214631D01*
X200450476Y-119274211D01*
X200297737Y-119370184D01*
X200170184Y-119497737D01*
X200074210Y-119650478D01*
X200014630Y-119820750D01*
X200004837Y-119907668D01*
X199977770Y-119972082D01*
X199969298Y-119981465D01*
X194987584Y-124963181D01*
X194926261Y-124996666D01*
X194899903Y-124999500D01*
X193889091Y-124999500D01*
X193822052Y-124979815D01*
X193776711Y-124927909D01*
X193774037Y-124922175D01*
X193774034Y-124922170D01*
X193774033Y-124922169D01*
X193638495Y-124728599D01*
X193516179Y-124606283D01*
X193482696Y-124544963D01*
X193487680Y-124475271D01*
X193529551Y-124419337D01*
X193560529Y-124402422D01*
X193692086Y-124353354D01*
X193692093Y-124353350D01*
X193807187Y-124267190D01*
X193807190Y-124267187D01*
X193893350Y-124152093D01*
X193893354Y-124152086D01*
X193943596Y-124017379D01*
X193943598Y-124017372D01*
X193949999Y-123957844D01*
X193950000Y-123957827D01*
X193950000Y-123310000D01*
X193033012Y-123310000D01*
X193065925Y-123252993D01*
X193100000Y-123125826D01*
X193100000Y-122994174D01*
X193065925Y-122867007D01*
X193033012Y-122810000D01*
X193950000Y-122810000D01*
X193950000Y-122162172D01*
X193949999Y-122162155D01*
X193943598Y-122102627D01*
X193943596Y-122102620D01*
X193893354Y-121967913D01*
X193893350Y-121967906D01*
X193807190Y-121852812D01*
X193768390Y-121823766D01*
X193726520Y-121767832D01*
X193721536Y-121698140D01*
X193755022Y-121636818D01*
X193816345Y-121603333D01*
X193842702Y-121600500D01*
X195313331Y-121600500D01*
X195313347Y-121600501D01*
X195320943Y-121600501D01*
X195479054Y-121600501D01*
X195479057Y-121600501D01*
X195631785Y-121559577D01*
X195690307Y-121525789D01*
X195768716Y-121480520D01*
X195768717Y-121480519D01*
X195818535Y-121430701D01*
X195879858Y-121397215D01*
X195892316Y-121395162D01*
X195979255Y-121385368D01*
X196149522Y-121325789D01*
X196302262Y-121229816D01*
X196429816Y-121102262D01*
X196525789Y-120949522D01*
X196585368Y-120779255D01*
X196588718Y-120749522D01*
X196605565Y-120600003D01*
X196605565Y-120599996D01*
X196585369Y-120420750D01*
X196585368Y-120420745D01*
X196558729Y-120344616D01*
X196525789Y-120250478D01*
X196525788Y-120250476D01*
X196488085Y-120190472D01*
X196469085Y-120123235D01*
X196489453Y-120056400D01*
X196542721Y-120011186D01*
X196593079Y-120000500D01*
X197113331Y-120000500D01*
X197113347Y-120000501D01*
X197120943Y-120000501D01*
X197279054Y-120000501D01*
X197279057Y-120000501D01*
X197431785Y-119959577D01*
X197495138Y-119923000D01*
X197568716Y-119880520D01*
X197680520Y-119768716D01*
X197680520Y-119768714D01*
X197690724Y-119758511D01*
X197690728Y-119758506D01*
X200358506Y-117090728D01*
X200358511Y-117090724D01*
X200368714Y-117080520D01*
X200368716Y-117080520D01*
X200480520Y-116968716D01*
X200535867Y-116872851D01*
X200559577Y-116831785D01*
X200593375Y-116705649D01*
X200629739Y-116645992D01*
X200692586Y-116615463D01*
X200761962Y-116623758D01*
X200800830Y-116650065D01*
X205963181Y-121812416D01*
X205996666Y-121873739D01*
X205999500Y-121900097D01*
X205999500Y-130970986D01*
X205979815Y-131038025D01*
X205927011Y-131083780D01*
X205857853Y-131093724D01*
X205804377Y-131072561D01*
X205737834Y-131025967D01*
X205737830Y-131025965D01*
X205619927Y-130970986D01*
X205523663Y-130926097D01*
X205523659Y-130926096D01*
X205523655Y-130926094D01*
X205295413Y-130864938D01*
X205295403Y-130864936D01*
X205060001Y-130844341D01*
X205059999Y-130844341D01*
X204824596Y-130864936D01*
X204824586Y-130864938D01*
X204596344Y-130926094D01*
X204596335Y-130926098D01*
X204382171Y-131025964D01*
X204382169Y-131025965D01*
X204188597Y-131161505D01*
X204021505Y-131328597D01*
X203891575Y-131514158D01*
X203836998Y-131557783D01*
X203767500Y-131564977D01*
X203705145Y-131533454D01*
X203688425Y-131514158D01*
X203558494Y-131328597D01*
X203391402Y-131161506D01*
X203391395Y-131161501D01*
X203197834Y-131025967D01*
X203197830Y-131025965D01*
X203079927Y-130970986D01*
X202983663Y-130926097D01*
X202983659Y-130926096D01*
X202983655Y-130926094D01*
X202755413Y-130864938D01*
X202755403Y-130864936D01*
X202520001Y-130844341D01*
X202519999Y-130844341D01*
X202284596Y-130864936D01*
X202284586Y-130864938D01*
X202056344Y-130926094D01*
X202056335Y-130926098D01*
X201842171Y-131025964D01*
X201842169Y-131025965D01*
X201648600Y-131161503D01*
X201526284Y-131283819D01*
X201464961Y-131317303D01*
X201395269Y-131312319D01*
X201339336Y-131270447D01*
X201322421Y-131239470D01*
X201273354Y-131107913D01*
X201273350Y-131107906D01*
X201187190Y-130992812D01*
X201187187Y-130992809D01*
X201072093Y-130906649D01*
X201072086Y-130906645D01*
X200937379Y-130856403D01*
X200937372Y-130856401D01*
X200877844Y-130850000D01*
X200230000Y-130850000D01*
X200230000Y-131766988D01*
X200172993Y-131734075D01*
X200045826Y-131700000D01*
X199914174Y-131700000D01*
X199787007Y-131734075D01*
X199730000Y-131766988D01*
X199730000Y-130850000D01*
X199082155Y-130850000D01*
X199022627Y-130856401D01*
X199022620Y-130856403D01*
X198887913Y-130906645D01*
X198887906Y-130906649D01*
X198772812Y-130992809D01*
X198772809Y-130992812D01*
X198686649Y-131107906D01*
X198686645Y-131107913D01*
X198636403Y-131242620D01*
X198636401Y-131242627D01*
X198630000Y-131302155D01*
X198630000Y-131950000D01*
X199546988Y-131950000D01*
X199514075Y-132007007D01*
X199480000Y-132134174D01*
X199480000Y-132265826D01*
X199514075Y-132392993D01*
X199546988Y-132450000D01*
X198630000Y-132450000D01*
X198630000Y-133097844D01*
X198636401Y-133157372D01*
X198636403Y-133157379D01*
X198686645Y-133292086D01*
X198686649Y-133292093D01*
X198772809Y-133407187D01*
X198772812Y-133407190D01*
X198887906Y-133493350D01*
X198887913Y-133493354D01*
X199022620Y-133543596D01*
X199022627Y-133543598D01*
X199082155Y-133549999D01*
X199082172Y-133550000D01*
X199730000Y-133550000D01*
X199730000Y-132633012D01*
X199787007Y-132665925D01*
X199914174Y-132700000D01*
X200045826Y-132700000D01*
X200172993Y-132665925D01*
X200230000Y-132633012D01*
X200230000Y-133550000D01*
X200877828Y-133550000D01*
X200877844Y-133549999D01*
X200937372Y-133543598D01*
X200937379Y-133543596D01*
X201072086Y-133493354D01*
X201072093Y-133493350D01*
X201187187Y-133407190D01*
X201187190Y-133407187D01*
X201273350Y-133292093D01*
X201273354Y-133292086D01*
X201322422Y-133160529D01*
X201364293Y-133104595D01*
X201429757Y-133080178D01*
X201498030Y-133095030D01*
X201526285Y-133116181D01*
X201648599Y-133238495D01*
X201707296Y-133279595D01*
X201842165Y-133374032D01*
X201842167Y-133374033D01*
X201842170Y-133374035D01*
X202056337Y-133473903D01*
X202284592Y-133535063D01*
X202455319Y-133550000D01*
X202519999Y-133555659D01*
X202520000Y-133555659D01*
X202520001Y-133555659D01*
X202584681Y-133550000D01*
X202755408Y-133535063D01*
X202983663Y-133473903D01*
X203197830Y-133374035D01*
X203391401Y-133238495D01*
X203558495Y-133071401D01*
X203688425Y-132885842D01*
X203743002Y-132842217D01*
X203812500Y-132835023D01*
X203874855Y-132866546D01*
X203891575Y-132885842D01*
X204021500Y-133071395D01*
X204021505Y-133071401D01*
X204188599Y-133238495D01*
X204247296Y-133279595D01*
X204382165Y-133374032D01*
X204382167Y-133374033D01*
X204382170Y-133374035D01*
X204596337Y-133473903D01*
X204824592Y-133535063D01*
X204995319Y-133550000D01*
X205059999Y-133555659D01*
X205060000Y-133555659D01*
X205060001Y-133555659D01*
X205124681Y-133550000D01*
X205295408Y-133535063D01*
X205523663Y-133473903D01*
X205737830Y-133374035D01*
X205931401Y-133238495D01*
X206098495Y-133071401D01*
X206228425Y-132885842D01*
X206283002Y-132842217D01*
X206352500Y-132835023D01*
X206414855Y-132866546D01*
X206431575Y-132885842D01*
X206561500Y-133071395D01*
X206561505Y-133071401D01*
X206728599Y-133238495D01*
X206787296Y-133279595D01*
X206922165Y-133374032D01*
X206922167Y-133374033D01*
X206922170Y-133374035D01*
X207136337Y-133473903D01*
X207364592Y-133535063D01*
X207535319Y-133550000D01*
X207599999Y-133555659D01*
X207600000Y-133555659D01*
X207600001Y-133555659D01*
X207664681Y-133550000D01*
X207835408Y-133535063D01*
X208063663Y-133473903D01*
X208277830Y-133374035D01*
X208471401Y-133238495D01*
X208638495Y-133071401D01*
X208768425Y-132885842D01*
X208823002Y-132842217D01*
X208892500Y-132835023D01*
X208954855Y-132866546D01*
X208971575Y-132885842D01*
X209101500Y-133071395D01*
X209101505Y-133071401D01*
X209268599Y-133238495D01*
X209327296Y-133279595D01*
X209462165Y-133374032D01*
X209462167Y-133374033D01*
X209462170Y-133374035D01*
X209676337Y-133473903D01*
X209904592Y-133535063D01*
X210075319Y-133550000D01*
X210139999Y-133555659D01*
X210140000Y-133555659D01*
X210140001Y-133555659D01*
X210204681Y-133550000D01*
X210375408Y-133535063D01*
X210603663Y-133473903D01*
X210817830Y-133374035D01*
X211011401Y-133238495D01*
X211178495Y-133071401D01*
X211314035Y-132877830D01*
X211413903Y-132663663D01*
X211475063Y-132435408D01*
X211495659Y-132200000D01*
X211475063Y-131964592D01*
X211418546Y-131753664D01*
X211413905Y-131736344D01*
X211413904Y-131736343D01*
X211413903Y-131736337D01*
X211314035Y-131522171D01*
X211308425Y-131514158D01*
X211178494Y-131328597D01*
X211011402Y-131161506D01*
X211011395Y-131161501D01*
X210817834Y-131025967D01*
X210817830Y-131025965D01*
X210699927Y-130970986D01*
X210603663Y-130926097D01*
X210603659Y-130926096D01*
X210603655Y-130926094D01*
X210375413Y-130864938D01*
X210375403Y-130864936D01*
X210140001Y-130844341D01*
X210139999Y-130844341D01*
X209904596Y-130864936D01*
X209904583Y-130864939D01*
X209776241Y-130899327D01*
X209706392Y-130897664D01*
X209656468Y-130867233D01*
X209548337Y-130759102D01*
X209514852Y-130697779D01*
X209519836Y-130628087D01*
X209548333Y-130583744D01*
X209629816Y-130502262D01*
X209725789Y-130349522D01*
X209785368Y-130179255D01*
X209786900Y-130165659D01*
X209805565Y-130000003D01*
X209805565Y-129999996D01*
X209785369Y-129820750D01*
X209785368Y-129820745D01*
X209745736Y-129707483D01*
X209725789Y-129650478D01*
X209724158Y-129647883D01*
X209637992Y-129510750D01*
X209629816Y-129497738D01*
X209629814Y-129497736D01*
X209629813Y-129497734D01*
X209627550Y-129494896D01*
X209626659Y-129492715D01*
X209626111Y-129491842D01*
X209626264Y-129491745D01*
X209601144Y-129430209D01*
X209600500Y-129417587D01*
X209600500Y-129149097D01*
X209620185Y-129082058D01*
X209672989Y-129036303D01*
X209742147Y-129026359D01*
X209805703Y-129055384D01*
X209812181Y-129061416D01*
X210459298Y-129708533D01*
X210492783Y-129769856D01*
X210494837Y-129782330D01*
X210504630Y-129869249D01*
X210564210Y-130039521D01*
X210652011Y-130179255D01*
X210660184Y-130192262D01*
X210787738Y-130319816D01*
X210940478Y-130415789D01*
X211036819Y-130449500D01*
X211110745Y-130475368D01*
X211110750Y-130475369D01*
X211289996Y-130495565D01*
X211290000Y-130495565D01*
X211290004Y-130495565D01*
X211469249Y-130475369D01*
X211469252Y-130475368D01*
X211469255Y-130475368D01*
X211639522Y-130415789D01*
X211792262Y-130319816D01*
X211919816Y-130192262D01*
X212015789Y-130039522D01*
X212075368Y-129869255D01*
X212085162Y-129782330D01*
X212095565Y-129690003D01*
X212095565Y-129689996D01*
X212075369Y-129510750D01*
X212075368Y-129510745D01*
X212060661Y-129468714D01*
X212015789Y-129340478D01*
X211919816Y-129187738D01*
X211792262Y-129060184D01*
X211714626Y-129011402D01*
X211639521Y-128964210D01*
X211469249Y-128904630D01*
X211382330Y-128894837D01*
X211317916Y-128867770D01*
X211308533Y-128859298D01*
X210411819Y-127962583D01*
X210378334Y-127901260D01*
X210375500Y-127874902D01*
X210375500Y-120314060D01*
X210375501Y-120314047D01*
X210375501Y-120145944D01*
X210360885Y-120091396D01*
X210334724Y-119993766D01*
X210330500Y-119961676D01*
X210330500Y-119282412D01*
X210350185Y-119215373D01*
X210357555Y-119205097D01*
X210359810Y-119202267D01*
X210359816Y-119202262D01*
X210455789Y-119049522D01*
X210515368Y-118879255D01*
X210515369Y-118879249D01*
X210535565Y-118700003D01*
X210535565Y-118699996D01*
X210515369Y-118520750D01*
X210515368Y-118520745D01*
X210455788Y-118350476D01*
X210409101Y-118276175D01*
X210359816Y-118197738D01*
X210232262Y-118070184D01*
X210212637Y-118057853D01*
X210079523Y-117974211D01*
X209909254Y-117914631D01*
X209909249Y-117914630D01*
X209730004Y-117894435D01*
X209729996Y-117894435D01*
X209550750Y-117914630D01*
X209550745Y-117914631D01*
X209380476Y-117974211D01*
X209227737Y-118070184D01*
X209182680Y-118115241D01*
X209121357Y-118148725D01*
X209051665Y-118143740D01*
X209007320Y-118115241D01*
X208962263Y-118070185D01*
X208962262Y-118070184D01*
X208809523Y-117974211D01*
X208639254Y-117914631D01*
X208639249Y-117914630D01*
X208460004Y-117894435D01*
X208459996Y-117894435D01*
X208280750Y-117914630D01*
X208280745Y-117914631D01*
X208110476Y-117974211D01*
X207957737Y-118070184D01*
X207830184Y-118197737D01*
X207830180Y-118197742D01*
X207829491Y-118198840D01*
X207828860Y-118199397D01*
X207825841Y-118203184D01*
X207825177Y-118202654D01*
X207777155Y-118245129D01*
X207708101Y-118255775D01*
X207644254Y-118227397D01*
X207605884Y-118169006D01*
X207600500Y-118132864D01*
X207600500Y-106720945D01*
X207600500Y-106720943D01*
X207559577Y-106568216D01*
X207559577Y-106568215D01*
X207559577Y-106568214D01*
X207502131Y-106468716D01*
X207502130Y-106468715D01*
X207480520Y-106431284D01*
X207368716Y-106319480D01*
X207368715Y-106319479D01*
X207364385Y-106315149D01*
X207364374Y-106315139D01*
X200036819Y-98987584D01*
X200003334Y-98926261D01*
X200000500Y-98899903D01*
X200000500Y-97182412D01*
X200020185Y-97115373D01*
X200027555Y-97105097D01*
X200029810Y-97102267D01*
X200029816Y-97102262D01*
X200125789Y-96949522D01*
X200185368Y-96779255D01*
X200198724Y-96660716D01*
X200205565Y-96600003D01*
X200205565Y-96599996D01*
X200185369Y-96420750D01*
X200185368Y-96420745D01*
X200160446Y-96349522D01*
X200125789Y-96250478D01*
X200029816Y-96097738D01*
X199902262Y-95970184D01*
X199822621Y-95920142D01*
X199749523Y-95874211D01*
X199579254Y-95814631D01*
X199579249Y-95814630D01*
X199400004Y-95794435D01*
X199399996Y-95794435D01*
X199220750Y-95814630D01*
X199220745Y-95814631D01*
X199050476Y-95874211D01*
X198897737Y-95970184D01*
X198770184Y-96097737D01*
X198674211Y-96250476D01*
X198614631Y-96420745D01*
X198614630Y-96420750D01*
X198594435Y-96599996D01*
X198594435Y-96600003D01*
X198614630Y-96779249D01*
X198614631Y-96779254D01*
X198674211Y-96949523D01*
X198770185Y-97102263D01*
X198772445Y-97105097D01*
X198773334Y-97107275D01*
X198773889Y-97108158D01*
X198773734Y-97108255D01*
X198798855Y-97169783D01*
X198799500Y-97182412D01*
X198799500Y-99113330D01*
X198799499Y-99113348D01*
X198799499Y-99279054D01*
X198799498Y-99279054D01*
X198840423Y-99431785D01*
X198866392Y-99476765D01*
X198868560Y-99480519D01*
X198919187Y-99568209D01*
X198919479Y-99568714D01*
X198919481Y-99568717D01*
X199038349Y-99687585D01*
X199038355Y-99687590D01*
X206363181Y-107012416D01*
X206396666Y-107073739D01*
X206399500Y-107100097D01*
X206399500Y-120250903D01*
X206379815Y-120317942D01*
X206327011Y-120363697D01*
X206257853Y-120373641D01*
X206194297Y-120344616D01*
X206187819Y-120338584D01*
X201636819Y-115787584D01*
X201603334Y-115726261D01*
X201600500Y-115699903D01*
X201600500Y-109520944D01*
X201600500Y-109520943D01*
X201593676Y-109495477D01*
X201573652Y-109420745D01*
X201559577Y-109368216D01*
X201518887Y-109297738D01*
X201480524Y-109231290D01*
X201480521Y-109231286D01*
X201480520Y-109231284D01*
X201368716Y-109119480D01*
X201368715Y-109119479D01*
X201364385Y-109115149D01*
X201364374Y-109115139D01*
X193636819Y-101387584D01*
X193603334Y-101326261D01*
X193600500Y-101299903D01*
X193600500Y-99889060D01*
X193600501Y-99889047D01*
X193600501Y-99720944D01*
X193591564Y-99687590D01*
X193559577Y-99568216D01*
X193521499Y-99502262D01*
X193480524Y-99431290D01*
X193480518Y-99431282D01*
X190030700Y-95981465D01*
X189997215Y-95920142D01*
X189995163Y-95907686D01*
X189985368Y-95820745D01*
X189925789Y-95650478D01*
X189829816Y-95497738D01*
X189702262Y-95370184D01*
X189590718Y-95300096D01*
X189549523Y-95274211D01*
X189379254Y-95214631D01*
X189379249Y-95214630D01*
X189200004Y-95194435D01*
X189199996Y-95194435D01*
X189020750Y-95214630D01*
X189020745Y-95214631D01*
X188850476Y-95274211D01*
X188697737Y-95370184D01*
X188570184Y-95497737D01*
X188474211Y-95650476D01*
X188414631Y-95820745D01*
X188414630Y-95820750D01*
X188394435Y-95999996D01*
X188394435Y-96000003D01*
X188414630Y-96179249D01*
X188414631Y-96179254D01*
X188474211Y-96349523D01*
X188524609Y-96429730D01*
X188570184Y-96502262D01*
X188697738Y-96629816D01*
X188850478Y-96725789D01*
X189020745Y-96785368D01*
X189107669Y-96795161D01*
X189172080Y-96822226D01*
X189181465Y-96830700D01*
X190338582Y-97987818D01*
X190372067Y-98049141D01*
X190367083Y-98118833D01*
X190325211Y-98174766D01*
X190259747Y-98199183D01*
X190250901Y-98199499D01*
X190113347Y-98199499D01*
X190113331Y-98199500D01*
X185638140Y-98199500D01*
X185638124Y-98199499D01*
X185630528Y-98199499D01*
X185472414Y-98199499D01*
X185365058Y-98228265D01*
X185319681Y-98240424D01*
X185319680Y-98240425D01*
X185269567Y-98269359D01*
X185269566Y-98269360D01*
X185261164Y-98274211D01*
X185182756Y-98319479D01*
X185182753Y-98319481D01*
X185102235Y-98400000D01*
X185070951Y-98431284D01*
X185070949Y-98431286D01*
X184502233Y-99000003D01*
X183939055Y-99563181D01*
X183877732Y-99596666D01*
X183851374Y-99599500D01*
X181793079Y-99599500D01*
X181726040Y-99579815D01*
X181680285Y-99527011D01*
X181670341Y-99457853D01*
X181688085Y-99409528D01*
X181715482Y-99365925D01*
X181725789Y-99349522D01*
X181785368Y-99179255D01*
X181785369Y-99179249D01*
X181805565Y-99000003D01*
X181805565Y-98999996D01*
X181785369Y-98820750D01*
X181785368Y-98820745D01*
X181745553Y-98706961D01*
X181725789Y-98650478D01*
X181629816Y-98497738D01*
X181502262Y-98370184D01*
X181421566Y-98319479D01*
X181349521Y-98274210D01*
X181179249Y-98214630D01*
X181092330Y-98204837D01*
X181027916Y-98177770D01*
X181018533Y-98169298D01*
X179687590Y-96838355D01*
X179687588Y-96838352D01*
X179568717Y-96719481D01*
X179568709Y-96719475D01*
X179466936Y-96660717D01*
X179466934Y-96660716D01*
X179431790Y-96640425D01*
X179431789Y-96640424D01*
X179419263Y-96637067D01*
X179279057Y-96599499D01*
X179120943Y-96599499D01*
X179113347Y-96599499D01*
X179113331Y-96599500D01*
X173582412Y-96599500D01*
X173515373Y-96579815D01*
X173505097Y-96572445D01*
X173502263Y-96570185D01*
X173502262Y-96570184D01*
X173394165Y-96502262D01*
X173349523Y-96474211D01*
X173179254Y-96414631D01*
X173179249Y-96414630D01*
X173000004Y-96394435D01*
X172999996Y-96394435D01*
X172820750Y-96414630D01*
X172820739Y-96414633D01*
X172765453Y-96433978D01*
X172695674Y-96437539D01*
X172635047Y-96402809D01*
X172602821Y-96340816D01*
X172600500Y-96316936D01*
X172600500Y-95300096D01*
X172620185Y-95233057D01*
X172636815Y-95212419D01*
X173218535Y-94630698D01*
X173279856Y-94597215D01*
X173292311Y-94595163D01*
X173379255Y-94585368D01*
X173549522Y-94525789D01*
X173702262Y-94429816D01*
X173829816Y-94302262D01*
X173925789Y-94149522D01*
X173985368Y-93979255D01*
X173991392Y-93925789D01*
X174005565Y-93800003D01*
X174005565Y-93799996D01*
X173985369Y-93620750D01*
X173985368Y-93620745D01*
X173925788Y-93450476D01*
X173829815Y-93297737D01*
X173732074Y-93199996D01*
X189194435Y-93199996D01*
X189194435Y-93200003D01*
X189214630Y-93379249D01*
X189214631Y-93379254D01*
X189274211Y-93549523D01*
X189370184Y-93702262D01*
X189497738Y-93829816D01*
X189650478Y-93925789D01*
X189803258Y-93979249D01*
X189820745Y-93985368D01*
X189820750Y-93985369D01*
X189999997Y-94005565D01*
X190000000Y-94005565D01*
X190075129Y-93997099D01*
X190112817Y-93999924D01*
X190112881Y-93999440D01*
X190120940Y-94000501D01*
X190120943Y-94000501D01*
X190286654Y-94000501D01*
X190286670Y-94000500D01*
X205017588Y-94000500D01*
X205084627Y-94020185D01*
X205094903Y-94027555D01*
X205097736Y-94029814D01*
X205097738Y-94029816D01*
X205250478Y-94125789D01*
X205318306Y-94149523D01*
X205420745Y-94185368D01*
X205420750Y-94185369D01*
X205599996Y-94205565D01*
X205600000Y-94205565D01*
X205600004Y-94205565D01*
X205779249Y-94185369D01*
X205779252Y-94185368D01*
X205779255Y-94185368D01*
X205949522Y-94125789D01*
X206102262Y-94029816D01*
X206229816Y-93902262D01*
X206325789Y-93749522D01*
X206385368Y-93579255D01*
X206405565Y-93400000D01*
X206385368Y-93220745D01*
X206325789Y-93050478D01*
X206307106Y-93020745D01*
X206286582Y-92988080D01*
X206229816Y-92897738D01*
X206181295Y-92849217D01*
X206147810Y-92787894D01*
X206152793Y-92718207D01*
X206194091Y-92607483D01*
X206200500Y-92547873D01*
X206200499Y-90332135D01*
X207399500Y-90332135D01*
X207399500Y-92627870D01*
X207399501Y-92627876D01*
X207405908Y-92687483D01*
X207456202Y-92822328D01*
X207456206Y-92822335D01*
X207542452Y-92937544D01*
X207542455Y-92937547D01*
X207657664Y-93023793D01*
X207657671Y-93023797D01*
X207792517Y-93074091D01*
X207792516Y-93074091D01*
X207799444Y-93074835D01*
X207852127Y-93080500D01*
X210147872Y-93080499D01*
X210207483Y-93074091D01*
X210342331Y-93023796D01*
X210457546Y-92937546D01*
X210543796Y-92822331D01*
X210594091Y-92687483D01*
X210600500Y-92627873D01*
X210600499Y-90332128D01*
X210594091Y-90272517D01*
X210586486Y-90252128D01*
X210543797Y-90137671D01*
X210543793Y-90137664D01*
X210457547Y-90022455D01*
X210457544Y-90022452D01*
X210342335Y-89936206D01*
X210342328Y-89936202D01*
X210207482Y-89885908D01*
X210207483Y-89885908D01*
X210147883Y-89879501D01*
X210147881Y-89879500D01*
X210147873Y-89879500D01*
X210147864Y-89879500D01*
X207852129Y-89879500D01*
X207852123Y-89879501D01*
X207792516Y-89885908D01*
X207657671Y-89936202D01*
X207657664Y-89936206D01*
X207542455Y-90022452D01*
X207542452Y-90022455D01*
X207456206Y-90137664D01*
X207456202Y-90137671D01*
X207405908Y-90272517D01*
X207399501Y-90332116D01*
X207399501Y-90332123D01*
X207399500Y-90332135D01*
X206200499Y-90332135D01*
X206200499Y-90252128D01*
X206194091Y-90192517D01*
X206143796Y-90057669D01*
X206143795Y-90057668D01*
X206143793Y-90057664D01*
X206057547Y-89942455D01*
X206057544Y-89942452D01*
X205942335Y-89856206D01*
X205942328Y-89856202D01*
X205807482Y-89805908D01*
X205807483Y-89805908D01*
X205747883Y-89799501D01*
X205747881Y-89799500D01*
X205747873Y-89799500D01*
X205747864Y-89799500D01*
X203452129Y-89799500D01*
X203452123Y-89799501D01*
X203392516Y-89805908D01*
X203257671Y-89856202D01*
X203257664Y-89856206D01*
X203142455Y-89942452D01*
X203142452Y-89942455D01*
X203056206Y-90057664D01*
X203056202Y-90057671D01*
X203005908Y-90192517D01*
X202999501Y-90252116D01*
X202999501Y-90252123D01*
X202999500Y-90252135D01*
X202999500Y-92547870D01*
X202999501Y-92547876D01*
X203005909Y-92607485D01*
X203015115Y-92632168D01*
X203020099Y-92701860D01*
X202986613Y-92763182D01*
X202925289Y-92796667D01*
X202898933Y-92799500D01*
X192921843Y-92799500D01*
X192854804Y-92779815D01*
X192809049Y-92727011D01*
X192798623Y-92661617D01*
X192805565Y-92600003D01*
X192805565Y-92599996D01*
X192785369Y-92420750D01*
X192785368Y-92420745D01*
X192725788Y-92250476D01*
X192629815Y-92097737D01*
X192502262Y-91970184D01*
X192349523Y-91874211D01*
X192179254Y-91814631D01*
X192179249Y-91814630D01*
X192000004Y-91794435D01*
X191999996Y-91794435D01*
X191820750Y-91814630D01*
X191820745Y-91814631D01*
X191650476Y-91874211D01*
X191497737Y-91970184D01*
X191370184Y-92097737D01*
X191274211Y-92250476D01*
X191214631Y-92420745D01*
X191214630Y-92420750D01*
X191194435Y-92599996D01*
X191194435Y-92600003D01*
X191201377Y-92661617D01*
X191189322Y-92730439D01*
X191141973Y-92781818D01*
X191078157Y-92799500D01*
X190762290Y-92799500D01*
X190695251Y-92779815D01*
X190657297Y-92741473D01*
X190629817Y-92697739D01*
X190502262Y-92570184D01*
X190349523Y-92474211D01*
X190179254Y-92414631D01*
X190179249Y-92414630D01*
X190000004Y-92394435D01*
X189999996Y-92394435D01*
X189820750Y-92414630D01*
X189820745Y-92414631D01*
X189650476Y-92474211D01*
X189497737Y-92570184D01*
X189370184Y-92697737D01*
X189274211Y-92850476D01*
X189214631Y-93020745D01*
X189214630Y-93020750D01*
X189194435Y-93199996D01*
X173732074Y-93199996D01*
X173702262Y-93170184D01*
X173549523Y-93074211D01*
X173379254Y-93014631D01*
X173379249Y-93014630D01*
X173200004Y-92994435D01*
X173199996Y-92994435D01*
X173020750Y-93014630D01*
X173020745Y-93014631D01*
X172850476Y-93074211D01*
X172697737Y-93170184D01*
X172570184Y-93297737D01*
X172474210Y-93450478D01*
X172414630Y-93620750D01*
X172404837Y-93707668D01*
X172377770Y-93772082D01*
X172369298Y-93781465D01*
X171631286Y-94519478D01*
X171519481Y-94631282D01*
X171519479Y-94631285D01*
X171469361Y-94718094D01*
X171469359Y-94718096D01*
X171440425Y-94768209D01*
X171440424Y-94768210D01*
X171440423Y-94768215D01*
X171399499Y-94920943D01*
X171399499Y-94920945D01*
X171399499Y-95089046D01*
X171399500Y-95089059D01*
X171399500Y-96316936D01*
X171379815Y-96383975D01*
X171327011Y-96429730D01*
X171257853Y-96439674D01*
X171234547Y-96433978D01*
X171179260Y-96414633D01*
X171179249Y-96414630D01*
X171000004Y-96394435D01*
X170999996Y-96394435D01*
X170820750Y-96414630D01*
X170820745Y-96414631D01*
X170650476Y-96474211D01*
X170497737Y-96570184D01*
X170370184Y-96697737D01*
X170274210Y-96850478D01*
X170214630Y-97020750D01*
X170200877Y-97142811D01*
X170185051Y-97190915D01*
X170180186Y-97199342D01*
X170179807Y-97200000D01*
X170140423Y-97268215D01*
X170099499Y-97420943D01*
X170099499Y-97420945D01*
X170099499Y-97589046D01*
X170099500Y-97589059D01*
X170099500Y-103599902D01*
X170079815Y-103666941D01*
X170063181Y-103687583D01*
X166593981Y-107156782D01*
X166593977Y-107156787D01*
X166552789Y-107228129D01*
X166552789Y-107228130D01*
X166514923Y-107293714D01*
X166514923Y-107293715D01*
X166473999Y-107446443D01*
X166473999Y-107446445D01*
X166473999Y-107614546D01*
X166474000Y-107614559D01*
X166474000Y-118830528D01*
X166473999Y-118830546D01*
X166473999Y-118996252D01*
X166473998Y-118996252D01*
X164500500Y-118996252D01*
X164500500Y-82279054D01*
X189799498Y-82279054D01*
X189799499Y-82279057D01*
X189840423Y-82431785D01*
X189840424Y-82431787D01*
X189840423Y-82431787D01*
X189853956Y-82455225D01*
X189853957Y-82455227D01*
X189919475Y-82568709D01*
X189919481Y-82568717D01*
X190038349Y-82687585D01*
X190038355Y-82687590D01*
X190163181Y-82812416D01*
X190196666Y-82873739D01*
X190199500Y-82900097D01*
X190199500Y-83617587D01*
X190179815Y-83684626D01*
X190172450Y-83694896D01*
X190170186Y-83697734D01*
X190074211Y-83850476D01*
X190014631Y-84020745D01*
X190014630Y-84020750D01*
X189994435Y-84199996D01*
X189994435Y-84200003D01*
X190014630Y-84379249D01*
X190014631Y-84379254D01*
X190074211Y-84549523D01*
X190170184Y-84702262D01*
X190297738Y-84829816D01*
X190450478Y-84925789D01*
X190620745Y-84985368D01*
X190620750Y-84985369D01*
X190799996Y-85005565D01*
X190800000Y-85005565D01*
X190800004Y-85005565D01*
X190979249Y-84985369D01*
X190979252Y-84985368D01*
X190979255Y-84985368D01*
X191149522Y-84925789D01*
X191302262Y-84829816D01*
X191429816Y-84702262D01*
X191525789Y-84549522D01*
X191585368Y-84379255D01*
X191605565Y-84200000D01*
X191591864Y-84078400D01*
X191585369Y-84020750D01*
X191585368Y-84020745D01*
X191563595Y-83958521D01*
X191525789Y-83850478D01*
X191429816Y-83697738D01*
X191429814Y-83697736D01*
X191429813Y-83697734D01*
X191427550Y-83694896D01*
X191426659Y-83692715D01*
X191426111Y-83691842D01*
X191426264Y-83691745D01*
X191401144Y-83630209D01*
X191400500Y-83617587D01*
X191400500Y-82520945D01*
X191400500Y-82520943D01*
X191359577Y-82368216D01*
X191359576Y-82368214D01*
X191357473Y-82360365D01*
X191359809Y-82359739D01*
X191353658Y-82302472D01*
X191384939Y-82239996D01*
X191445031Y-82204349D01*
X191475686Y-82200500D01*
X192913331Y-82200500D01*
X192913347Y-82200501D01*
X192920943Y-82200501D01*
X193079054Y-82200501D01*
X193079057Y-82200501D01*
X193231785Y-82159577D01*
X193283024Y-82129994D01*
X193283025Y-82129994D01*
X193368709Y-82080524D01*
X193368708Y-82080524D01*
X193368716Y-82080520D01*
X193480520Y-81968716D01*
X193480520Y-81968714D01*
X193490724Y-81958511D01*
X193490727Y-81958506D01*
X195212416Y-80236819D01*
X195273739Y-80203334D01*
X195300097Y-80200500D01*
X196050903Y-80200500D01*
X196117942Y-80220185D01*
X196163697Y-80272989D01*
X196173641Y-80342147D01*
X196144616Y-80405703D01*
X196138584Y-80412181D01*
X195781465Y-80769298D01*
X195720142Y-80802783D01*
X195707668Y-80804837D01*
X195620750Y-80814630D01*
X195450478Y-80874210D01*
X195297737Y-80970184D01*
X195170184Y-81097737D01*
X195074211Y-81250476D01*
X195014631Y-81420745D01*
X195014630Y-81420750D01*
X194994435Y-81599996D01*
X194994435Y-81600003D01*
X195014630Y-81779249D01*
X195014631Y-81779254D01*
X195074211Y-81949523D01*
X195156525Y-82080524D01*
X195170184Y-82102262D01*
X195297738Y-82229816D01*
X195450478Y-82325789D01*
X195591752Y-82375223D01*
X195620745Y-82385368D01*
X195620750Y-82385369D01*
X195799996Y-82405565D01*
X195800000Y-82405565D01*
X195800004Y-82405565D01*
X195979249Y-82385369D01*
X195979252Y-82385368D01*
X195979255Y-82385368D01*
X196149522Y-82325789D01*
X196302262Y-82229816D01*
X196429816Y-82102262D01*
X196525789Y-81949522D01*
X196585368Y-81779255D01*
X196595161Y-81692329D01*
X196622226Y-81627918D01*
X196630690Y-81618543D01*
X197217276Y-81031957D01*
X197278597Y-80998474D01*
X197318838Y-80996420D01*
X197342085Y-80999039D01*
X197399998Y-81005565D01*
X197400000Y-81005565D01*
X197400003Y-81005565D01*
X197579249Y-80985369D01*
X197579252Y-80985368D01*
X197579255Y-80985368D01*
X197749522Y-80925789D01*
X197902262Y-80829816D01*
X198029816Y-80702262D01*
X198077806Y-80625885D01*
X198130139Y-80579595D01*
X198199192Y-80568946D01*
X198214881Y-80572080D01*
X198271695Y-80587304D01*
X198320942Y-80600500D01*
X198320943Y-80600500D01*
X201006921Y-80600500D01*
X201073960Y-80620185D01*
X201119715Y-80672989D01*
X201129659Y-80742147D01*
X201111915Y-80790472D01*
X201074211Y-80850476D01*
X201014631Y-81020745D01*
X201014630Y-81020750D01*
X200994435Y-81199996D01*
X200994435Y-81200003D01*
X201014630Y-81379249D01*
X201014631Y-81379254D01*
X201074211Y-81549523D01*
X201136852Y-81649215D01*
X201170184Y-81702262D01*
X201297738Y-81829816D01*
X201450478Y-81925789D01*
X201573565Y-81968859D01*
X201620745Y-81985368D01*
X201620750Y-81985369D01*
X201799996Y-82005565D01*
X201800000Y-82005565D01*
X201800004Y-82005565D01*
X201979249Y-81985369D01*
X201979252Y-81985368D01*
X201979255Y-81985368D01*
X202149522Y-81925789D01*
X202302262Y-81829816D01*
X202429816Y-81702262D01*
X202525789Y-81549522D01*
X202585368Y-81379255D01*
X202585369Y-81379249D01*
X202601058Y-81240000D01*
X202994551Y-81240000D01*
X203014317Y-81491151D01*
X203073126Y-81736110D01*
X203169533Y-81968859D01*
X203301160Y-82183653D01*
X203301161Y-82183656D01*
X203349280Y-82239996D01*
X203464776Y-82375224D01*
X203595566Y-82486929D01*
X203656343Y-82538838D01*
X203656346Y-82538839D01*
X203871140Y-82670466D01*
X203970498Y-82711621D01*
X204103889Y-82766873D01*
X204348852Y-82825683D01*
X204600000Y-82845449D01*
X204851148Y-82825683D01*
X205096111Y-82766873D01*
X205328859Y-82670466D01*
X205543659Y-82538836D01*
X205735224Y-82375224D01*
X205898836Y-82183659D01*
X206030466Y-81968859D01*
X206126873Y-81736111D01*
X206185683Y-81491148D01*
X206199153Y-81320000D01*
X207394551Y-81320000D01*
X207414317Y-81571151D01*
X207473126Y-81816110D01*
X207569533Y-82048859D01*
X207701160Y-82263653D01*
X207701161Y-82263656D01*
X207714315Y-82279057D01*
X207864776Y-82455224D01*
X207962677Y-82538839D01*
X208056343Y-82618838D01*
X208056346Y-82618839D01*
X208271140Y-82750466D01*
X208497356Y-82844167D01*
X208503889Y-82846873D01*
X208748852Y-82905683D01*
X209000000Y-82925449D01*
X209251148Y-82905683D01*
X209496111Y-82846873D01*
X209728859Y-82750466D01*
X209943659Y-82618836D01*
X210135224Y-82455224D01*
X210298836Y-82263659D01*
X210430466Y-82048859D01*
X210440893Y-82023686D01*
X212725500Y-82023686D01*
X212725500Y-82256315D01*
X212748603Y-82431785D01*
X212755863Y-82486931D01*
X212777777Y-82568716D01*
X212816068Y-82711621D01*
X212905083Y-82926522D01*
X212905088Y-82926533D01*
X213021387Y-83127967D01*
X213021398Y-83127983D01*
X213162996Y-83312518D01*
X213163002Y-83312525D01*
X213327475Y-83476998D01*
X213327482Y-83477004D01*
X213458887Y-83577834D01*
X213512026Y-83618609D01*
X213512033Y-83618613D01*
X213713467Y-83734912D01*
X213713472Y-83734914D01*
X213713475Y-83734916D01*
X213820928Y-83779424D01*
X213928379Y-83823932D01*
X213928380Y-83823932D01*
X213928382Y-83823933D01*
X214153070Y-83884138D01*
X214383693Y-83914501D01*
X214383700Y-83914501D01*
X214616300Y-83914501D01*
X214616307Y-83914501D01*
X214846930Y-83884138D01*
X215071618Y-83823933D01*
X215286525Y-83734916D01*
X215487974Y-83618609D01*
X215672519Y-83477003D01*
X215837002Y-83312520D01*
X215978608Y-83127975D01*
X216094915Y-82926526D01*
X216183932Y-82711619D01*
X216213842Y-82599994D01*
X217716533Y-82599994D01*
X217716533Y-82600005D01*
X217736765Y-82844167D01*
X217796911Y-83081681D01*
X217895329Y-83306051D01*
X218029333Y-83511161D01*
X218029336Y-83511164D01*
X218195275Y-83691422D01*
X218195278Y-83691424D01*
X218195281Y-83691427D01*
X218388616Y-83841906D01*
X218388620Y-83841909D01*
X218604098Y-83958520D01*
X218604101Y-83958521D01*
X218835826Y-84038072D01*
X218835828Y-84038072D01*
X218835830Y-84038073D01*
X219077496Y-84078400D01*
X219077497Y-84078400D01*
X219322503Y-84078400D01*
X219322504Y-84078400D01*
X219564170Y-84038073D01*
X219795902Y-83958520D01*
X220011380Y-83841909D01*
X220204725Y-83691422D01*
X220370664Y-83511164D01*
X220504670Y-83306052D01*
X220603089Y-83081681D01*
X220663234Y-82844171D01*
X220681906Y-82618838D01*
X220683467Y-82600005D01*
X220683467Y-82599994D01*
X221916531Y-82599994D01*
X221916531Y-82600005D01*
X221936763Y-82844167D01*
X221996909Y-83081681D01*
X222095327Y-83306051D01*
X222229331Y-83511161D01*
X222229334Y-83511164D01*
X222395273Y-83691422D01*
X222395276Y-83691424D01*
X222395279Y-83691427D01*
X222588614Y-83841906D01*
X222588618Y-83841909D01*
X222804096Y-83958520D01*
X222804099Y-83958521D01*
X223035824Y-84038072D01*
X223035826Y-84038072D01*
X223035828Y-84038073D01*
X223277494Y-84078400D01*
X223277495Y-84078400D01*
X223522501Y-84078400D01*
X223522502Y-84078400D01*
X223764168Y-84038073D01*
X223995900Y-83958520D01*
X224211378Y-83841909D01*
X224404723Y-83691422D01*
X224570662Y-83511164D01*
X224704668Y-83306052D01*
X224803087Y-83081681D01*
X224863232Y-82844171D01*
X224881904Y-82618838D01*
X224883465Y-82600005D01*
X224883465Y-82599994D01*
X224863232Y-82355832D01*
X224863232Y-82355829D01*
X224803087Y-82118319D01*
X224761577Y-82023686D01*
X226325499Y-82023686D01*
X226325499Y-82256315D01*
X226348602Y-82431785D01*
X226355862Y-82486931D01*
X226377776Y-82568716D01*
X226416067Y-82711621D01*
X226505082Y-82926522D01*
X226505087Y-82926533D01*
X226621386Y-83127967D01*
X226621397Y-83127983D01*
X226762995Y-83312518D01*
X226763001Y-83312525D01*
X226927474Y-83476998D01*
X226927481Y-83477004D01*
X227058886Y-83577834D01*
X227112025Y-83618609D01*
X227112032Y-83618613D01*
X227313466Y-83734912D01*
X227313471Y-83734914D01*
X227313474Y-83734916D01*
X227420927Y-83779424D01*
X227528378Y-83823932D01*
X227528379Y-83823932D01*
X227528381Y-83823933D01*
X227753069Y-83884138D01*
X227983692Y-83914501D01*
X227983699Y-83914501D01*
X228216299Y-83914501D01*
X228216306Y-83914501D01*
X228446929Y-83884138D01*
X228671617Y-83823933D01*
X228886524Y-83734916D01*
X229087973Y-83618609D01*
X229272518Y-83477003D01*
X229437001Y-83312520D01*
X229578607Y-83127975D01*
X229694914Y-82926526D01*
X229783931Y-82711619D01*
X229844136Y-82486931D01*
X229874499Y-82256308D01*
X229874499Y-82023694D01*
X229844136Y-81793071D01*
X229783931Y-81568383D01*
X229783861Y-81568215D01*
X229705592Y-81379255D01*
X229694914Y-81353476D01*
X229694912Y-81353473D01*
X229694910Y-81353468D01*
X229578611Y-81152034D01*
X229578607Y-81152027D01*
X229492973Y-81040426D01*
X229437002Y-80967483D01*
X229436996Y-80967476D01*
X229272523Y-80803003D01*
X229272516Y-80802997D01*
X229087981Y-80661399D01*
X229087979Y-80661397D01*
X229087973Y-80661393D01*
X229087968Y-80661390D01*
X229087965Y-80661388D01*
X228886531Y-80545089D01*
X228886520Y-80545084D01*
X228671619Y-80456069D01*
X228559273Y-80425966D01*
X228446929Y-80395864D01*
X228395679Y-80389116D01*
X228216313Y-80365501D01*
X228216306Y-80365501D01*
X227983692Y-80365501D01*
X227983684Y-80365501D01*
X227778693Y-80392490D01*
X227753069Y-80395864D01*
X227696897Y-80410915D01*
X227528378Y-80456069D01*
X227313477Y-80545084D01*
X227313466Y-80545089D01*
X227112032Y-80661388D01*
X227112016Y-80661399D01*
X226927481Y-80802997D01*
X226927474Y-80803003D01*
X226763001Y-80967476D01*
X226762995Y-80967483D01*
X226621397Y-81152018D01*
X226621386Y-81152034D01*
X226505087Y-81353468D01*
X226505082Y-81353479D01*
X226416067Y-81568380D01*
X226355862Y-81793072D01*
X226325499Y-82023686D01*
X224761577Y-82023686D01*
X224704668Y-81893948D01*
X224629732Y-81779249D01*
X224570664Y-81688838D01*
X224514583Y-81627918D01*
X224404723Y-81508578D01*
X224404718Y-81508574D01*
X224404716Y-81508572D01*
X224211381Y-81358093D01*
X224211377Y-81358090D01*
X223995901Y-81241480D01*
X223995896Y-81241478D01*
X223764171Y-81161927D01*
X223582918Y-81131681D01*
X223522502Y-81121600D01*
X223277494Y-81121600D01*
X223229160Y-81129665D01*
X223035824Y-81161927D01*
X222804099Y-81241478D01*
X222804094Y-81241480D01*
X222588618Y-81358090D01*
X222588614Y-81358093D01*
X222395279Y-81508572D01*
X222395276Y-81508575D01*
X222229331Y-81688838D01*
X222095327Y-81893948D01*
X221996909Y-82118318D01*
X221936763Y-82355832D01*
X221916531Y-82599994D01*
X220683467Y-82599994D01*
X220663234Y-82355832D01*
X220663234Y-82355829D01*
X220603089Y-82118319D01*
X220504670Y-81893948D01*
X220429734Y-81779249D01*
X220370666Y-81688838D01*
X220314585Y-81627918D01*
X220204725Y-81508578D01*
X220204720Y-81508574D01*
X220204718Y-81508572D01*
X220011383Y-81358093D01*
X220011379Y-81358090D01*
X219795903Y-81241480D01*
X219795898Y-81241478D01*
X219564173Y-81161927D01*
X219382920Y-81131681D01*
X219322504Y-81121600D01*
X219077496Y-81121600D01*
X219029162Y-81129665D01*
X218835826Y-81161927D01*
X218604101Y-81241478D01*
X218604096Y-81241480D01*
X218388620Y-81358090D01*
X218388616Y-81358093D01*
X218195281Y-81508572D01*
X218195278Y-81508575D01*
X218029333Y-81688838D01*
X217895329Y-81893948D01*
X217796911Y-82118318D01*
X217736765Y-82355832D01*
X217716533Y-82599994D01*
X216213842Y-82599994D01*
X216244137Y-82486931D01*
X216274500Y-82256308D01*
X216274500Y-82023694D01*
X216244137Y-81793071D01*
X216183932Y-81568383D01*
X216183862Y-81568215D01*
X216105593Y-81379255D01*
X216094915Y-81353476D01*
X216094913Y-81353473D01*
X216094911Y-81353468D01*
X215978612Y-81152034D01*
X215978608Y-81152027D01*
X215892974Y-81040426D01*
X215837003Y-80967483D01*
X215836997Y-80967476D01*
X215672524Y-80803003D01*
X215672517Y-80802997D01*
X215487982Y-80661399D01*
X215487980Y-80661397D01*
X215487974Y-80661393D01*
X215487969Y-80661390D01*
X215487966Y-80661388D01*
X215286532Y-80545089D01*
X215286521Y-80545084D01*
X215071620Y-80456069D01*
X214959274Y-80425966D01*
X214846930Y-80395864D01*
X214795680Y-80389116D01*
X214616314Y-80365501D01*
X214616307Y-80365501D01*
X214383693Y-80365501D01*
X214383685Y-80365501D01*
X214178694Y-80392490D01*
X214153070Y-80395864D01*
X214096898Y-80410915D01*
X213928379Y-80456069D01*
X213713478Y-80545084D01*
X213713467Y-80545089D01*
X213512033Y-80661388D01*
X213512017Y-80661399D01*
X213327482Y-80802997D01*
X213327475Y-80803003D01*
X213163002Y-80967476D01*
X213162996Y-80967483D01*
X213021398Y-81152018D01*
X213021387Y-81152034D01*
X212905088Y-81353468D01*
X212905083Y-81353479D01*
X212816068Y-81568380D01*
X212755863Y-81793072D01*
X212725500Y-82023686D01*
X210440893Y-82023686D01*
X210526873Y-81816111D01*
X210585683Y-81571148D01*
X210605449Y-81320000D01*
X210585683Y-81068852D01*
X210526873Y-80823889D01*
X210493736Y-80743889D01*
X210430466Y-80591140D01*
X210298839Y-80376346D01*
X210298838Y-80376343D01*
X210230511Y-80296343D01*
X210135224Y-80184776D01*
X209955515Y-80031290D01*
X209943656Y-80021161D01*
X209943653Y-80021160D01*
X209728859Y-79889533D01*
X209496110Y-79793126D01*
X209251151Y-79734317D01*
X209000000Y-79714551D01*
X208748848Y-79734317D01*
X208503889Y-79793126D01*
X208271140Y-79889533D01*
X208056346Y-80021160D01*
X208056343Y-80021161D01*
X207864776Y-80184776D01*
X207701161Y-80376343D01*
X207701160Y-80376346D01*
X207569533Y-80591140D01*
X207473126Y-80823889D01*
X207414317Y-81068848D01*
X207394551Y-81320000D01*
X206199153Y-81320000D01*
X206205449Y-81240000D01*
X206185683Y-80988852D01*
X206126873Y-80743889D01*
X206087459Y-80648735D01*
X206030466Y-80511140D01*
X205898839Y-80296346D01*
X205898838Y-80296343D01*
X205847999Y-80236819D01*
X205735224Y-80104776D01*
X205608571Y-79996604D01*
X205543656Y-79941161D01*
X205543653Y-79941160D01*
X205328859Y-79809533D01*
X205096110Y-79713126D01*
X204851151Y-79654317D01*
X204600000Y-79634551D01*
X204348848Y-79654317D01*
X204103889Y-79713126D01*
X203871140Y-79809533D01*
X203656346Y-79941160D01*
X203656343Y-79941161D01*
X203464776Y-80104776D01*
X203301161Y-80296343D01*
X203301160Y-80296346D01*
X203169533Y-80511140D01*
X203073126Y-80743889D01*
X203014317Y-80988848D01*
X202994551Y-81240000D01*
X202601058Y-81240000D01*
X202605565Y-81200003D01*
X202605565Y-81199996D01*
X202585369Y-81020750D01*
X202585368Y-81020745D01*
X202552141Y-80925788D01*
X202525789Y-80850478D01*
X202503265Y-80814632D01*
X202474780Y-80769298D01*
X202429816Y-80697738D01*
X202429814Y-80697736D01*
X202429813Y-80697734D01*
X202427550Y-80694896D01*
X202426659Y-80692715D01*
X202426111Y-80691842D01*
X202426264Y-80691745D01*
X202401144Y-80630209D01*
X202400500Y-80617587D01*
X202400500Y-80320945D01*
X202400500Y-80320943D01*
X202359577Y-80168216D01*
X202359573Y-80168209D01*
X202280524Y-80031290D01*
X202280521Y-80031286D01*
X202280520Y-80031284D01*
X202168716Y-79919480D01*
X202168715Y-79919479D01*
X202164385Y-79915149D01*
X202164374Y-79915139D01*
X201887590Y-79638355D01*
X201887588Y-79638352D01*
X201768717Y-79519481D01*
X201768716Y-79519480D01*
X201681904Y-79469360D01*
X201681904Y-79469359D01*
X201681900Y-79469358D01*
X201631785Y-79440423D01*
X201479057Y-79399499D01*
X201320943Y-79399499D01*
X201313347Y-79399499D01*
X201313331Y-79399500D01*
X198700097Y-79399500D01*
X198633058Y-79379815D01*
X198612416Y-79363181D01*
X198487590Y-79238355D01*
X198487588Y-79238352D01*
X198368717Y-79119481D01*
X198368716Y-79119480D01*
X198281904Y-79069360D01*
X198281904Y-79069359D01*
X198281900Y-79069358D01*
X198231785Y-79040423D01*
X198079057Y-78999499D01*
X197920943Y-78999499D01*
X197913347Y-78999499D01*
X197913331Y-78999500D01*
X196974077Y-78999500D01*
X196907038Y-78979815D01*
X196861283Y-78927011D01*
X196851339Y-78857853D01*
X196880364Y-78794297D01*
X196886396Y-78787819D01*
X196936748Y-78737466D01*
X196936751Y-78737462D01*
X197046185Y-78573684D01*
X197046192Y-78573671D01*
X197121569Y-78391693D01*
X197121572Y-78391681D01*
X197159999Y-78198495D01*
X197160000Y-78198492D01*
X197160000Y-77850000D01*
X196410000Y-77850000D01*
X196410000Y-77350000D01*
X197160000Y-77350000D01*
X197160000Y-77001508D01*
X197159999Y-77001504D01*
X203800000Y-77001504D01*
X203800000Y-77350000D01*
X204550000Y-77350000D01*
X204550000Y-77850000D01*
X203800000Y-77850000D01*
X203800000Y-78198495D01*
X203838427Y-78391681D01*
X203838430Y-78391693D01*
X203913807Y-78573671D01*
X203913814Y-78573684D01*
X204023248Y-78737462D01*
X204023251Y-78737466D01*
X204162533Y-78876748D01*
X204162537Y-78876751D01*
X204326315Y-78986185D01*
X204326328Y-78986192D01*
X204508308Y-79061569D01*
X204550000Y-79069862D01*
X204550000Y-77999728D01*
X204588060Y-78091614D01*
X204658386Y-78161940D01*
X204750272Y-78200000D01*
X204849728Y-78200000D01*
X204941614Y-78161940D01*
X205011940Y-78091614D01*
X205050000Y-77999728D01*
X205050000Y-79069862D01*
X205091690Y-79061569D01*
X205091692Y-79061569D01*
X205273671Y-78986192D01*
X205273684Y-78986185D01*
X205437462Y-78876751D01*
X205437466Y-78876748D01*
X205576748Y-78737466D01*
X205576751Y-78737462D01*
X205686185Y-78573684D01*
X205686192Y-78573671D01*
X205761569Y-78391693D01*
X205761572Y-78391681D01*
X205799999Y-78198495D01*
X205800000Y-78198492D01*
X205800000Y-77850000D01*
X205050000Y-77850000D01*
X205050000Y-77350000D01*
X205800000Y-77350000D01*
X205800000Y-77099995D01*
X217716533Y-77099995D01*
X217716533Y-77100006D01*
X217736765Y-77344168D01*
X217796911Y-77581682D01*
X217895329Y-77806052D01*
X218029333Y-78011162D01*
X218029336Y-78011165D01*
X218195275Y-78191423D01*
X218195278Y-78191425D01*
X218195281Y-78191428D01*
X218388616Y-78341907D01*
X218388620Y-78341910D01*
X218603240Y-78458057D01*
X218604098Y-78458521D01*
X218604101Y-78458522D01*
X218835826Y-78538073D01*
X218835828Y-78538073D01*
X218835830Y-78538074D01*
X219077496Y-78578401D01*
X219077497Y-78578401D01*
X219322503Y-78578401D01*
X219322504Y-78578401D01*
X219564170Y-78538074D01*
X219795902Y-78458521D01*
X220011380Y-78341910D01*
X220204725Y-78191423D01*
X220370664Y-78011165D01*
X220504670Y-77806053D01*
X220603089Y-77581682D01*
X220663234Y-77344172D01*
X220677559Y-77171299D01*
X220683467Y-77100006D01*
X220683467Y-77099995D01*
X221917033Y-77099995D01*
X221917033Y-77100006D01*
X221937258Y-77344085D01*
X221997384Y-77581519D01*
X222095768Y-77805813D01*
X222192527Y-77953915D01*
X222742394Y-77404048D01*
X222758486Y-77442896D01*
X222837708Y-77561461D01*
X222938538Y-77662291D01*
X223057103Y-77741513D01*
X223095948Y-77757603D01*
X222545689Y-78307862D01*
X222545689Y-78307863D01*
X222588890Y-78341488D01*
X222588895Y-78341491D01*
X222804291Y-78458057D01*
X222804305Y-78458063D01*
X223035948Y-78537587D01*
X223277537Y-78577901D01*
X223522459Y-78577901D01*
X223764047Y-78537587D01*
X223995690Y-78458063D01*
X223995704Y-78458057D01*
X224211099Y-78341492D01*
X224211104Y-78341488D01*
X224254305Y-78307863D01*
X224254306Y-78307862D01*
X223704046Y-77757603D01*
X223742893Y-77741513D01*
X223861458Y-77662291D01*
X223962288Y-77561461D01*
X224041510Y-77442896D01*
X224057600Y-77404049D01*
X224607466Y-77953916D01*
X224704228Y-77805810D01*
X224802611Y-77581519D01*
X224862737Y-77344085D01*
X224882963Y-77100006D01*
X224882963Y-77099995D01*
X224862737Y-76855916D01*
X224802611Y-76618482D01*
X224704227Y-76394188D01*
X224607466Y-76246084D01*
X224057600Y-76795951D01*
X224041510Y-76757106D01*
X223962288Y-76638541D01*
X223861458Y-76537711D01*
X223742893Y-76458489D01*
X223704046Y-76442398D01*
X224254305Y-75892138D01*
X224254305Y-75892136D01*
X224211111Y-75858517D01*
X224211100Y-75858510D01*
X223995704Y-75741944D01*
X223995690Y-75741938D01*
X223764047Y-75662414D01*
X223522459Y-75622101D01*
X223277537Y-75622101D01*
X223035948Y-75662414D01*
X222804305Y-75741938D01*
X222804291Y-75741944D01*
X222588897Y-75858509D01*
X222545688Y-75892138D01*
X223095949Y-76442398D01*
X223057103Y-76458489D01*
X222938538Y-76537711D01*
X222837708Y-76638541D01*
X222758486Y-76757106D01*
X222742395Y-76795952D01*
X222192528Y-76246085D01*
X222095768Y-76394189D01*
X222095766Y-76394193D01*
X221997384Y-76618482D01*
X221937258Y-76855916D01*
X221917033Y-77099995D01*
X220683467Y-77099995D01*
X220663234Y-76855833D01*
X220663234Y-76855830D01*
X220603089Y-76618320D01*
X220504670Y-76393949D01*
X220408066Y-76246085D01*
X220370666Y-76188839D01*
X220316625Y-76130135D01*
X220204725Y-76008579D01*
X220204720Y-76008575D01*
X220204718Y-76008573D01*
X220011383Y-75858094D01*
X220011379Y-75858091D01*
X219795903Y-75741481D01*
X219795898Y-75741479D01*
X219564173Y-75661928D01*
X219382920Y-75631682D01*
X219322504Y-75621601D01*
X219077496Y-75621601D01*
X219029162Y-75629666D01*
X218835826Y-75661928D01*
X218604101Y-75741479D01*
X218604096Y-75741481D01*
X218388620Y-75858091D01*
X218388616Y-75858094D01*
X218195281Y-76008573D01*
X218195278Y-76008576D01*
X218029333Y-76188839D01*
X217895329Y-76393949D01*
X217796911Y-76618319D01*
X217736765Y-76855833D01*
X217716533Y-77099995D01*
X205800000Y-77099995D01*
X205800000Y-77001508D01*
X205799999Y-77001504D01*
X205761572Y-76808318D01*
X205761569Y-76808306D01*
X205686192Y-76626328D01*
X205686185Y-76626315D01*
X205576751Y-76462537D01*
X205576748Y-76462533D01*
X205437466Y-76323251D01*
X205437462Y-76323248D01*
X205273684Y-76213814D01*
X205273671Y-76213807D01*
X205091691Y-76138429D01*
X205091683Y-76138427D01*
X205050000Y-76130135D01*
X205050000Y-77200272D01*
X205011940Y-77108386D01*
X204941614Y-77038060D01*
X204849728Y-77000000D01*
X204750272Y-77000000D01*
X204658386Y-77038060D01*
X204588060Y-77108386D01*
X204550000Y-77200272D01*
X204550000Y-76130136D01*
X204549999Y-76130135D01*
X204508316Y-76138427D01*
X204508308Y-76138429D01*
X204326328Y-76213807D01*
X204326315Y-76213814D01*
X204162537Y-76323248D01*
X204162533Y-76323251D01*
X204023251Y-76462533D01*
X204023248Y-76462537D01*
X203913814Y-76626315D01*
X203913807Y-76626328D01*
X203838430Y-76808306D01*
X203838427Y-76808318D01*
X203800000Y-77001504D01*
X197159999Y-77001504D01*
X197121572Y-76808318D01*
X197121569Y-76808306D01*
X197046192Y-76626328D01*
X197046185Y-76626315D01*
X196936751Y-76462537D01*
X196936748Y-76462533D01*
X196797466Y-76323251D01*
X196797462Y-76323248D01*
X196633684Y-76213814D01*
X196633671Y-76213807D01*
X196451691Y-76138429D01*
X196451683Y-76138427D01*
X196410000Y-76130135D01*
X196410000Y-77200272D01*
X196371940Y-77108386D01*
X196301614Y-77038060D01*
X196209728Y-77000000D01*
X196110272Y-77000000D01*
X196018386Y-77038060D01*
X195948060Y-77108386D01*
X195910000Y-77200272D01*
X195910000Y-76130136D01*
X195909999Y-76130135D01*
X195868316Y-76138427D01*
X195868308Y-76138429D01*
X195686328Y-76213807D01*
X195686315Y-76213814D01*
X195522537Y-76323248D01*
X195522533Y-76323251D01*
X195383251Y-76462533D01*
X195383248Y-76462537D01*
X195273814Y-76626315D01*
X195273807Y-76626328D01*
X195198430Y-76808306D01*
X195198427Y-76808318D01*
X195160000Y-77001504D01*
X195160000Y-77350000D01*
X195910000Y-77350000D01*
X195910000Y-77850000D01*
X195160000Y-77850000D01*
X195160000Y-78198495D01*
X195198427Y-78391681D01*
X195198430Y-78391693D01*
X195273807Y-78573671D01*
X195273814Y-78573684D01*
X195383248Y-78737462D01*
X195383251Y-78737466D01*
X195433604Y-78787819D01*
X195467089Y-78849142D01*
X195462105Y-78918834D01*
X195420233Y-78974767D01*
X195354769Y-78999184D01*
X195345923Y-78999500D01*
X195079057Y-78999500D01*
X194920943Y-78999500D01*
X194768215Y-79040423D01*
X194768214Y-79040423D01*
X194768212Y-79040424D01*
X194768209Y-79040425D01*
X194718096Y-79069359D01*
X194718095Y-79069360D01*
X194717226Y-79069862D01*
X194631285Y-79119479D01*
X194631282Y-79119481D01*
X194519480Y-79231284D01*
X194519478Y-79231286D01*
X193645989Y-80104776D01*
X192787584Y-80963181D01*
X192726261Y-80996666D01*
X192699903Y-80999500D01*
X190686670Y-80999500D01*
X190686654Y-80999499D01*
X190679058Y-80999499D01*
X190520943Y-80999499D01*
X190444579Y-81019961D01*
X190368214Y-81040423D01*
X190368209Y-81040426D01*
X190231290Y-81119475D01*
X190231282Y-81119481D01*
X189919481Y-81431282D01*
X189919477Y-81431287D01*
X189899840Y-81465302D01*
X189899839Y-81465304D01*
X189840423Y-81568215D01*
X189799499Y-81720943D01*
X189799499Y-81720945D01*
X189799499Y-81889046D01*
X189799500Y-81889059D01*
X189799500Y-82113330D01*
X189799499Y-82113347D01*
X189799499Y-82279054D01*
X189799498Y-82279054D01*
X164500500Y-82279054D01*
X164500500Y-72599998D01*
X186014532Y-72599998D01*
X186014532Y-72600001D01*
X186034364Y-72826686D01*
X186034366Y-72826697D01*
X186093258Y-73046488D01*
X186093261Y-73046497D01*
X186189431Y-73252732D01*
X186189432Y-73252734D01*
X186319954Y-73439141D01*
X186480858Y-73600045D01*
X186480861Y-73600047D01*
X186667266Y-73730568D01*
X186873504Y-73826739D01*
X187093308Y-73885635D01*
X187255230Y-73899801D01*
X187319998Y-73905468D01*
X187320000Y-73905468D01*
X187320002Y-73905468D01*
X187376673Y-73900509D01*
X187546692Y-73885635D01*
X187766496Y-73826739D01*
X187972734Y-73730568D01*
X188159139Y-73600047D01*
X188320047Y-73439139D01*
X188385278Y-73345977D01*
X188439854Y-73302353D01*
X188509352Y-73295159D01*
X188571707Y-73326681D01*
X188607122Y-73386911D01*
X188610143Y-73403847D01*
X188615909Y-73457483D01*
X188666202Y-73592328D01*
X188666206Y-73592335D01*
X188752452Y-73707544D01*
X188752455Y-73707547D01*
X188867664Y-73793793D01*
X188867671Y-73793797D01*
X189002517Y-73844091D01*
X189002516Y-73844091D01*
X189009444Y-73844835D01*
X189062127Y-73850500D01*
X190657872Y-73850499D01*
X190717483Y-73844091D01*
X190852331Y-73793796D01*
X190967546Y-73707546D01*
X191053796Y-73592331D01*
X191104091Y-73457483D01*
X191109858Y-73403842D01*
X191136593Y-73339296D01*
X191193985Y-73299447D01*
X191263810Y-73296952D01*
X191323900Y-73332604D01*
X191334721Y-73345978D01*
X191399954Y-73439141D01*
X191560858Y-73600045D01*
X191560861Y-73600047D01*
X191747266Y-73730568D01*
X191953504Y-73826739D01*
X192173308Y-73885635D01*
X192335230Y-73899801D01*
X192399998Y-73905468D01*
X192400000Y-73905468D01*
X192400002Y-73905468D01*
X192456673Y-73900509D01*
X192626692Y-73885635D01*
X192846496Y-73826739D01*
X193052734Y-73730568D01*
X193239139Y-73600047D01*
X193400047Y-73439139D01*
X193530568Y-73252734D01*
X193554457Y-73201504D01*
X195160000Y-73201504D01*
X195160000Y-73550000D01*
X195910000Y-73550000D01*
X195910000Y-74050000D01*
X195160000Y-74050000D01*
X195160000Y-74398495D01*
X195198427Y-74591681D01*
X195198430Y-74591693D01*
X195273807Y-74773671D01*
X195273814Y-74773684D01*
X195383248Y-74937462D01*
X195383251Y-74937466D01*
X195522533Y-75076748D01*
X195522537Y-75076751D01*
X195686315Y-75186185D01*
X195686328Y-75186192D01*
X195868308Y-75261569D01*
X195910000Y-75269862D01*
X195910000Y-74199728D01*
X195948060Y-74291614D01*
X196018386Y-74361940D01*
X196110272Y-74400000D01*
X196209728Y-74400000D01*
X196301614Y-74361940D01*
X196371940Y-74291614D01*
X196410000Y-74199728D01*
X196410000Y-75269862D01*
X196451690Y-75261569D01*
X196451692Y-75261569D01*
X196633671Y-75186192D01*
X196633684Y-75186185D01*
X196797462Y-75076751D01*
X196797466Y-75076748D01*
X196936748Y-74937466D01*
X196936751Y-74937462D01*
X197046185Y-74773684D01*
X197046192Y-74773671D01*
X197121569Y-74591693D01*
X197121572Y-74591681D01*
X197159999Y-74398495D01*
X197160000Y-74398492D01*
X197160000Y-74050000D01*
X196410000Y-74050000D01*
X196410000Y-73550000D01*
X197160000Y-73550000D01*
X197160000Y-73201508D01*
X197159999Y-73201504D01*
X203800000Y-73201504D01*
X203800000Y-73550000D01*
X204550000Y-73550000D01*
X204550000Y-74050000D01*
X203800000Y-74050000D01*
X203800000Y-74398495D01*
X203838427Y-74591681D01*
X203838430Y-74591693D01*
X203913807Y-74773671D01*
X203913814Y-74773684D01*
X204023248Y-74937462D01*
X204023251Y-74937466D01*
X204162533Y-75076748D01*
X204162537Y-75076751D01*
X204326315Y-75186185D01*
X204326328Y-75186192D01*
X204508308Y-75261569D01*
X204550000Y-75269862D01*
X204550000Y-74199728D01*
X204588060Y-74291614D01*
X204658386Y-74361940D01*
X204750272Y-74400000D01*
X204849728Y-74400000D01*
X204941614Y-74361940D01*
X205011940Y-74291614D01*
X205050000Y-74199728D01*
X205050000Y-75269862D01*
X205091690Y-75261569D01*
X205091692Y-75261569D01*
X205273671Y-75186192D01*
X205273684Y-75186185D01*
X205437462Y-75076751D01*
X205437466Y-75076748D01*
X205576748Y-74937466D01*
X205576751Y-74937462D01*
X205686185Y-74773684D01*
X205686192Y-74773671D01*
X205761569Y-74591693D01*
X205761572Y-74591681D01*
X205799999Y-74398495D01*
X205800000Y-74398492D01*
X205800000Y-74050000D01*
X205050000Y-74050000D01*
X205050000Y-73550000D01*
X205800000Y-73550000D01*
X205800000Y-73201508D01*
X205799999Y-73201504D01*
X205761572Y-73008318D01*
X205761569Y-73008306D01*
X205686192Y-72826328D01*
X205686185Y-72826315D01*
X205576751Y-72662537D01*
X205576748Y-72662533D01*
X205514213Y-72599998D01*
X207414532Y-72599998D01*
X207414532Y-72600001D01*
X207434364Y-72826686D01*
X207434366Y-72826697D01*
X207493258Y-73046488D01*
X207493261Y-73046497D01*
X207589431Y-73252732D01*
X207589432Y-73252734D01*
X207719954Y-73439141D01*
X207880858Y-73600045D01*
X207880861Y-73600047D01*
X208067266Y-73730568D01*
X208273504Y-73826739D01*
X208493308Y-73885635D01*
X208655230Y-73899801D01*
X208719998Y-73905468D01*
X208720000Y-73905468D01*
X208720002Y-73905468D01*
X208776673Y-73900509D01*
X208946692Y-73885635D01*
X209166496Y-73826739D01*
X209372734Y-73730568D01*
X209559139Y-73600047D01*
X209720047Y-73439139D01*
X209785278Y-73345977D01*
X209839854Y-73302353D01*
X209909352Y-73295159D01*
X209971707Y-73326681D01*
X210007122Y-73386911D01*
X210010143Y-73403847D01*
X210015909Y-73457483D01*
X210066202Y-73592328D01*
X210066206Y-73592335D01*
X210152452Y-73707544D01*
X210152455Y-73707547D01*
X210267664Y-73793793D01*
X210267671Y-73793797D01*
X210402517Y-73844091D01*
X210402516Y-73844091D01*
X210409444Y-73844835D01*
X210462127Y-73850500D01*
X212057872Y-73850499D01*
X212117483Y-73844091D01*
X212252331Y-73793796D01*
X212367546Y-73707546D01*
X212453796Y-73592331D01*
X212504091Y-73457483D01*
X212509858Y-73403842D01*
X212536593Y-73339296D01*
X212593985Y-73299447D01*
X212663810Y-73296952D01*
X212723900Y-73332604D01*
X212734721Y-73345978D01*
X212799954Y-73439141D01*
X212960858Y-73600045D01*
X212960861Y-73600047D01*
X213147266Y-73730568D01*
X213353504Y-73826739D01*
X213573308Y-73885635D01*
X213735230Y-73899801D01*
X213799998Y-73905468D01*
X213800000Y-73905468D01*
X213800002Y-73905468D01*
X213856673Y-73900509D01*
X214026692Y-73885635D01*
X214246496Y-73826739D01*
X214452734Y-73730568D01*
X214639139Y-73600047D01*
X214800047Y-73439139D01*
X214930568Y-73252734D01*
X215026739Y-73046496D01*
X215085635Y-72826692D01*
X215105468Y-72600000D01*
X215085635Y-72373308D01*
X215026739Y-72153504D01*
X214930568Y-71947266D01*
X214800047Y-71760861D01*
X214800045Y-71760858D01*
X214639141Y-71599954D01*
X214452734Y-71469432D01*
X214452732Y-71469431D01*
X214246497Y-71373261D01*
X214246488Y-71373258D01*
X214026697Y-71314366D01*
X214026693Y-71314365D01*
X214026692Y-71314365D01*
X214026691Y-71314364D01*
X214026686Y-71314364D01*
X213800002Y-71294532D01*
X213799998Y-71294532D01*
X213573313Y-71314364D01*
X213573302Y-71314366D01*
X213353511Y-71373258D01*
X213353502Y-71373261D01*
X213147267Y-71469431D01*
X213147265Y-71469432D01*
X212960858Y-71599954D01*
X212799956Y-71760856D01*
X212734721Y-71854022D01*
X212680144Y-71897646D01*
X212610645Y-71904839D01*
X212548291Y-71873317D01*
X212512877Y-71813087D01*
X212509856Y-71796150D01*
X212504091Y-71742516D01*
X212453797Y-71607671D01*
X212453793Y-71607664D01*
X212367547Y-71492455D01*
X212367544Y-71492452D01*
X212252335Y-71406206D01*
X212252328Y-71406202D01*
X212117482Y-71355908D01*
X212117483Y-71355908D01*
X212057883Y-71349501D01*
X212057881Y-71349500D01*
X212057873Y-71349500D01*
X212057864Y-71349500D01*
X210462129Y-71349500D01*
X210462123Y-71349501D01*
X210402516Y-71355908D01*
X210267671Y-71406202D01*
X210267664Y-71406206D01*
X210152455Y-71492452D01*
X210152452Y-71492455D01*
X210066206Y-71607664D01*
X210066202Y-71607671D01*
X210015908Y-71742516D01*
X210010142Y-71796154D01*
X209983404Y-71860705D01*
X209926012Y-71900553D01*
X209856186Y-71903046D01*
X209796098Y-71867393D01*
X209785278Y-71854021D01*
X209720045Y-71760858D01*
X209559141Y-71599954D01*
X209372734Y-71469432D01*
X209372732Y-71469431D01*
X209166497Y-71373261D01*
X209166488Y-71373258D01*
X208946697Y-71314366D01*
X208946693Y-71314365D01*
X208946692Y-71314365D01*
X208946691Y-71314364D01*
X208946686Y-71314364D01*
X208720002Y-71294532D01*
X208719998Y-71294532D01*
X208493313Y-71314364D01*
X208493302Y-71314366D01*
X208273511Y-71373258D01*
X208273502Y-71373261D01*
X208067267Y-71469431D01*
X208067265Y-71469432D01*
X207880858Y-71599954D01*
X207719954Y-71760858D01*
X207589432Y-71947265D01*
X207589431Y-71947267D01*
X207493261Y-72153502D01*
X207493258Y-72153511D01*
X207434366Y-72373302D01*
X207434364Y-72373313D01*
X207414532Y-72599998D01*
X205514213Y-72599998D01*
X205437466Y-72523251D01*
X205437462Y-72523248D01*
X205273684Y-72413814D01*
X205273671Y-72413807D01*
X205091691Y-72338429D01*
X205091683Y-72338427D01*
X205050000Y-72330135D01*
X205050000Y-73400272D01*
X205011940Y-73308386D01*
X204941614Y-73238060D01*
X204849728Y-73200000D01*
X204750272Y-73200000D01*
X204658386Y-73238060D01*
X204588060Y-73308386D01*
X204550000Y-73400272D01*
X204550000Y-72330136D01*
X204549999Y-72330135D01*
X204508316Y-72338427D01*
X204508308Y-72338429D01*
X204326328Y-72413807D01*
X204326315Y-72413814D01*
X204162537Y-72523248D01*
X204162533Y-72523251D01*
X204023251Y-72662533D01*
X204023248Y-72662537D01*
X203913814Y-72826315D01*
X203913807Y-72826328D01*
X203838430Y-73008306D01*
X203838427Y-73008318D01*
X203800000Y-73201504D01*
X197159999Y-73201504D01*
X197121572Y-73008318D01*
X197121569Y-73008306D01*
X197046192Y-72826328D01*
X197046185Y-72826315D01*
X196936751Y-72662537D01*
X196936748Y-72662533D01*
X196797466Y-72523251D01*
X196797462Y-72523248D01*
X196633684Y-72413814D01*
X196633671Y-72413807D01*
X196451691Y-72338429D01*
X196451683Y-72338427D01*
X196410000Y-72330135D01*
X196410000Y-73400272D01*
X196371940Y-73308386D01*
X196301614Y-73238060D01*
X196209728Y-73200000D01*
X196110272Y-73200000D01*
X196018386Y-73238060D01*
X195948060Y-73308386D01*
X195910000Y-73400272D01*
X195910000Y-72330136D01*
X195909999Y-72330135D01*
X195868316Y-72338427D01*
X195868308Y-72338429D01*
X195686328Y-72413807D01*
X195686315Y-72413814D01*
X195522537Y-72523248D01*
X195522533Y-72523251D01*
X195383251Y-72662533D01*
X195383248Y-72662537D01*
X195273814Y-72826315D01*
X195273807Y-72826328D01*
X195198430Y-73008306D01*
X195198427Y-73008318D01*
X195160000Y-73201504D01*
X193554457Y-73201504D01*
X193626739Y-73046496D01*
X193685635Y-72826692D01*
X193705468Y-72600000D01*
X193685635Y-72373308D01*
X193626739Y-72153504D01*
X193530568Y-71947266D01*
X193400047Y-71760861D01*
X193400045Y-71760858D01*
X193239141Y-71599954D01*
X193052734Y-71469432D01*
X193052732Y-71469431D01*
X192846497Y-71373261D01*
X192846488Y-71373258D01*
X192626697Y-71314366D01*
X192626693Y-71314365D01*
X192626692Y-71314365D01*
X192626691Y-71314364D01*
X192626686Y-71314364D01*
X192400002Y-71294532D01*
X192399998Y-71294532D01*
X192173313Y-71314364D01*
X192173302Y-71314366D01*
X191953511Y-71373258D01*
X191953502Y-71373261D01*
X191747267Y-71469431D01*
X191747265Y-71469432D01*
X191560858Y-71599954D01*
X191399956Y-71760856D01*
X191334721Y-71854022D01*
X191280144Y-71897646D01*
X191210645Y-71904839D01*
X191148291Y-71873317D01*
X191112877Y-71813087D01*
X191109856Y-71796150D01*
X191104091Y-71742516D01*
X191053797Y-71607671D01*
X191053793Y-71607664D01*
X190967547Y-71492455D01*
X190967544Y-71492452D01*
X190852335Y-71406206D01*
X190852328Y-71406202D01*
X190717482Y-71355908D01*
X190717483Y-71355908D01*
X190657883Y-71349501D01*
X190657881Y-71349500D01*
X190657873Y-71349500D01*
X190657864Y-71349500D01*
X189062129Y-71349500D01*
X189062123Y-71349501D01*
X189002516Y-71355908D01*
X188867671Y-71406202D01*
X188867664Y-71406206D01*
X188752455Y-71492452D01*
X188752452Y-71492455D01*
X188666206Y-71607664D01*
X188666202Y-71607671D01*
X188615908Y-71742516D01*
X188610142Y-71796154D01*
X188583404Y-71860705D01*
X188526012Y-71900553D01*
X188456186Y-71903046D01*
X188396098Y-71867393D01*
X188385278Y-71854021D01*
X188320045Y-71760858D01*
X188159141Y-71599954D01*
X187972734Y-71469432D01*
X187972732Y-71469431D01*
X187766497Y-71373261D01*
X187766488Y-71373258D01*
X187546697Y-71314366D01*
X187546693Y-71314365D01*
X187546692Y-71314365D01*
X187546691Y-71314364D01*
X187546686Y-71314364D01*
X187320002Y-71294532D01*
X187319998Y-71294532D01*
X187093313Y-71314364D01*
X187093302Y-71314366D01*
X186873511Y-71373258D01*
X186873502Y-71373261D01*
X186667267Y-71469431D01*
X186667265Y-71469432D01*
X186480858Y-71599954D01*
X186319954Y-71760858D01*
X186189432Y-71947265D01*
X186189431Y-71947267D01*
X186093261Y-72153502D01*
X186093258Y-72153511D01*
X186034366Y-72373302D01*
X186034364Y-72373313D01*
X186014532Y-72599998D01*
X164500500Y-72599998D01*
X164500500Y-69224500D01*
X164520185Y-69157461D01*
X164572989Y-69111706D01*
X164624500Y-69100500D01*
X230775500Y-69100500D01*
X230842539Y-69120185D01*
G37*
%TD.AperFunction*%
%TD*%
M02*
