%TF.GenerationSoftware,KiCad,Pcbnew,8.0.8*%
%TF.CreationDate,2025-03-03T07:56:48-06:00*%
%TF.ProjectId,Final Project V1,46696e61-6c20-4507-926f-6a6563742056,rev?*%
%TF.SameCoordinates,Original*%
%TF.FileFunction,Plated,1,2,PTH,Mixed*%
%TF.FilePolarity,Positive*%
%FSLAX46Y46*%
G04 Gerber Fmt 4.6, Leading zero omitted, Abs format (unit mm)*
G04 Created by KiCad (PCBNEW 8.0.8) date 2025-03-03 07:56:48*
%MOMM*%
%LPD*%
G01*
G04 APERTURE LIST*
%TA.AperFunction,ComponentDrill*%
%ADD10C,0.200000*%
%TD*%
%TA.AperFunction,ViaDrill*%
%ADD11C,0.300000*%
%TD*%
G04 aperture for slot hole*
%TA.AperFunction,ComponentDrill*%
%ADD12C,0.500000*%
%TD*%
%TA.AperFunction,ComponentDrill*%
%ADD13C,0.800000*%
%TD*%
%TA.AperFunction,ComponentDrill*%
%ADD14C,1.000000*%
%TD*%
%TA.AperFunction,ComponentDrill*%
%ADD15C,1.100000*%
%TD*%
%TA.AperFunction,ComponentDrill*%
%ADD16C,1.143000*%
%TD*%
%TA.AperFunction,ComponentDrill*%
%ADD17C,1.447800*%
%TD*%
G04 APERTURE END LIST*
D10*
%TO.C,U2*%
X201880000Y-107750000D03*
X201880000Y-109150000D03*
X202580000Y-107050000D03*
X202580000Y-108450000D03*
X202580000Y-109850000D03*
X203280000Y-107750000D03*
X203280000Y-109150000D03*
X203980000Y-107050000D03*
X203980000Y-108450000D03*
X203980000Y-109850000D03*
X204680000Y-107750000D03*
X204680000Y-109150000D03*
%TD*%
D11*
X168800000Y-107800000D03*
X169000000Y-104400000D03*
X171000000Y-97200000D03*
X171000000Y-115600000D03*
X172000000Y-109600000D03*
X172200000Y-111800000D03*
X173000000Y-97200000D03*
X173200000Y-93800000D03*
X175600000Y-91237500D03*
X178600000Y-98800000D03*
X179850000Y-90600000D03*
X180000000Y-96800000D03*
X180000000Y-103600000D03*
X181000000Y-99000000D03*
X181400000Y-130600000D03*
X182200000Y-106000000D03*
X183600000Y-105800000D03*
X183800000Y-110800000D03*
X183900000Y-108450000D03*
X185200000Y-105400000D03*
X187000000Y-109800000D03*
X187400000Y-101200000D03*
X187800000Y-90600000D03*
X189200000Y-96000000D03*
X189200000Y-113000000D03*
X190000000Y-93200000D03*
X190200000Y-120400000D03*
X190800000Y-84200000D03*
X191000000Y-99600000D03*
X191800000Y-114800000D03*
X191800000Y-117200000D03*
X191800000Y-118800000D03*
X192000000Y-92600000D03*
X192000000Y-120800000D03*
X192037500Y-83200000D03*
X192800000Y-80200000D03*
X193240000Y-105505000D03*
X193800000Y-89037500D03*
X194400000Y-112200000D03*
X195000000Y-107800000D03*
X195400000Y-126200000D03*
X195800000Y-81600000D03*
X195800000Y-116800000D03*
X195800000Y-120600000D03*
X196600000Y-116200000D03*
X196837500Y-85800000D03*
X197400000Y-80200000D03*
X197730000Y-77605000D03*
X197945000Y-82000000D03*
X198000000Y-108200000D03*
X198800000Y-91450000D03*
X199200000Y-106400000D03*
X199400000Y-96600000D03*
X200000000Y-109600000D03*
X200800000Y-120000000D03*
X201000000Y-107600000D03*
X201187500Y-126012500D03*
X201200000Y-89037500D03*
X201800000Y-81200000D03*
X202425000Y-122750000D03*
X203230000Y-77605000D03*
X205600000Y-93400000D03*
X208200000Y-94237500D03*
X208460000Y-118700000D03*
X209000000Y-130000000D03*
X209730000Y-118700000D03*
X210375000Y-122750000D03*
X210800000Y-94237500D03*
X211000000Y-101200000D03*
X211000000Y-118700000D03*
X211290000Y-129690000D03*
D12*
%TO.C,USB-C1*%
X196160000Y-73450000D02*
X196160000Y-74150000D01*
X196160000Y-77250000D02*
X196160000Y-77950000D01*
X204800000Y-73450000D02*
X204800000Y-74150000D01*
X204800000Y-77250000D02*
X204800000Y-77950000D01*
D13*
%TO.C,SW4*%
X187320000Y-72600000D03*
X189860000Y-72600000D03*
X192400000Y-72600000D03*
%TO.C,SW5*%
X208720000Y-72600000D03*
X211260000Y-72600000D03*
X213800000Y-72600000D03*
D14*
%TO.C,J6*%
X173860000Y-98900000D03*
X173860000Y-101440000D03*
X173860000Y-103980000D03*
X173860000Y-106520000D03*
X173860000Y-109060000D03*
X173860000Y-111600000D03*
X173860000Y-114140000D03*
X173860000Y-116680000D03*
X173860000Y-119220000D03*
X176400000Y-98900000D03*
X176400000Y-101440000D03*
X176400000Y-103980000D03*
X176400000Y-106520000D03*
X176400000Y-109060000D03*
X176400000Y-111600000D03*
X176400000Y-114140000D03*
X176400000Y-116680000D03*
X176400000Y-119220000D03*
%TO.C,J5*%
X186025000Y-128750000D03*
X186025000Y-131290000D03*
%TO.C,J4*%
X192550000Y-132375000D03*
%TO.C,J3*%
X192600000Y-123060000D03*
X192600000Y-125600000D03*
X192600000Y-128140000D03*
%TO.C,J4*%
X195090000Y-132375000D03*
%TO.C,J2*%
X199980000Y-132200000D03*
X202520000Y-132200000D03*
X205060000Y-132200000D03*
X207600000Y-132200000D03*
X210140000Y-132200000D03*
D15*
%TO.C,D1*%
X204600000Y-81240000D03*
X204600000Y-91400000D03*
%TO.C,D2*%
X209000000Y-81320000D03*
X209000000Y-91480000D03*
D16*
%TO.C,U4*%
X168600000Y-113771000D03*
X168600000Y-116311000D03*
X168600000Y-118851000D03*
%TO.C,U5*%
X182320000Y-123200000D03*
X184860000Y-123200000D03*
X187400000Y-123200000D03*
D17*
%TO.C,J1*%
X219200000Y-77100001D03*
X219200000Y-82600000D03*
X223399998Y-77100001D03*
X223399998Y-82600000D03*
M02*
