%TF.GenerationSoftware,KiCad,Pcbnew,8.0.8*%
%TF.CreationDate,2025-03-03T07:56:09-06:00*%
%TF.ProjectId,Final Project V1,46696e61-6c20-4507-926f-6a6563742056,rev?*%
%TF.SameCoordinates,Original*%
%TF.FileFunction,Paste,Top*%
%TF.FilePolarity,Positive*%
%FSLAX46Y46*%
G04 Gerber Fmt 4.6, Leading zero omitted, Abs format (unit mm)*
G04 Created by KiCad (PCBNEW 8.0.8) date 2025-03-03 07:56:09*
%MOMM*%
%LPD*%
G01*
G04 APERTURE LIST*
G04 Aperture macros list*
%AMRoundRect*
0 Rectangle with rounded corners*
0 $1 Rounding radius*
0 $2 $3 $4 $5 $6 $7 $8 $9 X,Y pos of 4 corners*
0 Add a 4 corners polygon primitive as box body*
4,1,4,$2,$3,$4,$5,$6,$7,$8,$9,$2,$3,0*
0 Add four circle primitives for the rounded corners*
1,1,$1+$1,$2,$3*
1,1,$1+$1,$4,$5*
1,1,$1+$1,$6,$7*
1,1,$1+$1,$8,$9*
0 Add four rect primitives between the rounded corners*
20,1,$1+$1,$2,$3,$4,$5,0*
20,1,$1+$1,$4,$5,$6,$7,0*
20,1,$1+$1,$6,$7,$8,$9,0*
20,1,$1+$1,$8,$9,$2,$3,0*%
G04 Aperture macros list end*
%ADD10RoundRect,0.250000X0.350000X0.450000X-0.350000X0.450000X-0.350000X-0.450000X0.350000X-0.450000X0*%
%ADD11RoundRect,0.150000X-0.150000X0.587500X-0.150000X-0.587500X0.150000X-0.587500X0.150000X0.587500X0*%
%ADD12RoundRect,0.072500X0.532500X0.217500X-0.532500X0.217500X-0.532500X-0.217500X0.532500X-0.217500X0*%
%ADD13RoundRect,0.250000X-0.350000X-0.450000X0.350000X-0.450000X0.350000X0.450000X-0.350000X0.450000X0*%
%ADD14R,1.300000X1.550000*%
%ADD15R,0.900000X1.500000*%
%ADD16R,1.500000X0.900000*%
%ADD17R,0.900000X0.900000*%
%ADD18RoundRect,0.250000X-0.450000X0.350000X-0.450000X-0.350000X0.450000X-0.350000X0.450000X0.350000X0*%
%ADD19RoundRect,0.250000X0.650000X-0.412500X0.650000X0.412500X-0.650000X0.412500X-0.650000X-0.412500X0*%
%ADD20RoundRect,0.250000X0.450000X-0.350000X0.450000X0.350000X-0.450000X0.350000X-0.450000X-0.350000X0*%
%ADD21R,0.700000X1.150000*%
%ADD22R,0.800000X1.150000*%
%ADD23R,0.900000X1.150000*%
%ADD24R,1.550000X1.300000*%
%ADD25RoundRect,0.150000X-0.587500X-0.150000X0.587500X-0.150000X0.587500X0.150000X-0.587500X0.150000X0*%
%ADD26RoundRect,0.250000X-0.650000X0.412500X-0.650000X-0.412500X0.650000X-0.412500X0.650000X0.412500X0*%
%ADD27RoundRect,0.250000X-0.412500X-0.650000X0.412500X-0.650000X0.412500X0.650000X-0.412500X0.650000X0*%
%ADD28RoundRect,0.250000X0.412500X0.650000X-0.412500X0.650000X-0.412500X-0.650000X0.412500X-0.650000X0*%
%ADD29RoundRect,0.150000X0.512500X0.150000X-0.512500X0.150000X-0.512500X-0.150000X0.512500X-0.150000X0*%
G04 APERTURE END LIST*
D10*
%TO.C,R3*%
X187200000Y-105400000D03*
X185200000Y-105400000D03*
%TD*%
D11*
%TO.C,Q2*%
X187550000Y-97925000D03*
X185650000Y-97925000D03*
X186600000Y-99800000D03*
%TD*%
D12*
%TO.C,U3*%
X200455000Y-82950000D03*
X200455000Y-82000000D03*
X200455000Y-81050000D03*
X197945000Y-81050000D03*
X197945000Y-82000000D03*
X197945000Y-82950000D03*
%TD*%
D13*
%TO.C,R12*%
X190600000Y-97400000D03*
X192600000Y-97400000D03*
%TD*%
D14*
%TO.C,SW3*%
X188400000Y-108450000D03*
X188400000Y-116400000D03*
X183900000Y-108450000D03*
X183900000Y-116400000D03*
%TD*%
D15*
%TO.C,U2*%
X211000000Y-118700000D03*
X209730000Y-118700000D03*
X208460000Y-118700000D03*
X207190000Y-118700000D03*
X205920000Y-118700000D03*
X204650000Y-118700000D03*
X203380000Y-118700000D03*
X202110000Y-118700000D03*
X200840000Y-118700000D03*
X199570000Y-118700000D03*
X198300000Y-118700000D03*
X197030000Y-118700000D03*
X195760000Y-118700000D03*
X194490000Y-118700000D03*
D16*
X193240000Y-116935000D03*
X193240000Y-115665000D03*
X193240000Y-114395000D03*
X193240000Y-113125000D03*
X193240000Y-111855000D03*
X193240000Y-110585000D03*
X193240000Y-109315000D03*
X193240000Y-108045000D03*
X193240000Y-106775000D03*
X193240000Y-105505000D03*
X193240000Y-104235000D03*
X193240000Y-102965000D03*
D15*
X194490000Y-101200000D03*
X195760000Y-101200000D03*
X197030000Y-101200000D03*
X198300000Y-101200000D03*
X199570000Y-101200000D03*
X200840000Y-101200000D03*
X202110000Y-101200000D03*
X203380000Y-101200000D03*
X204650000Y-101200000D03*
X205920000Y-101200000D03*
X207190000Y-101200000D03*
X208460000Y-101200000D03*
X209730000Y-101200000D03*
X211000000Y-101200000D03*
D17*
X201880000Y-109850000D03*
X203280000Y-109850000D03*
X204680000Y-109850000D03*
X201880000Y-108450000D03*
X203280000Y-108450000D03*
X204680000Y-108450000D03*
X201880000Y-107050000D03*
X203280000Y-107050000D03*
X204680000Y-107050000D03*
%TD*%
D18*
%TO.C,R9*%
X173200000Y-93800000D03*
X173200000Y-95800000D03*
%TD*%
D19*
%TO.C,C1*%
X193800000Y-92162500D03*
X193800000Y-89037500D03*
%TD*%
%TO.C,C6*%
X196775000Y-126012500D03*
X196775000Y-122887500D03*
%TD*%
D20*
%TO.C,R10*%
X199375000Y-125450000D03*
X199375000Y-123450000D03*
%TD*%
D21*
%TO.C,USB-C1*%
X200980000Y-77605000D03*
D22*
X198960000Y-77605000D03*
D23*
X197730000Y-77605000D03*
D21*
X199980000Y-77605000D03*
D22*
X202000000Y-77605000D03*
D23*
X203230000Y-77605000D03*
%TD*%
D24*
%TO.C,SW1*%
X179850000Y-90600000D03*
X187800000Y-90600000D03*
X179850000Y-95100000D03*
X187800000Y-95100000D03*
%TD*%
D13*
%TO.C,R6*%
X185200000Y-102800000D03*
X187200000Y-102800000D03*
%TD*%
D20*
%TO.C,R8*%
X177200000Y-124400000D03*
X177200000Y-122400000D03*
%TD*%
D25*
%TO.C,Q1*%
X198125000Y-94450000D03*
X198125000Y-96350000D03*
X200000000Y-95400000D03*
%TD*%
D20*
%TO.C,R5*%
X181400000Y-130600000D03*
X181400000Y-128600000D03*
%TD*%
D13*
%TO.C,R14*%
X203000000Y-95000000D03*
X205000000Y-95000000D03*
%TD*%
D26*
%TO.C,C5*%
X208200000Y-94237500D03*
X208200000Y-97362500D03*
%TD*%
D13*
%TO.C,R15*%
X190600000Y-94800000D03*
X192600000Y-94800000D03*
%TD*%
D27*
%TO.C,C4*%
X196837500Y-85800000D03*
X199962500Y-85800000D03*
%TD*%
D13*
%TO.C,R7*%
X168600000Y-109000000D03*
X170600000Y-109000000D03*
%TD*%
D18*
%TO.C,R11*%
X195600000Y-95200000D03*
X195600000Y-97200000D03*
%TD*%
D13*
%TO.C,R1*%
X192800000Y-80200000D03*
X194800000Y-80200000D03*
%TD*%
D19*
%TO.C,C2*%
X201200000Y-92162500D03*
X201200000Y-89037500D03*
%TD*%
D18*
%TO.C,R2*%
X191200000Y-86000000D03*
X191200000Y-88000000D03*
%TD*%
D10*
%TO.C,R13*%
X183000000Y-99000000D03*
X181000000Y-99000000D03*
%TD*%
D19*
%TO.C,C9*%
X175600000Y-94362500D03*
X175600000Y-91237500D03*
%TD*%
D28*
%TO.C,C3*%
X195162500Y-83200000D03*
X192037500Y-83200000D03*
%TD*%
D24*
%TO.C,SW2*%
X202425000Y-122750000D03*
X210375000Y-122750000D03*
X202425000Y-127250000D03*
X210375000Y-127250000D03*
%TD*%
D29*
%TO.C,U1*%
X198800000Y-92400000D03*
X198800000Y-91450000D03*
X198800000Y-90500000D03*
X196525000Y-90500000D03*
X196525000Y-92400000D03*
%TD*%
D26*
%TO.C,C10*%
X210800000Y-94237500D03*
X210800000Y-97362500D03*
%TD*%
D10*
%TO.C,R4*%
X190400000Y-118800000D03*
X188400000Y-118800000D03*
%TD*%
M02*
