%TF.GenerationSoftware,KiCad,Pcbnew,8.0.8*%
%TF.CreationDate,2025-03-03T07:56:09-06:00*%
%TF.ProjectId,Final Project V1,46696e61-6c20-4507-926f-6a6563742056,rev?*%
%TF.SameCoordinates,Original*%
%TF.FileFunction,Legend,Top*%
%TF.FilePolarity,Positive*%
%FSLAX46Y46*%
G04 Gerber Fmt 4.6, Leading zero omitted, Abs format (unit mm)*
G04 Created by KiCad (PCBNEW 8.0.8) date 2025-03-03 07:56:09*
%MOMM*%
%LPD*%
G01*
G04 APERTURE LIST*
%ADD10C,0.200000*%
%ADD11C,0.150000*%
%ADD12C,0.152400*%
%ADD13C,0.120000*%
%ADD14C,0.127000*%
%ADD15C,0.508000*%
G04 APERTURE END LIST*
D10*
X169122054Y-78409656D02*
X169264911Y-78457275D01*
X169264911Y-78457275D02*
X169503006Y-78457275D01*
X169503006Y-78457275D02*
X169598244Y-78409656D01*
X169598244Y-78409656D02*
X169645863Y-78362036D01*
X169645863Y-78362036D02*
X169693482Y-78266798D01*
X169693482Y-78266798D02*
X169693482Y-78171560D01*
X169693482Y-78171560D02*
X169645863Y-78076322D01*
X169645863Y-78076322D02*
X169598244Y-78028703D01*
X169598244Y-78028703D02*
X169503006Y-77981084D01*
X169503006Y-77981084D02*
X169312530Y-77933465D01*
X169312530Y-77933465D02*
X169217292Y-77885846D01*
X169217292Y-77885846D02*
X169169673Y-77838227D01*
X169169673Y-77838227D02*
X169122054Y-77742989D01*
X169122054Y-77742989D02*
X169122054Y-77647751D01*
X169122054Y-77647751D02*
X169169673Y-77552513D01*
X169169673Y-77552513D02*
X169217292Y-77504894D01*
X169217292Y-77504894D02*
X169312530Y-77457275D01*
X169312530Y-77457275D02*
X169550625Y-77457275D01*
X169550625Y-77457275D02*
X169693482Y-77504894D01*
X170074435Y-78171560D02*
X170550625Y-78171560D01*
X169979197Y-78457275D02*
X170312530Y-77457275D01*
X170312530Y-77457275D02*
X170645863Y-78457275D01*
X171312530Y-77933465D02*
X170979197Y-77933465D01*
X170979197Y-78457275D02*
X170979197Y-77457275D01*
X170979197Y-77457275D02*
X171455387Y-77457275D01*
X172169673Y-77933465D02*
X171836340Y-77933465D01*
X171836340Y-78457275D02*
X171836340Y-77457275D01*
X171836340Y-77457275D02*
X172312530Y-77457275D01*
X169169673Y-80067219D02*
X169169673Y-79067219D01*
X169169673Y-79067219D02*
X169503006Y-79781504D01*
X169503006Y-79781504D02*
X169836339Y-79067219D01*
X169836339Y-79067219D02*
X169836339Y-80067219D01*
X170741101Y-80067219D02*
X170741101Y-79543409D01*
X170741101Y-79543409D02*
X170693482Y-79448171D01*
X170693482Y-79448171D02*
X170598244Y-79400552D01*
X170598244Y-79400552D02*
X170407768Y-79400552D01*
X170407768Y-79400552D02*
X170312530Y-79448171D01*
X170741101Y-80019600D02*
X170645863Y-80067219D01*
X170645863Y-80067219D02*
X170407768Y-80067219D01*
X170407768Y-80067219D02*
X170312530Y-80019600D01*
X170312530Y-80019600D02*
X170264911Y-79924361D01*
X170264911Y-79924361D02*
X170264911Y-79829123D01*
X170264911Y-79829123D02*
X170312530Y-79733885D01*
X170312530Y-79733885D02*
X170407768Y-79686266D01*
X170407768Y-79686266D02*
X170645863Y-79686266D01*
X170645863Y-79686266D02*
X170741101Y-79638647D01*
X171217292Y-80067219D02*
X171217292Y-79400552D01*
X171217292Y-79067219D02*
X171169673Y-79114838D01*
X171169673Y-79114838D02*
X171217292Y-79162457D01*
X171217292Y-79162457D02*
X171264911Y-79114838D01*
X171264911Y-79114838D02*
X171217292Y-79067219D01*
X171217292Y-79067219D02*
X171217292Y-79162457D01*
X171693482Y-79400552D02*
X171693482Y-80067219D01*
X171693482Y-79495790D02*
X171741101Y-79448171D01*
X171741101Y-79448171D02*
X171836339Y-79400552D01*
X171836339Y-79400552D02*
X171979196Y-79400552D01*
X171979196Y-79400552D02*
X172074434Y-79448171D01*
X172074434Y-79448171D02*
X172122053Y-79543409D01*
X172122053Y-79543409D02*
X172122053Y-80067219D01*
X173693482Y-79543409D02*
X173836339Y-79591028D01*
X173836339Y-79591028D02*
X173883958Y-79638647D01*
X173883958Y-79638647D02*
X173931577Y-79733885D01*
X173931577Y-79733885D02*
X173931577Y-79876742D01*
X173931577Y-79876742D02*
X173883958Y-79971980D01*
X173883958Y-79971980D02*
X173836339Y-80019600D01*
X173836339Y-80019600D02*
X173741101Y-80067219D01*
X173741101Y-80067219D02*
X173360149Y-80067219D01*
X173360149Y-80067219D02*
X173360149Y-79067219D01*
X173360149Y-79067219D02*
X173693482Y-79067219D01*
X173693482Y-79067219D02*
X173788720Y-79114838D01*
X173788720Y-79114838D02*
X173836339Y-79162457D01*
X173836339Y-79162457D02*
X173883958Y-79257695D01*
X173883958Y-79257695D02*
X173883958Y-79352933D01*
X173883958Y-79352933D02*
X173836339Y-79448171D01*
X173836339Y-79448171D02*
X173788720Y-79495790D01*
X173788720Y-79495790D02*
X173693482Y-79543409D01*
X173693482Y-79543409D02*
X173360149Y-79543409D01*
X174503006Y-80067219D02*
X174407768Y-80019600D01*
X174407768Y-80019600D02*
X174360149Y-79971980D01*
X174360149Y-79971980D02*
X174312530Y-79876742D01*
X174312530Y-79876742D02*
X174312530Y-79591028D01*
X174312530Y-79591028D02*
X174360149Y-79495790D01*
X174360149Y-79495790D02*
X174407768Y-79448171D01*
X174407768Y-79448171D02*
X174503006Y-79400552D01*
X174503006Y-79400552D02*
X174645863Y-79400552D01*
X174645863Y-79400552D02*
X174741101Y-79448171D01*
X174741101Y-79448171D02*
X174788720Y-79495790D01*
X174788720Y-79495790D02*
X174836339Y-79591028D01*
X174836339Y-79591028D02*
X174836339Y-79876742D01*
X174836339Y-79876742D02*
X174788720Y-79971980D01*
X174788720Y-79971980D02*
X174741101Y-80019600D01*
X174741101Y-80019600D02*
X174645863Y-80067219D01*
X174645863Y-80067219D02*
X174503006Y-80067219D01*
X175693482Y-80067219D02*
X175693482Y-79543409D01*
X175693482Y-79543409D02*
X175645863Y-79448171D01*
X175645863Y-79448171D02*
X175550625Y-79400552D01*
X175550625Y-79400552D02*
X175360149Y-79400552D01*
X175360149Y-79400552D02*
X175264911Y-79448171D01*
X175693482Y-80019600D02*
X175598244Y-80067219D01*
X175598244Y-80067219D02*
X175360149Y-80067219D01*
X175360149Y-80067219D02*
X175264911Y-80019600D01*
X175264911Y-80019600D02*
X175217292Y-79924361D01*
X175217292Y-79924361D02*
X175217292Y-79829123D01*
X175217292Y-79829123D02*
X175264911Y-79733885D01*
X175264911Y-79733885D02*
X175360149Y-79686266D01*
X175360149Y-79686266D02*
X175598244Y-79686266D01*
X175598244Y-79686266D02*
X175693482Y-79638647D01*
X176169673Y-80067219D02*
X176169673Y-79400552D01*
X176169673Y-79591028D02*
X176217292Y-79495790D01*
X176217292Y-79495790D02*
X176264911Y-79448171D01*
X176264911Y-79448171D02*
X176360149Y-79400552D01*
X176360149Y-79400552D02*
X176455387Y-79400552D01*
X177217292Y-80067219D02*
X177217292Y-79067219D01*
X177217292Y-80019600D02*
X177122054Y-80067219D01*
X177122054Y-80067219D02*
X176931578Y-80067219D01*
X176931578Y-80067219D02*
X176836340Y-80019600D01*
X176836340Y-80019600D02*
X176788721Y-79971980D01*
X176788721Y-79971980D02*
X176741102Y-79876742D01*
X176741102Y-79876742D02*
X176741102Y-79591028D01*
X176741102Y-79591028D02*
X176788721Y-79495790D01*
X176788721Y-79495790D02*
X176836340Y-79448171D01*
X176836340Y-79448171D02*
X176931578Y-79400552D01*
X176931578Y-79400552D02*
X177122054Y-79400552D01*
X177122054Y-79400552D02*
X177217292Y-79448171D01*
X178312531Y-79067219D02*
X178645864Y-80067219D01*
X178645864Y-80067219D02*
X178979197Y-79067219D01*
X179836340Y-80067219D02*
X179264912Y-80067219D01*
X179550626Y-80067219D02*
X179550626Y-79067219D01*
X179550626Y-79067219D02*
X179455388Y-79210076D01*
X179455388Y-79210076D02*
X179360150Y-79305314D01*
X179360150Y-79305314D02*
X179264912Y-79352933D01*
X180264912Y-79971980D02*
X180312531Y-80019600D01*
X180312531Y-80019600D02*
X180264912Y-80067219D01*
X180264912Y-80067219D02*
X180217293Y-80019600D01*
X180217293Y-80019600D02*
X180264912Y-79971980D01*
X180264912Y-79971980D02*
X180264912Y-80067219D01*
X180931578Y-79067219D02*
X181026816Y-79067219D01*
X181026816Y-79067219D02*
X181122054Y-79114838D01*
X181122054Y-79114838D02*
X181169673Y-79162457D01*
X181169673Y-79162457D02*
X181217292Y-79257695D01*
X181217292Y-79257695D02*
X181264911Y-79448171D01*
X181264911Y-79448171D02*
X181264911Y-79686266D01*
X181264911Y-79686266D02*
X181217292Y-79876742D01*
X181217292Y-79876742D02*
X181169673Y-79971980D01*
X181169673Y-79971980D02*
X181122054Y-80019600D01*
X181122054Y-80019600D02*
X181026816Y-80067219D01*
X181026816Y-80067219D02*
X180931578Y-80067219D01*
X180931578Y-80067219D02*
X180836340Y-80019600D01*
X180836340Y-80019600D02*
X180788721Y-79971980D01*
X180788721Y-79971980D02*
X180741102Y-79876742D01*
X180741102Y-79876742D02*
X180693483Y-79686266D01*
X180693483Y-79686266D02*
X180693483Y-79448171D01*
X180693483Y-79448171D02*
X180741102Y-79257695D01*
X180741102Y-79257695D02*
X180788721Y-79162457D01*
X180788721Y-79162457D02*
X180836340Y-79114838D01*
X180836340Y-79114838D02*
X180931578Y-79067219D01*
D11*
X185621904Y-123745180D02*
X185621904Y-122935657D01*
X185621904Y-122935657D02*
X185574285Y-122840419D01*
X185574285Y-122840419D02*
X185526666Y-122792800D01*
X185526666Y-122792800D02*
X185431428Y-122745180D01*
X185431428Y-122745180D02*
X185240952Y-122745180D01*
X185240952Y-122745180D02*
X185145714Y-122792800D01*
X185145714Y-122792800D02*
X185098095Y-122840419D01*
X185098095Y-122840419D02*
X185050476Y-122935657D01*
X185050476Y-122935657D02*
X185050476Y-123745180D01*
X184098095Y-123745180D02*
X184574285Y-123745180D01*
X184574285Y-123745180D02*
X184621904Y-123268990D01*
X184621904Y-123268990D02*
X184574285Y-123316609D01*
X184574285Y-123316609D02*
X184479047Y-123364228D01*
X184479047Y-123364228D02*
X184240952Y-123364228D01*
X184240952Y-123364228D02*
X184145714Y-123316609D01*
X184145714Y-123316609D02*
X184098095Y-123268990D01*
X184098095Y-123268990D02*
X184050476Y-123173752D01*
X184050476Y-123173752D02*
X184050476Y-122935657D01*
X184050476Y-122935657D02*
X184098095Y-122840419D01*
X184098095Y-122840419D02*
X184145714Y-122792800D01*
X184145714Y-122792800D02*
X184240952Y-122745180D01*
X184240952Y-122745180D02*
X184479047Y-122745180D01*
X184479047Y-122745180D02*
X184574285Y-122792800D01*
X184574285Y-122792800D02*
X184621904Y-122840419D01*
X168054819Y-117072904D02*
X168864342Y-117072904D01*
X168864342Y-117072904D02*
X168959580Y-117025285D01*
X168959580Y-117025285D02*
X169007200Y-116977666D01*
X169007200Y-116977666D02*
X169054819Y-116882428D01*
X169054819Y-116882428D02*
X169054819Y-116691952D01*
X169054819Y-116691952D02*
X169007200Y-116596714D01*
X169007200Y-116596714D02*
X168959580Y-116549095D01*
X168959580Y-116549095D02*
X168864342Y-116501476D01*
X168864342Y-116501476D02*
X168054819Y-116501476D01*
X168388152Y-115596714D02*
X169054819Y-115596714D01*
X168007200Y-115834809D02*
X168721485Y-116072904D01*
X168721485Y-116072904D02*
X168721485Y-115453857D01*
X206984819Y-87138094D02*
X205984819Y-87138094D01*
X205984819Y-87138094D02*
X205984819Y-86899999D01*
X205984819Y-86899999D02*
X206032438Y-86757142D01*
X206032438Y-86757142D02*
X206127676Y-86661904D01*
X206127676Y-86661904D02*
X206222914Y-86614285D01*
X206222914Y-86614285D02*
X206413390Y-86566666D01*
X206413390Y-86566666D02*
X206556247Y-86566666D01*
X206556247Y-86566666D02*
X206746723Y-86614285D01*
X206746723Y-86614285D02*
X206841961Y-86661904D01*
X206841961Y-86661904D02*
X206937200Y-86757142D01*
X206937200Y-86757142D02*
X206984819Y-86899999D01*
X206984819Y-86899999D02*
X206984819Y-87138094D01*
X206080057Y-86185713D02*
X206032438Y-86138094D01*
X206032438Y-86138094D02*
X205984819Y-86042856D01*
X205984819Y-86042856D02*
X205984819Y-85804761D01*
X205984819Y-85804761D02*
X206032438Y-85709523D01*
X206032438Y-85709523D02*
X206080057Y-85661904D01*
X206080057Y-85661904D02*
X206175295Y-85614285D01*
X206175295Y-85614285D02*
X206270533Y-85614285D01*
X206270533Y-85614285D02*
X206413390Y-85661904D01*
X206413390Y-85661904D02*
X206984819Y-86233332D01*
X206984819Y-86233332D02*
X206984819Y-85614285D01*
X207354819Y-91741904D02*
X206354819Y-91741904D01*
X207354819Y-91170476D02*
X206783390Y-91599047D01*
X206354819Y-91170476D02*
X206926247Y-91741904D01*
X186033333Y-107504819D02*
X185700000Y-107028628D01*
X185461905Y-107504819D02*
X185461905Y-106504819D01*
X185461905Y-106504819D02*
X185842857Y-106504819D01*
X185842857Y-106504819D02*
X185938095Y-106552438D01*
X185938095Y-106552438D02*
X185985714Y-106600057D01*
X185985714Y-106600057D02*
X186033333Y-106695295D01*
X186033333Y-106695295D02*
X186033333Y-106838152D01*
X186033333Y-106838152D02*
X185985714Y-106933390D01*
X185985714Y-106933390D02*
X185938095Y-106981009D01*
X185938095Y-106981009D02*
X185842857Y-107028628D01*
X185842857Y-107028628D02*
X185461905Y-107028628D01*
X186366667Y-106504819D02*
X186985714Y-106504819D01*
X186985714Y-106504819D02*
X186652381Y-106885771D01*
X186652381Y-106885771D02*
X186795238Y-106885771D01*
X186795238Y-106885771D02*
X186890476Y-106933390D01*
X186890476Y-106933390D02*
X186938095Y-106981009D01*
X186938095Y-106981009D02*
X186985714Y-107076247D01*
X186985714Y-107076247D02*
X186985714Y-107314342D01*
X186985714Y-107314342D02*
X186938095Y-107409580D01*
X186938095Y-107409580D02*
X186890476Y-107457200D01*
X186890476Y-107457200D02*
X186795238Y-107504819D01*
X186795238Y-107504819D02*
X186509524Y-107504819D01*
X186509524Y-107504819D02*
X186414286Y-107457200D01*
X186414286Y-107457200D02*
X186366667Y-107409580D01*
X189550057Y-98957738D02*
X189502438Y-99052976D01*
X189502438Y-99052976D02*
X189407200Y-99148214D01*
X189407200Y-99148214D02*
X189264342Y-99291071D01*
X189264342Y-99291071D02*
X189216723Y-99386309D01*
X189216723Y-99386309D02*
X189216723Y-99481547D01*
X189454819Y-99433928D02*
X189407200Y-99529166D01*
X189407200Y-99529166D02*
X189311961Y-99624404D01*
X189311961Y-99624404D02*
X189121485Y-99672023D01*
X189121485Y-99672023D02*
X188788152Y-99672023D01*
X188788152Y-99672023D02*
X188597676Y-99624404D01*
X188597676Y-99624404D02*
X188502438Y-99529166D01*
X188502438Y-99529166D02*
X188454819Y-99433928D01*
X188454819Y-99433928D02*
X188454819Y-99243452D01*
X188454819Y-99243452D02*
X188502438Y-99148214D01*
X188502438Y-99148214D02*
X188597676Y-99052976D01*
X188597676Y-99052976D02*
X188788152Y-99005357D01*
X188788152Y-99005357D02*
X189121485Y-99005357D01*
X189121485Y-99005357D02*
X189311961Y-99052976D01*
X189311961Y-99052976D02*
X189407200Y-99148214D01*
X189407200Y-99148214D02*
X189454819Y-99243452D01*
X189454819Y-99243452D02*
X189454819Y-99433928D01*
X188550057Y-98624404D02*
X188502438Y-98576785D01*
X188502438Y-98576785D02*
X188454819Y-98481547D01*
X188454819Y-98481547D02*
X188454819Y-98243452D01*
X188454819Y-98243452D02*
X188502438Y-98148214D01*
X188502438Y-98148214D02*
X188550057Y-98100595D01*
X188550057Y-98100595D02*
X188645295Y-98052976D01*
X188645295Y-98052976D02*
X188740533Y-98052976D01*
X188740533Y-98052976D02*
X188883390Y-98100595D01*
X188883390Y-98100595D02*
X189454819Y-98672023D01*
X189454819Y-98672023D02*
X189454819Y-98052976D01*
X209926667Y-70467200D02*
X210069524Y-70514819D01*
X210069524Y-70514819D02*
X210307619Y-70514819D01*
X210307619Y-70514819D02*
X210402857Y-70467200D01*
X210402857Y-70467200D02*
X210450476Y-70419580D01*
X210450476Y-70419580D02*
X210498095Y-70324342D01*
X210498095Y-70324342D02*
X210498095Y-70229104D01*
X210498095Y-70229104D02*
X210450476Y-70133866D01*
X210450476Y-70133866D02*
X210402857Y-70086247D01*
X210402857Y-70086247D02*
X210307619Y-70038628D01*
X210307619Y-70038628D02*
X210117143Y-69991009D01*
X210117143Y-69991009D02*
X210021905Y-69943390D01*
X210021905Y-69943390D02*
X209974286Y-69895771D01*
X209974286Y-69895771D02*
X209926667Y-69800533D01*
X209926667Y-69800533D02*
X209926667Y-69705295D01*
X209926667Y-69705295D02*
X209974286Y-69610057D01*
X209974286Y-69610057D02*
X210021905Y-69562438D01*
X210021905Y-69562438D02*
X210117143Y-69514819D01*
X210117143Y-69514819D02*
X210355238Y-69514819D01*
X210355238Y-69514819D02*
X210498095Y-69562438D01*
X210831429Y-69514819D02*
X211069524Y-70514819D01*
X211069524Y-70514819D02*
X211260000Y-69800533D01*
X211260000Y-69800533D02*
X211450476Y-70514819D01*
X211450476Y-70514819D02*
X211688572Y-69514819D01*
X212545714Y-69514819D02*
X212069524Y-69514819D01*
X212069524Y-69514819D02*
X212021905Y-69991009D01*
X212021905Y-69991009D02*
X212069524Y-69943390D01*
X212069524Y-69943390D02*
X212164762Y-69895771D01*
X212164762Y-69895771D02*
X212402857Y-69895771D01*
X212402857Y-69895771D02*
X212498095Y-69943390D01*
X212498095Y-69943390D02*
X212545714Y-69991009D01*
X212545714Y-69991009D02*
X212593333Y-70086247D01*
X212593333Y-70086247D02*
X212593333Y-70324342D01*
X212593333Y-70324342D02*
X212545714Y-70419580D01*
X212545714Y-70419580D02*
X212498095Y-70467200D01*
X212498095Y-70467200D02*
X212402857Y-70514819D01*
X212402857Y-70514819D02*
X212164762Y-70514819D01*
X212164762Y-70514819D02*
X212069524Y-70467200D01*
X212069524Y-70467200D02*
X212021905Y-70419580D01*
X198063095Y-84089819D02*
X198063095Y-84899342D01*
X198063095Y-84899342D02*
X198110714Y-84994580D01*
X198110714Y-84994580D02*
X198158333Y-85042200D01*
X198158333Y-85042200D02*
X198253571Y-85089819D01*
X198253571Y-85089819D02*
X198444047Y-85089819D01*
X198444047Y-85089819D02*
X198539285Y-85042200D01*
X198539285Y-85042200D02*
X198586904Y-84994580D01*
X198586904Y-84994580D02*
X198634523Y-84899342D01*
X198634523Y-84899342D02*
X198634523Y-84089819D01*
X199015476Y-84089819D02*
X199634523Y-84089819D01*
X199634523Y-84089819D02*
X199301190Y-84470771D01*
X199301190Y-84470771D02*
X199444047Y-84470771D01*
X199444047Y-84470771D02*
X199539285Y-84518390D01*
X199539285Y-84518390D02*
X199586904Y-84566009D01*
X199586904Y-84566009D02*
X199634523Y-84661247D01*
X199634523Y-84661247D02*
X199634523Y-84899342D01*
X199634523Y-84899342D02*
X199586904Y-84994580D01*
X199586904Y-84994580D02*
X199539285Y-85042200D01*
X199539285Y-85042200D02*
X199444047Y-85089819D01*
X199444047Y-85089819D02*
X199158333Y-85089819D01*
X199158333Y-85089819D02*
X199063095Y-85042200D01*
X199063095Y-85042200D02*
X199015476Y-84994580D01*
X190957142Y-96204819D02*
X190623809Y-95728628D01*
X190385714Y-96204819D02*
X190385714Y-95204819D01*
X190385714Y-95204819D02*
X190766666Y-95204819D01*
X190766666Y-95204819D02*
X190861904Y-95252438D01*
X190861904Y-95252438D02*
X190909523Y-95300057D01*
X190909523Y-95300057D02*
X190957142Y-95395295D01*
X190957142Y-95395295D02*
X190957142Y-95538152D01*
X190957142Y-95538152D02*
X190909523Y-95633390D01*
X190909523Y-95633390D02*
X190861904Y-95681009D01*
X190861904Y-95681009D02*
X190766666Y-95728628D01*
X190766666Y-95728628D02*
X190385714Y-95728628D01*
X191909523Y-96204819D02*
X191338095Y-96204819D01*
X191623809Y-96204819D02*
X191623809Y-95204819D01*
X191623809Y-95204819D02*
X191528571Y-95347676D01*
X191528571Y-95347676D02*
X191433333Y-95442914D01*
X191433333Y-95442914D02*
X191338095Y-95490533D01*
X192290476Y-95300057D02*
X192338095Y-95252438D01*
X192338095Y-95252438D02*
X192433333Y-95204819D01*
X192433333Y-95204819D02*
X192671428Y-95204819D01*
X192671428Y-95204819D02*
X192766666Y-95252438D01*
X192766666Y-95252438D02*
X192814285Y-95300057D01*
X192814285Y-95300057D02*
X192861904Y-95395295D01*
X192861904Y-95395295D02*
X192861904Y-95490533D01*
X192861904Y-95490533D02*
X192814285Y-95633390D01*
X192814285Y-95633390D02*
X192242857Y-96204819D01*
X192242857Y-96204819D02*
X192861904Y-96204819D01*
X191057200Y-113758332D02*
X191104819Y-113615475D01*
X191104819Y-113615475D02*
X191104819Y-113377380D01*
X191104819Y-113377380D02*
X191057200Y-113282142D01*
X191057200Y-113282142D02*
X191009580Y-113234523D01*
X191009580Y-113234523D02*
X190914342Y-113186904D01*
X190914342Y-113186904D02*
X190819104Y-113186904D01*
X190819104Y-113186904D02*
X190723866Y-113234523D01*
X190723866Y-113234523D02*
X190676247Y-113282142D01*
X190676247Y-113282142D02*
X190628628Y-113377380D01*
X190628628Y-113377380D02*
X190581009Y-113567856D01*
X190581009Y-113567856D02*
X190533390Y-113663094D01*
X190533390Y-113663094D02*
X190485771Y-113710713D01*
X190485771Y-113710713D02*
X190390533Y-113758332D01*
X190390533Y-113758332D02*
X190295295Y-113758332D01*
X190295295Y-113758332D02*
X190200057Y-113710713D01*
X190200057Y-113710713D02*
X190152438Y-113663094D01*
X190152438Y-113663094D02*
X190104819Y-113567856D01*
X190104819Y-113567856D02*
X190104819Y-113329761D01*
X190104819Y-113329761D02*
X190152438Y-113186904D01*
X190104819Y-112853570D02*
X191104819Y-112615475D01*
X191104819Y-112615475D02*
X190390533Y-112424999D01*
X190390533Y-112424999D02*
X191104819Y-112234523D01*
X191104819Y-112234523D02*
X190104819Y-111996428D01*
X190104819Y-111710713D02*
X190104819Y-111091666D01*
X190104819Y-111091666D02*
X190485771Y-111424999D01*
X190485771Y-111424999D02*
X190485771Y-111282142D01*
X190485771Y-111282142D02*
X190533390Y-111186904D01*
X190533390Y-111186904D02*
X190581009Y-111139285D01*
X190581009Y-111139285D02*
X190676247Y-111091666D01*
X190676247Y-111091666D02*
X190914342Y-111091666D01*
X190914342Y-111091666D02*
X191009580Y-111139285D01*
X191009580Y-111139285D02*
X191057200Y-111186904D01*
X191057200Y-111186904D02*
X191104819Y-111282142D01*
X191104819Y-111282142D02*
X191104819Y-111567856D01*
X191104819Y-111567856D02*
X191057200Y-111663094D01*
X191057200Y-111663094D02*
X191009580Y-111710713D01*
X193578095Y-98904819D02*
X193578095Y-99714342D01*
X193578095Y-99714342D02*
X193625714Y-99809580D01*
X193625714Y-99809580D02*
X193673333Y-99857200D01*
X193673333Y-99857200D02*
X193768571Y-99904819D01*
X193768571Y-99904819D02*
X193959047Y-99904819D01*
X193959047Y-99904819D02*
X194054285Y-99857200D01*
X194054285Y-99857200D02*
X194101904Y-99809580D01*
X194101904Y-99809580D02*
X194149523Y-99714342D01*
X194149523Y-99714342D02*
X194149523Y-98904819D01*
X194578095Y-99000057D02*
X194625714Y-98952438D01*
X194625714Y-98952438D02*
X194720952Y-98904819D01*
X194720952Y-98904819D02*
X194959047Y-98904819D01*
X194959047Y-98904819D02*
X195054285Y-98952438D01*
X195054285Y-98952438D02*
X195101904Y-99000057D01*
X195101904Y-99000057D02*
X195149523Y-99095295D01*
X195149523Y-99095295D02*
X195149523Y-99190533D01*
X195149523Y-99190533D02*
X195101904Y-99333390D01*
X195101904Y-99333390D02*
X194530476Y-99904819D01*
X194530476Y-99904819D02*
X195149523Y-99904819D01*
X179079819Y-103508333D02*
X179794104Y-103508333D01*
X179794104Y-103508333D02*
X179936961Y-103555952D01*
X179936961Y-103555952D02*
X180032200Y-103651190D01*
X180032200Y-103651190D02*
X180079819Y-103794047D01*
X180079819Y-103794047D02*
X180079819Y-103889285D01*
X180079819Y-103032142D02*
X179079819Y-103032142D01*
X179079819Y-103032142D02*
X179079819Y-102651190D01*
X179079819Y-102651190D02*
X179127438Y-102555952D01*
X179127438Y-102555952D02*
X179175057Y-102508333D01*
X179175057Y-102508333D02*
X179270295Y-102460714D01*
X179270295Y-102460714D02*
X179413152Y-102460714D01*
X179413152Y-102460714D02*
X179508390Y-102508333D01*
X179508390Y-102508333D02*
X179556009Y-102555952D01*
X179556009Y-102555952D02*
X179603628Y-102651190D01*
X179603628Y-102651190D02*
X179603628Y-103032142D01*
X180079819Y-101508333D02*
X180079819Y-102079761D01*
X180079819Y-101794047D02*
X179079819Y-101794047D01*
X179079819Y-101794047D02*
X179222676Y-101889285D01*
X179222676Y-101889285D02*
X179317914Y-101984523D01*
X179317914Y-101984523D02*
X179365533Y-102079761D01*
X175304819Y-94966666D02*
X174828628Y-95299999D01*
X175304819Y-95538094D02*
X174304819Y-95538094D01*
X174304819Y-95538094D02*
X174304819Y-95157142D01*
X174304819Y-95157142D02*
X174352438Y-95061904D01*
X174352438Y-95061904D02*
X174400057Y-95014285D01*
X174400057Y-95014285D02*
X174495295Y-94966666D01*
X174495295Y-94966666D02*
X174638152Y-94966666D01*
X174638152Y-94966666D02*
X174733390Y-95014285D01*
X174733390Y-95014285D02*
X174781009Y-95061904D01*
X174781009Y-95061904D02*
X174828628Y-95157142D01*
X174828628Y-95157142D02*
X174828628Y-95538094D01*
X175304819Y-94490475D02*
X175304819Y-94299999D01*
X175304819Y-94299999D02*
X175257200Y-94204761D01*
X175257200Y-94204761D02*
X175209580Y-94157142D01*
X175209580Y-94157142D02*
X175066723Y-94061904D01*
X175066723Y-94061904D02*
X174876247Y-94014285D01*
X174876247Y-94014285D02*
X174495295Y-94014285D01*
X174495295Y-94014285D02*
X174400057Y-94061904D01*
X174400057Y-94061904D02*
X174352438Y-94109523D01*
X174352438Y-94109523D02*
X174304819Y-94204761D01*
X174304819Y-94204761D02*
X174304819Y-94395237D01*
X174304819Y-94395237D02*
X174352438Y-94490475D01*
X174352438Y-94490475D02*
X174400057Y-94538094D01*
X174400057Y-94538094D02*
X174495295Y-94585713D01*
X174495295Y-94585713D02*
X174733390Y-94585713D01*
X174733390Y-94585713D02*
X174828628Y-94538094D01*
X174828628Y-94538094D02*
X174876247Y-94490475D01*
X174876247Y-94490475D02*
X174923866Y-94395237D01*
X174923866Y-94395237D02*
X174923866Y-94204761D01*
X174923866Y-94204761D02*
X174876247Y-94109523D01*
X174876247Y-94109523D02*
X174828628Y-94061904D01*
X174828628Y-94061904D02*
X174733390Y-94014285D01*
X174796666Y-95584819D02*
X174796666Y-96299104D01*
X174796666Y-96299104D02*
X174749047Y-96441961D01*
X174749047Y-96441961D02*
X174653809Y-96537200D01*
X174653809Y-96537200D02*
X174510952Y-96584819D01*
X174510952Y-96584819D02*
X174415714Y-96584819D01*
X175701428Y-95584819D02*
X175510952Y-95584819D01*
X175510952Y-95584819D02*
X175415714Y-95632438D01*
X175415714Y-95632438D02*
X175368095Y-95680057D01*
X175368095Y-95680057D02*
X175272857Y-95822914D01*
X175272857Y-95822914D02*
X175225238Y-96013390D01*
X175225238Y-96013390D02*
X175225238Y-96394342D01*
X175225238Y-96394342D02*
X175272857Y-96489580D01*
X175272857Y-96489580D02*
X175320476Y-96537200D01*
X175320476Y-96537200D02*
X175415714Y-96584819D01*
X175415714Y-96584819D02*
X175606190Y-96584819D01*
X175606190Y-96584819D02*
X175701428Y-96537200D01*
X175701428Y-96537200D02*
X175749047Y-96489580D01*
X175749047Y-96489580D02*
X175796666Y-96394342D01*
X175796666Y-96394342D02*
X175796666Y-96156247D01*
X175796666Y-96156247D02*
X175749047Y-96061009D01*
X175749047Y-96061009D02*
X175701428Y-96013390D01*
X175701428Y-96013390D02*
X175606190Y-95965771D01*
X175606190Y-95965771D02*
X175415714Y-95965771D01*
X175415714Y-95965771D02*
X175320476Y-96013390D01*
X175320476Y-96013390D02*
X175272857Y-96061009D01*
X175272857Y-96061009D02*
X175225238Y-96156247D01*
X192309580Y-90766666D02*
X192357200Y-90814285D01*
X192357200Y-90814285D02*
X192404819Y-90957142D01*
X192404819Y-90957142D02*
X192404819Y-91052380D01*
X192404819Y-91052380D02*
X192357200Y-91195237D01*
X192357200Y-91195237D02*
X192261961Y-91290475D01*
X192261961Y-91290475D02*
X192166723Y-91338094D01*
X192166723Y-91338094D02*
X191976247Y-91385713D01*
X191976247Y-91385713D02*
X191833390Y-91385713D01*
X191833390Y-91385713D02*
X191642914Y-91338094D01*
X191642914Y-91338094D02*
X191547676Y-91290475D01*
X191547676Y-91290475D02*
X191452438Y-91195237D01*
X191452438Y-91195237D02*
X191404819Y-91052380D01*
X191404819Y-91052380D02*
X191404819Y-90957142D01*
X191404819Y-90957142D02*
X191452438Y-90814285D01*
X191452438Y-90814285D02*
X191500057Y-90766666D01*
X192404819Y-89814285D02*
X192404819Y-90385713D01*
X192404819Y-90099999D02*
X191404819Y-90099999D01*
X191404819Y-90099999D02*
X191547676Y-90195237D01*
X191547676Y-90195237D02*
X191642914Y-90290475D01*
X191642914Y-90290475D02*
X191690533Y-90385713D01*
X192266666Y-119744819D02*
X192266666Y-120459104D01*
X192266666Y-120459104D02*
X192219047Y-120601961D01*
X192219047Y-120601961D02*
X192123809Y-120697200D01*
X192123809Y-120697200D02*
X191980952Y-120744819D01*
X191980952Y-120744819D02*
X191885714Y-120744819D01*
X192647619Y-119744819D02*
X193266666Y-119744819D01*
X193266666Y-119744819D02*
X192933333Y-120125771D01*
X192933333Y-120125771D02*
X193076190Y-120125771D01*
X193076190Y-120125771D02*
X193171428Y-120173390D01*
X193171428Y-120173390D02*
X193219047Y-120221009D01*
X193219047Y-120221009D02*
X193266666Y-120316247D01*
X193266666Y-120316247D02*
X193266666Y-120554342D01*
X193266666Y-120554342D02*
X193219047Y-120649580D01*
X193219047Y-120649580D02*
X193171428Y-120697200D01*
X193171428Y-120697200D02*
X193076190Y-120744819D01*
X193076190Y-120744819D02*
X192790476Y-120744819D01*
X192790476Y-120744819D02*
X192695238Y-120697200D01*
X192695238Y-120697200D02*
X192647619Y-120649580D01*
X195284580Y-124616666D02*
X195332200Y-124664285D01*
X195332200Y-124664285D02*
X195379819Y-124807142D01*
X195379819Y-124807142D02*
X195379819Y-124902380D01*
X195379819Y-124902380D02*
X195332200Y-125045237D01*
X195332200Y-125045237D02*
X195236961Y-125140475D01*
X195236961Y-125140475D02*
X195141723Y-125188094D01*
X195141723Y-125188094D02*
X194951247Y-125235713D01*
X194951247Y-125235713D02*
X194808390Y-125235713D01*
X194808390Y-125235713D02*
X194617914Y-125188094D01*
X194617914Y-125188094D02*
X194522676Y-125140475D01*
X194522676Y-125140475D02*
X194427438Y-125045237D01*
X194427438Y-125045237D02*
X194379819Y-124902380D01*
X194379819Y-124902380D02*
X194379819Y-124807142D01*
X194379819Y-124807142D02*
X194427438Y-124664285D01*
X194427438Y-124664285D02*
X194475057Y-124616666D01*
X194379819Y-123759523D02*
X194379819Y-123949999D01*
X194379819Y-123949999D02*
X194427438Y-124045237D01*
X194427438Y-124045237D02*
X194475057Y-124092856D01*
X194475057Y-124092856D02*
X194617914Y-124188094D01*
X194617914Y-124188094D02*
X194808390Y-124235713D01*
X194808390Y-124235713D02*
X195189342Y-124235713D01*
X195189342Y-124235713D02*
X195284580Y-124188094D01*
X195284580Y-124188094D02*
X195332200Y-124140475D01*
X195332200Y-124140475D02*
X195379819Y-124045237D01*
X195379819Y-124045237D02*
X195379819Y-123854761D01*
X195379819Y-123854761D02*
X195332200Y-123759523D01*
X195332200Y-123759523D02*
X195284580Y-123711904D01*
X195284580Y-123711904D02*
X195189342Y-123664285D01*
X195189342Y-123664285D02*
X194951247Y-123664285D01*
X194951247Y-123664285D02*
X194856009Y-123711904D01*
X194856009Y-123711904D02*
X194808390Y-123759523D01*
X194808390Y-123759523D02*
X194760771Y-123854761D01*
X194760771Y-123854761D02*
X194760771Y-124045237D01*
X194760771Y-124045237D02*
X194808390Y-124140475D01*
X194808390Y-124140475D02*
X194856009Y-124188094D01*
X194856009Y-124188094D02*
X194951247Y-124235713D01*
X198179819Y-125092857D02*
X197703628Y-125426190D01*
X198179819Y-125664285D02*
X197179819Y-125664285D01*
X197179819Y-125664285D02*
X197179819Y-125283333D01*
X197179819Y-125283333D02*
X197227438Y-125188095D01*
X197227438Y-125188095D02*
X197275057Y-125140476D01*
X197275057Y-125140476D02*
X197370295Y-125092857D01*
X197370295Y-125092857D02*
X197513152Y-125092857D01*
X197513152Y-125092857D02*
X197608390Y-125140476D01*
X197608390Y-125140476D02*
X197656009Y-125188095D01*
X197656009Y-125188095D02*
X197703628Y-125283333D01*
X197703628Y-125283333D02*
X197703628Y-125664285D01*
X198179819Y-124140476D02*
X198179819Y-124711904D01*
X198179819Y-124426190D02*
X197179819Y-124426190D01*
X197179819Y-124426190D02*
X197322676Y-124521428D01*
X197322676Y-124521428D02*
X197417914Y-124616666D01*
X197417914Y-124616666D02*
X197465533Y-124711904D01*
X197179819Y-123521428D02*
X197179819Y-123426190D01*
X197179819Y-123426190D02*
X197227438Y-123330952D01*
X197227438Y-123330952D02*
X197275057Y-123283333D01*
X197275057Y-123283333D02*
X197370295Y-123235714D01*
X197370295Y-123235714D02*
X197560771Y-123188095D01*
X197560771Y-123188095D02*
X197798866Y-123188095D01*
X197798866Y-123188095D02*
X197989342Y-123235714D01*
X197989342Y-123235714D02*
X198084580Y-123283333D01*
X198084580Y-123283333D02*
X198132200Y-123330952D01*
X198132200Y-123330952D02*
X198179819Y-123426190D01*
X198179819Y-123426190D02*
X198179819Y-123521428D01*
X198179819Y-123521428D02*
X198132200Y-123616666D01*
X198132200Y-123616666D02*
X198084580Y-123664285D01*
X198084580Y-123664285D02*
X197989342Y-123711904D01*
X197989342Y-123711904D02*
X197798866Y-123759523D01*
X197798866Y-123759523D02*
X197560771Y-123759523D01*
X197560771Y-123759523D02*
X197370295Y-123711904D01*
X197370295Y-123711904D02*
X197275057Y-123664285D01*
X197275057Y-123664285D02*
X197227438Y-123616666D01*
X197227438Y-123616666D02*
X197179819Y-123521428D01*
X200230279Y-80419065D02*
X200230279Y-81056486D01*
X200230279Y-81056486D02*
X200267775Y-81131476D01*
X200267775Y-81131476D02*
X200305270Y-81168972D01*
X200305270Y-81168972D02*
X200380261Y-81206467D01*
X200380261Y-81206467D02*
X200530242Y-81206467D01*
X200530242Y-81206467D02*
X200605233Y-81168972D01*
X200605233Y-81168972D02*
X200642728Y-81131476D01*
X200642728Y-81131476D02*
X200680223Y-81056486D01*
X200680223Y-81056486D02*
X200680223Y-80419065D01*
X201017681Y-81168972D02*
X201130167Y-81206467D01*
X201130167Y-81206467D02*
X201317644Y-81206467D01*
X201317644Y-81206467D02*
X201392634Y-81168972D01*
X201392634Y-81168972D02*
X201430130Y-81131476D01*
X201430130Y-81131476D02*
X201467625Y-81056486D01*
X201467625Y-81056486D02*
X201467625Y-80981495D01*
X201467625Y-80981495D02*
X201430130Y-80906504D01*
X201430130Y-80906504D02*
X201392634Y-80869009D01*
X201392634Y-80869009D02*
X201317644Y-80831514D01*
X201317644Y-80831514D02*
X201167662Y-80794018D01*
X201167662Y-80794018D02*
X201092672Y-80756523D01*
X201092672Y-80756523D02*
X201055176Y-80719028D01*
X201055176Y-80719028D02*
X201017681Y-80644037D01*
X201017681Y-80644037D02*
X201017681Y-80569046D01*
X201017681Y-80569046D02*
X201055176Y-80494056D01*
X201055176Y-80494056D02*
X201092672Y-80456560D01*
X201092672Y-80456560D02*
X201167662Y-80419065D01*
X201167662Y-80419065D02*
X201355139Y-80419065D01*
X201355139Y-80419065D02*
X201467625Y-80456560D01*
X202067551Y-80794018D02*
X202180037Y-80831514D01*
X202180037Y-80831514D02*
X202217532Y-80869009D01*
X202217532Y-80869009D02*
X202255027Y-80944000D01*
X202255027Y-80944000D02*
X202255027Y-81056486D01*
X202255027Y-81056486D02*
X202217532Y-81131476D01*
X202217532Y-81131476D02*
X202180037Y-81168972D01*
X202180037Y-81168972D02*
X202105046Y-81206467D01*
X202105046Y-81206467D02*
X201805083Y-81206467D01*
X201805083Y-81206467D02*
X201805083Y-80419065D01*
X201805083Y-80419065D02*
X202067551Y-80419065D01*
X202067551Y-80419065D02*
X202142541Y-80456560D01*
X202142541Y-80456560D02*
X202180037Y-80494056D01*
X202180037Y-80494056D02*
X202217532Y-80569046D01*
X202217532Y-80569046D02*
X202217532Y-80644037D01*
X202217532Y-80644037D02*
X202180037Y-80719028D01*
X202180037Y-80719028D02*
X202142541Y-80756523D01*
X202142541Y-80756523D02*
X202067551Y-80794018D01*
X202067551Y-80794018D02*
X201805083Y-80794018D01*
X202592485Y-80906504D02*
X203192411Y-80906504D01*
X204017308Y-81131476D02*
X203979813Y-81168972D01*
X203979813Y-81168972D02*
X203867327Y-81206467D01*
X203867327Y-81206467D02*
X203792336Y-81206467D01*
X203792336Y-81206467D02*
X203679850Y-81168972D01*
X203679850Y-81168972D02*
X203604860Y-81093981D01*
X203604860Y-81093981D02*
X203567364Y-81018990D01*
X203567364Y-81018990D02*
X203529869Y-80869009D01*
X203529869Y-80869009D02*
X203529869Y-80756523D01*
X203529869Y-80756523D02*
X203567364Y-80606542D01*
X203567364Y-80606542D02*
X203604860Y-80531551D01*
X203604860Y-80531551D02*
X203679850Y-80456560D01*
X203679850Y-80456560D02*
X203792336Y-80419065D01*
X203792336Y-80419065D02*
X203867327Y-80419065D01*
X203867327Y-80419065D02*
X203979813Y-80456560D01*
X203979813Y-80456560D02*
X204017308Y-80494056D01*
X204767215Y-81206467D02*
X204317271Y-81206467D01*
X204542243Y-81206467D02*
X204542243Y-80419065D01*
X204542243Y-80419065D02*
X204467252Y-80531551D01*
X204467252Y-80531551D02*
X204392262Y-80606542D01*
X204392262Y-80606542D02*
X204317271Y-80644037D01*
X182491667Y-88757200D02*
X182634524Y-88804819D01*
X182634524Y-88804819D02*
X182872619Y-88804819D01*
X182872619Y-88804819D02*
X182967857Y-88757200D01*
X182967857Y-88757200D02*
X183015476Y-88709580D01*
X183015476Y-88709580D02*
X183063095Y-88614342D01*
X183063095Y-88614342D02*
X183063095Y-88519104D01*
X183063095Y-88519104D02*
X183015476Y-88423866D01*
X183015476Y-88423866D02*
X182967857Y-88376247D01*
X182967857Y-88376247D02*
X182872619Y-88328628D01*
X182872619Y-88328628D02*
X182682143Y-88281009D01*
X182682143Y-88281009D02*
X182586905Y-88233390D01*
X182586905Y-88233390D02*
X182539286Y-88185771D01*
X182539286Y-88185771D02*
X182491667Y-88090533D01*
X182491667Y-88090533D02*
X182491667Y-87995295D01*
X182491667Y-87995295D02*
X182539286Y-87900057D01*
X182539286Y-87900057D02*
X182586905Y-87852438D01*
X182586905Y-87852438D02*
X182682143Y-87804819D01*
X182682143Y-87804819D02*
X182920238Y-87804819D01*
X182920238Y-87804819D02*
X183063095Y-87852438D01*
X183396429Y-87804819D02*
X183634524Y-88804819D01*
X183634524Y-88804819D02*
X183825000Y-88090533D01*
X183825000Y-88090533D02*
X184015476Y-88804819D01*
X184015476Y-88804819D02*
X184253572Y-87804819D01*
X185158333Y-88804819D02*
X184586905Y-88804819D01*
X184872619Y-88804819D02*
X184872619Y-87804819D01*
X184872619Y-87804819D02*
X184777381Y-87947676D01*
X184777381Y-87947676D02*
X184682143Y-88042914D01*
X184682143Y-88042914D02*
X184586905Y-88090533D01*
X202584819Y-87058094D02*
X201584819Y-87058094D01*
X201584819Y-87058094D02*
X201584819Y-86819999D01*
X201584819Y-86819999D02*
X201632438Y-86677142D01*
X201632438Y-86677142D02*
X201727676Y-86581904D01*
X201727676Y-86581904D02*
X201822914Y-86534285D01*
X201822914Y-86534285D02*
X202013390Y-86486666D01*
X202013390Y-86486666D02*
X202156247Y-86486666D01*
X202156247Y-86486666D02*
X202346723Y-86534285D01*
X202346723Y-86534285D02*
X202441961Y-86581904D01*
X202441961Y-86581904D02*
X202537200Y-86677142D01*
X202537200Y-86677142D02*
X202584819Y-86819999D01*
X202584819Y-86819999D02*
X202584819Y-87058094D01*
X202584819Y-85534285D02*
X202584819Y-86105713D01*
X202584819Y-85819999D02*
X201584819Y-85819999D01*
X201584819Y-85819999D02*
X201727676Y-85915237D01*
X201727676Y-85915237D02*
X201822914Y-86010475D01*
X201822914Y-86010475D02*
X201870533Y-86105713D01*
X202954819Y-91661904D02*
X201954819Y-91661904D01*
X202954819Y-91090476D02*
X202383390Y-91519047D01*
X201954819Y-91090476D02*
X202526247Y-91661904D01*
X186033333Y-101604819D02*
X185700000Y-101128628D01*
X185461905Y-101604819D02*
X185461905Y-100604819D01*
X185461905Y-100604819D02*
X185842857Y-100604819D01*
X185842857Y-100604819D02*
X185938095Y-100652438D01*
X185938095Y-100652438D02*
X185985714Y-100700057D01*
X185985714Y-100700057D02*
X186033333Y-100795295D01*
X186033333Y-100795295D02*
X186033333Y-100938152D01*
X186033333Y-100938152D02*
X185985714Y-101033390D01*
X185985714Y-101033390D02*
X185938095Y-101081009D01*
X185938095Y-101081009D02*
X185842857Y-101128628D01*
X185842857Y-101128628D02*
X185461905Y-101128628D01*
X186890476Y-100604819D02*
X186700000Y-100604819D01*
X186700000Y-100604819D02*
X186604762Y-100652438D01*
X186604762Y-100652438D02*
X186557143Y-100700057D01*
X186557143Y-100700057D02*
X186461905Y-100842914D01*
X186461905Y-100842914D02*
X186414286Y-101033390D01*
X186414286Y-101033390D02*
X186414286Y-101414342D01*
X186414286Y-101414342D02*
X186461905Y-101509580D01*
X186461905Y-101509580D02*
X186509524Y-101557200D01*
X186509524Y-101557200D02*
X186604762Y-101604819D01*
X186604762Y-101604819D02*
X186795238Y-101604819D01*
X186795238Y-101604819D02*
X186890476Y-101557200D01*
X186890476Y-101557200D02*
X186938095Y-101509580D01*
X186938095Y-101509580D02*
X186985714Y-101414342D01*
X186985714Y-101414342D02*
X186985714Y-101176247D01*
X186985714Y-101176247D02*
X186938095Y-101081009D01*
X186938095Y-101081009D02*
X186890476Y-101033390D01*
X186890476Y-101033390D02*
X186795238Y-100985771D01*
X186795238Y-100985771D02*
X186604762Y-100985771D01*
X186604762Y-100985771D02*
X186509524Y-101033390D01*
X186509524Y-101033390D02*
X186461905Y-101081009D01*
X186461905Y-101081009D02*
X186414286Y-101176247D01*
X176004819Y-123566666D02*
X175528628Y-123899999D01*
X176004819Y-124138094D02*
X175004819Y-124138094D01*
X175004819Y-124138094D02*
X175004819Y-123757142D01*
X175004819Y-123757142D02*
X175052438Y-123661904D01*
X175052438Y-123661904D02*
X175100057Y-123614285D01*
X175100057Y-123614285D02*
X175195295Y-123566666D01*
X175195295Y-123566666D02*
X175338152Y-123566666D01*
X175338152Y-123566666D02*
X175433390Y-123614285D01*
X175433390Y-123614285D02*
X175481009Y-123661904D01*
X175481009Y-123661904D02*
X175528628Y-123757142D01*
X175528628Y-123757142D02*
X175528628Y-124138094D01*
X175433390Y-122995237D02*
X175385771Y-123090475D01*
X175385771Y-123090475D02*
X175338152Y-123138094D01*
X175338152Y-123138094D02*
X175242914Y-123185713D01*
X175242914Y-123185713D02*
X175195295Y-123185713D01*
X175195295Y-123185713D02*
X175100057Y-123138094D01*
X175100057Y-123138094D02*
X175052438Y-123090475D01*
X175052438Y-123090475D02*
X175004819Y-122995237D01*
X175004819Y-122995237D02*
X175004819Y-122804761D01*
X175004819Y-122804761D02*
X175052438Y-122709523D01*
X175052438Y-122709523D02*
X175100057Y-122661904D01*
X175100057Y-122661904D02*
X175195295Y-122614285D01*
X175195295Y-122614285D02*
X175242914Y-122614285D01*
X175242914Y-122614285D02*
X175338152Y-122661904D01*
X175338152Y-122661904D02*
X175385771Y-122709523D01*
X175385771Y-122709523D02*
X175433390Y-122804761D01*
X175433390Y-122804761D02*
X175433390Y-122995237D01*
X175433390Y-122995237D02*
X175481009Y-123090475D01*
X175481009Y-123090475D02*
X175528628Y-123138094D01*
X175528628Y-123138094D02*
X175623866Y-123185713D01*
X175623866Y-123185713D02*
X175814342Y-123185713D01*
X175814342Y-123185713D02*
X175909580Y-123138094D01*
X175909580Y-123138094D02*
X175957200Y-123090475D01*
X175957200Y-123090475D02*
X176004819Y-122995237D01*
X176004819Y-122995237D02*
X176004819Y-122804761D01*
X176004819Y-122804761D02*
X175957200Y-122709523D01*
X175957200Y-122709523D02*
X175909580Y-122661904D01*
X175909580Y-122661904D02*
X175814342Y-122614285D01*
X175814342Y-122614285D02*
X175623866Y-122614285D01*
X175623866Y-122614285D02*
X175528628Y-122661904D01*
X175528628Y-122661904D02*
X175481009Y-122709523D01*
X175481009Y-122709523D02*
X175433390Y-122804761D01*
X198967261Y-93550057D02*
X198872023Y-93502438D01*
X198872023Y-93502438D02*
X198776785Y-93407200D01*
X198776785Y-93407200D02*
X198633928Y-93264342D01*
X198633928Y-93264342D02*
X198538690Y-93216723D01*
X198538690Y-93216723D02*
X198443452Y-93216723D01*
X198491071Y-93454819D02*
X198395833Y-93407200D01*
X198395833Y-93407200D02*
X198300595Y-93311961D01*
X198300595Y-93311961D02*
X198252976Y-93121485D01*
X198252976Y-93121485D02*
X198252976Y-92788152D01*
X198252976Y-92788152D02*
X198300595Y-92597676D01*
X198300595Y-92597676D02*
X198395833Y-92502438D01*
X198395833Y-92502438D02*
X198491071Y-92454819D01*
X198491071Y-92454819D02*
X198681547Y-92454819D01*
X198681547Y-92454819D02*
X198776785Y-92502438D01*
X198776785Y-92502438D02*
X198872023Y-92597676D01*
X198872023Y-92597676D02*
X198919642Y-92788152D01*
X198919642Y-92788152D02*
X198919642Y-93121485D01*
X198919642Y-93121485D02*
X198872023Y-93311961D01*
X198872023Y-93311961D02*
X198776785Y-93407200D01*
X198776785Y-93407200D02*
X198681547Y-93454819D01*
X198681547Y-93454819D02*
X198491071Y-93454819D01*
X199872023Y-93454819D02*
X199300595Y-93454819D01*
X199586309Y-93454819D02*
X199586309Y-92454819D01*
X199586309Y-92454819D02*
X199491071Y-92597676D01*
X199491071Y-92597676D02*
X199395833Y-92692914D01*
X199395833Y-92692914D02*
X199300595Y-92740533D01*
X180204819Y-129766666D02*
X179728628Y-130099999D01*
X180204819Y-130338094D02*
X179204819Y-130338094D01*
X179204819Y-130338094D02*
X179204819Y-129957142D01*
X179204819Y-129957142D02*
X179252438Y-129861904D01*
X179252438Y-129861904D02*
X179300057Y-129814285D01*
X179300057Y-129814285D02*
X179395295Y-129766666D01*
X179395295Y-129766666D02*
X179538152Y-129766666D01*
X179538152Y-129766666D02*
X179633390Y-129814285D01*
X179633390Y-129814285D02*
X179681009Y-129861904D01*
X179681009Y-129861904D02*
X179728628Y-129957142D01*
X179728628Y-129957142D02*
X179728628Y-130338094D01*
X179204819Y-128861904D02*
X179204819Y-129338094D01*
X179204819Y-129338094D02*
X179681009Y-129385713D01*
X179681009Y-129385713D02*
X179633390Y-129338094D01*
X179633390Y-129338094D02*
X179585771Y-129242856D01*
X179585771Y-129242856D02*
X179585771Y-129004761D01*
X179585771Y-129004761D02*
X179633390Y-128909523D01*
X179633390Y-128909523D02*
X179681009Y-128861904D01*
X179681009Y-128861904D02*
X179776247Y-128814285D01*
X179776247Y-128814285D02*
X180014342Y-128814285D01*
X180014342Y-128814285D02*
X180109580Y-128861904D01*
X180109580Y-128861904D02*
X180157200Y-128909523D01*
X180157200Y-128909523D02*
X180204819Y-129004761D01*
X180204819Y-129004761D02*
X180204819Y-129242856D01*
X180204819Y-129242856D02*
X180157200Y-129338094D01*
X180157200Y-129338094D02*
X180109580Y-129385713D01*
X203357142Y-93804819D02*
X203023809Y-93328628D01*
X202785714Y-93804819D02*
X202785714Y-92804819D01*
X202785714Y-92804819D02*
X203166666Y-92804819D01*
X203166666Y-92804819D02*
X203261904Y-92852438D01*
X203261904Y-92852438D02*
X203309523Y-92900057D01*
X203309523Y-92900057D02*
X203357142Y-92995295D01*
X203357142Y-92995295D02*
X203357142Y-93138152D01*
X203357142Y-93138152D02*
X203309523Y-93233390D01*
X203309523Y-93233390D02*
X203261904Y-93281009D01*
X203261904Y-93281009D02*
X203166666Y-93328628D01*
X203166666Y-93328628D02*
X202785714Y-93328628D01*
X204309523Y-93804819D02*
X203738095Y-93804819D01*
X204023809Y-93804819D02*
X204023809Y-92804819D01*
X204023809Y-92804819D02*
X203928571Y-92947676D01*
X203928571Y-92947676D02*
X203833333Y-93042914D01*
X203833333Y-93042914D02*
X203738095Y-93090533D01*
X205166666Y-93138152D02*
X205166666Y-93804819D01*
X204928571Y-92757200D02*
X204690476Y-93471485D01*
X204690476Y-93471485D02*
X205309523Y-93471485D01*
X210409580Y-95966666D02*
X210457200Y-96014285D01*
X210457200Y-96014285D02*
X210504819Y-96157142D01*
X210504819Y-96157142D02*
X210504819Y-96252380D01*
X210504819Y-96252380D02*
X210457200Y-96395237D01*
X210457200Y-96395237D02*
X210361961Y-96490475D01*
X210361961Y-96490475D02*
X210266723Y-96538094D01*
X210266723Y-96538094D02*
X210076247Y-96585713D01*
X210076247Y-96585713D02*
X209933390Y-96585713D01*
X209933390Y-96585713D02*
X209742914Y-96538094D01*
X209742914Y-96538094D02*
X209647676Y-96490475D01*
X209647676Y-96490475D02*
X209552438Y-96395237D01*
X209552438Y-96395237D02*
X209504819Y-96252380D01*
X209504819Y-96252380D02*
X209504819Y-96157142D01*
X209504819Y-96157142D02*
X209552438Y-96014285D01*
X209552438Y-96014285D02*
X209600057Y-95966666D01*
X209504819Y-95061904D02*
X209504819Y-95538094D01*
X209504819Y-95538094D02*
X209981009Y-95585713D01*
X209981009Y-95585713D02*
X209933390Y-95538094D01*
X209933390Y-95538094D02*
X209885771Y-95442856D01*
X209885771Y-95442856D02*
X209885771Y-95204761D01*
X209885771Y-95204761D02*
X209933390Y-95109523D01*
X209933390Y-95109523D02*
X209981009Y-95061904D01*
X209981009Y-95061904D02*
X210076247Y-95014285D01*
X210076247Y-95014285D02*
X210314342Y-95014285D01*
X210314342Y-95014285D02*
X210409580Y-95061904D01*
X210409580Y-95061904D02*
X210457200Y-95109523D01*
X210457200Y-95109523D02*
X210504819Y-95204761D01*
X210504819Y-95204761D02*
X210504819Y-95442856D01*
X210504819Y-95442856D02*
X210457200Y-95538094D01*
X210457200Y-95538094D02*
X210409580Y-95585713D01*
X190957142Y-93604819D02*
X190623809Y-93128628D01*
X190385714Y-93604819D02*
X190385714Y-92604819D01*
X190385714Y-92604819D02*
X190766666Y-92604819D01*
X190766666Y-92604819D02*
X190861904Y-92652438D01*
X190861904Y-92652438D02*
X190909523Y-92700057D01*
X190909523Y-92700057D02*
X190957142Y-92795295D01*
X190957142Y-92795295D02*
X190957142Y-92938152D01*
X190957142Y-92938152D02*
X190909523Y-93033390D01*
X190909523Y-93033390D02*
X190861904Y-93081009D01*
X190861904Y-93081009D02*
X190766666Y-93128628D01*
X190766666Y-93128628D02*
X190385714Y-93128628D01*
X191909523Y-93604819D02*
X191338095Y-93604819D01*
X191623809Y-93604819D02*
X191623809Y-92604819D01*
X191623809Y-92604819D02*
X191528571Y-92747676D01*
X191528571Y-92747676D02*
X191433333Y-92842914D01*
X191433333Y-92842914D02*
X191338095Y-92890533D01*
X192814285Y-92604819D02*
X192338095Y-92604819D01*
X192338095Y-92604819D02*
X192290476Y-93081009D01*
X192290476Y-93081009D02*
X192338095Y-93033390D01*
X192338095Y-93033390D02*
X192433333Y-92985771D01*
X192433333Y-92985771D02*
X192671428Y-92985771D01*
X192671428Y-92985771D02*
X192766666Y-93033390D01*
X192766666Y-93033390D02*
X192814285Y-93081009D01*
X192814285Y-93081009D02*
X192861904Y-93176247D01*
X192861904Y-93176247D02*
X192861904Y-93414342D01*
X192861904Y-93414342D02*
X192814285Y-93509580D01*
X192814285Y-93509580D02*
X192766666Y-93557200D01*
X192766666Y-93557200D02*
X192671428Y-93604819D01*
X192671428Y-93604819D02*
X192433333Y-93604819D01*
X192433333Y-93604819D02*
X192338095Y-93557200D01*
X192338095Y-93557200D02*
X192290476Y-93509580D01*
X194633333Y-86759580D02*
X194585714Y-86807200D01*
X194585714Y-86807200D02*
X194442857Y-86854819D01*
X194442857Y-86854819D02*
X194347619Y-86854819D01*
X194347619Y-86854819D02*
X194204762Y-86807200D01*
X194204762Y-86807200D02*
X194109524Y-86711961D01*
X194109524Y-86711961D02*
X194061905Y-86616723D01*
X194061905Y-86616723D02*
X194014286Y-86426247D01*
X194014286Y-86426247D02*
X194014286Y-86283390D01*
X194014286Y-86283390D02*
X194061905Y-86092914D01*
X194061905Y-86092914D02*
X194109524Y-85997676D01*
X194109524Y-85997676D02*
X194204762Y-85902438D01*
X194204762Y-85902438D02*
X194347619Y-85854819D01*
X194347619Y-85854819D02*
X194442857Y-85854819D01*
X194442857Y-85854819D02*
X194585714Y-85902438D01*
X194585714Y-85902438D02*
X194633333Y-85950057D01*
X195490476Y-86188152D02*
X195490476Y-86854819D01*
X195252381Y-85807200D02*
X195014286Y-86521485D01*
X195014286Y-86521485D02*
X195633333Y-86521485D01*
X196664819Y-132533333D02*
X197379104Y-132533333D01*
X197379104Y-132533333D02*
X197521961Y-132580952D01*
X197521961Y-132580952D02*
X197617200Y-132676190D01*
X197617200Y-132676190D02*
X197664819Y-132819047D01*
X197664819Y-132819047D02*
X197664819Y-132914285D01*
X196760057Y-132104761D02*
X196712438Y-132057142D01*
X196712438Y-132057142D02*
X196664819Y-131961904D01*
X196664819Y-131961904D02*
X196664819Y-131723809D01*
X196664819Y-131723809D02*
X196712438Y-131628571D01*
X196712438Y-131628571D02*
X196760057Y-131580952D01*
X196760057Y-131580952D02*
X196855295Y-131533333D01*
X196855295Y-131533333D02*
X196950533Y-131533333D01*
X196950533Y-131533333D02*
X197093390Y-131580952D01*
X197093390Y-131580952D02*
X197664819Y-132152380D01*
X197664819Y-132152380D02*
X197664819Y-131533333D01*
X169433333Y-107804819D02*
X169100000Y-107328628D01*
X168861905Y-107804819D02*
X168861905Y-106804819D01*
X168861905Y-106804819D02*
X169242857Y-106804819D01*
X169242857Y-106804819D02*
X169338095Y-106852438D01*
X169338095Y-106852438D02*
X169385714Y-106900057D01*
X169385714Y-106900057D02*
X169433333Y-106995295D01*
X169433333Y-106995295D02*
X169433333Y-107138152D01*
X169433333Y-107138152D02*
X169385714Y-107233390D01*
X169385714Y-107233390D02*
X169338095Y-107281009D01*
X169338095Y-107281009D02*
X169242857Y-107328628D01*
X169242857Y-107328628D02*
X168861905Y-107328628D01*
X169766667Y-106804819D02*
X170433333Y-106804819D01*
X170433333Y-106804819D02*
X170004762Y-107804819D01*
X185691666Y-125434819D02*
X185691666Y-126149104D01*
X185691666Y-126149104D02*
X185644047Y-126291961D01*
X185644047Y-126291961D02*
X185548809Y-126387200D01*
X185548809Y-126387200D02*
X185405952Y-126434819D01*
X185405952Y-126434819D02*
X185310714Y-126434819D01*
X186644047Y-125434819D02*
X186167857Y-125434819D01*
X186167857Y-125434819D02*
X186120238Y-125911009D01*
X186120238Y-125911009D02*
X186167857Y-125863390D01*
X186167857Y-125863390D02*
X186263095Y-125815771D01*
X186263095Y-125815771D02*
X186501190Y-125815771D01*
X186501190Y-125815771D02*
X186596428Y-125863390D01*
X186596428Y-125863390D02*
X186644047Y-125911009D01*
X186644047Y-125911009D02*
X186691666Y-126006247D01*
X186691666Y-126006247D02*
X186691666Y-126244342D01*
X186691666Y-126244342D02*
X186644047Y-126339580D01*
X186644047Y-126339580D02*
X186596428Y-126387200D01*
X186596428Y-126387200D02*
X186501190Y-126434819D01*
X186501190Y-126434819D02*
X186263095Y-126434819D01*
X186263095Y-126434819D02*
X186167857Y-126387200D01*
X186167857Y-126387200D02*
X186120238Y-126339580D01*
X197704819Y-96842857D02*
X197228628Y-97176190D01*
X197704819Y-97414285D02*
X196704819Y-97414285D01*
X196704819Y-97414285D02*
X196704819Y-97033333D01*
X196704819Y-97033333D02*
X196752438Y-96938095D01*
X196752438Y-96938095D02*
X196800057Y-96890476D01*
X196800057Y-96890476D02*
X196895295Y-96842857D01*
X196895295Y-96842857D02*
X197038152Y-96842857D01*
X197038152Y-96842857D02*
X197133390Y-96890476D01*
X197133390Y-96890476D02*
X197181009Y-96938095D01*
X197181009Y-96938095D02*
X197228628Y-97033333D01*
X197228628Y-97033333D02*
X197228628Y-97414285D01*
X197704819Y-95890476D02*
X197704819Y-96461904D01*
X197704819Y-96176190D02*
X196704819Y-96176190D01*
X196704819Y-96176190D02*
X196847676Y-96271428D01*
X196847676Y-96271428D02*
X196942914Y-96366666D01*
X196942914Y-96366666D02*
X196990533Y-96461904D01*
X197704819Y-94938095D02*
X197704819Y-95509523D01*
X197704819Y-95223809D02*
X196704819Y-95223809D01*
X196704819Y-95223809D02*
X196847676Y-95319047D01*
X196847676Y-95319047D02*
X196942914Y-95414285D01*
X196942914Y-95414285D02*
X196990533Y-95509523D01*
X193633333Y-79004819D02*
X193300000Y-78528628D01*
X193061905Y-79004819D02*
X193061905Y-78004819D01*
X193061905Y-78004819D02*
X193442857Y-78004819D01*
X193442857Y-78004819D02*
X193538095Y-78052438D01*
X193538095Y-78052438D02*
X193585714Y-78100057D01*
X193585714Y-78100057D02*
X193633333Y-78195295D01*
X193633333Y-78195295D02*
X193633333Y-78338152D01*
X193633333Y-78338152D02*
X193585714Y-78433390D01*
X193585714Y-78433390D02*
X193538095Y-78481009D01*
X193538095Y-78481009D02*
X193442857Y-78528628D01*
X193442857Y-78528628D02*
X193061905Y-78528628D01*
X194585714Y-79004819D02*
X194014286Y-79004819D01*
X194300000Y-79004819D02*
X194300000Y-78004819D01*
X194300000Y-78004819D02*
X194204762Y-78147676D01*
X194204762Y-78147676D02*
X194109524Y-78242914D01*
X194109524Y-78242914D02*
X194014286Y-78290533D01*
X199709580Y-90766666D02*
X199757200Y-90814285D01*
X199757200Y-90814285D02*
X199804819Y-90957142D01*
X199804819Y-90957142D02*
X199804819Y-91052380D01*
X199804819Y-91052380D02*
X199757200Y-91195237D01*
X199757200Y-91195237D02*
X199661961Y-91290475D01*
X199661961Y-91290475D02*
X199566723Y-91338094D01*
X199566723Y-91338094D02*
X199376247Y-91385713D01*
X199376247Y-91385713D02*
X199233390Y-91385713D01*
X199233390Y-91385713D02*
X199042914Y-91338094D01*
X199042914Y-91338094D02*
X198947676Y-91290475D01*
X198947676Y-91290475D02*
X198852438Y-91195237D01*
X198852438Y-91195237D02*
X198804819Y-91052380D01*
X198804819Y-91052380D02*
X198804819Y-90957142D01*
X198804819Y-90957142D02*
X198852438Y-90814285D01*
X198852438Y-90814285D02*
X198900057Y-90766666D01*
X198900057Y-90385713D02*
X198852438Y-90338094D01*
X198852438Y-90338094D02*
X198804819Y-90242856D01*
X198804819Y-90242856D02*
X198804819Y-90004761D01*
X198804819Y-90004761D02*
X198852438Y-89909523D01*
X198852438Y-89909523D02*
X198900057Y-89861904D01*
X198900057Y-89861904D02*
X198995295Y-89814285D01*
X198995295Y-89814285D02*
X199090533Y-89814285D01*
X199090533Y-89814285D02*
X199233390Y-89861904D01*
X199233390Y-89861904D02*
X199804819Y-90433332D01*
X199804819Y-90433332D02*
X199804819Y-89814285D01*
X188526667Y-70467200D02*
X188669524Y-70514819D01*
X188669524Y-70514819D02*
X188907619Y-70514819D01*
X188907619Y-70514819D02*
X189002857Y-70467200D01*
X189002857Y-70467200D02*
X189050476Y-70419580D01*
X189050476Y-70419580D02*
X189098095Y-70324342D01*
X189098095Y-70324342D02*
X189098095Y-70229104D01*
X189098095Y-70229104D02*
X189050476Y-70133866D01*
X189050476Y-70133866D02*
X189002857Y-70086247D01*
X189002857Y-70086247D02*
X188907619Y-70038628D01*
X188907619Y-70038628D02*
X188717143Y-69991009D01*
X188717143Y-69991009D02*
X188621905Y-69943390D01*
X188621905Y-69943390D02*
X188574286Y-69895771D01*
X188574286Y-69895771D02*
X188526667Y-69800533D01*
X188526667Y-69800533D02*
X188526667Y-69705295D01*
X188526667Y-69705295D02*
X188574286Y-69610057D01*
X188574286Y-69610057D02*
X188621905Y-69562438D01*
X188621905Y-69562438D02*
X188717143Y-69514819D01*
X188717143Y-69514819D02*
X188955238Y-69514819D01*
X188955238Y-69514819D02*
X189098095Y-69562438D01*
X189431429Y-69514819D02*
X189669524Y-70514819D01*
X189669524Y-70514819D02*
X189860000Y-69800533D01*
X189860000Y-69800533D02*
X190050476Y-70514819D01*
X190050476Y-70514819D02*
X190288572Y-69514819D01*
X191098095Y-69848152D02*
X191098095Y-70514819D01*
X190860000Y-69467200D02*
X190621905Y-70181485D01*
X190621905Y-70181485D02*
X191240952Y-70181485D01*
X189234819Y-132708333D02*
X189949104Y-132708333D01*
X189949104Y-132708333D02*
X190091961Y-132755952D01*
X190091961Y-132755952D02*
X190187200Y-132851190D01*
X190187200Y-132851190D02*
X190234819Y-132994047D01*
X190234819Y-132994047D02*
X190234819Y-133089285D01*
X189568152Y-131803571D02*
X190234819Y-131803571D01*
X189187200Y-132041666D02*
X189901485Y-132279761D01*
X189901485Y-132279761D02*
X189901485Y-131660714D01*
X193304819Y-87166666D02*
X192828628Y-87499999D01*
X193304819Y-87738094D02*
X192304819Y-87738094D01*
X192304819Y-87738094D02*
X192304819Y-87357142D01*
X192304819Y-87357142D02*
X192352438Y-87261904D01*
X192352438Y-87261904D02*
X192400057Y-87214285D01*
X192400057Y-87214285D02*
X192495295Y-87166666D01*
X192495295Y-87166666D02*
X192638152Y-87166666D01*
X192638152Y-87166666D02*
X192733390Y-87214285D01*
X192733390Y-87214285D02*
X192781009Y-87261904D01*
X192781009Y-87261904D02*
X192828628Y-87357142D01*
X192828628Y-87357142D02*
X192828628Y-87738094D01*
X192400057Y-86785713D02*
X192352438Y-86738094D01*
X192352438Y-86738094D02*
X192304819Y-86642856D01*
X192304819Y-86642856D02*
X192304819Y-86404761D01*
X192304819Y-86404761D02*
X192352438Y-86309523D01*
X192352438Y-86309523D02*
X192400057Y-86261904D01*
X192400057Y-86261904D02*
X192495295Y-86214285D01*
X192495295Y-86214285D02*
X192590533Y-86214285D01*
X192590533Y-86214285D02*
X192733390Y-86261904D01*
X192733390Y-86261904D02*
X193304819Y-86833332D01*
X193304819Y-86833332D02*
X193304819Y-86214285D01*
X181357142Y-101104819D02*
X181023809Y-100628628D01*
X180785714Y-101104819D02*
X180785714Y-100104819D01*
X180785714Y-100104819D02*
X181166666Y-100104819D01*
X181166666Y-100104819D02*
X181261904Y-100152438D01*
X181261904Y-100152438D02*
X181309523Y-100200057D01*
X181309523Y-100200057D02*
X181357142Y-100295295D01*
X181357142Y-100295295D02*
X181357142Y-100438152D01*
X181357142Y-100438152D02*
X181309523Y-100533390D01*
X181309523Y-100533390D02*
X181261904Y-100581009D01*
X181261904Y-100581009D02*
X181166666Y-100628628D01*
X181166666Y-100628628D02*
X180785714Y-100628628D01*
X182309523Y-101104819D02*
X181738095Y-101104819D01*
X182023809Y-101104819D02*
X182023809Y-100104819D01*
X182023809Y-100104819D02*
X181928571Y-100247676D01*
X181928571Y-100247676D02*
X181833333Y-100342914D01*
X181833333Y-100342914D02*
X181738095Y-100390533D01*
X182642857Y-100104819D02*
X183261904Y-100104819D01*
X183261904Y-100104819D02*
X182928571Y-100485771D01*
X182928571Y-100485771D02*
X183071428Y-100485771D01*
X183071428Y-100485771D02*
X183166666Y-100533390D01*
X183166666Y-100533390D02*
X183214285Y-100581009D01*
X183214285Y-100581009D02*
X183261904Y-100676247D01*
X183261904Y-100676247D02*
X183261904Y-100914342D01*
X183261904Y-100914342D02*
X183214285Y-101009580D01*
X183214285Y-101009580D02*
X183166666Y-101057200D01*
X183166666Y-101057200D02*
X183071428Y-101104819D01*
X183071428Y-101104819D02*
X182785714Y-101104819D01*
X182785714Y-101104819D02*
X182690476Y-101057200D01*
X182690476Y-101057200D02*
X182642857Y-101009580D01*
X174109580Y-92966666D02*
X174157200Y-93014285D01*
X174157200Y-93014285D02*
X174204819Y-93157142D01*
X174204819Y-93157142D02*
X174204819Y-93252380D01*
X174204819Y-93252380D02*
X174157200Y-93395237D01*
X174157200Y-93395237D02*
X174061961Y-93490475D01*
X174061961Y-93490475D02*
X173966723Y-93538094D01*
X173966723Y-93538094D02*
X173776247Y-93585713D01*
X173776247Y-93585713D02*
X173633390Y-93585713D01*
X173633390Y-93585713D02*
X173442914Y-93538094D01*
X173442914Y-93538094D02*
X173347676Y-93490475D01*
X173347676Y-93490475D02*
X173252438Y-93395237D01*
X173252438Y-93395237D02*
X173204819Y-93252380D01*
X173204819Y-93252380D02*
X173204819Y-93157142D01*
X173204819Y-93157142D02*
X173252438Y-93014285D01*
X173252438Y-93014285D02*
X173300057Y-92966666D01*
X174204819Y-92490475D02*
X174204819Y-92299999D01*
X174204819Y-92299999D02*
X174157200Y-92204761D01*
X174157200Y-92204761D02*
X174109580Y-92157142D01*
X174109580Y-92157142D02*
X173966723Y-92061904D01*
X173966723Y-92061904D02*
X173776247Y-92014285D01*
X173776247Y-92014285D02*
X173395295Y-92014285D01*
X173395295Y-92014285D02*
X173300057Y-92061904D01*
X173300057Y-92061904D02*
X173252438Y-92109523D01*
X173252438Y-92109523D02*
X173204819Y-92204761D01*
X173204819Y-92204761D02*
X173204819Y-92395237D01*
X173204819Y-92395237D02*
X173252438Y-92490475D01*
X173252438Y-92490475D02*
X173300057Y-92538094D01*
X173300057Y-92538094D02*
X173395295Y-92585713D01*
X173395295Y-92585713D02*
X173633390Y-92585713D01*
X173633390Y-92585713D02*
X173728628Y-92538094D01*
X173728628Y-92538094D02*
X173776247Y-92490475D01*
X173776247Y-92490475D02*
X173823866Y-92395237D01*
X173823866Y-92395237D02*
X173823866Y-92204761D01*
X173823866Y-92204761D02*
X173776247Y-92109523D01*
X173776247Y-92109523D02*
X173728628Y-92061904D01*
X173728628Y-92061904D02*
X173633390Y-92014285D01*
X193433333Y-85409580D02*
X193385714Y-85457200D01*
X193385714Y-85457200D02*
X193242857Y-85504819D01*
X193242857Y-85504819D02*
X193147619Y-85504819D01*
X193147619Y-85504819D02*
X193004762Y-85457200D01*
X193004762Y-85457200D02*
X192909524Y-85361961D01*
X192909524Y-85361961D02*
X192861905Y-85266723D01*
X192861905Y-85266723D02*
X192814286Y-85076247D01*
X192814286Y-85076247D02*
X192814286Y-84933390D01*
X192814286Y-84933390D02*
X192861905Y-84742914D01*
X192861905Y-84742914D02*
X192909524Y-84647676D01*
X192909524Y-84647676D02*
X193004762Y-84552438D01*
X193004762Y-84552438D02*
X193147619Y-84504819D01*
X193147619Y-84504819D02*
X193242857Y-84504819D01*
X193242857Y-84504819D02*
X193385714Y-84552438D01*
X193385714Y-84552438D02*
X193433333Y-84600057D01*
X193766667Y-84504819D02*
X194385714Y-84504819D01*
X194385714Y-84504819D02*
X194052381Y-84885771D01*
X194052381Y-84885771D02*
X194195238Y-84885771D01*
X194195238Y-84885771D02*
X194290476Y-84933390D01*
X194290476Y-84933390D02*
X194338095Y-84981009D01*
X194338095Y-84981009D02*
X194385714Y-85076247D01*
X194385714Y-85076247D02*
X194385714Y-85314342D01*
X194385714Y-85314342D02*
X194338095Y-85409580D01*
X194338095Y-85409580D02*
X194290476Y-85457200D01*
X194290476Y-85457200D02*
X194195238Y-85504819D01*
X194195238Y-85504819D02*
X193909524Y-85504819D01*
X193909524Y-85504819D02*
X193814286Y-85457200D01*
X193814286Y-85457200D02*
X193766667Y-85409580D01*
X221633333Y-80395181D02*
X221633333Y-79680896D01*
X221633333Y-79680896D02*
X221680952Y-79538039D01*
X221680952Y-79538039D02*
X221776190Y-79442801D01*
X221776190Y-79442801D02*
X221919047Y-79395181D01*
X221919047Y-79395181D02*
X222014285Y-79395181D01*
X220633333Y-79395181D02*
X221204761Y-79395181D01*
X220919047Y-79395181D02*
X220919047Y-80395181D01*
X220919047Y-80395181D02*
X221014285Y-80252324D01*
X221014285Y-80252324D02*
X221109523Y-80157086D01*
X221109523Y-80157086D02*
X221204761Y-80109467D01*
X205066667Y-120907200D02*
X205209524Y-120954819D01*
X205209524Y-120954819D02*
X205447619Y-120954819D01*
X205447619Y-120954819D02*
X205542857Y-120907200D01*
X205542857Y-120907200D02*
X205590476Y-120859580D01*
X205590476Y-120859580D02*
X205638095Y-120764342D01*
X205638095Y-120764342D02*
X205638095Y-120669104D01*
X205638095Y-120669104D02*
X205590476Y-120573866D01*
X205590476Y-120573866D02*
X205542857Y-120526247D01*
X205542857Y-120526247D02*
X205447619Y-120478628D01*
X205447619Y-120478628D02*
X205257143Y-120431009D01*
X205257143Y-120431009D02*
X205161905Y-120383390D01*
X205161905Y-120383390D02*
X205114286Y-120335771D01*
X205114286Y-120335771D02*
X205066667Y-120240533D01*
X205066667Y-120240533D02*
X205066667Y-120145295D01*
X205066667Y-120145295D02*
X205114286Y-120050057D01*
X205114286Y-120050057D02*
X205161905Y-120002438D01*
X205161905Y-120002438D02*
X205257143Y-119954819D01*
X205257143Y-119954819D02*
X205495238Y-119954819D01*
X205495238Y-119954819D02*
X205638095Y-120002438D01*
X205971429Y-119954819D02*
X206209524Y-120954819D01*
X206209524Y-120954819D02*
X206400000Y-120240533D01*
X206400000Y-120240533D02*
X206590476Y-120954819D01*
X206590476Y-120954819D02*
X206828572Y-119954819D01*
X207161905Y-120050057D02*
X207209524Y-120002438D01*
X207209524Y-120002438D02*
X207304762Y-119954819D01*
X207304762Y-119954819D02*
X207542857Y-119954819D01*
X207542857Y-119954819D02*
X207638095Y-120002438D01*
X207638095Y-120002438D02*
X207685714Y-120050057D01*
X207685714Y-120050057D02*
X207733333Y-120145295D01*
X207733333Y-120145295D02*
X207733333Y-120240533D01*
X207733333Y-120240533D02*
X207685714Y-120383390D01*
X207685714Y-120383390D02*
X207114286Y-120954819D01*
X207114286Y-120954819D02*
X207733333Y-120954819D01*
X196900595Y-93304819D02*
X196900595Y-94114342D01*
X196900595Y-94114342D02*
X196948214Y-94209580D01*
X196948214Y-94209580D02*
X196995833Y-94257200D01*
X196995833Y-94257200D02*
X197091071Y-94304819D01*
X197091071Y-94304819D02*
X197281547Y-94304819D01*
X197281547Y-94304819D02*
X197376785Y-94257200D01*
X197376785Y-94257200D02*
X197424404Y-94209580D01*
X197424404Y-94209580D02*
X197472023Y-94114342D01*
X197472023Y-94114342D02*
X197472023Y-93304819D01*
X198472023Y-94304819D02*
X197900595Y-94304819D01*
X198186309Y-94304819D02*
X198186309Y-93304819D01*
X198186309Y-93304819D02*
X198091071Y-93447676D01*
X198091071Y-93447676D02*
X197995833Y-93542914D01*
X197995833Y-93542914D02*
X197900595Y-93590533D01*
X213009580Y-96442857D02*
X213057200Y-96490476D01*
X213057200Y-96490476D02*
X213104819Y-96633333D01*
X213104819Y-96633333D02*
X213104819Y-96728571D01*
X213104819Y-96728571D02*
X213057200Y-96871428D01*
X213057200Y-96871428D02*
X212961961Y-96966666D01*
X212961961Y-96966666D02*
X212866723Y-97014285D01*
X212866723Y-97014285D02*
X212676247Y-97061904D01*
X212676247Y-97061904D02*
X212533390Y-97061904D01*
X212533390Y-97061904D02*
X212342914Y-97014285D01*
X212342914Y-97014285D02*
X212247676Y-96966666D01*
X212247676Y-96966666D02*
X212152438Y-96871428D01*
X212152438Y-96871428D02*
X212104819Y-96728571D01*
X212104819Y-96728571D02*
X212104819Y-96633333D01*
X212104819Y-96633333D02*
X212152438Y-96490476D01*
X212152438Y-96490476D02*
X212200057Y-96442857D01*
X213104819Y-95490476D02*
X213104819Y-96061904D01*
X213104819Y-95776190D02*
X212104819Y-95776190D01*
X212104819Y-95776190D02*
X212247676Y-95871428D01*
X212247676Y-95871428D02*
X212342914Y-95966666D01*
X212342914Y-95966666D02*
X212390533Y-96061904D01*
X212104819Y-94871428D02*
X212104819Y-94776190D01*
X212104819Y-94776190D02*
X212152438Y-94680952D01*
X212152438Y-94680952D02*
X212200057Y-94633333D01*
X212200057Y-94633333D02*
X212295295Y-94585714D01*
X212295295Y-94585714D02*
X212485771Y-94538095D01*
X212485771Y-94538095D02*
X212723866Y-94538095D01*
X212723866Y-94538095D02*
X212914342Y-94585714D01*
X212914342Y-94585714D02*
X213009580Y-94633333D01*
X213009580Y-94633333D02*
X213057200Y-94680952D01*
X213057200Y-94680952D02*
X213104819Y-94776190D01*
X213104819Y-94776190D02*
X213104819Y-94871428D01*
X213104819Y-94871428D02*
X213057200Y-94966666D01*
X213057200Y-94966666D02*
X213009580Y-95014285D01*
X213009580Y-95014285D02*
X212914342Y-95061904D01*
X212914342Y-95061904D02*
X212723866Y-95109523D01*
X212723866Y-95109523D02*
X212485771Y-95109523D01*
X212485771Y-95109523D02*
X212295295Y-95061904D01*
X212295295Y-95061904D02*
X212200057Y-95014285D01*
X212200057Y-95014285D02*
X212152438Y-94966666D01*
X212152438Y-94966666D02*
X212104819Y-94871428D01*
X189233333Y-120904819D02*
X188900000Y-120428628D01*
X188661905Y-120904819D02*
X188661905Y-119904819D01*
X188661905Y-119904819D02*
X189042857Y-119904819D01*
X189042857Y-119904819D02*
X189138095Y-119952438D01*
X189138095Y-119952438D02*
X189185714Y-120000057D01*
X189185714Y-120000057D02*
X189233333Y-120095295D01*
X189233333Y-120095295D02*
X189233333Y-120238152D01*
X189233333Y-120238152D02*
X189185714Y-120333390D01*
X189185714Y-120333390D02*
X189138095Y-120381009D01*
X189138095Y-120381009D02*
X189042857Y-120428628D01*
X189042857Y-120428628D02*
X188661905Y-120428628D01*
X190090476Y-120238152D02*
X190090476Y-120904819D01*
X189852381Y-119857200D02*
X189614286Y-120571485D01*
X189614286Y-120571485D02*
X190233333Y-120571485D01*
D12*
%TO.C,U5*%
X192073600Y-123200000D02*
G75*
G02*
X191819600Y-123200000I-127000J0D01*
G01*
X191819600Y-123200000D02*
G75*
G02*
X192073600Y-123200000I127000J0D01*
G01*
X190041600Y-124304900D02*
X187747442Y-124304900D01*
X190168600Y-120621900D02*
X179551400Y-120621900D01*
X179551400Y-120621900D02*
X179551400Y-125778100D01*
X179551400Y-125778100D02*
X190168600Y-125778100D01*
X190168600Y-125778100D02*
X190168600Y-120621900D01*
X187052558Y-124304900D02*
X185207442Y-124304900D01*
X184512558Y-124304900D02*
X182667442Y-124304900D01*
X181972558Y-124304900D02*
X179678400Y-124304900D01*
%TO.C,U4*%
X168727000Y-123397600D02*
G75*
G02*
X168473000Y-123397600I-127000J0D01*
G01*
X168473000Y-123397600D02*
G75*
G02*
X168727000Y-123397600I127000J0D01*
G01*
X167495100Y-121492600D02*
X167495100Y-119198442D01*
X171178100Y-121619600D02*
X171178100Y-111002400D01*
X171178100Y-111002400D02*
X166021900Y-111002400D01*
X166021900Y-111002400D02*
X166021900Y-121619600D01*
X166021900Y-121619600D02*
X171178100Y-121619600D01*
X167495100Y-118503558D02*
X167495100Y-116658442D01*
X167495100Y-115963558D02*
X167495100Y-114118442D01*
X167495100Y-113423558D02*
X167495100Y-111129400D01*
D13*
%TO.C,D2*%
X207530000Y-83680000D02*
X207530000Y-89120000D01*
X207530000Y-88100000D02*
X210470000Y-88100000D01*
X207530000Y-88220000D02*
X210470000Y-88220000D01*
X207530000Y-88340000D02*
X210470000Y-88340000D01*
X207530000Y-89120000D02*
X210470000Y-89120000D01*
X209000000Y-82660000D02*
X209000000Y-83680000D01*
X209000000Y-90140000D02*
X209000000Y-89120000D01*
X210470000Y-83680000D02*
X207530000Y-83680000D01*
X210470000Y-89120000D02*
X210470000Y-83680000D01*
%TO.C,R3*%
X186427064Y-104665000D02*
X185972936Y-104665000D01*
X186427064Y-106135000D02*
X185972936Y-106135000D01*
%TO.C,Q2*%
X185040000Y-98862500D02*
X185040000Y-98212500D01*
X185040000Y-98862500D02*
X185040000Y-99512500D01*
X188160000Y-98862500D02*
X188160000Y-98212500D01*
X188160000Y-98862500D02*
X188160000Y-99512500D01*
X188440000Y-97940000D02*
X188110000Y-97700000D01*
X188440000Y-97460000D01*
X188440000Y-97940000D01*
G36*
X188440000Y-97940000D02*
G01*
X188110000Y-97700000D01*
X188440000Y-97460000D01*
X188440000Y-97940000D01*
G37*
%TO.C,SW5*%
X206150000Y-71240000D02*
X216370000Y-71240000D01*
X216370000Y-73960000D01*
X206150000Y-73960000D01*
X206150000Y-71240000D01*
D14*
%TO.C,U3*%
X198400000Y-83560000D02*
X200000000Y-83560000D01*
X200000000Y-80440000D02*
X198400000Y-80440000D01*
D10*
X201800000Y-82950000D02*
G75*
G02*
X201600000Y-82950000I-100000J0D01*
G01*
X201600000Y-82950000D02*
G75*
G02*
X201800000Y-82950000I100000J0D01*
G01*
D13*
%TO.C,R12*%
X191372936Y-96665000D02*
X191827064Y-96665000D01*
X191372936Y-98135000D02*
X191827064Y-98135000D01*
%TO.C,SW3*%
X182700000Y-109275000D02*
X182950000Y-109275000D01*
X182700000Y-115575000D02*
X182700000Y-109275000D01*
X182950000Y-115575000D02*
X182700000Y-115575000D01*
X184850000Y-109275000D02*
X187450000Y-109275000D01*
X187450000Y-115575000D02*
X184850000Y-115575000D01*
X189350000Y-109275000D02*
X189600000Y-109275000D01*
X189600000Y-109275000D02*
X189600000Y-115575000D01*
X189600000Y-115575000D02*
X189350000Y-115575000D01*
%TO.C,U2*%
X212265000Y-100750000D02*
X211765000Y-100750000D01*
X211765000Y-100250000D01*
X212265000Y-100750000D01*
G36*
X212265000Y-100750000D02*
G01*
X211765000Y-100750000D01*
X211765000Y-100250000D01*
X212265000Y-100750000D01*
G37*
X218640000Y-119150000D02*
X212440000Y-119150000D01*
X218640000Y-100750000D02*
X218640000Y-119150000D01*
X218640000Y-100750000D02*
X212440000Y-100750000D01*
X193790000Y-100750000D02*
X192790000Y-100750000D01*
X192790000Y-119150000D02*
X193790000Y-119150000D01*
X192790000Y-119150000D02*
X192790000Y-117650000D01*
X192790000Y-100750000D02*
X192790000Y-102250000D01*
%TO.C,JP1*%
X180400000Y-100650000D02*
X182350000Y-100650000D01*
X180400000Y-106150000D02*
X180400000Y-100650000D01*
X182350000Y-100650000D02*
X182350000Y-106150000D01*
X182350000Y-106150000D02*
X180400000Y-106150000D01*
X182600000Y-104800000D02*
X182900000Y-105100000D01*
X182900000Y-104500000D02*
X182600000Y-104800000D01*
X182900000Y-105100000D02*
X182900000Y-104500000D01*
%TO.C,R9*%
X172465000Y-94572936D02*
X172465000Y-95027064D01*
X173935000Y-94572936D02*
X173935000Y-95027064D01*
%TO.C,J6*%
X172530000Y-97570000D02*
X172530000Y-120550000D01*
X172530000Y-97570000D02*
X175130000Y-97570000D01*
X172530000Y-120550000D02*
X177730000Y-120550000D01*
X175130000Y-97570000D02*
X175130000Y-100170000D01*
X175130000Y-100170000D02*
X177730000Y-100170000D01*
X176400000Y-97570000D02*
X177730000Y-97570000D01*
X177730000Y-97570000D02*
X177730000Y-98900000D01*
X177730000Y-100170000D02*
X177730000Y-120550000D01*
%TO.C,C1*%
X192890000Y-91311252D02*
X192890000Y-89888748D01*
X194710000Y-91311252D02*
X194710000Y-89888748D01*
%TO.C,J3*%
X191270000Y-124330000D02*
X191270000Y-129470000D01*
X191270000Y-124330000D02*
X193930000Y-124330000D01*
X191270000Y-129470000D02*
X193930000Y-129470000D01*
X192600000Y-121730000D02*
X193930000Y-121730000D01*
X193930000Y-121730000D02*
X193930000Y-123060000D01*
X193930000Y-124330000D02*
X193930000Y-129470000D01*
%TO.C,C6*%
X195865000Y-125161252D02*
X195865000Y-123738748D01*
X197685000Y-125161252D02*
X197685000Y-123738748D01*
%TO.C,R10*%
X198640000Y-124677064D02*
X198640000Y-124222936D01*
X200110000Y-124677064D02*
X200110000Y-124222936D01*
D14*
%TO.C,USB-C1*%
X196010000Y-71200000D02*
X196010000Y-72450000D01*
X196010000Y-75150000D02*
X196010000Y-76250000D01*
X204950000Y-71200000D02*
X196010000Y-71200000D01*
X204950000Y-71200000D02*
X204950000Y-72450000D01*
X204950000Y-75150000D02*
X204950000Y-76250000D01*
D13*
%TO.C,SW1*%
X180675000Y-89400000D02*
X186975000Y-89400000D01*
X180675000Y-89650000D02*
X180675000Y-89400000D01*
X180675000Y-94150000D02*
X180675000Y-91550000D01*
X180675000Y-96300000D02*
X180675000Y-96050000D01*
X186975000Y-89400000D02*
X186975000Y-89650000D01*
X186975000Y-91550000D02*
X186975000Y-94150000D01*
X186975000Y-96050000D02*
X186975000Y-96300000D01*
X186975000Y-96300000D02*
X180675000Y-96300000D01*
%TO.C,D1*%
X203130000Y-83600000D02*
X203130000Y-89040000D01*
X203130000Y-88020000D02*
X206070000Y-88020000D01*
X203130000Y-88140000D02*
X206070000Y-88140000D01*
X203130000Y-88260000D02*
X206070000Y-88260000D01*
X203130000Y-89040000D02*
X206070000Y-89040000D01*
X204600000Y-82580000D02*
X204600000Y-83600000D01*
X204600000Y-90060000D02*
X204600000Y-89040000D01*
X206070000Y-83600000D02*
X203130000Y-83600000D01*
X206070000Y-89040000D02*
X206070000Y-83600000D01*
%TO.C,R6*%
X185972936Y-102065000D02*
X186427064Y-102065000D01*
X185972936Y-103535000D02*
X186427064Y-103535000D01*
%TO.C,R8*%
X176465000Y-123627064D02*
X176465000Y-123172936D01*
X177935000Y-123627064D02*
X177935000Y-123172936D01*
%TO.C,Q1*%
X199062500Y-93840000D02*
X198412500Y-93840000D01*
X199062500Y-93840000D02*
X199712500Y-93840000D01*
X199062500Y-96960000D02*
X198412500Y-96960000D01*
X199062500Y-96960000D02*
X199712500Y-96960000D01*
X197900000Y-93890000D02*
X197660000Y-93560000D01*
X198140000Y-93560000D01*
X197900000Y-93890000D01*
G36*
X197900000Y-93890000D02*
G01*
X197660000Y-93560000D01*
X198140000Y-93560000D01*
X197900000Y-93890000D01*
G37*
%TO.C,R5*%
X180665000Y-129827064D02*
X180665000Y-129372936D01*
X182135000Y-129827064D02*
X182135000Y-129372936D01*
%TO.C,R14*%
X203772936Y-94265000D02*
X204227064Y-94265000D01*
X203772936Y-95735000D02*
X204227064Y-95735000D01*
%TO.C,C5*%
X207290000Y-95088748D02*
X207290000Y-96511252D01*
X209110000Y-95088748D02*
X209110000Y-96511252D01*
%TO.C,R15*%
X191372936Y-94065000D02*
X191827064Y-94065000D01*
X191372936Y-95535000D02*
X191827064Y-95535000D01*
%TO.C,C4*%
X197688748Y-84890000D02*
X199111252Y-84890000D01*
X197688748Y-86710000D02*
X199111252Y-86710000D01*
%TO.C,J2*%
X198650000Y-130870000D02*
X199980000Y-130870000D01*
X198650000Y-132200000D02*
X198650000Y-130870000D01*
X201250000Y-130870000D02*
X211470000Y-130870000D01*
X201250000Y-133530000D02*
X201250000Y-130870000D01*
X201250000Y-133530000D02*
X211470000Y-133530000D01*
X211470000Y-133530000D02*
X211470000Y-130870000D01*
%TO.C,R7*%
X169372936Y-108265000D02*
X169827064Y-108265000D01*
X169372936Y-109735000D02*
X169827064Y-109735000D01*
%TO.C,J5*%
X184695000Y-130020000D02*
X184695000Y-132620000D01*
X184695000Y-130020000D02*
X187355000Y-130020000D01*
X184695000Y-132620000D02*
X187355000Y-132620000D01*
X186025000Y-127420000D02*
X187355000Y-127420000D01*
X187355000Y-127420000D02*
X187355000Y-128750000D01*
X187355000Y-130020000D02*
X187355000Y-132620000D01*
%TO.C,R11*%
X194865000Y-95972936D02*
X194865000Y-96427064D01*
X196335000Y-95972936D02*
X196335000Y-96427064D01*
%TO.C,R1*%
X193572936Y-79465000D02*
X194027064Y-79465000D01*
X193572936Y-80935000D02*
X194027064Y-80935000D01*
%TO.C,C2*%
X200290000Y-91311252D02*
X200290000Y-89888748D01*
X202110000Y-91311252D02*
X202110000Y-89888748D01*
%TO.C,SW4*%
X184750000Y-71240000D02*
X194970000Y-71240000D01*
X194970000Y-73960000D01*
X184750000Y-73960000D01*
X184750000Y-71240000D01*
%TO.C,J4*%
X191220000Y-131045000D02*
X192550000Y-131045000D01*
X191220000Y-132375000D02*
X191220000Y-131045000D01*
X193820000Y-131045000D02*
X196420000Y-131045000D01*
X193820000Y-133705000D02*
X193820000Y-131045000D01*
X193820000Y-133705000D02*
X196420000Y-133705000D01*
X196420000Y-133705000D02*
X196420000Y-131045000D01*
%TO.C,R2*%
X190465000Y-86772936D02*
X190465000Y-87227064D01*
X191935000Y-86772936D02*
X191935000Y-87227064D01*
%TO.C,R13*%
X182227064Y-98265000D02*
X181772936Y-98265000D01*
X182227064Y-99735000D02*
X181772936Y-99735000D01*
%TO.C,C9*%
X174690000Y-93511252D02*
X174690000Y-92088748D01*
X176510000Y-93511252D02*
X176510000Y-92088748D01*
%TO.C,C3*%
X194311252Y-82290000D02*
X192888748Y-82290000D01*
X194311252Y-84110000D02*
X192888748Y-84110000D01*
D15*
%TO.C,J1*%
X216118400Y-77100001D02*
G75*
G02*
X215356400Y-77100001I-381000J0D01*
G01*
X215356400Y-77100001D02*
G75*
G02*
X216118400Y-77100001I381000J0D01*
G01*
D12*
X226227600Y-84577002D02*
X226227600Y-74721802D01*
X226227600Y-74721802D02*
X216372400Y-74721802D01*
X216372400Y-84577002D02*
X226227600Y-84577002D01*
X216372400Y-74721802D02*
X216372400Y-84577002D01*
D13*
%TO.C,SW2*%
X203250000Y-121550000D02*
X209550000Y-121550000D01*
X203250000Y-121800000D02*
X203250000Y-121550000D01*
X203250000Y-126300000D02*
X203250000Y-123700000D01*
X203250000Y-128450000D02*
X203250000Y-128200000D01*
X209550000Y-121550000D02*
X209550000Y-121800000D01*
X209550000Y-123700000D02*
X209550000Y-126300000D01*
X209550000Y-128200000D02*
X209550000Y-128450000D01*
X209550000Y-128450000D02*
X203250000Y-128450000D01*
%TO.C,U1*%
X197662500Y-89890000D02*
X196862500Y-89890000D01*
X197662500Y-89890000D02*
X198462500Y-89890000D01*
X197662500Y-93010000D02*
X196862500Y-93010000D01*
X197662500Y-93010000D02*
X198462500Y-93010000D01*
X199202500Y-93290000D02*
X198722500Y-93290000D01*
X198962500Y-92960000D01*
X199202500Y-93290000D01*
G36*
X199202500Y-93290000D02*
G01*
X198722500Y-93290000D01*
X198962500Y-92960000D01*
X199202500Y-93290000D01*
G37*
%TO.C,C10*%
X209890000Y-95088748D02*
X209890000Y-96511252D01*
X211710000Y-95088748D02*
X211710000Y-96511252D01*
%TO.C,R4*%
X189627064Y-118065000D02*
X189172936Y-118065000D01*
X189627064Y-119535000D02*
X189172936Y-119535000D01*
%TD*%
M02*
