%TF.GenerationSoftware,KiCad,Pcbnew,8.0.8*%
%TF.CreationDate,2025-03-03T07:56:09-06:00*%
%TF.ProjectId,Final Project V1,46696e61-6c20-4507-926f-6a6563742056,rev?*%
%TF.SameCoordinates,Original*%
%TF.FileFunction,Copper,L1,Top*%
%TF.FilePolarity,Positive*%
%FSLAX46Y46*%
G04 Gerber Fmt 4.6, Leading zero omitted, Abs format (unit mm)*
G04 Created by KiCad (PCBNEW 8.0.8) date 2025-03-03 07:56:09*
%MOMM*%
%LPD*%
G01*
G04 APERTURE LIST*
G04 Aperture macros list*
%AMRoundRect*
0 Rectangle with rounded corners*
0 $1 Rounding radius*
0 $2 $3 $4 $5 $6 $7 $8 $9 X,Y pos of 4 corners*
0 Add a 4 corners polygon primitive as box body*
4,1,4,$2,$3,$4,$5,$6,$7,$8,$9,$2,$3,0*
0 Add four circle primitives for the rounded corners*
1,1,$1+$1,$2,$3*
1,1,$1+$1,$4,$5*
1,1,$1+$1,$6,$7*
1,1,$1+$1,$8,$9*
0 Add four rect primitives between the rounded corners*
20,1,$1+$1,$2,$3,$4,$5,0*
20,1,$1+$1,$4,$5,$6,$7,0*
20,1,$1+$1,$6,$7,$8,$9,0*
20,1,$1+$1,$8,$9,$2,$3,0*%
%AMFreePoly0*
4,1,6,1.000000,0.000000,0.500000,-0.750000,-0.500000,-0.750000,-0.500000,0.750000,0.500000,0.750000,1.000000,0.000000,1.000000,0.000000,$1*%
%AMFreePoly1*
4,1,7,0.700000,0.000000,1.200000,-0.750000,-1.200000,-0.750000,-0.700000,0.000000,-1.200000,0.750000,1.200000,0.750000,0.700000,0.000000,0.700000,0.000000,$1*%
G04 Aperture macros list end*
%TA.AperFunction,ComponentPad*%
%ADD10C,1.651000*%
%TD*%
%TA.AperFunction,ComponentPad*%
%ADD11R,2.200000X2.200000*%
%TD*%
%TA.AperFunction,ComponentPad*%
%ADD12O,2.200000X2.200000*%
%TD*%
%TA.AperFunction,SMDPad,CuDef*%
%ADD13RoundRect,0.250000X0.350000X0.450000X-0.350000X0.450000X-0.350000X-0.450000X0.350000X-0.450000X0*%
%TD*%
%TA.AperFunction,SMDPad,CuDef*%
%ADD14RoundRect,0.150000X-0.150000X0.587500X-0.150000X-0.587500X0.150000X-0.587500X0.150000X0.587500X0*%
%TD*%
%TA.AperFunction,ComponentPad*%
%ADD15R,1.500000X1.500000*%
%TD*%
%TA.AperFunction,ComponentPad*%
%ADD16C,1.600000*%
%TD*%
%TA.AperFunction,SMDPad,CuDef*%
%ADD17RoundRect,0.072500X0.532500X0.217500X-0.532500X0.217500X-0.532500X-0.217500X0.532500X-0.217500X0*%
%TD*%
%TA.AperFunction,SMDPad,CuDef*%
%ADD18RoundRect,0.250000X-0.350000X-0.450000X0.350000X-0.450000X0.350000X0.450000X-0.350000X0.450000X0*%
%TD*%
%TA.AperFunction,SMDPad,CuDef*%
%ADD19R,1.300000X1.550000*%
%TD*%
%TA.AperFunction,HeatsinkPad*%
%ADD20C,0.600000*%
%TD*%
%TA.AperFunction,HeatsinkPad*%
%ADD21R,3.900000X3.900000*%
%TD*%
%TA.AperFunction,SMDPad,CuDef*%
%ADD22R,0.900000X1.500000*%
%TD*%
%TA.AperFunction,SMDPad,CuDef*%
%ADD23R,1.500000X0.900000*%
%TD*%
%TA.AperFunction,SMDPad,CuDef*%
%ADD24FreePoly0,90.000000*%
%TD*%
%TA.AperFunction,SMDPad,CuDef*%
%ADD25FreePoly1,90.000000*%
%TD*%
%TA.AperFunction,SMDPad,CuDef*%
%ADD26FreePoly0,270.000000*%
%TD*%
%TA.AperFunction,SMDPad,CuDef*%
%ADD27RoundRect,0.250000X-0.450000X0.350000X-0.450000X-0.350000X0.450000X-0.350000X0.450000X0.350000X0*%
%TD*%
%TA.AperFunction,ComponentPad*%
%ADD28R,1.700000X1.700000*%
%TD*%
%TA.AperFunction,ComponentPad*%
%ADD29O,1.700000X1.700000*%
%TD*%
%TA.AperFunction,SMDPad,CuDef*%
%ADD30RoundRect,0.250000X0.650000X-0.412500X0.650000X0.412500X-0.650000X0.412500X-0.650000X-0.412500X0*%
%TD*%
%TA.AperFunction,SMDPad,CuDef*%
%ADD31RoundRect,0.250000X0.450000X-0.350000X0.450000X0.350000X-0.450000X0.350000X-0.450000X-0.350000X0*%
%TD*%
%TA.AperFunction,SMDPad,CuDef*%
%ADD32R,0.700000X1.150000*%
%TD*%
%TA.AperFunction,SMDPad,CuDef*%
%ADD33R,0.800000X1.150000*%
%TD*%
%TA.AperFunction,SMDPad,CuDef*%
%ADD34R,0.900000X1.150000*%
%TD*%
%TA.AperFunction,ComponentPad*%
%ADD35O,1.000000X2.000000*%
%TD*%
%TA.AperFunction,SMDPad,CuDef*%
%ADD36R,1.550000X1.300000*%
%TD*%
%TA.AperFunction,SMDPad,CuDef*%
%ADD37RoundRect,0.150000X-0.587500X-0.150000X0.587500X-0.150000X0.587500X0.150000X-0.587500X0.150000X0*%
%TD*%
%TA.AperFunction,SMDPad,CuDef*%
%ADD38RoundRect,0.250000X-0.650000X0.412500X-0.650000X-0.412500X0.650000X-0.412500X0.650000X0.412500X0*%
%TD*%
%TA.AperFunction,SMDPad,CuDef*%
%ADD39RoundRect,0.250000X-0.412500X-0.650000X0.412500X-0.650000X0.412500X0.650000X-0.412500X0.650000X0*%
%TD*%
%TA.AperFunction,SMDPad,CuDef*%
%ADD40RoundRect,0.250000X0.412500X0.650000X-0.412500X0.650000X-0.412500X-0.650000X0.412500X-0.650000X0*%
%TD*%
%TA.AperFunction,ComponentPad*%
%ADD41C,1.955800*%
%TD*%
%TA.AperFunction,SMDPad,CuDef*%
%ADD42RoundRect,0.150000X0.512500X0.150000X-0.512500X0.150000X-0.512500X-0.150000X0.512500X-0.150000X0*%
%TD*%
%TA.AperFunction,ViaPad*%
%ADD43C,0.600000*%
%TD*%
%TA.AperFunction,Conductor*%
%ADD44C,0.200000*%
%TD*%
G04 APERTURE END LIST*
D10*
%TO.P,U5,1,G*%
%TO.N,Motor Power Signal*%
X187400000Y-123200000D03*
%TO.P,U5,2,D*%
%TO.N,Motor Out*%
X184860000Y-123200000D03*
%TO.P,U5,3,S*%
%TO.N,3.3V*%
X182320000Y-123200000D03*
%TD*%
%TO.P,U4,1,G*%
%TO.N,Camera Power Signal*%
X168600000Y-118851000D03*
%TO.P,U4,2,D*%
%TO.N,Camera Power*%
X168600000Y-116311000D03*
%TO.P,U4,3,S*%
%TO.N,3.3V*%
X168600000Y-113771000D03*
%TD*%
D11*
%TO.P,D2,1,K*%
%TO.N,Net-(D1-K)*%
X209000000Y-91480000D03*
D12*
%TO.P,D2,2,A*%
%TO.N,Net-(D2-A)*%
X209000000Y-81320000D03*
%TD*%
D13*
%TO.P,R3,1*%
%TO.N,Net-(U2-IO46)*%
X187200000Y-105400000D03*
%TO.P,R3,2*%
%TO.N,3.3V*%
X185200000Y-105400000D03*
%TD*%
D14*
%TO.P,Q2,1,B*%
%TO.N,Net-(Q2-B)*%
X187550000Y-97925000D03*
%TO.P,Q2,2,E*%
%TO.N,DTR*%
X185650000Y-97925000D03*
%TO.P,Q2,3,C*%
%TO.N,Net-(Q2-C)*%
X186600000Y-99800000D03*
%TD*%
D15*
%TO.P,SW5,1,B*%
%TO.N,Net-(D2-A)*%
X211260000Y-72600000D03*
D16*
%TO.P,SW5,2,C*%
%TO.N,Net-(SW5-C)*%
X208720000Y-72600000D03*
%TO.P,SW5,3,A*%
%TO.N,unconnected-(SW5-A-Pad3)*%
X213800000Y-72600000D03*
%TD*%
D17*
%TO.P,U3,1,TS*%
%TO.N,Connector for thermistor*%
X200455000Y-82950000D03*
%TO.P,U3,2,OUT*%
%TO.N,Net-(D2-A)*%
X200455000Y-82000000D03*
%TO.P,U3,3,~{CHG}*%
%TO.N,Net-(U3-~{CHG})*%
X200455000Y-81050000D03*
%TO.P,U3,4,ISET*%
%TO.N,Net-(U3-ISET)*%
X197945000Y-81050000D03*
%TO.P,U3,5,GND*%
%TO.N,GND*%
X197945000Y-82000000D03*
%TO.P,U3,6,VIN*%
%TO.N,Net-(D1-A)*%
X197945000Y-82950000D03*
%TD*%
D18*
%TO.P,R12,1*%
%TO.N,DTR*%
X190600000Y-97400000D03*
%TO.P,R12,2*%
%TO.N,Net-(Q1-B)*%
X192600000Y-97400000D03*
%TD*%
D19*
%TO.P,SW3,1,1*%
%TO.N,Net-(R4-Pad2)*%
X188400000Y-108450000D03*
X188400000Y-116400000D03*
%TO.P,SW3,2,2*%
%TO.N,3.3V*%
X183900000Y-108450000D03*
X183900000Y-116400000D03*
%TD*%
D20*
%TO.P,U2,41,GND*%
%TO.N,GND*%
X202580000Y-109850000D03*
X203980000Y-109850000D03*
X201880000Y-109150000D03*
X203280000Y-109150000D03*
X204680000Y-109150000D03*
X202580000Y-108450000D03*
D21*
X203280000Y-108450000D03*
D20*
X203980000Y-108450000D03*
X201880000Y-107750000D03*
X203280000Y-107750000D03*
X204680000Y-107750000D03*
X202580000Y-107050000D03*
X203980000Y-107050000D03*
D22*
%TO.P,U2,40,GND*%
X211000000Y-118700000D03*
%TO.P,U2,39,IO1*%
%TO.N,SCL*%
X209730000Y-118700000D03*
%TO.P,U2,38,IO2*%
%TO.N,SDA*%
X208460000Y-118700000D03*
%TO.P,U2,37,TXD0*%
%TO.N,TX*%
X207190000Y-118700000D03*
%TO.P,U2,36,RXD0*%
%TO.N,RX*%
X205920000Y-118700000D03*
%TO.P,U2,35,IO42*%
%TO.N,unconnected-(U2-IO42-Pad35)*%
X204650000Y-118700000D03*
%TO.P,U2,34,IO41*%
%TO.N,unconnected-(U2-IO41-Pad34)*%
X203380000Y-118700000D03*
%TO.P,U2,33,IO40*%
%TO.N,Manual Feed*%
X202110000Y-118700000D03*
%TO.P,U2,32,IO39*%
%TO.N,Hall Read*%
X200840000Y-118700000D03*
%TO.P,U2,31,IO38*%
%TO.N,unconnected-(U2-IO38-Pad31)*%
X199570000Y-118700000D03*
%TO.P,U2,30,IO37*%
%TO.N,unconnected-(U2-IO37-Pad30)*%
X198300000Y-118700000D03*
%TO.P,U2,29,IO36*%
%TO.N,unconnected-(U2-IO36-Pad29)*%
X197030000Y-118700000D03*
%TO.P,U2,28,IO35*%
%TO.N,unconnected-(U2-IO35-Pad28)*%
X195760000Y-118700000D03*
%TO.P,U2,27,IO0*%
%TO.N,Net-(U2-IO0)*%
X194490000Y-118700000D03*
D23*
%TO.P,U2,26,IO45*%
%TO.N,Motor Power Signal*%
X193240000Y-116935000D03*
%TO.P,U2,25,IO48*%
%TO.N,Camera Power Signal*%
X193240000Y-115665000D03*
%TO.P,U2,24,IO47*%
%TO.N,D4*%
X193240000Y-114395000D03*
%TO.P,U2,23,IO21*%
%TO.N,D5*%
X193240000Y-113125000D03*
%TO.P,U2,22,IO14*%
%TO.N,D6*%
X193240000Y-111855000D03*
%TO.P,U2,21,IO13*%
%TO.N,D7*%
X193240000Y-110585000D03*
%TO.P,U2,20,IO12*%
%TO.N,MCLK*%
X193240000Y-109315000D03*
%TO.P,U2,19,IO11*%
%TO.N,PCLK*%
X193240000Y-108045000D03*
%TO.P,U2,18,IO10*%
%TO.N,HS*%
X193240000Y-106775000D03*
%TO.P,U2,17,IO9*%
%TO.N,VS*%
X193240000Y-105505000D03*
%TO.P,U2,16,IO46*%
%TO.N,Net-(U2-IO46)*%
X193240000Y-104235000D03*
%TO.P,U2,15,IO3*%
%TO.N,Net-(U2-IO3)*%
X193240000Y-102965000D03*
D22*
%TO.P,U2,14,USB_D+*%
%TO.N,unconnected-(U2-USB_D+-Pad14)*%
X194490000Y-101200000D03*
%TO.P,U2,13,USB_D-*%
%TO.N,unconnected-(U2-USB_D--Pad13)*%
X195760000Y-101200000D03*
%TO.P,U2,12,IO8*%
%TO.N,unconnected-(U2-IO8-Pad12)*%
X197030000Y-101200000D03*
%TO.P,U2,11,IO18*%
%TO.N,D0*%
X198300000Y-101200000D03*
%TO.P,U2,10,IO17*%
%TO.N,D1*%
X199570000Y-101200000D03*
%TO.P,U2,9,IO16*%
%TO.N,D2*%
X200840000Y-101200000D03*
%TO.P,U2,8,IO15*%
%TO.N,D3*%
X202110000Y-101200000D03*
%TO.P,U2,7,IO7*%
%TO.N,Microcontroller Charge Read*%
X203380000Y-101200000D03*
%TO.P,U2,6,IO6*%
%TO.N,unconnected-(U2-IO6-Pad6)*%
X204650000Y-101200000D03*
%TO.P,U2,5,IO5*%
%TO.N,unconnected-(U2-IO5-Pad5)*%
X205920000Y-101200000D03*
%TO.P,U2,4,IO4*%
%TO.N,unconnected-(U2-IO4-Pad4)*%
X207190000Y-101200000D03*
%TO.P,U2,3,EN*%
%TO.N,Chip_PU*%
X208460000Y-101200000D03*
%TO.P,U2,2,3V3*%
%TO.N,3.3V*%
X209730000Y-101200000D03*
%TO.P,U2,1,GND*%
%TO.N,GND*%
X211000000Y-101200000D03*
%TD*%
D24*
%TO.P,JP1,1,A*%
%TO.N,GND*%
X181400000Y-105400000D03*
D25*
%TO.P,JP1,2,C*%
%TO.N,Net-(JP1-C)*%
X181400000Y-103400000D03*
D26*
%TO.P,JP1,3,B*%
%TO.N,3.3V*%
X181400000Y-101400000D03*
%TD*%
D27*
%TO.P,R9,1*%
%TO.N,Camera Power*%
X173200000Y-93800000D03*
%TO.P,R9,2*%
%TO.N,SCL*%
X173200000Y-95800000D03*
%TD*%
D28*
%TO.P,J6,1,Pin_1*%
%TO.N,GND*%
X176400000Y-98900000D03*
D29*
%TO.P,J6,2,Pin_2*%
%TO.N,SCL*%
X173860000Y-98900000D03*
%TO.P,J6,3,Pin_3*%
%TO.N,VS*%
X176400000Y-101440000D03*
%TO.P,J6,4,Pin_4*%
%TO.N,PCLK*%
X173860000Y-101440000D03*
%TO.P,J6,5,Pin_5*%
%TO.N,D7*%
X176400000Y-103980000D03*
%TO.P,J6,6,Pin_6*%
%TO.N,D5*%
X173860000Y-103980000D03*
%TO.P,J6,7,Pin_7*%
%TO.N,D3*%
X176400000Y-106520000D03*
%TO.P,J6,8,Pin_8*%
%TO.N,D1*%
X173860000Y-106520000D03*
%TO.P,J6,9,Pin_9*%
%TO.N,Camera Power*%
X176400000Y-109060000D03*
%TO.P,J6,10,Pin_10*%
%TO.N,Net-(J6-Pin_10)*%
X173860000Y-109060000D03*
%TO.P,J6,11,Pin_11*%
%TO.N,D0*%
X176400000Y-111600000D03*
%TO.P,J6,12,Pin_12*%
%TO.N,D2*%
X173860000Y-111600000D03*
%TO.P,J6,13,Pin_13*%
%TO.N,D4*%
X176400000Y-114140000D03*
%TO.P,J6,14,Pin_14*%
%TO.N,D6*%
X173860000Y-114140000D03*
%TO.P,J6,15,Pin_15*%
%TO.N,MCLK*%
X176400000Y-116680000D03*
%TO.P,J6,16,Pin_16*%
%TO.N,HS*%
X173860000Y-116680000D03*
%TO.P,J6,17,Pin_17*%
%TO.N,SDA*%
X176400000Y-119220000D03*
%TO.P,J6,18,Pin_18*%
%TO.N,Camera Power*%
X173860000Y-119220000D03*
%TD*%
D30*
%TO.P,C1,1*%
%TO.N,3.3V*%
X193800000Y-92162500D03*
%TO.P,C1,2*%
%TO.N,GND*%
X193800000Y-89037500D03*
%TD*%
D28*
%TO.P,J3,1,Pin_1*%
%TO.N,GND*%
X192600000Y-123060000D03*
D29*
%TO.P,J3,2,Pin_2*%
%TO.N,Hall Read*%
X192600000Y-125600000D03*
%TO.P,J3,3,Pin_3*%
%TO.N,3.3V*%
X192600000Y-128140000D03*
%TD*%
D30*
%TO.P,C6,1*%
%TO.N,GND*%
X196775000Y-126012500D03*
%TO.P,C6,2*%
%TO.N,Net-(U2-IO0)*%
X196775000Y-122887500D03*
%TD*%
D31*
%TO.P,R10,1*%
%TO.N,Net-(U2-IO0)*%
X199375000Y-125450000D03*
%TO.P,R10,2*%
%TO.N,3.3V*%
X199375000Y-123450000D03*
%TD*%
D32*
%TO.P,USB-C1,A5,CC1*%
%TO.N,unconnected-(USB-C1-CC1-PadA5)*%
X200980000Y-77605000D03*
D33*
%TO.P,USB-C1,A9,V-BUS*%
%TO.N,Net-(SW4-B)*%
X198960000Y-77605000D03*
D34*
%TO.P,USB-C1,A12,GND*%
%TO.N,GND*%
X197730000Y-77605000D03*
D32*
%TO.P,USB-C1,B5,CC2*%
%TO.N,unconnected-(USB-C1-CC2-PadB5)*%
X199980000Y-77605000D03*
D33*
%TO.P,USB-C1,B9,V-BUS__1*%
%TO.N,Net-(SW4-B)*%
X202000000Y-77605000D03*
D34*
%TO.P,USB-C1,B12,GND__1*%
%TO.N,GND*%
X203230000Y-77605000D03*
D35*
%TO.P,USB-C1,S1,SHIELD*%
X204800000Y-77600000D03*
%TO.P,USB-C1,S2,SHIELD__1*%
X196160000Y-77600000D03*
%TO.P,USB-C1,S3,SHIELD__2*%
X204800000Y-73800000D03*
%TO.P,USB-C1,S4,SHIELD__3*%
X196160000Y-73800000D03*
%TD*%
D36*
%TO.P,SW1,1,1*%
%TO.N,GND*%
X179850000Y-90600000D03*
X187800000Y-90600000D03*
%TO.P,SW1,2,2*%
%TO.N,Chip_PU*%
X179850000Y-95100000D03*
X187800000Y-95100000D03*
%TD*%
D11*
%TO.P,D1,1,K*%
%TO.N,Net-(D1-K)*%
X204600000Y-91400000D03*
D12*
%TO.P,D1,2,A*%
%TO.N,Net-(D1-A)*%
X204600000Y-81240000D03*
%TD*%
D18*
%TO.P,R6,1*%
%TO.N,Net-(JP1-C)*%
X185200000Y-102800000D03*
%TO.P,R6,2*%
%TO.N,Net-(U2-IO3)*%
X187200000Y-102800000D03*
%TD*%
D31*
%TO.P,R8,1*%
%TO.N,Camera Power*%
X177200000Y-124400000D03*
%TO.P,R8,2*%
%TO.N,SDA*%
X177200000Y-122400000D03*
%TD*%
D37*
%TO.P,Q1,1,B*%
%TO.N,Net-(Q1-B)*%
X198125000Y-94450000D03*
%TO.P,Q1,2,E*%
%TO.N,RTS*%
X198125000Y-96350000D03*
%TO.P,Q1,3,C*%
%TO.N,Net-(Q1-C)*%
X200000000Y-95400000D03*
%TD*%
D31*
%TO.P,R5,1*%
%TO.N,GND*%
X181400000Y-130600000D03*
%TO.P,R5,2*%
%TO.N,Net-(J5-Pin_1)*%
X181400000Y-128600000D03*
%TD*%
D18*
%TO.P,R14,1*%
%TO.N,Net-(Q1-C)*%
X203000000Y-95000000D03*
%TO.P,R14,2*%
%TO.N,Chip_PU*%
X205000000Y-95000000D03*
%TD*%
D38*
%TO.P,C5,1*%
%TO.N,GND*%
X208200000Y-94237500D03*
%TO.P,C5,2*%
%TO.N,3.3V*%
X208200000Y-97362500D03*
%TD*%
D18*
%TO.P,R15,1*%
%TO.N,Chip_PU*%
X190600000Y-94800000D03*
%TO.P,R15,2*%
%TO.N,3.3V*%
X192600000Y-94800000D03*
%TD*%
D39*
%TO.P,C4,1*%
%TO.N,GND*%
X196837500Y-85800000D03*
%TO.P,C4,2*%
%TO.N,Net-(D2-A)*%
X199962500Y-85800000D03*
%TD*%
D28*
%TO.P,J2,1,Pin_1*%
%TO.N,GND*%
X199980000Y-132200000D03*
D29*
%TO.P,J2,2,Pin_2*%
%TO.N,RX*%
X202520000Y-132200000D03*
%TO.P,J2,3,Pin_3*%
%TO.N,TX*%
X205060000Y-132200000D03*
%TO.P,J2,4,Pin_4*%
%TO.N,DTR*%
X207600000Y-132200000D03*
%TO.P,J2,5,Pin_5*%
%TO.N,RTS*%
X210140000Y-132200000D03*
%TD*%
D18*
%TO.P,R7,1*%
%TO.N,GND*%
X168600000Y-109000000D03*
%TO.P,R7,2*%
%TO.N,Net-(J6-Pin_10)*%
X170600000Y-109000000D03*
%TD*%
D28*
%TO.P,J5,1,Pin_1*%
%TO.N,Net-(J5-Pin_1)*%
X186025000Y-128750000D03*
D29*
%TO.P,J5,2,Pin_2*%
%TO.N,3.3V*%
X186025000Y-131290000D03*
%TD*%
D27*
%TO.P,R11,1*%
%TO.N,RTS*%
X195600000Y-95200000D03*
%TO.P,R11,2*%
%TO.N,Net-(Q2-B)*%
X195600000Y-97200000D03*
%TD*%
D18*
%TO.P,R1,1*%
%TO.N,GND*%
X192800000Y-80200000D03*
%TO.P,R1,2*%
%TO.N,Net-(U3-ISET)*%
X194800000Y-80200000D03*
%TD*%
D30*
%TO.P,C2,1*%
%TO.N,Net-(D1-K)*%
X201200000Y-92162500D03*
%TO.P,C2,2*%
%TO.N,GND*%
X201200000Y-89037500D03*
%TD*%
D15*
%TO.P,SW4,1,B*%
%TO.N,Net-(SW4-B)*%
X189860000Y-72600000D03*
D16*
%TO.P,SW4,2,C*%
%TO.N,Net-(D1-A)*%
X187320000Y-72600000D03*
%TO.P,SW4,3,A*%
%TO.N,unconnected-(SW4-A-Pad3)*%
X192400000Y-72600000D03*
%TD*%
D28*
%TO.P,J4,1,Pin_1*%
%TO.N,GND*%
X192550000Y-132375000D03*
D29*
%TO.P,J4,2,Pin_2*%
%TO.N,Motor Out*%
X195090000Y-132375000D03*
%TD*%
D27*
%TO.P,R2,1*%
%TO.N,Net-(U3-~{CHG})*%
X191200000Y-86000000D03*
%TO.P,R2,2*%
%TO.N,Microcontroller Charge Read*%
X191200000Y-88000000D03*
%TD*%
D13*
%TO.P,R13,1*%
%TO.N,Net-(Q2-C)*%
X183000000Y-99000000D03*
%TO.P,R13,2*%
%TO.N,Net-(U2-IO0)*%
X181000000Y-99000000D03*
%TD*%
D30*
%TO.P,C9,1*%
%TO.N,Chip_PU*%
X175600000Y-94362500D03*
%TO.P,C9,2*%
%TO.N,GND*%
X175600000Y-91237500D03*
%TD*%
D40*
%TO.P,C3,1*%
%TO.N,Net-(D1-A)*%
X195162500Y-83200000D03*
%TO.P,C3,2*%
%TO.N,GND*%
X192037500Y-83200000D03*
%TD*%
D41*
%TO.P,J1,4,4*%
%TO.N,unconnected-(J1-Pad4)*%
X223399998Y-82600000D03*
%TO.P,J1,3,3*%
%TO.N,unconnected-(J1-Pad3)*%
X219200000Y-82600000D03*
%TO.P,J1,2,2*%
%TO.N,GND*%
X223399998Y-77100001D03*
%TO.P,J1,1,1*%
%TO.N,Net-(SW5-C)*%
X219200000Y-77100001D03*
%TD*%
D36*
%TO.P,SW2,1,1*%
%TO.N,GND*%
X202425000Y-122750000D03*
X210375000Y-122750000D03*
%TO.P,SW2,2,2*%
%TO.N,Net-(U2-IO0)*%
X202425000Y-127250000D03*
X210375000Y-127250000D03*
%TD*%
D42*
%TO.P,U1,1,VIN*%
%TO.N,Net-(D1-K)*%
X198800000Y-92400000D03*
%TO.P,U1,2,GND*%
%TO.N,GND*%
X198800000Y-91450000D03*
%TO.P,U1,3,EN*%
%TO.N,Net-(D1-K)*%
X198800000Y-90500000D03*
%TO.P,U1,4,NC*%
%TO.N,unconnected-(U1-NC-Pad4)*%
X196525000Y-90500000D03*
%TO.P,U1,5,VOUT*%
%TO.N,3.3V*%
X196525000Y-92400000D03*
%TD*%
D38*
%TO.P,C10,1*%
%TO.N,GND*%
X210800000Y-94237500D03*
%TO.P,C10,2*%
%TO.N,3.3V*%
X210800000Y-97362500D03*
%TD*%
D13*
%TO.P,R4,1*%
%TO.N,Manual Feed*%
X190400000Y-118800000D03*
%TO.P,R4,2*%
%TO.N,Net-(R4-Pad2)*%
X188400000Y-118800000D03*
%TD*%
D43*
%TO.N,3.3V*%
X192000000Y-92600000D03*
X195800000Y-120600000D03*
X192000000Y-120800000D03*
X190200000Y-120400000D03*
X172200000Y-111800000D03*
X171000000Y-115600000D03*
X185200000Y-105400000D03*
%TO.N,GND*%
X182200000Y-106000000D03*
X199200000Y-106400000D03*
X198000000Y-108200000D03*
%TO.N,3.3V*%
X180000000Y-103600000D03*
X183800000Y-110800000D03*
X183900000Y-108450000D03*
X183600000Y-105800000D03*
%TO.N,GND*%
X180000000Y-96800000D03*
X169000000Y-104400000D03*
X168800000Y-107800000D03*
X178600000Y-98800000D03*
%TO.N,Net-(U2-IO0)*%
X181000000Y-99000000D03*
X173000000Y-97200000D03*
X171000000Y-97200000D03*
X201187500Y-126012500D03*
%TO.N,HS*%
X195000000Y-107800000D03*
%TO.N,D5*%
X189200000Y-113000000D03*
X187000000Y-109800000D03*
%TO.N,Camera Power*%
X173200000Y-93800000D03*
%TO.N,D0*%
X172000000Y-109600000D03*
X187400000Y-101200000D03*
%TO.N,D1*%
X191000000Y-99600000D03*
%TO.N,D2*%
X200000000Y-109600000D03*
%TO.N,D6*%
X194400000Y-112200000D03*
%TO.N,D4*%
X191800000Y-114800000D03*
%TO.N,MCLK*%
X196600000Y-116200000D03*
%TO.N,Camera Power Signal*%
X191800000Y-117200000D03*
%TO.N,GND*%
X198800000Y-91450000D03*
X210800000Y-94237500D03*
X193800000Y-89037500D03*
X211000000Y-101200000D03*
X203230000Y-77605000D03*
X187800000Y-90600000D03*
X197945000Y-82000000D03*
X201200000Y-89037500D03*
X211000000Y-118700000D03*
X210375000Y-122750000D03*
X196837500Y-85800000D03*
X195400000Y-126200000D03*
X181400000Y-130600000D03*
X208200000Y-94237500D03*
X179850000Y-90600000D03*
X175600000Y-91237500D03*
X192037500Y-83200000D03*
X201000000Y-107600000D03*
X192800000Y-80200000D03*
X197730000Y-77605000D03*
X202425000Y-122750000D03*
%TO.N,Chip_PU*%
X205600000Y-93400000D03*
X190000000Y-93200000D03*
%TO.N,RTS*%
X199400000Y-96600000D03*
%TO.N,DTR*%
X189200000Y-96000000D03*
%TO.N,Net-(U3-ISET)*%
X195800000Y-81600000D03*
X197400000Y-80200000D03*
%TO.N,Net-(U3-~{CHG})*%
X201800000Y-81200000D03*
X190800000Y-84200000D03*
%TO.N,Hall Read*%
X200800000Y-120000000D03*
%TO.N,SDA*%
X208460000Y-118700000D03*
X209000000Y-130000000D03*
%TO.N,VS*%
X193240000Y-105505000D03*
%TO.N,SCL*%
X211290000Y-129690000D03*
X209730000Y-118700000D03*
%TO.N,Manual Feed*%
X195800000Y-116800000D03*
X191800000Y-118800000D03*
%TD*%
D44*
%TO.N,3.3V*%
X192600000Y-94800000D02*
X192600000Y-93200000D01*
X192600000Y-93200000D02*
X192000000Y-92600000D01*
X181850000Y-112750000D02*
X183800000Y-110800000D01*
X173150000Y-112750000D02*
X181850000Y-112750000D01*
X172200000Y-111800000D02*
X173150000Y-112750000D01*
X170429000Y-115600000D02*
X171000000Y-115600000D01*
X168600000Y-113771000D02*
X170429000Y-115600000D01*
%TO.N,GND*%
X199200000Y-107000000D02*
X199200000Y-106400000D01*
X198000000Y-108200000D02*
X199200000Y-107000000D01*
X181600000Y-105400000D02*
X182200000Y-106000000D01*
X181400000Y-105400000D02*
X181600000Y-105400000D01*
X178600000Y-98200000D02*
X178600000Y-98800000D01*
X180000000Y-96800000D02*
X178600000Y-98200000D01*
%TO.N,SCL*%
X173651471Y-98900000D02*
X173860000Y-98900000D01*
X167400000Y-105151471D02*
X173651471Y-98900000D01*
X171600000Y-110200000D02*
X168215256Y-110200000D01*
X171600000Y-124165686D02*
X171600000Y-110200000D01*
X182234314Y-134800000D02*
X171600000Y-124165686D01*
X168215256Y-110200000D02*
X167400000Y-109384744D01*
X167400000Y-109384744D02*
X167400000Y-105151471D01*
X211290000Y-132676346D02*
X209166346Y-134800000D01*
X211290000Y-129690000D02*
X211290000Y-132676346D01*
X209166346Y-134800000D02*
X182234314Y-134800000D01*
%TO.N,GND*%
X169000000Y-107600000D02*
X169000000Y-104400000D01*
X168800000Y-107800000D02*
X169000000Y-107600000D01*
X168600000Y-109000000D02*
X168600000Y-108000000D01*
X168600000Y-108000000D02*
X168800000Y-107800000D01*
X178500000Y-98900000D02*
X178600000Y-98800000D01*
X176400000Y-98900000D02*
X178500000Y-98900000D01*
X198000000Y-132200000D02*
X199980000Y-132200000D01*
X195362500Y-129562500D02*
X198000000Y-132200000D01*
X195362500Y-129562500D02*
X192550000Y-132375000D01*
X195400000Y-129525000D02*
X195362500Y-129562500D01*
X195400000Y-126200000D02*
X195400000Y-129525000D01*
X192600000Y-123400000D02*
X192600000Y-123060000D01*
X195400000Y-126200000D02*
X192600000Y-123400000D01*
X202425000Y-122750000D02*
X210375000Y-122750000D01*
%TO.N,Microcontroller Charge Read*%
X197487500Y-89887500D02*
X195600000Y-88000000D01*
X197487500Y-92390552D02*
X197487500Y-89887500D01*
X198296948Y-93200000D02*
X197487500Y-92390552D01*
X203900000Y-94315256D02*
X202784744Y-93200000D01*
X195600000Y-88000000D02*
X191200000Y-88000000D01*
X202784744Y-93200000D02*
X198296948Y-93200000D01*
X203900000Y-100680000D02*
X203900000Y-94315256D01*
X203380000Y-101200000D02*
X203900000Y-100680000D01*
%TO.N,Chip_PU*%
X179850000Y-95100000D02*
X187800000Y-95100000D01*
%TO.N,Net-(U2-IO0)*%
X171000000Y-97200000D02*
X173000000Y-97200000D01*
X201187500Y-126012500D02*
X202425000Y-127250000D01*
%TO.N,HS*%
X195000000Y-107800000D02*
X193975000Y-106775000D01*
X193975000Y-106775000D02*
X193240000Y-106775000D01*
%TO.N,MCLK*%
X194190000Y-109315000D02*
X193240000Y-109315000D01*
X196600000Y-111725000D02*
X194190000Y-109315000D01*
X196600000Y-116200000D02*
X196600000Y-111725000D01*
%TO.N,D5*%
X189325000Y-113125000D02*
X193240000Y-113125000D01*
X189200000Y-113000000D02*
X189325000Y-113125000D01*
%TO.N,D7*%
X192290000Y-110585000D02*
X193240000Y-110585000D01*
X192190000Y-108090686D02*
X192190000Y-110485000D01*
X176400000Y-103980000D02*
X179690000Y-107270000D01*
X179690000Y-107270000D02*
X191369314Y-107270000D01*
X191369314Y-107270000D02*
X192190000Y-108090686D01*
X192190000Y-110485000D02*
X192290000Y-110585000D01*
%TO.N,D5*%
X183225000Y-109800000D02*
X187000000Y-109800000D01*
X175923654Y-107670000D02*
X181095000Y-107670000D01*
X175250000Y-106996346D02*
X175923654Y-107670000D01*
X175250000Y-106283654D02*
X175250000Y-106996346D01*
X181095000Y-107670000D02*
X183225000Y-109800000D01*
X173860000Y-104893654D02*
X175250000Y-106283654D01*
X173860000Y-103980000D02*
X173860000Y-104893654D01*
%TO.N,D0*%
X172600000Y-110200000D02*
X172000000Y-109600000D01*
X172850000Y-110450000D02*
X172600000Y-110200000D01*
X175250000Y-110450000D02*
X172850000Y-110450000D01*
X176400000Y-111600000D02*
X175250000Y-110450000D01*
X190248529Y-101200000D02*
X187400000Y-101200000D01*
X198050000Y-100000000D02*
X191448529Y-100000000D01*
X198300000Y-100250000D02*
X198050000Y-100000000D01*
X191448529Y-100000000D02*
X190248529Y-101200000D01*
X198300000Y-101200000D02*
X198300000Y-100250000D01*
%TO.N,D1*%
X199570000Y-100250000D02*
X199570000Y-101200000D01*
X198920000Y-99600000D02*
X199570000Y-100250000D01*
X191000000Y-99600000D02*
X198920000Y-99600000D01*
%TO.N,D3*%
X202110000Y-99910000D02*
X202110000Y-101200000D01*
X201200000Y-99000000D02*
X202110000Y-99910000D01*
X187246948Y-99000000D02*
X201200000Y-99000000D01*
X186950000Y-98703052D02*
X187246948Y-99000000D01*
X185990552Y-98962500D02*
X186250000Y-98703052D01*
X186250000Y-98703052D02*
X186950000Y-98703052D01*
X185309448Y-98962500D02*
X185990552Y-98962500D01*
X184346948Y-98000000D02*
X185309448Y-98962500D01*
X182415256Y-98000000D02*
X184346948Y-98000000D01*
X182100000Y-98315256D02*
X182415256Y-98000000D01*
X182100000Y-99684744D02*
X182100000Y-98315256D01*
X181594744Y-100190000D02*
X182100000Y-99684744D01*
X173483654Y-100190000D02*
X181594744Y-100190000D01*
X172710000Y-101916346D02*
X172710000Y-100963654D01*
X173383654Y-102590000D02*
X172710000Y-101916346D01*
X174336346Y-102590000D02*
X173383654Y-102590000D01*
X175250000Y-103503654D02*
X174336346Y-102590000D01*
X175250000Y-105370000D02*
X175250000Y-103503654D01*
X172710000Y-100963654D02*
X173483654Y-100190000D01*
X176400000Y-106520000D02*
X175250000Y-105370000D01*
%TO.N,D2*%
X200400000Y-109200000D02*
X200400000Y-101640000D01*
X200000000Y-109600000D02*
X200400000Y-109200000D01*
X200400000Y-101640000D02*
X200840000Y-101200000D01*
%TO.N,PCLK*%
X192710000Y-108045000D02*
X193240000Y-108045000D01*
X181118664Y-106800000D02*
X191465000Y-106800000D01*
X177148664Y-102830000D02*
X181118664Y-106800000D01*
X175250000Y-102830000D02*
X177148664Y-102830000D01*
X173860000Y-101440000D02*
X175250000Y-102830000D01*
X191465000Y-106800000D02*
X192710000Y-108045000D01*
%TO.N,VS*%
X192295000Y-105505000D02*
X193240000Y-105505000D01*
X191400000Y-106400000D02*
X192295000Y-105505000D01*
X186300000Y-106084744D02*
X186615256Y-106400000D01*
X186300000Y-100878052D02*
X186300000Y-106084744D01*
X177250000Y-100590000D02*
X186011948Y-100590000D01*
X186615256Y-106400000D02*
X191400000Y-106400000D01*
X176400000Y-101440000D02*
X177250000Y-100590000D01*
X186011948Y-100590000D02*
X186300000Y-100878052D01*
%TO.N,D6*%
X194055000Y-111855000D02*
X194400000Y-112200000D01*
X193240000Y-111855000D02*
X194055000Y-111855000D01*
%TO.N,D4*%
X192205000Y-114395000D02*
X191800000Y-114800000D01*
X193240000Y-114395000D02*
X192205000Y-114395000D01*
%TO.N,Camera Power*%
X173860000Y-121060000D02*
X177200000Y-124400000D01*
X173860000Y-119220000D02*
X173860000Y-121060000D01*
%TO.N,Camera Power Signal*%
X191800000Y-116155000D02*
X191800000Y-117200000D01*
X192290000Y-115665000D02*
X191800000Y-116155000D01*
X193240000Y-115665000D02*
X192290000Y-115665000D01*
%TO.N,Motor Power Signal*%
X193240000Y-118527433D02*
X193240000Y-116935000D01*
X188567433Y-123200000D02*
X193240000Y-118527433D01*
X187400000Y-123200000D02*
X188567433Y-123200000D01*
%TO.N,SDA*%
X178600000Y-130600000D02*
X178600000Y-123400000D01*
X178600000Y-123400000D02*
X178200000Y-123400000D01*
X178200000Y-123400000D02*
X177200000Y-122400000D01*
X209000000Y-134400000D02*
X182400000Y-134400000D01*
X208990000Y-134390000D02*
X209000000Y-134400000D01*
X182400000Y-134400000D02*
X178600000Y-130600000D01*
X208990000Y-130010000D02*
X208990000Y-134390000D01*
X209000000Y-130000000D02*
X208990000Y-130010000D01*
%TO.N,3.3V*%
X189175000Y-128140000D02*
X186025000Y-131290000D01*
X192600000Y-128140000D02*
X189175000Y-128140000D01*
%TO.N,GND*%
X195400000Y-126200000D02*
X196587500Y-126200000D01*
X202580000Y-107050000D02*
X203280000Y-107750000D01*
X203280000Y-107750000D02*
X202580000Y-108450000D01*
X203280000Y-109150000D02*
X202580000Y-109850000D01*
X202580000Y-107050000D02*
X201880000Y-107750000D01*
X201730000Y-107600000D02*
X201880000Y-107750000D01*
X203280000Y-107750000D02*
X203980000Y-107050000D01*
X201000000Y-108270000D02*
X201000000Y-107600000D01*
X202580000Y-108450000D02*
X203280000Y-109150000D01*
X202580000Y-109850000D02*
X201000000Y-108270000D01*
X201000000Y-107600000D02*
X201730000Y-107600000D01*
X196587500Y-126200000D02*
X196775000Y-126012500D01*
X201880000Y-109150000D02*
X202580000Y-108450000D01*
X201880000Y-107750000D02*
X202580000Y-108450000D01*
%TO.N,Net-(D1-K)*%
X201200000Y-92162500D02*
X203837500Y-92162500D01*
X203837500Y-92162500D02*
X204600000Y-91400000D01*
X199037500Y-92162500D02*
X198800000Y-92400000D01*
X199537500Y-90500000D02*
X198800000Y-90500000D01*
X201200000Y-92162500D02*
X199037500Y-92162500D01*
X204600000Y-91400000D02*
X208920000Y-91400000D01*
X201200000Y-92162500D02*
X199537500Y-90500000D01*
X208920000Y-91400000D02*
X209000000Y-91480000D01*
%TO.N,Net-(D1-A)*%
X196600000Y-82209999D02*
X197340001Y-82950000D01*
X196600000Y-80200000D02*
X196600000Y-82209999D01*
X203600000Y-80000000D02*
X198400000Y-80000000D01*
X197200000Y-79551471D02*
X197151471Y-79600000D01*
X197151471Y-79600000D02*
X196800000Y-79951471D01*
X204600000Y-81240000D02*
X204600000Y-81000000D01*
X196800000Y-79951471D02*
X196800000Y-80000000D01*
X198000000Y-79600000D02*
X197151471Y-79600000D01*
X197200000Y-79200000D02*
X197200000Y-79551471D01*
X193720000Y-79000000D02*
X197000000Y-79000000D01*
X196600000Y-82209999D02*
X195609999Y-83200000D01*
X197000000Y-79000000D02*
X197200000Y-79200000D01*
X198400000Y-80000000D02*
X198000000Y-79600000D01*
X196800000Y-80000000D02*
X196600000Y-80200000D01*
X187320000Y-72600000D02*
X193720000Y-79000000D01*
X204600000Y-81000000D02*
X203600000Y-80000000D01*
X195609999Y-83200000D02*
X195162500Y-83200000D01*
X197340001Y-82950000D02*
X197945000Y-82950000D01*
%TO.N,Net-(D2-A)*%
X211260000Y-79060000D02*
X209000000Y-81320000D01*
X211260000Y-72600000D02*
X211260000Y-79060000D01*
X201200000Y-85800000D02*
X199962500Y-85800000D01*
X206920000Y-83400000D02*
X209000000Y-81320000D01*
X201800000Y-82000000D02*
X202600000Y-82800000D01*
X200455000Y-82000000D02*
X201800000Y-82000000D01*
X202600000Y-83400000D02*
X206920000Y-83400000D01*
X202600000Y-84400000D02*
X201200000Y-85800000D01*
X202600000Y-83400000D02*
X202600000Y-84400000D01*
X202600000Y-82800000D02*
X202600000Y-83400000D01*
%TO.N,Net-(U2-IO0)*%
X194490000Y-120602500D02*
X194490000Y-118700000D01*
X196775000Y-122887500D02*
X194490000Y-120602500D01*
X199375000Y-126000000D02*
X201175000Y-126000000D01*
X202425000Y-127250000D02*
X210375000Y-127250000D01*
X201175000Y-126000000D02*
X201187500Y-126012500D01*
X199375000Y-126000000D02*
X199375000Y-125487500D01*
X199375000Y-125487500D02*
X196775000Y-122887500D01*
%TO.N,Chip_PU*%
X175600000Y-94362500D02*
X179112500Y-94362500D01*
X205550000Y-95000000D02*
X205550000Y-93450000D01*
X179112500Y-94362500D02*
X179850000Y-95100000D01*
X205550000Y-95000000D02*
X205550000Y-97150000D01*
X205550000Y-97150000D02*
X208460000Y-100060000D01*
X190000000Y-93200000D02*
X190000000Y-94750000D01*
X187800000Y-95100000D02*
X189750000Y-95100000D01*
X189750000Y-95100000D02*
X190050000Y-94800000D01*
X190000000Y-94750000D02*
X190050000Y-94800000D01*
X205550000Y-93450000D02*
X205600000Y-93400000D01*
X208460000Y-100060000D02*
X208460000Y-101200000D01*
%TO.N,Net-(JP1-C)*%
X184650000Y-102800000D02*
X182000000Y-102800000D01*
X182000000Y-102800000D02*
X181400000Y-103400000D01*
%TO.N,RTS*%
X198125000Y-96350000D02*
X199150000Y-96350000D01*
X198125000Y-96350000D02*
X197300000Y-96350000D01*
X199150000Y-96350000D02*
X199400000Y-96600000D01*
X197300000Y-96350000D02*
X195600000Y-94650000D01*
%TO.N,Net-(Q1-C)*%
X202050000Y-95400000D02*
X202450000Y-95000000D01*
X200000000Y-95400000D02*
X202050000Y-95400000D01*
%TO.N,Net-(Q1-B)*%
X194332413Y-96007843D02*
X194332413Y-94107843D01*
X193667157Y-96007843D02*
X194332413Y-96007843D01*
X193150000Y-97400000D02*
X193150000Y-96525000D01*
X193150000Y-96525000D02*
X193667157Y-96007843D01*
X197275000Y-93600000D02*
X198125000Y-94450000D01*
X194332413Y-94107843D02*
X194840256Y-93600000D01*
X194840256Y-93600000D02*
X197275000Y-93600000D01*
%TO.N,Net-(Q2-C)*%
X184350000Y-99800000D02*
X183550000Y-99000000D01*
X186600000Y-99800000D02*
X184350000Y-99800000D01*
%TO.N,Net-(Q2-B)*%
X194750000Y-98600000D02*
X195600000Y-97750000D01*
X188225000Y-98600000D02*
X194750000Y-98600000D01*
X187550000Y-97925000D02*
X188225000Y-98600000D01*
%TO.N,DTR*%
X186400000Y-96600000D02*
X185650000Y-97350000D01*
X189200000Y-96550000D02*
X189250000Y-96600000D01*
X185650000Y-97350000D02*
X185650000Y-97925000D01*
X189250000Y-96600000D02*
X186400000Y-96600000D01*
X190050000Y-97400000D02*
X189250000Y-96600000D01*
X189200000Y-96000000D02*
X189200000Y-96550000D01*
%TO.N,Net-(U3-ISET)*%
X197400000Y-80200000D02*
X197400000Y-80505000D01*
X197400000Y-80505000D02*
X197945000Y-81050000D01*
X195350000Y-81150000D02*
X195800000Y-81600000D01*
X195350000Y-80200000D02*
X195350000Y-81150000D01*
%TO.N,Net-(U3-~{CHG})*%
X200455000Y-81050000D02*
X201650000Y-81050000D01*
X190800000Y-84200000D02*
X190800000Y-85050000D01*
X201650000Y-81050000D02*
X201800000Y-81200000D01*
X190800000Y-85050000D02*
X191200000Y-85450000D01*
%TO.N,Net-(U2-IO46)*%
X192235000Y-104235000D02*
X193240000Y-104235000D01*
X189400000Y-103800000D02*
X191800000Y-103800000D01*
X191800000Y-103800000D02*
X192235000Y-104235000D01*
X187800000Y-105400000D02*
X189400000Y-103800000D01*
X187750000Y-105400000D02*
X187800000Y-105400000D01*
%TO.N,Net-(U2-IO3)*%
X187750000Y-102800000D02*
X193075000Y-102800000D01*
X193075000Y-102800000D02*
X193240000Y-102965000D01*
%TO.N,Net-(SW5-C)*%
X209600000Y-71720000D02*
X208720000Y-72600000D01*
X210400000Y-70400000D02*
X209600000Y-71200000D01*
X219200000Y-77100001D02*
X219200000Y-73200000D01*
X216400000Y-70400000D02*
X210400000Y-70400000D01*
X209600000Y-71200000D02*
X209600000Y-71720000D01*
X219200000Y-78000000D02*
X219200000Y-77100001D01*
X219200000Y-73200000D02*
X216400000Y-70400000D01*
%TO.N,Hall Read*%
X200840000Y-119960000D02*
X200800000Y-120000000D01*
X200840000Y-118700000D02*
X200840000Y-119960000D01*
%TO.N,Net-(J5-Pin_1)*%
X181400000Y-128600000D02*
X185875000Y-128600000D01*
X185875000Y-128600000D02*
X186025000Y-128750000D01*
%TO.N,RX*%
X205920000Y-120520000D02*
X205920000Y-118700000D01*
X211600000Y-121000000D02*
X206400000Y-121000000D01*
X203600000Y-129200000D02*
X204200000Y-128600000D01*
X202520000Y-129880000D02*
X203200000Y-129200000D01*
X204200000Y-128600000D02*
X211400000Y-128600000D01*
X206400000Y-121000000D02*
X205920000Y-120520000D01*
X203200000Y-129200000D02*
X203600000Y-129200000D01*
X211400000Y-128600000D02*
X211600000Y-128400000D01*
X202520000Y-132200000D02*
X202520000Y-129880000D01*
X211600000Y-128400000D02*
X211600000Y-121000000D01*
%TO.N,SDA*%
X177200000Y-120020000D02*
X176400000Y-119220000D01*
X177200000Y-122400000D02*
X177200000Y-120020000D01*
%TO.N,Net-(J6-Pin_10)*%
X173800000Y-109000000D02*
X173860000Y-109060000D01*
X170600000Y-109000000D02*
X173800000Y-109000000D01*
%TO.N,TX*%
X212000000Y-120834315D02*
X211765685Y-120600000D01*
X207190000Y-120390000D02*
X207190000Y-118700000D01*
X211765685Y-120600000D02*
X207400000Y-120600000D01*
X205060000Y-129940000D02*
X206000000Y-129000000D01*
X211565686Y-129000000D02*
X212000000Y-128565686D01*
X205060000Y-132200000D02*
X205060000Y-129940000D01*
X207400000Y-120600000D02*
X207190000Y-120390000D01*
X212000000Y-128565686D02*
X212000000Y-120834315D01*
X206000000Y-129000000D02*
X211565686Y-129000000D01*
%TO.N,SCL*%
X211290000Y-129690000D02*
X211200000Y-129600000D01*
X173860000Y-98900000D02*
X173860000Y-96460000D01*
X173860000Y-96460000D02*
X173200000Y-95800000D01*
%TO.N,Net-(R4-Pad2)*%
X188400000Y-118800000D02*
X188400000Y-116400000D01*
X188400000Y-116400000D02*
X188400000Y-108450000D01*
%TO.N,Manual Feed*%
X201400000Y-116800000D02*
X195800000Y-116800000D01*
X202110000Y-117510000D02*
X201400000Y-116800000D01*
X202110000Y-118700000D02*
X202110000Y-117510000D01*
X190400000Y-118800000D02*
X191800000Y-118800000D01*
%TO.N,Net-(SW4-B)*%
X198960000Y-77210000D02*
X197350000Y-75600000D01*
X192860000Y-75600000D02*
X189860000Y-72600000D01*
X201720000Y-78480000D02*
X202000000Y-78200000D01*
X198960000Y-77605000D02*
X198960000Y-78380000D01*
X197350000Y-75600000D02*
X192860000Y-75600000D01*
X202000000Y-78200000D02*
X202000000Y-77605000D01*
X199060000Y-78480000D02*
X201720000Y-78480000D01*
X198960000Y-78380000D02*
X199060000Y-78480000D01*
X198960000Y-77605000D02*
X198960000Y-77210000D01*
%TD*%
%TA.AperFunction,Conductor*%
%TO.N,3.3V*%
G36*
X230842539Y-69120185D02*
G01*
X230888294Y-69172989D01*
X230899500Y-69224500D01*
X230899500Y-85826000D01*
X230879815Y-85893039D01*
X230827011Y-85938794D01*
X230775500Y-85950000D01*
X212490000Y-85950000D01*
X212490000Y-120175718D01*
X212470315Y-120242757D01*
X212417511Y-120288512D01*
X212348353Y-120298456D01*
X212284797Y-120269431D01*
X212278319Y-120263399D01*
X212253275Y-120238355D01*
X212253273Y-120238352D01*
X212134402Y-120119481D01*
X212134401Y-120119480D01*
X212047589Y-120069360D01*
X212047589Y-120069359D01*
X212047585Y-120069358D01*
X211997470Y-120040423D01*
X211871037Y-120006544D01*
X211811379Y-119970181D01*
X211780850Y-119907334D01*
X211789145Y-119837958D01*
X211803867Y-119812459D01*
X211807543Y-119807547D01*
X211807546Y-119807546D01*
X211893796Y-119692331D01*
X211944091Y-119557483D01*
X211950500Y-119497873D01*
X211950499Y-117902128D01*
X211944091Y-117842517D01*
X211932267Y-117810816D01*
X211893797Y-117707671D01*
X211893793Y-117707664D01*
X211807547Y-117592455D01*
X211807544Y-117592452D01*
X211692335Y-117506206D01*
X211692328Y-117506202D01*
X211557482Y-117455908D01*
X211557483Y-117455908D01*
X211497883Y-117449501D01*
X211497881Y-117449500D01*
X211497873Y-117449500D01*
X211497864Y-117449500D01*
X210502129Y-117449500D01*
X210502123Y-117449501D01*
X210442518Y-117455908D01*
X210408331Y-117468659D01*
X210338639Y-117473642D01*
X210321669Y-117468659D01*
X210287480Y-117455908D01*
X210287482Y-117455908D01*
X210227883Y-117449501D01*
X210227881Y-117449500D01*
X210227873Y-117449500D01*
X210227864Y-117449500D01*
X209232129Y-117449500D01*
X209232123Y-117449501D01*
X209172518Y-117455908D01*
X209138331Y-117468659D01*
X209068639Y-117473642D01*
X209051669Y-117468659D01*
X209017480Y-117455908D01*
X209017482Y-117455908D01*
X208957883Y-117449501D01*
X208957881Y-117449500D01*
X208957873Y-117449500D01*
X208957864Y-117449500D01*
X207962129Y-117449500D01*
X207962123Y-117449501D01*
X207902518Y-117455908D01*
X207868331Y-117468659D01*
X207798639Y-117473642D01*
X207781669Y-117468659D01*
X207747480Y-117455908D01*
X207747482Y-117455908D01*
X207687883Y-117449501D01*
X207687881Y-117449500D01*
X207687873Y-117449500D01*
X207687864Y-117449500D01*
X206692129Y-117449500D01*
X206692123Y-117449501D01*
X206632518Y-117455908D01*
X206598331Y-117468659D01*
X206528639Y-117473642D01*
X206511669Y-117468659D01*
X206477480Y-117455908D01*
X206477482Y-117455908D01*
X206417883Y-117449501D01*
X206417881Y-117449500D01*
X206417873Y-117449500D01*
X206417864Y-117449500D01*
X205422129Y-117449500D01*
X205422123Y-117449501D01*
X205362518Y-117455908D01*
X205328331Y-117468659D01*
X205258639Y-117473642D01*
X205241669Y-117468659D01*
X205207480Y-117455908D01*
X205207482Y-117455908D01*
X205147883Y-117449501D01*
X205147881Y-117449500D01*
X205147873Y-117449500D01*
X205147864Y-117449500D01*
X204152129Y-117449500D01*
X204152123Y-117449501D01*
X204092518Y-117455908D01*
X204058331Y-117468659D01*
X203988639Y-117473642D01*
X203971669Y-117468659D01*
X203937480Y-117455908D01*
X203937482Y-117455908D01*
X203877883Y-117449501D01*
X203877881Y-117449500D01*
X203877873Y-117449500D01*
X203877864Y-117449500D01*
X202882129Y-117449500D01*
X202882120Y-117449501D01*
X202825689Y-117455567D01*
X202756930Y-117443159D01*
X202705794Y-117395548D01*
X202692663Y-117364375D01*
X202669577Y-117278216D01*
X202637625Y-117222873D01*
X202590524Y-117141290D01*
X202590518Y-117141282D01*
X201887590Y-116438355D01*
X201887588Y-116438352D01*
X201768717Y-116319481D01*
X201768709Y-116319475D01*
X201666936Y-116260717D01*
X201666934Y-116260716D01*
X201631790Y-116240425D01*
X201631789Y-116240424D01*
X201608027Y-116234057D01*
X201479057Y-116199499D01*
X201320943Y-116199499D01*
X201313347Y-116199499D01*
X201313331Y-116199500D01*
X197516322Y-116199500D01*
X197449283Y-116179815D01*
X197403528Y-116127011D01*
X197393102Y-116089383D01*
X197385369Y-116020750D01*
X197385368Y-116020748D01*
X197385368Y-116020745D01*
X197325789Y-115850478D01*
X197229816Y-115697738D01*
X197229814Y-115697736D01*
X197229813Y-115697734D01*
X197227550Y-115694896D01*
X197226659Y-115692715D01*
X197226111Y-115691842D01*
X197226264Y-115691745D01*
X197201144Y-115630209D01*
X197200500Y-115617587D01*
X197200500Y-111814060D01*
X197200501Y-111814047D01*
X197200501Y-111645944D01*
X197159576Y-111493214D01*
X197159573Y-111493209D01*
X197080524Y-111356290D01*
X197080518Y-111356282D01*
X194677590Y-108953355D01*
X194677588Y-108953352D01*
X194558717Y-108834481D01*
X194558712Y-108834477D01*
X194538798Y-108822980D01*
X194490582Y-108772413D01*
X194484616Y-108758925D01*
X194471341Y-108723332D01*
X194466357Y-108653640D01*
X194471340Y-108636669D01*
X194474756Y-108627511D01*
X194484091Y-108602483D01*
X194484091Y-108602478D01*
X194486168Y-108596911D01*
X194528038Y-108540976D01*
X194593502Y-108516558D01*
X194643015Y-108526031D01*
X194643905Y-108523489D01*
X194820745Y-108585368D01*
X194820750Y-108585369D01*
X194999996Y-108605565D01*
X195000000Y-108605565D01*
X195000004Y-108605565D01*
X195179249Y-108585369D01*
X195179252Y-108585368D01*
X195179255Y-108585368D01*
X195349522Y-108525789D01*
X195502262Y-108429816D01*
X195629816Y-108302262D01*
X195725789Y-108149522D01*
X195785368Y-107979255D01*
X195798220Y-107865189D01*
X195805565Y-107800003D01*
X195805565Y-107799996D01*
X195785369Y-107620750D01*
X195785368Y-107620745D01*
X195753762Y-107530420D01*
X195725789Y-107450478D01*
X195711622Y-107427932D01*
X195629815Y-107297737D01*
X195502262Y-107170184D01*
X195349521Y-107074210D01*
X195179249Y-107014630D01*
X195092330Y-107004837D01*
X195027916Y-106977770D01*
X195018533Y-106969298D01*
X194526818Y-106477583D01*
X194493333Y-106416260D01*
X194490499Y-106389902D01*
X194490499Y-106277129D01*
X194490498Y-106277123D01*
X194488406Y-106257664D01*
X194484091Y-106217517D01*
X194471340Y-106183332D01*
X194466357Y-106113642D01*
X194471338Y-106096672D01*
X194484091Y-106062483D01*
X194490500Y-106002873D01*
X194490499Y-105007128D01*
X194484091Y-104947517D01*
X194471340Y-104913332D01*
X194466357Y-104843642D01*
X194471338Y-104826672D01*
X194484091Y-104792483D01*
X194490500Y-104732873D01*
X194490499Y-103737128D01*
X194484091Y-103677517D01*
X194471340Y-103643332D01*
X194466357Y-103573642D01*
X194471338Y-103556672D01*
X194484091Y-103522483D01*
X194490500Y-103462873D01*
X194490499Y-102574498D01*
X194510183Y-102507460D01*
X194562987Y-102461705D01*
X194614499Y-102450499D01*
X194987871Y-102450499D01*
X194987872Y-102450499D01*
X195047483Y-102444091D01*
X195081667Y-102431340D01*
X195151358Y-102426357D01*
X195168327Y-102431338D01*
X195202517Y-102444091D01*
X195262127Y-102450500D01*
X196257872Y-102450499D01*
X196317483Y-102444091D01*
X196351667Y-102431340D01*
X196421358Y-102426357D01*
X196438327Y-102431338D01*
X196472517Y-102444091D01*
X196532127Y-102450500D01*
X197527872Y-102450499D01*
X197587483Y-102444091D01*
X197621667Y-102431340D01*
X197691358Y-102426357D01*
X197708327Y-102431338D01*
X197742517Y-102444091D01*
X197802127Y-102450500D01*
X198797872Y-102450499D01*
X198857483Y-102444091D01*
X198891667Y-102431340D01*
X198961358Y-102426357D01*
X198978327Y-102431338D01*
X199006462Y-102441832D01*
X199012511Y-102444089D01*
X199012517Y-102444091D01*
X199072127Y-102450500D01*
X199675500Y-102450499D01*
X199742539Y-102470183D01*
X199788294Y-102522987D01*
X199799500Y-102574499D01*
X199799500Y-105606921D01*
X199779815Y-105673960D01*
X199727011Y-105719715D01*
X199657853Y-105729659D01*
X199609528Y-105711915D01*
X199549523Y-105674211D01*
X199379254Y-105614631D01*
X199379249Y-105614630D01*
X199200004Y-105594435D01*
X199199996Y-105594435D01*
X199020750Y-105614630D01*
X199020745Y-105614631D01*
X198850476Y-105674211D01*
X198697737Y-105770184D01*
X198570184Y-105897737D01*
X198474211Y-106050476D01*
X198414631Y-106220745D01*
X198414630Y-106220750D01*
X198394435Y-106399996D01*
X198394435Y-106400003D01*
X198414630Y-106579249D01*
X198414633Y-106579262D01*
X198474210Y-106749521D01*
X198477231Y-106755794D01*
X198474353Y-106757179D01*
X198489621Y-106810779D01*
X198469395Y-106877657D01*
X198453306Y-106897457D01*
X197981465Y-107369298D01*
X197920142Y-107402783D01*
X197907668Y-107404837D01*
X197820750Y-107414630D01*
X197650478Y-107474210D01*
X197497737Y-107570184D01*
X197370184Y-107697737D01*
X197274211Y-107850476D01*
X197214631Y-108020745D01*
X197214630Y-108020750D01*
X197194435Y-108199996D01*
X197194435Y-108200000D01*
X197214630Y-108379249D01*
X197214631Y-108379254D01*
X197274211Y-108549523D01*
X197328969Y-108636669D01*
X197370184Y-108702262D01*
X197497738Y-108829816D01*
X197650478Y-108925789D01*
X197777352Y-108970184D01*
X197820745Y-108985368D01*
X197820750Y-108985369D01*
X197999996Y-109005565D01*
X198000000Y-109005565D01*
X198000004Y-109005565D01*
X198179249Y-108985369D01*
X198179252Y-108985368D01*
X198179255Y-108985368D01*
X198349522Y-108925789D01*
X198502262Y-108829816D01*
X198629816Y-108702262D01*
X198725789Y-108549522D01*
X198785368Y-108379255D01*
X198795161Y-108292329D01*
X198822226Y-108227918D01*
X198830690Y-108218543D01*
X199558506Y-107490728D01*
X199558511Y-107490724D01*
X199568715Y-107480520D01*
X199568716Y-107480520D01*
X199587819Y-107461417D01*
X199649142Y-107427932D01*
X199718834Y-107432916D01*
X199774767Y-107474788D01*
X199799184Y-107540252D01*
X199799500Y-107549098D01*
X199799500Y-108734083D01*
X199779815Y-108801122D01*
X199727011Y-108846877D01*
X199716456Y-108851124D01*
X199650476Y-108874211D01*
X199650475Y-108874212D01*
X199497737Y-108970184D01*
X199370184Y-109097737D01*
X199274211Y-109250476D01*
X199214631Y-109420745D01*
X199214630Y-109420750D01*
X199194435Y-109599996D01*
X199194435Y-109600003D01*
X199214630Y-109779249D01*
X199214631Y-109779254D01*
X199274211Y-109949523D01*
X199359813Y-110085757D01*
X199370184Y-110102262D01*
X199497738Y-110229816D01*
X199522134Y-110245145D01*
X199634513Y-110315758D01*
X199650478Y-110325789D01*
X199747033Y-110359575D01*
X199820745Y-110385368D01*
X199820750Y-110385369D01*
X199999996Y-110405565D01*
X200000000Y-110405565D01*
X200000004Y-110405565D01*
X200179249Y-110385369D01*
X200179252Y-110385368D01*
X200179255Y-110385368D01*
X200349522Y-110325789D01*
X200502262Y-110229816D01*
X200617822Y-110114255D01*
X200679141Y-110080773D01*
X200748833Y-110085757D01*
X200804767Y-110127628D01*
X200829184Y-110193092D01*
X200829500Y-110201939D01*
X200829500Y-110447869D01*
X200829501Y-110447876D01*
X200835908Y-110507483D01*
X200886202Y-110642328D01*
X200886206Y-110642335D01*
X200972452Y-110757544D01*
X200972455Y-110757547D01*
X201087664Y-110843793D01*
X201087671Y-110843797D01*
X201222517Y-110894091D01*
X201222516Y-110894091D01*
X201229444Y-110894835D01*
X201282127Y-110900500D01*
X205277872Y-110900499D01*
X205337483Y-110894091D01*
X205472331Y-110843796D01*
X205587546Y-110757546D01*
X205673796Y-110642331D01*
X205724091Y-110507483D01*
X205730500Y-110447873D01*
X205730499Y-106452128D01*
X205724091Y-106392517D01*
X205716988Y-106373474D01*
X205673797Y-106257671D01*
X205673793Y-106257664D01*
X205587547Y-106142455D01*
X205587544Y-106142452D01*
X205472335Y-106056206D01*
X205472328Y-106056202D01*
X205337482Y-106005908D01*
X205337483Y-106005908D01*
X205277883Y-105999501D01*
X205277881Y-105999500D01*
X205277873Y-105999500D01*
X205277864Y-105999500D01*
X201282129Y-105999500D01*
X201282123Y-105999501D01*
X201222515Y-106005909D01*
X201167832Y-106026304D01*
X201098140Y-106031288D01*
X201036818Y-105997802D01*
X201003333Y-105936479D01*
X201000500Y-105910122D01*
X201000500Y-102574499D01*
X201020185Y-102507460D01*
X201072989Y-102461705D01*
X201124500Y-102450499D01*
X201337871Y-102450499D01*
X201337872Y-102450499D01*
X201397483Y-102444091D01*
X201431667Y-102431340D01*
X201501358Y-102426357D01*
X201518327Y-102431338D01*
X201552517Y-102444091D01*
X201612127Y-102450500D01*
X202607872Y-102450499D01*
X202667483Y-102444091D01*
X202701667Y-102431340D01*
X202771358Y-102426357D01*
X202788327Y-102431338D01*
X202822517Y-102444091D01*
X202882127Y-102450500D01*
X203877872Y-102450499D01*
X203937483Y-102444091D01*
X203971667Y-102431340D01*
X204041358Y-102426357D01*
X204058327Y-102431338D01*
X204092517Y-102444091D01*
X204152127Y-102450500D01*
X205147872Y-102450499D01*
X205207483Y-102444091D01*
X205241667Y-102431340D01*
X205311358Y-102426357D01*
X205328327Y-102431338D01*
X205362517Y-102444091D01*
X205422127Y-102450500D01*
X206417872Y-102450499D01*
X206477483Y-102444091D01*
X206511667Y-102431340D01*
X206581358Y-102426357D01*
X206598327Y-102431338D01*
X206632517Y-102444091D01*
X206692127Y-102450500D01*
X207687872Y-102450499D01*
X207747483Y-102444091D01*
X207781667Y-102431340D01*
X207851358Y-102426357D01*
X207868327Y-102431338D01*
X207902517Y-102444091D01*
X207962127Y-102450500D01*
X208957872Y-102450499D01*
X209017483Y-102444091D01*
X209052381Y-102431074D01*
X209122069Y-102426089D01*
X209139050Y-102431075D01*
X209172623Y-102443598D01*
X209232155Y-102449999D01*
X209232172Y-102450000D01*
X209480000Y-102450000D01*
X209480000Y-99950000D01*
X209980000Y-99950000D01*
X209980000Y-102450000D01*
X210227828Y-102450000D01*
X210227844Y-102449999D01*
X210287372Y-102443598D01*
X210287375Y-102443597D01*
X210320949Y-102431075D01*
X210390640Y-102426089D01*
X210407619Y-102431075D01*
X210442511Y-102444089D01*
X210442512Y-102444089D01*
X210442517Y-102444091D01*
X210502127Y-102450500D01*
X211497872Y-102450499D01*
X211557483Y-102444091D01*
X211692331Y-102393796D01*
X211807546Y-102307546D01*
X211893796Y-102192331D01*
X211944091Y-102057483D01*
X211950500Y-101997873D01*
X211950499Y-100402128D01*
X211944091Y-100342517D01*
X211936526Y-100322235D01*
X211893797Y-100207671D01*
X211893793Y-100207664D01*
X211807547Y-100092455D01*
X211807544Y-100092452D01*
X211692335Y-100006206D01*
X211692328Y-100006202D01*
X211557482Y-99955908D01*
X211557483Y-99955908D01*
X211497883Y-99949501D01*
X211497881Y-99949500D01*
X211497873Y-99949500D01*
X211497864Y-99949500D01*
X210502129Y-99949500D01*
X210502123Y-99949501D01*
X210442520Y-99955908D01*
X210442517Y-99955908D01*
X210442517Y-99955909D01*
X210407620Y-99968925D01*
X210407617Y-99968926D01*
X210337925Y-99973909D01*
X210320952Y-99968925D01*
X210287379Y-99956403D01*
X210287372Y-99956401D01*
X210227844Y-99950000D01*
X209980000Y-99950000D01*
X209480000Y-99950000D01*
X209232155Y-99950000D01*
X209164913Y-99957231D01*
X209164606Y-99954383D01*
X209108319Y-99951346D01*
X209051662Y-99910459D01*
X209029840Y-99866519D01*
X209019577Y-99828216D01*
X209019574Y-99828211D01*
X209019574Y-99828209D01*
X208940524Y-99691290D01*
X208940521Y-99691286D01*
X208940520Y-99691284D01*
X208828716Y-99579480D01*
X208828715Y-99579479D01*
X208824385Y-99575149D01*
X208824374Y-99575139D01*
X207949798Y-98700563D01*
X207916313Y-98639240D01*
X207921297Y-98569548D01*
X207949798Y-98525201D01*
X207950000Y-98524999D01*
X208450000Y-98524999D01*
X208899972Y-98524999D01*
X208899986Y-98524998D01*
X209002697Y-98514505D01*
X209169119Y-98459358D01*
X209169124Y-98459356D01*
X209318345Y-98367315D01*
X209412319Y-98273342D01*
X209473642Y-98239857D01*
X209543334Y-98244841D01*
X209587681Y-98273342D01*
X209681654Y-98367315D01*
X209830875Y-98459356D01*
X209830880Y-98459358D01*
X209997302Y-98514505D01*
X209997309Y-98514506D01*
X210100019Y-98524999D01*
X210549999Y-98524999D01*
X211050000Y-98524999D01*
X211499972Y-98524999D01*
X211499986Y-98524998D01*
X211602697Y-98514505D01*
X211769119Y-98459358D01*
X211769124Y-98459356D01*
X211918345Y-98367315D01*
X212042315Y-98243345D01*
X212134356Y-98094124D01*
X212134358Y-98094119D01*
X212189505Y-97927697D01*
X212189506Y-97927690D01*
X212199999Y-97824986D01*
X212200000Y-97824973D01*
X212200000Y-97612500D01*
X211050000Y-97612500D01*
X211050000Y-98524999D01*
X210549999Y-98524999D01*
X210550000Y-98524998D01*
X210550000Y-97612500D01*
X208450000Y-97612500D01*
X208450000Y-98524999D01*
X207950000Y-98524999D01*
X207950000Y-97612500D01*
X206913097Y-97612500D01*
X206846058Y-97592815D01*
X206825416Y-97576181D01*
X206186819Y-96937584D01*
X206166304Y-96900013D01*
X206800000Y-96900013D01*
X206800000Y-97112500D01*
X207950000Y-97112500D01*
X208450000Y-97112500D01*
X210550000Y-97112500D01*
X211050000Y-97112500D01*
X212199999Y-97112500D01*
X212199999Y-96900028D01*
X212199998Y-96900013D01*
X212189505Y-96797302D01*
X212134358Y-96630880D01*
X212134356Y-96630875D01*
X212042315Y-96481654D01*
X211918345Y-96357684D01*
X211769124Y-96265643D01*
X211769119Y-96265641D01*
X211602697Y-96210494D01*
X211602690Y-96210493D01*
X211499986Y-96200000D01*
X211050000Y-96200000D01*
X211050000Y-97112500D01*
X210550000Y-97112500D01*
X210550000Y-96200000D01*
X210100028Y-96200000D01*
X210100012Y-96200001D01*
X209997302Y-96210494D01*
X209830880Y-96265641D01*
X209830875Y-96265643D01*
X209681654Y-96357684D01*
X209587681Y-96451658D01*
X209526358Y-96485143D01*
X209456666Y-96480159D01*
X209412319Y-96451658D01*
X209318345Y-96357684D01*
X209169124Y-96265643D01*
X209169119Y-96265641D01*
X209002697Y-96210494D01*
X209002690Y-96210493D01*
X208899986Y-96200000D01*
X208450000Y-96200000D01*
X208450000Y-97112500D01*
X207950000Y-97112500D01*
X207950000Y-96200000D01*
X207500028Y-96200000D01*
X207500012Y-96200001D01*
X207397302Y-96210494D01*
X207230880Y-96265641D01*
X207230875Y-96265643D01*
X207081654Y-96357684D01*
X206957684Y-96481654D01*
X206865643Y-96630875D01*
X206865641Y-96630880D01*
X206810494Y-96797302D01*
X206810493Y-96797309D01*
X206800000Y-96900013D01*
X206166304Y-96900013D01*
X206153334Y-96876261D01*
X206150500Y-96849903D01*
X206150500Y-94032940D01*
X206170185Y-93965901D01*
X206186819Y-93945259D01*
X206202263Y-93929815D01*
X206229816Y-93902262D01*
X206325789Y-93749522D01*
X206385368Y-93579255D01*
X206388718Y-93549522D01*
X206405565Y-93400003D01*
X206405565Y-93399996D01*
X206385369Y-93220750D01*
X206385368Y-93220745D01*
X206382371Y-93212180D01*
X206325789Y-93050478D01*
X206307106Y-93020745D01*
X206229815Y-92897737D01*
X206181295Y-92849217D01*
X206147810Y-92787894D01*
X206152793Y-92718207D01*
X206194091Y-92607483D01*
X206200500Y-92547873D01*
X206200500Y-92124500D01*
X206220185Y-92057461D01*
X206272989Y-92011706D01*
X206324500Y-92000500D01*
X207275501Y-92000500D01*
X207342540Y-92020185D01*
X207388295Y-92072989D01*
X207399501Y-92124500D01*
X207399501Y-92627876D01*
X207405908Y-92687483D01*
X207456202Y-92822328D01*
X207456203Y-92822330D01*
X207503372Y-92885339D01*
X207527789Y-92950803D01*
X207512938Y-93019076D01*
X207463533Y-93068482D01*
X207416710Y-93083008D01*
X207397201Y-93085001D01*
X207397200Y-93085001D01*
X207230668Y-93140185D01*
X207230663Y-93140187D01*
X207081342Y-93232289D01*
X206957289Y-93356342D01*
X206865187Y-93505663D01*
X206865185Y-93505668D01*
X206850653Y-93549523D01*
X206810001Y-93672203D01*
X206810001Y-93672204D01*
X206810000Y-93672204D01*
X206799500Y-93774983D01*
X206799500Y-94700001D01*
X206799501Y-94700019D01*
X206810000Y-94802796D01*
X206810001Y-94802799D01*
X206865185Y-94969331D01*
X206865187Y-94969336D01*
X206872594Y-94981344D01*
X206957288Y-95118656D01*
X207081344Y-95242712D01*
X207230666Y-95334814D01*
X207397203Y-95389999D01*
X207499991Y-95400500D01*
X208900008Y-95400499D01*
X209002797Y-95389999D01*
X209169334Y-95334814D01*
X209318656Y-95242712D01*
X209412319Y-95149049D01*
X209473642Y-95115564D01*
X209543334Y-95120548D01*
X209587681Y-95149049D01*
X209681344Y-95242712D01*
X209830666Y-95334814D01*
X209997203Y-95389999D01*
X210099991Y-95400500D01*
X211500008Y-95400499D01*
X211602797Y-95389999D01*
X211769334Y-95334814D01*
X211918656Y-95242712D01*
X212042712Y-95118656D01*
X212134814Y-94969334D01*
X212189999Y-94802797D01*
X212200500Y-94700009D01*
X212200499Y-93774992D01*
X212199473Y-93764951D01*
X212189999Y-93672203D01*
X212189998Y-93672200D01*
X212175127Y-93627323D01*
X212134814Y-93505666D01*
X212042712Y-93356344D01*
X211918656Y-93232288D01*
X211769334Y-93140186D01*
X211602797Y-93085001D01*
X211602795Y-93085000D01*
X211500016Y-93074500D01*
X211500009Y-93074500D01*
X210602745Y-93074500D01*
X210535706Y-93054815D01*
X210489951Y-93002011D01*
X210480007Y-92932853D01*
X210503478Y-92876189D01*
X210522725Y-92850478D01*
X210543796Y-92822331D01*
X210594091Y-92687483D01*
X210600500Y-92627873D01*
X210600499Y-90332128D01*
X210594091Y-90272517D01*
X210586486Y-90252128D01*
X210543797Y-90137671D01*
X210543793Y-90137664D01*
X210457547Y-90022455D01*
X210457544Y-90022452D01*
X210342335Y-89936206D01*
X210342328Y-89936202D01*
X210207482Y-89885908D01*
X210207483Y-89885908D01*
X210147883Y-89879501D01*
X210147881Y-89879500D01*
X210147873Y-89879500D01*
X210147864Y-89879500D01*
X207852129Y-89879500D01*
X207852123Y-89879501D01*
X207792516Y-89885908D01*
X207657671Y-89936202D01*
X207657664Y-89936206D01*
X207542455Y-90022452D01*
X207542452Y-90022455D01*
X207456206Y-90137664D01*
X207456202Y-90137671D01*
X207405908Y-90272517D01*
X207404642Y-90284298D01*
X207399501Y-90332123D01*
X207399500Y-90332135D01*
X207399500Y-90675500D01*
X207379815Y-90742539D01*
X207327011Y-90788294D01*
X207275500Y-90799500D01*
X206324499Y-90799500D01*
X206257460Y-90779815D01*
X206211705Y-90727011D01*
X206200499Y-90675500D01*
X206200499Y-90252129D01*
X206200498Y-90252123D01*
X206200497Y-90252116D01*
X206194091Y-90192517D01*
X206193151Y-90189998D01*
X206143797Y-90057671D01*
X206143793Y-90057664D01*
X206057547Y-89942455D01*
X206057544Y-89942452D01*
X205942335Y-89856206D01*
X205942328Y-89856202D01*
X205807482Y-89805908D01*
X205807483Y-89805908D01*
X205747883Y-89799501D01*
X205747881Y-89799500D01*
X205747873Y-89799500D01*
X205747864Y-89799500D01*
X203452129Y-89799500D01*
X203452123Y-89799501D01*
X203392516Y-89805908D01*
X203257671Y-89856202D01*
X203257664Y-89856206D01*
X203142455Y-89942452D01*
X203142452Y-89942455D01*
X203056206Y-90057664D01*
X203056202Y-90057671D01*
X203005908Y-90192517D01*
X203000005Y-90247426D01*
X202999501Y-90252123D01*
X202999500Y-90252135D01*
X202999501Y-91438000D01*
X202979816Y-91505039D01*
X202927013Y-91550794D01*
X202875501Y-91562000D01*
X202667875Y-91562000D01*
X202600836Y-91542315D01*
X202555081Y-91489511D01*
X202550169Y-91477005D01*
X202549836Y-91476000D01*
X202534814Y-91430666D01*
X202442712Y-91281344D01*
X202318656Y-91157288D01*
X202169334Y-91065186D01*
X202002797Y-91010001D01*
X202002795Y-91010000D01*
X201900016Y-90999500D01*
X201900009Y-90999500D01*
X200937597Y-90999500D01*
X200870558Y-90979815D01*
X200849916Y-90963181D01*
X200286240Y-90399505D01*
X200252755Y-90338182D01*
X200257739Y-90268490D01*
X200299611Y-90212557D01*
X200365075Y-90188140D01*
X200390407Y-90189910D01*
X200390469Y-90189311D01*
X200397202Y-90189998D01*
X200397203Y-90189999D01*
X200499991Y-90200500D01*
X201900008Y-90200499D01*
X202002797Y-90189999D01*
X202169334Y-90134814D01*
X202318656Y-90042712D01*
X202442712Y-89918656D01*
X202534814Y-89769334D01*
X202589999Y-89602797D01*
X202600500Y-89500009D01*
X202600499Y-88574992D01*
X202589999Y-88472203D01*
X202534814Y-88305666D01*
X202442712Y-88156344D01*
X202318656Y-88032288D01*
X202169334Y-87940186D01*
X202002797Y-87885001D01*
X202002795Y-87885000D01*
X201900010Y-87874500D01*
X200499998Y-87874500D01*
X200499981Y-87874501D01*
X200397203Y-87885000D01*
X200397200Y-87885001D01*
X200230668Y-87940185D01*
X200230663Y-87940187D01*
X200081342Y-88032289D01*
X199957289Y-88156342D01*
X199865187Y-88305663D01*
X199865186Y-88305666D01*
X199810001Y-88472203D01*
X199810001Y-88472204D01*
X199810000Y-88472204D01*
X199799500Y-88574983D01*
X199799500Y-89500001D01*
X199799501Y-89500019D01*
X199810000Y-89602796D01*
X199823603Y-89643844D01*
X199826005Y-89713673D01*
X199790274Y-89773715D01*
X199727753Y-89804908D01*
X199658294Y-89797348D01*
X199642777Y-89789582D01*
X199608534Y-89769331D01*
X199572898Y-89748256D01*
X199572896Y-89748255D01*
X199572894Y-89748254D01*
X199415073Y-89702402D01*
X199415067Y-89702401D01*
X199378201Y-89699500D01*
X199378194Y-89699500D01*
X198221806Y-89699500D01*
X198221798Y-89699500D01*
X198184932Y-89702401D01*
X198184927Y-89702402D01*
X198183315Y-89702871D01*
X198182378Y-89702868D01*
X198178701Y-89703540D01*
X198178576Y-89702856D01*
X198113445Y-89702663D01*
X198054780Y-89664714D01*
X198041347Y-89645790D01*
X198001505Y-89576782D01*
X198001504Y-89576781D01*
X197968021Y-89518786D01*
X197968020Y-89518784D01*
X197856216Y-89406980D01*
X197856215Y-89406979D01*
X197851885Y-89402649D01*
X197851874Y-89402639D01*
X196087590Y-87638355D01*
X196087588Y-87638352D01*
X195968717Y-87519481D01*
X195968716Y-87519480D01*
X195881904Y-87469360D01*
X195881904Y-87469359D01*
X195881900Y-87469358D01*
X195831785Y-87440423D01*
X195679057Y-87399499D01*
X195520943Y-87399499D01*
X195513347Y-87399499D01*
X195513331Y-87399500D01*
X192445908Y-87399500D01*
X192378869Y-87379815D01*
X192340363Y-87335728D01*
X192338605Y-87336813D01*
X192254527Y-87200500D01*
X192242712Y-87181344D01*
X192149049Y-87087681D01*
X192115564Y-87026358D01*
X192120548Y-86956666D01*
X192149049Y-86912319D01*
X192242712Y-86818656D01*
X192334814Y-86669334D01*
X192389999Y-86502797D01*
X192400500Y-86400009D01*
X192400499Y-85599992D01*
X192389999Y-85497203D01*
X192334814Y-85330666D01*
X192242712Y-85181344D01*
X192118656Y-85057288D01*
X191969334Y-84965186D01*
X191802797Y-84910001D01*
X191802795Y-84910000D01*
X191700016Y-84899500D01*
X191700009Y-84899500D01*
X191550097Y-84899500D01*
X191483058Y-84879815D01*
X191462416Y-84863181D01*
X191450223Y-84850988D01*
X191416738Y-84789665D01*
X191421722Y-84719973D01*
X191432905Y-84697344D01*
X191457681Y-84657913D01*
X191510016Y-84611623D01*
X191571791Y-84601126D01*
X191571832Y-84600339D01*
X191574968Y-84600497D01*
X191574991Y-84600500D01*
X192500008Y-84600499D01*
X192500016Y-84600498D01*
X192500019Y-84600498D01*
X192576346Y-84592701D01*
X192602797Y-84589999D01*
X192769334Y-84534814D01*
X192918656Y-84442712D01*
X193042712Y-84318656D01*
X193134814Y-84169334D01*
X193189999Y-84002797D01*
X193200500Y-83900009D01*
X193200499Y-82499992D01*
X193189999Y-82397203D01*
X193134814Y-82230666D01*
X193042712Y-82081344D01*
X192918656Y-81957288D01*
X192815965Y-81893948D01*
X192769336Y-81865187D01*
X192769331Y-81865185D01*
X192767862Y-81864698D01*
X192602797Y-81810001D01*
X192602795Y-81810000D01*
X192500010Y-81799500D01*
X191574998Y-81799500D01*
X191574980Y-81799501D01*
X191472203Y-81810000D01*
X191472200Y-81810001D01*
X191305668Y-81865185D01*
X191305663Y-81865187D01*
X191156342Y-81957289D01*
X191032289Y-82081342D01*
X190940187Y-82230663D01*
X190940185Y-82230668D01*
X190931691Y-82256301D01*
X190885001Y-82397203D01*
X190885001Y-82397204D01*
X190885000Y-82397204D01*
X190874500Y-82499983D01*
X190874500Y-83275227D01*
X190854815Y-83342266D01*
X190802011Y-83388021D01*
X190764384Y-83398447D01*
X190620749Y-83414630D01*
X190620745Y-83414631D01*
X190450476Y-83474211D01*
X190297737Y-83570184D01*
X190170184Y-83697737D01*
X190074211Y-83850476D01*
X190014631Y-84020745D01*
X190014630Y-84020750D01*
X189994435Y-84199996D01*
X189994435Y-84200003D01*
X190014630Y-84379249D01*
X190014631Y-84379254D01*
X190074211Y-84549523D01*
X190125898Y-84631782D01*
X190157040Y-84681344D01*
X190170185Y-84702263D01*
X190172445Y-84705097D01*
X190173334Y-84707275D01*
X190173889Y-84708158D01*
X190173734Y-84708255D01*
X190198855Y-84769783D01*
X190199500Y-84782412D01*
X190199500Y-84963330D01*
X190199499Y-84963348D01*
X190199499Y-85087770D01*
X190179814Y-85154809D01*
X190163184Y-85175447D01*
X190157291Y-85181339D01*
X190065187Y-85330663D01*
X190065186Y-85330666D01*
X190010001Y-85497203D01*
X190010001Y-85497204D01*
X190010000Y-85497204D01*
X189999500Y-85599983D01*
X189999500Y-86400001D01*
X189999501Y-86400019D01*
X190010000Y-86502796D01*
X190010001Y-86502799D01*
X190043137Y-86602794D01*
X190065186Y-86669334D01*
X190126867Y-86769336D01*
X190157289Y-86818657D01*
X190250951Y-86912319D01*
X190284436Y-86973642D01*
X190279452Y-87043334D01*
X190250951Y-87087681D01*
X190157289Y-87181342D01*
X190065187Y-87330663D01*
X190065185Y-87330668D01*
X190042377Y-87399499D01*
X190010001Y-87497203D01*
X190010001Y-87497204D01*
X190010000Y-87497204D01*
X189999500Y-87599983D01*
X189999500Y-88400001D01*
X189999501Y-88400019D01*
X190010000Y-88502796D01*
X190010001Y-88502799D01*
X190065185Y-88669331D01*
X190065187Y-88669336D01*
X190100069Y-88725888D01*
X190157288Y-88818656D01*
X190281344Y-88942712D01*
X190430666Y-89034814D01*
X190597203Y-89089999D01*
X190699991Y-89100500D01*
X191700008Y-89100499D01*
X191700016Y-89100498D01*
X191700019Y-89100498D01*
X191756302Y-89094748D01*
X191802797Y-89089999D01*
X191969334Y-89034814D01*
X192118656Y-88942712D01*
X192187822Y-88873545D01*
X192249141Y-88840063D01*
X192318833Y-88845047D01*
X192374767Y-88886918D01*
X192399184Y-88952382D01*
X192399500Y-88961229D01*
X192399500Y-89500001D01*
X192399501Y-89500019D01*
X192410000Y-89602796D01*
X192410001Y-89602799D01*
X192465185Y-89769331D01*
X192465187Y-89769336D01*
X192500069Y-89825888D01*
X192557288Y-89918656D01*
X192681344Y-90042712D01*
X192830666Y-90134814D01*
X192997203Y-90189999D01*
X193099991Y-90200500D01*
X194500008Y-90200499D01*
X194602797Y-90189999D01*
X194769334Y-90134814D01*
X194918656Y-90042712D01*
X195042712Y-89918656D01*
X195134814Y-89769334D01*
X195189999Y-89602797D01*
X195200500Y-89500009D01*
X195200499Y-88749095D01*
X195220183Y-88682057D01*
X195272987Y-88636302D01*
X195342146Y-88626358D01*
X195405702Y-88655383D01*
X195412180Y-88661415D01*
X196238584Y-89487819D01*
X196272069Y-89549142D01*
X196267085Y-89618834D01*
X196225213Y-89674767D01*
X196159749Y-89699184D01*
X196150903Y-89699500D01*
X195946798Y-89699500D01*
X195909932Y-89702401D01*
X195909926Y-89702402D01*
X195752106Y-89748254D01*
X195752103Y-89748255D01*
X195610637Y-89831917D01*
X195610629Y-89831923D01*
X195494423Y-89948129D01*
X195494417Y-89948137D01*
X195410755Y-90089603D01*
X195410754Y-90089606D01*
X195364902Y-90247426D01*
X195364901Y-90247432D01*
X195362000Y-90284298D01*
X195362000Y-90715701D01*
X195364901Y-90752567D01*
X195364902Y-90752573D01*
X195410754Y-90910393D01*
X195410755Y-90910396D01*
X195494417Y-91051862D01*
X195494423Y-91051870D01*
X195610629Y-91168076D01*
X195610633Y-91168079D01*
X195610635Y-91168081D01*
X195752102Y-91251744D01*
X195793724Y-91263836D01*
X195909926Y-91297597D01*
X195909929Y-91297597D01*
X195909931Y-91297598D01*
X195946806Y-91300500D01*
X196763000Y-91300500D01*
X196830039Y-91320185D01*
X196875794Y-91372989D01*
X196887000Y-91424500D01*
X196887000Y-91476000D01*
X196867315Y-91543039D01*
X196814511Y-91588794D01*
X196778336Y-91596663D01*
X196775000Y-91600000D01*
X196775000Y-92276000D01*
X196755315Y-92343039D01*
X196702511Y-92388794D01*
X196651000Y-92400000D01*
X196525000Y-92400000D01*
X196525000Y-92526000D01*
X196505315Y-92593039D01*
X196452511Y-92638794D01*
X196401000Y-92650000D01*
X195324000Y-92650000D01*
X195256961Y-92630315D01*
X195211206Y-92577511D01*
X195200000Y-92526000D01*
X195200000Y-92412500D01*
X194050000Y-92412500D01*
X194050000Y-93324999D01*
X194070329Y-93345328D01*
X194103814Y-93406651D01*
X194098830Y-93476343D01*
X194070330Y-93520690D01*
X193963699Y-93627321D01*
X193851894Y-93739125D01*
X193851892Y-93739128D01*
X193816461Y-93800498D01*
X193816460Y-93800500D01*
X193772833Y-93876062D01*
X193771631Y-93878965D01*
X193769962Y-93881035D01*
X193768772Y-93883097D01*
X193768450Y-93882911D01*
X193727786Y-93933365D01*
X193661490Y-93955425D01*
X193593792Y-93938141D01*
X193551533Y-93896598D01*
X193542318Y-93881657D01*
X193418345Y-93757684D01*
X193269124Y-93665643D01*
X193269119Y-93665641D01*
X193102697Y-93610494D01*
X193102690Y-93610493D01*
X192999986Y-93600000D01*
X192850000Y-93600000D01*
X192850000Y-94676000D01*
X192830315Y-94743039D01*
X192777511Y-94788794D01*
X192726000Y-94800000D01*
X192474000Y-94800000D01*
X192406961Y-94780315D01*
X192361206Y-94727511D01*
X192350000Y-94676000D01*
X192350000Y-93600000D01*
X192200027Y-93600000D01*
X192200012Y-93600001D01*
X192097302Y-93610494D01*
X191930880Y-93665641D01*
X191930875Y-93665643D01*
X191781657Y-93757682D01*
X191688034Y-93851305D01*
X191626710Y-93884789D01*
X191557019Y-93879805D01*
X191512672Y-93851304D01*
X191418657Y-93757289D01*
X191418656Y-93757288D01*
X191280712Y-93672204D01*
X191269336Y-93665187D01*
X191269331Y-93665185D01*
X191267862Y-93664698D01*
X191102797Y-93610001D01*
X191102795Y-93610000D01*
X191000016Y-93599500D01*
X191000009Y-93599500D01*
X190883063Y-93599500D01*
X190816024Y-93579815D01*
X190770269Y-93527011D01*
X190760325Y-93457853D01*
X190766022Y-93434545D01*
X190785366Y-93379262D01*
X190785369Y-93379249D01*
X190805565Y-93200003D01*
X190805565Y-93199996D01*
X190785369Y-93020750D01*
X190785368Y-93020745D01*
X190742326Y-92897738D01*
X190725789Y-92850478D01*
X190708102Y-92822330D01*
X190668478Y-92759268D01*
X190629816Y-92697738D01*
X190557064Y-92624986D01*
X192400001Y-92624986D01*
X192410494Y-92727697D01*
X192465641Y-92894119D01*
X192465643Y-92894124D01*
X192557684Y-93043345D01*
X192681654Y-93167315D01*
X192830875Y-93259356D01*
X192830880Y-93259358D01*
X192997302Y-93314505D01*
X192997309Y-93314506D01*
X193100019Y-93324999D01*
X193549999Y-93324999D01*
X193550000Y-93324998D01*
X193550000Y-92412500D01*
X192400001Y-92412500D01*
X192400001Y-92624986D01*
X190557064Y-92624986D01*
X190502262Y-92570184D01*
X190466770Y-92547883D01*
X190349523Y-92474211D01*
X190179254Y-92414631D01*
X190179249Y-92414630D01*
X190000004Y-92394435D01*
X189999996Y-92394435D01*
X189820750Y-92414630D01*
X189820745Y-92414631D01*
X189650476Y-92474211D01*
X189497737Y-92570184D01*
X189370184Y-92697737D01*
X189274211Y-92850476D01*
X189214631Y-93020745D01*
X189214630Y-93020750D01*
X189194435Y-93199996D01*
X189194435Y-93200003D01*
X189214630Y-93379249D01*
X189214631Y-93379254D01*
X189274211Y-93549523D01*
X189334515Y-93645496D01*
X189347173Y-93665641D01*
X189370185Y-93702263D01*
X189372445Y-93705097D01*
X189373334Y-93707275D01*
X189373889Y-93708158D01*
X189373734Y-93708255D01*
X189398855Y-93769783D01*
X189399500Y-93782412D01*
X189399500Y-94375500D01*
X189379815Y-94442539D01*
X189327011Y-94488294D01*
X189275500Y-94499500D01*
X189197351Y-94499500D01*
X189130312Y-94479815D01*
X189084557Y-94427011D01*
X189074061Y-94388752D01*
X189069091Y-94342516D01*
X189018797Y-94207671D01*
X189018793Y-94207664D01*
X188932547Y-94092455D01*
X188932544Y-94092452D01*
X188817335Y-94006206D01*
X188817328Y-94006202D01*
X188682482Y-93955908D01*
X188682483Y-93955908D01*
X188622883Y-93949501D01*
X188622881Y-93949500D01*
X188622873Y-93949500D01*
X188622864Y-93949500D01*
X186977129Y-93949500D01*
X186977123Y-93949501D01*
X186917516Y-93955908D01*
X186782671Y-94006202D01*
X186782664Y-94006206D01*
X186667455Y-94092452D01*
X186667452Y-94092455D01*
X186581206Y-94207664D01*
X186581202Y-94207671D01*
X186530910Y-94342513D01*
X186530909Y-94342517D01*
X186525937Y-94388757D01*
X186499201Y-94453306D01*
X186441809Y-94493154D01*
X186402649Y-94499500D01*
X181247351Y-94499500D01*
X181180312Y-94479815D01*
X181134557Y-94427011D01*
X181124061Y-94388752D01*
X181119091Y-94342516D01*
X181068797Y-94207671D01*
X181068793Y-94207664D01*
X180982547Y-94092455D01*
X180982544Y-94092452D01*
X180867335Y-94006206D01*
X180867328Y-94006202D01*
X180732482Y-93955908D01*
X180732483Y-93955908D01*
X180672883Y-93949501D01*
X180672881Y-93949500D01*
X180672873Y-93949500D01*
X180672865Y-93949500D01*
X179600098Y-93949500D01*
X179533059Y-93929815D01*
X179512417Y-93913181D01*
X179481217Y-93881981D01*
X179481216Y-93881980D01*
X179394273Y-93831784D01*
X179344285Y-93802923D01*
X179191557Y-93761999D01*
X179033443Y-93761999D01*
X179025847Y-93761999D01*
X179025831Y-93762000D01*
X177067875Y-93762000D01*
X177000836Y-93742315D01*
X176955081Y-93689511D01*
X176950169Y-93677005D01*
X176946404Y-93665643D01*
X176934814Y-93630666D01*
X176842712Y-93481344D01*
X176718656Y-93357288D01*
X176621242Y-93297203D01*
X176569336Y-93265187D01*
X176569331Y-93265185D01*
X176539856Y-93255418D01*
X176402797Y-93210001D01*
X176402795Y-93210000D01*
X176300010Y-93199500D01*
X174899998Y-93199500D01*
X174899981Y-93199501D01*
X174797203Y-93210000D01*
X174797200Y-93210001D01*
X174630668Y-93265185D01*
X174630661Y-93265188D01*
X174555504Y-93311545D01*
X174488112Y-93329984D01*
X174421448Y-93309060D01*
X174376680Y-93255418D01*
X174372707Y-93245020D01*
X174334814Y-93130666D01*
X174242712Y-92981344D01*
X174118656Y-92857288D01*
X174006150Y-92787894D01*
X173969336Y-92765187D01*
X173969331Y-92765185D01*
X173967862Y-92764698D01*
X173802797Y-92710001D01*
X173802795Y-92710000D01*
X173700010Y-92699500D01*
X172699998Y-92699500D01*
X172699980Y-92699501D01*
X172597203Y-92710000D01*
X172597200Y-92710001D01*
X172430668Y-92765185D01*
X172430663Y-92765187D01*
X172281342Y-92857289D01*
X172157289Y-92981342D01*
X172065187Y-93130663D01*
X172065185Y-93130668D01*
X172062031Y-93140186D01*
X172010001Y-93297203D01*
X172010001Y-93297204D01*
X172010000Y-93297204D01*
X171999500Y-93399983D01*
X171999500Y-94200001D01*
X171999501Y-94200019D01*
X172010000Y-94302796D01*
X172010001Y-94302799D01*
X172065185Y-94469331D01*
X172065187Y-94469336D01*
X172157289Y-94618657D01*
X172250951Y-94712319D01*
X172284436Y-94773642D01*
X172279452Y-94843334D01*
X172250951Y-94887681D01*
X172157289Y-94981342D01*
X172065187Y-95130663D01*
X172065186Y-95130666D01*
X172010001Y-95297203D01*
X172010001Y-95297204D01*
X172010000Y-95297204D01*
X171999500Y-95399983D01*
X171999500Y-95399996D01*
X171999501Y-96200000D01*
X171999501Y-96200019D01*
X172010000Y-96302796D01*
X172028058Y-96357289D01*
X172054305Y-96436497D01*
X172056707Y-96506324D01*
X172020976Y-96566366D01*
X171958455Y-96597559D01*
X171936599Y-96599500D01*
X171582412Y-96599500D01*
X171515373Y-96579815D01*
X171505097Y-96572445D01*
X171502263Y-96570185D01*
X171502262Y-96570184D01*
X171445496Y-96534515D01*
X171349523Y-96474211D01*
X171179254Y-96414631D01*
X171179249Y-96414630D01*
X171000004Y-96394435D01*
X170999996Y-96394435D01*
X170820750Y-96414630D01*
X170820745Y-96414631D01*
X170650476Y-96474211D01*
X170497737Y-96570184D01*
X170370184Y-96697737D01*
X170274211Y-96850476D01*
X170214631Y-97020745D01*
X170214630Y-97020750D01*
X170194435Y-97199996D01*
X170194435Y-97200003D01*
X170214630Y-97379249D01*
X170214631Y-97379254D01*
X170274211Y-97549523D01*
X170362420Y-97689905D01*
X170370184Y-97702262D01*
X170497738Y-97829816D01*
X170588080Y-97886582D01*
X170619499Y-97906324D01*
X170650478Y-97925789D01*
X170807525Y-97980742D01*
X170820745Y-97985368D01*
X170820750Y-97985369D01*
X170999996Y-98005565D01*
X171000000Y-98005565D01*
X171000004Y-98005565D01*
X171179249Y-97985369D01*
X171179252Y-97985368D01*
X171179255Y-97985368D01*
X171349522Y-97925789D01*
X171502262Y-97829816D01*
X171502267Y-97829810D01*
X171505097Y-97827555D01*
X171507275Y-97826665D01*
X171508158Y-97826111D01*
X171508255Y-97826265D01*
X171569783Y-97801145D01*
X171582412Y-97800500D01*
X172417588Y-97800500D01*
X172484627Y-97820185D01*
X172494903Y-97827555D01*
X172497736Y-97829814D01*
X172497738Y-97829816D01*
X172650476Y-97925788D01*
X172650478Y-97925789D01*
X172691151Y-97940021D01*
X172747927Y-97980742D01*
X172773675Y-98045695D01*
X172760219Y-98114257D01*
X172751773Y-98128185D01*
X172685964Y-98222171D01*
X172586098Y-98436335D01*
X172586094Y-98436344D01*
X172524938Y-98664586D01*
X172524936Y-98664596D01*
X172504341Y-98899999D01*
X172504341Y-98900001D01*
X172523267Y-99116326D01*
X172509500Y-99184826D01*
X172487420Y-99214814D01*
X167031286Y-104670949D01*
X166919481Y-104782753D01*
X166919479Y-104782756D01*
X166871055Y-104866631D01*
X166871053Y-104866633D01*
X166840425Y-104919680D01*
X166840424Y-104919681D01*
X166832965Y-104947518D01*
X166799499Y-105072414D01*
X166799499Y-105072416D01*
X166799499Y-105240517D01*
X166799500Y-105240530D01*
X166799500Y-109298074D01*
X166799499Y-109298092D01*
X166799499Y-109463798D01*
X166799498Y-109463798D01*
X166799499Y-109463801D01*
X166840423Y-109616529D01*
X166861054Y-109652262D01*
X166899637Y-109719091D01*
X166919479Y-109753459D01*
X167038349Y-109872329D01*
X167038355Y-109872334D01*
X167730395Y-110564374D01*
X167730405Y-110564385D01*
X167734735Y-110568715D01*
X167734736Y-110568716D01*
X167846540Y-110680520D01*
X167929816Y-110728599D01*
X167929817Y-110728600D01*
X167983465Y-110759574D01*
X167983466Y-110759574D01*
X167983471Y-110759577D01*
X168136199Y-110800500D01*
X168294313Y-110800500D01*
X170875500Y-110800500D01*
X170942539Y-110820185D01*
X170988294Y-110872989D01*
X170999500Y-110924500D01*
X170999500Y-124079016D01*
X170999499Y-124079034D01*
X170999499Y-124244740D01*
X170999498Y-124244740D01*
X171028320Y-124352301D01*
X171040423Y-124397471D01*
X171050651Y-124415186D01*
X171119477Y-124534398D01*
X171119481Y-124534403D01*
X171238349Y-124653271D01*
X171238355Y-124653276D01*
X181749453Y-135164374D01*
X181749463Y-135164385D01*
X181753793Y-135168715D01*
X181753794Y-135168716D01*
X181865598Y-135280520D01*
X181952409Y-135330639D01*
X181952411Y-135330641D01*
X181990465Y-135352611D01*
X182002529Y-135359577D01*
X182155257Y-135400500D01*
X209079677Y-135400500D01*
X209079693Y-135400501D01*
X209087289Y-135400501D01*
X209245400Y-135400501D01*
X209245403Y-135400501D01*
X209398131Y-135359577D01*
X209448250Y-135330639D01*
X209535062Y-135280520D01*
X209646866Y-135168716D01*
X209646866Y-135168714D01*
X209657074Y-135158507D01*
X209657076Y-135158504D01*
X211648506Y-133167074D01*
X211648511Y-133167070D01*
X211658714Y-133156866D01*
X211658716Y-133156866D01*
X211770520Y-133045062D01*
X211834308Y-132934577D01*
X211849577Y-132908131D01*
X211890500Y-132755404D01*
X211890500Y-132597289D01*
X211890500Y-130272412D01*
X211910185Y-130205373D01*
X211917555Y-130195097D01*
X211919810Y-130192267D01*
X211919816Y-130192262D01*
X212015789Y-130039522D01*
X212075368Y-129869255D01*
X212075369Y-129869249D01*
X212095565Y-129690003D01*
X212095565Y-129689996D01*
X212075369Y-129510750D01*
X212075367Y-129510742D01*
X212056726Y-129457468D01*
X212053165Y-129387690D01*
X212086085Y-129328835D01*
X212278320Y-129136601D01*
X212339642Y-129103117D01*
X212409334Y-129108101D01*
X212465267Y-129149973D01*
X212489684Y-129215437D01*
X212490000Y-129224283D01*
X212490000Y-133950000D01*
X230775500Y-133950000D01*
X230842539Y-133969685D01*
X230888294Y-134022489D01*
X230899500Y-134074000D01*
X230899500Y-135975500D01*
X230879815Y-136042539D01*
X230827011Y-136088294D01*
X230775500Y-136099500D01*
X164624500Y-136099500D01*
X164557461Y-136079815D01*
X164511706Y-136027011D01*
X164500500Y-135975500D01*
X164500500Y-116310999D01*
X167268935Y-116310999D01*
X167268935Y-116311000D01*
X167289156Y-116542132D01*
X167289158Y-116542142D01*
X167349205Y-116766243D01*
X167349207Y-116766247D01*
X167349208Y-116766251D01*
X167364947Y-116800003D01*
X167447263Y-116976532D01*
X167449169Y-116979254D01*
X167580345Y-117166592D01*
X167744408Y-117330655D01*
X167934467Y-117463736D01*
X167944937Y-117468618D01*
X167997376Y-117514791D01*
X168016528Y-117581984D01*
X167996312Y-117648865D01*
X167944940Y-117693380D01*
X167941540Y-117694966D01*
X167934465Y-117698265D01*
X167934463Y-117698266D01*
X167744406Y-117831345D01*
X167580345Y-117995406D01*
X167447266Y-118185463D01*
X167447264Y-118185467D01*
X167349209Y-118395747D01*
X167349205Y-118395756D01*
X167289158Y-118619857D01*
X167289156Y-118619867D01*
X167268935Y-118850999D01*
X167268935Y-118851000D01*
X167289156Y-119082132D01*
X167289158Y-119082142D01*
X167349205Y-119306243D01*
X167349207Y-119306247D01*
X167349208Y-119306251D01*
X167377854Y-119367683D01*
X167447263Y-119516532D01*
X167447264Y-119516533D01*
X167580345Y-119706592D01*
X167744408Y-119870655D01*
X167934467Y-120003736D01*
X168144749Y-120101792D01*
X168368863Y-120161843D01*
X168553772Y-120178020D01*
X168599999Y-120182065D01*
X168600000Y-120182065D01*
X168600001Y-120182065D01*
X168638522Y-120178694D01*
X168831137Y-120161843D01*
X169055251Y-120101792D01*
X169265533Y-120003736D01*
X169455592Y-119870655D01*
X169619655Y-119706592D01*
X169752736Y-119516533D01*
X169850792Y-119306251D01*
X169910843Y-119082137D01*
X169931065Y-118851000D01*
X169910843Y-118619863D01*
X169850792Y-118395749D01*
X169752736Y-118185468D01*
X169752734Y-118185465D01*
X169752733Y-118185463D01*
X169619654Y-117995406D01*
X169455596Y-117831349D01*
X169455592Y-117831345D01*
X169265533Y-117698264D01*
X169255064Y-117693382D01*
X169202624Y-117647212D01*
X169183471Y-117580019D01*
X169203685Y-117513137D01*
X169255064Y-117468617D01*
X169265533Y-117463736D01*
X169455592Y-117330655D01*
X169619655Y-117166592D01*
X169752736Y-116976533D01*
X169850792Y-116766251D01*
X169910843Y-116542137D01*
X169931065Y-116311000D01*
X169910843Y-116079863D01*
X169850792Y-115855749D01*
X169752736Y-115645468D01*
X169752734Y-115645465D01*
X169752733Y-115645463D01*
X169619654Y-115455406D01*
X169455596Y-115291349D01*
X169455592Y-115291345D01*
X169265533Y-115158264D01*
X169254466Y-115153103D01*
X169202029Y-115106930D01*
X169182879Y-115039736D01*
X169203097Y-114972855D01*
X169254479Y-114928337D01*
X169265282Y-114923300D01*
X169343781Y-114868334D01*
X168787788Y-114312342D01*
X168820591Y-114303553D01*
X168950909Y-114228313D01*
X169057313Y-114121909D01*
X169132553Y-113991591D01*
X169141342Y-113958788D01*
X169697334Y-114514781D01*
X169752300Y-114436281D01*
X169850318Y-114226080D01*
X169850321Y-114226074D01*
X169910348Y-114002051D01*
X169910349Y-114002044D01*
X169930563Y-113771001D01*
X169930563Y-113770998D01*
X169910349Y-113539955D01*
X169910348Y-113539948D01*
X169850318Y-113315917D01*
X169752302Y-113105721D01*
X169697333Y-113027219D01*
X169141342Y-113583210D01*
X169132553Y-113550409D01*
X169057313Y-113420091D01*
X168950909Y-113313687D01*
X168820591Y-113238447D01*
X168787789Y-113229657D01*
X169343781Y-112673665D01*
X169343780Y-112673664D01*
X169265282Y-112618699D01*
X169265280Y-112618698D01*
X169055080Y-112520681D01*
X169055074Y-112520678D01*
X168831051Y-112460651D01*
X168831044Y-112460650D01*
X168600002Y-112440437D01*
X168599998Y-112440437D01*
X168368955Y-112460650D01*
X168368948Y-112460651D01*
X168144917Y-112520681D01*
X167934720Y-112618698D01*
X167934718Y-112618699D01*
X167856218Y-112673664D01*
X167856218Y-112673665D01*
X168412211Y-113229657D01*
X168379409Y-113238447D01*
X168249091Y-113313687D01*
X168142687Y-113420091D01*
X168067447Y-113550409D01*
X168058657Y-113583210D01*
X167502665Y-113027218D01*
X167502664Y-113027218D01*
X167447699Y-113105718D01*
X167447698Y-113105720D01*
X167349681Y-113315917D01*
X167289651Y-113539948D01*
X167289650Y-113539955D01*
X167269437Y-113770998D01*
X167269437Y-113771001D01*
X167289650Y-114002044D01*
X167289651Y-114002051D01*
X167349678Y-114226074D01*
X167349681Y-114226080D01*
X167447698Y-114436280D01*
X167447699Y-114436282D01*
X167502664Y-114514780D01*
X167502665Y-114514781D01*
X168058657Y-113958788D01*
X168067447Y-113991591D01*
X168142687Y-114121909D01*
X168249091Y-114228313D01*
X168379409Y-114303553D01*
X168412210Y-114312342D01*
X167856217Y-114868334D01*
X167856217Y-114868335D01*
X167934717Y-114923300D01*
X167934719Y-114923301D01*
X167945529Y-114928342D01*
X167997968Y-114974514D01*
X168017120Y-115041708D01*
X167996904Y-115108589D01*
X167945531Y-115153105D01*
X167934469Y-115158263D01*
X167934463Y-115158266D01*
X167744406Y-115291345D01*
X167580345Y-115455406D01*
X167447266Y-115645463D01*
X167447264Y-115645467D01*
X167349209Y-115855747D01*
X167349205Y-115855756D01*
X167289158Y-116079857D01*
X167289156Y-116079867D01*
X167268935Y-116310999D01*
X164500500Y-116310999D01*
X164500500Y-90774983D01*
X174199500Y-90774983D01*
X174199500Y-91700001D01*
X174199501Y-91700019D01*
X174210000Y-91802796D01*
X174210001Y-91802799D01*
X174246353Y-91912500D01*
X174265186Y-91969334D01*
X174357288Y-92118656D01*
X174481344Y-92242712D01*
X174630666Y-92334814D01*
X174797203Y-92389999D01*
X174899991Y-92400500D01*
X176300008Y-92400499D01*
X176402797Y-92389999D01*
X176569334Y-92334814D01*
X176718656Y-92242712D01*
X176811370Y-92149998D01*
X195365204Y-92149998D01*
X195365205Y-92150000D01*
X196275000Y-92150000D01*
X196275000Y-91600000D01*
X195946850Y-91600000D01*
X195910010Y-91602899D01*
X195910004Y-91602900D01*
X195752306Y-91648716D01*
X195752303Y-91648717D01*
X195610947Y-91732314D01*
X195610938Y-91732321D01*
X195494821Y-91848438D01*
X195494814Y-91848447D01*
X195430731Y-91956807D01*
X195394464Y-91990669D01*
X195399235Y-92003460D01*
X195394628Y-92046903D01*
X195365399Y-92147511D01*
X195365204Y-92149998D01*
X176811370Y-92149998D01*
X176842712Y-92118656D01*
X176934814Y-91969334D01*
X176989999Y-91802797D01*
X177000500Y-91700009D01*
X177000499Y-90774992D01*
X176998208Y-90752569D01*
X176989999Y-90672203D01*
X176989998Y-90672200D01*
X176934814Y-90505666D01*
X176842712Y-90356344D01*
X176718656Y-90232288D01*
X176569334Y-90140186D01*
X176402797Y-90085001D01*
X176402795Y-90085000D01*
X176300010Y-90074500D01*
X174899998Y-90074500D01*
X174899981Y-90074501D01*
X174797203Y-90085000D01*
X174797200Y-90085001D01*
X174630668Y-90140185D01*
X174630663Y-90140187D01*
X174481342Y-90232289D01*
X174357289Y-90356342D01*
X174265187Y-90505663D01*
X174265186Y-90505666D01*
X174210001Y-90672203D01*
X174210001Y-90672204D01*
X174210000Y-90672204D01*
X174199500Y-90774983D01*
X164500500Y-90774983D01*
X164500500Y-89902135D01*
X178574500Y-89902135D01*
X178574500Y-91297870D01*
X178574501Y-91297876D01*
X178580908Y-91357483D01*
X178631202Y-91492328D01*
X178631206Y-91492335D01*
X178717452Y-91607544D01*
X178717455Y-91607547D01*
X178832664Y-91693793D01*
X178832671Y-91693797D01*
X178967517Y-91744091D01*
X178967516Y-91744091D01*
X178974444Y-91744835D01*
X179027127Y-91750500D01*
X180672872Y-91750499D01*
X180732483Y-91744091D01*
X180867331Y-91693796D01*
X180982546Y-91607546D01*
X181068796Y-91492331D01*
X181119091Y-91357483D01*
X181125500Y-91297873D01*
X181125499Y-89902135D01*
X186524500Y-89902135D01*
X186524500Y-91297870D01*
X186524501Y-91297876D01*
X186530908Y-91357483D01*
X186581202Y-91492328D01*
X186581206Y-91492335D01*
X186667452Y-91607544D01*
X186667455Y-91607547D01*
X186782664Y-91693793D01*
X186782671Y-91693797D01*
X186917517Y-91744091D01*
X186917516Y-91744091D01*
X186924444Y-91744835D01*
X186977127Y-91750500D01*
X188622872Y-91750499D01*
X188682483Y-91744091D01*
X188800662Y-91700013D01*
X192400000Y-91700013D01*
X192400000Y-91912500D01*
X193550000Y-91912500D01*
X194050000Y-91912500D01*
X195203062Y-91912500D01*
X195199999Y-91893686D01*
X195199999Y-91700028D01*
X195199998Y-91700013D01*
X195189505Y-91597302D01*
X195134358Y-91430880D01*
X195134356Y-91430875D01*
X195042315Y-91281654D01*
X194918345Y-91157684D01*
X194769124Y-91065643D01*
X194769119Y-91065641D01*
X194602697Y-91010494D01*
X194602690Y-91010493D01*
X194499986Y-91000000D01*
X194050000Y-91000000D01*
X194050000Y-91912500D01*
X193550000Y-91912500D01*
X193550000Y-91000000D01*
X193100028Y-91000000D01*
X193100012Y-91000001D01*
X192997302Y-91010494D01*
X192830880Y-91065641D01*
X192830875Y-91065643D01*
X192681654Y-91157684D01*
X192557684Y-91281654D01*
X192465643Y-91430875D01*
X192465641Y-91430880D01*
X192410494Y-91597302D01*
X192410493Y-91597309D01*
X192400000Y-91700013D01*
X188800662Y-91700013D01*
X188817331Y-91693796D01*
X188932546Y-91607546D01*
X189018796Y-91492331D01*
X189069091Y-91357483D01*
X189075500Y-91297873D01*
X189075499Y-89902128D01*
X189069091Y-89842517D01*
X189065138Y-89831919D01*
X189018797Y-89707671D01*
X189018793Y-89707664D01*
X188932547Y-89592455D01*
X188932544Y-89592452D01*
X188817335Y-89506206D01*
X188817328Y-89506202D01*
X188682482Y-89455908D01*
X188682483Y-89455908D01*
X188622883Y-89449501D01*
X188622881Y-89449500D01*
X188622873Y-89449500D01*
X188622864Y-89449500D01*
X186977129Y-89449500D01*
X186977123Y-89449501D01*
X186917516Y-89455908D01*
X186782671Y-89506202D01*
X186782664Y-89506206D01*
X186667455Y-89592452D01*
X186667452Y-89592455D01*
X186581206Y-89707664D01*
X186581202Y-89707671D01*
X186530908Y-89842517D01*
X186524501Y-89902116D01*
X186524501Y-89902123D01*
X186524500Y-89902135D01*
X181125499Y-89902135D01*
X181125499Y-89902128D01*
X181119091Y-89842517D01*
X181115138Y-89831919D01*
X181068797Y-89707671D01*
X181068793Y-89707664D01*
X180982547Y-89592455D01*
X180982544Y-89592452D01*
X180867335Y-89506206D01*
X180867328Y-89506202D01*
X180732482Y-89455908D01*
X180732483Y-89455908D01*
X180672883Y-89449501D01*
X180672881Y-89449500D01*
X180672873Y-89449500D01*
X180672864Y-89449500D01*
X179027129Y-89449500D01*
X179027123Y-89449501D01*
X178967516Y-89455908D01*
X178832671Y-89506202D01*
X178832664Y-89506206D01*
X178717455Y-89592452D01*
X178717452Y-89592455D01*
X178631206Y-89707664D01*
X178631202Y-89707671D01*
X178580908Y-89842517D01*
X178574501Y-89902116D01*
X178574501Y-89902123D01*
X178574500Y-89902135D01*
X164500500Y-89902135D01*
X164500500Y-72599998D01*
X186014532Y-72599998D01*
X186014532Y-72600001D01*
X186034364Y-72826686D01*
X186034366Y-72826697D01*
X186093258Y-73046488D01*
X186093261Y-73046497D01*
X186189431Y-73252732D01*
X186189432Y-73252734D01*
X186319954Y-73439141D01*
X186480858Y-73600045D01*
X186480861Y-73600047D01*
X186667266Y-73730568D01*
X186873504Y-73826739D01*
X187093308Y-73885635D01*
X187235361Y-73898063D01*
X187319998Y-73905468D01*
X187320000Y-73905468D01*
X187320002Y-73905468D01*
X187376673Y-73900509D01*
X187546692Y-73885635D01*
X187642932Y-73859847D01*
X187712781Y-73861510D01*
X187762706Y-73891941D01*
X192658583Y-78787819D01*
X192692068Y-78849142D01*
X192687084Y-78918834D01*
X192645212Y-78974767D01*
X192579748Y-78999184D01*
X192570903Y-78999500D01*
X192399999Y-78999500D01*
X192399980Y-78999501D01*
X192297203Y-79010000D01*
X192297200Y-79010001D01*
X192130668Y-79065185D01*
X192130663Y-79065187D01*
X191981342Y-79157289D01*
X191857289Y-79281342D01*
X191765187Y-79430663D01*
X191765186Y-79430666D01*
X191710001Y-79597203D01*
X191710001Y-79597204D01*
X191710000Y-79597204D01*
X191699500Y-79699983D01*
X191699500Y-80700001D01*
X191699501Y-80700019D01*
X191710000Y-80802796D01*
X191710001Y-80802799D01*
X191764570Y-80967476D01*
X191765186Y-80969334D01*
X191857288Y-81118656D01*
X191981344Y-81242712D01*
X192130666Y-81334814D01*
X192297203Y-81389999D01*
X192399991Y-81400500D01*
X193200008Y-81400499D01*
X193200016Y-81400498D01*
X193200019Y-81400498D01*
X193256302Y-81394748D01*
X193302797Y-81389999D01*
X193469334Y-81334814D01*
X193618656Y-81242712D01*
X193712319Y-81149049D01*
X193773642Y-81115564D01*
X193843334Y-81120548D01*
X193887681Y-81149049D01*
X193981344Y-81242712D01*
X194130666Y-81334814D01*
X194297203Y-81389999D01*
X194399991Y-81400500D01*
X194729636Y-81400499D01*
X194796675Y-81420183D01*
X194837023Y-81462499D01*
X194869477Y-81518712D01*
X194869481Y-81518717D01*
X194938583Y-81587819D01*
X194972068Y-81649142D01*
X194967084Y-81718834D01*
X194925212Y-81774767D01*
X194859748Y-81799184D01*
X194850903Y-81799500D01*
X194699999Y-81799500D01*
X194699980Y-81799501D01*
X194597203Y-81810000D01*
X194597200Y-81810001D01*
X194430668Y-81865185D01*
X194430663Y-81865187D01*
X194281342Y-81957289D01*
X194157289Y-82081342D01*
X194065187Y-82230663D01*
X194065185Y-82230668D01*
X194056691Y-82256301D01*
X194010001Y-82397203D01*
X194010001Y-82397204D01*
X194010000Y-82397204D01*
X193999500Y-82499983D01*
X193999500Y-83900001D01*
X193999501Y-83900018D01*
X194010000Y-84002796D01*
X194010001Y-84002799D01*
X194064393Y-84166941D01*
X194065186Y-84169334D01*
X194157288Y-84318656D01*
X194281344Y-84442712D01*
X194430666Y-84534814D01*
X194597203Y-84589999D01*
X194699991Y-84600500D01*
X195625008Y-84600499D01*
X195649304Y-84598017D01*
X195717997Y-84610786D01*
X195768881Y-84658667D01*
X195785802Y-84726457D01*
X195767445Y-84786471D01*
X195740189Y-84830659D01*
X195740185Y-84830668D01*
X195723666Y-84880520D01*
X195685001Y-84997203D01*
X195685001Y-84997204D01*
X195685000Y-84997204D01*
X195674500Y-85099983D01*
X195674500Y-86500001D01*
X195674501Y-86500018D01*
X195685000Y-86602796D01*
X195685001Y-86602799D01*
X195740185Y-86769331D01*
X195740186Y-86769334D01*
X195832288Y-86918656D01*
X195956344Y-87042712D01*
X196105666Y-87134814D01*
X196272203Y-87189999D01*
X196374991Y-87200500D01*
X197300008Y-87200499D01*
X197300016Y-87200498D01*
X197300019Y-87200498D01*
X197356302Y-87194748D01*
X197402797Y-87189999D01*
X197569334Y-87134814D01*
X197718656Y-87042712D01*
X197842712Y-86918656D01*
X197934814Y-86769334D01*
X197989999Y-86602797D01*
X198000500Y-86500009D01*
X198000499Y-85099992D01*
X197989999Y-84997203D01*
X197934814Y-84830666D01*
X197842712Y-84681344D01*
X197718656Y-84557288D01*
X197569334Y-84465186D01*
X197402797Y-84410001D01*
X197402795Y-84410000D01*
X197300010Y-84399500D01*
X196374998Y-84399500D01*
X196374972Y-84399502D01*
X196350691Y-84401982D01*
X196281998Y-84389210D01*
X196231115Y-84341328D01*
X196214197Y-84273538D01*
X196232553Y-84213530D01*
X196259814Y-84169334D01*
X196314999Y-84002797D01*
X196325500Y-83900009D01*
X196325499Y-83385095D01*
X196345183Y-83318057D01*
X196361812Y-83297420D01*
X196512322Y-83146910D01*
X196573641Y-83113429D01*
X196643332Y-83118413D01*
X196687680Y-83146914D01*
X196834261Y-83293495D01*
X196861141Y-83333723D01*
X196894655Y-83414632D01*
X196911986Y-83456472D01*
X197003832Y-83576168D01*
X197123528Y-83668014D01*
X197123531Y-83668015D01*
X197123532Y-83668016D01*
X197180052Y-83691427D01*
X197262917Y-83725751D01*
X197374947Y-83740500D01*
X198515052Y-83740499D01*
X198515054Y-83740499D01*
X198627075Y-83725752D01*
X198627074Y-83725752D01*
X198627083Y-83725751D01*
X198766467Y-83668016D01*
X198766468Y-83668016D01*
X198766468Y-83668015D01*
X198766472Y-83668014D01*
X198886168Y-83576168D01*
X198978014Y-83456472D01*
X199035751Y-83317083D01*
X199050500Y-83205053D01*
X199050499Y-82694948D01*
X199049915Y-82690514D01*
X199035752Y-82582924D01*
X199035751Y-82582920D01*
X199035751Y-82582917D01*
X199010704Y-82522449D01*
X199003236Y-82452984D01*
X199010702Y-82427556D01*
X199035751Y-82367083D01*
X199050500Y-82255053D01*
X199050499Y-81744948D01*
X199047061Y-81718834D01*
X199035752Y-81632924D01*
X199035751Y-81632920D01*
X199035751Y-81632917D01*
X199010704Y-81572449D01*
X199003236Y-81502984D01*
X199010702Y-81477556D01*
X199035751Y-81417083D01*
X199050500Y-81305053D01*
X199050499Y-80794948D01*
X199045036Y-80753447D01*
X199043356Y-80740684D01*
X199054122Y-80671649D01*
X199100503Y-80619393D01*
X199166295Y-80600500D01*
X199233705Y-80600500D01*
X199300744Y-80620185D01*
X199346499Y-80672989D01*
X199356643Y-80740684D01*
X199356222Y-80743889D01*
X199349500Y-80794939D01*
X199349500Y-81305054D01*
X199364247Y-81417079D01*
X199389294Y-81477548D01*
X199396762Y-81547018D01*
X199389294Y-81572451D01*
X199364249Y-81632916D01*
X199364249Y-81632917D01*
X199349500Y-81744939D01*
X199349500Y-82255054D01*
X199364247Y-82367079D01*
X199389294Y-82427548D01*
X199396762Y-82497018D01*
X199389294Y-82522451D01*
X199364249Y-82582916D01*
X199364249Y-82582917D01*
X199349500Y-82694939D01*
X199349500Y-83205054D01*
X199364247Y-83317075D01*
X199364250Y-83317086D01*
X199421983Y-83456467D01*
X199421983Y-83456468D01*
X199421985Y-83456471D01*
X199421986Y-83456472D01*
X199513832Y-83576168D01*
X199633528Y-83668014D01*
X199633531Y-83668015D01*
X199633532Y-83668016D01*
X199690052Y-83691427D01*
X199772917Y-83725751D01*
X199884947Y-83740500D01*
X201025052Y-83740499D01*
X201025054Y-83740499D01*
X201137075Y-83725752D01*
X201137074Y-83725752D01*
X201137083Y-83725751D01*
X201276467Y-83668016D01*
X201276468Y-83668016D01*
X201276468Y-83668015D01*
X201276472Y-83668014D01*
X201396168Y-83576168D01*
X201488014Y-83456472D01*
X201545751Y-83317083D01*
X201560500Y-83205053D01*
X201560499Y-82909094D01*
X201580183Y-82842057D01*
X201632987Y-82796302D01*
X201702146Y-82786358D01*
X201765701Y-82815383D01*
X201772180Y-82821415D01*
X201963181Y-83012416D01*
X201996666Y-83073739D01*
X201999500Y-83100097D01*
X201999500Y-84099902D01*
X201979815Y-84166941D01*
X201963181Y-84187583D01*
X201266748Y-84884015D01*
X201205425Y-84917500D01*
X201135733Y-84912516D01*
X201079800Y-84870644D01*
X201061362Y-84835338D01*
X201059814Y-84830666D01*
X200967712Y-84681344D01*
X200843656Y-84557288D01*
X200694334Y-84465186D01*
X200527797Y-84410001D01*
X200527795Y-84410000D01*
X200425010Y-84399500D01*
X199499998Y-84399500D01*
X199499980Y-84399501D01*
X199397203Y-84410000D01*
X199397200Y-84410001D01*
X199230668Y-84465185D01*
X199230663Y-84465187D01*
X199081342Y-84557289D01*
X198957289Y-84681342D01*
X198865187Y-84830663D01*
X198865185Y-84830668D01*
X198848666Y-84880520D01*
X198810001Y-84997203D01*
X198810001Y-84997204D01*
X198810000Y-84997204D01*
X198799500Y-85099983D01*
X198799500Y-86500001D01*
X198799501Y-86500018D01*
X198810000Y-86602796D01*
X198810001Y-86602799D01*
X198865185Y-86769331D01*
X198865186Y-86769334D01*
X198957288Y-86918656D01*
X199081344Y-87042712D01*
X199230666Y-87134814D01*
X199397203Y-87189999D01*
X199499991Y-87200500D01*
X200425008Y-87200499D01*
X200425016Y-87200498D01*
X200425019Y-87200498D01*
X200481302Y-87194748D01*
X200527797Y-87189999D01*
X200694334Y-87134814D01*
X200843656Y-87042712D01*
X200967712Y-86918656D01*
X201059814Y-86769334D01*
X201114999Y-86602797D01*
X201124285Y-86511898D01*
X201150681Y-86447207D01*
X201207861Y-86407056D01*
X201247643Y-86400501D01*
X201279054Y-86400501D01*
X201279057Y-86400501D01*
X201431785Y-86359577D01*
X201481904Y-86330639D01*
X201568716Y-86280520D01*
X201680520Y-86168716D01*
X201680520Y-86168714D01*
X201690728Y-86158507D01*
X201690730Y-86158504D01*
X202958506Y-84890728D01*
X202958511Y-84890724D01*
X202968714Y-84880520D01*
X202968716Y-84880520D01*
X203080520Y-84768716D01*
X203157992Y-84634530D01*
X203159577Y-84631785D01*
X203200501Y-84479057D01*
X203200501Y-84320943D01*
X203200501Y-84313348D01*
X203200500Y-84313330D01*
X203200500Y-84124500D01*
X203220185Y-84057461D01*
X203272989Y-84011706D01*
X203324500Y-84000500D01*
X206833331Y-84000500D01*
X206833347Y-84000501D01*
X206840943Y-84000501D01*
X206999054Y-84000501D01*
X206999057Y-84000501D01*
X207151785Y-83959577D01*
X207221233Y-83919481D01*
X207288716Y-83880520D01*
X207400520Y-83768716D01*
X207400520Y-83768714D01*
X207410724Y-83758511D01*
X207410728Y-83758506D01*
X208316944Y-82852289D01*
X208378265Y-82818806D01*
X208447957Y-82823790D01*
X208452031Y-82825393D01*
X208503889Y-82846873D01*
X208748852Y-82905683D01*
X209000000Y-82925449D01*
X209251148Y-82905683D01*
X209496111Y-82846873D01*
X209728859Y-82750466D01*
X209943659Y-82618836D01*
X210135224Y-82455224D01*
X210298836Y-82263659D01*
X210430466Y-82048859D01*
X210440893Y-82023686D01*
X212725500Y-82023686D01*
X212725500Y-82256315D01*
X212740084Y-82367081D01*
X212755863Y-82486931D01*
X212769771Y-82538835D01*
X212816068Y-82711621D01*
X212905083Y-82926522D01*
X212905088Y-82926533D01*
X213021387Y-83127967D01*
X213021398Y-83127983D01*
X213162996Y-83312518D01*
X213163002Y-83312525D01*
X213327475Y-83476998D01*
X213327482Y-83477004D01*
X213448917Y-83570184D01*
X213512026Y-83618609D01*
X213512033Y-83618613D01*
X213713467Y-83734912D01*
X213713472Y-83734914D01*
X213713475Y-83734916D01*
X213770439Y-83758511D01*
X213928379Y-83823932D01*
X213928380Y-83823932D01*
X213928382Y-83823933D01*
X214153070Y-83884138D01*
X214383693Y-83914501D01*
X214383700Y-83914501D01*
X214616300Y-83914501D01*
X214616307Y-83914501D01*
X214846930Y-83884138D01*
X215071618Y-83823933D01*
X215286525Y-83734916D01*
X215487974Y-83618609D01*
X215672519Y-83477003D01*
X215837002Y-83312520D01*
X215978608Y-83127975D01*
X216094915Y-82926526D01*
X216183932Y-82711619D01*
X216213842Y-82599994D01*
X217716533Y-82599994D01*
X217716533Y-82600005D01*
X217736765Y-82844167D01*
X217796911Y-83081681D01*
X217895329Y-83306051D01*
X218029333Y-83511161D01*
X218029336Y-83511164D01*
X218195275Y-83691422D01*
X218195278Y-83691424D01*
X218195281Y-83691427D01*
X218388616Y-83841906D01*
X218388620Y-83841909D01*
X218604098Y-83958520D01*
X218604101Y-83958521D01*
X218835826Y-84038072D01*
X218835828Y-84038072D01*
X218835830Y-84038073D01*
X219077496Y-84078400D01*
X219077497Y-84078400D01*
X219322503Y-84078400D01*
X219322504Y-84078400D01*
X219564170Y-84038073D01*
X219795902Y-83958520D01*
X220011380Y-83841909D01*
X220204725Y-83691422D01*
X220370664Y-83511164D01*
X220504670Y-83306052D01*
X220603089Y-83081681D01*
X220663234Y-82844171D01*
X220675599Y-82694947D01*
X220683467Y-82600005D01*
X220683467Y-82599994D01*
X221916531Y-82599994D01*
X221916531Y-82600005D01*
X221936763Y-82844167D01*
X221996909Y-83081681D01*
X222095327Y-83306051D01*
X222229331Y-83511161D01*
X222229334Y-83511164D01*
X222395273Y-83691422D01*
X222395276Y-83691424D01*
X222395279Y-83691427D01*
X222588614Y-83841906D01*
X222588618Y-83841909D01*
X222804096Y-83958520D01*
X222804099Y-83958521D01*
X223035824Y-84038072D01*
X223035826Y-84038072D01*
X223035828Y-84038073D01*
X223277494Y-84078400D01*
X223277495Y-84078400D01*
X223522501Y-84078400D01*
X223522502Y-84078400D01*
X223764168Y-84038073D01*
X223995900Y-83958520D01*
X224211378Y-83841909D01*
X224404723Y-83691422D01*
X224570662Y-83511164D01*
X224704668Y-83306052D01*
X224803087Y-83081681D01*
X224863232Y-82844171D01*
X224875597Y-82694947D01*
X224883465Y-82600005D01*
X224883465Y-82599994D01*
X224869485Y-82431286D01*
X224863232Y-82355829D01*
X224803087Y-82118319D01*
X224761577Y-82023686D01*
X226325499Y-82023686D01*
X226325499Y-82256315D01*
X226340083Y-82367081D01*
X226355862Y-82486931D01*
X226369770Y-82538835D01*
X226416067Y-82711621D01*
X226505082Y-82926522D01*
X226505087Y-82926533D01*
X226621386Y-83127967D01*
X226621397Y-83127983D01*
X226762995Y-83312518D01*
X226763001Y-83312525D01*
X226927474Y-83476998D01*
X226927481Y-83477004D01*
X227048916Y-83570184D01*
X227112025Y-83618609D01*
X227112032Y-83618613D01*
X227313466Y-83734912D01*
X227313471Y-83734914D01*
X227313474Y-83734916D01*
X227370438Y-83758511D01*
X227528378Y-83823932D01*
X227528379Y-83823932D01*
X227528381Y-83823933D01*
X227753069Y-83884138D01*
X227983692Y-83914501D01*
X227983699Y-83914501D01*
X228216299Y-83914501D01*
X228216306Y-83914501D01*
X228446929Y-83884138D01*
X228671617Y-83823933D01*
X228886524Y-83734916D01*
X229087973Y-83618609D01*
X229272518Y-83477003D01*
X229437001Y-83312520D01*
X229578607Y-83127975D01*
X229694914Y-82926526D01*
X229783931Y-82711619D01*
X229844136Y-82486931D01*
X229874499Y-82256308D01*
X229874499Y-82023694D01*
X229844136Y-81793071D01*
X229783931Y-81568383D01*
X229775081Y-81547018D01*
X229705592Y-81379255D01*
X229694914Y-81353476D01*
X229694912Y-81353473D01*
X229694910Y-81353468D01*
X229578611Y-81152034D01*
X229578607Y-81152027D01*
X229514782Y-81068848D01*
X229437002Y-80967483D01*
X229436996Y-80967476D01*
X229272523Y-80803003D01*
X229272516Y-80802997D01*
X229087981Y-80661399D01*
X229087979Y-80661397D01*
X229087973Y-80661393D01*
X229087968Y-80661390D01*
X229087965Y-80661388D01*
X228886531Y-80545089D01*
X228886520Y-80545084D01*
X228671619Y-80456069D01*
X228559273Y-80425966D01*
X228446929Y-80395864D01*
X228395679Y-80389116D01*
X228216313Y-80365501D01*
X228216306Y-80365501D01*
X227983692Y-80365501D01*
X227983684Y-80365501D01*
X227778693Y-80392490D01*
X227753069Y-80395864D01*
X227696897Y-80410915D01*
X227528378Y-80456069D01*
X227313477Y-80545084D01*
X227313466Y-80545089D01*
X227112032Y-80661388D01*
X227112016Y-80661399D01*
X226927481Y-80802997D01*
X226927474Y-80803003D01*
X226763001Y-80967476D01*
X226762995Y-80967483D01*
X226621397Y-81152018D01*
X226621386Y-81152034D01*
X226505087Y-81353468D01*
X226505082Y-81353479D01*
X226416067Y-81568380D01*
X226383791Y-81688838D01*
X226355862Y-81793071D01*
X226353633Y-81810000D01*
X226325499Y-82023686D01*
X224761577Y-82023686D01*
X224704668Y-81893948D01*
X224685876Y-81865185D01*
X224570664Y-81688838D01*
X224519191Y-81632924D01*
X224404723Y-81508578D01*
X224404718Y-81508574D01*
X224404716Y-81508572D01*
X224211381Y-81358093D01*
X224211377Y-81358090D01*
X223995901Y-81241480D01*
X223995896Y-81241478D01*
X223764171Y-81161927D01*
X223582918Y-81131681D01*
X223522502Y-81121600D01*
X223277494Y-81121600D01*
X223229160Y-81129665D01*
X223035824Y-81161927D01*
X222804099Y-81241478D01*
X222804094Y-81241480D01*
X222588618Y-81358090D01*
X222588614Y-81358093D01*
X222395279Y-81508572D01*
X222395276Y-81508575D01*
X222395273Y-81508577D01*
X222395273Y-81508578D01*
X222380156Y-81525000D01*
X222229331Y-81688838D01*
X222095327Y-81893948D01*
X221996909Y-82118318D01*
X221936763Y-82355832D01*
X221916531Y-82599994D01*
X220683467Y-82599994D01*
X220669487Y-82431286D01*
X220663234Y-82355829D01*
X220603089Y-82118319D01*
X220504670Y-81893948D01*
X220485878Y-81865185D01*
X220370666Y-81688838D01*
X220319193Y-81632924D01*
X220204725Y-81508578D01*
X220204720Y-81508574D01*
X220204718Y-81508572D01*
X220011383Y-81358093D01*
X220011379Y-81358090D01*
X219795903Y-81241480D01*
X219795898Y-81241478D01*
X219564173Y-81161927D01*
X219382920Y-81131681D01*
X219322504Y-81121600D01*
X219077496Y-81121600D01*
X219029162Y-81129665D01*
X218835826Y-81161927D01*
X218604101Y-81241478D01*
X218604096Y-81241480D01*
X218388620Y-81358090D01*
X218388616Y-81358093D01*
X218195281Y-81508572D01*
X218195278Y-81508575D01*
X218195275Y-81508577D01*
X218195275Y-81508578D01*
X218180158Y-81525000D01*
X218029333Y-81688838D01*
X217895329Y-81893948D01*
X217796911Y-82118318D01*
X217736765Y-82355832D01*
X217716533Y-82599994D01*
X216213842Y-82599994D01*
X216244137Y-82486931D01*
X216274500Y-82256308D01*
X216274500Y-82023694D01*
X216244137Y-81793071D01*
X216183932Y-81568383D01*
X216175082Y-81547018D01*
X216105593Y-81379255D01*
X216094915Y-81353476D01*
X216094913Y-81353473D01*
X216094911Y-81353468D01*
X215978612Y-81152034D01*
X215978608Y-81152027D01*
X215914783Y-81068848D01*
X215837003Y-80967483D01*
X215836997Y-80967476D01*
X215672524Y-80803003D01*
X215672517Y-80802997D01*
X215487982Y-80661399D01*
X215487980Y-80661397D01*
X215487974Y-80661393D01*
X215487969Y-80661390D01*
X215487966Y-80661388D01*
X215286532Y-80545089D01*
X215286521Y-80545084D01*
X215071620Y-80456069D01*
X214959274Y-80425966D01*
X214846930Y-80395864D01*
X214795680Y-80389116D01*
X214616314Y-80365501D01*
X214616307Y-80365501D01*
X214383693Y-80365501D01*
X214383685Y-80365501D01*
X214178694Y-80392490D01*
X214153070Y-80395864D01*
X214096898Y-80410915D01*
X213928379Y-80456069D01*
X213713478Y-80545084D01*
X213713467Y-80545089D01*
X213512033Y-80661388D01*
X213512017Y-80661399D01*
X213327482Y-80802997D01*
X213327475Y-80803003D01*
X213163002Y-80967476D01*
X213162996Y-80967483D01*
X213021398Y-81152018D01*
X213021387Y-81152034D01*
X212905088Y-81353468D01*
X212905083Y-81353479D01*
X212816068Y-81568380D01*
X212783792Y-81688838D01*
X212755863Y-81793071D01*
X212753634Y-81810000D01*
X212725500Y-82023686D01*
X210440893Y-82023686D01*
X210526873Y-81816111D01*
X210585683Y-81571148D01*
X210605449Y-81320000D01*
X210585683Y-81068852D01*
X210526873Y-80823889D01*
X210518220Y-80802999D01*
X210505412Y-80772076D01*
X210497943Y-80702606D01*
X210529218Y-80640127D01*
X210532263Y-80636972D01*
X211740520Y-79428716D01*
X211819577Y-79291784D01*
X211860501Y-79139057D01*
X211860501Y-78980942D01*
X211860501Y-78973347D01*
X211860500Y-78973329D01*
X211860500Y-73974499D01*
X211880185Y-73907460D01*
X211932989Y-73861705D01*
X211984500Y-73850499D01*
X212057871Y-73850499D01*
X212057872Y-73850499D01*
X212117483Y-73844091D01*
X212252331Y-73793796D01*
X212367546Y-73707546D01*
X212453796Y-73592331D01*
X212504091Y-73457483D01*
X212509858Y-73403842D01*
X212536593Y-73339296D01*
X212593985Y-73299447D01*
X212663810Y-73296952D01*
X212723900Y-73332604D01*
X212734721Y-73345978D01*
X212799954Y-73439141D01*
X212960858Y-73600045D01*
X212960861Y-73600047D01*
X213147266Y-73730568D01*
X213353504Y-73826739D01*
X213573308Y-73885635D01*
X213715361Y-73898063D01*
X213799998Y-73905468D01*
X213800000Y-73905468D01*
X213800002Y-73905468D01*
X213856673Y-73900509D01*
X214026692Y-73885635D01*
X214246496Y-73826739D01*
X214452734Y-73730568D01*
X214639139Y-73600047D01*
X214800047Y-73439139D01*
X214930568Y-73252734D01*
X215026739Y-73046496D01*
X215085635Y-72826692D01*
X215105468Y-72600000D01*
X215085635Y-72373308D01*
X215026739Y-72153504D01*
X214930568Y-71947266D01*
X214800047Y-71760861D01*
X214800045Y-71760858D01*
X214639141Y-71599954D01*
X214452734Y-71469432D01*
X214452732Y-71469431D01*
X214246497Y-71373261D01*
X214246488Y-71373258D01*
X214026697Y-71314366D01*
X214026693Y-71314365D01*
X214026692Y-71314365D01*
X214026691Y-71314364D01*
X214026686Y-71314364D01*
X213800002Y-71294532D01*
X213799998Y-71294532D01*
X213573313Y-71314364D01*
X213573302Y-71314366D01*
X213353511Y-71373258D01*
X213353502Y-71373261D01*
X213147267Y-71469431D01*
X213147265Y-71469432D01*
X212960858Y-71599954D01*
X212799956Y-71760856D01*
X212734721Y-71854022D01*
X212680144Y-71897646D01*
X212610645Y-71904839D01*
X212548291Y-71873317D01*
X212512877Y-71813087D01*
X212509856Y-71796150D01*
X212504091Y-71742516D01*
X212453797Y-71607671D01*
X212453793Y-71607664D01*
X212367547Y-71492455D01*
X212367544Y-71492452D01*
X212252335Y-71406206D01*
X212252328Y-71406202D01*
X212117482Y-71355908D01*
X212117483Y-71355908D01*
X212057883Y-71349501D01*
X212057881Y-71349500D01*
X212057873Y-71349500D01*
X212057865Y-71349500D01*
X210599096Y-71349500D01*
X210532057Y-71329815D01*
X210486302Y-71277011D01*
X210476358Y-71207853D01*
X210505383Y-71144297D01*
X210511388Y-71137846D01*
X210612418Y-71036816D01*
X210673740Y-71003334D01*
X210700097Y-71000500D01*
X216099903Y-71000500D01*
X216166942Y-71020185D01*
X216187584Y-71036819D01*
X218563181Y-73412416D01*
X218596666Y-73473739D01*
X218599500Y-73500097D01*
X218599500Y-75670080D01*
X218579815Y-75737119D01*
X218534518Y-75779134D01*
X218388630Y-75858085D01*
X218388616Y-75858094D01*
X218195281Y-76008573D01*
X218195278Y-76008576D01*
X218029333Y-76188839D01*
X217895329Y-76393949D01*
X217796911Y-76618319D01*
X217736765Y-76855833D01*
X217716533Y-77099995D01*
X217716533Y-77100006D01*
X217736765Y-77344168D01*
X217796911Y-77581682D01*
X217895329Y-77806052D01*
X218029333Y-78011162D01*
X218029336Y-78011165D01*
X218195275Y-78191423D01*
X218195278Y-78191425D01*
X218195281Y-78191428D01*
X218272215Y-78251308D01*
X218388620Y-78341910D01*
X218604098Y-78458521D01*
X218835830Y-78538074D01*
X218968139Y-78560152D01*
X218979805Y-78562681D01*
X219120943Y-78600500D01*
X219120946Y-78600500D01*
X219279054Y-78600500D01*
X219279057Y-78600500D01*
X219420198Y-78562680D01*
X219431859Y-78560152D01*
X219564170Y-78538074D01*
X219795902Y-78458521D01*
X220011380Y-78341910D01*
X220204725Y-78191423D01*
X220370664Y-78011165D01*
X220504670Y-77806053D01*
X220603089Y-77581682D01*
X220663234Y-77344172D01*
X220683467Y-77100001D01*
X220683467Y-77099995D01*
X221916531Y-77099995D01*
X221916531Y-77100006D01*
X221936763Y-77344168D01*
X221996909Y-77581682D01*
X222095327Y-77806052D01*
X222229331Y-78011162D01*
X222229334Y-78011165D01*
X222395273Y-78191423D01*
X222395276Y-78191425D01*
X222395279Y-78191428D01*
X222472213Y-78251308D01*
X222588618Y-78341910D01*
X222804096Y-78458521D01*
X222804099Y-78458522D01*
X223035824Y-78538073D01*
X223035826Y-78538073D01*
X223035828Y-78538074D01*
X223277494Y-78578401D01*
X223277495Y-78578401D01*
X223522501Y-78578401D01*
X223522502Y-78578401D01*
X223764168Y-78538074D01*
X223995900Y-78458521D01*
X224211378Y-78341910D01*
X224404723Y-78191423D01*
X224570662Y-78011165D01*
X224704668Y-77806053D01*
X224803087Y-77581682D01*
X224863232Y-77344172D01*
X224883465Y-77100001D01*
X224875299Y-77001459D01*
X224863232Y-76855833D01*
X224863232Y-76855830D01*
X224803087Y-76618320D01*
X224704668Y-76393949D01*
X224670824Y-76342147D01*
X224570664Y-76188839D01*
X224523816Y-76137949D01*
X224404723Y-76008579D01*
X224404718Y-76008575D01*
X224404716Y-76008573D01*
X224211381Y-75858094D01*
X224211377Y-75858091D01*
X223995901Y-75741481D01*
X223995896Y-75741479D01*
X223764171Y-75661928D01*
X223582918Y-75631682D01*
X223522502Y-75621601D01*
X223277494Y-75621601D01*
X223229160Y-75629666D01*
X223035824Y-75661928D01*
X222804099Y-75741479D01*
X222804094Y-75741481D01*
X222588618Y-75858091D01*
X222588614Y-75858094D01*
X222395279Y-76008573D01*
X222395276Y-76008576D01*
X222229331Y-76188839D01*
X222095327Y-76393949D01*
X221996909Y-76618319D01*
X221936763Y-76855833D01*
X221916531Y-77099995D01*
X220683467Y-77099995D01*
X220675301Y-77001459D01*
X220663234Y-76855833D01*
X220663234Y-76855830D01*
X220603089Y-76618320D01*
X220504670Y-76393949D01*
X220470826Y-76342147D01*
X220370666Y-76188839D01*
X220323818Y-76137949D01*
X220204725Y-76008579D01*
X220204720Y-76008575D01*
X220204718Y-76008573D01*
X220011383Y-75858094D01*
X220011369Y-75858085D01*
X219865482Y-75779134D01*
X219815892Y-75729915D01*
X219800500Y-75670080D01*
X219800500Y-73289059D01*
X219800501Y-73289046D01*
X219800501Y-73120945D01*
X219800501Y-73120943D01*
X219759577Y-72968215D01*
X219730639Y-72918095D01*
X219680520Y-72831284D01*
X219568716Y-72719480D01*
X219568715Y-72719479D01*
X219564385Y-72715149D01*
X219564374Y-72715139D01*
X216887590Y-70038355D01*
X216887588Y-70038352D01*
X216768717Y-69919481D01*
X216768716Y-69919480D01*
X216681904Y-69869360D01*
X216681904Y-69869359D01*
X216681900Y-69869358D01*
X216631785Y-69840423D01*
X216479057Y-69799499D01*
X216320943Y-69799499D01*
X216313347Y-69799499D01*
X216313331Y-69799500D01*
X210486669Y-69799500D01*
X210486653Y-69799499D01*
X210479057Y-69799499D01*
X210320943Y-69799499D01*
X210213587Y-69828265D01*
X210168210Y-69840424D01*
X210168209Y-69840425D01*
X210118096Y-69869359D01*
X210118095Y-69869360D01*
X210074689Y-69894420D01*
X210031285Y-69919479D01*
X210031282Y-69919481D01*
X209119479Y-70831284D01*
X209099499Y-70865891D01*
X209091054Y-70880520D01*
X209040423Y-70968215D01*
X208999499Y-71120943D01*
X208999499Y-71120945D01*
X208999499Y-71183662D01*
X208979814Y-71250701D01*
X208927010Y-71296456D01*
X208864692Y-71307190D01*
X208720002Y-71294532D01*
X208719998Y-71294532D01*
X208493313Y-71314364D01*
X208493302Y-71314366D01*
X208273511Y-71373258D01*
X208273502Y-71373261D01*
X208067267Y-71469431D01*
X208067265Y-71469432D01*
X207880858Y-71599954D01*
X207719954Y-71760858D01*
X207589432Y-71947265D01*
X207589431Y-71947267D01*
X207493261Y-72153502D01*
X207493258Y-72153511D01*
X207434366Y-72373302D01*
X207434364Y-72373313D01*
X207414532Y-72599998D01*
X207414532Y-72600001D01*
X207434364Y-72826686D01*
X207434366Y-72826697D01*
X207493258Y-73046488D01*
X207493261Y-73046497D01*
X207589431Y-73252732D01*
X207589432Y-73252734D01*
X207719954Y-73439141D01*
X207880858Y-73600045D01*
X207880861Y-73600047D01*
X208067266Y-73730568D01*
X208273504Y-73826739D01*
X208493308Y-73885635D01*
X208635361Y-73898063D01*
X208719998Y-73905468D01*
X208720000Y-73905468D01*
X208720002Y-73905468D01*
X208776673Y-73900509D01*
X208946692Y-73885635D01*
X209166496Y-73826739D01*
X209372734Y-73730568D01*
X209559139Y-73600047D01*
X209720047Y-73439139D01*
X209785278Y-73345977D01*
X209839854Y-73302353D01*
X209909352Y-73295159D01*
X209971707Y-73326681D01*
X210007122Y-73386911D01*
X210010143Y-73403847D01*
X210015909Y-73457483D01*
X210066202Y-73592328D01*
X210066206Y-73592335D01*
X210152452Y-73707544D01*
X210152455Y-73707547D01*
X210267664Y-73793793D01*
X210267671Y-73793797D01*
X210312618Y-73810561D01*
X210402517Y-73844091D01*
X210462127Y-73850500D01*
X210535500Y-73850499D01*
X210602538Y-73870183D01*
X210648294Y-73922986D01*
X210659500Y-73974499D01*
X210659500Y-78759901D01*
X210639815Y-78826940D01*
X210623181Y-78847582D01*
X209683055Y-79787707D01*
X209621732Y-79821192D01*
X209552040Y-79816208D01*
X209547922Y-79814587D01*
X209496113Y-79793127D01*
X209251151Y-79734317D01*
X209000000Y-79714551D01*
X208748848Y-79734317D01*
X208503889Y-79793126D01*
X208271140Y-79889533D01*
X208056346Y-80021160D01*
X208056343Y-80021161D01*
X207864776Y-80184776D01*
X207701161Y-80376343D01*
X207701160Y-80376346D01*
X207569533Y-80591140D01*
X207473126Y-80823889D01*
X207414317Y-81068848D01*
X207394551Y-81320000D01*
X207414317Y-81571151D01*
X207473127Y-81816112D01*
X207473127Y-81816114D01*
X207494587Y-81867923D01*
X207502056Y-81937393D01*
X207470780Y-81999872D01*
X207467707Y-82003056D01*
X206707584Y-82763181D01*
X206646261Y-82796666D01*
X206619903Y-82799500D01*
X205557965Y-82799500D01*
X205490926Y-82779815D01*
X205445171Y-82727011D01*
X205435227Y-82657853D01*
X205464252Y-82594297D01*
X205493171Y-82569774D01*
X205543659Y-82538836D01*
X205735224Y-82375224D01*
X205898836Y-82183659D01*
X206030466Y-81968859D01*
X206126873Y-81736111D01*
X206185683Y-81491148D01*
X206205449Y-81240000D01*
X206185683Y-80988852D01*
X206126873Y-80743889D01*
X206082574Y-80636942D01*
X206030466Y-80511140D01*
X205898839Y-80296346D01*
X205898838Y-80296343D01*
X205803550Y-80184776D01*
X205735224Y-80104776D01*
X205575332Y-79968215D01*
X205543656Y-79941161D01*
X205543653Y-79941160D01*
X205328859Y-79809533D01*
X205096110Y-79713126D01*
X204851151Y-79654317D01*
X204648296Y-79638352D01*
X204600000Y-79634551D01*
X204599999Y-79634551D01*
X204348859Y-79654316D01*
X204348850Y-79654317D01*
X204218564Y-79685595D01*
X204148781Y-79682104D01*
X204101937Y-79652702D01*
X204087590Y-79638355D01*
X204087588Y-79638352D01*
X203968717Y-79519481D01*
X203968716Y-79519480D01*
X203881904Y-79469360D01*
X203881904Y-79469359D01*
X203881900Y-79469358D01*
X203831785Y-79440423D01*
X203679057Y-79399499D01*
X203520943Y-79399499D01*
X203513347Y-79399499D01*
X203513331Y-79399500D01*
X198700097Y-79399500D01*
X198633058Y-79379815D01*
X198612416Y-79363181D01*
X198487590Y-79238355D01*
X198487588Y-79238352D01*
X198368717Y-79119481D01*
X198368716Y-79119480D01*
X198269245Y-79062051D01*
X198269244Y-79062050D01*
X198231783Y-79040422D01*
X198175881Y-79025443D01*
X198079057Y-78999499D01*
X197920943Y-78999499D01*
X197913347Y-78999499D01*
X197913331Y-78999500D01*
X197849231Y-78999500D01*
X197782192Y-78979815D01*
X197741844Y-78937499D01*
X197700852Y-78866498D01*
X197684379Y-78798598D01*
X197707232Y-78732571D01*
X197762153Y-78689381D01*
X197808239Y-78680499D01*
X198227871Y-78680499D01*
X198227872Y-78680499D01*
X198287483Y-78674091D01*
X198311734Y-78665045D01*
X198381422Y-78660060D01*
X198442746Y-78693543D01*
X198462453Y-78719226D01*
X198473167Y-78737782D01*
X198479480Y-78748716D01*
X198579480Y-78848716D01*
X198691284Y-78960520D01*
X198691286Y-78960521D01*
X198691290Y-78960524D01*
X198776988Y-79010001D01*
X198828216Y-79039577D01*
X198940019Y-79069534D01*
X198980942Y-79080500D01*
X198980943Y-79080500D01*
X201633331Y-79080500D01*
X201633347Y-79080501D01*
X201640943Y-79080501D01*
X201799054Y-79080501D01*
X201799057Y-79080501D01*
X201951785Y-79039577D01*
X202021200Y-78999500D01*
X202088716Y-78960520D01*
X202200520Y-78848716D01*
X202200520Y-78848715D01*
X202217953Y-78831282D01*
X202217962Y-78831272D01*
X202332419Y-78716817D01*
X202393742Y-78683333D01*
X202420099Y-78680499D01*
X202447871Y-78680499D01*
X202447872Y-78680499D01*
X202507483Y-78674091D01*
X202546665Y-78659476D01*
X202616356Y-78654491D01*
X202633329Y-78659475D01*
X202672517Y-78674091D01*
X202732127Y-78680500D01*
X203727872Y-78680499D01*
X203787483Y-78674091D01*
X203849911Y-78650806D01*
X203919599Y-78645823D01*
X203980923Y-78679307D01*
X203996344Y-78698097D01*
X204022863Y-78737785D01*
X204162214Y-78877136D01*
X204162218Y-78877139D01*
X204326079Y-78986628D01*
X204326092Y-78986635D01*
X204455950Y-79040423D01*
X204508165Y-79062051D01*
X204508169Y-79062051D01*
X204508170Y-79062052D01*
X204701456Y-79100500D01*
X204701459Y-79100500D01*
X204898543Y-79100500D01*
X205028582Y-79074632D01*
X205091835Y-79062051D01*
X205273914Y-78986632D01*
X205437782Y-78877139D01*
X205577139Y-78737782D01*
X205686632Y-78573914D01*
X205762051Y-78391835D01*
X205800500Y-78198541D01*
X205800500Y-77001459D01*
X205800500Y-77001456D01*
X205762052Y-76808170D01*
X205762051Y-76808169D01*
X205762051Y-76808165D01*
X205762049Y-76808160D01*
X205686635Y-76626092D01*
X205686628Y-76626079D01*
X205577139Y-76462218D01*
X205577136Y-76462214D01*
X205437785Y-76322863D01*
X205437781Y-76322860D01*
X205273920Y-76213371D01*
X205273907Y-76213364D01*
X205091839Y-76137950D01*
X205091829Y-76137947D01*
X204898543Y-76099500D01*
X204898541Y-76099500D01*
X204701459Y-76099500D01*
X204701457Y-76099500D01*
X204508170Y-76137947D01*
X204508160Y-76137950D01*
X204326092Y-76213364D01*
X204326079Y-76213371D01*
X204162218Y-76322860D01*
X204162214Y-76322863D01*
X204022867Y-76462211D01*
X204022864Y-76462214D01*
X203990995Y-76509908D01*
X203937382Y-76554712D01*
X203868056Y-76563418D01*
X203844562Y-76557197D01*
X203787485Y-76535909D01*
X203787483Y-76535908D01*
X203727883Y-76529501D01*
X203727881Y-76529500D01*
X203727873Y-76529500D01*
X203727864Y-76529500D01*
X202732129Y-76529500D01*
X202732123Y-76529501D01*
X202672518Y-76535908D01*
X202633331Y-76550524D01*
X202563639Y-76555507D01*
X202546668Y-76550523D01*
X202507485Y-76535909D01*
X202507483Y-76535908D01*
X202447883Y-76529501D01*
X202447881Y-76529500D01*
X202447873Y-76529500D01*
X202447864Y-76529500D01*
X201552129Y-76529500D01*
X201552123Y-76529501D01*
X201484804Y-76536738D01*
X201484690Y-76535674D01*
X201445310Y-76535674D01*
X201445196Y-76536738D01*
X201377883Y-76529501D01*
X201377881Y-76529500D01*
X201377873Y-76529500D01*
X201377864Y-76529500D01*
X200582129Y-76529500D01*
X200582123Y-76529501D01*
X200522520Y-76535908D01*
X200514974Y-76537692D01*
X200514628Y-76536230D01*
X200453622Y-76540584D01*
X200438600Y-76536172D01*
X200437482Y-76535908D01*
X200377883Y-76529501D01*
X200377881Y-76529500D01*
X200377873Y-76529500D01*
X200377864Y-76529500D01*
X199582129Y-76529500D01*
X199582123Y-76529501D01*
X199514804Y-76536738D01*
X199514690Y-76535674D01*
X199475310Y-76535674D01*
X199475196Y-76536738D01*
X199407883Y-76529501D01*
X199407881Y-76529500D01*
X199407873Y-76529500D01*
X199407865Y-76529500D01*
X199180097Y-76529500D01*
X199113058Y-76509815D01*
X199092416Y-76493181D01*
X197837590Y-75238355D01*
X197837588Y-75238352D01*
X197718717Y-75119481D01*
X197718716Y-75119480D01*
X197631904Y-75069360D01*
X197631904Y-75069359D01*
X197631900Y-75069358D01*
X197581785Y-75040423D01*
X197429057Y-74999499D01*
X197270943Y-74999499D01*
X197263347Y-74999499D01*
X197263331Y-74999500D01*
X197127889Y-74999500D01*
X197060850Y-74979815D01*
X197015095Y-74927011D01*
X197005151Y-74857853D01*
X197024786Y-74806610D01*
X197046629Y-74773918D01*
X197046632Y-74773914D01*
X197122051Y-74591835D01*
X197160500Y-74398543D01*
X203799499Y-74398543D01*
X203837947Y-74591829D01*
X203837950Y-74591839D01*
X203913364Y-74773907D01*
X203913371Y-74773920D01*
X204022860Y-74937781D01*
X204022863Y-74937785D01*
X204162214Y-75077136D01*
X204162218Y-75077139D01*
X204326079Y-75186628D01*
X204326092Y-75186635D01*
X204433886Y-75231284D01*
X204508165Y-75262051D01*
X204508169Y-75262051D01*
X204508170Y-75262052D01*
X204701456Y-75300500D01*
X204701459Y-75300500D01*
X204898543Y-75300500D01*
X205028582Y-75274632D01*
X205091835Y-75262051D01*
X205273914Y-75186632D01*
X205437782Y-75077139D01*
X205577139Y-74937782D01*
X205686632Y-74773914D01*
X205762051Y-74591835D01*
X205800500Y-74398541D01*
X205800500Y-73201459D01*
X205800500Y-73201456D01*
X205762052Y-73008170D01*
X205762051Y-73008169D01*
X205762051Y-73008165D01*
X205724742Y-72918092D01*
X205686635Y-72826092D01*
X205686628Y-72826079D01*
X205577139Y-72662218D01*
X205577136Y-72662214D01*
X205437785Y-72522863D01*
X205437781Y-72522860D01*
X205273920Y-72413371D01*
X205273907Y-72413364D01*
X205091839Y-72337950D01*
X205091829Y-72337947D01*
X204898543Y-72299500D01*
X204898541Y-72299500D01*
X204701459Y-72299500D01*
X204701457Y-72299500D01*
X204508170Y-72337947D01*
X204508160Y-72337950D01*
X204326092Y-72413364D01*
X204326079Y-72413371D01*
X204162218Y-72522860D01*
X204162214Y-72522863D01*
X204022863Y-72662214D01*
X204022860Y-72662218D01*
X203913371Y-72826079D01*
X203913364Y-72826092D01*
X203837950Y-73008160D01*
X203837947Y-73008170D01*
X203799500Y-73201456D01*
X203799500Y-73201459D01*
X203799500Y-74398541D01*
X203799500Y-74398543D01*
X203799499Y-74398543D01*
X197160500Y-74398543D01*
X197160500Y-74398541D01*
X197160500Y-73201459D01*
X197160500Y-73201456D01*
X197122052Y-73008170D01*
X197122051Y-73008169D01*
X197122051Y-73008165D01*
X197084742Y-72918092D01*
X197046635Y-72826092D01*
X197046628Y-72826079D01*
X196937139Y-72662218D01*
X196937136Y-72662214D01*
X196797785Y-72522863D01*
X196797781Y-72522860D01*
X196633920Y-72413371D01*
X196633907Y-72413364D01*
X196451839Y-72337950D01*
X196451829Y-72337947D01*
X196258543Y-72299500D01*
X196258541Y-72299500D01*
X196061459Y-72299500D01*
X196061457Y-72299500D01*
X195868170Y-72337947D01*
X195868160Y-72337950D01*
X195686092Y-72413364D01*
X195686079Y-72413371D01*
X195522218Y-72522860D01*
X195522214Y-72522863D01*
X195382863Y-72662214D01*
X195382860Y-72662218D01*
X195273371Y-72826079D01*
X195273364Y-72826092D01*
X195197950Y-73008160D01*
X195197947Y-73008170D01*
X195159500Y-73201456D01*
X195159500Y-73201459D01*
X195159500Y-74398541D01*
X195159500Y-74398543D01*
X195159499Y-74398543D01*
X195197947Y-74591829D01*
X195197950Y-74591839D01*
X195273364Y-74773907D01*
X195273370Y-74773918D01*
X195295214Y-74806610D01*
X195316091Y-74873288D01*
X195297606Y-74940668D01*
X195245627Y-74987357D01*
X195192111Y-74999500D01*
X193160098Y-74999500D01*
X193093059Y-74979815D01*
X193072417Y-74963181D01*
X192218664Y-74109428D01*
X192185179Y-74048105D01*
X192190163Y-73978413D01*
X192232035Y-73922480D01*
X192297499Y-73898063D01*
X192317142Y-73898218D01*
X192400000Y-73905468D01*
X192400000Y-73905467D01*
X192400001Y-73905468D01*
X192400002Y-73905468D01*
X192456673Y-73900509D01*
X192626692Y-73885635D01*
X192846496Y-73826739D01*
X193052734Y-73730568D01*
X193239139Y-73600047D01*
X193400047Y-73439139D01*
X193530568Y-73252734D01*
X193626739Y-73046496D01*
X193685635Y-72826692D01*
X193705468Y-72600000D01*
X193685635Y-72373308D01*
X193626739Y-72153504D01*
X193530568Y-71947266D01*
X193400047Y-71760861D01*
X193400045Y-71760858D01*
X193239141Y-71599954D01*
X193052734Y-71469432D01*
X193052732Y-71469431D01*
X192846497Y-71373261D01*
X192846488Y-71373258D01*
X192626697Y-71314366D01*
X192626693Y-71314365D01*
X192626692Y-71314365D01*
X192626691Y-71314364D01*
X192626686Y-71314364D01*
X192400002Y-71294532D01*
X192399998Y-71294532D01*
X192173313Y-71314364D01*
X192173302Y-71314366D01*
X191953511Y-71373258D01*
X191953502Y-71373261D01*
X191747267Y-71469431D01*
X191747265Y-71469432D01*
X191560858Y-71599954D01*
X191399956Y-71760856D01*
X191334721Y-71854022D01*
X191280144Y-71897646D01*
X191210645Y-71904839D01*
X191148291Y-71873317D01*
X191112877Y-71813087D01*
X191109856Y-71796150D01*
X191104091Y-71742516D01*
X191053797Y-71607671D01*
X191053793Y-71607664D01*
X190967547Y-71492455D01*
X190967544Y-71492452D01*
X190852335Y-71406206D01*
X190852328Y-71406202D01*
X190717482Y-71355908D01*
X190717483Y-71355908D01*
X190657883Y-71349501D01*
X190657881Y-71349500D01*
X190657873Y-71349500D01*
X190657864Y-71349500D01*
X189062129Y-71349500D01*
X189062123Y-71349501D01*
X189002516Y-71355908D01*
X188867671Y-71406202D01*
X188867664Y-71406206D01*
X188752455Y-71492452D01*
X188752452Y-71492455D01*
X188666206Y-71607664D01*
X188666202Y-71607671D01*
X188615908Y-71742516D01*
X188610142Y-71796154D01*
X188583404Y-71860705D01*
X188526012Y-71900553D01*
X188456186Y-71903046D01*
X188396098Y-71867393D01*
X188385278Y-71854021D01*
X188320045Y-71760858D01*
X188159141Y-71599954D01*
X187972734Y-71469432D01*
X187972732Y-71469431D01*
X187766497Y-71373261D01*
X187766488Y-71373258D01*
X187546697Y-71314366D01*
X187546693Y-71314365D01*
X187546692Y-71314365D01*
X187546691Y-71314364D01*
X187546686Y-71314364D01*
X187320002Y-71294532D01*
X187319998Y-71294532D01*
X187093313Y-71314364D01*
X187093302Y-71314366D01*
X186873511Y-71373258D01*
X186873502Y-71373261D01*
X186667267Y-71469431D01*
X186667265Y-71469432D01*
X186480858Y-71599954D01*
X186319954Y-71760858D01*
X186189432Y-71947265D01*
X186189431Y-71947267D01*
X186093261Y-72153502D01*
X186093258Y-72153511D01*
X186034366Y-72373302D01*
X186034364Y-72373313D01*
X186014532Y-72599998D01*
X164500500Y-72599998D01*
X164500500Y-69224500D01*
X164520185Y-69157461D01*
X164572989Y-69111706D01*
X164624500Y-69100500D01*
X230775500Y-69100500D01*
X230842539Y-69120185D01*
G37*
%TD.AperFunction*%
%TA.AperFunction,Conductor*%
G36*
X180861942Y-108290185D02*
G01*
X180882584Y-108306819D01*
X182740139Y-110164374D01*
X182740149Y-110164385D01*
X182744479Y-110168715D01*
X182744480Y-110168716D01*
X182856284Y-110280520D01*
X182942886Y-110330519D01*
X182942888Y-110330521D01*
X182993211Y-110359575D01*
X182993215Y-110359577D01*
X183145943Y-110400501D01*
X183145946Y-110400501D01*
X183311653Y-110400501D01*
X183311669Y-110400500D01*
X186417588Y-110400500D01*
X186484627Y-110420185D01*
X186494903Y-110427555D01*
X186497736Y-110429814D01*
X186497738Y-110429816D01*
X186650478Y-110525789D01*
X186820745Y-110585368D01*
X186820750Y-110585369D01*
X186999996Y-110605565D01*
X187000000Y-110605565D01*
X187000004Y-110605565D01*
X187179249Y-110585369D01*
X187179252Y-110585368D01*
X187179255Y-110585368D01*
X187349522Y-110525789D01*
X187502262Y-110429816D01*
X187587819Y-110344259D01*
X187649142Y-110310774D01*
X187718834Y-110315758D01*
X187774767Y-110357630D01*
X187799184Y-110423094D01*
X187799500Y-110431940D01*
X187799500Y-115002648D01*
X187779815Y-115069687D01*
X187727011Y-115115442D01*
X187688755Y-115125938D01*
X187642516Y-115130909D01*
X187507671Y-115181202D01*
X187507664Y-115181206D01*
X187392455Y-115267452D01*
X187392452Y-115267455D01*
X187306206Y-115382664D01*
X187306202Y-115382671D01*
X187255908Y-115517517D01*
X187249501Y-115577116D01*
X187249501Y-115577123D01*
X187249500Y-115577135D01*
X187249500Y-117222870D01*
X187249501Y-117222876D01*
X187255908Y-117282483D01*
X187306202Y-117417328D01*
X187306206Y-117417335D01*
X187344597Y-117468618D01*
X187392454Y-117532546D01*
X187507669Y-117618796D01*
X187507670Y-117618796D01*
X187514445Y-117623868D01*
X187556316Y-117679802D01*
X187561300Y-117749494D01*
X187527816Y-117810816D01*
X187457287Y-117881345D01*
X187365187Y-118030663D01*
X187365185Y-118030668D01*
X187350544Y-118074853D01*
X187310001Y-118197203D01*
X187310001Y-118197204D01*
X187310000Y-118197204D01*
X187299500Y-118299983D01*
X187299500Y-119300001D01*
X187299501Y-119300019D01*
X187310000Y-119402796D01*
X187310001Y-119402799D01*
X187327436Y-119455413D01*
X187365186Y-119569334D01*
X187457288Y-119718656D01*
X187581344Y-119842712D01*
X187730666Y-119934814D01*
X187897203Y-119989999D01*
X187999991Y-120000500D01*
X188800008Y-120000499D01*
X188800016Y-120000498D01*
X188800019Y-120000498D01*
X188856302Y-119994748D01*
X188902797Y-119989999D01*
X189069334Y-119934814D01*
X189218656Y-119842712D01*
X189312319Y-119749049D01*
X189373642Y-119715564D01*
X189443334Y-119720548D01*
X189487681Y-119749049D01*
X189581344Y-119842712D01*
X189730666Y-119934814D01*
X189897203Y-119989999D01*
X189999991Y-120000500D01*
X190618335Y-120000499D01*
X190685374Y-120020183D01*
X190731129Y-120072987D01*
X190741073Y-120142146D01*
X190712048Y-120205702D01*
X190706016Y-120212180D01*
X188584403Y-122333794D01*
X188523080Y-122367279D01*
X188453388Y-122362295D01*
X188409041Y-122333794D01*
X188255596Y-122180349D01*
X188255592Y-122180345D01*
X188103544Y-122073880D01*
X188065532Y-122047263D01*
X187960392Y-121998236D01*
X187855251Y-121949208D01*
X187855247Y-121949207D01*
X187855243Y-121949205D01*
X187631142Y-121889158D01*
X187631132Y-121889156D01*
X187400001Y-121868935D01*
X187399999Y-121868935D01*
X187168867Y-121889156D01*
X187168857Y-121889158D01*
X186944756Y-121949205D01*
X186944747Y-121949209D01*
X186734467Y-122047264D01*
X186734463Y-122047266D01*
X186544406Y-122180345D01*
X186380345Y-122344406D01*
X186247266Y-122534463D01*
X186247264Y-122534467D01*
X186242382Y-122544938D01*
X186196209Y-122597377D01*
X186129016Y-122616529D01*
X186062135Y-122596313D01*
X186017618Y-122544938D01*
X186012736Y-122534468D01*
X186012734Y-122534465D01*
X186012733Y-122534463D01*
X185879654Y-122344406D01*
X185715596Y-122180349D01*
X185715592Y-122180345D01*
X185563544Y-122073880D01*
X185525532Y-122047263D01*
X185420392Y-121998236D01*
X185315251Y-121949208D01*
X185315247Y-121949207D01*
X185315243Y-121949205D01*
X185091142Y-121889158D01*
X185091132Y-121889156D01*
X184860001Y-121868935D01*
X184859999Y-121868935D01*
X184628867Y-121889156D01*
X184628857Y-121889158D01*
X184404756Y-121949205D01*
X184404747Y-121949209D01*
X184194467Y-122047264D01*
X184194463Y-122047266D01*
X184004406Y-122180345D01*
X183840345Y-122344406D01*
X183707266Y-122534463D01*
X183707263Y-122534469D01*
X183702105Y-122545531D01*
X183655931Y-122597970D01*
X183588737Y-122617120D01*
X183521857Y-122596903D01*
X183477342Y-122545529D01*
X183472302Y-122534721D01*
X183417333Y-122456219D01*
X182861342Y-123012210D01*
X182852553Y-122979409D01*
X182777313Y-122849091D01*
X182670909Y-122742687D01*
X182540591Y-122667447D01*
X182507789Y-122658657D01*
X183063781Y-122102665D01*
X183063780Y-122102664D01*
X182985282Y-122047699D01*
X182985280Y-122047698D01*
X182775080Y-121949681D01*
X182775074Y-121949678D01*
X182551051Y-121889651D01*
X182551044Y-121889650D01*
X182320002Y-121869437D01*
X182319998Y-121869437D01*
X182088955Y-121889650D01*
X182088948Y-121889651D01*
X181864917Y-121949681D01*
X181654720Y-122047698D01*
X181654718Y-122047699D01*
X181576218Y-122102664D01*
X181576218Y-122102665D01*
X182132211Y-122658657D01*
X182099409Y-122667447D01*
X181969091Y-122742687D01*
X181862687Y-122849091D01*
X181787447Y-122979409D01*
X181778657Y-123012210D01*
X181222665Y-122456218D01*
X181222664Y-122456218D01*
X181167699Y-122534718D01*
X181167698Y-122534720D01*
X181069681Y-122744917D01*
X181009651Y-122968948D01*
X181009650Y-122968955D01*
X180989437Y-123199998D01*
X180989437Y-123200000D01*
X181009650Y-123431044D01*
X181009651Y-123431051D01*
X181069678Y-123655074D01*
X181069681Y-123655080D01*
X181167698Y-123865280D01*
X181167699Y-123865282D01*
X181222664Y-123943780D01*
X181222665Y-123943781D01*
X181778657Y-123387788D01*
X181787447Y-123420591D01*
X181862687Y-123550909D01*
X181969091Y-123657313D01*
X182099409Y-123732553D01*
X182132210Y-123741342D01*
X181576217Y-124297334D01*
X181576217Y-124297335D01*
X181654717Y-124352300D01*
X181654719Y-124352301D01*
X181864919Y-124450318D01*
X181864925Y-124450321D01*
X182088948Y-124510348D01*
X182088955Y-124510349D01*
X182319998Y-124530563D01*
X182320002Y-124530563D01*
X182551044Y-124510349D01*
X182551051Y-124510348D01*
X182775074Y-124450321D01*
X182775080Y-124450318D01*
X182985281Y-124352300D01*
X183063781Y-124297334D01*
X182507788Y-123741342D01*
X182540591Y-123732553D01*
X182670909Y-123657313D01*
X182777313Y-123550909D01*
X182852553Y-123420591D01*
X182861342Y-123387788D01*
X183417334Y-123943781D01*
X183472300Y-123865282D01*
X183477337Y-123854479D01*
X183523505Y-123802036D01*
X183590697Y-123782879D01*
X183657580Y-123803090D01*
X183702103Y-123854466D01*
X183707264Y-123865533D01*
X183840345Y-124055592D01*
X184004408Y-124219655D01*
X184194467Y-124352736D01*
X184404749Y-124450792D01*
X184628863Y-124510843D01*
X184813772Y-124527020D01*
X184859999Y-124531065D01*
X184860000Y-124531065D01*
X184860001Y-124531065D01*
X184898522Y-124527694D01*
X185091137Y-124510843D01*
X185315251Y-124450792D01*
X185525533Y-124352736D01*
X185715592Y-124219655D01*
X185879655Y-124055592D01*
X186012736Y-123865533D01*
X186017617Y-123855064D01*
X186063788Y-123802624D01*
X186130981Y-123783471D01*
X186197863Y-123803685D01*
X186242382Y-123855064D01*
X186247264Y-123865533D01*
X186380345Y-124055592D01*
X186544408Y-124219655D01*
X186734467Y-124352736D01*
X186944749Y-124450792D01*
X187168863Y-124510843D01*
X187353772Y-124527020D01*
X187399999Y-124531065D01*
X187400000Y-124531065D01*
X187400001Y-124531065D01*
X187438522Y-124527694D01*
X187631137Y-124510843D01*
X187855251Y-124450792D01*
X188065533Y-124352736D01*
X188255592Y-124219655D01*
X188419655Y-124055592D01*
X188552736Y-123865533D01*
X188552739Y-123865525D01*
X188555079Y-123861473D01*
X188605643Y-123813255D01*
X188638717Y-123802896D01*
X188638639Y-123802604D01*
X188645661Y-123800722D01*
X188646282Y-123800528D01*
X188646480Y-123800501D01*
X188646490Y-123800501D01*
X188799218Y-123759577D01*
X188849337Y-123730639D01*
X188936149Y-123680520D01*
X189047953Y-123568716D01*
X189047953Y-123568714D01*
X189058161Y-123558507D01*
X189058162Y-123558504D01*
X193327821Y-119288846D01*
X193389142Y-119255363D01*
X193458834Y-119260347D01*
X193514767Y-119302219D01*
X193539184Y-119367683D01*
X193539500Y-119376528D01*
X193539500Y-119497869D01*
X193539501Y-119497876D01*
X193545908Y-119557483D01*
X193596202Y-119692328D01*
X193596206Y-119692335D01*
X193682452Y-119807544D01*
X193682455Y-119807547D01*
X193797665Y-119893794D01*
X193797667Y-119893794D01*
X193797669Y-119893796D01*
X193808830Y-119897958D01*
X193864764Y-119939826D01*
X193889184Y-120005289D01*
X193889500Y-120014141D01*
X193889500Y-120515830D01*
X193889499Y-120515848D01*
X193889499Y-120681554D01*
X193889498Y-120681554D01*
X193917316Y-120785369D01*
X193930423Y-120834285D01*
X193938101Y-120847584D01*
X193951342Y-120870516D01*
X193951343Y-120870520D01*
X193951344Y-120870520D01*
X194009479Y-120971214D01*
X194009481Y-120971217D01*
X194128349Y-121090085D01*
X194128355Y-121090090D01*
X195341061Y-122302796D01*
X195374546Y-122364119D01*
X195376738Y-122403077D01*
X195374501Y-122424977D01*
X195374500Y-122424997D01*
X195374500Y-123350001D01*
X195374501Y-123350019D01*
X195385000Y-123452796D01*
X195385001Y-123452799D01*
X195440185Y-123619331D01*
X195440187Y-123619336D01*
X195454373Y-123642335D01*
X195532288Y-123768656D01*
X195656344Y-123892712D01*
X195805666Y-123984814D01*
X195972203Y-124039999D01*
X196074991Y-124050500D01*
X197037402Y-124050499D01*
X197104441Y-124070183D01*
X197125083Y-124086818D01*
X197688759Y-124650494D01*
X197722244Y-124711817D01*
X197717260Y-124781509D01*
X197675388Y-124837442D01*
X197609924Y-124861859D01*
X197584592Y-124860090D01*
X197584531Y-124860689D01*
X197475010Y-124849500D01*
X196074998Y-124849500D01*
X196074981Y-124849501D01*
X195972203Y-124860000D01*
X195972200Y-124860001D01*
X195805668Y-124915185D01*
X195805663Y-124915187D01*
X195656342Y-125007289D01*
X195532289Y-125131342D01*
X195480441Y-125215402D01*
X195428493Y-125262126D01*
X195359530Y-125273349D01*
X195295448Y-125245505D01*
X195287221Y-125237986D01*
X193986818Y-123937583D01*
X193953333Y-123876260D01*
X193950499Y-123849902D01*
X193950499Y-122162129D01*
X193950498Y-122162123D01*
X193950497Y-122162116D01*
X193944091Y-122102517D01*
X193924840Y-122050903D01*
X193893797Y-121967671D01*
X193893793Y-121967664D01*
X193807547Y-121852455D01*
X193807544Y-121852452D01*
X193692335Y-121766206D01*
X193692328Y-121766202D01*
X193557482Y-121715908D01*
X193557483Y-121715908D01*
X193497883Y-121709501D01*
X193497881Y-121709500D01*
X193497873Y-121709500D01*
X193497864Y-121709500D01*
X191702129Y-121709500D01*
X191702123Y-121709501D01*
X191642516Y-121715908D01*
X191507671Y-121766202D01*
X191507664Y-121766206D01*
X191392455Y-121852452D01*
X191392452Y-121852455D01*
X191306206Y-121967664D01*
X191306202Y-121967671D01*
X191255908Y-122102517D01*
X191250194Y-122155668D01*
X191249501Y-122162123D01*
X191249500Y-122162135D01*
X191249500Y-123957870D01*
X191249501Y-123957876D01*
X191255908Y-124017483D01*
X191306202Y-124152328D01*
X191306206Y-124152335D01*
X191392452Y-124267544D01*
X191392455Y-124267547D01*
X191507664Y-124353793D01*
X191507671Y-124353797D01*
X191639081Y-124402810D01*
X191695015Y-124444681D01*
X191719432Y-124510145D01*
X191704580Y-124578418D01*
X191683430Y-124606673D01*
X191561503Y-124728600D01*
X191425965Y-124922169D01*
X191425964Y-124922171D01*
X191326098Y-125136335D01*
X191326094Y-125136344D01*
X191264938Y-125364586D01*
X191264936Y-125364596D01*
X191244341Y-125599999D01*
X191244341Y-125600000D01*
X191264936Y-125835403D01*
X191264938Y-125835413D01*
X191326094Y-126063655D01*
X191326096Y-126063659D01*
X191326097Y-126063663D01*
X191345797Y-126105909D01*
X191425965Y-126277830D01*
X191425967Y-126277834D01*
X191561501Y-126471395D01*
X191561506Y-126471402D01*
X191728597Y-126638493D01*
X191728603Y-126638498D01*
X191744316Y-126649500D01*
X191879755Y-126744336D01*
X191914594Y-126768730D01*
X191958219Y-126823307D01*
X191965413Y-126892805D01*
X191933890Y-126955160D01*
X191914595Y-126971880D01*
X191728922Y-127101890D01*
X191728920Y-127101891D01*
X191561891Y-127268920D01*
X191561886Y-127268926D01*
X191426400Y-127462420D01*
X191426399Y-127462422D01*
X191326570Y-127676507D01*
X191326567Y-127676513D01*
X191269364Y-127889999D01*
X191269364Y-127890000D01*
X192166988Y-127890000D01*
X192134075Y-127947007D01*
X192100000Y-128074174D01*
X192100000Y-128205826D01*
X192134075Y-128332993D01*
X192166988Y-128390000D01*
X191269364Y-128390000D01*
X191326567Y-128603486D01*
X191326570Y-128603492D01*
X191426399Y-128817578D01*
X191561894Y-129011082D01*
X191728917Y-129178105D01*
X191922421Y-129313600D01*
X192136507Y-129413429D01*
X192136516Y-129413433D01*
X192350000Y-129470634D01*
X192350000Y-128573012D01*
X192407007Y-128605925D01*
X192534174Y-128640000D01*
X192665826Y-128640000D01*
X192792993Y-128605925D01*
X192850000Y-128573012D01*
X192850000Y-129470633D01*
X193063483Y-129413433D01*
X193063492Y-129413429D01*
X193277578Y-129313600D01*
X193471082Y-129178105D01*
X193638105Y-129011082D01*
X193773600Y-128817578D01*
X193873429Y-128603492D01*
X193873432Y-128603486D01*
X193930636Y-128390000D01*
X193033012Y-128390000D01*
X193065925Y-128332993D01*
X193100000Y-128205826D01*
X193100000Y-128074174D01*
X193065925Y-127947007D01*
X193033012Y-127890000D01*
X193930636Y-127890000D01*
X193930635Y-127889999D01*
X193873432Y-127676513D01*
X193873429Y-127676507D01*
X193773600Y-127462422D01*
X193773599Y-127462420D01*
X193638113Y-127268926D01*
X193638108Y-127268920D01*
X193471078Y-127101890D01*
X193285405Y-126971879D01*
X193241780Y-126917302D01*
X193234588Y-126847804D01*
X193266110Y-126785449D01*
X193285406Y-126768730D01*
X193471401Y-126638495D01*
X193638495Y-126471401D01*
X193774035Y-126277830D01*
X193873903Y-126063663D01*
X193932541Y-125844819D01*
X193968906Y-125785159D01*
X194031752Y-125754630D01*
X194101128Y-125762924D01*
X194139997Y-125789232D01*
X194569298Y-126218533D01*
X194602783Y-126279856D01*
X194604837Y-126292330D01*
X194614630Y-126379249D01*
X194674210Y-126549521D01*
X194691976Y-126577795D01*
X194737031Y-126649500D01*
X194770185Y-126702263D01*
X194772445Y-126705097D01*
X194773334Y-126707275D01*
X194773889Y-126708158D01*
X194773734Y-126708255D01*
X194798855Y-126769783D01*
X194799500Y-126782412D01*
X194799500Y-129224902D01*
X194779815Y-129291941D01*
X194763181Y-129312583D01*
X193087582Y-130988181D01*
X193026259Y-131021666D01*
X192999901Y-131024500D01*
X191652129Y-131024500D01*
X191652123Y-131024501D01*
X191592516Y-131030908D01*
X191457671Y-131081202D01*
X191457664Y-131081206D01*
X191342455Y-131167452D01*
X191342452Y-131167455D01*
X191256206Y-131282664D01*
X191256202Y-131282671D01*
X191205908Y-131417517D01*
X191199501Y-131477116D01*
X191199500Y-131477135D01*
X191199500Y-133272870D01*
X191199501Y-133272876D01*
X191205908Y-133332483D01*
X191256202Y-133467328D01*
X191256206Y-133467335D01*
X191342452Y-133582544D01*
X191347727Y-133587819D01*
X191381212Y-133649142D01*
X191376228Y-133718834D01*
X191334356Y-133774767D01*
X191268892Y-133799184D01*
X191260046Y-133799500D01*
X182700098Y-133799500D01*
X182633059Y-133779815D01*
X182612417Y-133763181D01*
X180756345Y-131907109D01*
X180722860Y-131845786D01*
X180727844Y-131776094D01*
X180769716Y-131720161D01*
X180835180Y-131695744D01*
X180856628Y-131696069D01*
X180899991Y-131700500D01*
X181900008Y-131700499D01*
X181900016Y-131700498D01*
X181900019Y-131700498D01*
X181956302Y-131694748D01*
X182002797Y-131689999D01*
X182169334Y-131634814D01*
X182318656Y-131542712D01*
X182442712Y-131418656D01*
X182534814Y-131269334D01*
X182589999Y-131102797D01*
X182600500Y-131000009D01*
X182600499Y-130199992D01*
X182600221Y-130197275D01*
X182589999Y-130097203D01*
X182589998Y-130097200D01*
X182572302Y-130043797D01*
X182534814Y-129930666D01*
X182442712Y-129781344D01*
X182349049Y-129687681D01*
X182315564Y-129626358D01*
X182320548Y-129556666D01*
X182349049Y-129512319D01*
X182390735Y-129470633D01*
X182442712Y-129418656D01*
X182534814Y-129269334D01*
X182534815Y-129269331D01*
X182538605Y-129263187D01*
X182540399Y-129264293D01*
X182579687Y-129219663D01*
X182645908Y-129200500D01*
X184550501Y-129200500D01*
X184617540Y-129220185D01*
X184663295Y-129272989D01*
X184674501Y-129324500D01*
X184674501Y-129647876D01*
X184680908Y-129707483D01*
X184731202Y-129842328D01*
X184731206Y-129842335D01*
X184817452Y-129957544D01*
X184817455Y-129957547D01*
X184932664Y-130043793D01*
X184932671Y-130043797D01*
X184932674Y-130043798D01*
X185064598Y-130093002D01*
X185120531Y-130134873D01*
X185144949Y-130200337D01*
X185130098Y-130268610D01*
X185108947Y-130296865D01*
X184986886Y-130418926D01*
X184851400Y-130612420D01*
X184851399Y-130612422D01*
X184751570Y-130826507D01*
X184751567Y-130826513D01*
X184694364Y-131039999D01*
X184694364Y-131040000D01*
X185591988Y-131040000D01*
X185559075Y-131097007D01*
X185525000Y-131224174D01*
X185525000Y-131355826D01*
X185559075Y-131482993D01*
X185591988Y-131540000D01*
X184694364Y-131540000D01*
X184751567Y-131753486D01*
X184751570Y-131753492D01*
X184851399Y-131967578D01*
X184986894Y-132161082D01*
X185153917Y-132328105D01*
X185347421Y-132463600D01*
X185561507Y-132563429D01*
X185561516Y-132563433D01*
X185775000Y-132620634D01*
X185775000Y-131723012D01*
X185832007Y-131755925D01*
X185959174Y-131790000D01*
X186090826Y-131790000D01*
X186217993Y-131755925D01*
X186275000Y-131723012D01*
X186275000Y-132620633D01*
X186488483Y-132563433D01*
X186488492Y-132563429D01*
X186702578Y-132463600D01*
X186896082Y-132328105D01*
X187063105Y-132161082D01*
X187198600Y-131967578D01*
X187298429Y-131753492D01*
X187298432Y-131753486D01*
X187355636Y-131540000D01*
X186458012Y-131540000D01*
X186490925Y-131482993D01*
X186525000Y-131355826D01*
X186525000Y-131224174D01*
X186490925Y-131097007D01*
X186458012Y-131040000D01*
X187355636Y-131040000D01*
X187355635Y-131039999D01*
X187298432Y-130826513D01*
X187298429Y-130826507D01*
X187198600Y-130612422D01*
X187198599Y-130612420D01*
X187063113Y-130418926D01*
X187063108Y-130418920D01*
X186941053Y-130296865D01*
X186907568Y-130235542D01*
X186912552Y-130165850D01*
X186954424Y-130109917D01*
X186985400Y-130093002D01*
X187117331Y-130043796D01*
X187232546Y-129957546D01*
X187318796Y-129842331D01*
X187369091Y-129707483D01*
X187375500Y-129647873D01*
X187375499Y-127852128D01*
X187369091Y-127792517D01*
X187325824Y-127676513D01*
X187318797Y-127657671D01*
X187318793Y-127657664D01*
X187232547Y-127542455D01*
X187232544Y-127542452D01*
X187117335Y-127456206D01*
X187117328Y-127456202D01*
X186982482Y-127405908D01*
X186982483Y-127405908D01*
X186922883Y-127399501D01*
X186922881Y-127399500D01*
X186922873Y-127399500D01*
X186922864Y-127399500D01*
X185127129Y-127399500D01*
X185127123Y-127399501D01*
X185067516Y-127405908D01*
X184932671Y-127456202D01*
X184932664Y-127456206D01*
X184817455Y-127542452D01*
X184817452Y-127542455D01*
X184731206Y-127657664D01*
X184731202Y-127657671D01*
X184680908Y-127792517D01*
X184676557Y-127832993D01*
X184674501Y-127852123D01*
X184674500Y-127852135D01*
X184674500Y-127875500D01*
X184654815Y-127942539D01*
X184602011Y-127988294D01*
X184550500Y-127999500D01*
X182645908Y-127999500D01*
X182578869Y-127979815D01*
X182540363Y-127935728D01*
X182538605Y-127936813D01*
X182509731Y-127890000D01*
X182442712Y-127781344D01*
X182318656Y-127657288D01*
X182169334Y-127565186D01*
X182002797Y-127510001D01*
X182002795Y-127510000D01*
X181900010Y-127499500D01*
X180899998Y-127499500D01*
X180899980Y-127499501D01*
X180797203Y-127510000D01*
X180797200Y-127510001D01*
X180630668Y-127565185D01*
X180630663Y-127565187D01*
X180481342Y-127657289D01*
X180357289Y-127781342D01*
X180265187Y-127930663D01*
X180265185Y-127930668D01*
X180246090Y-127988294D01*
X180210001Y-128097203D01*
X180210001Y-128097204D01*
X180210000Y-128097204D01*
X180199500Y-128199983D01*
X180199500Y-129000001D01*
X180199501Y-129000019D01*
X180210000Y-129102796D01*
X180210001Y-129102799D01*
X180254411Y-129236818D01*
X180265186Y-129269334D01*
X180354066Y-129413433D01*
X180357289Y-129418657D01*
X180450951Y-129512319D01*
X180484436Y-129573642D01*
X180479452Y-129643334D01*
X180450951Y-129687681D01*
X180357289Y-129781342D01*
X180265187Y-129930663D01*
X180265185Y-129930668D01*
X180255778Y-129959057D01*
X180210001Y-130097203D01*
X180210001Y-130097204D01*
X180210000Y-130097204D01*
X180199500Y-130199983D01*
X180199500Y-131000001D01*
X180199502Y-131000022D01*
X180203930Y-131043374D01*
X180191159Y-131112067D01*
X180143278Y-131162950D01*
X180075488Y-131179870D01*
X180009312Y-131157453D01*
X179992891Y-131143655D01*
X179236819Y-130387583D01*
X179203334Y-130326260D01*
X179200500Y-130299902D01*
X179200500Y-123320945D01*
X179200500Y-123320943D01*
X179159577Y-123168216D01*
X179159573Y-123168209D01*
X179080524Y-123031290D01*
X179080518Y-123031282D01*
X178968717Y-122919481D01*
X178968709Y-122919475D01*
X178831790Y-122840426D01*
X178831786Y-122840424D01*
X178831784Y-122840423D01*
X178679057Y-122799500D01*
X178679056Y-122799500D01*
X178524499Y-122799500D01*
X178457460Y-122779815D01*
X178411705Y-122727011D01*
X178400499Y-122675500D01*
X178400499Y-121999998D01*
X178400498Y-121999981D01*
X178389999Y-121897203D01*
X178389998Y-121897200D01*
X178334814Y-121730666D01*
X178242712Y-121581344D01*
X178118656Y-121457288D01*
X177969334Y-121365186D01*
X177885495Y-121337404D01*
X177828051Y-121297632D01*
X177801228Y-121233116D01*
X177800500Y-121219699D01*
X177800500Y-120109059D01*
X177800501Y-120109046D01*
X177800501Y-119940945D01*
X177800501Y-119940943D01*
X177759577Y-119788215D01*
X177719417Y-119718656D01*
X177707605Y-119698198D01*
X177691135Y-119630299D01*
X177695218Y-119604112D01*
X177735063Y-119455408D01*
X177755659Y-119220000D01*
X177735063Y-118984592D01*
X177673903Y-118756337D01*
X177574035Y-118542171D01*
X177568425Y-118534158D01*
X177438494Y-118348597D01*
X177271402Y-118181506D01*
X177271396Y-118181501D01*
X177085842Y-118051575D01*
X177042217Y-117996998D01*
X177035023Y-117927500D01*
X177066546Y-117865145D01*
X177085842Y-117848425D01*
X177215997Y-117757289D01*
X177271401Y-117718495D01*
X177438495Y-117551401D01*
X177574035Y-117357830D01*
X177636980Y-117222844D01*
X182750000Y-117222844D01*
X182756401Y-117282372D01*
X182756403Y-117282379D01*
X182806645Y-117417086D01*
X182806649Y-117417093D01*
X182892809Y-117532187D01*
X182892812Y-117532190D01*
X183007906Y-117618350D01*
X183007913Y-117618354D01*
X183142620Y-117668596D01*
X183142627Y-117668598D01*
X183202155Y-117674999D01*
X183202172Y-117675000D01*
X183650000Y-117675000D01*
X184150000Y-117675000D01*
X184597828Y-117675000D01*
X184597844Y-117674999D01*
X184657372Y-117668598D01*
X184657379Y-117668596D01*
X184792086Y-117618354D01*
X184792093Y-117618350D01*
X184907187Y-117532190D01*
X184907190Y-117532187D01*
X184993350Y-117417093D01*
X184993354Y-117417086D01*
X185043596Y-117282379D01*
X185043598Y-117282372D01*
X185049999Y-117222844D01*
X185050000Y-117222827D01*
X185050000Y-116650000D01*
X184150000Y-116650000D01*
X184150000Y-117675000D01*
X183650000Y-117675000D01*
X183650000Y-116650000D01*
X182750000Y-116650000D01*
X182750000Y-117222844D01*
X177636980Y-117222844D01*
X177673903Y-117143663D01*
X177735063Y-116915408D01*
X177755659Y-116680000D01*
X177735063Y-116444592D01*
X177673903Y-116216337D01*
X177574035Y-116002171D01*
X177572769Y-116000362D01*
X177438494Y-115808597D01*
X177271402Y-115641506D01*
X177271396Y-115641501D01*
X177179500Y-115577155D01*
X182750000Y-115577155D01*
X182750000Y-116150000D01*
X183650000Y-116150000D01*
X184150000Y-116150000D01*
X185050000Y-116150000D01*
X185050000Y-115577172D01*
X185049999Y-115577155D01*
X185043598Y-115517627D01*
X185043596Y-115517620D01*
X184993354Y-115382913D01*
X184993350Y-115382906D01*
X184907190Y-115267812D01*
X184907187Y-115267809D01*
X184792093Y-115181649D01*
X184792086Y-115181645D01*
X184657379Y-115131403D01*
X184657372Y-115131401D01*
X184597844Y-115125000D01*
X184150000Y-115125000D01*
X184150000Y-116150000D01*
X183650000Y-116150000D01*
X183650000Y-115125000D01*
X183202155Y-115125000D01*
X183142627Y-115131401D01*
X183142620Y-115131403D01*
X183007913Y-115181645D01*
X183007906Y-115181649D01*
X182892812Y-115267809D01*
X182892809Y-115267812D01*
X182806649Y-115382906D01*
X182806645Y-115382913D01*
X182756403Y-115517620D01*
X182756401Y-115517627D01*
X182750000Y-115577155D01*
X177179500Y-115577155D01*
X177085842Y-115511575D01*
X177042217Y-115456998D01*
X177035023Y-115387500D01*
X177066546Y-115325145D01*
X177085842Y-115308425D01*
X177143843Y-115267812D01*
X177271401Y-115178495D01*
X177438495Y-115011401D01*
X177574035Y-114817830D01*
X177673903Y-114603663D01*
X177735063Y-114375408D01*
X177755659Y-114140000D01*
X177735063Y-113904592D01*
X177673903Y-113676337D01*
X177574035Y-113462171D01*
X177568425Y-113454158D01*
X177438494Y-113268597D01*
X177271402Y-113101506D01*
X177271396Y-113101501D01*
X177085842Y-112971575D01*
X177042217Y-112916998D01*
X177035023Y-112847500D01*
X177066546Y-112785145D01*
X177085842Y-112768425D01*
X177221173Y-112673665D01*
X177271401Y-112638495D01*
X177438495Y-112471401D01*
X177574035Y-112277830D01*
X177673903Y-112063663D01*
X177735063Y-111835408D01*
X177755659Y-111600000D01*
X177735063Y-111364592D01*
X177673903Y-111136337D01*
X177574035Y-110922171D01*
X177558861Y-110900499D01*
X177438494Y-110728597D01*
X177271402Y-110561506D01*
X177271396Y-110561501D01*
X177085842Y-110431575D01*
X177042217Y-110376998D01*
X177035023Y-110307500D01*
X177066546Y-110245145D01*
X177085842Y-110228425D01*
X177123668Y-110201939D01*
X177271401Y-110098495D01*
X177438495Y-109931401D01*
X177574035Y-109737830D01*
X177673903Y-109523663D01*
X177735063Y-109295408D01*
X177755659Y-109060000D01*
X177735063Y-108824592D01*
X177673903Y-108596337D01*
X177604220Y-108446904D01*
X177593729Y-108377828D01*
X177622249Y-108314044D01*
X177680725Y-108275804D01*
X177716603Y-108270500D01*
X180794903Y-108270500D01*
X180861942Y-108290185D01*
G37*
%TD.AperFunction*%
%TA.AperFunction,Conductor*%
G36*
X172405703Y-110855385D02*
G01*
X172412181Y-110861417D01*
X172481284Y-110930520D01*
X172541079Y-110965042D01*
X172589294Y-111015608D01*
X172602518Y-111084214D01*
X172591463Y-111124830D01*
X172586095Y-111136341D01*
X172524938Y-111364586D01*
X172524936Y-111364596D01*
X172504341Y-111599999D01*
X172504341Y-111600000D01*
X172524936Y-111835403D01*
X172524938Y-111835413D01*
X172586094Y-112063655D01*
X172586096Y-112063659D01*
X172586097Y-112063663D01*
X172647077Y-112194435D01*
X172685965Y-112277830D01*
X172685967Y-112277834D01*
X172780250Y-112412483D01*
X172821501Y-112471396D01*
X172821506Y-112471402D01*
X172988597Y-112638493D01*
X172988603Y-112638498D01*
X173174158Y-112768425D01*
X173217783Y-112823002D01*
X173224977Y-112892500D01*
X173193454Y-112954855D01*
X173174158Y-112971575D01*
X172988597Y-113101505D01*
X172821505Y-113268597D01*
X172685965Y-113462169D01*
X172685964Y-113462171D01*
X172586098Y-113676335D01*
X172586094Y-113676344D01*
X172524938Y-113904586D01*
X172524936Y-113904596D01*
X172504341Y-114139999D01*
X172504341Y-114140000D01*
X172524936Y-114375403D01*
X172524938Y-114375413D01*
X172586094Y-114603655D01*
X172586096Y-114603659D01*
X172586097Y-114603663D01*
X172594065Y-114620750D01*
X172685965Y-114817830D01*
X172685967Y-114817834D01*
X172763343Y-114928337D01*
X172821501Y-115011396D01*
X172821506Y-115011402D01*
X172988597Y-115178493D01*
X172988603Y-115178498D01*
X173174158Y-115308425D01*
X173217783Y-115363002D01*
X173224977Y-115432500D01*
X173193454Y-115494855D01*
X173174158Y-115511575D01*
X172988597Y-115641505D01*
X172821505Y-115808597D01*
X172685965Y-116002169D01*
X172685964Y-116002171D01*
X172586098Y-116216335D01*
X172586094Y-116216344D01*
X172524938Y-116444586D01*
X172524936Y-116444596D01*
X172504341Y-116679999D01*
X172504341Y-116680000D01*
X172524936Y-116915403D01*
X172524938Y-116915413D01*
X172586094Y-117143655D01*
X172586096Y-117143659D01*
X172586097Y-117143663D01*
X172680703Y-117346546D01*
X172685965Y-117357830D01*
X172685967Y-117357834D01*
X172774884Y-117484820D01*
X172821501Y-117551396D01*
X172821506Y-117551402D01*
X172988597Y-117718493D01*
X172988603Y-117718498D01*
X173174158Y-117848425D01*
X173217783Y-117903002D01*
X173224977Y-117972500D01*
X173193454Y-118034855D01*
X173174158Y-118051575D01*
X172988597Y-118181505D01*
X172821505Y-118348597D01*
X172685965Y-118542169D01*
X172685964Y-118542171D01*
X172586098Y-118756335D01*
X172586094Y-118756344D01*
X172524938Y-118984586D01*
X172524936Y-118984596D01*
X172504341Y-119219999D01*
X172504341Y-119220000D01*
X172524936Y-119455403D01*
X172524938Y-119455413D01*
X172586094Y-119683655D01*
X172586096Y-119683659D01*
X172586097Y-119683663D01*
X172602415Y-119718656D01*
X172685965Y-119897830D01*
X172685967Y-119897834D01*
X172773601Y-120022987D01*
X172821505Y-120091401D01*
X172988599Y-120258495D01*
X173085384Y-120326265D01*
X173182165Y-120394032D01*
X173182167Y-120394033D01*
X173182170Y-120394035D01*
X173187898Y-120396706D01*
X173240339Y-120442872D01*
X173259500Y-120509090D01*
X173259500Y-120973330D01*
X173259499Y-120973348D01*
X173259499Y-121139054D01*
X173259498Y-121139054D01*
X173259499Y-121139057D01*
X173300423Y-121291785D01*
X173326762Y-121337405D01*
X173329358Y-121341900D01*
X173329359Y-121341904D01*
X173329360Y-121341904D01*
X173379479Y-121428714D01*
X173379481Y-121428717D01*
X173498349Y-121547585D01*
X173498355Y-121547590D01*
X175963181Y-124012416D01*
X175996666Y-124073739D01*
X175999500Y-124100097D01*
X175999500Y-124800001D01*
X175999501Y-124800019D01*
X176010000Y-124902796D01*
X176010001Y-124902799D01*
X176044626Y-125007288D01*
X176065186Y-125069334D01*
X176157288Y-125218656D01*
X176281344Y-125342712D01*
X176430666Y-125434814D01*
X176597203Y-125489999D01*
X176699991Y-125500500D01*
X177700008Y-125500499D01*
X177700016Y-125500498D01*
X177700019Y-125500498D01*
X177756302Y-125494748D01*
X177802797Y-125489999D01*
X177802800Y-125489997D01*
X177802804Y-125489997D01*
X177836495Y-125478833D01*
X177906323Y-125476430D01*
X177966365Y-125512161D01*
X177997558Y-125574681D01*
X177999500Y-125596538D01*
X177999500Y-129416589D01*
X177979815Y-129483628D01*
X177927011Y-129529383D01*
X177857853Y-129539327D01*
X177794297Y-129510302D01*
X177787819Y-129504270D01*
X172236819Y-123953270D01*
X172203334Y-123891947D01*
X172200500Y-123865589D01*
X172200500Y-110949098D01*
X172220185Y-110882059D01*
X172272989Y-110836304D01*
X172342147Y-110826360D01*
X172405703Y-110855385D01*
G37*
%TD.AperFunction*%
%TA.AperFunction,Conductor*%
G36*
X204058327Y-119931338D02*
G01*
X204092517Y-119944091D01*
X204152127Y-119950500D01*
X205147872Y-119950499D01*
X205147874Y-119950498D01*
X205147887Y-119950498D01*
X205176803Y-119947388D01*
X205182244Y-119946804D01*
X205251003Y-119959208D01*
X205302141Y-120006818D01*
X205319500Y-120070093D01*
X205319500Y-120433330D01*
X205319499Y-120433348D01*
X205319499Y-120599054D01*
X205319498Y-120599054D01*
X205360423Y-120751785D01*
X205389358Y-120801900D01*
X205389359Y-120801904D01*
X205389360Y-120801904D01*
X205439480Y-120888716D01*
X205551284Y-121000520D01*
X205551285Y-121000521D01*
X206031284Y-121480520D01*
X206031286Y-121480521D01*
X206031290Y-121480524D01*
X206147445Y-121547585D01*
X206168216Y-121559577D01*
X206320943Y-121600501D01*
X206320945Y-121600501D01*
X206486654Y-121600501D01*
X206486670Y-121600500D01*
X209100999Y-121600500D01*
X209168038Y-121620185D01*
X209213793Y-121672989D01*
X209223737Y-121742147D01*
X209200265Y-121798810D01*
X209180238Y-121825562D01*
X209156204Y-121857668D01*
X209156202Y-121857671D01*
X209105910Y-121992513D01*
X209105909Y-121992517D01*
X209100937Y-122038757D01*
X209074201Y-122103306D01*
X209016809Y-122143154D01*
X208977649Y-122149500D01*
X203822351Y-122149500D01*
X203755312Y-122129815D01*
X203709557Y-122077011D01*
X203699061Y-122038752D01*
X203694091Y-121992516D01*
X203643797Y-121857671D01*
X203643793Y-121857664D01*
X203557547Y-121742455D01*
X203557544Y-121742452D01*
X203442335Y-121656206D01*
X203442328Y-121656202D01*
X203307482Y-121605908D01*
X203307483Y-121605908D01*
X203247883Y-121599501D01*
X203247881Y-121599500D01*
X203247873Y-121599500D01*
X203247864Y-121599500D01*
X201602129Y-121599500D01*
X201602123Y-121599501D01*
X201542516Y-121605908D01*
X201407671Y-121656202D01*
X201407664Y-121656206D01*
X201292455Y-121742452D01*
X201292452Y-121742455D01*
X201206206Y-121857664D01*
X201206202Y-121857671D01*
X201155908Y-121992517D01*
X201149501Y-122052116D01*
X201149500Y-122052135D01*
X201149500Y-123447870D01*
X201149501Y-123447876D01*
X201155908Y-123507483D01*
X201206202Y-123642328D01*
X201206206Y-123642335D01*
X201292452Y-123757544D01*
X201292455Y-123757547D01*
X201407664Y-123843793D01*
X201407671Y-123843797D01*
X201542517Y-123894091D01*
X201542516Y-123894091D01*
X201549444Y-123894835D01*
X201602127Y-123900500D01*
X203247872Y-123900499D01*
X203307483Y-123894091D01*
X203442331Y-123843796D01*
X203557546Y-123757546D01*
X203643796Y-123642331D01*
X203694091Y-123507483D01*
X203699062Y-123461242D01*
X203725799Y-123396694D01*
X203783191Y-123356846D01*
X203822351Y-123350500D01*
X208977649Y-123350500D01*
X209044688Y-123370185D01*
X209090443Y-123422989D01*
X209100939Y-123461248D01*
X209105908Y-123507483D01*
X209156202Y-123642328D01*
X209156206Y-123642335D01*
X209242452Y-123757544D01*
X209242455Y-123757547D01*
X209357664Y-123843793D01*
X209357671Y-123843797D01*
X209492517Y-123894091D01*
X209492516Y-123894091D01*
X209499444Y-123894835D01*
X209552127Y-123900500D01*
X210875500Y-123900499D01*
X210942539Y-123920184D01*
X210988294Y-123972987D01*
X210999500Y-124024499D01*
X210999500Y-125975500D01*
X210979815Y-126042539D01*
X210927011Y-126088294D01*
X210875500Y-126099500D01*
X209552129Y-126099500D01*
X209552123Y-126099501D01*
X209492516Y-126105908D01*
X209357671Y-126156202D01*
X209357664Y-126156206D01*
X209242455Y-126242452D01*
X209242452Y-126242455D01*
X209156206Y-126357664D01*
X209156202Y-126357671D01*
X209105910Y-126492513D01*
X209105909Y-126492517D01*
X209100937Y-126538757D01*
X209074201Y-126603306D01*
X209016809Y-126643154D01*
X208977649Y-126649500D01*
X203822351Y-126649500D01*
X203755312Y-126629815D01*
X203709557Y-126577011D01*
X203699061Y-126538752D01*
X203694091Y-126492516D01*
X203643797Y-126357671D01*
X203643793Y-126357664D01*
X203557547Y-126242455D01*
X203557544Y-126242452D01*
X203442335Y-126156206D01*
X203442328Y-126156202D01*
X203307482Y-126105908D01*
X203307483Y-126105908D01*
X203247883Y-126099501D01*
X203247881Y-126099500D01*
X203247873Y-126099500D01*
X203247865Y-126099500D01*
X202175097Y-126099500D01*
X202108058Y-126079815D01*
X202087416Y-126063181D01*
X202018200Y-125993965D01*
X201984715Y-125932642D01*
X201982663Y-125920186D01*
X201972868Y-125833245D01*
X201913289Y-125662978D01*
X201817316Y-125510238D01*
X201689762Y-125382684D01*
X201660959Y-125364586D01*
X201537023Y-125286711D01*
X201366754Y-125227131D01*
X201366749Y-125227130D01*
X201187504Y-125206935D01*
X201187496Y-125206935D01*
X201008250Y-125227130D01*
X201008245Y-125227131D01*
X200837976Y-125286711D01*
X200765471Y-125332270D01*
X200698234Y-125351270D01*
X200631399Y-125330902D01*
X200586185Y-125277634D01*
X200575499Y-125227276D01*
X200575499Y-125049998D01*
X200575498Y-125049981D01*
X200564999Y-124947203D01*
X200564998Y-124947200D01*
X200556704Y-124922171D01*
X200509814Y-124780666D01*
X200417712Y-124631344D01*
X200323695Y-124537327D01*
X200290210Y-124476004D01*
X200295194Y-124406312D01*
X200323695Y-124361964D01*
X200417317Y-124268342D01*
X200509356Y-124119124D01*
X200509358Y-124119119D01*
X200564505Y-123952697D01*
X200564506Y-123952690D01*
X200574999Y-123849986D01*
X200575000Y-123849973D01*
X200575000Y-123700000D01*
X199499000Y-123700000D01*
X199431961Y-123680315D01*
X199386206Y-123627511D01*
X199375000Y-123576000D01*
X199375000Y-123450000D01*
X199249000Y-123450000D01*
X199181961Y-123430315D01*
X199136206Y-123377511D01*
X199125000Y-123326000D01*
X199125000Y-123200000D01*
X199625000Y-123200000D01*
X200574999Y-123200000D01*
X200574999Y-123050028D01*
X200574998Y-123050013D01*
X200564505Y-122947302D01*
X200509358Y-122780880D01*
X200509356Y-122780875D01*
X200417315Y-122631654D01*
X200293345Y-122507684D01*
X200144124Y-122415643D01*
X200144119Y-122415641D01*
X199977697Y-122360494D01*
X199977690Y-122360493D01*
X199874986Y-122350000D01*
X199625000Y-122350000D01*
X199625000Y-123200000D01*
X199125000Y-123200000D01*
X199125000Y-122350000D01*
X198875029Y-122350000D01*
X198875012Y-122350001D01*
X198772302Y-122360494D01*
X198605880Y-122415641D01*
X198605875Y-122415643D01*
X198456654Y-122507684D01*
X198387180Y-122577159D01*
X198325857Y-122610644D01*
X198256165Y-122605660D01*
X198200232Y-122563788D01*
X198175815Y-122498324D01*
X198175499Y-122489478D01*
X198175499Y-122424998D01*
X198175498Y-122424981D01*
X198164999Y-122322203D01*
X198164998Y-122322200D01*
X198117993Y-122180349D01*
X198109814Y-122155666D01*
X198017712Y-122006344D01*
X197893656Y-121882288D01*
X197744334Y-121790186D01*
X197577797Y-121735001D01*
X197577795Y-121735000D01*
X197475016Y-121724500D01*
X197475009Y-121724500D01*
X196512597Y-121724500D01*
X196445558Y-121704815D01*
X196424916Y-121688181D01*
X195126819Y-120390084D01*
X195093334Y-120328761D01*
X195090500Y-120302403D01*
X195090500Y-120070093D01*
X195110185Y-120003054D01*
X195162989Y-119957299D01*
X195227754Y-119946804D01*
X195262127Y-119950500D01*
X196257872Y-119950499D01*
X196317483Y-119944091D01*
X196351667Y-119931340D01*
X196421358Y-119926357D01*
X196438327Y-119931338D01*
X196472517Y-119944091D01*
X196532127Y-119950500D01*
X197527872Y-119950499D01*
X197587483Y-119944091D01*
X197621667Y-119931340D01*
X197691358Y-119926357D01*
X197708327Y-119931338D01*
X197742517Y-119944091D01*
X197802127Y-119950500D01*
X198797872Y-119950499D01*
X198857483Y-119944091D01*
X198891667Y-119931340D01*
X198961358Y-119926357D01*
X198978327Y-119931338D01*
X199012517Y-119944091D01*
X199072127Y-119950500D01*
X199878044Y-119950499D01*
X199945083Y-119970183D01*
X199990838Y-120022987D01*
X200001264Y-120060616D01*
X200014630Y-120179249D01*
X200014631Y-120179254D01*
X200074211Y-120349523D01*
X200132351Y-120442051D01*
X200170184Y-120502262D01*
X200297738Y-120629816D01*
X200450478Y-120725789D01*
X200620745Y-120785368D01*
X200620750Y-120785369D01*
X200799996Y-120805565D01*
X200800000Y-120805565D01*
X200800004Y-120805565D01*
X200979249Y-120785369D01*
X200979252Y-120785368D01*
X200979255Y-120785368D01*
X201149522Y-120725789D01*
X201302262Y-120629816D01*
X201429816Y-120502262D01*
X201525789Y-120349522D01*
X201585368Y-120179255D01*
X201598735Y-120060615D01*
X201625801Y-119996202D01*
X201683395Y-119956647D01*
X201721949Y-119950499D01*
X202607872Y-119950499D01*
X202667483Y-119944091D01*
X202701667Y-119931340D01*
X202771358Y-119926357D01*
X202788327Y-119931338D01*
X202822517Y-119944091D01*
X202882127Y-119950500D01*
X203877872Y-119950499D01*
X203937483Y-119944091D01*
X203971667Y-119931340D01*
X204041358Y-119926357D01*
X204058327Y-119931338D01*
G37*
%TD.AperFunction*%
%TA.AperFunction,Conductor*%
G36*
X175214855Y-112266546D02*
G01*
X175231575Y-112285842D01*
X175361501Y-112471396D01*
X175361506Y-112471402D01*
X175528597Y-112638493D01*
X175528603Y-112638498D01*
X175714158Y-112768425D01*
X175757783Y-112823002D01*
X175764977Y-112892500D01*
X175733454Y-112954855D01*
X175714158Y-112971575D01*
X175528597Y-113101505D01*
X175361505Y-113268597D01*
X175231575Y-113454158D01*
X175176998Y-113497783D01*
X175107500Y-113504977D01*
X175045145Y-113473454D01*
X175028425Y-113454158D01*
X174898494Y-113268597D01*
X174731402Y-113101506D01*
X174731396Y-113101501D01*
X174545842Y-112971575D01*
X174502217Y-112916998D01*
X174495023Y-112847500D01*
X174526546Y-112785145D01*
X174545842Y-112768425D01*
X174681173Y-112673665D01*
X174731401Y-112638495D01*
X174898495Y-112471401D01*
X175028425Y-112285842D01*
X175083002Y-112242217D01*
X175152500Y-112235023D01*
X175214855Y-112266546D01*
G37*
%TD.AperFunction*%
%TA.AperFunction,Conductor*%
G36*
X187192539Y-107890185D02*
G01*
X187238294Y-107942989D01*
X187249500Y-107994500D01*
X187249500Y-108883790D01*
X187229815Y-108950829D01*
X187177011Y-108996584D01*
X187111617Y-109007010D01*
X187000004Y-108994435D01*
X186999996Y-108994435D01*
X186820750Y-109014630D01*
X186820745Y-109014631D01*
X186650476Y-109074211D01*
X186497736Y-109170185D01*
X186494903Y-109172445D01*
X186492724Y-109173334D01*
X186491842Y-109173889D01*
X186491744Y-109173734D01*
X186430217Y-109198855D01*
X186417588Y-109199500D01*
X185174000Y-109199500D01*
X185106961Y-109179815D01*
X185061206Y-109127011D01*
X185050000Y-109075500D01*
X185050000Y-108700000D01*
X184024000Y-108700000D01*
X183956961Y-108680315D01*
X183911206Y-108627511D01*
X183900000Y-108576000D01*
X183900000Y-108324000D01*
X183919685Y-108256961D01*
X183972489Y-108211206D01*
X184024000Y-108200000D01*
X185050000Y-108200000D01*
X185050000Y-107994500D01*
X185069685Y-107927461D01*
X185122489Y-107881706D01*
X185174000Y-107870500D01*
X187125500Y-107870500D01*
X187192539Y-107890185D01*
G37*
%TD.AperFunction*%
%TA.AperFunction,Conductor*%
G36*
X184086738Y-103420185D02*
G01*
X184132493Y-103472989D01*
X184137403Y-103485492D01*
X184165186Y-103569334D01*
X184257288Y-103718656D01*
X184381344Y-103842712D01*
X184530666Y-103934814D01*
X184674746Y-103982557D01*
X184732190Y-104022328D01*
X184759013Y-104086844D01*
X184746698Y-104155620D01*
X184699155Y-104206820D01*
X184674746Y-104217968D01*
X184530878Y-104265642D01*
X184530875Y-104265643D01*
X184381654Y-104357684D01*
X184257684Y-104481654D01*
X184165643Y-104630875D01*
X184165641Y-104630880D01*
X184110494Y-104797302D01*
X184110493Y-104797309D01*
X184100000Y-104900013D01*
X184100000Y-105150000D01*
X185076000Y-105150000D01*
X185143039Y-105169685D01*
X185188794Y-105222489D01*
X185200000Y-105274000D01*
X185200000Y-105526000D01*
X185180315Y-105593039D01*
X185127511Y-105638794D01*
X185076000Y-105650000D01*
X184100001Y-105650000D01*
X184100001Y-105899986D01*
X184110494Y-106002697D01*
X184121694Y-106036496D01*
X184124096Y-106106324D01*
X184088364Y-106166366D01*
X184025844Y-106197559D01*
X184003988Y-106199500D01*
X183121843Y-106199500D01*
X183054804Y-106179815D01*
X183009049Y-106127011D01*
X182998623Y-106061617D01*
X183005565Y-106000003D01*
X183005565Y-105999996D01*
X182985369Y-105820750D01*
X182985368Y-105820745D01*
X182965225Y-105763181D01*
X182925789Y-105650478D01*
X182924608Y-105648599D01*
X182829815Y-105497737D01*
X182702262Y-105370184D01*
X182702179Y-105370118D01*
X182702138Y-105370060D01*
X182697338Y-105365260D01*
X182698179Y-105364418D01*
X182662044Y-105312926D01*
X182655500Y-105273177D01*
X182655500Y-104900015D01*
X182655499Y-104899984D01*
X182654550Y-104884933D01*
X182651493Y-104836478D01*
X182638659Y-104789891D01*
X182635469Y-104739318D01*
X182655500Y-104600000D01*
X182655500Y-103524500D01*
X182675185Y-103457461D01*
X182727989Y-103411706D01*
X182779500Y-103400500D01*
X184019699Y-103400500D01*
X184086738Y-103420185D01*
G37*
%TD.AperFunction*%
%TA.AperFunction,Conductor*%
G36*
X185642539Y-101210185D02*
G01*
X185688294Y-101262989D01*
X185699500Y-101314500D01*
X185699500Y-101475500D01*
X185679815Y-101542539D01*
X185627011Y-101588294D01*
X185575500Y-101599500D01*
X184799998Y-101599500D01*
X184799980Y-101599501D01*
X184697203Y-101610000D01*
X184697200Y-101610001D01*
X184530668Y-101665185D01*
X184530663Y-101665187D01*
X184381342Y-101757289D01*
X184257289Y-101881342D01*
X184165187Y-102030663D01*
X184165185Y-102030668D01*
X184156266Y-102057584D01*
X184138093Y-102112429D01*
X184137405Y-102114504D01*
X184097632Y-102171949D01*
X184033116Y-102198772D01*
X184019699Y-102199500D01*
X182765192Y-102199500D01*
X182698153Y-102179815D01*
X182652398Y-102127011D01*
X182646819Y-102112429D01*
X182606226Y-101982310D01*
X182606224Y-101982308D01*
X182526415Y-101862595D01*
X182487130Y-101829694D01*
X182416110Y-101770214D01*
X182416107Y-101770212D01*
X182416105Y-101770211D01*
X182284245Y-101712651D01*
X182141509Y-101694570D01*
X181999454Y-101717438D01*
X181999451Y-101717439D01*
X181869598Y-101779399D01*
X181468783Y-102046609D01*
X181402084Y-102067417D01*
X181334723Y-102048862D01*
X181331217Y-102046609D01*
X180930401Y-101779399D01*
X180859994Y-101740182D01*
X180859987Y-101740179D01*
X180721942Y-101699645D01*
X180721940Y-101699645D01*
X180578060Y-101699645D01*
X180578059Y-101699645D01*
X180440005Y-101740182D01*
X180318969Y-101817967D01*
X180318965Y-101817971D01*
X180224750Y-101926700D01*
X180224744Y-101926709D01*
X180164976Y-102057580D01*
X180164975Y-102057585D01*
X180144500Y-102199999D01*
X180144500Y-104600021D01*
X180150388Y-104673637D01*
X180136111Y-104742032D01*
X180087122Y-104791851D01*
X180018976Y-104807276D01*
X179953309Y-104783410D01*
X179939102Y-104771203D01*
X177636254Y-102468355D01*
X177636252Y-102468352D01*
X177528873Y-102360973D01*
X177495388Y-102299650D01*
X177500372Y-102229958D01*
X177514975Y-102202175D01*
X177574035Y-102117830D01*
X177673903Y-101903663D01*
X177735063Y-101675408D01*
X177755659Y-101440000D01*
X177745624Y-101325306D01*
X177759390Y-101256808D01*
X177808005Y-101206625D01*
X177869152Y-101190500D01*
X185575500Y-101190500D01*
X185642539Y-101210185D01*
G37*
%TD.AperFunction*%
%TD*%
M02*
