%TF.GenerationSoftware,KiCad,Pcbnew,8.0.8*%
%TF.CreationDate,2025-03-13T10:44:27-05:00*%
%TF.ProjectId,Final Project V1,46696e61-6c20-4507-926f-6a6563742056,rev?*%
%TF.SameCoordinates,Original*%
%TF.FileFunction,Copper,L2,Bot*%
%TF.FilePolarity,Positive*%
%FSLAX46Y46*%
G04 Gerber Fmt 4.6, Leading zero omitted, Abs format (unit mm)*
G04 Created by KiCad (PCBNEW 8.0.8) date 2025-03-13 10:44:27*
%MOMM*%
%LPD*%
G01*
G04 APERTURE LIST*
%TA.AperFunction,ComponentPad*%
%ADD10R,1.498000X1.498000*%
%TD*%
%TA.AperFunction,ComponentPad*%
%ADD11C,1.498000*%
%TD*%
%TA.AperFunction,ComponentPad*%
%ADD12R,2.200000X2.200000*%
%TD*%
%TA.AperFunction,ComponentPad*%
%ADD13O,2.200000X2.200000*%
%TD*%
%TA.AperFunction,ComponentPad*%
%ADD14R,1.500000X1.500000*%
%TD*%
%TA.AperFunction,ComponentPad*%
%ADD15C,1.600000*%
%TD*%
%TA.AperFunction,HeatsinkPad*%
%ADD16C,0.600000*%
%TD*%
%TA.AperFunction,ComponentPad*%
%ADD17R,1.700000X1.700000*%
%TD*%
%TA.AperFunction,ComponentPad*%
%ADD18O,1.700000X1.700000*%
%TD*%
%TA.AperFunction,ComponentPad*%
%ADD19C,1.524000*%
%TD*%
%TA.AperFunction,ComponentPad*%
%ADD20O,1.000000X2.000000*%
%TD*%
%TA.AperFunction,ComponentPad*%
%ADD21C,1.651000*%
%TD*%
%TA.AperFunction,ComponentPad*%
%ADD22R,1.530000X1.530000*%
%TD*%
%TA.AperFunction,ComponentPad*%
%ADD23C,1.530000*%
%TD*%
%TA.AperFunction,ComponentPad*%
%ADD24C,1.955800*%
%TD*%
%TA.AperFunction,ViaPad*%
%ADD25C,0.600000*%
%TD*%
%TA.AperFunction,Conductor*%
%ADD26C,0.200000*%
%TD*%
G04 APERTURE END LIST*
D10*
%TO.P,SW6,1*%
%TO.N,Net-(U2-IO0)*%
X172250000Y-127150000D03*
D11*
%TO.P,SW6,2*%
X172250000Y-133650000D03*
%TO.P,SW6,3*%
%TO.N,GND*%
X167750000Y-127150000D03*
%TO.P,SW6,4*%
X167750000Y-133650000D03*
%TD*%
D12*
%TO.P,D2,1,K*%
%TO.N,Net-(D1-K)*%
X209000000Y-91480000D03*
D13*
%TO.P,D2,2,A*%
%TO.N,Net-(D2-A)*%
X209000000Y-81320000D03*
%TD*%
D14*
%TO.P,SW5,1,B*%
%TO.N,Net-(D2-A)*%
X211260000Y-72600000D03*
D15*
%TO.P,SW5,2,C*%
%TO.N,Net-(SW5-C)*%
X208720000Y-72600000D03*
%TO.P,SW5,3,A*%
%TO.N,unconnected-(SW5-A-Pad3)*%
X213800000Y-72600000D03*
%TD*%
D16*
%TO.P,U2,41,GND*%
%TO.N,GND*%
X203980000Y-107050000D03*
X202580000Y-107050000D03*
X204680000Y-107750000D03*
X203280000Y-107750000D03*
X201880000Y-107750000D03*
X203980000Y-108450000D03*
X202580000Y-108450000D03*
X204680000Y-109150000D03*
X203280000Y-109150000D03*
X201880000Y-109150000D03*
X203980000Y-109850000D03*
X202580000Y-109850000D03*
%TD*%
D17*
%TO.P,J3,1,Pin_1*%
%TO.N,GND*%
X193600000Y-122600000D03*
D18*
%TO.P,J3,2,Pin_2*%
%TO.N,Hall Read*%
X193600000Y-125140000D03*
%TO.P,J3,3,Pin_3*%
%TO.N,3.3V*%
X191060000Y-122600000D03*
%TO.P,J3,4,Pin_4*%
%TO.N,GND*%
X191060000Y-125140000D03*
%TD*%
D19*
%TO.P,J9,1*%
%TO.N,D4*%
X150920000Y-81619700D03*
%TO.P,J9,2*%
%TO.N,GND*%
X150920000Y-79079700D03*
%TO.P,J9,3*%
%TO.N,D6*%
X153460000Y-81619700D03*
%TO.P,J9,4*%
%TO.N,D5*%
X153460000Y-79079700D03*
%TO.P,J9,5*%
%TO.N,MCLK*%
X156000000Y-81619700D03*
%TO.P,J9,6*%
%TO.N,D7*%
X156000000Y-79079700D03*
%TO.P,J9,7*%
%TO.N,HS*%
X158540000Y-81619700D03*
%TO.P,J9,8*%
%TO.N,PCLK*%
X158540000Y-79079700D03*
%TO.P,J9,9*%
%TO.N,D0*%
X161080000Y-81619700D03*
%TO.P,J9,10*%
%TO.N,VS*%
X161080000Y-79079700D03*
%TD*%
D10*
%TO.P,SW3,1*%
%TO.N,GND*%
X181700000Y-88700000D03*
D11*
%TO.P,SW3,2*%
X188200000Y-88700000D03*
%TO.P,SW3,3*%
%TO.N,Chip_PU*%
X181700000Y-93200000D03*
%TO.P,SW3,4*%
X188200000Y-93200000D03*
%TD*%
D20*
%TO.P,USB-C1,S1,SHIELD*%
%TO.N,GND*%
X204720000Y-75300000D03*
%TO.P,USB-C1,S2,SHIELD__1*%
X196080000Y-75300000D03*
%TO.P,USB-C1,S3,SHIELD__2*%
X204720000Y-71500000D03*
%TO.P,USB-C1,S4,SHIELD__3*%
X196080000Y-71500000D03*
%TD*%
D12*
%TO.P,D1,1,K*%
%TO.N,Net-(D1-K)*%
X204600000Y-91400000D03*
D13*
%TO.P,D1,2,A*%
%TO.N,Net-(D1-A)*%
X204600000Y-81240000D03*
%TD*%
D21*
%TO.P,U4,1,G*%
%TO.N,Camera Power Signal*%
X165000000Y-91400000D03*
%TO.P,U4,2,D*%
%TO.N,Camera Power*%
X165000000Y-93940000D03*
%TO.P,U4,3,S*%
%TO.N,3.3V*%
X165000000Y-96480000D03*
%TD*%
%TO.P,U5,1,G*%
%TO.N,Motor Power Signal*%
X186140000Y-124200000D03*
%TO.P,U5,2,D*%
%TO.N,Motor Out*%
X183600000Y-124200000D03*
%TO.P,U5,3,S*%
%TO.N,3.3V*%
X181060000Y-124200000D03*
%TD*%
D17*
%TO.P,J2,1,Pin_1*%
%TO.N,GND*%
X198860000Y-133140000D03*
D18*
%TO.P,J2,2,Pin_2*%
%TO.N,RX*%
X198860000Y-130600000D03*
%TO.P,J2,3,Pin_3*%
%TO.N,TX*%
X201400000Y-133140000D03*
%TO.P,J2,4,Pin_4*%
%TO.N,DTR*%
X201400000Y-130600000D03*
%TO.P,J2,5,Pin_5*%
%TO.N,RTS*%
X203940000Y-133140000D03*
%TO.P,J2,6,Pin_6*%
%TO.N,GND*%
X203940000Y-130600000D03*
%TD*%
D17*
%TO.P,J5,1,Pin_1*%
%TO.N,Net-(J5-Pin_1)*%
X186025000Y-128750000D03*
D18*
%TO.P,J5,2,Pin_2*%
%TO.N,3.3V*%
X188565000Y-128750000D03*
%TD*%
D14*
%TO.P,SW4,1,B*%
%TO.N,Net-(SW4-B)*%
X189860000Y-72600000D03*
D15*
%TO.P,SW4,2,C*%
%TO.N,Net-(D1-A)*%
X187320000Y-72600000D03*
%TO.P,SW4,3,A*%
%TO.N,unconnected-(SW4-A-Pad3)*%
X192400000Y-72600000D03*
%TD*%
D17*
%TO.P,J4,1,Pin_1*%
%TO.N,GND*%
X195075000Y-128800000D03*
D18*
%TO.P,J4,2,Pin_2*%
%TO.N,Motor Out*%
X192535000Y-128800000D03*
%TD*%
D22*
%TO.P,J8,1,1*%
%TO.N,Camera Power*%
X170190000Y-82827500D03*
D23*
%TO.P,J8,2,2*%
X170190000Y-80287500D03*
%TO.P,J8,3,3*%
%TO.N,D1*%
X172730000Y-82827500D03*
%TO.P,J8,4,4*%
%TO.N,SDA*%
X172730000Y-80287500D03*
%TO.P,J8,5,5*%
%TO.N,D2*%
X175270000Y-82827500D03*
%TO.P,J8,6,6*%
%TO.N,SCL*%
X175270000Y-80287500D03*
%TO.P,J8,7,7*%
%TO.N,Net-(J8-Pad7)*%
X177810000Y-82827500D03*
%TO.P,J8,8,8*%
%TO.N,D3*%
X177810000Y-80287500D03*
%TD*%
D24*
%TO.P,J1,1,1*%
%TO.N,Net-(SW5-C)*%
X219200000Y-78200000D03*
%TO.P,J1,2,2*%
%TO.N,GND*%
X223399998Y-78200000D03*
%TO.P,J1,3,3*%
%TO.N,unconnected-(J1-Pad3)*%
X219200000Y-83699999D03*
%TO.P,J1,4,4*%
%TO.N,unconnected-(J1-Pad4)*%
X223399998Y-83699999D03*
%TD*%
D17*
%TO.P,J7,1,Pin_1*%
%TO.N,Net-(J7-Pin_1)*%
X185075000Y-119000000D03*
D18*
%TO.P,J7,2,Pin_2*%
%TO.N,3.3V*%
X182535000Y-119000000D03*
%TD*%
D25*
%TO.N,3.3V*%
X192000000Y-120800000D03*
X192000000Y-92600000D03*
X182800000Y-133200000D03*
X181000000Y-135000000D03*
X195800000Y-120600000D03*
X190200000Y-120400000D03*
X182000000Y-132600000D03*
X179800000Y-133800000D03*
%TO.N,GND*%
X198800000Y-91450000D03*
X210800000Y-94762500D03*
X193800000Y-89037500D03*
X167800000Y-122400000D03*
X211000000Y-101200000D03*
X203150000Y-75305000D03*
X207200000Y-133600000D03*
X178400000Y-105600000D03*
X197000000Y-120800000D03*
X197945000Y-82000000D03*
X201200000Y-89037500D03*
X163800000Y-86400000D03*
X211000000Y-118700000D03*
X196837500Y-85800000D03*
X195400000Y-126200000D03*
X181400000Y-130600000D03*
X170000000Y-124200000D03*
X199200000Y-106400000D03*
X171200000Y-119000000D03*
X208200000Y-94762500D03*
X205600000Y-130800000D03*
X192037500Y-83200000D03*
X201000000Y-107600000D03*
X198000000Y-108200000D03*
X192800000Y-80200000D03*
X180437500Y-95800000D03*
X197777815Y-75179315D03*
X173800000Y-120400000D03*
%TO.N,Net-(U2-IO0)*%
X201187500Y-126012500D03*
X171000000Y-97200000D03*
X181000000Y-99000000D03*
X173400000Y-97200000D03*
%TO.N,Chip_PU*%
X205600000Y-93400000D03*
X190000000Y-93200000D03*
%TO.N,RTS*%
X199400000Y-96600000D03*
%TO.N,DTR*%
X189200000Y-96000000D03*
%TO.N,Net-(U3-ISET)*%
X195800000Y-81600000D03*
X197400000Y-80200000D03*
%TO.N,Net-(U3-~{CHG})*%
X201800000Y-81200000D03*
X190800000Y-84200000D03*
%TO.N,Hall Read*%
X200600000Y-116800000D03*
%TO.N,D0*%
X184200000Y-113400000D03*
X192200000Y-101600000D03*
%TO.N,D1*%
X191400000Y-101600000D03*
X184200000Y-112600000D03*
%TO.N,D2*%
X184200000Y-111800000D03*
X190600000Y-101600000D03*
%TO.N,Camera Power*%
X177200000Y-124400000D03*
%TO.N,SDA*%
X177200000Y-122400000D03*
%TO.N,D3*%
X184200000Y-110800000D03*
X189700000Y-101500000D03*
%TO.N,SCL*%
X166400000Y-85000000D03*
X174400000Y-123000000D03*
%TO.N,Manual Feed*%
X195800000Y-116800000D03*
X191800000Y-118800000D03*
%TO.N,Camera Power Signal*%
X191800000Y-117200000D03*
%TO.N,Net-(J8-Pad7)*%
X163800000Y-84600000D03*
%TD*%
D26*
%TO.N,3.3V*%
X191600000Y-120400000D02*
X192000000Y-120800000D01*
X182000000Y-132600000D02*
X180800000Y-133800000D01*
X192000000Y-120800000D02*
X192200000Y-121000000D01*
X180800000Y-133800000D02*
X179800000Y-133800000D01*
X195400000Y-121000000D02*
X195800000Y-120600000D01*
X192200000Y-121000000D02*
X195400000Y-121000000D01*
X190200000Y-120400000D02*
X191600000Y-120400000D01*
X182800000Y-133200000D02*
X181000000Y-135000000D01*
%TO.N,GND*%
X191060000Y-125140000D02*
X193600000Y-122600000D01*
X193600000Y-122600000D02*
X195200000Y-122600000D01*
X195200000Y-122600000D02*
X197000000Y-120800000D01*
%TO.N,Net-(U2-IO0)*%
X170700000Y-103900000D02*
X170700000Y-97500000D01*
X177005831Y-128848529D02*
X179757302Y-131600000D01*
X177005831Y-128848529D02*
X175307302Y-127150000D01*
X177005831Y-128848529D02*
X167074500Y-118917198D01*
X195600000Y-131600000D02*
X201187500Y-126012500D01*
X172250000Y-133650000D02*
X172250000Y-127150000D01*
X170500000Y-104100000D02*
X170700000Y-103900000D01*
X179200000Y-97200000D02*
X181000000Y-99000000D01*
X175307302Y-127150000D02*
X172250000Y-127150000D01*
X179200000Y-97200000D02*
X173400000Y-97200000D01*
X179757302Y-131600000D02*
X195600000Y-131600000D01*
X170700000Y-97500000D02*
X171000000Y-97200000D01*
X167074500Y-118917198D02*
X167074500Y-107525500D01*
X167074500Y-107525500D02*
X170500000Y-104100000D01*
%TO.N,Chip_PU*%
X205600000Y-93400000D02*
X190200000Y-93400000D01*
X190200000Y-93400000D02*
X190000000Y-93200000D01*
%TO.N,RTS*%
X199400000Y-96600000D02*
X199400000Y-99200000D01*
X207000000Y-106800000D02*
X207000000Y-132600000D01*
X199400000Y-99200000D02*
X207000000Y-106800000D01*
X207000000Y-132600000D02*
X206460000Y-133140000D01*
X206460000Y-133140000D02*
X203940000Y-133140000D01*
%TO.N,DTR*%
X193000000Y-101600000D02*
X201000000Y-109600000D01*
X193000000Y-99800000D02*
X193000000Y-101600000D01*
X206600000Y-131200000D02*
X206050000Y-131750000D01*
X202550000Y-131750000D02*
X201400000Y-130600000D01*
X201000000Y-116000000D02*
X206600000Y-121600000D01*
X189200000Y-96000000D02*
X193000000Y-99800000D01*
X201000000Y-109600000D02*
X201000000Y-116000000D01*
X206600000Y-121600000D02*
X206600000Y-131200000D01*
X206050000Y-131750000D02*
X202550000Y-131750000D01*
%TO.N,Net-(U3-ISET)*%
X195800000Y-81600000D02*
X197200000Y-80200000D01*
X197200000Y-80200000D02*
X197400000Y-80200000D01*
%TO.N,Net-(U3-~{CHG})*%
X198400000Y-80000000D02*
X198000000Y-79600000D01*
X190600000Y-81600000D02*
X190400000Y-81800000D01*
X201400000Y-80000000D02*
X198400000Y-80000000D01*
X195000000Y-79600000D02*
X193000000Y-81600000D01*
X198000000Y-79600000D02*
X195000000Y-79600000D01*
X201800000Y-81200000D02*
X201800000Y-80400000D01*
X190400000Y-82200000D02*
X190800000Y-82600000D01*
X201800000Y-80400000D02*
X201400000Y-80000000D01*
X190800000Y-82600000D02*
X190800000Y-84200000D01*
X190400000Y-81800000D02*
X190400000Y-82200000D01*
X193000000Y-81600000D02*
X190600000Y-81600000D01*
%TO.N,Hall Read*%
X200800000Y-120400000D02*
X200600000Y-120200000D01*
X200800000Y-123400000D02*
X200800000Y-120400000D01*
X196000000Y-124800000D02*
X199400000Y-124800000D01*
X195660000Y-125140000D02*
X193600000Y-125140000D01*
X199400000Y-124800000D02*
X200800000Y-123400000D01*
X196000000Y-124800000D02*
X195660000Y-125140000D01*
X200600000Y-116800000D02*
X200600000Y-120200000D01*
%TO.N,D0*%
X186000000Y-113400000D02*
X184200000Y-113400000D01*
X192200000Y-107200000D02*
X186000000Y-113400000D01*
X192200000Y-101600000D02*
X192200000Y-107200000D01*
%TO.N,D1*%
X191400000Y-101600000D02*
X191400000Y-107400000D01*
X191400000Y-107400000D02*
X186200000Y-112600000D01*
X186200000Y-112600000D02*
X184200000Y-112600000D01*
%TO.N,D2*%
X190600000Y-107400000D02*
X186200000Y-111800000D01*
X190600000Y-101600000D02*
X190600000Y-107400000D01*
X186200000Y-111800000D02*
X184200000Y-111800000D01*
%TO.N,Camera Power*%
X173200000Y-124400000D02*
X167474500Y-118674500D01*
X168588529Y-93940000D02*
X165000000Y-93940000D01*
X177200000Y-124400000D02*
X173200000Y-124400000D01*
X171600000Y-96951471D02*
X168588529Y-93940000D01*
X167474500Y-107691186D02*
X171600000Y-103565686D01*
X167474500Y-118674500D02*
X167474500Y-107691186D01*
X171600000Y-103565686D02*
X171600000Y-96951471D01*
%TO.N,SDA*%
X172800000Y-104205872D02*
X172800000Y-96400000D01*
X168674500Y-108331372D02*
X172800000Y-104205872D01*
X168674500Y-118177442D02*
X168674500Y-108331372D01*
X167800000Y-78600000D02*
X171042500Y-78600000D01*
X172800000Y-96400000D02*
X169800000Y-93400000D01*
X171042500Y-78600000D02*
X172730000Y-80287500D01*
X169765686Y-93400000D02*
X167000000Y-90634314D01*
X172897058Y-122400000D02*
X168674500Y-118177442D01*
X169800000Y-93400000D02*
X169765686Y-93400000D01*
X167000000Y-90634314D02*
X167000000Y-79400000D01*
X177200000Y-122400000D02*
X172897058Y-122400000D01*
X167000000Y-79400000D02*
X167800000Y-78600000D01*
%TO.N,D3*%
X189700000Y-101500000D02*
X189700000Y-107734314D01*
X186634314Y-110800000D02*
X184200000Y-110800000D01*
X186617157Y-110817157D02*
X186717157Y-110717157D01*
X186717157Y-110717157D02*
X186634314Y-110800000D01*
X189700000Y-107734314D02*
X186617157Y-110817157D01*
%TO.N,SCL*%
X168274500Y-118343128D02*
X168274500Y-108165686D01*
X172400000Y-96600000D02*
X166800000Y-91000000D01*
X166800000Y-91000000D02*
X166600000Y-91000000D01*
X166400000Y-85000000D02*
X166400000Y-79434315D01*
X173182500Y-78200000D02*
X175270000Y-80287500D01*
X174400000Y-123000000D02*
X172931372Y-123000000D01*
X166600000Y-91000000D02*
X166400000Y-90800000D01*
X166400000Y-79434315D02*
X167634315Y-78200000D01*
X172931372Y-123000000D02*
X168274500Y-118343128D01*
X167634315Y-78200000D02*
X173182500Y-78200000D01*
X168274500Y-108165686D02*
X172400000Y-104040186D01*
X166400000Y-90800000D02*
X166400000Y-85000000D01*
X172400000Y-104040186D02*
X172400000Y-96600000D01*
%TO.N,Manual Feed*%
X195600000Y-117648529D02*
X195800000Y-116800000D01*
X194448529Y-118800000D02*
X195600000Y-117648529D01*
X195800000Y-116800000D02*
X195600000Y-116800000D01*
X191800000Y-118800000D02*
X194448529Y-118800000D01*
%TO.N,Camera Power Signal*%
X179000000Y-123000000D02*
X178200000Y-123800000D01*
X172000000Y-103874500D02*
X172000000Y-96785785D01*
X178200000Y-123800000D02*
X173165686Y-123800000D01*
X187600000Y-123000000D02*
X179000000Y-123000000D01*
X191800000Y-117200000D02*
X188600000Y-120400000D01*
X166614215Y-91400000D02*
X165000000Y-91400000D01*
X173165686Y-123800000D02*
X167874500Y-118508814D01*
X188600000Y-120400000D02*
X188600000Y-122000000D01*
X167874500Y-118508814D02*
X167874500Y-108000000D01*
X167874500Y-108000000D02*
X172000000Y-103874500D01*
X172000000Y-96785785D02*
X166614215Y-91400000D01*
X188600000Y-122000000D02*
X187600000Y-123000000D01*
%TO.N,Net-(J8-Pad7)*%
X167400000Y-77800000D02*
X163800000Y-81400000D01*
X176335000Y-81352500D02*
X176335000Y-79735000D01*
X163800000Y-81400000D02*
X163800000Y-84600000D01*
X176335000Y-79735000D02*
X174400000Y-77800000D01*
X174400000Y-77800000D02*
X167400000Y-77800000D01*
X177810000Y-82827500D02*
X176335000Y-81352500D01*
%TD*%
%TA.AperFunction,Conductor*%
%TO.N,GND*%
G36*
X201418448Y-117268268D02*
G01*
X201425896Y-117275131D01*
X205963181Y-121812416D01*
X205996666Y-121873739D01*
X205999500Y-121900097D01*
X205999500Y-130899903D01*
X205979815Y-130966942D01*
X205963181Y-130987584D01*
X205837584Y-131113181D01*
X205776261Y-131146666D01*
X205749903Y-131149500D01*
X205351985Y-131149500D01*
X205284946Y-131129815D01*
X205239191Y-131077011D01*
X205229247Y-131007853D01*
X205232210Y-130993406D01*
X205270636Y-130850000D01*
X204373012Y-130850000D01*
X204405925Y-130792993D01*
X204440000Y-130665826D01*
X204440000Y-130534174D01*
X204405925Y-130407007D01*
X204373012Y-130350000D01*
X205270636Y-130350000D01*
X205270635Y-130349999D01*
X205213432Y-130136513D01*
X205213429Y-130136507D01*
X205113600Y-129922422D01*
X205113599Y-129922420D01*
X204978113Y-129728926D01*
X204978108Y-129728920D01*
X204811082Y-129561894D01*
X204617578Y-129426399D01*
X204403492Y-129326570D01*
X204403486Y-129326567D01*
X204190000Y-129269364D01*
X204190000Y-130166988D01*
X204132993Y-130134075D01*
X204005826Y-130100000D01*
X203874174Y-130100000D01*
X203747007Y-130134075D01*
X203690000Y-130166988D01*
X203690000Y-129269364D01*
X203689999Y-129269364D01*
X203476513Y-129326567D01*
X203476507Y-129326570D01*
X203262422Y-129426399D01*
X203262420Y-129426400D01*
X203068926Y-129561886D01*
X203068920Y-129561891D01*
X202901891Y-129728920D01*
X202901890Y-129728922D01*
X202771880Y-129914595D01*
X202717303Y-129958219D01*
X202647804Y-129965412D01*
X202585450Y-129933890D01*
X202568730Y-129914594D01*
X202438494Y-129728597D01*
X202271402Y-129561506D01*
X202271395Y-129561501D01*
X202077834Y-129425967D01*
X202077830Y-129425965D01*
X202010705Y-129394664D01*
X201863663Y-129326097D01*
X201863659Y-129326096D01*
X201863655Y-129326094D01*
X201635413Y-129264938D01*
X201635403Y-129264936D01*
X201400001Y-129244341D01*
X201399999Y-129244341D01*
X201164596Y-129264936D01*
X201164586Y-129264938D01*
X200936344Y-129326094D01*
X200936337Y-129326096D01*
X200936337Y-129326097D01*
X200930004Y-129329050D01*
X200722171Y-129425964D01*
X200722169Y-129425965D01*
X200528597Y-129561505D01*
X200361505Y-129728597D01*
X200231575Y-129914158D01*
X200176998Y-129957783D01*
X200107500Y-129964977D01*
X200045145Y-129933454D01*
X200028425Y-129914158D01*
X199898494Y-129728597D01*
X199731402Y-129561506D01*
X199731395Y-129561501D01*
X199537834Y-129425967D01*
X199537830Y-129425965D01*
X199470705Y-129394664D01*
X199323663Y-129326097D01*
X199323659Y-129326096D01*
X199323655Y-129326094D01*
X199095413Y-129264938D01*
X199095403Y-129264936D01*
X199074230Y-129263084D01*
X199009161Y-129237630D01*
X198968184Y-129181039D01*
X198964307Y-129111277D01*
X198997356Y-129051877D01*
X201206035Y-126843198D01*
X201267356Y-126809715D01*
X201279811Y-126807663D01*
X201366755Y-126797868D01*
X201537022Y-126738289D01*
X201689762Y-126642316D01*
X201817316Y-126514762D01*
X201913289Y-126362022D01*
X201972868Y-126191755D01*
X201974362Y-126178495D01*
X201993065Y-126012503D01*
X201993065Y-126012496D01*
X201972869Y-125833250D01*
X201972868Y-125833245D01*
X201940415Y-125740500D01*
X201913289Y-125662978D01*
X201817316Y-125510238D01*
X201689762Y-125382684D01*
X201678182Y-125375408D01*
X201537023Y-125286711D01*
X201366754Y-125227131D01*
X201366749Y-125227130D01*
X201187504Y-125206935D01*
X201187496Y-125206935D01*
X201008250Y-125227130D01*
X201008245Y-125227131D01*
X200837976Y-125286711D01*
X200685237Y-125382684D01*
X200557684Y-125510237D01*
X200461711Y-125662977D01*
X200402130Y-125833250D01*
X200392337Y-125920168D01*
X200365270Y-125984582D01*
X200356798Y-125993965D01*
X196636681Y-129714083D01*
X196575358Y-129747568D01*
X196505666Y-129742584D01*
X196449733Y-129700712D01*
X196425316Y-129635248D01*
X196425000Y-129626402D01*
X196425000Y-129050000D01*
X195508012Y-129050000D01*
X195540925Y-128992993D01*
X195575000Y-128865826D01*
X195575000Y-128734174D01*
X195540925Y-128607007D01*
X195508012Y-128550000D01*
X196425000Y-128550000D01*
X196425000Y-127902172D01*
X196424999Y-127902155D01*
X196418598Y-127842627D01*
X196418596Y-127842620D01*
X196368354Y-127707913D01*
X196368350Y-127707906D01*
X196282190Y-127592812D01*
X196282187Y-127592809D01*
X196167093Y-127506649D01*
X196167086Y-127506645D01*
X196032379Y-127456403D01*
X196032372Y-127456401D01*
X195972844Y-127450000D01*
X195325000Y-127450000D01*
X195325000Y-128366988D01*
X195267993Y-128334075D01*
X195140826Y-128300000D01*
X195009174Y-128300000D01*
X194882007Y-128334075D01*
X194825000Y-128366988D01*
X194825000Y-127450000D01*
X194177155Y-127450000D01*
X194117627Y-127456401D01*
X194117620Y-127456403D01*
X193982913Y-127506645D01*
X193982906Y-127506649D01*
X193867812Y-127592809D01*
X193867809Y-127592812D01*
X193781649Y-127707906D01*
X193781645Y-127707913D01*
X193732578Y-127839470D01*
X193690707Y-127895404D01*
X193625242Y-127919821D01*
X193556969Y-127904969D01*
X193528715Y-127883819D01*
X193478326Y-127833430D01*
X193406401Y-127761505D01*
X193406397Y-127761502D01*
X193406396Y-127761501D01*
X193212834Y-127625967D01*
X193212830Y-127625965D01*
X193141727Y-127592809D01*
X192998663Y-127526097D01*
X192998659Y-127526096D01*
X192998655Y-127526094D01*
X192770413Y-127464938D01*
X192770403Y-127464936D01*
X192535001Y-127444341D01*
X192534999Y-127444341D01*
X192299596Y-127464936D01*
X192299586Y-127464938D01*
X192071344Y-127526094D01*
X192071335Y-127526098D01*
X191857171Y-127625964D01*
X191857169Y-127625965D01*
X191663597Y-127761505D01*
X191496505Y-127928597D01*
X191360965Y-128122169D01*
X191360964Y-128122171D01*
X191261098Y-128336335D01*
X191261094Y-128336344D01*
X191199938Y-128564586D01*
X191199936Y-128564596D01*
X191179341Y-128799999D01*
X191179341Y-128800000D01*
X191199936Y-129035403D01*
X191199938Y-129035413D01*
X191261094Y-129263655D01*
X191261096Y-129263659D01*
X191261097Y-129263663D01*
X191360965Y-129477830D01*
X191360967Y-129477834D01*
X191419825Y-129561891D01*
X191496505Y-129671401D01*
X191663599Y-129838495D01*
X191740138Y-129892088D01*
X191857165Y-129974032D01*
X191857167Y-129974033D01*
X191857170Y-129974035D01*
X192071337Y-130073903D01*
X192299592Y-130135063D01*
X192470319Y-130150000D01*
X192534999Y-130155659D01*
X192535000Y-130155659D01*
X192535001Y-130155659D01*
X192599681Y-130150000D01*
X192770408Y-130135063D01*
X192998663Y-130073903D01*
X193212830Y-129974035D01*
X193406401Y-129838495D01*
X193528717Y-129716178D01*
X193590036Y-129682696D01*
X193659728Y-129687680D01*
X193715662Y-129729551D01*
X193732577Y-129760528D01*
X193781646Y-129892088D01*
X193781649Y-129892093D01*
X193867809Y-130007187D01*
X193867812Y-130007190D01*
X193982906Y-130093350D01*
X193982913Y-130093354D01*
X194117620Y-130143596D01*
X194117627Y-130143598D01*
X194177155Y-130149999D01*
X194177172Y-130150000D01*
X194825000Y-130150000D01*
X194825000Y-129233012D01*
X194882007Y-129265925D01*
X195009174Y-129300000D01*
X195140826Y-129300000D01*
X195267993Y-129265925D01*
X195325000Y-129233012D01*
X195325000Y-130150000D01*
X195901403Y-130150000D01*
X195968442Y-130169685D01*
X196014197Y-130222489D01*
X196024141Y-130291647D01*
X195995116Y-130355203D01*
X195989084Y-130361681D01*
X195387584Y-130963181D01*
X195326261Y-130996666D01*
X195299903Y-130999500D01*
X180057400Y-130999500D01*
X179990361Y-130979815D01*
X179969719Y-130963181D01*
X177493421Y-128486884D01*
X177493419Y-128486881D01*
X176858673Y-127852135D01*
X184674500Y-127852135D01*
X184674500Y-129647870D01*
X184674501Y-129647876D01*
X184680908Y-129707483D01*
X184731202Y-129842328D01*
X184731206Y-129842335D01*
X184817452Y-129957544D01*
X184817455Y-129957547D01*
X184932664Y-130043793D01*
X184932671Y-130043797D01*
X185067517Y-130094091D01*
X185067516Y-130094091D01*
X185074444Y-130094835D01*
X185127127Y-130100500D01*
X186922872Y-130100499D01*
X186982483Y-130094091D01*
X187117331Y-130043796D01*
X187232546Y-129957546D01*
X187318796Y-129842331D01*
X187367810Y-129710916D01*
X187409681Y-129654984D01*
X187475145Y-129630566D01*
X187543418Y-129645417D01*
X187571673Y-129666569D01*
X187693599Y-129788495D01*
X187790384Y-129856265D01*
X187887165Y-129924032D01*
X187887167Y-129924033D01*
X187887170Y-129924035D01*
X188101337Y-130023903D01*
X188329592Y-130085063D01*
X188506034Y-130100500D01*
X188564999Y-130105659D01*
X188565000Y-130105659D01*
X188565001Y-130105659D01*
X188623966Y-130100500D01*
X188800408Y-130085063D01*
X189028663Y-130023903D01*
X189242830Y-129924035D01*
X189436401Y-129788495D01*
X189603495Y-129621401D01*
X189739035Y-129427830D01*
X189838903Y-129213663D01*
X189900063Y-128985408D01*
X189920659Y-128750000D01*
X189900063Y-128514592D01*
X189838903Y-128286337D01*
X189739035Y-128072171D01*
X189693040Y-128006482D01*
X189603494Y-127878597D01*
X189436402Y-127711506D01*
X189436395Y-127711501D01*
X189242834Y-127575967D01*
X189242830Y-127575965D01*
X189178780Y-127546098D01*
X189028663Y-127476097D01*
X189028659Y-127476096D01*
X189028655Y-127476094D01*
X188800413Y-127414938D01*
X188800403Y-127414936D01*
X188565001Y-127394341D01*
X188564999Y-127394341D01*
X188329596Y-127414936D01*
X188329586Y-127414938D01*
X188101344Y-127476094D01*
X188101335Y-127476098D01*
X187887171Y-127575964D01*
X187887169Y-127575965D01*
X187693600Y-127711503D01*
X187571673Y-127833430D01*
X187510350Y-127866914D01*
X187440658Y-127861930D01*
X187384725Y-127820058D01*
X187367810Y-127789081D01*
X187318797Y-127657671D01*
X187318793Y-127657664D01*
X187232547Y-127542455D01*
X187232544Y-127542452D01*
X187117335Y-127456206D01*
X187117328Y-127456202D01*
X186982482Y-127405908D01*
X186982483Y-127405908D01*
X186922883Y-127399501D01*
X186922881Y-127399500D01*
X186922873Y-127399500D01*
X186922864Y-127399500D01*
X185127129Y-127399500D01*
X185127123Y-127399501D01*
X185067516Y-127405908D01*
X184932671Y-127456202D01*
X184932664Y-127456206D01*
X184817455Y-127542452D01*
X184817452Y-127542455D01*
X184731206Y-127657664D01*
X184731202Y-127657671D01*
X184680908Y-127792517D01*
X184674501Y-127852116D01*
X184674500Y-127852135D01*
X176858673Y-127852135D01*
X175794892Y-126788355D01*
X175794889Y-126788351D01*
X175794889Y-126788352D01*
X175787822Y-126781285D01*
X175787822Y-126781284D01*
X175676018Y-126669480D01*
X175676017Y-126669479D01*
X175671687Y-126665149D01*
X175671676Y-126665139D01*
X174218718Y-125212181D01*
X174185233Y-125150858D01*
X174190217Y-125081166D01*
X174232089Y-125025233D01*
X174297553Y-125000816D01*
X174306399Y-125000500D01*
X176617588Y-125000500D01*
X176684627Y-125020185D01*
X176694903Y-125027555D01*
X176697736Y-125029814D01*
X176697738Y-125029816D01*
X176850478Y-125125789D01*
X177020745Y-125185368D01*
X177020750Y-125185369D01*
X177199996Y-125205565D01*
X177200000Y-125205565D01*
X177200004Y-125205565D01*
X177379249Y-125185369D01*
X177379252Y-125185368D01*
X177379255Y-125185368D01*
X177549522Y-125125789D01*
X177702262Y-125029816D01*
X177829816Y-124902262D01*
X177925789Y-124749522D01*
X177985368Y-124579255D01*
X177985369Y-124579249D01*
X177993102Y-124510618D01*
X178020168Y-124446204D01*
X178077763Y-124406649D01*
X178116322Y-124400501D01*
X178279054Y-124400501D01*
X178279057Y-124400501D01*
X178431785Y-124359577D01*
X178481904Y-124330639D01*
X178568716Y-124280520D01*
X178680520Y-124168716D01*
X178680520Y-124168714D01*
X178690728Y-124158507D01*
X178690729Y-124158504D01*
X179212416Y-123636819D01*
X179273739Y-123603334D01*
X179300097Y-123600500D01*
X179686259Y-123600500D01*
X179753298Y-123620185D01*
X179799053Y-123672989D01*
X179808997Y-123742147D01*
X179806034Y-123756593D01*
X179749158Y-123968857D01*
X179749156Y-123968867D01*
X179728935Y-124199999D01*
X179728935Y-124200000D01*
X179749156Y-124431132D01*
X179749158Y-124431142D01*
X179809205Y-124655243D01*
X179809207Y-124655247D01*
X179809208Y-124655251D01*
X179817986Y-124674075D01*
X179907263Y-124865532D01*
X179907264Y-124865533D01*
X180040345Y-125055592D01*
X180204408Y-125219655D01*
X180394467Y-125352736D01*
X180604749Y-125450792D01*
X180828863Y-125510843D01*
X181013772Y-125527020D01*
X181059999Y-125531065D01*
X181060000Y-125531065D01*
X181060001Y-125531065D01*
X181098522Y-125527694D01*
X181291137Y-125510843D01*
X181515251Y-125450792D01*
X181725533Y-125352736D01*
X181915592Y-125219655D01*
X182079655Y-125055592D01*
X182212736Y-124865533D01*
X182217617Y-124855064D01*
X182263788Y-124802624D01*
X182330981Y-124783471D01*
X182397863Y-124803685D01*
X182442382Y-124855064D01*
X182447264Y-124865533D01*
X182580345Y-125055592D01*
X182744408Y-125219655D01*
X182934467Y-125352736D01*
X183144749Y-125450792D01*
X183368863Y-125510843D01*
X183553772Y-125527020D01*
X183599999Y-125531065D01*
X183600000Y-125531065D01*
X183600001Y-125531065D01*
X183638522Y-125527694D01*
X183831137Y-125510843D01*
X184055251Y-125450792D01*
X184265533Y-125352736D01*
X184455592Y-125219655D01*
X184619655Y-125055592D01*
X184752736Y-124865533D01*
X184757617Y-124855064D01*
X184803788Y-124802624D01*
X184870981Y-124783471D01*
X184937863Y-124803685D01*
X184982382Y-124855064D01*
X184987264Y-124865533D01*
X185120345Y-125055592D01*
X185284408Y-125219655D01*
X185474467Y-125352736D01*
X185684749Y-125450792D01*
X185908863Y-125510843D01*
X186093772Y-125527020D01*
X186139999Y-125531065D01*
X186140000Y-125531065D01*
X186140001Y-125531065D01*
X186178522Y-125527694D01*
X186371137Y-125510843D01*
X186595251Y-125450792D01*
X186805533Y-125352736D01*
X186995592Y-125219655D01*
X187159655Y-125055592D01*
X187292736Y-124865533D01*
X187390792Y-124655251D01*
X187450843Y-124431137D01*
X187471065Y-124200000D01*
X187450843Y-123968863D01*
X187393966Y-123756593D01*
X187395629Y-123686744D01*
X187434792Y-123628882D01*
X187499020Y-123601378D01*
X187513741Y-123600501D01*
X187679054Y-123600501D01*
X187679057Y-123600501D01*
X187831785Y-123559577D01*
X187881904Y-123530639D01*
X187968716Y-123480520D01*
X188080520Y-123368716D01*
X188080520Y-123368714D01*
X188090728Y-123358507D01*
X188090729Y-123358504D01*
X189080520Y-122368716D01*
X189159577Y-122231784D01*
X189200501Y-122079057D01*
X189200501Y-121920942D01*
X189200501Y-121913347D01*
X189200500Y-121913329D01*
X189200500Y-120700096D01*
X189220185Y-120633057D01*
X189236815Y-120612419D01*
X189237593Y-120611641D01*
X189298915Y-120578157D01*
X189368607Y-120583141D01*
X189424540Y-120625013D01*
X189442315Y-120658369D01*
X189474210Y-120749521D01*
X189570184Y-120902262D01*
X189697738Y-121029816D01*
X189850478Y-121125789D01*
X190002301Y-121178914D01*
X190020745Y-121185368D01*
X190020750Y-121185369D01*
X190199996Y-121205565D01*
X190200000Y-121205565D01*
X190200003Y-121205565D01*
X190310091Y-121193161D01*
X190378913Y-121205215D01*
X190430293Y-121252564D01*
X190447917Y-121320175D01*
X190426191Y-121386581D01*
X190385980Y-121423765D01*
X190382173Y-121425962D01*
X190188597Y-121561505D01*
X190021505Y-121728597D01*
X189885965Y-121922169D01*
X189885964Y-121922171D01*
X189786098Y-122136335D01*
X189786094Y-122136344D01*
X189724938Y-122364586D01*
X189724936Y-122364596D01*
X189704341Y-122599999D01*
X189704341Y-122600000D01*
X189724936Y-122835403D01*
X189724938Y-122835413D01*
X189786094Y-123063655D01*
X189786096Y-123063659D01*
X189786097Y-123063663D01*
X189849439Y-123199500D01*
X189885965Y-123277830D01*
X189885967Y-123277834D01*
X189949602Y-123368713D01*
X190021505Y-123471401D01*
X190188599Y-123638495D01*
X190374572Y-123768715D01*
X190374594Y-123768730D01*
X190418219Y-123823307D01*
X190425413Y-123892805D01*
X190393890Y-123955160D01*
X190374595Y-123971880D01*
X190188922Y-124101890D01*
X190188920Y-124101891D01*
X190021891Y-124268920D01*
X190021886Y-124268926D01*
X189886400Y-124462420D01*
X189886399Y-124462422D01*
X189786570Y-124676507D01*
X189786567Y-124676513D01*
X189729364Y-124889999D01*
X189729364Y-124890000D01*
X190626988Y-124890000D01*
X190594075Y-124947007D01*
X190560000Y-125074174D01*
X190560000Y-125205826D01*
X190594075Y-125332993D01*
X190626988Y-125390000D01*
X189729364Y-125390000D01*
X189786567Y-125603486D01*
X189786570Y-125603492D01*
X189886399Y-125817578D01*
X190021894Y-126011082D01*
X190188917Y-126178105D01*
X190382421Y-126313600D01*
X190596507Y-126413429D01*
X190596516Y-126413433D01*
X190810000Y-126470634D01*
X190810000Y-125573012D01*
X190867007Y-125605925D01*
X190994174Y-125640000D01*
X191125826Y-125640000D01*
X191252993Y-125605925D01*
X191310000Y-125573012D01*
X191310000Y-126470633D01*
X191523483Y-126413433D01*
X191523492Y-126413429D01*
X191737578Y-126313600D01*
X191931082Y-126178105D01*
X192098105Y-126011082D01*
X192228119Y-125825405D01*
X192282696Y-125781781D01*
X192352195Y-125774588D01*
X192414549Y-125806110D01*
X192431269Y-125825405D01*
X192561505Y-126011401D01*
X192728599Y-126178495D01*
X192825384Y-126246265D01*
X192922165Y-126314032D01*
X192922167Y-126314033D01*
X192922170Y-126314035D01*
X193136337Y-126413903D01*
X193364592Y-126475063D01*
X193552918Y-126491539D01*
X193599999Y-126495659D01*
X193600000Y-126495659D01*
X193600001Y-126495659D01*
X193639234Y-126492226D01*
X193835408Y-126475063D01*
X194063663Y-126413903D01*
X194277830Y-126314035D01*
X194471401Y-126178495D01*
X194638495Y-126011401D01*
X194774035Y-125817830D01*
X194776707Y-125812097D01*
X194822878Y-125759658D01*
X194889091Y-125740500D01*
X195573331Y-125740500D01*
X195573347Y-125740501D01*
X195580943Y-125740501D01*
X195739054Y-125740501D01*
X195739057Y-125740501D01*
X195891785Y-125699577D01*
X195955176Y-125662978D01*
X196028716Y-125620520D01*
X196140520Y-125508716D01*
X196140521Y-125508714D01*
X196212418Y-125436816D01*
X196273740Y-125403334D01*
X196300097Y-125400500D01*
X199313331Y-125400500D01*
X199313347Y-125400501D01*
X199320943Y-125400501D01*
X199479054Y-125400501D01*
X199479057Y-125400501D01*
X199631785Y-125359577D01*
X199681904Y-125330639D01*
X199768716Y-125280520D01*
X199880520Y-125168716D01*
X199880520Y-125168714D01*
X199890728Y-125158507D01*
X199890730Y-125158504D01*
X201158506Y-123890728D01*
X201158511Y-123890724D01*
X201168714Y-123880520D01*
X201168716Y-123880520D01*
X201280520Y-123768716D01*
X201335082Y-123674211D01*
X201359577Y-123631785D01*
X201400501Y-123479057D01*
X201400501Y-123320943D01*
X201400501Y-123313348D01*
X201400500Y-123313330D01*
X201400500Y-120489060D01*
X201400501Y-120489047D01*
X201400501Y-120320944D01*
X201389277Y-120279057D01*
X201359577Y-120168216D01*
X201327889Y-120113330D01*
X201280524Y-120031290D01*
X201280521Y-120031286D01*
X201280520Y-120031284D01*
X201236819Y-119987583D01*
X201203334Y-119926260D01*
X201200500Y-119899902D01*
X201200500Y-117382412D01*
X201220185Y-117315373D01*
X201227555Y-117305097D01*
X201229812Y-117302266D01*
X201229816Y-117302262D01*
X201233218Y-117296846D01*
X201285545Y-117250554D01*
X201354597Y-117239899D01*
X201418448Y-117268268D01*
G37*
%TD.AperFunction*%
%TA.AperFunction,Conductor*%
G36*
X192184728Y-123487680D02*
G01*
X192240662Y-123529551D01*
X192257577Y-123560528D01*
X192306646Y-123692088D01*
X192306649Y-123692093D01*
X192392809Y-123807187D01*
X192392812Y-123807190D01*
X192507906Y-123893350D01*
X192507913Y-123893354D01*
X192639470Y-123942421D01*
X192695403Y-123984292D01*
X192719821Y-124049756D01*
X192704970Y-124118029D01*
X192683819Y-124146284D01*
X192561505Y-124268598D01*
X192431269Y-124454595D01*
X192376692Y-124498219D01*
X192307193Y-124505412D01*
X192244839Y-124473890D01*
X192228119Y-124454594D01*
X192098113Y-124268926D01*
X192098108Y-124268920D01*
X191931078Y-124101890D01*
X191745405Y-123971879D01*
X191701780Y-123917302D01*
X191694588Y-123847804D01*
X191726110Y-123785449D01*
X191745406Y-123768730D01*
X191745426Y-123768716D01*
X191931401Y-123638495D01*
X192053717Y-123516178D01*
X192115036Y-123482696D01*
X192184728Y-123487680D01*
G37*
%TD.AperFunction*%
%TA.AperFunction,Conductor*%
G36*
X151971741Y-79777888D02*
G01*
X152017094Y-79713117D01*
X152017095Y-79713116D01*
X152077340Y-79583919D01*
X152123512Y-79531480D01*
X152190706Y-79512327D01*
X152257587Y-79532542D01*
X152302105Y-79583918D01*
X152362466Y-79713362D01*
X152362468Y-79713366D01*
X152489170Y-79894315D01*
X152489175Y-79894321D01*
X152645378Y-80050524D01*
X152645384Y-80050529D01*
X152826333Y-80177231D01*
X152826335Y-80177232D01*
X152826338Y-80177234D01*
X152882310Y-80203334D01*
X152955189Y-80237318D01*
X153007628Y-80283490D01*
X153026780Y-80350684D01*
X153006564Y-80417565D01*
X152955189Y-80462082D01*
X152826340Y-80522165D01*
X152826338Y-80522166D01*
X152645377Y-80648875D01*
X152489175Y-80805077D01*
X152362466Y-80986038D01*
X152362465Y-80986040D01*
X152302382Y-81114889D01*
X152256209Y-81167328D01*
X152189016Y-81186480D01*
X152122135Y-81166264D01*
X152077618Y-81114889D01*
X152056150Y-81068852D01*
X152017534Y-80986039D01*
X151922614Y-80850478D01*
X151890827Y-80805081D01*
X151813562Y-80727816D01*
X151734620Y-80648874D01*
X151734616Y-80648871D01*
X151734615Y-80648870D01*
X151553666Y-80522168D01*
X151553662Y-80522166D01*
X151424218Y-80461805D01*
X151371779Y-80415632D01*
X151352627Y-80348439D01*
X151372843Y-80281558D01*
X151424219Y-80237040D01*
X151553416Y-80176795D01*
X151553417Y-80176794D01*
X151618188Y-80131441D01*
X151055942Y-79569194D01*
X151116081Y-79553081D01*
X151231920Y-79486202D01*
X151326502Y-79391620D01*
X151393381Y-79275781D01*
X151409495Y-79215642D01*
X151971741Y-79777888D01*
G37*
%TD.AperFunction*%
%TA.AperFunction,Conductor*%
G36*
X230842539Y-69120185D02*
G01*
X230888294Y-69172989D01*
X230899500Y-69224500D01*
X230899500Y-85826000D01*
X230879815Y-85893039D01*
X230827011Y-85938794D01*
X230775500Y-85950000D01*
X212490000Y-85950000D01*
X212490000Y-133950000D01*
X230775500Y-133950000D01*
X230842539Y-133969685D01*
X230888294Y-134022489D01*
X230899500Y-134074000D01*
X230899500Y-139975500D01*
X230879815Y-140042539D01*
X230827011Y-140088294D01*
X230775500Y-140099500D01*
X146424500Y-140099500D01*
X146357461Y-140079815D01*
X146311706Y-140027011D01*
X146300500Y-139975500D01*
X146300500Y-135478711D01*
X148949500Y-135478711D01*
X148949500Y-135721288D01*
X148981161Y-135961785D01*
X149043947Y-136196104D01*
X149130017Y-136403895D01*
X149136776Y-136420212D01*
X149258064Y-136630289D01*
X149258066Y-136630292D01*
X149258067Y-136630293D01*
X149405733Y-136822736D01*
X149405739Y-136822743D01*
X149577256Y-136994260D01*
X149577262Y-136994265D01*
X149769711Y-137141936D01*
X149979788Y-137263224D01*
X150203900Y-137356054D01*
X150438211Y-137418838D01*
X150618586Y-137442584D01*
X150678711Y-137450500D01*
X150678712Y-137450500D01*
X150921289Y-137450500D01*
X150969388Y-137444167D01*
X151161789Y-137418838D01*
X151396100Y-137356054D01*
X151620212Y-137263224D01*
X151830289Y-137141936D01*
X152022738Y-136994265D01*
X152138292Y-136878711D01*
X224149500Y-136878711D01*
X224149500Y-137121288D01*
X224181161Y-137361785D01*
X224243947Y-137596104D01*
X224336773Y-137820205D01*
X224336776Y-137820212D01*
X224458064Y-138030289D01*
X224458066Y-138030292D01*
X224458067Y-138030293D01*
X224605733Y-138222736D01*
X224605739Y-138222743D01*
X224777256Y-138394260D01*
X224777262Y-138394265D01*
X224969711Y-138541936D01*
X225179788Y-138663224D01*
X225403900Y-138756054D01*
X225638211Y-138818838D01*
X225818586Y-138842584D01*
X225878711Y-138850500D01*
X225878712Y-138850500D01*
X226121289Y-138850500D01*
X226169388Y-138844167D01*
X226361789Y-138818838D01*
X226596100Y-138756054D01*
X226820212Y-138663224D01*
X227030289Y-138541936D01*
X227222738Y-138394265D01*
X227394265Y-138222738D01*
X227541936Y-138030289D01*
X227663224Y-137820212D01*
X227756054Y-137596100D01*
X227818838Y-137361789D01*
X227850500Y-137121288D01*
X227850500Y-136878712D01*
X227818838Y-136638211D01*
X227756054Y-136403900D01*
X227663224Y-136179788D01*
X227541936Y-135969711D01*
X227394265Y-135777262D01*
X227394260Y-135777256D01*
X227222743Y-135605739D01*
X227222736Y-135605733D01*
X227030293Y-135458067D01*
X227030292Y-135458066D01*
X227030289Y-135458064D01*
X226858661Y-135358974D01*
X226820214Y-135336777D01*
X226820205Y-135336773D01*
X226596104Y-135243947D01*
X226361785Y-135181161D01*
X226121289Y-135149500D01*
X226121288Y-135149500D01*
X225878712Y-135149500D01*
X225878711Y-135149500D01*
X225638214Y-135181161D01*
X225403895Y-135243947D01*
X225179794Y-135336773D01*
X225179785Y-135336777D01*
X224969706Y-135458067D01*
X224777263Y-135605733D01*
X224777256Y-135605739D01*
X224605739Y-135777256D01*
X224605733Y-135777263D01*
X224458067Y-135969706D01*
X224336777Y-136179785D01*
X224336773Y-136179794D01*
X224243947Y-136403895D01*
X224181161Y-136638214D01*
X224149500Y-136878711D01*
X152138292Y-136878711D01*
X152194265Y-136822738D01*
X152341936Y-136630289D01*
X152463224Y-136420212D01*
X152556054Y-136196100D01*
X152618838Y-135961789D01*
X152650500Y-135721288D01*
X152650500Y-135478712D01*
X152618838Y-135238211D01*
X152556054Y-135003900D01*
X152463224Y-134779788D01*
X152341936Y-134569711D01*
X152194265Y-134377262D01*
X152194260Y-134377256D01*
X152022743Y-134205739D01*
X152022736Y-134205733D01*
X151830293Y-134058067D01*
X151830292Y-134058066D01*
X151830289Y-134058064D01*
X151620212Y-133936776D01*
X151593687Y-133925789D01*
X151396104Y-133843947D01*
X151277246Y-133812099D01*
X151161789Y-133781162D01*
X151161788Y-133781161D01*
X151161785Y-133781161D01*
X150921289Y-133749500D01*
X150921288Y-133749500D01*
X150678712Y-133749500D01*
X150678711Y-133749500D01*
X150438214Y-133781161D01*
X150203895Y-133843947D01*
X149979794Y-133936773D01*
X149979785Y-133936777D01*
X149817107Y-134030700D01*
X149772973Y-134056181D01*
X149769706Y-134058067D01*
X149577263Y-134205733D01*
X149577256Y-134205739D01*
X149405739Y-134377256D01*
X149405733Y-134377263D01*
X149258067Y-134569706D01*
X149136777Y-134779785D01*
X149136773Y-134779794D01*
X149043947Y-135003895D01*
X148981161Y-135238214D01*
X148949500Y-135478711D01*
X146300500Y-135478711D01*
X146300500Y-133649999D01*
X166496229Y-133649999D01*
X166496229Y-133650000D01*
X166515276Y-133867710D01*
X166515278Y-133867720D01*
X166571838Y-134078807D01*
X166571843Y-134078821D01*
X166664200Y-134276882D01*
X166664201Y-134276884D01*
X166707592Y-134338853D01*
X167271119Y-133775326D01*
X167288734Y-133841063D01*
X167353902Y-133953937D01*
X167446063Y-134046098D01*
X167558937Y-134111266D01*
X167624672Y-134128880D01*
X167061145Y-134692406D01*
X167123115Y-134735798D01*
X167123117Y-134735799D01*
X167321178Y-134828156D01*
X167321192Y-134828161D01*
X167532279Y-134884721D01*
X167532289Y-134884723D01*
X167749999Y-134903771D01*
X167750001Y-134903771D01*
X167967710Y-134884723D01*
X167967720Y-134884721D01*
X168178807Y-134828161D01*
X168178821Y-134828156D01*
X168376883Y-134735799D01*
X168376890Y-134735795D01*
X168438853Y-134692406D01*
X167875327Y-134128879D01*
X167941063Y-134111266D01*
X168053937Y-134046098D01*
X168146098Y-133953937D01*
X168211266Y-133841063D01*
X168228880Y-133775327D01*
X168792406Y-134338853D01*
X168835795Y-134276890D01*
X168835799Y-134276883D01*
X168928156Y-134078821D01*
X168928161Y-134078807D01*
X168984721Y-133867720D01*
X168984723Y-133867710D01*
X169003771Y-133650000D01*
X169003771Y-133649999D01*
X168984723Y-133432289D01*
X168984721Y-133432279D01*
X168928161Y-133221192D01*
X168928156Y-133221178D01*
X168835799Y-133023118D01*
X168835793Y-133023108D01*
X168792406Y-132961145D01*
X168228879Y-133524671D01*
X168211266Y-133458937D01*
X168146098Y-133346063D01*
X168053937Y-133253902D01*
X167941063Y-133188734D01*
X167875326Y-133171119D01*
X168438853Y-132607592D01*
X168376884Y-132564201D01*
X168376882Y-132564200D01*
X168178821Y-132471843D01*
X168178807Y-132471838D01*
X167967720Y-132415278D01*
X167967710Y-132415276D01*
X167750001Y-132396229D01*
X167749999Y-132396229D01*
X167532289Y-132415276D01*
X167532279Y-132415278D01*
X167321192Y-132471838D01*
X167321178Y-132471843D01*
X167123121Y-132564198D01*
X167061145Y-132607593D01*
X167624673Y-133171119D01*
X167558937Y-133188734D01*
X167446063Y-133253902D01*
X167353902Y-133346063D01*
X167288734Y-133458937D01*
X167271119Y-133524672D01*
X166707593Y-132961145D01*
X166664198Y-133023121D01*
X166571843Y-133221178D01*
X166571838Y-133221192D01*
X166515278Y-133432279D01*
X166515276Y-133432289D01*
X166496229Y-133649999D01*
X146300500Y-133649999D01*
X146300500Y-127149999D01*
X166496229Y-127149999D01*
X166496229Y-127150000D01*
X166515276Y-127367710D01*
X166515278Y-127367720D01*
X166571838Y-127578807D01*
X166571843Y-127578821D01*
X166664200Y-127776882D01*
X166664201Y-127776884D01*
X166707592Y-127838853D01*
X167271119Y-127275326D01*
X167288734Y-127341063D01*
X167353902Y-127453937D01*
X167446063Y-127546098D01*
X167558937Y-127611266D01*
X167624672Y-127628880D01*
X167061145Y-128192406D01*
X167123115Y-128235798D01*
X167123117Y-128235799D01*
X167321178Y-128328156D01*
X167321192Y-128328161D01*
X167532279Y-128384721D01*
X167532289Y-128384723D01*
X167749999Y-128403771D01*
X167750001Y-128403771D01*
X167967710Y-128384723D01*
X167967720Y-128384721D01*
X168178807Y-128328161D01*
X168178821Y-128328156D01*
X168376883Y-128235799D01*
X168376890Y-128235795D01*
X168438853Y-128192406D01*
X167875327Y-127628879D01*
X167941063Y-127611266D01*
X168053937Y-127546098D01*
X168146098Y-127453937D01*
X168211266Y-127341063D01*
X168228880Y-127275327D01*
X168792406Y-127838853D01*
X168835795Y-127776890D01*
X168835799Y-127776883D01*
X168928156Y-127578821D01*
X168928161Y-127578807D01*
X168984721Y-127367720D01*
X168984723Y-127367710D01*
X169003771Y-127150000D01*
X169003771Y-127149999D01*
X168984723Y-126932289D01*
X168984721Y-126932279D01*
X168928161Y-126721192D01*
X168928156Y-126721178D01*
X168835799Y-126523118D01*
X168835793Y-126523108D01*
X168792406Y-126461145D01*
X168228879Y-127024671D01*
X168211266Y-126958937D01*
X168146098Y-126846063D01*
X168053937Y-126753902D01*
X167941063Y-126688734D01*
X167875326Y-126671119D01*
X168438853Y-126107592D01*
X168376884Y-126064201D01*
X168376882Y-126064200D01*
X168178821Y-125971843D01*
X168178807Y-125971838D01*
X167967720Y-125915278D01*
X167967710Y-125915276D01*
X167750001Y-125896229D01*
X167749999Y-125896229D01*
X167532289Y-125915276D01*
X167532279Y-125915278D01*
X167321192Y-125971838D01*
X167321178Y-125971843D01*
X167123121Y-126064198D01*
X167061145Y-126107593D01*
X167624673Y-126671119D01*
X167558937Y-126688734D01*
X167446063Y-126753902D01*
X167353902Y-126846063D01*
X167288734Y-126958937D01*
X167271119Y-127024672D01*
X166707593Y-126461145D01*
X166664198Y-126523121D01*
X166571843Y-126721178D01*
X166571838Y-126721192D01*
X166515278Y-126932279D01*
X166515276Y-126932289D01*
X166496229Y-127149999D01*
X146300500Y-127149999D01*
X146300500Y-104478711D01*
X159549500Y-104478711D01*
X159549500Y-104721288D01*
X159581161Y-104961785D01*
X159643947Y-105196104D01*
X159736773Y-105420205D01*
X159736776Y-105420212D01*
X159858064Y-105630289D01*
X159858066Y-105630292D01*
X159858067Y-105630293D01*
X160005733Y-105822736D01*
X160005739Y-105822743D01*
X160177256Y-105994260D01*
X160177262Y-105994265D01*
X160369711Y-106141936D01*
X160579788Y-106263224D01*
X160803900Y-106356054D01*
X161038211Y-106418838D01*
X161218586Y-106442584D01*
X161278711Y-106450500D01*
X161278712Y-106450500D01*
X161521289Y-106450500D01*
X161569388Y-106444167D01*
X161761789Y-106418838D01*
X161996100Y-106356054D01*
X162220212Y-106263224D01*
X162430289Y-106141936D01*
X162622738Y-105994265D01*
X162794265Y-105822738D01*
X162941936Y-105630289D01*
X163063224Y-105420212D01*
X163156054Y-105196100D01*
X163218838Y-104961789D01*
X163250500Y-104721288D01*
X163250500Y-104478712D01*
X163218838Y-104238211D01*
X163156054Y-104003900D01*
X163063224Y-103779788D01*
X162941936Y-103569711D01*
X162794265Y-103377262D01*
X162794260Y-103377256D01*
X162622743Y-103205739D01*
X162622736Y-103205733D01*
X162430293Y-103058067D01*
X162430292Y-103058066D01*
X162430289Y-103058064D01*
X162220212Y-102936776D01*
X162220205Y-102936773D01*
X161996104Y-102843947D01*
X161761785Y-102781161D01*
X161521289Y-102749500D01*
X161521288Y-102749500D01*
X161278712Y-102749500D01*
X161278711Y-102749500D01*
X161038214Y-102781161D01*
X160803895Y-102843947D01*
X160579794Y-102936773D01*
X160579785Y-102936777D01*
X160369706Y-103058067D01*
X160177263Y-103205733D01*
X160177256Y-103205739D01*
X160005739Y-103377256D01*
X160005733Y-103377263D01*
X159858067Y-103569706D01*
X159736777Y-103779785D01*
X159736773Y-103779794D01*
X159643947Y-104003895D01*
X159581161Y-104238214D01*
X159549500Y-104478711D01*
X146300500Y-104478711D01*
X146300500Y-84599996D01*
X162994435Y-84599996D01*
X162994435Y-84600003D01*
X163014630Y-84779249D01*
X163014631Y-84779254D01*
X163074211Y-84949523D01*
X163115039Y-85014500D01*
X163170184Y-85102262D01*
X163297738Y-85229816D01*
X163450478Y-85325789D01*
X163518306Y-85349523D01*
X163620745Y-85385368D01*
X163620750Y-85385369D01*
X163799996Y-85405565D01*
X163800000Y-85405565D01*
X163800004Y-85405565D01*
X163979249Y-85385369D01*
X163979252Y-85385368D01*
X163979255Y-85385368D01*
X164149522Y-85325789D01*
X164302262Y-85229816D01*
X164429816Y-85102262D01*
X164525789Y-84949522D01*
X164585368Y-84779255D01*
X164592201Y-84718612D01*
X164605565Y-84600003D01*
X164605565Y-84599996D01*
X164585369Y-84420750D01*
X164585368Y-84420745D01*
X164525788Y-84250476D01*
X164429813Y-84097734D01*
X164427550Y-84094896D01*
X164426659Y-84092715D01*
X164426111Y-84091842D01*
X164426264Y-84091745D01*
X164401144Y-84030209D01*
X164400500Y-84017587D01*
X164400500Y-81700097D01*
X164420185Y-81633058D01*
X164436819Y-81612416D01*
X165587819Y-80461416D01*
X165649142Y-80427931D01*
X165718834Y-80432915D01*
X165774767Y-80474787D01*
X165799184Y-80540251D01*
X165799500Y-80549097D01*
X165799500Y-84417587D01*
X165779815Y-84484626D01*
X165772450Y-84494896D01*
X165770186Y-84497734D01*
X165674211Y-84650476D01*
X165614631Y-84820745D01*
X165614630Y-84820750D01*
X165594435Y-84999996D01*
X165594435Y-85000003D01*
X165614630Y-85179249D01*
X165614631Y-85179254D01*
X165674211Y-85349523D01*
X165770185Y-85502263D01*
X165772445Y-85505097D01*
X165773334Y-85507275D01*
X165773889Y-85508158D01*
X165773734Y-85508255D01*
X165798855Y-85569783D01*
X165799500Y-85582412D01*
X165799500Y-90115093D01*
X165779815Y-90182132D01*
X165727011Y-90227887D01*
X165657853Y-90237831D01*
X165623095Y-90227475D01*
X165455251Y-90149208D01*
X165455247Y-90149207D01*
X165455243Y-90149205D01*
X165231142Y-90089158D01*
X165231132Y-90089156D01*
X165000001Y-90068935D01*
X164999999Y-90068935D01*
X164768867Y-90089156D01*
X164768857Y-90089158D01*
X164544756Y-90149205D01*
X164544747Y-90149209D01*
X164334467Y-90247264D01*
X164334463Y-90247266D01*
X164144406Y-90380345D01*
X163980345Y-90544406D01*
X163847266Y-90734463D01*
X163847264Y-90734467D01*
X163749209Y-90944747D01*
X163749205Y-90944756D01*
X163689158Y-91168857D01*
X163689156Y-91168867D01*
X163668935Y-91399999D01*
X163668935Y-91400000D01*
X163689156Y-91631132D01*
X163689158Y-91631142D01*
X163749205Y-91855243D01*
X163749207Y-91855247D01*
X163749208Y-91855251D01*
X163791398Y-91945727D01*
X163847263Y-92065532D01*
X163869814Y-92097738D01*
X163980345Y-92255592D01*
X164144408Y-92419655D01*
X164334467Y-92552736D01*
X164344937Y-92557618D01*
X164397376Y-92603791D01*
X164416528Y-92670984D01*
X164396312Y-92737865D01*
X164344940Y-92782380D01*
X164341540Y-92783966D01*
X164334465Y-92787265D01*
X164334463Y-92787266D01*
X164144406Y-92920345D01*
X163980345Y-93084406D01*
X163847266Y-93274463D01*
X163847264Y-93274467D01*
X163749209Y-93484747D01*
X163749205Y-93484756D01*
X163689158Y-93708857D01*
X163689156Y-93708867D01*
X163668935Y-93939999D01*
X163668935Y-93940000D01*
X163689156Y-94171132D01*
X163689158Y-94171142D01*
X163749205Y-94395243D01*
X163749207Y-94395247D01*
X163749208Y-94395251D01*
X163798236Y-94500392D01*
X163847263Y-94605532D01*
X163847264Y-94605533D01*
X163980345Y-94795592D01*
X164144408Y-94959655D01*
X164334467Y-95092736D01*
X164344937Y-95097618D01*
X164397376Y-95143791D01*
X164416528Y-95210984D01*
X164396312Y-95277865D01*
X164344940Y-95322380D01*
X164341540Y-95323966D01*
X164334465Y-95327265D01*
X164334463Y-95327266D01*
X164144406Y-95460345D01*
X163980345Y-95624406D01*
X163847266Y-95814463D01*
X163847264Y-95814467D01*
X163749209Y-96024747D01*
X163749205Y-96024756D01*
X163689158Y-96248857D01*
X163689156Y-96248867D01*
X163668935Y-96479999D01*
X163668935Y-96480000D01*
X163689156Y-96711132D01*
X163689158Y-96711142D01*
X163749205Y-96935243D01*
X163749207Y-96935247D01*
X163749208Y-96935251D01*
X163789077Y-97020750D01*
X163847263Y-97145532D01*
X163847264Y-97145533D01*
X163980345Y-97335592D01*
X164144408Y-97499655D01*
X164334467Y-97632736D01*
X164544749Y-97730792D01*
X164768863Y-97790843D01*
X164953772Y-97807020D01*
X164999999Y-97811065D01*
X165000000Y-97811065D01*
X165000001Y-97811065D01*
X165038522Y-97807694D01*
X165231137Y-97790843D01*
X165455251Y-97730792D01*
X165665533Y-97632736D01*
X165855592Y-97499655D01*
X166019655Y-97335592D01*
X166152736Y-97145533D01*
X166250792Y-96935251D01*
X166310843Y-96711137D01*
X166331065Y-96480000D01*
X166330558Y-96474210D01*
X166319650Y-96349523D01*
X166310843Y-96248863D01*
X166250792Y-96024749D01*
X166152736Y-95814468D01*
X166152734Y-95814465D01*
X166152733Y-95814463D01*
X166019654Y-95624406D01*
X165855596Y-95460349D01*
X165855592Y-95460345D01*
X165665533Y-95327264D01*
X165655064Y-95322382D01*
X165602624Y-95276212D01*
X165583471Y-95209019D01*
X165603685Y-95142137D01*
X165655064Y-95097617D01*
X165665533Y-95092736D01*
X165855592Y-94959655D01*
X166019655Y-94795592D01*
X166152736Y-94605533D01*
X166152740Y-94605522D01*
X166154485Y-94602503D01*
X166155605Y-94601435D01*
X166155841Y-94601098D01*
X166155908Y-94601145D01*
X166205051Y-94554286D01*
X166261874Y-94540500D01*
X168288432Y-94540500D01*
X168355471Y-94560185D01*
X168376113Y-94576819D01*
X170349208Y-96549914D01*
X170382693Y-96611237D01*
X170377709Y-96680929D01*
X170366521Y-96703567D01*
X170274210Y-96850478D01*
X170214630Y-97020750D01*
X170200877Y-97142811D01*
X170185051Y-97190915D01*
X170180186Y-97199342D01*
X170179807Y-97200000D01*
X170140423Y-97268215D01*
X170099499Y-97420943D01*
X170099499Y-97420945D01*
X170099499Y-97589046D01*
X170099500Y-97589059D01*
X170099500Y-103599902D01*
X170079815Y-103666941D01*
X170063181Y-103687583D01*
X166593981Y-107156782D01*
X166593979Y-107156785D01*
X166543861Y-107243594D01*
X166543859Y-107243596D01*
X166514925Y-107293709D01*
X166514924Y-107293710D01*
X166514923Y-107293715D01*
X166473999Y-107446443D01*
X166473999Y-107446445D01*
X166473999Y-107614546D01*
X166474000Y-107614559D01*
X166474000Y-118830528D01*
X166473999Y-118830546D01*
X166473999Y-118996252D01*
X166473998Y-118996252D01*
X166514922Y-119148981D01*
X166518410Y-119155021D01*
X166518413Y-119155028D01*
X166593975Y-119285907D01*
X166593981Y-119285915D01*
X166712849Y-119404783D01*
X166712855Y-119404788D01*
X172996886Y-125688819D01*
X173030371Y-125750142D01*
X173025387Y-125819834D01*
X172983515Y-125875767D01*
X172918051Y-125900184D01*
X172909205Y-125900500D01*
X171453129Y-125900500D01*
X171453123Y-125900501D01*
X171393516Y-125906908D01*
X171258671Y-125957202D01*
X171258664Y-125957206D01*
X171143455Y-126043452D01*
X171143452Y-126043455D01*
X171057206Y-126158664D01*
X171057202Y-126158671D01*
X171006908Y-126293517D01*
X171000501Y-126353116D01*
X171000500Y-126353135D01*
X171000500Y-127946870D01*
X171000501Y-127946876D01*
X171006908Y-128006483D01*
X171057202Y-128141328D01*
X171057206Y-128141335D01*
X171143452Y-128256544D01*
X171143455Y-128256547D01*
X171258664Y-128342793D01*
X171258671Y-128342797D01*
X171303618Y-128359561D01*
X171393517Y-128393091D01*
X171453127Y-128399500D01*
X171525500Y-128399499D01*
X171592538Y-128419183D01*
X171638294Y-128471986D01*
X171649500Y-128523499D01*
X171649500Y-132480566D01*
X171629815Y-132547605D01*
X171596624Y-132582141D01*
X171443764Y-132689174D01*
X171289172Y-132843766D01*
X171163766Y-133022866D01*
X171071370Y-133221011D01*
X171071366Y-133221020D01*
X171014783Y-133432192D01*
X171014781Y-133432203D01*
X170995727Y-133649998D01*
X170995727Y-133650001D01*
X171014781Y-133867796D01*
X171014783Y-133867807D01*
X171071366Y-134078979D01*
X171071368Y-134078983D01*
X171071369Y-134078987D01*
X171117772Y-134178498D01*
X171163768Y-134277137D01*
X171163770Y-134277141D01*
X171289167Y-134456226D01*
X171289172Y-134456232D01*
X171443767Y-134610827D01*
X171443773Y-134610832D01*
X171622858Y-134736229D01*
X171622860Y-134736230D01*
X171622863Y-134736232D01*
X171821013Y-134828631D01*
X172032198Y-134885218D01*
X172187770Y-134898828D01*
X172249998Y-134904273D01*
X172250000Y-134904273D01*
X172250002Y-134904273D01*
X172304450Y-134899509D01*
X172467802Y-134885218D01*
X172678987Y-134828631D01*
X172877137Y-134736232D01*
X173056231Y-134610829D01*
X173210829Y-134456231D01*
X173336232Y-134277137D01*
X173428631Y-134078987D01*
X173485218Y-133867802D01*
X173504273Y-133650000D01*
X173485218Y-133432198D01*
X173428631Y-133221013D01*
X173336352Y-133023121D01*
X173336233Y-133022866D01*
X173334751Y-133020750D01*
X173210829Y-132843769D01*
X173056231Y-132689171D01*
X172903375Y-132582140D01*
X172859752Y-132527564D01*
X172850500Y-132480566D01*
X172850500Y-128523499D01*
X172870185Y-128456460D01*
X172922989Y-128410705D01*
X172974500Y-128399499D01*
X173046871Y-128399499D01*
X173046872Y-128399499D01*
X173106483Y-128393091D01*
X173241331Y-128342796D01*
X173356546Y-128256546D01*
X173442796Y-128141331D01*
X173493091Y-128006483D01*
X173499500Y-127946873D01*
X173499500Y-127874500D01*
X173519185Y-127807461D01*
X173571989Y-127761706D01*
X173623500Y-127750500D01*
X175007205Y-127750500D01*
X175074244Y-127770185D01*
X175094885Y-127786818D01*
X175872652Y-128564586D01*
X176644180Y-129336114D01*
X176644185Y-129336118D01*
X179388586Y-132080520D01*
X179388588Y-132080521D01*
X179388592Y-132080524D01*
X179525511Y-132159573D01*
X179525514Y-132159575D01*
X179525518Y-132159577D01*
X179678245Y-132200501D01*
X179678247Y-132200501D01*
X179843956Y-132200501D01*
X179843972Y-132200500D01*
X181116938Y-132200500D01*
X181183977Y-132220185D01*
X181229732Y-132272989D01*
X181239676Y-132342147D01*
X181233979Y-132365455D01*
X181214630Y-132420748D01*
X181204837Y-132507668D01*
X181177770Y-132572082D01*
X181169298Y-132581465D01*
X180587584Y-133163181D01*
X180526261Y-133196666D01*
X180499903Y-133199500D01*
X180382412Y-133199500D01*
X180315373Y-133179815D01*
X180305097Y-133172445D01*
X180302263Y-133170185D01*
X180302262Y-133170184D01*
X180245496Y-133134515D01*
X180149523Y-133074211D01*
X179979254Y-133014631D01*
X179979249Y-133014630D01*
X179800004Y-132994435D01*
X179799996Y-132994435D01*
X179620750Y-133014630D01*
X179620745Y-133014631D01*
X179450476Y-133074211D01*
X179297737Y-133170184D01*
X179170184Y-133297737D01*
X179074211Y-133450476D01*
X179014631Y-133620745D01*
X179014630Y-133620750D01*
X178994435Y-133799996D01*
X178994435Y-133800003D01*
X179014630Y-133979249D01*
X179014631Y-133979254D01*
X179074211Y-134149523D01*
X179126089Y-134232086D01*
X179170184Y-134302262D01*
X179297738Y-134429816D01*
X179450478Y-134525789D01*
X179620739Y-134585366D01*
X179620745Y-134585368D01*
X179620750Y-134585369D01*
X179799996Y-134605565D01*
X179800000Y-134605565D01*
X179800004Y-134605565D01*
X179979249Y-134585369D01*
X179979251Y-134585368D01*
X179979255Y-134585368D01*
X179979258Y-134585366D01*
X179979262Y-134585366D01*
X180098285Y-134543718D01*
X180168064Y-134540156D01*
X180228691Y-134574884D01*
X180260919Y-134636877D01*
X180256282Y-134701713D01*
X180214632Y-134820742D01*
X180214630Y-134820750D01*
X180194435Y-134999996D01*
X180194435Y-135000003D01*
X180214630Y-135179249D01*
X180214631Y-135179254D01*
X180274211Y-135349523D01*
X180370184Y-135502262D01*
X180497738Y-135629816D01*
X180588080Y-135686582D01*
X180643314Y-135721288D01*
X180650478Y-135725789D01*
X180797562Y-135777256D01*
X180820745Y-135785368D01*
X180820750Y-135785369D01*
X180999996Y-135805565D01*
X181000000Y-135805565D01*
X181000004Y-135805565D01*
X181179249Y-135785369D01*
X181179252Y-135785368D01*
X181179255Y-135785368D01*
X181349522Y-135725789D01*
X181502262Y-135629816D01*
X181629816Y-135502262D01*
X181725789Y-135349522D01*
X181785368Y-135179255D01*
X181795161Y-135092329D01*
X181822226Y-135027918D01*
X181830690Y-135018543D01*
X182818535Y-134030698D01*
X182879856Y-133997215D01*
X182892311Y-133995163D01*
X182979255Y-133985368D01*
X183149522Y-133925789D01*
X183302262Y-133829816D01*
X183429816Y-133702262D01*
X183525789Y-133549522D01*
X183585368Y-133379255D01*
X183585369Y-133379249D01*
X183605565Y-133200003D01*
X183605565Y-133199996D01*
X183585369Y-133020750D01*
X183585368Y-133020745D01*
X183525788Y-132850476D01*
X183429815Y-132697737D01*
X183302262Y-132570184D01*
X183149521Y-132474210D01*
X183056160Y-132441542D01*
X182999383Y-132400820D01*
X182973636Y-132335867D01*
X182987092Y-132267306D01*
X183035479Y-132216903D01*
X183097114Y-132200500D01*
X195513331Y-132200500D01*
X195513347Y-132200501D01*
X195520943Y-132200501D01*
X195679054Y-132200501D01*
X195679057Y-132200501D01*
X195831785Y-132159577D01*
X195902558Y-132118716D01*
X195968716Y-132080520D01*
X196080520Y-131968716D01*
X196080520Y-131968714D01*
X196090724Y-131958511D01*
X196090728Y-131958506D01*
X197311877Y-130737356D01*
X197373198Y-130703873D01*
X197442890Y-130708857D01*
X197498823Y-130750729D01*
X197523084Y-130814230D01*
X197524936Y-130835403D01*
X197524938Y-130835413D01*
X197586094Y-131063655D01*
X197586096Y-131063659D01*
X197586097Y-131063663D01*
X197624802Y-131146666D01*
X197685965Y-131277830D01*
X197685967Y-131277834D01*
X197794281Y-131432521D01*
X197821501Y-131471396D01*
X197821506Y-131471402D01*
X197943818Y-131593714D01*
X197977303Y-131655037D01*
X197972319Y-131724729D01*
X197930447Y-131780662D01*
X197899471Y-131797577D01*
X197767912Y-131846646D01*
X197767906Y-131846649D01*
X197652812Y-131932809D01*
X197652809Y-131932812D01*
X197566649Y-132047906D01*
X197566645Y-132047913D01*
X197516403Y-132182620D01*
X197516401Y-132182627D01*
X197510000Y-132242155D01*
X197510000Y-132890000D01*
X198426988Y-132890000D01*
X198394075Y-132947007D01*
X198360000Y-133074174D01*
X198360000Y-133205826D01*
X198394075Y-133332993D01*
X198426988Y-133390000D01*
X197510000Y-133390000D01*
X197510000Y-134037844D01*
X197516401Y-134097372D01*
X197516403Y-134097379D01*
X197566645Y-134232086D01*
X197566649Y-134232093D01*
X197652809Y-134347187D01*
X197652812Y-134347190D01*
X197767906Y-134433350D01*
X197767913Y-134433354D01*
X197902620Y-134483596D01*
X197902627Y-134483598D01*
X197962155Y-134489999D01*
X197962172Y-134490000D01*
X198610000Y-134490000D01*
X198610000Y-133573012D01*
X198667007Y-133605925D01*
X198794174Y-133640000D01*
X198925826Y-133640000D01*
X199052993Y-133605925D01*
X199110000Y-133573012D01*
X199110000Y-134490000D01*
X199757828Y-134490000D01*
X199757844Y-134489999D01*
X199817372Y-134483598D01*
X199817379Y-134483596D01*
X199952086Y-134433354D01*
X199952093Y-134433350D01*
X200067187Y-134347190D01*
X200067190Y-134347187D01*
X200153350Y-134232093D01*
X200153354Y-134232086D01*
X200202422Y-134100529D01*
X200244293Y-134044595D01*
X200309757Y-134020178D01*
X200378030Y-134035030D01*
X200406285Y-134056181D01*
X200528599Y-134178495D01*
X200605135Y-134232086D01*
X200722165Y-134314032D01*
X200722167Y-134314033D01*
X200722170Y-134314035D01*
X200936337Y-134413903D01*
X201164592Y-134475063D01*
X201335319Y-134490000D01*
X201399999Y-134495659D01*
X201400000Y-134495659D01*
X201400001Y-134495659D01*
X201464681Y-134490000D01*
X201635408Y-134475063D01*
X201863663Y-134413903D01*
X202077830Y-134314035D01*
X202271401Y-134178495D01*
X202438495Y-134011401D01*
X202568425Y-133825842D01*
X202623002Y-133782217D01*
X202692500Y-133775023D01*
X202754855Y-133806546D01*
X202771575Y-133825842D01*
X202901500Y-134011395D01*
X202901505Y-134011401D01*
X203068599Y-134178495D01*
X203145135Y-134232086D01*
X203262165Y-134314032D01*
X203262167Y-134314033D01*
X203262170Y-134314035D01*
X203476337Y-134413903D01*
X203704592Y-134475063D01*
X203875319Y-134490000D01*
X203939999Y-134495659D01*
X203940000Y-134495659D01*
X203940001Y-134495659D01*
X204004681Y-134490000D01*
X204175408Y-134475063D01*
X204403663Y-134413903D01*
X204617830Y-134314035D01*
X204811401Y-134178495D01*
X204978495Y-134011401D01*
X205114035Y-133817830D01*
X205116707Y-133812097D01*
X205162878Y-133759658D01*
X205229091Y-133740500D01*
X206373331Y-133740500D01*
X206373347Y-133740501D01*
X206380943Y-133740501D01*
X206539054Y-133740501D01*
X206539057Y-133740501D01*
X206691785Y-133699577D01*
X206741904Y-133670639D01*
X206828716Y-133620520D01*
X206940520Y-133508716D01*
X206940520Y-133508714D01*
X206950728Y-133498507D01*
X206950730Y-133498504D01*
X207358506Y-133090728D01*
X207358511Y-133090724D01*
X207368714Y-133080520D01*
X207368716Y-133080520D01*
X207480520Y-132968716D01*
X207552658Y-132843769D01*
X207559577Y-132831785D01*
X207600500Y-132679058D01*
X207600500Y-132520943D01*
X207600500Y-106720943D01*
X207559577Y-106568216D01*
X207559577Y-106568215D01*
X207559577Y-106568214D01*
X207530639Y-106518095D01*
X207530637Y-106518092D01*
X207491614Y-106450500D01*
X207480520Y-106431284D01*
X207368716Y-106319480D01*
X207368715Y-106319479D01*
X207364385Y-106315149D01*
X207364374Y-106315139D01*
X200036819Y-98987584D01*
X200003334Y-98926261D01*
X200000500Y-98899903D01*
X200000500Y-97182412D01*
X200020185Y-97115373D01*
X200027555Y-97105097D01*
X200029810Y-97102267D01*
X200029816Y-97102262D01*
X200125789Y-96949522D01*
X200185368Y-96779255D01*
X200192104Y-96719475D01*
X200205565Y-96600003D01*
X200205565Y-96599996D01*
X200185369Y-96420750D01*
X200185368Y-96420745D01*
X200125788Y-96250476D01*
X200029815Y-96097737D01*
X199902262Y-95970184D01*
X199749523Y-95874211D01*
X199579254Y-95814631D01*
X199579249Y-95814630D01*
X199400004Y-95794435D01*
X199399996Y-95794435D01*
X199220750Y-95814630D01*
X199220745Y-95814631D01*
X199050476Y-95874211D01*
X198897737Y-95970184D01*
X198770184Y-96097737D01*
X198674211Y-96250476D01*
X198614631Y-96420745D01*
X198614630Y-96420750D01*
X198594435Y-96599996D01*
X198594435Y-96600003D01*
X198614630Y-96779249D01*
X198614631Y-96779254D01*
X198674211Y-96949523D01*
X198770185Y-97102263D01*
X198772445Y-97105097D01*
X198773334Y-97107275D01*
X198773889Y-97108158D01*
X198773734Y-97108255D01*
X198798855Y-97169783D01*
X198799500Y-97182412D01*
X198799500Y-99113330D01*
X198799499Y-99113348D01*
X198799499Y-99279054D01*
X198799498Y-99279054D01*
X198840422Y-99431784D01*
X198840423Y-99431785D01*
X198842000Y-99434517D01*
X198842004Y-99434531D01*
X198842008Y-99434530D01*
X198919477Y-99568712D01*
X198919481Y-99568717D01*
X199038349Y-99687585D01*
X199038355Y-99687590D01*
X206363181Y-107012416D01*
X206396666Y-107073739D01*
X206399500Y-107100097D01*
X206399500Y-120250903D01*
X206379815Y-120317942D01*
X206327011Y-120363697D01*
X206257853Y-120373641D01*
X206194297Y-120344616D01*
X206187819Y-120338584D01*
X201636819Y-115787584D01*
X201603334Y-115726261D01*
X201600500Y-115699903D01*
X201600500Y-109520945D01*
X201600500Y-109520943D01*
X201559577Y-109368216D01*
X201559573Y-109368209D01*
X201480524Y-109231290D01*
X201480521Y-109231286D01*
X201480520Y-109231284D01*
X201368716Y-109119480D01*
X201368715Y-109119479D01*
X201364385Y-109115149D01*
X201364374Y-109115139D01*
X193636819Y-101387584D01*
X193603334Y-101326261D01*
X193600500Y-101299903D01*
X193600500Y-99889060D01*
X193600501Y-99889047D01*
X193600501Y-99720944D01*
X193591564Y-99687590D01*
X193559577Y-99568216D01*
X193482395Y-99434531D01*
X193480524Y-99431290D01*
X193480518Y-99431282D01*
X190030700Y-95981465D01*
X189997215Y-95920142D01*
X189995163Y-95907686D01*
X189985368Y-95820745D01*
X189925789Y-95650478D01*
X189829816Y-95497738D01*
X189702262Y-95370184D01*
X189549523Y-95274211D01*
X189379254Y-95214631D01*
X189379249Y-95214630D01*
X189200004Y-95194435D01*
X189199996Y-95194435D01*
X189020750Y-95214630D01*
X189020745Y-95214631D01*
X188850476Y-95274211D01*
X188697737Y-95370184D01*
X188570184Y-95497737D01*
X188474211Y-95650476D01*
X188414631Y-95820745D01*
X188414630Y-95820750D01*
X188394435Y-95999996D01*
X188394435Y-96000003D01*
X188414630Y-96179249D01*
X188414631Y-96179254D01*
X188474211Y-96349523D01*
X188552558Y-96474210D01*
X188570184Y-96502262D01*
X188697738Y-96629816D01*
X188850478Y-96725789D01*
X189020745Y-96785368D01*
X189107669Y-96795161D01*
X189172080Y-96822226D01*
X189181465Y-96830700D01*
X192363181Y-100012416D01*
X192396666Y-100073739D01*
X192399500Y-100100097D01*
X192399500Y-100678156D01*
X192379815Y-100745195D01*
X192327011Y-100790950D01*
X192261618Y-100801377D01*
X192221815Y-100796892D01*
X192200000Y-100794435D01*
X192199998Y-100794435D01*
X192199997Y-100794435D01*
X192199996Y-100794435D01*
X192020750Y-100814630D01*
X192020737Y-100814633D01*
X191843906Y-100876510D01*
X191843155Y-100874364D01*
X191784856Y-100883962D01*
X191756409Y-100875609D01*
X191756094Y-100876510D01*
X191579262Y-100814633D01*
X191579249Y-100814630D01*
X191400004Y-100794435D01*
X191399996Y-100794435D01*
X191220750Y-100814630D01*
X191220737Y-100814633D01*
X191043906Y-100876510D01*
X191043155Y-100874364D01*
X190984856Y-100883962D01*
X190956409Y-100875609D01*
X190956094Y-100876510D01*
X190779262Y-100814633D01*
X190779249Y-100814630D01*
X190600004Y-100794435D01*
X190599996Y-100794435D01*
X190420750Y-100814630D01*
X190420742Y-100814632D01*
X190279988Y-100863884D01*
X190210209Y-100867445D01*
X190173062Y-100851836D01*
X190049523Y-100774211D01*
X189879254Y-100714631D01*
X189879249Y-100714630D01*
X189700004Y-100694435D01*
X189699996Y-100694435D01*
X189520750Y-100714630D01*
X189520745Y-100714631D01*
X189350476Y-100774211D01*
X189197737Y-100870184D01*
X189070184Y-100997737D01*
X188974211Y-101150476D01*
X188914631Y-101320745D01*
X188914630Y-101320750D01*
X188894435Y-101499996D01*
X188894435Y-101500003D01*
X188914630Y-101679249D01*
X188914631Y-101679254D01*
X188974211Y-101849523D01*
X189070185Y-102002263D01*
X189072445Y-102005097D01*
X189073334Y-102007275D01*
X189073889Y-102008158D01*
X189073734Y-102008255D01*
X189098855Y-102069783D01*
X189099500Y-102082412D01*
X189099500Y-107434217D01*
X189079815Y-107501256D01*
X189063181Y-107521898D01*
X186421898Y-110163181D01*
X186360575Y-110196666D01*
X186334217Y-110199500D01*
X184782412Y-110199500D01*
X184715373Y-110179815D01*
X184705097Y-110172445D01*
X184702263Y-110170185D01*
X184702262Y-110170184D01*
X184645496Y-110134515D01*
X184549523Y-110074211D01*
X184379254Y-110014631D01*
X184379249Y-110014630D01*
X184200004Y-109994435D01*
X184199996Y-109994435D01*
X184020750Y-110014630D01*
X184020745Y-110014631D01*
X183850476Y-110074211D01*
X183697737Y-110170184D01*
X183570184Y-110297737D01*
X183474211Y-110450476D01*
X183414631Y-110620745D01*
X183414630Y-110620750D01*
X183394435Y-110799996D01*
X183394435Y-110800003D01*
X183414630Y-110979249D01*
X183414633Y-110979262D01*
X183474209Y-111149520D01*
X183527309Y-111234029D01*
X183546309Y-111301266D01*
X183527309Y-111365971D01*
X183474209Y-111450479D01*
X183414633Y-111620737D01*
X183414630Y-111620750D01*
X183394435Y-111799996D01*
X183394435Y-111800003D01*
X183414630Y-111979249D01*
X183414633Y-111979262D01*
X183476510Y-112156094D01*
X183474364Y-112156844D01*
X183483962Y-112215144D01*
X183475609Y-112243590D01*
X183476510Y-112243906D01*
X183414633Y-112420737D01*
X183414630Y-112420750D01*
X183394435Y-112599996D01*
X183394435Y-112600003D01*
X183414630Y-112779249D01*
X183414633Y-112779262D01*
X183476510Y-112956094D01*
X183474364Y-112956844D01*
X183483962Y-113015144D01*
X183475609Y-113043590D01*
X183476510Y-113043906D01*
X183414633Y-113220737D01*
X183414630Y-113220750D01*
X183394435Y-113399996D01*
X183394435Y-113400003D01*
X183414630Y-113579249D01*
X183414631Y-113579254D01*
X183474211Y-113749523D01*
X183570184Y-113902262D01*
X183697738Y-114029816D01*
X183850478Y-114125789D01*
X184020745Y-114185368D01*
X184020750Y-114185369D01*
X184199996Y-114205565D01*
X184200000Y-114205565D01*
X184200004Y-114205565D01*
X184379249Y-114185369D01*
X184379252Y-114185368D01*
X184379255Y-114185368D01*
X184549522Y-114125789D01*
X184702262Y-114029816D01*
X184702267Y-114029810D01*
X184705097Y-114027555D01*
X184707275Y-114026665D01*
X184708158Y-114026111D01*
X184708255Y-114026265D01*
X184769783Y-114001145D01*
X184782412Y-114000500D01*
X185913331Y-114000500D01*
X185913347Y-114000501D01*
X185920943Y-114000501D01*
X186079054Y-114000501D01*
X186079057Y-114000501D01*
X186231785Y-113959577D01*
X186281904Y-113930639D01*
X186368716Y-113880520D01*
X186480520Y-113768716D01*
X186480520Y-113768714D01*
X186490728Y-113758507D01*
X186490730Y-113758504D01*
X192558506Y-107690728D01*
X192558511Y-107690724D01*
X192568714Y-107680520D01*
X192568716Y-107680520D01*
X192680520Y-107568716D01*
X192743632Y-107459402D01*
X192759577Y-107431785D01*
X192800500Y-107279057D01*
X192800500Y-107120943D01*
X192800500Y-102549097D01*
X192820185Y-102482058D01*
X192872989Y-102436303D01*
X192942147Y-102426359D01*
X193005703Y-102455384D01*
X193012181Y-102461416D01*
X200363181Y-109812416D01*
X200396666Y-109873739D01*
X200399500Y-109900097D01*
X200399500Y-115913330D01*
X200399499Y-115913348D01*
X200399499Y-115934083D01*
X200379814Y-116001122D01*
X200327010Y-116046877D01*
X200316454Y-116051125D01*
X200250476Y-116074211D01*
X200097737Y-116170184D01*
X199970184Y-116297737D01*
X199874211Y-116450476D01*
X199814631Y-116620745D01*
X199814630Y-116620750D01*
X199794435Y-116799996D01*
X199794435Y-116800003D01*
X199814630Y-116979249D01*
X199814631Y-116979254D01*
X199874211Y-117149523D01*
X199930999Y-117239899D01*
X199966783Y-117296850D01*
X199970185Y-117302263D01*
X199972445Y-117305097D01*
X199973334Y-117307275D01*
X199973889Y-117308158D01*
X199973734Y-117308255D01*
X199998855Y-117369783D01*
X199999500Y-117382412D01*
X199999500Y-120113330D01*
X199999499Y-120113348D01*
X199999499Y-120279054D01*
X199999498Y-120279054D01*
X200040423Y-120431787D01*
X200050507Y-120449250D01*
X200051216Y-120450478D01*
X200119479Y-120568714D01*
X200119481Y-120568717D01*
X200163181Y-120612417D01*
X200196666Y-120673740D01*
X200199500Y-120700098D01*
X200199500Y-123099903D01*
X200179815Y-123166942D01*
X200163181Y-123187584D01*
X199187584Y-124163181D01*
X199126261Y-124196666D01*
X199099903Y-124199500D01*
X196086670Y-124199500D01*
X196086654Y-124199499D01*
X196079058Y-124199499D01*
X195920943Y-124199499D01*
X195844579Y-124219961D01*
X195768214Y-124240423D01*
X195768209Y-124240426D01*
X195631290Y-124319475D01*
X195631282Y-124319481D01*
X195447583Y-124503181D01*
X195386260Y-124536666D01*
X195359902Y-124539500D01*
X194889091Y-124539500D01*
X194822052Y-124519815D01*
X194776711Y-124467909D01*
X194774037Y-124462175D01*
X194774034Y-124462170D01*
X194768729Y-124454594D01*
X194646842Y-124280520D01*
X194638496Y-124268600D01*
X194610319Y-124240423D01*
X194516179Y-124146283D01*
X194482696Y-124084963D01*
X194487680Y-124015271D01*
X194529551Y-123959337D01*
X194560529Y-123942422D01*
X194692086Y-123893354D01*
X194692093Y-123893350D01*
X194807187Y-123807190D01*
X194807190Y-123807187D01*
X194893350Y-123692093D01*
X194893354Y-123692086D01*
X194943596Y-123557379D01*
X194943598Y-123557372D01*
X194949999Y-123497844D01*
X194950000Y-123497827D01*
X194950000Y-122850000D01*
X194033012Y-122850000D01*
X194065925Y-122792993D01*
X194100000Y-122665826D01*
X194100000Y-122534174D01*
X194065925Y-122407007D01*
X194033012Y-122350000D01*
X194950000Y-122350000D01*
X194950000Y-121724500D01*
X194969685Y-121657461D01*
X195022489Y-121611706D01*
X195074000Y-121600500D01*
X195313331Y-121600500D01*
X195313347Y-121600501D01*
X195320943Y-121600501D01*
X195479054Y-121600501D01*
X195479057Y-121600501D01*
X195631785Y-121559577D01*
X195690307Y-121525789D01*
X195768716Y-121480520D01*
X195768717Y-121480519D01*
X195818535Y-121430701D01*
X195879858Y-121397215D01*
X195892316Y-121395162D01*
X195979255Y-121385368D01*
X196149522Y-121325789D01*
X196302262Y-121229816D01*
X196429816Y-121102262D01*
X196525789Y-120949522D01*
X196585368Y-120779255D01*
X196588718Y-120749522D01*
X196605565Y-120600003D01*
X196605565Y-120599996D01*
X196585369Y-120420750D01*
X196585368Y-120420745D01*
X196560788Y-120350499D01*
X196525789Y-120250478D01*
X196429816Y-120097738D01*
X196302262Y-119970184D01*
X196287514Y-119960917D01*
X196149523Y-119874211D01*
X195979254Y-119814631D01*
X195979249Y-119814630D01*
X195800004Y-119794435D01*
X195799996Y-119794435D01*
X195620750Y-119814630D01*
X195620745Y-119814631D01*
X195450476Y-119874211D01*
X195297737Y-119970184D01*
X195170184Y-120097737D01*
X195074210Y-120250478D01*
X195051125Y-120316454D01*
X195010403Y-120373230D01*
X194945451Y-120398978D01*
X194934083Y-120399500D01*
X192762290Y-120399500D01*
X192695251Y-120379815D01*
X192657297Y-120341473D01*
X192629817Y-120297739D01*
X192502262Y-120170184D01*
X192349521Y-120074210D01*
X192179249Y-120014630D01*
X192092331Y-120004837D01*
X192027917Y-119977770D01*
X192018534Y-119969298D01*
X191968717Y-119919481D01*
X191968709Y-119919475D01*
X191866936Y-119860717D01*
X191866934Y-119860716D01*
X191831790Y-119840425D01*
X191824281Y-119837315D01*
X191825507Y-119834352D01*
X191778693Y-119805810D01*
X191748171Y-119742959D01*
X191756475Y-119673584D01*
X191800967Y-119619712D01*
X191856574Y-119599191D01*
X191979249Y-119585369D01*
X191979252Y-119585368D01*
X191979255Y-119585368D01*
X192149522Y-119525789D01*
X192302262Y-119429816D01*
X192302267Y-119429810D01*
X192305097Y-119427555D01*
X192307275Y-119426665D01*
X192308158Y-119426111D01*
X192308255Y-119426265D01*
X192369783Y-119401145D01*
X192382412Y-119400500D01*
X194361860Y-119400500D01*
X194361876Y-119400501D01*
X194369472Y-119400501D01*
X194527583Y-119400501D01*
X194527586Y-119400501D01*
X194680314Y-119359577D01*
X194730433Y-119330639D01*
X194817245Y-119280520D01*
X194929049Y-119168716D01*
X194929049Y-119168714D01*
X194939257Y-119158507D01*
X194939259Y-119158504D01*
X195965053Y-118132709D01*
X195977119Y-118123159D01*
X195976819Y-118122792D01*
X195983112Y-118117653D01*
X195995414Y-118104581D01*
X196029826Y-118068014D01*
X196032347Y-118065415D01*
X196080519Y-118017245D01*
X196080521Y-118017240D01*
X196080523Y-118017239D01*
X196085471Y-118010792D01*
X196085848Y-118011081D01*
X196087111Y-118009383D01*
X196086725Y-118009105D01*
X196091475Y-118002509D01*
X196091474Y-118002509D01*
X196091477Y-118002507D01*
X196123730Y-117942510D01*
X196125530Y-117939282D01*
X196159577Y-117880314D01*
X196159578Y-117880309D01*
X196162687Y-117872806D01*
X196163128Y-117872988D01*
X196163912Y-117871012D01*
X196163465Y-117870843D01*
X196166343Y-117863247D01*
X196166347Y-117863241D01*
X196181965Y-117796975D01*
X196182869Y-117793382D01*
X196200501Y-117727586D01*
X196200501Y-117727578D01*
X196201562Y-117719527D01*
X196202031Y-117719588D01*
X196203808Y-117704306D01*
X196213087Y-117664937D01*
X196250971Y-117504206D01*
X196285510Y-117443471D01*
X196297043Y-117434438D01*
X196296819Y-117434157D01*
X196302258Y-117429819D01*
X196302259Y-117429817D01*
X196302262Y-117429816D01*
X196429816Y-117302262D01*
X196525789Y-117149522D01*
X196585368Y-116979255D01*
X196592829Y-116913037D01*
X196605565Y-116800003D01*
X196605565Y-116799996D01*
X196585369Y-116620750D01*
X196585368Y-116620745D01*
X196567676Y-116570184D01*
X196525789Y-116450478D01*
X196503265Y-116414632D01*
X196429815Y-116297737D01*
X196302262Y-116170184D01*
X196149523Y-116074211D01*
X195979254Y-116014631D01*
X195979249Y-116014630D01*
X195800004Y-115994435D01*
X195799996Y-115994435D01*
X195620750Y-116014630D01*
X195620745Y-116014631D01*
X195450476Y-116074211D01*
X195297737Y-116170184D01*
X195170184Y-116297737D01*
X195074210Y-116450478D01*
X195014632Y-116620745D01*
X195007170Y-116686964D01*
X195003726Y-116705165D01*
X194999501Y-116720934D01*
X194999500Y-116720945D01*
X194999500Y-116748085D01*
X194998720Y-116761969D01*
X194994435Y-116799998D01*
X194994435Y-116800001D01*
X194998720Y-116838029D01*
X194999500Y-116851914D01*
X194999500Y-116879055D01*
X194999501Y-116879066D01*
X195003726Y-116894836D01*
X195007170Y-116913037D01*
X195014632Y-116979254D01*
X195076511Y-117156096D01*
X195074558Y-117156779D01*
X195084283Y-117215786D01*
X195081902Y-117229110D01*
X195062763Y-117310308D01*
X195029751Y-117369541D01*
X194236113Y-118163181D01*
X194174790Y-118196666D01*
X194148432Y-118199500D01*
X192382412Y-118199500D01*
X192315373Y-118179815D01*
X192305097Y-118172445D01*
X192302263Y-118170185D01*
X192302262Y-118170184D01*
X192198510Y-118104992D01*
X192152221Y-118052659D01*
X192141573Y-117983606D01*
X192169948Y-117919757D01*
X192198509Y-117895007D01*
X192302262Y-117829816D01*
X192429816Y-117702262D01*
X192525789Y-117549522D01*
X192585368Y-117379255D01*
X192585369Y-117379249D01*
X192605565Y-117200003D01*
X192605565Y-117199996D01*
X192585369Y-117020750D01*
X192585368Y-117020745D01*
X192544448Y-116903803D01*
X192525789Y-116850478D01*
X192522317Y-116844953D01*
X192444398Y-116720945D01*
X192429816Y-116697738D01*
X192302262Y-116570184D01*
X192149523Y-116474211D01*
X191979254Y-116414631D01*
X191979249Y-116414630D01*
X191800004Y-116394435D01*
X191799996Y-116394435D01*
X191620750Y-116414630D01*
X191620745Y-116414631D01*
X191450476Y-116474211D01*
X191297737Y-116570184D01*
X191170184Y-116697737D01*
X191074210Y-116850478D01*
X191014630Y-117020750D01*
X191004837Y-117107668D01*
X190977770Y-117172082D01*
X190969298Y-117181465D01*
X188231286Y-119919478D01*
X188119481Y-120031282D01*
X188119479Y-120031285D01*
X188115315Y-120038498D01*
X188081113Y-120097738D01*
X188040423Y-120168215D01*
X187999499Y-120320943D01*
X187999499Y-120320944D01*
X187999499Y-120320945D01*
X187999499Y-120489046D01*
X187999500Y-120489059D01*
X187999500Y-121699902D01*
X187979815Y-121766941D01*
X187963181Y-121787583D01*
X187387584Y-122363181D01*
X187326261Y-122396666D01*
X187299903Y-122399500D01*
X179086669Y-122399500D01*
X179086653Y-122399499D01*
X179079057Y-122399499D01*
X178920943Y-122399499D01*
X178813587Y-122428265D01*
X178768210Y-122440424D01*
X178768209Y-122440425D01*
X178733066Y-122460716D01*
X178733064Y-122460717D01*
X178631290Y-122519475D01*
X178631282Y-122519481D01*
X178571515Y-122579249D01*
X178519480Y-122631284D01*
X178519478Y-122631286D01*
X178243758Y-122907007D01*
X177987584Y-123163181D01*
X177926261Y-123196666D01*
X177899903Y-123199500D01*
X177831940Y-123199500D01*
X177764901Y-123179815D01*
X177719146Y-123127011D01*
X177709202Y-123057853D01*
X177738227Y-122994297D01*
X177744259Y-122987819D01*
X177829816Y-122902262D01*
X177925789Y-122749522D01*
X177985368Y-122579255D01*
X177985369Y-122579249D01*
X178005565Y-122400003D01*
X178005565Y-122399996D01*
X177985369Y-122220750D01*
X177985368Y-122220745D01*
X177935789Y-122079057D01*
X177925789Y-122050478D01*
X177829816Y-121897738D01*
X177702262Y-121770184D01*
X177636077Y-121728597D01*
X177549523Y-121674211D01*
X177379254Y-121614631D01*
X177379249Y-121614630D01*
X177200004Y-121594435D01*
X177199996Y-121594435D01*
X177020750Y-121614630D01*
X177020745Y-121614631D01*
X176850476Y-121674211D01*
X176697736Y-121770185D01*
X176694903Y-121772445D01*
X176692724Y-121773334D01*
X176691842Y-121773889D01*
X176691744Y-121773734D01*
X176630217Y-121798855D01*
X176617588Y-121799500D01*
X173197156Y-121799500D01*
X173130117Y-121779815D01*
X173109475Y-121763181D01*
X170346293Y-118999999D01*
X181179341Y-118999999D01*
X181179341Y-119000000D01*
X181199936Y-119235403D01*
X181199938Y-119235413D01*
X181261094Y-119463655D01*
X181261096Y-119463659D01*
X181261097Y-119463663D01*
X181305301Y-119558458D01*
X181360965Y-119677830D01*
X181360967Y-119677834D01*
X181446159Y-119799500D01*
X181496505Y-119871401D01*
X181663599Y-120038495D01*
X181748205Y-120097737D01*
X181857165Y-120174032D01*
X181857167Y-120174033D01*
X181857170Y-120174035D01*
X182071337Y-120273903D01*
X182299592Y-120335063D01*
X182476034Y-120350500D01*
X182534999Y-120355659D01*
X182535000Y-120355659D01*
X182535001Y-120355659D01*
X182593966Y-120350500D01*
X182770408Y-120335063D01*
X182998663Y-120273903D01*
X183212830Y-120174035D01*
X183406401Y-120038495D01*
X183528329Y-119916566D01*
X183589648Y-119883084D01*
X183659340Y-119888068D01*
X183715274Y-119929939D01*
X183732189Y-119960917D01*
X183781202Y-120092328D01*
X183781206Y-120092335D01*
X183867452Y-120207544D01*
X183867455Y-120207547D01*
X183982664Y-120293793D01*
X183982671Y-120293797D01*
X184117517Y-120344091D01*
X184117516Y-120344091D01*
X184122400Y-120344616D01*
X184177127Y-120350500D01*
X185972872Y-120350499D01*
X186032483Y-120344091D01*
X186167331Y-120293796D01*
X186282546Y-120207546D01*
X186368796Y-120092331D01*
X186419091Y-119957483D01*
X186425500Y-119897873D01*
X186425499Y-118102128D01*
X186419091Y-118042517D01*
X186417810Y-118039083D01*
X186368797Y-117907671D01*
X186368793Y-117907664D01*
X186282547Y-117792455D01*
X186282544Y-117792452D01*
X186167335Y-117706206D01*
X186167328Y-117706202D01*
X186032482Y-117655908D01*
X186032483Y-117655908D01*
X185972883Y-117649501D01*
X185972881Y-117649500D01*
X185972873Y-117649500D01*
X185972864Y-117649500D01*
X184177129Y-117649500D01*
X184177123Y-117649501D01*
X184117516Y-117655908D01*
X183982671Y-117706202D01*
X183982664Y-117706206D01*
X183867455Y-117792452D01*
X183867452Y-117792455D01*
X183781206Y-117907664D01*
X183781203Y-117907669D01*
X183732189Y-118039083D01*
X183690317Y-118095016D01*
X183624853Y-118119433D01*
X183556580Y-118104581D01*
X183528326Y-118083430D01*
X183406402Y-117961506D01*
X183406395Y-117961501D01*
X183212834Y-117825967D01*
X183212830Y-117825965D01*
X183150691Y-117796989D01*
X182998663Y-117726097D01*
X182998659Y-117726096D01*
X182998655Y-117726094D01*
X182770413Y-117664938D01*
X182770403Y-117664936D01*
X182535001Y-117644341D01*
X182534999Y-117644341D01*
X182299596Y-117664936D01*
X182299586Y-117664938D01*
X182071344Y-117726094D01*
X182071335Y-117726098D01*
X181857171Y-117825964D01*
X181857169Y-117825965D01*
X181663597Y-117961505D01*
X181496505Y-118128597D01*
X181360965Y-118322169D01*
X181360964Y-118322171D01*
X181261098Y-118536335D01*
X181261094Y-118536344D01*
X181199938Y-118764586D01*
X181199936Y-118764596D01*
X181179341Y-118999999D01*
X170346293Y-118999999D01*
X169311319Y-117965025D01*
X169277834Y-117903702D01*
X169275000Y-117877344D01*
X169275000Y-108631468D01*
X169294685Y-108564429D01*
X169311314Y-108543792D01*
X173158506Y-104696599D01*
X173158511Y-104696596D01*
X173168714Y-104686392D01*
X173168716Y-104686392D01*
X173280520Y-104574588D01*
X173335874Y-104478712D01*
X173346920Y-104459580D01*
X173346921Y-104459578D01*
X173352056Y-104450682D01*
X173359577Y-104437657D01*
X173400500Y-104284929D01*
X173400500Y-104126815D01*
X173400500Y-98116321D01*
X173420185Y-98049282D01*
X173472989Y-98003527D01*
X173510612Y-97993101D01*
X173579255Y-97985368D01*
X173749522Y-97925789D01*
X173902262Y-97829816D01*
X173902267Y-97829810D01*
X173905097Y-97827555D01*
X173907275Y-97826665D01*
X173908158Y-97826111D01*
X173908255Y-97826265D01*
X173969783Y-97801145D01*
X173982412Y-97800500D01*
X178899903Y-97800500D01*
X178966942Y-97820185D01*
X178987584Y-97836819D01*
X180169298Y-99018533D01*
X180202783Y-99079856D01*
X180204837Y-99092330D01*
X180214630Y-99179249D01*
X180274210Y-99349521D01*
X180325589Y-99431290D01*
X180370184Y-99502262D01*
X180497738Y-99629816D01*
X180588080Y-99686582D01*
X180642765Y-99720943D01*
X180650478Y-99725789D01*
X180820745Y-99785368D01*
X180820750Y-99785369D01*
X180999996Y-99805565D01*
X181000000Y-99805565D01*
X181000004Y-99805565D01*
X181179249Y-99785369D01*
X181179252Y-99785368D01*
X181179255Y-99785368D01*
X181349522Y-99725789D01*
X181502262Y-99629816D01*
X181629816Y-99502262D01*
X181725789Y-99349522D01*
X181785368Y-99179255D01*
X181795162Y-99092330D01*
X181805565Y-99000003D01*
X181805565Y-98999996D01*
X181785369Y-98820750D01*
X181785368Y-98820745D01*
X181725788Y-98650476D01*
X181629815Y-98497737D01*
X181502262Y-98370184D01*
X181349521Y-98274210D01*
X181179249Y-98214630D01*
X181092330Y-98204837D01*
X181027916Y-98177770D01*
X181018533Y-98169298D01*
X179687590Y-96838355D01*
X179687588Y-96838352D01*
X179568717Y-96719481D01*
X179568709Y-96719475D01*
X179466936Y-96660717D01*
X179466934Y-96660716D01*
X179431790Y-96640425D01*
X179431789Y-96640424D01*
X179408986Y-96634314D01*
X179279057Y-96599499D01*
X179120943Y-96599499D01*
X179113347Y-96599499D01*
X179113331Y-96599500D01*
X173982412Y-96599500D01*
X173915373Y-96579815D01*
X173905097Y-96572445D01*
X173902263Y-96570185D01*
X173902262Y-96570184D01*
X173794165Y-96502262D01*
X173749521Y-96474210D01*
X173579249Y-96414630D01*
X173504830Y-96406245D01*
X173440417Y-96379178D01*
X173400862Y-96321583D01*
X173398940Y-96315119D01*
X173359577Y-96168216D01*
X173318887Y-96097738D01*
X173280524Y-96031290D01*
X173280518Y-96031282D01*
X170449233Y-93199998D01*
X180445727Y-93199998D01*
X180445727Y-93200001D01*
X180464781Y-93417796D01*
X180464783Y-93417807D01*
X180521366Y-93628979D01*
X180521368Y-93628983D01*
X180521369Y-93628987D01*
X180592599Y-93781740D01*
X180613768Y-93827137D01*
X180613770Y-93827141D01*
X180739167Y-94006226D01*
X180739172Y-94006232D01*
X180893767Y-94160827D01*
X180893773Y-94160832D01*
X181072858Y-94286229D01*
X181072860Y-94286230D01*
X181072863Y-94286232D01*
X181271013Y-94378631D01*
X181482198Y-94435218D01*
X181637770Y-94448828D01*
X181699998Y-94454273D01*
X181700000Y-94454273D01*
X181700002Y-94454273D01*
X181754450Y-94449509D01*
X181917802Y-94435218D01*
X182128987Y-94378631D01*
X182327137Y-94286232D01*
X182506231Y-94160829D01*
X182660829Y-94006231D01*
X182786232Y-93827137D01*
X182878631Y-93628987D01*
X182935218Y-93417802D01*
X182954273Y-93200000D01*
X182954273Y-93199998D01*
X186945727Y-93199998D01*
X186945727Y-93200001D01*
X186964781Y-93417796D01*
X186964783Y-93417807D01*
X187021366Y-93628979D01*
X187021368Y-93628983D01*
X187021369Y-93628987D01*
X187092599Y-93781740D01*
X187113768Y-93827137D01*
X187113770Y-93827141D01*
X187239167Y-94006226D01*
X187239172Y-94006232D01*
X187393767Y-94160827D01*
X187393773Y-94160832D01*
X187572858Y-94286229D01*
X187572860Y-94286230D01*
X187572863Y-94286232D01*
X187771013Y-94378631D01*
X187982198Y-94435218D01*
X188137770Y-94448828D01*
X188199998Y-94454273D01*
X188200000Y-94454273D01*
X188200002Y-94454273D01*
X188254450Y-94449509D01*
X188417802Y-94435218D01*
X188628987Y-94378631D01*
X188827137Y-94286232D01*
X189006231Y-94160829D01*
X189160829Y-94006231D01*
X189286232Y-93827137D01*
X189286231Y-93827137D01*
X189287473Y-93825365D01*
X189342050Y-93781740D01*
X189411548Y-93774546D01*
X189473903Y-93806069D01*
X189476729Y-93808807D01*
X189497738Y-93829816D01*
X189650478Y-93925789D01*
X189691091Y-93940000D01*
X189820745Y-93985368D01*
X189820750Y-93985369D01*
X189999997Y-94005565D01*
X190000000Y-94005565D01*
X190075129Y-93997099D01*
X190112817Y-93999924D01*
X190112881Y-93999440D01*
X190120940Y-94000501D01*
X190120943Y-94000501D01*
X190286654Y-94000501D01*
X190286670Y-94000500D01*
X205017588Y-94000500D01*
X205084627Y-94020185D01*
X205094903Y-94027555D01*
X205097736Y-94029814D01*
X205097738Y-94029816D01*
X205250478Y-94125789D01*
X205420745Y-94185368D01*
X205420750Y-94185369D01*
X205599996Y-94205565D01*
X205600000Y-94205565D01*
X205600004Y-94205565D01*
X205779249Y-94185369D01*
X205779252Y-94185368D01*
X205779255Y-94185368D01*
X205949522Y-94125789D01*
X206102262Y-94029816D01*
X206229816Y-93902262D01*
X206325789Y-93749522D01*
X206385368Y-93579255D01*
X206385369Y-93579249D01*
X206405565Y-93400003D01*
X206405565Y-93399996D01*
X206385369Y-93220750D01*
X206385368Y-93220745D01*
X206352852Y-93127819D01*
X206325789Y-93050478D01*
X206229816Y-92897738D01*
X206181295Y-92849217D01*
X206147810Y-92787894D01*
X206152793Y-92718207D01*
X206194091Y-92607483D01*
X206200500Y-92547873D01*
X206200499Y-90332135D01*
X207399500Y-90332135D01*
X207399500Y-92627870D01*
X207399501Y-92627876D01*
X207405908Y-92687483D01*
X207456202Y-92822328D01*
X207456206Y-92822335D01*
X207542452Y-92937544D01*
X207542455Y-92937547D01*
X207657664Y-93023793D01*
X207657671Y-93023797D01*
X207792517Y-93074091D01*
X207792516Y-93074091D01*
X207799444Y-93074835D01*
X207852127Y-93080500D01*
X210147872Y-93080499D01*
X210207483Y-93074091D01*
X210342331Y-93023796D01*
X210457546Y-92937546D01*
X210543796Y-92822331D01*
X210594091Y-92687483D01*
X210600500Y-92627873D01*
X210600499Y-90332128D01*
X210594091Y-90272517D01*
X210586486Y-90252128D01*
X210543797Y-90137671D01*
X210543793Y-90137664D01*
X210457547Y-90022455D01*
X210457544Y-90022452D01*
X210342335Y-89936206D01*
X210342328Y-89936202D01*
X210207482Y-89885908D01*
X210207483Y-89885908D01*
X210147883Y-89879501D01*
X210147881Y-89879500D01*
X210147873Y-89879500D01*
X210147864Y-89879500D01*
X207852129Y-89879500D01*
X207852123Y-89879501D01*
X207792516Y-89885908D01*
X207657671Y-89936202D01*
X207657664Y-89936206D01*
X207542455Y-90022452D01*
X207542452Y-90022455D01*
X207456206Y-90137664D01*
X207456202Y-90137671D01*
X207405908Y-90272517D01*
X207399501Y-90332116D01*
X207399501Y-90332123D01*
X207399500Y-90332135D01*
X206200499Y-90332135D01*
X206200499Y-90252128D01*
X206194091Y-90192517D01*
X206177938Y-90149209D01*
X206143797Y-90057671D01*
X206143793Y-90057664D01*
X206057547Y-89942455D01*
X206057544Y-89942452D01*
X205942335Y-89856206D01*
X205942328Y-89856202D01*
X205807482Y-89805908D01*
X205807483Y-89805908D01*
X205747883Y-89799501D01*
X205747881Y-89799500D01*
X205747873Y-89799500D01*
X205747864Y-89799500D01*
X203452129Y-89799500D01*
X203452123Y-89799501D01*
X203392516Y-89805908D01*
X203257671Y-89856202D01*
X203257664Y-89856206D01*
X203142455Y-89942452D01*
X203142452Y-89942455D01*
X203056206Y-90057664D01*
X203056202Y-90057671D01*
X203005908Y-90192517D01*
X202999501Y-90252116D01*
X202999501Y-90252123D01*
X202999500Y-90252135D01*
X202999500Y-92547870D01*
X202999501Y-92547876D01*
X203005909Y-92607485D01*
X203015115Y-92632168D01*
X203020099Y-92701860D01*
X202986613Y-92763182D01*
X202925289Y-92796667D01*
X202898933Y-92799500D01*
X192921843Y-92799500D01*
X192854804Y-92779815D01*
X192809049Y-92727011D01*
X192798623Y-92661617D01*
X192805565Y-92600003D01*
X192805565Y-92599996D01*
X192785369Y-92420750D01*
X192785368Y-92420745D01*
X192725788Y-92250476D01*
X192686582Y-92188080D01*
X192629816Y-92097738D01*
X192502262Y-91970184D01*
X192463339Y-91945727D01*
X192349523Y-91874211D01*
X192179254Y-91814631D01*
X192179249Y-91814630D01*
X192000004Y-91794435D01*
X191999996Y-91794435D01*
X191820750Y-91814630D01*
X191820745Y-91814631D01*
X191650476Y-91874211D01*
X191497737Y-91970184D01*
X191370184Y-92097737D01*
X191274211Y-92250476D01*
X191214631Y-92420745D01*
X191214630Y-92420750D01*
X191194435Y-92599996D01*
X191194435Y-92600003D01*
X191201377Y-92661617D01*
X191189322Y-92730439D01*
X191141973Y-92781818D01*
X191078157Y-92799500D01*
X190762290Y-92799500D01*
X190695251Y-92779815D01*
X190657297Y-92741473D01*
X190629817Y-92697739D01*
X190502262Y-92570184D01*
X190349523Y-92474211D01*
X190179254Y-92414631D01*
X190179249Y-92414630D01*
X190000004Y-92394435D01*
X189999996Y-92394435D01*
X189820750Y-92414630D01*
X189820745Y-92414631D01*
X189650476Y-92474211D01*
X189497739Y-92570183D01*
X189476727Y-92591195D01*
X189415403Y-92624679D01*
X189345711Y-92619693D01*
X189289778Y-92577821D01*
X189287472Y-92574635D01*
X189268732Y-92547872D01*
X189179718Y-92420745D01*
X189160830Y-92393770D01*
X189160826Y-92393766D01*
X189006231Y-92239171D01*
X189006227Y-92239168D01*
X189006226Y-92239167D01*
X188827141Y-92113770D01*
X188827137Y-92113768D01*
X188827133Y-92113766D01*
X188628987Y-92021369D01*
X188628983Y-92021368D01*
X188628979Y-92021366D01*
X188417807Y-91964783D01*
X188417803Y-91964782D01*
X188417802Y-91964782D01*
X188417801Y-91964781D01*
X188417796Y-91964781D01*
X188200002Y-91945727D01*
X188199998Y-91945727D01*
X187982203Y-91964781D01*
X187982192Y-91964783D01*
X187771020Y-92021366D01*
X187771011Y-92021370D01*
X187572866Y-92113766D01*
X187393766Y-92239172D01*
X187239172Y-92393766D01*
X187113766Y-92572866D01*
X187021370Y-92771011D01*
X187021366Y-92771020D01*
X186964783Y-92982192D01*
X186964781Y-92982203D01*
X186945727Y-93199998D01*
X182954273Y-93199998D01*
X182935218Y-92982198D01*
X182882986Y-92787265D01*
X182878633Y-92771020D01*
X182878632Y-92771019D01*
X182878631Y-92771013D01*
X182786232Y-92572864D01*
X182679718Y-92420745D01*
X182660830Y-92393770D01*
X182660826Y-92393766D01*
X182506231Y-92239171D01*
X182506227Y-92239168D01*
X182506226Y-92239167D01*
X182327141Y-92113770D01*
X182327137Y-92113768D01*
X182327133Y-92113766D01*
X182128987Y-92021369D01*
X182128983Y-92021368D01*
X182128979Y-92021366D01*
X181917807Y-91964783D01*
X181917803Y-91964782D01*
X181917802Y-91964782D01*
X181917801Y-91964781D01*
X181917796Y-91964781D01*
X181700002Y-91945727D01*
X181699998Y-91945727D01*
X181482203Y-91964781D01*
X181482192Y-91964783D01*
X181271020Y-92021366D01*
X181271011Y-92021370D01*
X181072866Y-92113766D01*
X180893766Y-92239172D01*
X180739172Y-92393766D01*
X180613766Y-92572866D01*
X180521370Y-92771011D01*
X180521366Y-92771020D01*
X180464783Y-92982192D01*
X180464781Y-92982203D01*
X180445727Y-93199998D01*
X170449233Y-93199998D01*
X170287590Y-93038355D01*
X170287588Y-93038352D01*
X170168717Y-92919481D01*
X170168712Y-92919477D01*
X170101665Y-92880768D01*
X170075984Y-92861062D01*
X167636819Y-90421897D01*
X167603334Y-90360574D01*
X167600500Y-90334216D01*
X167600500Y-87903155D01*
X180451000Y-87903155D01*
X180451000Y-88450000D01*
X181272761Y-88450000D01*
X181238734Y-88508937D01*
X181205000Y-88634832D01*
X181205000Y-88765168D01*
X181238734Y-88891063D01*
X181272761Y-88950000D01*
X180451000Y-88950000D01*
X180451000Y-89496844D01*
X180457401Y-89556372D01*
X180457403Y-89556379D01*
X180507645Y-89691086D01*
X180507649Y-89691093D01*
X180593809Y-89806187D01*
X180593812Y-89806190D01*
X180708906Y-89892350D01*
X180708913Y-89892354D01*
X180843620Y-89942596D01*
X180843627Y-89942598D01*
X180903155Y-89948999D01*
X180903172Y-89949000D01*
X181450000Y-89949000D01*
X181450000Y-89127238D01*
X181508937Y-89161266D01*
X181634832Y-89195000D01*
X181765168Y-89195000D01*
X181891063Y-89161266D01*
X181950000Y-89127238D01*
X181950000Y-89949000D01*
X182496828Y-89949000D01*
X182496844Y-89948999D01*
X182556372Y-89942598D01*
X182556379Y-89942596D01*
X182691086Y-89892354D01*
X182691093Y-89892350D01*
X182806187Y-89806190D01*
X182806190Y-89806187D01*
X182892350Y-89691093D01*
X182892354Y-89691086D01*
X182942596Y-89556379D01*
X182942598Y-89556372D01*
X182948999Y-89496844D01*
X182949000Y-89496827D01*
X182949000Y-88950000D01*
X182127239Y-88950000D01*
X182161266Y-88891063D01*
X182195000Y-88765168D01*
X182195000Y-88699999D01*
X186946229Y-88699999D01*
X186946229Y-88700000D01*
X186965276Y-88917710D01*
X186965278Y-88917720D01*
X187021838Y-89128807D01*
X187021843Y-89128821D01*
X187114200Y-89326882D01*
X187114201Y-89326884D01*
X187157592Y-89388853D01*
X187721119Y-88825326D01*
X187738734Y-88891063D01*
X187803902Y-89003937D01*
X187896063Y-89096098D01*
X188008937Y-89161266D01*
X188074672Y-89178880D01*
X187511145Y-89742406D01*
X187573115Y-89785798D01*
X187573117Y-89785799D01*
X187771178Y-89878156D01*
X187771192Y-89878161D01*
X187982279Y-89934721D01*
X187982289Y-89934723D01*
X188199999Y-89953771D01*
X188200001Y-89953771D01*
X188417710Y-89934723D01*
X188417720Y-89934721D01*
X188628807Y-89878161D01*
X188628821Y-89878156D01*
X188826883Y-89785799D01*
X188826890Y-89785795D01*
X188888853Y-89742406D01*
X188325327Y-89178879D01*
X188391063Y-89161266D01*
X188503937Y-89096098D01*
X188596098Y-89003937D01*
X188661266Y-88891063D01*
X188678880Y-88825327D01*
X189242406Y-89388853D01*
X189285795Y-89326890D01*
X189285799Y-89326883D01*
X189378156Y-89128821D01*
X189378161Y-89128807D01*
X189434721Y-88917720D01*
X189434723Y-88917710D01*
X189453771Y-88700000D01*
X189453771Y-88699999D01*
X189434723Y-88482289D01*
X189434721Y-88482279D01*
X189378161Y-88271192D01*
X189378156Y-88271178D01*
X189285799Y-88073118D01*
X189285793Y-88073108D01*
X189242406Y-88011145D01*
X188678879Y-88574671D01*
X188661266Y-88508937D01*
X188596098Y-88396063D01*
X188503937Y-88303902D01*
X188391063Y-88238734D01*
X188325326Y-88221119D01*
X188888853Y-87657592D01*
X188826884Y-87614201D01*
X188826882Y-87614200D01*
X188628821Y-87521843D01*
X188628807Y-87521838D01*
X188417720Y-87465278D01*
X188417710Y-87465276D01*
X188200001Y-87446229D01*
X188199999Y-87446229D01*
X187982289Y-87465276D01*
X187982279Y-87465278D01*
X187771192Y-87521838D01*
X187771178Y-87521843D01*
X187573121Y-87614198D01*
X187511145Y-87657593D01*
X188074673Y-88221119D01*
X188008937Y-88238734D01*
X187896063Y-88303902D01*
X187803902Y-88396063D01*
X187738734Y-88508937D01*
X187721119Y-88574672D01*
X187157593Y-88011145D01*
X187114198Y-88073121D01*
X187021843Y-88271178D01*
X187021838Y-88271192D01*
X186965278Y-88482279D01*
X186965276Y-88482289D01*
X186946229Y-88699999D01*
X182195000Y-88699999D01*
X182195000Y-88634832D01*
X182161266Y-88508937D01*
X182127239Y-88450000D01*
X182949000Y-88450000D01*
X182949000Y-87903172D01*
X182948999Y-87903155D01*
X182942598Y-87843627D01*
X182942596Y-87843620D01*
X182892354Y-87708913D01*
X182892350Y-87708906D01*
X182806190Y-87593812D01*
X182806187Y-87593809D01*
X182691093Y-87507649D01*
X182691086Y-87507645D01*
X182556379Y-87457403D01*
X182556372Y-87457401D01*
X182496844Y-87451000D01*
X181950000Y-87451000D01*
X181950000Y-88272761D01*
X181891063Y-88238734D01*
X181765168Y-88205000D01*
X181634832Y-88205000D01*
X181508937Y-88238734D01*
X181450000Y-88272761D01*
X181450000Y-87451000D01*
X180903155Y-87451000D01*
X180843627Y-87457401D01*
X180843620Y-87457403D01*
X180708913Y-87507645D01*
X180708906Y-87507649D01*
X180593812Y-87593809D01*
X180593809Y-87593812D01*
X180507649Y-87708906D01*
X180507645Y-87708913D01*
X180457403Y-87843620D01*
X180457401Y-87843627D01*
X180451000Y-87903155D01*
X167600500Y-87903155D01*
X167600500Y-79700097D01*
X167620185Y-79633058D01*
X167636819Y-79612416D01*
X168012416Y-79236819D01*
X168073739Y-79203334D01*
X168100097Y-79200500D01*
X169187951Y-79200500D01*
X169254990Y-79220185D01*
X169300745Y-79272989D01*
X169310689Y-79342147D01*
X169281664Y-79405703D01*
X169275632Y-79412181D01*
X169216871Y-79470941D01*
X169216868Y-79470944D01*
X169089857Y-79652334D01*
X169089856Y-79652336D01*
X168996279Y-79853013D01*
X168996275Y-79853024D01*
X168938965Y-80066907D01*
X168938964Y-80066914D01*
X168919666Y-80287498D01*
X168919666Y-80287501D01*
X168938964Y-80508085D01*
X168938965Y-80508092D01*
X168996275Y-80721975D01*
X168996279Y-80721986D01*
X169046561Y-80829816D01*
X169089858Y-80922667D01*
X169216868Y-81104055D01*
X169373445Y-81260632D01*
X169481690Y-81336426D01*
X169525314Y-81391002D01*
X169532508Y-81460500D01*
X169500985Y-81522855D01*
X169440755Y-81558269D01*
X169410569Y-81562000D01*
X169377131Y-81562000D01*
X169377123Y-81562001D01*
X169317516Y-81568408D01*
X169182671Y-81618702D01*
X169182664Y-81618706D01*
X169067455Y-81704952D01*
X169067452Y-81704955D01*
X168981206Y-81820164D01*
X168981202Y-81820171D01*
X168930908Y-81955017D01*
X168925474Y-82005565D01*
X168924501Y-82014623D01*
X168924500Y-82014635D01*
X168924500Y-83640370D01*
X168924501Y-83640376D01*
X168930908Y-83699983D01*
X168981202Y-83834828D01*
X168981206Y-83834835D01*
X169067452Y-83950044D01*
X169067455Y-83950047D01*
X169182664Y-84036293D01*
X169182671Y-84036297D01*
X169317517Y-84086591D01*
X169317516Y-84086591D01*
X169324444Y-84087335D01*
X169377127Y-84093000D01*
X171002872Y-84092999D01*
X171062483Y-84086591D01*
X171197331Y-84036296D01*
X171312546Y-83950046D01*
X171398796Y-83834831D01*
X171449091Y-83699983D01*
X171455500Y-83640373D01*
X171455499Y-83606934D01*
X171475182Y-83539898D01*
X171527984Y-83494142D01*
X171597143Y-83484197D01*
X171660699Y-83513220D01*
X171681073Y-83535811D01*
X171756862Y-83644047D01*
X171756868Y-83644055D01*
X171913445Y-83800632D01*
X172094833Y-83927642D01*
X172215572Y-83983943D01*
X172295513Y-84021220D01*
X172295515Y-84021220D01*
X172295520Y-84021223D01*
X172509409Y-84078535D01*
X172666974Y-84092320D01*
X172729998Y-84097834D01*
X172730000Y-84097834D01*
X172730002Y-84097834D01*
X172788511Y-84092715D01*
X172950591Y-84078535D01*
X173164480Y-84021223D01*
X173365167Y-83927642D01*
X173546555Y-83800632D01*
X173703132Y-83644055D01*
X173830142Y-83462667D01*
X173887618Y-83339407D01*
X173933790Y-83286968D01*
X174000983Y-83267816D01*
X174067864Y-83288031D01*
X174112381Y-83339407D01*
X174169858Y-83462667D01*
X174296868Y-83644055D01*
X174453445Y-83800632D01*
X174634833Y-83927642D01*
X174755572Y-83983943D01*
X174835513Y-84021220D01*
X174835515Y-84021220D01*
X174835520Y-84021223D01*
X175049409Y-84078535D01*
X175206974Y-84092320D01*
X175269998Y-84097834D01*
X175270000Y-84097834D01*
X175270002Y-84097834D01*
X175328511Y-84092715D01*
X175490591Y-84078535D01*
X175704480Y-84021223D01*
X175905167Y-83927642D01*
X176086555Y-83800632D01*
X176243132Y-83644055D01*
X176370142Y-83462667D01*
X176427618Y-83339407D01*
X176473790Y-83286968D01*
X176540983Y-83267816D01*
X176607864Y-83288031D01*
X176652381Y-83339407D01*
X176709858Y-83462667D01*
X176836868Y-83644055D01*
X176993445Y-83800632D01*
X177174833Y-83927642D01*
X177295572Y-83983943D01*
X177375513Y-84021220D01*
X177375515Y-84021220D01*
X177375520Y-84021223D01*
X177589409Y-84078535D01*
X177746974Y-84092320D01*
X177809998Y-84097834D01*
X177810000Y-84097834D01*
X177810002Y-84097834D01*
X177868511Y-84092715D01*
X178030591Y-84078535D01*
X178244480Y-84021223D01*
X178445167Y-83927642D01*
X178626555Y-83800632D01*
X178783132Y-83644055D01*
X178910142Y-83462667D01*
X179003723Y-83261980D01*
X179061035Y-83048091D01*
X179080334Y-82827500D01*
X179076951Y-82788837D01*
X179070687Y-82717231D01*
X179061035Y-82606909D01*
X179003723Y-82393020D01*
X179000155Y-82385369D01*
X178950580Y-82279054D01*
X189799498Y-82279054D01*
X189799499Y-82279057D01*
X189833397Y-82405565D01*
X189840424Y-82431787D01*
X189841887Y-82434321D01*
X189855611Y-82458092D01*
X189856010Y-82458782D01*
X189856011Y-82458784D01*
X189919477Y-82568712D01*
X189919481Y-82568717D01*
X190038349Y-82687585D01*
X190038355Y-82687590D01*
X190163181Y-82812416D01*
X190196666Y-82873739D01*
X190199500Y-82900097D01*
X190199500Y-83617587D01*
X190179815Y-83684626D01*
X190172450Y-83694896D01*
X190170186Y-83697734D01*
X190074211Y-83850476D01*
X190014631Y-84020745D01*
X190014630Y-84020750D01*
X189994435Y-84199996D01*
X189994435Y-84200003D01*
X190014630Y-84379249D01*
X190014631Y-84379254D01*
X190074211Y-84549523D01*
X190137646Y-84650478D01*
X190170184Y-84702262D01*
X190297738Y-84829816D01*
X190305855Y-84834916D01*
X190447522Y-84923932D01*
X190450478Y-84925789D01*
X190518306Y-84949523D01*
X190620745Y-84985368D01*
X190620750Y-84985369D01*
X190799996Y-85005565D01*
X190800000Y-85005565D01*
X190800004Y-85005565D01*
X190979249Y-84985369D01*
X190979252Y-84985368D01*
X190979255Y-84985368D01*
X191149522Y-84925789D01*
X191302262Y-84829816D01*
X191429816Y-84702262D01*
X191525789Y-84549522D01*
X191585368Y-84379255D01*
X191599878Y-84250476D01*
X191605565Y-84200003D01*
X191605565Y-84199996D01*
X191585369Y-84020750D01*
X191585368Y-84020745D01*
X191525788Y-83850476D01*
X191492645Y-83797730D01*
X191429816Y-83697738D01*
X191429814Y-83697736D01*
X191429813Y-83697734D01*
X191427550Y-83694896D01*
X191426659Y-83692715D01*
X191426111Y-83691842D01*
X191426264Y-83691745D01*
X191401144Y-83630209D01*
X191400500Y-83617587D01*
X191400500Y-83123685D01*
X212725500Y-83123685D01*
X212725500Y-83356314D01*
X212749115Y-83535680D01*
X212755863Y-83586930D01*
X212777699Y-83668422D01*
X212816068Y-83811620D01*
X212905083Y-84026521D01*
X212905088Y-84026532D01*
X213021387Y-84227966D01*
X213021398Y-84227982D01*
X213162996Y-84412517D01*
X213163002Y-84412524D01*
X213327475Y-84576997D01*
X213327482Y-84577003D01*
X213423234Y-84650476D01*
X213512026Y-84718608D01*
X213512033Y-84718612D01*
X213713467Y-84834911D01*
X213713472Y-84834913D01*
X213713475Y-84834915D01*
X213820928Y-84879423D01*
X213928379Y-84923931D01*
X213928380Y-84923931D01*
X213928382Y-84923932D01*
X214153070Y-84984137D01*
X214383693Y-85014500D01*
X214383700Y-85014500D01*
X214616300Y-85014500D01*
X214616307Y-85014500D01*
X214846930Y-84984137D01*
X215071618Y-84923932D01*
X215286525Y-84834915D01*
X215487974Y-84718608D01*
X215672519Y-84577002D01*
X215837002Y-84412519D01*
X215978608Y-84227974D01*
X216094915Y-84026525D01*
X216183932Y-83811618D01*
X216213842Y-83699993D01*
X217716533Y-83699993D01*
X217716533Y-83700004D01*
X217736765Y-83944166D01*
X217736765Y-83944169D01*
X217736766Y-83944170D01*
X217757620Y-84026521D01*
X217796911Y-84181680D01*
X217895329Y-84406050D01*
X218029333Y-84611160D01*
X218029336Y-84611163D01*
X218195275Y-84791421D01*
X218195278Y-84791423D01*
X218195281Y-84791426D01*
X218367909Y-84925788D01*
X218388620Y-84941908D01*
X218604098Y-85058519D01*
X218604101Y-85058520D01*
X218835826Y-85138071D01*
X218835828Y-85138071D01*
X218835830Y-85138072D01*
X219077496Y-85178399D01*
X219077497Y-85178399D01*
X219322503Y-85178399D01*
X219322504Y-85178399D01*
X219564170Y-85138072D01*
X219795902Y-85058519D01*
X220011380Y-84941908D01*
X220204725Y-84791421D01*
X220370664Y-84611163D01*
X220504670Y-84406051D01*
X220603089Y-84181680D01*
X220663234Y-83944170D01*
X220683467Y-83699999D01*
X220683467Y-83699993D01*
X221916531Y-83699993D01*
X221916531Y-83700004D01*
X221936763Y-83944166D01*
X221936763Y-83944169D01*
X221936764Y-83944170D01*
X221957618Y-84026521D01*
X221996909Y-84181680D01*
X222095327Y-84406050D01*
X222229331Y-84611160D01*
X222229334Y-84611163D01*
X222395273Y-84791421D01*
X222395276Y-84791423D01*
X222395279Y-84791426D01*
X222567907Y-84925788D01*
X222588618Y-84941908D01*
X222804096Y-85058519D01*
X222804099Y-85058520D01*
X223035824Y-85138071D01*
X223035826Y-85138071D01*
X223035828Y-85138072D01*
X223277494Y-85178399D01*
X223277495Y-85178399D01*
X223522501Y-85178399D01*
X223522502Y-85178399D01*
X223764168Y-85138072D01*
X223995900Y-85058519D01*
X224211378Y-84941908D01*
X224404723Y-84791421D01*
X224570662Y-84611163D01*
X224704668Y-84406051D01*
X224803087Y-84181680D01*
X224863232Y-83944170D01*
X224883465Y-83699999D01*
X224883277Y-83697734D01*
X224865583Y-83484197D01*
X224863232Y-83455828D01*
X224803087Y-83218318D01*
X224761577Y-83123685D01*
X226325499Y-83123685D01*
X226325499Y-83356314D01*
X226349114Y-83535680D01*
X226355862Y-83586930D01*
X226377698Y-83668422D01*
X226416067Y-83811620D01*
X226505082Y-84026521D01*
X226505087Y-84026532D01*
X226621386Y-84227966D01*
X226621397Y-84227982D01*
X226762995Y-84412517D01*
X226763001Y-84412524D01*
X226927474Y-84576997D01*
X226927481Y-84577003D01*
X227023233Y-84650476D01*
X227112025Y-84718608D01*
X227112032Y-84718612D01*
X227313466Y-84834911D01*
X227313471Y-84834913D01*
X227313474Y-84834915D01*
X227420927Y-84879423D01*
X227528378Y-84923931D01*
X227528379Y-84923931D01*
X227528381Y-84923932D01*
X227753069Y-84984137D01*
X227983692Y-85014500D01*
X227983699Y-85014500D01*
X228216299Y-85014500D01*
X228216306Y-85014500D01*
X228446929Y-84984137D01*
X228671617Y-84923932D01*
X228886524Y-84834915D01*
X229087973Y-84718608D01*
X229272518Y-84577002D01*
X229437001Y-84412519D01*
X229578607Y-84227974D01*
X229694914Y-84026525D01*
X229783931Y-83811618D01*
X229844136Y-83586930D01*
X229874499Y-83356307D01*
X229874499Y-83123693D01*
X229844136Y-82893070D01*
X229783931Y-82668382D01*
X229763408Y-82618836D01*
X229730272Y-82538838D01*
X229694914Y-82453475D01*
X229694912Y-82453472D01*
X229694910Y-82453467D01*
X229578611Y-82252033D01*
X229578607Y-82252026D01*
X229472182Y-82113330D01*
X229437002Y-82067482D01*
X229436996Y-82067475D01*
X229272523Y-81903002D01*
X229272516Y-81902996D01*
X229087981Y-81761398D01*
X229087979Y-81761396D01*
X229087973Y-81761392D01*
X229087968Y-81761389D01*
X229087965Y-81761387D01*
X228886531Y-81645088D01*
X228886520Y-81645083D01*
X228671619Y-81556068D01*
X228547664Y-81522855D01*
X228446929Y-81495863D01*
X228395150Y-81489046D01*
X228216313Y-81465500D01*
X228216306Y-81465500D01*
X227983692Y-81465500D01*
X227983684Y-81465500D01*
X227800366Y-81489636D01*
X227753069Y-81495863D01*
X227696897Y-81510914D01*
X227528378Y-81556068D01*
X227313477Y-81645083D01*
X227313466Y-81645088D01*
X227112032Y-81761387D01*
X227112016Y-81761398D01*
X226927481Y-81902996D01*
X226927474Y-81903002D01*
X226763001Y-82067475D01*
X226762995Y-82067482D01*
X226621397Y-82252017D01*
X226621386Y-82252033D01*
X226505087Y-82453467D01*
X226505082Y-82453478D01*
X226416067Y-82668379D01*
X226383791Y-82788837D01*
X226357483Y-82887023D01*
X226355862Y-82893071D01*
X226325499Y-83123685D01*
X224761577Y-83123685D01*
X224704668Y-82993947D01*
X224659916Y-82925449D01*
X224570664Y-82788837D01*
X224535341Y-82750466D01*
X224404723Y-82608577D01*
X224404718Y-82608573D01*
X224404716Y-82608571D01*
X224211381Y-82458092D01*
X224211377Y-82458089D01*
X223995901Y-82341479D01*
X223995896Y-82341477D01*
X223764171Y-82261926D01*
X223571738Y-82229815D01*
X223522502Y-82221599D01*
X223277494Y-82221599D01*
X223229160Y-82229664D01*
X223035824Y-82261926D01*
X222804099Y-82341477D01*
X222804094Y-82341479D01*
X222588618Y-82458089D01*
X222588614Y-82458092D01*
X222395279Y-82608571D01*
X222395276Y-82608574D01*
X222229331Y-82788837D01*
X222095327Y-82993947D01*
X221996909Y-83218317D01*
X221936763Y-83455831D01*
X221916531Y-83699993D01*
X220683467Y-83699993D01*
X220683279Y-83697734D01*
X220665585Y-83484197D01*
X220663234Y-83455828D01*
X220603089Y-83218318D01*
X220504670Y-82993947D01*
X220459918Y-82925449D01*
X220370666Y-82788837D01*
X220335343Y-82750466D01*
X220204725Y-82608577D01*
X220204720Y-82608573D01*
X220204718Y-82608571D01*
X220011383Y-82458092D01*
X220011379Y-82458089D01*
X219795903Y-82341479D01*
X219795898Y-82341477D01*
X219564173Y-82261926D01*
X219371740Y-82229815D01*
X219322504Y-82221599D01*
X219077496Y-82221599D01*
X219029162Y-82229664D01*
X218835826Y-82261926D01*
X218604101Y-82341477D01*
X218604096Y-82341479D01*
X218388620Y-82458089D01*
X218388616Y-82458092D01*
X218195281Y-82608571D01*
X218195278Y-82608574D01*
X218029333Y-82788837D01*
X217895329Y-82993947D01*
X217796911Y-83218317D01*
X217736765Y-83455831D01*
X217716533Y-83699993D01*
X216213842Y-83699993D01*
X216244137Y-83586930D01*
X216274500Y-83356307D01*
X216274500Y-83123693D01*
X216244137Y-82893070D01*
X216183932Y-82668382D01*
X216163409Y-82618836D01*
X216130273Y-82538838D01*
X216094915Y-82453475D01*
X216094913Y-82453472D01*
X216094911Y-82453467D01*
X215978612Y-82252033D01*
X215978608Y-82252026D01*
X215872183Y-82113330D01*
X215837003Y-82067482D01*
X215836997Y-82067475D01*
X215672524Y-81903002D01*
X215672517Y-81902996D01*
X215487982Y-81761398D01*
X215487980Y-81761396D01*
X215487974Y-81761392D01*
X215487969Y-81761389D01*
X215487966Y-81761387D01*
X215286532Y-81645088D01*
X215286521Y-81645083D01*
X215071620Y-81556068D01*
X214947665Y-81522855D01*
X214846930Y-81495863D01*
X214795151Y-81489046D01*
X214616314Y-81465500D01*
X214616307Y-81465500D01*
X214383693Y-81465500D01*
X214383685Y-81465500D01*
X214200367Y-81489636D01*
X214153070Y-81495863D01*
X214096898Y-81510914D01*
X213928379Y-81556068D01*
X213713478Y-81645083D01*
X213713467Y-81645088D01*
X213512033Y-81761387D01*
X213512017Y-81761398D01*
X213327482Y-81902996D01*
X213327475Y-81903002D01*
X213163002Y-82067475D01*
X213162996Y-82067482D01*
X213021398Y-82252017D01*
X213021387Y-82252033D01*
X212905088Y-82453467D01*
X212905083Y-82453478D01*
X212816068Y-82668379D01*
X212783792Y-82788837D01*
X212757484Y-82887023D01*
X212755863Y-82893071D01*
X212725500Y-83123685D01*
X191400500Y-83123685D01*
X191400500Y-82520944D01*
X191398483Y-82513418D01*
X191398482Y-82513413D01*
X191388350Y-82475600D01*
X191383659Y-82458092D01*
X191359577Y-82368216D01*
X191359575Y-82368214D01*
X191357473Y-82360366D01*
X191359809Y-82359739D01*
X191353658Y-82302472D01*
X191384939Y-82239996D01*
X191445031Y-82204349D01*
X191475686Y-82200500D01*
X192913331Y-82200500D01*
X192913347Y-82200501D01*
X192920943Y-82200501D01*
X193079054Y-82200501D01*
X193079057Y-82200501D01*
X193231785Y-82159577D01*
X193281904Y-82130639D01*
X193368716Y-82080520D01*
X193480520Y-81968716D01*
X193480520Y-81968714D01*
X193490728Y-81958507D01*
X193490729Y-81958504D01*
X195212416Y-80236819D01*
X195273739Y-80203334D01*
X195300097Y-80200500D01*
X196050903Y-80200500D01*
X196117942Y-80220185D01*
X196163697Y-80272989D01*
X196173641Y-80342147D01*
X196144616Y-80405703D01*
X196138584Y-80412181D01*
X195781465Y-80769298D01*
X195720142Y-80802783D01*
X195707668Y-80804837D01*
X195620750Y-80814630D01*
X195450478Y-80874210D01*
X195297737Y-80970184D01*
X195170184Y-81097737D01*
X195074211Y-81250476D01*
X195014631Y-81420745D01*
X195014630Y-81420750D01*
X194994435Y-81599996D01*
X194994435Y-81600003D01*
X195014630Y-81779249D01*
X195014631Y-81779254D01*
X195074211Y-81949523D01*
X195170184Y-82102262D01*
X195297738Y-82229816D01*
X195450478Y-82325789D01*
X195591752Y-82375223D01*
X195620745Y-82385368D01*
X195620750Y-82385369D01*
X195799996Y-82405565D01*
X195800000Y-82405565D01*
X195800004Y-82405565D01*
X195979249Y-82385369D01*
X195979252Y-82385368D01*
X195979255Y-82385368D01*
X196149522Y-82325789D01*
X196302262Y-82229816D01*
X196429816Y-82102262D01*
X196525789Y-81949522D01*
X196585368Y-81779255D01*
X196595161Y-81692329D01*
X196622226Y-81627918D01*
X196630690Y-81618543D01*
X197217276Y-81031957D01*
X197278597Y-80998474D01*
X197318838Y-80996420D01*
X197342085Y-80999039D01*
X197399998Y-81005565D01*
X197400000Y-81005565D01*
X197400003Y-81005565D01*
X197579249Y-80985369D01*
X197579252Y-80985368D01*
X197579255Y-80985368D01*
X197749522Y-80925789D01*
X197902262Y-80829816D01*
X198029816Y-80702262D01*
X198077806Y-80625885D01*
X198130139Y-80579595D01*
X198199192Y-80568946D01*
X198214881Y-80572080D01*
X198271695Y-80587304D01*
X198320942Y-80600500D01*
X198320943Y-80600500D01*
X201006921Y-80600500D01*
X201073960Y-80620185D01*
X201119715Y-80672989D01*
X201129659Y-80742147D01*
X201111915Y-80790472D01*
X201074211Y-80850476D01*
X201014631Y-81020745D01*
X201014630Y-81020750D01*
X200994435Y-81199996D01*
X200994435Y-81200003D01*
X201014630Y-81379249D01*
X201014631Y-81379254D01*
X201074211Y-81549523D01*
X201126700Y-81633058D01*
X201170184Y-81702262D01*
X201297738Y-81829816D01*
X201450478Y-81925789D01*
X201573565Y-81968859D01*
X201620745Y-81985368D01*
X201620750Y-81985369D01*
X201799996Y-82005565D01*
X201800000Y-82005565D01*
X201800004Y-82005565D01*
X201979249Y-81985369D01*
X201979252Y-81985368D01*
X201979255Y-81985368D01*
X202149522Y-81925789D01*
X202302262Y-81829816D01*
X202429816Y-81702262D01*
X202525789Y-81549522D01*
X202585368Y-81379255D01*
X202585369Y-81379249D01*
X202601058Y-81240000D01*
X202994551Y-81240000D01*
X203014317Y-81491151D01*
X203073126Y-81736110D01*
X203169533Y-81968859D01*
X203301160Y-82183653D01*
X203301161Y-82183656D01*
X203349280Y-82239996D01*
X203464776Y-82375224D01*
X203582300Y-82475599D01*
X203656343Y-82538838D01*
X203656346Y-82538839D01*
X203871140Y-82670466D01*
X203984049Y-82717234D01*
X204103889Y-82766873D01*
X204348852Y-82825683D01*
X204600000Y-82845449D01*
X204851148Y-82825683D01*
X205096111Y-82766873D01*
X205328859Y-82670466D01*
X205543659Y-82538836D01*
X205735224Y-82375224D01*
X205898836Y-82183659D01*
X206030466Y-81968859D01*
X206126873Y-81736111D01*
X206185683Y-81491148D01*
X206199153Y-81320000D01*
X207394551Y-81320000D01*
X207414317Y-81571151D01*
X207473126Y-81816110D01*
X207569533Y-82048859D01*
X207701160Y-82263653D01*
X207701161Y-82263656D01*
X207714315Y-82279057D01*
X207864776Y-82455224D01*
X207962677Y-82538839D01*
X208056343Y-82618838D01*
X208056346Y-82618839D01*
X208271140Y-82750466D01*
X208466333Y-82831317D01*
X208503889Y-82846873D01*
X208748852Y-82905683D01*
X209000000Y-82925449D01*
X209251148Y-82905683D01*
X209496111Y-82846873D01*
X209728859Y-82750466D01*
X209943659Y-82618836D01*
X210135224Y-82455224D01*
X210298836Y-82263659D01*
X210430466Y-82048859D01*
X210526873Y-81816111D01*
X210585683Y-81571148D01*
X210605449Y-81320000D01*
X210585683Y-81068852D01*
X210526873Y-80823889D01*
X210495452Y-80748031D01*
X210430466Y-80591140D01*
X210298839Y-80376346D01*
X210298838Y-80376343D01*
X210230511Y-80296343D01*
X210135224Y-80184776D01*
X209978041Y-80050529D01*
X209943656Y-80021161D01*
X209943653Y-80021160D01*
X209728859Y-79889533D01*
X209496110Y-79793126D01*
X209251151Y-79734317D01*
X209000000Y-79714551D01*
X208748848Y-79734317D01*
X208503889Y-79793126D01*
X208271140Y-79889533D01*
X208056346Y-80021160D01*
X208056343Y-80021161D01*
X207864776Y-80184776D01*
X207701161Y-80376343D01*
X207701160Y-80376346D01*
X207569533Y-80591140D01*
X207473126Y-80823889D01*
X207414317Y-81068848D01*
X207394551Y-81320000D01*
X206199153Y-81320000D01*
X206205449Y-81240000D01*
X206185683Y-80988852D01*
X206126873Y-80743889D01*
X206087459Y-80648735D01*
X206030466Y-80511140D01*
X205898839Y-80296346D01*
X205898838Y-80296343D01*
X205859031Y-80249735D01*
X205735224Y-80104776D01*
X205608571Y-79996604D01*
X205543656Y-79941161D01*
X205543653Y-79941160D01*
X205328859Y-79809533D01*
X205096110Y-79713126D01*
X204851151Y-79654317D01*
X204600000Y-79634551D01*
X204348848Y-79654317D01*
X204103889Y-79713126D01*
X203871140Y-79809533D01*
X203656346Y-79941160D01*
X203656343Y-79941161D01*
X203464776Y-80104776D01*
X203301161Y-80296343D01*
X203301160Y-80296346D01*
X203169533Y-80511140D01*
X203073126Y-80743889D01*
X203014317Y-80988848D01*
X202994551Y-81240000D01*
X202601058Y-81240000D01*
X202605565Y-81200003D01*
X202605565Y-81199996D01*
X202585369Y-81020750D01*
X202585368Y-81020745D01*
X202551048Y-80922665D01*
X202525789Y-80850478D01*
X202503265Y-80814632D01*
X202460749Y-80746968D01*
X202429816Y-80697738D01*
X202429814Y-80697736D01*
X202429813Y-80697734D01*
X202427550Y-80694896D01*
X202426659Y-80692715D01*
X202426111Y-80691842D01*
X202426264Y-80691745D01*
X202401144Y-80630209D01*
X202400500Y-80617587D01*
X202400500Y-80320945D01*
X202400500Y-80320943D01*
X202359577Y-80168216D01*
X202338345Y-80131440D01*
X202280524Y-80031290D01*
X202280521Y-80031286D01*
X202280520Y-80031284D01*
X202168716Y-79919480D01*
X202168715Y-79919479D01*
X202164385Y-79915149D01*
X202164374Y-79915139D01*
X201887590Y-79638355D01*
X201887588Y-79638352D01*
X201768717Y-79519481D01*
X201768716Y-79519480D01*
X201681904Y-79469360D01*
X201681904Y-79469359D01*
X201681900Y-79469358D01*
X201631785Y-79440423D01*
X201479057Y-79399499D01*
X201320943Y-79399499D01*
X201313347Y-79399499D01*
X201313331Y-79399500D01*
X198700097Y-79399500D01*
X198633058Y-79379815D01*
X198612416Y-79363181D01*
X198487590Y-79238355D01*
X198487588Y-79238352D01*
X198368717Y-79119481D01*
X198368712Y-79119477D01*
X198275391Y-79065599D01*
X198231785Y-79040423D01*
X198079057Y-78999499D01*
X197920943Y-78999499D01*
X197913347Y-78999499D01*
X197913331Y-78999500D01*
X194920943Y-78999500D01*
X194768214Y-79040423D01*
X194746412Y-79053011D01*
X194724609Y-79065599D01*
X194631287Y-79119477D01*
X194631282Y-79119481D01*
X194563408Y-79187356D01*
X194519480Y-79231284D01*
X194519478Y-79231286D01*
X193645989Y-80104776D01*
X192787584Y-80963181D01*
X192726261Y-80996666D01*
X192699903Y-80999500D01*
X190686670Y-80999500D01*
X190686654Y-80999499D01*
X190679058Y-80999499D01*
X190520943Y-80999499D01*
X190444579Y-81019961D01*
X190368214Y-81040423D01*
X190368209Y-81040426D01*
X190231290Y-81119475D01*
X190231282Y-81119481D01*
X189919479Y-81431284D01*
X189902612Y-81460500D01*
X189890648Y-81481223D01*
X189840423Y-81568215D01*
X189799499Y-81720943D01*
X189799499Y-81720945D01*
X189799499Y-81889046D01*
X189799500Y-81889059D01*
X189799500Y-82113330D01*
X189799499Y-82113348D01*
X189799499Y-82279054D01*
X189799498Y-82279054D01*
X178950580Y-82279054D01*
X178949061Y-82275796D01*
X178910142Y-82192333D01*
X178783132Y-82010945D01*
X178626555Y-81854368D01*
X178445167Y-81727358D01*
X178380657Y-81697277D01*
X178321908Y-81669882D01*
X178269468Y-81623710D01*
X178250316Y-81556517D01*
X178270531Y-81489636D01*
X178321908Y-81445118D01*
X178445167Y-81387642D01*
X178626555Y-81260632D01*
X178783132Y-81104055D01*
X178910142Y-80922667D01*
X179003723Y-80721980D01*
X179061035Y-80508091D01*
X179080334Y-80287500D01*
X179079838Y-80281835D01*
X179074445Y-80220185D01*
X179061035Y-80066909D01*
X179003723Y-79853020D01*
X178910142Y-79652333D01*
X178783132Y-79470945D01*
X178626555Y-79314368D01*
X178445167Y-79187358D01*
X178445163Y-79187356D01*
X178244486Y-79093779D01*
X178244475Y-79093775D01*
X178030592Y-79036465D01*
X178030585Y-79036464D01*
X177810002Y-79017166D01*
X177809998Y-79017166D01*
X177589414Y-79036464D01*
X177589407Y-79036465D01*
X177375524Y-79093775D01*
X177375513Y-79093779D01*
X177174836Y-79187356D01*
X177174826Y-79187362D01*
X176993445Y-79314367D01*
X176993441Y-79314370D01*
X176966204Y-79341608D01*
X176904880Y-79375092D01*
X176835189Y-79370106D01*
X176790843Y-79341606D01*
X176699397Y-79250160D01*
X176699374Y-79250139D01*
X175649229Y-78199994D01*
X217716533Y-78199994D01*
X217716533Y-78200005D01*
X217736765Y-78444167D01*
X217796911Y-78681681D01*
X217895329Y-78906051D01*
X218029333Y-79111161D01*
X218036991Y-79119480D01*
X218195275Y-79291422D01*
X218195278Y-79291424D01*
X218195281Y-79291427D01*
X218388616Y-79441906D01*
X218388620Y-79441909D01*
X218603240Y-79558056D01*
X218604098Y-79558520D01*
X218604101Y-79558521D01*
X218835826Y-79638072D01*
X218835828Y-79638072D01*
X218835830Y-79638073D01*
X219077496Y-79678400D01*
X219077497Y-79678400D01*
X219322503Y-79678400D01*
X219322504Y-79678400D01*
X219564170Y-79638073D01*
X219795902Y-79558520D01*
X220011380Y-79441909D01*
X220204725Y-79291422D01*
X220370664Y-79111164D01*
X220504670Y-78906052D01*
X220603089Y-78681681D01*
X220663234Y-78444171D01*
X220678074Y-78265080D01*
X220683467Y-78200005D01*
X220683467Y-78199994D01*
X221917033Y-78199994D01*
X221917033Y-78200005D01*
X221937258Y-78444084D01*
X221997384Y-78681518D01*
X222095768Y-78905812D01*
X222192527Y-79053914D01*
X222742394Y-78504047D01*
X222758486Y-78542895D01*
X222837708Y-78661460D01*
X222938538Y-78762290D01*
X223057103Y-78841512D01*
X223095948Y-78857602D01*
X222545689Y-79407861D01*
X222545689Y-79407862D01*
X222588890Y-79441487D01*
X222588895Y-79441490D01*
X222804291Y-79558056D01*
X222804305Y-79558062D01*
X223035948Y-79637586D01*
X223277537Y-79677900D01*
X223522459Y-79677900D01*
X223764047Y-79637586D01*
X223995690Y-79558062D01*
X223995704Y-79558056D01*
X224211099Y-79441491D01*
X224211104Y-79441487D01*
X224254305Y-79407862D01*
X224254306Y-79407861D01*
X223704046Y-78857602D01*
X223742893Y-78841512D01*
X223861458Y-78762290D01*
X223962288Y-78661460D01*
X224041510Y-78542895D01*
X224057600Y-78504048D01*
X224607466Y-79053915D01*
X224704228Y-78905809D01*
X224802611Y-78681518D01*
X224862737Y-78444084D01*
X224882963Y-78200005D01*
X224882963Y-78199994D01*
X224862737Y-77955915D01*
X224802611Y-77718481D01*
X224704227Y-77494187D01*
X224607466Y-77346083D01*
X224057600Y-77895950D01*
X224041510Y-77857105D01*
X223962288Y-77738540D01*
X223861458Y-77637710D01*
X223742893Y-77558488D01*
X223704046Y-77542397D01*
X224254305Y-76992137D01*
X224254305Y-76992135D01*
X224211111Y-76958516D01*
X224211100Y-76958509D01*
X223995704Y-76841943D01*
X223995690Y-76841937D01*
X223764047Y-76762413D01*
X223522459Y-76722100D01*
X223277537Y-76722100D01*
X223035948Y-76762413D01*
X222804305Y-76841937D01*
X222804291Y-76841943D01*
X222588897Y-76958508D01*
X222545688Y-76992137D01*
X223095949Y-77542397D01*
X223057103Y-77558488D01*
X222938538Y-77637710D01*
X222837708Y-77738540D01*
X222758486Y-77857105D01*
X222742395Y-77895951D01*
X222192528Y-77346084D01*
X222095768Y-77494188D01*
X222095766Y-77494192D01*
X221997384Y-77718481D01*
X221937258Y-77955915D01*
X221917033Y-78199994D01*
X220683467Y-78199994D01*
X220665452Y-77982598D01*
X220663234Y-77955829D01*
X220603089Y-77718319D01*
X220504670Y-77493948D01*
X220493009Y-77476100D01*
X220370666Y-77288838D01*
X220349715Y-77266079D01*
X220204725Y-77108578D01*
X220204720Y-77108574D01*
X220204718Y-77108572D01*
X220011383Y-76958093D01*
X220011379Y-76958090D01*
X219795903Y-76841480D01*
X219795898Y-76841478D01*
X219564173Y-76761927D01*
X219382920Y-76731681D01*
X219322504Y-76721600D01*
X219077496Y-76721600D01*
X219029162Y-76729665D01*
X218835826Y-76761927D01*
X218604101Y-76841478D01*
X218604096Y-76841480D01*
X218388620Y-76958090D01*
X218388616Y-76958093D01*
X218195281Y-77108572D01*
X218195278Y-77108575D01*
X218029333Y-77288838D01*
X217895329Y-77493948D01*
X217796911Y-77718318D01*
X217736765Y-77955832D01*
X217716533Y-78199994D01*
X175649229Y-78199994D01*
X174887590Y-77438355D01*
X174887588Y-77438352D01*
X174768717Y-77319481D01*
X174768709Y-77319475D01*
X174676225Y-77266080D01*
X174676223Y-77266079D01*
X174631790Y-77240425D01*
X174631789Y-77240424D01*
X174619263Y-77237067D01*
X174479057Y-77199499D01*
X174320943Y-77199499D01*
X174313347Y-77199499D01*
X174313331Y-77199500D01*
X167486669Y-77199500D01*
X167486653Y-77199499D01*
X167479057Y-77199499D01*
X167320943Y-77199499D01*
X167213587Y-77228265D01*
X167168210Y-77240424D01*
X167168209Y-77240425D01*
X167123777Y-77266079D01*
X167123775Y-77266080D01*
X167031290Y-77319475D01*
X167031282Y-77319481D01*
X163319481Y-81031282D01*
X163319479Y-81031285D01*
X163314202Y-81040426D01*
X163281113Y-81097738D01*
X163240423Y-81168215D01*
X163199499Y-81320943D01*
X163199499Y-81320945D01*
X163199499Y-81489046D01*
X163199500Y-81489059D01*
X163199500Y-84017587D01*
X163179815Y-84084626D01*
X163172450Y-84094896D01*
X163170186Y-84097734D01*
X163074211Y-84250476D01*
X163014631Y-84420745D01*
X163014630Y-84420750D01*
X162994435Y-84599996D01*
X146300500Y-84599996D01*
X146300500Y-81619697D01*
X149652677Y-81619697D01*
X149652677Y-81619702D01*
X149671929Y-81839762D01*
X149671930Y-81839770D01*
X149729104Y-82053145D01*
X149729105Y-82053147D01*
X149729106Y-82053150D01*
X149783597Y-82170007D01*
X149822466Y-82253362D01*
X149822468Y-82253366D01*
X149949170Y-82434315D01*
X149949175Y-82434321D01*
X150105378Y-82590524D01*
X150105384Y-82590529D01*
X150286333Y-82717231D01*
X150286335Y-82717232D01*
X150286338Y-82717234D01*
X150486550Y-82810594D01*
X150699932Y-82867770D01*
X150857123Y-82881522D01*
X150919998Y-82887023D01*
X150920000Y-82887023D01*
X150920002Y-82887023D01*
X150975017Y-82882209D01*
X151140068Y-82867770D01*
X151353450Y-82810594D01*
X151553662Y-82717234D01*
X151734620Y-82590526D01*
X151890826Y-82434320D01*
X152017534Y-82253362D01*
X152077618Y-82124511D01*
X152123790Y-82072071D01*
X152190983Y-82052919D01*
X152257865Y-82073135D01*
X152302382Y-82124511D01*
X152362464Y-82253358D01*
X152362468Y-82253366D01*
X152489170Y-82434315D01*
X152489175Y-82434321D01*
X152645378Y-82590524D01*
X152645384Y-82590529D01*
X152826333Y-82717231D01*
X152826335Y-82717232D01*
X152826338Y-82717234D01*
X153026550Y-82810594D01*
X153239932Y-82867770D01*
X153397123Y-82881522D01*
X153459998Y-82887023D01*
X153460000Y-82887023D01*
X153460002Y-82887023D01*
X153515017Y-82882209D01*
X153680068Y-82867770D01*
X153893450Y-82810594D01*
X154093662Y-82717234D01*
X154274620Y-82590526D01*
X154430826Y-82434320D01*
X154557534Y-82253362D01*
X154617618Y-82124511D01*
X154663790Y-82072071D01*
X154730983Y-82052919D01*
X154797865Y-82073135D01*
X154842382Y-82124511D01*
X154902464Y-82253358D01*
X154902468Y-82253366D01*
X155029170Y-82434315D01*
X155029175Y-82434321D01*
X155185378Y-82590524D01*
X155185384Y-82590529D01*
X155366333Y-82717231D01*
X155366335Y-82717232D01*
X155366338Y-82717234D01*
X155566550Y-82810594D01*
X155779932Y-82867770D01*
X155937123Y-82881522D01*
X155999998Y-82887023D01*
X156000000Y-82887023D01*
X156000002Y-82887023D01*
X156055017Y-82882209D01*
X156220068Y-82867770D01*
X156433450Y-82810594D01*
X156633662Y-82717234D01*
X156814620Y-82590526D01*
X156970826Y-82434320D01*
X157097534Y-82253362D01*
X157157618Y-82124511D01*
X157203790Y-82072071D01*
X157270983Y-82052919D01*
X157337865Y-82073135D01*
X157382382Y-82124511D01*
X157442464Y-82253358D01*
X157442468Y-82253366D01*
X157569170Y-82434315D01*
X157569175Y-82434321D01*
X157725378Y-82590524D01*
X157725384Y-82590529D01*
X157906333Y-82717231D01*
X157906335Y-82717232D01*
X157906338Y-82717234D01*
X158106550Y-82810594D01*
X158319932Y-82867770D01*
X158477123Y-82881522D01*
X158539998Y-82887023D01*
X158540000Y-82887023D01*
X158540002Y-82887023D01*
X158595017Y-82882209D01*
X158760068Y-82867770D01*
X158973450Y-82810594D01*
X159173662Y-82717234D01*
X159354620Y-82590526D01*
X159510826Y-82434320D01*
X159637534Y-82253362D01*
X159697618Y-82124511D01*
X159743790Y-82072071D01*
X159810983Y-82052919D01*
X159877865Y-82073135D01*
X159922382Y-82124511D01*
X159982464Y-82253358D01*
X159982468Y-82253366D01*
X160109170Y-82434315D01*
X160109175Y-82434321D01*
X160265378Y-82590524D01*
X160265384Y-82590529D01*
X160446333Y-82717231D01*
X160446335Y-82717232D01*
X160446338Y-82717234D01*
X160646550Y-82810594D01*
X160859932Y-82867770D01*
X161017123Y-82881522D01*
X161079998Y-82887023D01*
X161080000Y-82887023D01*
X161080002Y-82887023D01*
X161135017Y-82882209D01*
X161300068Y-82867770D01*
X161513450Y-82810594D01*
X161713662Y-82717234D01*
X161894620Y-82590526D01*
X162050826Y-82434320D01*
X162177534Y-82253362D01*
X162270894Y-82053150D01*
X162328070Y-81839768D01*
X162345102Y-81645083D01*
X162347323Y-81619702D01*
X162347323Y-81619697D01*
X162335894Y-81489059D01*
X162328070Y-81399632D01*
X162270894Y-81186250D01*
X162177534Y-80986039D01*
X162082614Y-80850478D01*
X162050827Y-80805081D01*
X161973562Y-80727816D01*
X161894620Y-80648874D01*
X161894616Y-80648871D01*
X161894615Y-80648870D01*
X161713666Y-80522168D01*
X161713658Y-80522164D01*
X161584811Y-80462082D01*
X161532371Y-80415910D01*
X161513219Y-80348717D01*
X161533435Y-80281835D01*
X161584811Y-80237318D01*
X161590802Y-80234524D01*
X161713662Y-80177234D01*
X161894620Y-80050526D01*
X162050826Y-79894320D01*
X162177534Y-79713362D01*
X162270894Y-79513150D01*
X162328070Y-79299768D01*
X162346091Y-79093779D01*
X162347323Y-79079702D01*
X162347323Y-79079697D01*
X162340103Y-78997174D01*
X162328070Y-78859632D01*
X162270894Y-78646250D01*
X162177534Y-78446039D01*
X162050826Y-78265080D01*
X161894620Y-78108874D01*
X161894616Y-78108871D01*
X161894615Y-78108870D01*
X161713666Y-77982168D01*
X161713662Y-77982166D01*
X161657182Y-77955829D01*
X161513450Y-77888806D01*
X161513447Y-77888805D01*
X161513445Y-77888804D01*
X161300070Y-77831630D01*
X161300062Y-77831629D01*
X161080002Y-77812377D01*
X161079998Y-77812377D01*
X160859937Y-77831629D01*
X160859929Y-77831630D01*
X160646554Y-77888804D01*
X160646548Y-77888807D01*
X160446340Y-77982165D01*
X160446338Y-77982166D01*
X160265377Y-78108875D01*
X160109175Y-78265077D01*
X159982466Y-78446038D01*
X159982465Y-78446040D01*
X159922382Y-78574889D01*
X159876209Y-78627328D01*
X159809016Y-78646480D01*
X159742135Y-78626264D01*
X159697618Y-78574889D01*
X159637651Y-78446290D01*
X159637534Y-78446039D01*
X159510826Y-78265080D01*
X159354620Y-78108874D01*
X159354616Y-78108871D01*
X159354615Y-78108870D01*
X159173666Y-77982168D01*
X159173662Y-77982166D01*
X159117182Y-77955829D01*
X158973450Y-77888806D01*
X158973447Y-77888805D01*
X158973445Y-77888804D01*
X158760070Y-77831630D01*
X158760062Y-77831629D01*
X158540002Y-77812377D01*
X158539998Y-77812377D01*
X158319937Y-77831629D01*
X158319929Y-77831630D01*
X158106554Y-77888804D01*
X158106548Y-77888807D01*
X157906340Y-77982165D01*
X157906338Y-77982166D01*
X157725377Y-78108875D01*
X157569175Y-78265077D01*
X157442466Y-78446038D01*
X157442465Y-78446040D01*
X157382382Y-78574889D01*
X157336209Y-78627328D01*
X157269016Y-78646480D01*
X157202135Y-78626264D01*
X157157618Y-78574889D01*
X157097651Y-78446290D01*
X157097534Y-78446039D01*
X156970826Y-78265080D01*
X156814620Y-78108874D01*
X156814616Y-78108871D01*
X156814615Y-78108870D01*
X156633666Y-77982168D01*
X156633662Y-77982166D01*
X156577182Y-77955829D01*
X156433450Y-77888806D01*
X156433447Y-77888805D01*
X156433445Y-77888804D01*
X156220070Y-77831630D01*
X156220062Y-77831629D01*
X156000002Y-77812377D01*
X155999998Y-77812377D01*
X155779937Y-77831629D01*
X155779929Y-77831630D01*
X155566554Y-77888804D01*
X155566548Y-77888807D01*
X155366340Y-77982165D01*
X155366338Y-77982166D01*
X155185377Y-78108875D01*
X155029175Y-78265077D01*
X154902466Y-78446038D01*
X154902465Y-78446040D01*
X154842382Y-78574889D01*
X154796209Y-78627328D01*
X154729016Y-78646480D01*
X154662135Y-78626264D01*
X154617618Y-78574889D01*
X154557651Y-78446290D01*
X154557534Y-78446039D01*
X154430826Y-78265080D01*
X154274620Y-78108874D01*
X154274616Y-78108871D01*
X154274615Y-78108870D01*
X154093666Y-77982168D01*
X154093662Y-77982166D01*
X154037182Y-77955829D01*
X153893450Y-77888806D01*
X153893447Y-77888805D01*
X153893445Y-77888804D01*
X153680070Y-77831630D01*
X153680062Y-77831629D01*
X153460002Y-77812377D01*
X153459998Y-77812377D01*
X153239937Y-77831629D01*
X153239929Y-77831630D01*
X153026554Y-77888804D01*
X153026548Y-77888807D01*
X152826340Y-77982165D01*
X152826338Y-77982166D01*
X152645377Y-78108875D01*
X152489175Y-78265077D01*
X152362467Y-78446037D01*
X152302105Y-78575482D01*
X152255932Y-78627921D01*
X152188738Y-78647072D01*
X152121857Y-78626856D01*
X152077341Y-78575480D01*
X152017098Y-78446289D01*
X152017097Y-78446287D01*
X151971741Y-78381511D01*
X151971740Y-78381510D01*
X151409494Y-78943756D01*
X151393381Y-78883619D01*
X151326502Y-78767780D01*
X151231920Y-78673198D01*
X151116081Y-78606319D01*
X151055941Y-78590204D01*
X151618188Y-78027958D01*
X151553411Y-77982601D01*
X151553405Y-77982598D01*
X151353284Y-77889280D01*
X151353270Y-77889275D01*
X151139986Y-77832126D01*
X151139976Y-77832124D01*
X150920001Y-77812879D01*
X150919999Y-77812879D01*
X150700023Y-77832124D01*
X150700013Y-77832126D01*
X150486729Y-77889275D01*
X150486720Y-77889279D01*
X150286590Y-77982601D01*
X150221811Y-78027958D01*
X150784058Y-78590204D01*
X150723919Y-78606319D01*
X150608080Y-78673198D01*
X150513498Y-78767780D01*
X150446619Y-78883619D01*
X150430504Y-78943757D01*
X149868258Y-78381511D01*
X149822901Y-78446290D01*
X149729579Y-78646420D01*
X149729575Y-78646429D01*
X149672426Y-78859713D01*
X149672424Y-78859723D01*
X149653179Y-79079699D01*
X149653179Y-79079700D01*
X149672424Y-79299676D01*
X149672426Y-79299686D01*
X149729575Y-79512970D01*
X149729580Y-79512984D01*
X149822898Y-79713105D01*
X149822901Y-79713111D01*
X149868258Y-79777887D01*
X149868258Y-79777888D01*
X150430504Y-79215641D01*
X150446619Y-79275781D01*
X150513498Y-79391620D01*
X150608080Y-79486202D01*
X150723919Y-79553081D01*
X150784057Y-79569194D01*
X150221810Y-80131440D01*
X150286589Y-80176798D01*
X150415781Y-80237042D01*
X150468220Y-80283214D01*
X150487372Y-80350408D01*
X150467156Y-80417289D01*
X150415781Y-80461806D01*
X150286340Y-80522165D01*
X150286338Y-80522166D01*
X150105377Y-80648875D01*
X149949175Y-80805077D01*
X149822466Y-80986038D01*
X149822465Y-80986040D01*
X149729107Y-81186248D01*
X149729104Y-81186254D01*
X149671930Y-81399629D01*
X149671929Y-81399637D01*
X149652677Y-81619697D01*
X146300500Y-81619697D01*
X146300500Y-74701504D01*
X195080000Y-74701504D01*
X195080000Y-75050000D01*
X195830000Y-75050000D01*
X195830000Y-75550000D01*
X195080000Y-75550000D01*
X195080000Y-75898495D01*
X195118427Y-76091681D01*
X195118430Y-76091693D01*
X195193807Y-76273671D01*
X195193814Y-76273684D01*
X195303248Y-76437462D01*
X195303251Y-76437466D01*
X195442533Y-76576748D01*
X195442537Y-76576751D01*
X195606315Y-76686185D01*
X195606328Y-76686192D01*
X195788308Y-76761569D01*
X195830000Y-76769862D01*
X195830000Y-75699728D01*
X195868060Y-75791614D01*
X195938386Y-75861940D01*
X196030272Y-75900000D01*
X196129728Y-75900000D01*
X196221614Y-75861940D01*
X196291940Y-75791614D01*
X196330000Y-75699728D01*
X196330000Y-76769862D01*
X196371690Y-76761569D01*
X196371692Y-76761569D01*
X196553671Y-76686192D01*
X196553684Y-76686185D01*
X196717462Y-76576751D01*
X196717466Y-76576748D01*
X196856748Y-76437466D01*
X196856751Y-76437462D01*
X196966185Y-76273684D01*
X196966192Y-76273671D01*
X197041569Y-76091693D01*
X197041572Y-76091681D01*
X197079999Y-75898495D01*
X197080000Y-75898492D01*
X197080000Y-75550000D01*
X196330000Y-75550000D01*
X196330000Y-75050000D01*
X197080000Y-75050000D01*
X197080000Y-74701508D01*
X197079999Y-74701504D01*
X203720000Y-74701504D01*
X203720000Y-75050000D01*
X204470000Y-75050000D01*
X204470000Y-75550000D01*
X203720000Y-75550000D01*
X203720000Y-75898495D01*
X203758427Y-76091681D01*
X203758430Y-76091693D01*
X203833807Y-76273671D01*
X203833814Y-76273684D01*
X203943248Y-76437462D01*
X203943251Y-76437466D01*
X204082533Y-76576748D01*
X204082537Y-76576751D01*
X204246315Y-76686185D01*
X204246328Y-76686192D01*
X204428308Y-76761569D01*
X204470000Y-76769862D01*
X204470000Y-75699728D01*
X204508060Y-75791614D01*
X204578386Y-75861940D01*
X204670272Y-75900000D01*
X204769728Y-75900000D01*
X204861614Y-75861940D01*
X204931940Y-75791614D01*
X204970000Y-75699728D01*
X204970000Y-76769862D01*
X205011690Y-76761569D01*
X205011692Y-76761569D01*
X205193671Y-76686192D01*
X205193684Y-76686185D01*
X205357462Y-76576751D01*
X205357466Y-76576748D01*
X205496748Y-76437466D01*
X205496751Y-76437462D01*
X205606185Y-76273684D01*
X205606192Y-76273671D01*
X205681569Y-76091693D01*
X205681572Y-76091681D01*
X205719999Y-75898495D01*
X205720000Y-75898492D01*
X205720000Y-75550000D01*
X204970000Y-75550000D01*
X204970000Y-75050000D01*
X205720000Y-75050000D01*
X205720000Y-74701508D01*
X205719999Y-74701504D01*
X205681572Y-74508318D01*
X205681569Y-74508306D01*
X205606192Y-74326328D01*
X205606185Y-74326315D01*
X205496751Y-74162537D01*
X205496748Y-74162533D01*
X205357466Y-74023251D01*
X205357462Y-74023248D01*
X205193684Y-73913814D01*
X205193671Y-73913807D01*
X205011691Y-73838429D01*
X205011683Y-73838427D01*
X204970000Y-73830135D01*
X204970000Y-74900272D01*
X204931940Y-74808386D01*
X204861614Y-74738060D01*
X204769728Y-74700000D01*
X204670272Y-74700000D01*
X204578386Y-74738060D01*
X204508060Y-74808386D01*
X204470000Y-74900272D01*
X204470000Y-73830136D01*
X204469999Y-73830135D01*
X204428316Y-73838427D01*
X204428308Y-73838429D01*
X204246328Y-73913807D01*
X204246315Y-73913814D01*
X204082537Y-74023248D01*
X204082533Y-74023251D01*
X203943251Y-74162533D01*
X203943248Y-74162537D01*
X203833814Y-74326315D01*
X203833807Y-74326328D01*
X203758430Y-74508306D01*
X203758427Y-74508318D01*
X203720000Y-74701504D01*
X197079999Y-74701504D01*
X197041572Y-74508318D01*
X197041569Y-74508306D01*
X196966192Y-74326328D01*
X196966185Y-74326315D01*
X196856751Y-74162537D01*
X196856748Y-74162533D01*
X196717466Y-74023251D01*
X196717462Y-74023248D01*
X196553684Y-73913814D01*
X196553671Y-73913807D01*
X196371691Y-73838429D01*
X196371683Y-73838427D01*
X196330000Y-73830135D01*
X196330000Y-74900272D01*
X196291940Y-74808386D01*
X196221614Y-74738060D01*
X196129728Y-74700000D01*
X196030272Y-74700000D01*
X195938386Y-74738060D01*
X195868060Y-74808386D01*
X195830000Y-74900272D01*
X195830000Y-73830136D01*
X195829999Y-73830135D01*
X195788316Y-73838427D01*
X195788308Y-73838429D01*
X195606328Y-73913807D01*
X195606315Y-73913814D01*
X195442537Y-74023248D01*
X195442533Y-74023251D01*
X195303251Y-74162533D01*
X195303248Y-74162537D01*
X195193814Y-74326315D01*
X195193807Y-74326328D01*
X195118430Y-74508306D01*
X195118427Y-74508318D01*
X195080000Y-74701504D01*
X146300500Y-74701504D01*
X146300500Y-72599998D01*
X186014532Y-72599998D01*
X186014532Y-72600001D01*
X186034364Y-72826686D01*
X186034366Y-72826697D01*
X186093258Y-73046488D01*
X186093261Y-73046497D01*
X186189431Y-73252732D01*
X186189432Y-73252734D01*
X186319954Y-73439141D01*
X186480858Y-73600045D01*
X186480861Y-73600047D01*
X186667266Y-73730568D01*
X186873504Y-73826739D01*
X186873509Y-73826740D01*
X186873511Y-73826741D01*
X186917124Y-73838427D01*
X187093308Y-73885635D01*
X187255230Y-73899801D01*
X187319998Y-73905468D01*
X187320000Y-73905468D01*
X187320002Y-73905468D01*
X187376673Y-73900509D01*
X187546692Y-73885635D01*
X187766496Y-73826739D01*
X187972734Y-73730568D01*
X188159139Y-73600047D01*
X188320047Y-73439139D01*
X188385278Y-73345977D01*
X188439854Y-73302353D01*
X188509352Y-73295159D01*
X188571707Y-73326681D01*
X188607122Y-73386911D01*
X188610143Y-73403847D01*
X188615909Y-73457483D01*
X188666202Y-73592328D01*
X188666206Y-73592335D01*
X188752452Y-73707544D01*
X188752455Y-73707547D01*
X188867664Y-73793793D01*
X188867671Y-73793797D01*
X189002517Y-73844091D01*
X189002516Y-73844091D01*
X189009444Y-73844835D01*
X189062127Y-73850500D01*
X190657872Y-73850499D01*
X190717483Y-73844091D01*
X190852331Y-73793796D01*
X190967546Y-73707546D01*
X191053796Y-73592331D01*
X191104091Y-73457483D01*
X191109858Y-73403842D01*
X191136593Y-73339296D01*
X191193985Y-73299447D01*
X191263810Y-73296952D01*
X191323900Y-73332604D01*
X191334721Y-73345978D01*
X191399954Y-73439141D01*
X191560858Y-73600045D01*
X191560861Y-73600047D01*
X191747266Y-73730568D01*
X191953504Y-73826739D01*
X191953509Y-73826740D01*
X191953511Y-73826741D01*
X191997124Y-73838427D01*
X192173308Y-73885635D01*
X192335230Y-73899801D01*
X192399998Y-73905468D01*
X192400000Y-73905468D01*
X192400002Y-73905468D01*
X192456673Y-73900509D01*
X192626692Y-73885635D01*
X192846496Y-73826739D01*
X193052734Y-73730568D01*
X193239139Y-73600047D01*
X193400047Y-73439139D01*
X193530568Y-73252734D01*
X193626739Y-73046496D01*
X193685635Y-72826692D01*
X193705468Y-72600000D01*
X193685635Y-72373308D01*
X193626739Y-72153504D01*
X193530568Y-71947266D01*
X193400047Y-71760861D01*
X193400045Y-71760858D01*
X193239141Y-71599954D01*
X193052734Y-71469432D01*
X193052732Y-71469431D01*
X192846497Y-71373261D01*
X192846488Y-71373258D01*
X192626697Y-71314366D01*
X192626693Y-71314365D01*
X192626692Y-71314365D01*
X192626691Y-71314364D01*
X192626686Y-71314364D01*
X192400002Y-71294532D01*
X192399998Y-71294532D01*
X192173313Y-71314364D01*
X192173302Y-71314366D01*
X191953511Y-71373258D01*
X191953502Y-71373261D01*
X191747267Y-71469431D01*
X191747265Y-71469432D01*
X191560858Y-71599954D01*
X191399956Y-71760856D01*
X191334721Y-71854022D01*
X191280144Y-71897646D01*
X191210645Y-71904839D01*
X191148291Y-71873317D01*
X191112877Y-71813087D01*
X191109856Y-71796150D01*
X191104091Y-71742516D01*
X191053797Y-71607671D01*
X191053793Y-71607664D01*
X190967547Y-71492455D01*
X190967544Y-71492452D01*
X190852335Y-71406206D01*
X190852328Y-71406202D01*
X190717482Y-71355908D01*
X190717483Y-71355908D01*
X190657883Y-71349501D01*
X190657881Y-71349500D01*
X190657873Y-71349500D01*
X190657864Y-71349500D01*
X189062129Y-71349500D01*
X189062123Y-71349501D01*
X189002516Y-71355908D01*
X188867671Y-71406202D01*
X188867664Y-71406206D01*
X188752455Y-71492452D01*
X188752452Y-71492455D01*
X188666206Y-71607664D01*
X188666202Y-71607671D01*
X188615908Y-71742516D01*
X188610142Y-71796154D01*
X188583404Y-71860705D01*
X188526012Y-71900553D01*
X188456186Y-71903046D01*
X188396098Y-71867393D01*
X188385278Y-71854021D01*
X188320045Y-71760858D01*
X188159141Y-71599954D01*
X187972734Y-71469432D01*
X187972732Y-71469431D01*
X187766497Y-71373261D01*
X187766488Y-71373258D01*
X187546697Y-71314366D01*
X187546693Y-71314365D01*
X187546692Y-71314365D01*
X187546691Y-71314364D01*
X187546686Y-71314364D01*
X187320002Y-71294532D01*
X187319998Y-71294532D01*
X187093313Y-71314364D01*
X187093302Y-71314366D01*
X186873511Y-71373258D01*
X186873502Y-71373261D01*
X186667267Y-71469431D01*
X186667265Y-71469432D01*
X186480858Y-71599954D01*
X186319954Y-71760858D01*
X186189432Y-71947265D01*
X186189431Y-71947267D01*
X186093261Y-72153502D01*
X186093258Y-72153511D01*
X186034366Y-72373302D01*
X186034364Y-72373313D01*
X186014532Y-72599998D01*
X146300500Y-72599998D01*
X146300500Y-70901504D01*
X195080000Y-70901504D01*
X195080000Y-71250000D01*
X195830000Y-71250000D01*
X195830000Y-71750000D01*
X195080000Y-71750000D01*
X195080000Y-72098495D01*
X195118427Y-72291681D01*
X195118430Y-72291693D01*
X195193807Y-72473671D01*
X195193814Y-72473684D01*
X195303248Y-72637462D01*
X195303251Y-72637466D01*
X195442533Y-72776748D01*
X195442537Y-72776751D01*
X195606315Y-72886185D01*
X195606328Y-72886192D01*
X195788308Y-72961569D01*
X195830000Y-72969862D01*
X195830000Y-71899728D01*
X195868060Y-71991614D01*
X195938386Y-72061940D01*
X196030272Y-72100000D01*
X196129728Y-72100000D01*
X196221614Y-72061940D01*
X196291940Y-71991614D01*
X196330000Y-71899728D01*
X196330000Y-72969862D01*
X196371690Y-72961569D01*
X196371692Y-72961569D01*
X196553671Y-72886192D01*
X196553684Y-72886185D01*
X196717462Y-72776751D01*
X196717466Y-72776748D01*
X196856748Y-72637466D01*
X196856751Y-72637462D01*
X196966185Y-72473684D01*
X196966192Y-72473671D01*
X197041569Y-72291693D01*
X197041572Y-72291681D01*
X197079999Y-72098495D01*
X197080000Y-72098492D01*
X197080000Y-71750000D01*
X196330000Y-71750000D01*
X196330000Y-71250000D01*
X197080000Y-71250000D01*
X197080000Y-70901508D01*
X197079999Y-70901504D01*
X203720000Y-70901504D01*
X203720000Y-71250000D01*
X204470000Y-71250000D01*
X204470000Y-71750000D01*
X203720000Y-71750000D01*
X203720000Y-72098495D01*
X203758427Y-72291681D01*
X203758430Y-72291693D01*
X203833807Y-72473671D01*
X203833814Y-72473684D01*
X203943248Y-72637462D01*
X203943251Y-72637466D01*
X204082533Y-72776748D01*
X204082537Y-72776751D01*
X204246315Y-72886185D01*
X204246328Y-72886192D01*
X204428308Y-72961569D01*
X204470000Y-72969862D01*
X204470000Y-71899728D01*
X204508060Y-71991614D01*
X204578386Y-72061940D01*
X204670272Y-72100000D01*
X204769728Y-72100000D01*
X204861614Y-72061940D01*
X204931940Y-71991614D01*
X204970000Y-71899728D01*
X204970000Y-72969862D01*
X205011690Y-72961569D01*
X205011692Y-72961569D01*
X205193671Y-72886192D01*
X205193684Y-72886185D01*
X205357462Y-72776751D01*
X205357466Y-72776748D01*
X205496748Y-72637466D01*
X205496751Y-72637462D01*
X205521784Y-72599998D01*
X207414532Y-72599998D01*
X207414532Y-72600001D01*
X207434364Y-72826686D01*
X207434366Y-72826697D01*
X207493258Y-73046488D01*
X207493261Y-73046497D01*
X207589431Y-73252732D01*
X207589432Y-73252734D01*
X207719954Y-73439141D01*
X207880858Y-73600045D01*
X207880861Y-73600047D01*
X208067266Y-73730568D01*
X208273504Y-73826739D01*
X208273509Y-73826740D01*
X208273511Y-73826741D01*
X208317124Y-73838427D01*
X208493308Y-73885635D01*
X208655230Y-73899801D01*
X208719998Y-73905468D01*
X208720000Y-73905468D01*
X208720002Y-73905468D01*
X208776673Y-73900509D01*
X208946692Y-73885635D01*
X209166496Y-73826739D01*
X209372734Y-73730568D01*
X209559139Y-73600047D01*
X209720047Y-73439139D01*
X209785278Y-73345977D01*
X209839854Y-73302353D01*
X209909352Y-73295159D01*
X209971707Y-73326681D01*
X210007122Y-73386911D01*
X210010143Y-73403847D01*
X210015909Y-73457483D01*
X210066202Y-73592328D01*
X210066206Y-73592335D01*
X210152452Y-73707544D01*
X210152455Y-73707547D01*
X210267664Y-73793793D01*
X210267671Y-73793797D01*
X210402517Y-73844091D01*
X210402516Y-73844091D01*
X210409444Y-73844835D01*
X210462127Y-73850500D01*
X212057872Y-73850499D01*
X212117483Y-73844091D01*
X212252331Y-73793796D01*
X212367546Y-73707546D01*
X212453796Y-73592331D01*
X212504091Y-73457483D01*
X212509858Y-73403842D01*
X212536593Y-73339296D01*
X212593985Y-73299447D01*
X212663810Y-73296952D01*
X212723900Y-73332604D01*
X212734721Y-73345978D01*
X212799954Y-73439141D01*
X212960858Y-73600045D01*
X212960861Y-73600047D01*
X213147266Y-73730568D01*
X213353504Y-73826739D01*
X213353509Y-73826740D01*
X213353511Y-73826741D01*
X213397124Y-73838427D01*
X213573308Y-73885635D01*
X213735230Y-73899801D01*
X213799998Y-73905468D01*
X213800000Y-73905468D01*
X213800002Y-73905468D01*
X213856673Y-73900509D01*
X214026692Y-73885635D01*
X214246496Y-73826739D01*
X214452734Y-73730568D01*
X214639139Y-73600047D01*
X214800047Y-73439139D01*
X214930568Y-73252734D01*
X215026739Y-73046496D01*
X215085635Y-72826692D01*
X215105468Y-72600000D01*
X215085635Y-72373308D01*
X215026739Y-72153504D01*
X214991862Y-72078711D01*
X225149500Y-72078711D01*
X225149500Y-72321288D01*
X225181161Y-72561785D01*
X225243947Y-72796104D01*
X225281260Y-72886185D01*
X225336776Y-73020212D01*
X225458064Y-73230289D01*
X225458066Y-73230292D01*
X225458067Y-73230293D01*
X225605733Y-73422736D01*
X225605739Y-73422743D01*
X225777256Y-73594260D01*
X225777263Y-73594266D01*
X225784797Y-73600047D01*
X225969711Y-73741936D01*
X226179788Y-73863224D01*
X226403900Y-73956054D01*
X226638211Y-74018838D01*
X226818586Y-74042584D01*
X226878711Y-74050500D01*
X226878712Y-74050500D01*
X227121289Y-74050500D01*
X227169388Y-74044167D01*
X227361789Y-74018838D01*
X227596100Y-73956054D01*
X227820212Y-73863224D01*
X228030289Y-73741936D01*
X228222738Y-73594265D01*
X228394265Y-73422738D01*
X228541936Y-73230289D01*
X228663224Y-73020212D01*
X228756054Y-72796100D01*
X228818838Y-72561789D01*
X228850500Y-72321288D01*
X228850500Y-72078712D01*
X228818838Y-71838211D01*
X228756054Y-71603900D01*
X228663224Y-71379788D01*
X228541936Y-71169711D01*
X228394265Y-70977262D01*
X228394260Y-70977256D01*
X228222743Y-70805739D01*
X228222736Y-70805733D01*
X228030293Y-70658067D01*
X228030292Y-70658066D01*
X228030289Y-70658064D01*
X227820212Y-70536776D01*
X227820205Y-70536773D01*
X227596104Y-70443947D01*
X227361785Y-70381161D01*
X227121289Y-70349500D01*
X227121288Y-70349500D01*
X226878712Y-70349500D01*
X226878711Y-70349500D01*
X226638214Y-70381161D01*
X226403895Y-70443947D01*
X226179794Y-70536773D01*
X226179785Y-70536777D01*
X225969706Y-70658067D01*
X225777263Y-70805733D01*
X225777256Y-70805739D01*
X225605739Y-70977256D01*
X225605733Y-70977263D01*
X225458067Y-71169706D01*
X225336777Y-71379785D01*
X225336773Y-71379794D01*
X225243947Y-71603895D01*
X225181161Y-71838214D01*
X225149500Y-72078711D01*
X214991862Y-72078711D01*
X214930568Y-71947266D01*
X214800047Y-71760861D01*
X214800045Y-71760858D01*
X214639141Y-71599954D01*
X214452734Y-71469432D01*
X214452732Y-71469431D01*
X214246497Y-71373261D01*
X214246488Y-71373258D01*
X214026697Y-71314366D01*
X214026693Y-71314365D01*
X214026692Y-71314365D01*
X214026691Y-71314364D01*
X214026686Y-71314364D01*
X213800002Y-71294532D01*
X213799998Y-71294532D01*
X213573313Y-71314364D01*
X213573302Y-71314366D01*
X213353511Y-71373258D01*
X213353502Y-71373261D01*
X213147267Y-71469431D01*
X213147265Y-71469432D01*
X212960858Y-71599954D01*
X212799956Y-71760856D01*
X212734721Y-71854022D01*
X212680144Y-71897646D01*
X212610645Y-71904839D01*
X212548291Y-71873317D01*
X212512877Y-71813087D01*
X212509856Y-71796150D01*
X212504091Y-71742516D01*
X212453797Y-71607671D01*
X212453793Y-71607664D01*
X212367547Y-71492455D01*
X212367544Y-71492452D01*
X212252335Y-71406206D01*
X212252328Y-71406202D01*
X212117482Y-71355908D01*
X212117483Y-71355908D01*
X212057883Y-71349501D01*
X212057881Y-71349500D01*
X212057873Y-71349500D01*
X212057864Y-71349500D01*
X210462129Y-71349500D01*
X210462123Y-71349501D01*
X210402516Y-71355908D01*
X210267671Y-71406202D01*
X210267664Y-71406206D01*
X210152455Y-71492452D01*
X210152452Y-71492455D01*
X210066206Y-71607664D01*
X210066202Y-71607671D01*
X210015908Y-71742516D01*
X210010142Y-71796154D01*
X209983404Y-71860705D01*
X209926012Y-71900553D01*
X209856186Y-71903046D01*
X209796098Y-71867393D01*
X209785278Y-71854021D01*
X209720045Y-71760858D01*
X209559141Y-71599954D01*
X209372734Y-71469432D01*
X209372732Y-71469431D01*
X209166497Y-71373261D01*
X209166488Y-71373258D01*
X208946697Y-71314366D01*
X208946693Y-71314365D01*
X208946692Y-71314365D01*
X208946691Y-71314364D01*
X208946686Y-71314364D01*
X208720002Y-71294532D01*
X208719998Y-71294532D01*
X208493313Y-71314364D01*
X208493302Y-71314366D01*
X208273511Y-71373258D01*
X208273502Y-71373261D01*
X208067267Y-71469431D01*
X208067265Y-71469432D01*
X207880858Y-71599954D01*
X207719954Y-71760858D01*
X207589432Y-71947265D01*
X207589431Y-71947267D01*
X207493261Y-72153502D01*
X207493258Y-72153511D01*
X207434366Y-72373302D01*
X207434364Y-72373313D01*
X207414532Y-72599998D01*
X205521784Y-72599998D01*
X205606185Y-72473684D01*
X205606192Y-72473671D01*
X205681569Y-72291693D01*
X205681572Y-72291681D01*
X205719999Y-72098495D01*
X205720000Y-72098492D01*
X205720000Y-71750000D01*
X204970000Y-71750000D01*
X204970000Y-71250000D01*
X205720000Y-71250000D01*
X205720000Y-70901508D01*
X205719999Y-70901504D01*
X205681572Y-70708318D01*
X205681569Y-70708306D01*
X205606192Y-70526328D01*
X205606185Y-70526315D01*
X205496751Y-70362537D01*
X205496748Y-70362533D01*
X205357466Y-70223251D01*
X205357462Y-70223248D01*
X205193684Y-70113814D01*
X205193671Y-70113807D01*
X205011691Y-70038429D01*
X205011683Y-70038427D01*
X204970000Y-70030135D01*
X204970000Y-71100272D01*
X204931940Y-71008386D01*
X204861614Y-70938060D01*
X204769728Y-70900000D01*
X204670272Y-70900000D01*
X204578386Y-70938060D01*
X204508060Y-71008386D01*
X204470000Y-71100272D01*
X204470000Y-70030136D01*
X204469999Y-70030135D01*
X204428316Y-70038427D01*
X204428308Y-70038429D01*
X204246328Y-70113807D01*
X204246315Y-70113814D01*
X204082537Y-70223248D01*
X204082533Y-70223251D01*
X203943251Y-70362533D01*
X203943248Y-70362537D01*
X203833814Y-70526315D01*
X203833807Y-70526328D01*
X203758430Y-70708306D01*
X203758427Y-70708318D01*
X203720000Y-70901504D01*
X197079999Y-70901504D01*
X197041572Y-70708318D01*
X197041569Y-70708306D01*
X196966192Y-70526328D01*
X196966185Y-70526315D01*
X196856751Y-70362537D01*
X196856748Y-70362533D01*
X196717466Y-70223251D01*
X196717462Y-70223248D01*
X196553684Y-70113814D01*
X196553671Y-70113807D01*
X196371691Y-70038429D01*
X196371683Y-70038427D01*
X196330000Y-70030135D01*
X196330000Y-71100272D01*
X196291940Y-71008386D01*
X196221614Y-70938060D01*
X196129728Y-70900000D01*
X196030272Y-70900000D01*
X195938386Y-70938060D01*
X195868060Y-71008386D01*
X195830000Y-71100272D01*
X195830000Y-70030136D01*
X195829999Y-70030135D01*
X195788316Y-70038427D01*
X195788308Y-70038429D01*
X195606328Y-70113807D01*
X195606315Y-70113814D01*
X195442537Y-70223248D01*
X195442533Y-70223251D01*
X195303251Y-70362533D01*
X195303248Y-70362537D01*
X195193814Y-70526315D01*
X195193807Y-70526328D01*
X195118430Y-70708306D01*
X195118427Y-70708318D01*
X195080000Y-70901504D01*
X146300500Y-70901504D01*
X146300500Y-69224500D01*
X146320185Y-69157461D01*
X146372989Y-69111706D01*
X146424500Y-69100500D01*
X230775500Y-69100500D01*
X230842539Y-69120185D01*
G37*
%TD.AperFunction*%
%TD*%
M02*
