%TF.GenerationSoftware,KiCad,Pcbnew,8.0.8*%
%TF.CreationDate,2025-03-13T10:44:28-05:00*%
%TF.ProjectId,Final Project V1,46696e61-6c20-4507-926f-6a6563742056,rev?*%
%TF.SameCoordinates,Original*%
%TF.FileFunction,Legend,Top*%
%TF.FilePolarity,Positive*%
%FSLAX46Y46*%
G04 Gerber Fmt 4.6, Leading zero omitted, Abs format (unit mm)*
G04 Created by KiCad (PCBNEW 8.0.8) date 2025-03-13 10:44:28*
%MOMM*%
%LPD*%
G01*
G04 APERTURE LIST*
%ADD10C,0.200000*%
%ADD11C,0.150000*%
%ADD12C,0.127000*%
%ADD13C,0.120000*%
%ADD14C,0.152400*%
%ADD15C,0.508000*%
%ADD16C,0.400000*%
G04 APERTURE END LIST*
D10*
X152322054Y-123009656D02*
X152464911Y-123057275D01*
X152464911Y-123057275D02*
X152703006Y-123057275D01*
X152703006Y-123057275D02*
X152798244Y-123009656D01*
X152798244Y-123009656D02*
X152845863Y-122962036D01*
X152845863Y-122962036D02*
X152893482Y-122866798D01*
X152893482Y-122866798D02*
X152893482Y-122771560D01*
X152893482Y-122771560D02*
X152845863Y-122676322D01*
X152845863Y-122676322D02*
X152798244Y-122628703D01*
X152798244Y-122628703D02*
X152703006Y-122581084D01*
X152703006Y-122581084D02*
X152512530Y-122533465D01*
X152512530Y-122533465D02*
X152417292Y-122485846D01*
X152417292Y-122485846D02*
X152369673Y-122438227D01*
X152369673Y-122438227D02*
X152322054Y-122342989D01*
X152322054Y-122342989D02*
X152322054Y-122247751D01*
X152322054Y-122247751D02*
X152369673Y-122152513D01*
X152369673Y-122152513D02*
X152417292Y-122104894D01*
X152417292Y-122104894D02*
X152512530Y-122057275D01*
X152512530Y-122057275D02*
X152750625Y-122057275D01*
X152750625Y-122057275D02*
X152893482Y-122104894D01*
X153274435Y-122771560D02*
X153750625Y-122771560D01*
X153179197Y-123057275D02*
X153512530Y-122057275D01*
X153512530Y-122057275D02*
X153845863Y-123057275D01*
X154512530Y-122533465D02*
X154179197Y-122533465D01*
X154179197Y-123057275D02*
X154179197Y-122057275D01*
X154179197Y-122057275D02*
X154655387Y-122057275D01*
X155369673Y-122533465D02*
X155036340Y-122533465D01*
X155036340Y-123057275D02*
X155036340Y-122057275D01*
X155036340Y-122057275D02*
X155512530Y-122057275D01*
X152369673Y-124667219D02*
X152369673Y-123667219D01*
X152369673Y-123667219D02*
X152703006Y-124381504D01*
X152703006Y-124381504D02*
X153036339Y-123667219D01*
X153036339Y-123667219D02*
X153036339Y-124667219D01*
X153941101Y-124667219D02*
X153941101Y-124143409D01*
X153941101Y-124143409D02*
X153893482Y-124048171D01*
X153893482Y-124048171D02*
X153798244Y-124000552D01*
X153798244Y-124000552D02*
X153607768Y-124000552D01*
X153607768Y-124000552D02*
X153512530Y-124048171D01*
X153941101Y-124619600D02*
X153845863Y-124667219D01*
X153845863Y-124667219D02*
X153607768Y-124667219D01*
X153607768Y-124667219D02*
X153512530Y-124619600D01*
X153512530Y-124619600D02*
X153464911Y-124524361D01*
X153464911Y-124524361D02*
X153464911Y-124429123D01*
X153464911Y-124429123D02*
X153512530Y-124333885D01*
X153512530Y-124333885D02*
X153607768Y-124286266D01*
X153607768Y-124286266D02*
X153845863Y-124286266D01*
X153845863Y-124286266D02*
X153941101Y-124238647D01*
X154417292Y-124667219D02*
X154417292Y-124000552D01*
X154417292Y-123667219D02*
X154369673Y-123714838D01*
X154369673Y-123714838D02*
X154417292Y-123762457D01*
X154417292Y-123762457D02*
X154464911Y-123714838D01*
X154464911Y-123714838D02*
X154417292Y-123667219D01*
X154417292Y-123667219D02*
X154417292Y-123762457D01*
X154893482Y-124000552D02*
X154893482Y-124667219D01*
X154893482Y-124095790D02*
X154941101Y-124048171D01*
X154941101Y-124048171D02*
X155036339Y-124000552D01*
X155036339Y-124000552D02*
X155179196Y-124000552D01*
X155179196Y-124000552D02*
X155274434Y-124048171D01*
X155274434Y-124048171D02*
X155322053Y-124143409D01*
X155322053Y-124143409D02*
X155322053Y-124667219D01*
X156893482Y-124143409D02*
X157036339Y-124191028D01*
X157036339Y-124191028D02*
X157083958Y-124238647D01*
X157083958Y-124238647D02*
X157131577Y-124333885D01*
X157131577Y-124333885D02*
X157131577Y-124476742D01*
X157131577Y-124476742D02*
X157083958Y-124571980D01*
X157083958Y-124571980D02*
X157036339Y-124619600D01*
X157036339Y-124619600D02*
X156941101Y-124667219D01*
X156941101Y-124667219D02*
X156560149Y-124667219D01*
X156560149Y-124667219D02*
X156560149Y-123667219D01*
X156560149Y-123667219D02*
X156893482Y-123667219D01*
X156893482Y-123667219D02*
X156988720Y-123714838D01*
X156988720Y-123714838D02*
X157036339Y-123762457D01*
X157036339Y-123762457D02*
X157083958Y-123857695D01*
X157083958Y-123857695D02*
X157083958Y-123952933D01*
X157083958Y-123952933D02*
X157036339Y-124048171D01*
X157036339Y-124048171D02*
X156988720Y-124095790D01*
X156988720Y-124095790D02*
X156893482Y-124143409D01*
X156893482Y-124143409D02*
X156560149Y-124143409D01*
X157703006Y-124667219D02*
X157607768Y-124619600D01*
X157607768Y-124619600D02*
X157560149Y-124571980D01*
X157560149Y-124571980D02*
X157512530Y-124476742D01*
X157512530Y-124476742D02*
X157512530Y-124191028D01*
X157512530Y-124191028D02*
X157560149Y-124095790D01*
X157560149Y-124095790D02*
X157607768Y-124048171D01*
X157607768Y-124048171D02*
X157703006Y-124000552D01*
X157703006Y-124000552D02*
X157845863Y-124000552D01*
X157845863Y-124000552D02*
X157941101Y-124048171D01*
X157941101Y-124048171D02*
X157988720Y-124095790D01*
X157988720Y-124095790D02*
X158036339Y-124191028D01*
X158036339Y-124191028D02*
X158036339Y-124476742D01*
X158036339Y-124476742D02*
X157988720Y-124571980D01*
X157988720Y-124571980D02*
X157941101Y-124619600D01*
X157941101Y-124619600D02*
X157845863Y-124667219D01*
X157845863Y-124667219D02*
X157703006Y-124667219D01*
X158893482Y-124667219D02*
X158893482Y-124143409D01*
X158893482Y-124143409D02*
X158845863Y-124048171D01*
X158845863Y-124048171D02*
X158750625Y-124000552D01*
X158750625Y-124000552D02*
X158560149Y-124000552D01*
X158560149Y-124000552D02*
X158464911Y-124048171D01*
X158893482Y-124619600D02*
X158798244Y-124667219D01*
X158798244Y-124667219D02*
X158560149Y-124667219D01*
X158560149Y-124667219D02*
X158464911Y-124619600D01*
X158464911Y-124619600D02*
X158417292Y-124524361D01*
X158417292Y-124524361D02*
X158417292Y-124429123D01*
X158417292Y-124429123D02*
X158464911Y-124333885D01*
X158464911Y-124333885D02*
X158560149Y-124286266D01*
X158560149Y-124286266D02*
X158798244Y-124286266D01*
X158798244Y-124286266D02*
X158893482Y-124238647D01*
X159369673Y-124667219D02*
X159369673Y-124000552D01*
X159369673Y-124191028D02*
X159417292Y-124095790D01*
X159417292Y-124095790D02*
X159464911Y-124048171D01*
X159464911Y-124048171D02*
X159560149Y-124000552D01*
X159560149Y-124000552D02*
X159655387Y-124000552D01*
X160417292Y-124667219D02*
X160417292Y-123667219D01*
X160417292Y-124619600D02*
X160322054Y-124667219D01*
X160322054Y-124667219D02*
X160131578Y-124667219D01*
X160131578Y-124667219D02*
X160036340Y-124619600D01*
X160036340Y-124619600D02*
X159988721Y-124571980D01*
X159988721Y-124571980D02*
X159941102Y-124476742D01*
X159941102Y-124476742D02*
X159941102Y-124191028D01*
X159941102Y-124191028D02*
X159988721Y-124095790D01*
X159988721Y-124095790D02*
X160036340Y-124048171D01*
X160036340Y-124048171D02*
X160131578Y-124000552D01*
X160131578Y-124000552D02*
X160322054Y-124000552D01*
X160322054Y-124000552D02*
X160417292Y-124048171D01*
X161512531Y-123667219D02*
X161845864Y-124667219D01*
X161845864Y-124667219D02*
X162179197Y-123667219D01*
X162464912Y-123762457D02*
X162512531Y-123714838D01*
X162512531Y-123714838D02*
X162607769Y-123667219D01*
X162607769Y-123667219D02*
X162845864Y-123667219D01*
X162845864Y-123667219D02*
X162941102Y-123714838D01*
X162941102Y-123714838D02*
X162988721Y-123762457D01*
X162988721Y-123762457D02*
X163036340Y-123857695D01*
X163036340Y-123857695D02*
X163036340Y-123952933D01*
X163036340Y-123952933D02*
X162988721Y-124095790D01*
X162988721Y-124095790D02*
X162417293Y-124667219D01*
X162417293Y-124667219D02*
X163036340Y-124667219D01*
X163464912Y-124571980D02*
X163512531Y-124619600D01*
X163512531Y-124619600D02*
X163464912Y-124667219D01*
X163464912Y-124667219D02*
X163417293Y-124619600D01*
X163417293Y-124619600D02*
X163464912Y-124571980D01*
X163464912Y-124571980D02*
X163464912Y-124667219D01*
X164131578Y-123667219D02*
X164226816Y-123667219D01*
X164226816Y-123667219D02*
X164322054Y-123714838D01*
X164322054Y-123714838D02*
X164369673Y-123762457D01*
X164369673Y-123762457D02*
X164417292Y-123857695D01*
X164417292Y-123857695D02*
X164464911Y-124048171D01*
X164464911Y-124048171D02*
X164464911Y-124286266D01*
X164464911Y-124286266D02*
X164417292Y-124476742D01*
X164417292Y-124476742D02*
X164369673Y-124571980D01*
X164369673Y-124571980D02*
X164322054Y-124619600D01*
X164322054Y-124619600D02*
X164226816Y-124667219D01*
X164226816Y-124667219D02*
X164131578Y-124667219D01*
X164131578Y-124667219D02*
X164036340Y-124619600D01*
X164036340Y-124619600D02*
X163988721Y-124571980D01*
X163988721Y-124571980D02*
X163941102Y-124476742D01*
X163941102Y-124476742D02*
X163893483Y-124286266D01*
X163893483Y-124286266D02*
X163893483Y-124048171D01*
X163893483Y-124048171D02*
X163941102Y-123857695D01*
X163941102Y-123857695D02*
X163988721Y-123762457D01*
X163988721Y-123762457D02*
X164036340Y-123714838D01*
X164036340Y-123714838D02*
X164131578Y-123667219D01*
D11*
X174098315Y-128878156D02*
X174128345Y-128788064D01*
X174128345Y-128788064D02*
X174128345Y-128637911D01*
X174128345Y-128637911D02*
X174098315Y-128577850D01*
X174098315Y-128577850D02*
X174068284Y-128547819D01*
X174068284Y-128547819D02*
X174008223Y-128517789D01*
X174008223Y-128517789D02*
X173948161Y-128517789D01*
X173948161Y-128517789D02*
X173888100Y-128547819D01*
X173888100Y-128547819D02*
X173858070Y-128577850D01*
X173858070Y-128577850D02*
X173828039Y-128637911D01*
X173828039Y-128637911D02*
X173798008Y-128758034D01*
X173798008Y-128758034D02*
X173767978Y-128818095D01*
X173767978Y-128818095D02*
X173737947Y-128848125D01*
X173737947Y-128848125D02*
X173677886Y-128878156D01*
X173677886Y-128878156D02*
X173617825Y-128878156D01*
X173617825Y-128878156D02*
X173557763Y-128848125D01*
X173557763Y-128848125D02*
X173527733Y-128818095D01*
X173527733Y-128818095D02*
X173497702Y-128758034D01*
X173497702Y-128758034D02*
X173497702Y-128607880D01*
X173497702Y-128607880D02*
X173527733Y-128517789D01*
X173497702Y-128307575D02*
X174128345Y-128157422D01*
X174128345Y-128157422D02*
X173677886Y-128037299D01*
X173677886Y-128037299D02*
X174128345Y-127917177D01*
X174128345Y-127917177D02*
X173497702Y-127767024D01*
X173497702Y-127256503D02*
X173497702Y-127376625D01*
X173497702Y-127376625D02*
X173527733Y-127436687D01*
X173527733Y-127436687D02*
X173557763Y-127466717D01*
X173557763Y-127466717D02*
X173647855Y-127526778D01*
X173647855Y-127526778D02*
X173767978Y-127556809D01*
X173767978Y-127556809D02*
X174008223Y-127556809D01*
X174008223Y-127556809D02*
X174068284Y-127526778D01*
X174068284Y-127526778D02*
X174098315Y-127496748D01*
X174098315Y-127496748D02*
X174128345Y-127436687D01*
X174128345Y-127436687D02*
X174128345Y-127316564D01*
X174128345Y-127316564D02*
X174098315Y-127256503D01*
X174098315Y-127256503D02*
X174068284Y-127226472D01*
X174068284Y-127226472D02*
X174008223Y-127196442D01*
X174008223Y-127196442D02*
X173858070Y-127196442D01*
X173858070Y-127196442D02*
X173798008Y-127226472D01*
X173798008Y-127226472D02*
X173767978Y-127256503D01*
X173767978Y-127256503D02*
X173737947Y-127316564D01*
X173737947Y-127316564D02*
X173737947Y-127436687D01*
X173737947Y-127436687D02*
X173767978Y-127496748D01*
X173767978Y-127496748D02*
X173798008Y-127526778D01*
X173798008Y-127526778D02*
X173858070Y-127556809D01*
X206984819Y-87138094D02*
X205984819Y-87138094D01*
X205984819Y-87138094D02*
X205984819Y-86899999D01*
X205984819Y-86899999D02*
X206032438Y-86757142D01*
X206032438Y-86757142D02*
X206127676Y-86661904D01*
X206127676Y-86661904D02*
X206222914Y-86614285D01*
X206222914Y-86614285D02*
X206413390Y-86566666D01*
X206413390Y-86566666D02*
X206556247Y-86566666D01*
X206556247Y-86566666D02*
X206746723Y-86614285D01*
X206746723Y-86614285D02*
X206841961Y-86661904D01*
X206841961Y-86661904D02*
X206937200Y-86757142D01*
X206937200Y-86757142D02*
X206984819Y-86899999D01*
X206984819Y-86899999D02*
X206984819Y-87138094D01*
X206080057Y-86185713D02*
X206032438Y-86138094D01*
X206032438Y-86138094D02*
X205984819Y-86042856D01*
X205984819Y-86042856D02*
X205984819Y-85804761D01*
X205984819Y-85804761D02*
X206032438Y-85709523D01*
X206032438Y-85709523D02*
X206080057Y-85661904D01*
X206080057Y-85661904D02*
X206175295Y-85614285D01*
X206175295Y-85614285D02*
X206270533Y-85614285D01*
X206270533Y-85614285D02*
X206413390Y-85661904D01*
X206413390Y-85661904D02*
X206984819Y-86233332D01*
X206984819Y-86233332D02*
X206984819Y-85614285D01*
X207354819Y-91741904D02*
X206354819Y-91741904D01*
X207354819Y-91170476D02*
X206783390Y-91599047D01*
X206354819Y-91170476D02*
X206926247Y-91741904D01*
X150038095Y-132254819D02*
X150038095Y-131254819D01*
X150038095Y-131731009D02*
X150609523Y-131731009D01*
X150609523Y-132254819D02*
X150609523Y-131254819D01*
X150990476Y-131254819D02*
X151609523Y-131254819D01*
X151609523Y-131254819D02*
X151276190Y-131635771D01*
X151276190Y-131635771D02*
X151419047Y-131635771D01*
X151419047Y-131635771D02*
X151514285Y-131683390D01*
X151514285Y-131683390D02*
X151561904Y-131731009D01*
X151561904Y-131731009D02*
X151609523Y-131826247D01*
X151609523Y-131826247D02*
X151609523Y-132064342D01*
X151609523Y-132064342D02*
X151561904Y-132159580D01*
X151561904Y-132159580D02*
X151514285Y-132207200D01*
X151514285Y-132207200D02*
X151419047Y-132254819D01*
X151419047Y-132254819D02*
X151133333Y-132254819D01*
X151133333Y-132254819D02*
X151038095Y-132207200D01*
X151038095Y-132207200D02*
X150990476Y-132159580D01*
X186033333Y-107504819D02*
X185700000Y-107028628D01*
X185461905Y-107504819D02*
X185461905Y-106504819D01*
X185461905Y-106504819D02*
X185842857Y-106504819D01*
X185842857Y-106504819D02*
X185938095Y-106552438D01*
X185938095Y-106552438D02*
X185985714Y-106600057D01*
X185985714Y-106600057D02*
X186033333Y-106695295D01*
X186033333Y-106695295D02*
X186033333Y-106838152D01*
X186033333Y-106838152D02*
X185985714Y-106933390D01*
X185985714Y-106933390D02*
X185938095Y-106981009D01*
X185938095Y-106981009D02*
X185842857Y-107028628D01*
X185842857Y-107028628D02*
X185461905Y-107028628D01*
X186366667Y-106504819D02*
X186985714Y-106504819D01*
X186985714Y-106504819D02*
X186652381Y-106885771D01*
X186652381Y-106885771D02*
X186795238Y-106885771D01*
X186795238Y-106885771D02*
X186890476Y-106933390D01*
X186890476Y-106933390D02*
X186938095Y-106981009D01*
X186938095Y-106981009D02*
X186985714Y-107076247D01*
X186985714Y-107076247D02*
X186985714Y-107314342D01*
X186985714Y-107314342D02*
X186938095Y-107409580D01*
X186938095Y-107409580D02*
X186890476Y-107457200D01*
X186890476Y-107457200D02*
X186795238Y-107504819D01*
X186795238Y-107504819D02*
X186509524Y-107504819D01*
X186509524Y-107504819D02*
X186414286Y-107457200D01*
X186414286Y-107457200D02*
X186366667Y-107409580D01*
X189550057Y-98957738D02*
X189502438Y-99052976D01*
X189502438Y-99052976D02*
X189407200Y-99148214D01*
X189407200Y-99148214D02*
X189264342Y-99291071D01*
X189264342Y-99291071D02*
X189216723Y-99386309D01*
X189216723Y-99386309D02*
X189216723Y-99481547D01*
X189454819Y-99433928D02*
X189407200Y-99529166D01*
X189407200Y-99529166D02*
X189311961Y-99624404D01*
X189311961Y-99624404D02*
X189121485Y-99672023D01*
X189121485Y-99672023D02*
X188788152Y-99672023D01*
X188788152Y-99672023D02*
X188597676Y-99624404D01*
X188597676Y-99624404D02*
X188502438Y-99529166D01*
X188502438Y-99529166D02*
X188454819Y-99433928D01*
X188454819Y-99433928D02*
X188454819Y-99243452D01*
X188454819Y-99243452D02*
X188502438Y-99148214D01*
X188502438Y-99148214D02*
X188597676Y-99052976D01*
X188597676Y-99052976D02*
X188788152Y-99005357D01*
X188788152Y-99005357D02*
X189121485Y-99005357D01*
X189121485Y-99005357D02*
X189311961Y-99052976D01*
X189311961Y-99052976D02*
X189407200Y-99148214D01*
X189407200Y-99148214D02*
X189454819Y-99243452D01*
X189454819Y-99243452D02*
X189454819Y-99433928D01*
X188550057Y-98624404D02*
X188502438Y-98576785D01*
X188502438Y-98576785D02*
X188454819Y-98481547D01*
X188454819Y-98481547D02*
X188454819Y-98243452D01*
X188454819Y-98243452D02*
X188502438Y-98148214D01*
X188502438Y-98148214D02*
X188550057Y-98100595D01*
X188550057Y-98100595D02*
X188645295Y-98052976D01*
X188645295Y-98052976D02*
X188740533Y-98052976D01*
X188740533Y-98052976D02*
X188883390Y-98100595D01*
X188883390Y-98100595D02*
X189454819Y-98672023D01*
X189454819Y-98672023D02*
X189454819Y-98052976D01*
X209926667Y-70467200D02*
X210069524Y-70514819D01*
X210069524Y-70514819D02*
X210307619Y-70514819D01*
X210307619Y-70514819D02*
X210402857Y-70467200D01*
X210402857Y-70467200D02*
X210450476Y-70419580D01*
X210450476Y-70419580D02*
X210498095Y-70324342D01*
X210498095Y-70324342D02*
X210498095Y-70229104D01*
X210498095Y-70229104D02*
X210450476Y-70133866D01*
X210450476Y-70133866D02*
X210402857Y-70086247D01*
X210402857Y-70086247D02*
X210307619Y-70038628D01*
X210307619Y-70038628D02*
X210117143Y-69991009D01*
X210117143Y-69991009D02*
X210021905Y-69943390D01*
X210021905Y-69943390D02*
X209974286Y-69895771D01*
X209974286Y-69895771D02*
X209926667Y-69800533D01*
X209926667Y-69800533D02*
X209926667Y-69705295D01*
X209926667Y-69705295D02*
X209974286Y-69610057D01*
X209974286Y-69610057D02*
X210021905Y-69562438D01*
X210021905Y-69562438D02*
X210117143Y-69514819D01*
X210117143Y-69514819D02*
X210355238Y-69514819D01*
X210355238Y-69514819D02*
X210498095Y-69562438D01*
X210831429Y-69514819D02*
X211069524Y-70514819D01*
X211069524Y-70514819D02*
X211260000Y-69800533D01*
X211260000Y-69800533D02*
X211450476Y-70514819D01*
X211450476Y-70514819D02*
X211688572Y-69514819D01*
X212545714Y-69514819D02*
X212069524Y-69514819D01*
X212069524Y-69514819D02*
X212021905Y-69991009D01*
X212021905Y-69991009D02*
X212069524Y-69943390D01*
X212069524Y-69943390D02*
X212164762Y-69895771D01*
X212164762Y-69895771D02*
X212402857Y-69895771D01*
X212402857Y-69895771D02*
X212498095Y-69943390D01*
X212498095Y-69943390D02*
X212545714Y-69991009D01*
X212545714Y-69991009D02*
X212593333Y-70086247D01*
X212593333Y-70086247D02*
X212593333Y-70324342D01*
X212593333Y-70324342D02*
X212545714Y-70419580D01*
X212545714Y-70419580D02*
X212498095Y-70467200D01*
X212498095Y-70467200D02*
X212402857Y-70514819D01*
X212402857Y-70514819D02*
X212164762Y-70514819D01*
X212164762Y-70514819D02*
X212069524Y-70467200D01*
X212069524Y-70467200D02*
X212021905Y-70419580D01*
X220438095Y-136454819D02*
X220438095Y-135454819D01*
X220438095Y-135931009D02*
X221009523Y-135931009D01*
X221009523Y-136454819D02*
X221009523Y-135454819D01*
X221438095Y-135550057D02*
X221485714Y-135502438D01*
X221485714Y-135502438D02*
X221580952Y-135454819D01*
X221580952Y-135454819D02*
X221819047Y-135454819D01*
X221819047Y-135454819D02*
X221914285Y-135502438D01*
X221914285Y-135502438D02*
X221961904Y-135550057D01*
X221961904Y-135550057D02*
X222009523Y-135645295D01*
X222009523Y-135645295D02*
X222009523Y-135740533D01*
X222009523Y-135740533D02*
X221961904Y-135883390D01*
X221961904Y-135883390D02*
X221390476Y-136454819D01*
X221390476Y-136454819D02*
X222009523Y-136454819D01*
X198063095Y-84089819D02*
X198063095Y-84899342D01*
X198063095Y-84899342D02*
X198110714Y-84994580D01*
X198110714Y-84994580D02*
X198158333Y-85042200D01*
X198158333Y-85042200D02*
X198253571Y-85089819D01*
X198253571Y-85089819D02*
X198444047Y-85089819D01*
X198444047Y-85089819D02*
X198539285Y-85042200D01*
X198539285Y-85042200D02*
X198586904Y-84994580D01*
X198586904Y-84994580D02*
X198634523Y-84899342D01*
X198634523Y-84899342D02*
X198634523Y-84089819D01*
X199015476Y-84089819D02*
X199634523Y-84089819D01*
X199634523Y-84089819D02*
X199301190Y-84470771D01*
X199301190Y-84470771D02*
X199444047Y-84470771D01*
X199444047Y-84470771D02*
X199539285Y-84518390D01*
X199539285Y-84518390D02*
X199586904Y-84566009D01*
X199586904Y-84566009D02*
X199634523Y-84661247D01*
X199634523Y-84661247D02*
X199634523Y-84899342D01*
X199634523Y-84899342D02*
X199586904Y-84994580D01*
X199586904Y-84994580D02*
X199539285Y-85042200D01*
X199539285Y-85042200D02*
X199444047Y-85089819D01*
X199444047Y-85089819D02*
X199158333Y-85089819D01*
X199158333Y-85089819D02*
X199063095Y-85042200D01*
X199063095Y-85042200D02*
X199015476Y-84994580D01*
X190957142Y-96204819D02*
X190623809Y-95728628D01*
X190385714Y-96204819D02*
X190385714Y-95204819D01*
X190385714Y-95204819D02*
X190766666Y-95204819D01*
X190766666Y-95204819D02*
X190861904Y-95252438D01*
X190861904Y-95252438D02*
X190909523Y-95300057D01*
X190909523Y-95300057D02*
X190957142Y-95395295D01*
X190957142Y-95395295D02*
X190957142Y-95538152D01*
X190957142Y-95538152D02*
X190909523Y-95633390D01*
X190909523Y-95633390D02*
X190861904Y-95681009D01*
X190861904Y-95681009D02*
X190766666Y-95728628D01*
X190766666Y-95728628D02*
X190385714Y-95728628D01*
X191909523Y-96204819D02*
X191338095Y-96204819D01*
X191623809Y-96204819D02*
X191623809Y-95204819D01*
X191623809Y-95204819D02*
X191528571Y-95347676D01*
X191528571Y-95347676D02*
X191433333Y-95442914D01*
X191433333Y-95442914D02*
X191338095Y-95490533D01*
X192290476Y-95300057D02*
X192338095Y-95252438D01*
X192338095Y-95252438D02*
X192433333Y-95204819D01*
X192433333Y-95204819D02*
X192671428Y-95204819D01*
X192671428Y-95204819D02*
X192766666Y-95252438D01*
X192766666Y-95252438D02*
X192814285Y-95300057D01*
X192814285Y-95300057D02*
X192861904Y-95395295D01*
X192861904Y-95395295D02*
X192861904Y-95490533D01*
X192861904Y-95490533D02*
X192814285Y-95633390D01*
X192814285Y-95633390D02*
X192242857Y-96204819D01*
X192242857Y-96204819D02*
X192861904Y-96204819D01*
X193578095Y-98904819D02*
X193578095Y-99714342D01*
X193578095Y-99714342D02*
X193625714Y-99809580D01*
X193625714Y-99809580D02*
X193673333Y-99857200D01*
X193673333Y-99857200D02*
X193768571Y-99904819D01*
X193768571Y-99904819D02*
X193959047Y-99904819D01*
X193959047Y-99904819D02*
X194054285Y-99857200D01*
X194054285Y-99857200D02*
X194101904Y-99809580D01*
X194101904Y-99809580D02*
X194149523Y-99714342D01*
X194149523Y-99714342D02*
X194149523Y-98904819D01*
X194578095Y-99000057D02*
X194625714Y-98952438D01*
X194625714Y-98952438D02*
X194720952Y-98904819D01*
X194720952Y-98904819D02*
X194959047Y-98904819D01*
X194959047Y-98904819D02*
X195054285Y-98952438D01*
X195054285Y-98952438D02*
X195101904Y-99000057D01*
X195101904Y-99000057D02*
X195149523Y-99095295D01*
X195149523Y-99095295D02*
X195149523Y-99190533D01*
X195149523Y-99190533D02*
X195101904Y-99333390D01*
X195101904Y-99333390D02*
X194530476Y-99904819D01*
X194530476Y-99904819D02*
X195149523Y-99904819D01*
X176079819Y-103708333D02*
X176794104Y-103708333D01*
X176794104Y-103708333D02*
X176936961Y-103755952D01*
X176936961Y-103755952D02*
X177032200Y-103851190D01*
X177032200Y-103851190D02*
X177079819Y-103994047D01*
X177079819Y-103994047D02*
X177079819Y-104089285D01*
X177079819Y-103232142D02*
X176079819Y-103232142D01*
X176079819Y-103232142D02*
X176079819Y-102851190D01*
X176079819Y-102851190D02*
X176127438Y-102755952D01*
X176127438Y-102755952D02*
X176175057Y-102708333D01*
X176175057Y-102708333D02*
X176270295Y-102660714D01*
X176270295Y-102660714D02*
X176413152Y-102660714D01*
X176413152Y-102660714D02*
X176508390Y-102708333D01*
X176508390Y-102708333D02*
X176556009Y-102755952D01*
X176556009Y-102755952D02*
X176603628Y-102851190D01*
X176603628Y-102851190D02*
X176603628Y-103232142D01*
X177079819Y-101708333D02*
X177079819Y-102279761D01*
X177079819Y-101994047D02*
X176079819Y-101994047D01*
X176079819Y-101994047D02*
X176222676Y-102089285D01*
X176222676Y-102089285D02*
X176317914Y-102184523D01*
X176317914Y-102184523D02*
X176365533Y-102279761D01*
X165204819Y-86166666D02*
X164728628Y-86499999D01*
X165204819Y-86738094D02*
X164204819Y-86738094D01*
X164204819Y-86738094D02*
X164204819Y-86357142D01*
X164204819Y-86357142D02*
X164252438Y-86261904D01*
X164252438Y-86261904D02*
X164300057Y-86214285D01*
X164300057Y-86214285D02*
X164395295Y-86166666D01*
X164395295Y-86166666D02*
X164538152Y-86166666D01*
X164538152Y-86166666D02*
X164633390Y-86214285D01*
X164633390Y-86214285D02*
X164681009Y-86261904D01*
X164681009Y-86261904D02*
X164728628Y-86357142D01*
X164728628Y-86357142D02*
X164728628Y-86738094D01*
X165204819Y-85690475D02*
X165204819Y-85499999D01*
X165204819Y-85499999D02*
X165157200Y-85404761D01*
X165157200Y-85404761D02*
X165109580Y-85357142D01*
X165109580Y-85357142D02*
X164966723Y-85261904D01*
X164966723Y-85261904D02*
X164776247Y-85214285D01*
X164776247Y-85214285D02*
X164395295Y-85214285D01*
X164395295Y-85214285D02*
X164300057Y-85261904D01*
X164300057Y-85261904D02*
X164252438Y-85309523D01*
X164252438Y-85309523D02*
X164204819Y-85404761D01*
X164204819Y-85404761D02*
X164204819Y-85595237D01*
X164204819Y-85595237D02*
X164252438Y-85690475D01*
X164252438Y-85690475D02*
X164300057Y-85738094D01*
X164300057Y-85738094D02*
X164395295Y-85785713D01*
X164395295Y-85785713D02*
X164633390Y-85785713D01*
X164633390Y-85785713D02*
X164728628Y-85738094D01*
X164728628Y-85738094D02*
X164776247Y-85690475D01*
X164776247Y-85690475D02*
X164823866Y-85595237D01*
X164823866Y-85595237D02*
X164823866Y-85404761D01*
X164823866Y-85404761D02*
X164776247Y-85309523D01*
X164776247Y-85309523D02*
X164728628Y-85261904D01*
X164728628Y-85261904D02*
X164633390Y-85214285D01*
X192309580Y-90766666D02*
X192357200Y-90814285D01*
X192357200Y-90814285D02*
X192404819Y-90957142D01*
X192404819Y-90957142D02*
X192404819Y-91052380D01*
X192404819Y-91052380D02*
X192357200Y-91195237D01*
X192357200Y-91195237D02*
X192261961Y-91290475D01*
X192261961Y-91290475D02*
X192166723Y-91338094D01*
X192166723Y-91338094D02*
X191976247Y-91385713D01*
X191976247Y-91385713D02*
X191833390Y-91385713D01*
X191833390Y-91385713D02*
X191642914Y-91338094D01*
X191642914Y-91338094D02*
X191547676Y-91290475D01*
X191547676Y-91290475D02*
X191452438Y-91195237D01*
X191452438Y-91195237D02*
X191404819Y-91052380D01*
X191404819Y-91052380D02*
X191404819Y-90957142D01*
X191404819Y-90957142D02*
X191452438Y-90814285D01*
X191452438Y-90814285D02*
X191500057Y-90766666D01*
X192404819Y-89814285D02*
X192404819Y-90385713D01*
X192404819Y-90099999D02*
X191404819Y-90099999D01*
X191404819Y-90099999D02*
X191547676Y-90195237D01*
X191547676Y-90195237D02*
X191642914Y-90290475D01*
X191642914Y-90290475D02*
X191690533Y-90385713D01*
X195384819Y-124203333D02*
X196099104Y-124203333D01*
X196099104Y-124203333D02*
X196241961Y-124250952D01*
X196241961Y-124250952D02*
X196337200Y-124346190D01*
X196337200Y-124346190D02*
X196384819Y-124489047D01*
X196384819Y-124489047D02*
X196384819Y-124584285D01*
X195384819Y-123822380D02*
X195384819Y-123203333D01*
X195384819Y-123203333D02*
X195765771Y-123536666D01*
X195765771Y-123536666D02*
X195765771Y-123393809D01*
X195765771Y-123393809D02*
X195813390Y-123298571D01*
X195813390Y-123298571D02*
X195861009Y-123250952D01*
X195861009Y-123250952D02*
X195956247Y-123203333D01*
X195956247Y-123203333D02*
X196194342Y-123203333D01*
X196194342Y-123203333D02*
X196289580Y-123250952D01*
X196289580Y-123250952D02*
X196337200Y-123298571D01*
X196337200Y-123298571D02*
X196384819Y-123393809D01*
X196384819Y-123393809D02*
X196384819Y-123679523D01*
X196384819Y-123679523D02*
X196337200Y-123774761D01*
X196337200Y-123774761D02*
X196289580Y-123822380D01*
X195284580Y-124616666D02*
X195332200Y-124664285D01*
X195332200Y-124664285D02*
X195379819Y-124807142D01*
X195379819Y-124807142D02*
X195379819Y-124902380D01*
X195379819Y-124902380D02*
X195332200Y-125045237D01*
X195332200Y-125045237D02*
X195236961Y-125140475D01*
X195236961Y-125140475D02*
X195141723Y-125188094D01*
X195141723Y-125188094D02*
X194951247Y-125235713D01*
X194951247Y-125235713D02*
X194808390Y-125235713D01*
X194808390Y-125235713D02*
X194617914Y-125188094D01*
X194617914Y-125188094D02*
X194522676Y-125140475D01*
X194522676Y-125140475D02*
X194427438Y-125045237D01*
X194427438Y-125045237D02*
X194379819Y-124902380D01*
X194379819Y-124902380D02*
X194379819Y-124807142D01*
X194379819Y-124807142D02*
X194427438Y-124664285D01*
X194427438Y-124664285D02*
X194475057Y-124616666D01*
X194379819Y-123759523D02*
X194379819Y-123949999D01*
X194379819Y-123949999D02*
X194427438Y-124045237D01*
X194427438Y-124045237D02*
X194475057Y-124092856D01*
X194475057Y-124092856D02*
X194617914Y-124188094D01*
X194617914Y-124188094D02*
X194808390Y-124235713D01*
X194808390Y-124235713D02*
X195189342Y-124235713D01*
X195189342Y-124235713D02*
X195284580Y-124188094D01*
X195284580Y-124188094D02*
X195332200Y-124140475D01*
X195332200Y-124140475D02*
X195379819Y-124045237D01*
X195379819Y-124045237D02*
X195379819Y-123854761D01*
X195379819Y-123854761D02*
X195332200Y-123759523D01*
X195332200Y-123759523D02*
X195284580Y-123711904D01*
X195284580Y-123711904D02*
X195189342Y-123664285D01*
X195189342Y-123664285D02*
X194951247Y-123664285D01*
X194951247Y-123664285D02*
X194856009Y-123711904D01*
X194856009Y-123711904D02*
X194808390Y-123759523D01*
X194808390Y-123759523D02*
X194760771Y-123854761D01*
X194760771Y-123854761D02*
X194760771Y-124045237D01*
X194760771Y-124045237D02*
X194808390Y-124140475D01*
X194808390Y-124140475D02*
X194856009Y-124188094D01*
X194856009Y-124188094D02*
X194951247Y-124235713D01*
X155666666Y-79804519D02*
X155666666Y-80518804D01*
X155666666Y-80518804D02*
X155619047Y-80661661D01*
X155619047Y-80661661D02*
X155523809Y-80756900D01*
X155523809Y-80756900D02*
X155380952Y-80804519D01*
X155380952Y-80804519D02*
X155285714Y-80804519D01*
X156190476Y-80804519D02*
X156380952Y-80804519D01*
X156380952Y-80804519D02*
X156476190Y-80756900D01*
X156476190Y-80756900D02*
X156523809Y-80709280D01*
X156523809Y-80709280D02*
X156619047Y-80566423D01*
X156619047Y-80566423D02*
X156666666Y-80375947D01*
X156666666Y-80375947D02*
X156666666Y-79994995D01*
X156666666Y-79994995D02*
X156619047Y-79899757D01*
X156619047Y-79899757D02*
X156571428Y-79852138D01*
X156571428Y-79852138D02*
X156476190Y-79804519D01*
X156476190Y-79804519D02*
X156285714Y-79804519D01*
X156285714Y-79804519D02*
X156190476Y-79852138D01*
X156190476Y-79852138D02*
X156142857Y-79899757D01*
X156142857Y-79899757D02*
X156095238Y-79994995D01*
X156095238Y-79994995D02*
X156095238Y-80233090D01*
X156095238Y-80233090D02*
X156142857Y-80328328D01*
X156142857Y-80328328D02*
X156190476Y-80375947D01*
X156190476Y-80375947D02*
X156285714Y-80423566D01*
X156285714Y-80423566D02*
X156476190Y-80423566D01*
X156476190Y-80423566D02*
X156571428Y-80375947D01*
X156571428Y-80375947D02*
X156619047Y-80328328D01*
X156619047Y-80328328D02*
X156666666Y-80233090D01*
X198179819Y-125092857D02*
X197703628Y-125426190D01*
X198179819Y-125664285D02*
X197179819Y-125664285D01*
X197179819Y-125664285D02*
X197179819Y-125283333D01*
X197179819Y-125283333D02*
X197227438Y-125188095D01*
X197227438Y-125188095D02*
X197275057Y-125140476D01*
X197275057Y-125140476D02*
X197370295Y-125092857D01*
X197370295Y-125092857D02*
X197513152Y-125092857D01*
X197513152Y-125092857D02*
X197608390Y-125140476D01*
X197608390Y-125140476D02*
X197656009Y-125188095D01*
X197656009Y-125188095D02*
X197703628Y-125283333D01*
X197703628Y-125283333D02*
X197703628Y-125664285D01*
X198179819Y-124140476D02*
X198179819Y-124711904D01*
X198179819Y-124426190D02*
X197179819Y-124426190D01*
X197179819Y-124426190D02*
X197322676Y-124521428D01*
X197322676Y-124521428D02*
X197417914Y-124616666D01*
X197417914Y-124616666D02*
X197465533Y-124711904D01*
X197179819Y-123521428D02*
X197179819Y-123426190D01*
X197179819Y-123426190D02*
X197227438Y-123330952D01*
X197227438Y-123330952D02*
X197275057Y-123283333D01*
X197275057Y-123283333D02*
X197370295Y-123235714D01*
X197370295Y-123235714D02*
X197560771Y-123188095D01*
X197560771Y-123188095D02*
X197798866Y-123188095D01*
X197798866Y-123188095D02*
X197989342Y-123235714D01*
X197989342Y-123235714D02*
X198084580Y-123283333D01*
X198084580Y-123283333D02*
X198132200Y-123330952D01*
X198132200Y-123330952D02*
X198179819Y-123426190D01*
X198179819Y-123426190D02*
X198179819Y-123521428D01*
X198179819Y-123521428D02*
X198132200Y-123616666D01*
X198132200Y-123616666D02*
X198084580Y-123664285D01*
X198084580Y-123664285D02*
X197989342Y-123711904D01*
X197989342Y-123711904D02*
X197798866Y-123759523D01*
X197798866Y-123759523D02*
X197560771Y-123759523D01*
X197560771Y-123759523D02*
X197370295Y-123711904D01*
X197370295Y-123711904D02*
X197275057Y-123664285D01*
X197275057Y-123664285D02*
X197227438Y-123616666D01*
X197227438Y-123616666D02*
X197179819Y-123521428D01*
X181746443Y-87359519D02*
X181836535Y-87389549D01*
X181836535Y-87389549D02*
X181986688Y-87389549D01*
X181986688Y-87389549D02*
X182046749Y-87359519D01*
X182046749Y-87359519D02*
X182076780Y-87329488D01*
X182076780Y-87329488D02*
X182106810Y-87269427D01*
X182106810Y-87269427D02*
X182106810Y-87209365D01*
X182106810Y-87209365D02*
X182076780Y-87149304D01*
X182076780Y-87149304D02*
X182046749Y-87119274D01*
X182046749Y-87119274D02*
X181986688Y-87089243D01*
X181986688Y-87089243D02*
X181866565Y-87059212D01*
X181866565Y-87059212D02*
X181806504Y-87029182D01*
X181806504Y-87029182D02*
X181776474Y-86999151D01*
X181776474Y-86999151D02*
X181746443Y-86939090D01*
X181746443Y-86939090D02*
X181746443Y-86879029D01*
X181746443Y-86879029D02*
X181776474Y-86818967D01*
X181776474Y-86818967D02*
X181806504Y-86788937D01*
X181806504Y-86788937D02*
X181866565Y-86758906D01*
X181866565Y-86758906D02*
X182016719Y-86758906D01*
X182016719Y-86758906D02*
X182106810Y-86788937D01*
X182317024Y-86758906D02*
X182467177Y-87389549D01*
X182467177Y-87389549D02*
X182587300Y-86939090D01*
X182587300Y-86939090D02*
X182707422Y-87389549D01*
X182707422Y-87389549D02*
X182857576Y-86758906D01*
X183037759Y-86758906D02*
X183428157Y-86758906D01*
X183428157Y-86758906D02*
X183217943Y-86999151D01*
X183217943Y-86999151D02*
X183308035Y-86999151D01*
X183308035Y-86999151D02*
X183368096Y-87029182D01*
X183368096Y-87029182D02*
X183398127Y-87059212D01*
X183398127Y-87059212D02*
X183428157Y-87119274D01*
X183428157Y-87119274D02*
X183428157Y-87269427D01*
X183428157Y-87269427D02*
X183398127Y-87329488D01*
X183398127Y-87329488D02*
X183368096Y-87359519D01*
X183368096Y-87359519D02*
X183308035Y-87389549D01*
X183308035Y-87389549D02*
X183127851Y-87389549D01*
X183127851Y-87389549D02*
X183067790Y-87359519D01*
X183067790Y-87359519D02*
X183037759Y-87329488D01*
X197357142Y-122904819D02*
X197023809Y-122428628D01*
X196785714Y-122904819D02*
X196785714Y-121904819D01*
X196785714Y-121904819D02*
X197166666Y-121904819D01*
X197166666Y-121904819D02*
X197261904Y-121952438D01*
X197261904Y-121952438D02*
X197309523Y-122000057D01*
X197309523Y-122000057D02*
X197357142Y-122095295D01*
X197357142Y-122095295D02*
X197357142Y-122238152D01*
X197357142Y-122238152D02*
X197309523Y-122333390D01*
X197309523Y-122333390D02*
X197261904Y-122381009D01*
X197261904Y-122381009D02*
X197166666Y-122428628D01*
X197166666Y-122428628D02*
X196785714Y-122428628D01*
X198309523Y-122904819D02*
X197738095Y-122904819D01*
X198023809Y-122904819D02*
X198023809Y-121904819D01*
X198023809Y-121904819D02*
X197928571Y-122047676D01*
X197928571Y-122047676D02*
X197833333Y-122142914D01*
X197833333Y-122142914D02*
X197738095Y-122190533D01*
X199166666Y-121904819D02*
X198976190Y-121904819D01*
X198976190Y-121904819D02*
X198880952Y-121952438D01*
X198880952Y-121952438D02*
X198833333Y-122000057D01*
X198833333Y-122000057D02*
X198738095Y-122142914D01*
X198738095Y-122142914D02*
X198690476Y-122333390D01*
X198690476Y-122333390D02*
X198690476Y-122714342D01*
X198690476Y-122714342D02*
X198738095Y-122809580D01*
X198738095Y-122809580D02*
X198785714Y-122857200D01*
X198785714Y-122857200D02*
X198880952Y-122904819D01*
X198880952Y-122904819D02*
X199071428Y-122904819D01*
X199071428Y-122904819D02*
X199166666Y-122857200D01*
X199166666Y-122857200D02*
X199214285Y-122809580D01*
X199214285Y-122809580D02*
X199261904Y-122714342D01*
X199261904Y-122714342D02*
X199261904Y-122476247D01*
X199261904Y-122476247D02*
X199214285Y-122381009D01*
X199214285Y-122381009D02*
X199166666Y-122333390D01*
X199166666Y-122333390D02*
X199071428Y-122285771D01*
X199071428Y-122285771D02*
X198880952Y-122285771D01*
X198880952Y-122285771D02*
X198785714Y-122333390D01*
X198785714Y-122333390D02*
X198738095Y-122381009D01*
X198738095Y-122381009D02*
X198690476Y-122476247D01*
X200150279Y-78119065D02*
X200150279Y-78756486D01*
X200150279Y-78756486D02*
X200187775Y-78831476D01*
X200187775Y-78831476D02*
X200225270Y-78868972D01*
X200225270Y-78868972D02*
X200300261Y-78906467D01*
X200300261Y-78906467D02*
X200450242Y-78906467D01*
X200450242Y-78906467D02*
X200525233Y-78868972D01*
X200525233Y-78868972D02*
X200562728Y-78831476D01*
X200562728Y-78831476D02*
X200600223Y-78756486D01*
X200600223Y-78756486D02*
X200600223Y-78119065D01*
X200937681Y-78868972D02*
X201050167Y-78906467D01*
X201050167Y-78906467D02*
X201237644Y-78906467D01*
X201237644Y-78906467D02*
X201312634Y-78868972D01*
X201312634Y-78868972D02*
X201350130Y-78831476D01*
X201350130Y-78831476D02*
X201387625Y-78756486D01*
X201387625Y-78756486D02*
X201387625Y-78681495D01*
X201387625Y-78681495D02*
X201350130Y-78606504D01*
X201350130Y-78606504D02*
X201312634Y-78569009D01*
X201312634Y-78569009D02*
X201237644Y-78531514D01*
X201237644Y-78531514D02*
X201087662Y-78494018D01*
X201087662Y-78494018D02*
X201012672Y-78456523D01*
X201012672Y-78456523D02*
X200975176Y-78419028D01*
X200975176Y-78419028D02*
X200937681Y-78344037D01*
X200937681Y-78344037D02*
X200937681Y-78269046D01*
X200937681Y-78269046D02*
X200975176Y-78194056D01*
X200975176Y-78194056D02*
X201012672Y-78156560D01*
X201012672Y-78156560D02*
X201087662Y-78119065D01*
X201087662Y-78119065D02*
X201275139Y-78119065D01*
X201275139Y-78119065D02*
X201387625Y-78156560D01*
X201987551Y-78494018D02*
X202100037Y-78531514D01*
X202100037Y-78531514D02*
X202137532Y-78569009D01*
X202137532Y-78569009D02*
X202175027Y-78644000D01*
X202175027Y-78644000D02*
X202175027Y-78756486D01*
X202175027Y-78756486D02*
X202137532Y-78831476D01*
X202137532Y-78831476D02*
X202100037Y-78868972D01*
X202100037Y-78868972D02*
X202025046Y-78906467D01*
X202025046Y-78906467D02*
X201725083Y-78906467D01*
X201725083Y-78906467D02*
X201725083Y-78119065D01*
X201725083Y-78119065D02*
X201987551Y-78119065D01*
X201987551Y-78119065D02*
X202062541Y-78156560D01*
X202062541Y-78156560D02*
X202100037Y-78194056D01*
X202100037Y-78194056D02*
X202137532Y-78269046D01*
X202137532Y-78269046D02*
X202137532Y-78344037D01*
X202137532Y-78344037D02*
X202100037Y-78419028D01*
X202100037Y-78419028D02*
X202062541Y-78456523D01*
X202062541Y-78456523D02*
X201987551Y-78494018D01*
X201987551Y-78494018D02*
X201725083Y-78494018D01*
X202512485Y-78606504D02*
X203112411Y-78606504D01*
X203937308Y-78831476D02*
X203899813Y-78868972D01*
X203899813Y-78868972D02*
X203787327Y-78906467D01*
X203787327Y-78906467D02*
X203712336Y-78906467D01*
X203712336Y-78906467D02*
X203599850Y-78868972D01*
X203599850Y-78868972D02*
X203524860Y-78793981D01*
X203524860Y-78793981D02*
X203487364Y-78718990D01*
X203487364Y-78718990D02*
X203449869Y-78569009D01*
X203449869Y-78569009D02*
X203449869Y-78456523D01*
X203449869Y-78456523D02*
X203487364Y-78306542D01*
X203487364Y-78306542D02*
X203524860Y-78231551D01*
X203524860Y-78231551D02*
X203599850Y-78156560D01*
X203599850Y-78156560D02*
X203712336Y-78119065D01*
X203712336Y-78119065D02*
X203787327Y-78119065D01*
X203787327Y-78119065D02*
X203899813Y-78156560D01*
X203899813Y-78156560D02*
X203937308Y-78194056D01*
X204687215Y-78906467D02*
X204237271Y-78906467D01*
X204462243Y-78906467D02*
X204462243Y-78119065D01*
X204462243Y-78119065D02*
X204387252Y-78231551D01*
X204387252Y-78231551D02*
X204312262Y-78306542D01*
X204312262Y-78306542D02*
X204237271Y-78344037D01*
X202584819Y-87058094D02*
X201584819Y-87058094D01*
X201584819Y-87058094D02*
X201584819Y-86819999D01*
X201584819Y-86819999D02*
X201632438Y-86677142D01*
X201632438Y-86677142D02*
X201727676Y-86581904D01*
X201727676Y-86581904D02*
X201822914Y-86534285D01*
X201822914Y-86534285D02*
X202013390Y-86486666D01*
X202013390Y-86486666D02*
X202156247Y-86486666D01*
X202156247Y-86486666D02*
X202346723Y-86534285D01*
X202346723Y-86534285D02*
X202441961Y-86581904D01*
X202441961Y-86581904D02*
X202537200Y-86677142D01*
X202537200Y-86677142D02*
X202584819Y-86819999D01*
X202584819Y-86819999D02*
X202584819Y-87058094D01*
X202584819Y-85534285D02*
X202584819Y-86105713D01*
X202584819Y-85819999D02*
X201584819Y-85819999D01*
X201584819Y-85819999D02*
X201727676Y-85915237D01*
X201727676Y-85915237D02*
X201822914Y-86010475D01*
X201822914Y-86010475D02*
X201870533Y-86105713D01*
X202954819Y-91661904D02*
X201954819Y-91661904D01*
X202954819Y-91090476D02*
X202383390Y-91519047D01*
X201954819Y-91090476D02*
X202526247Y-91661904D01*
X186033333Y-101604819D02*
X185700000Y-101128628D01*
X185461905Y-101604819D02*
X185461905Y-100604819D01*
X185461905Y-100604819D02*
X185842857Y-100604819D01*
X185842857Y-100604819D02*
X185938095Y-100652438D01*
X185938095Y-100652438D02*
X185985714Y-100700057D01*
X185985714Y-100700057D02*
X186033333Y-100795295D01*
X186033333Y-100795295D02*
X186033333Y-100938152D01*
X186033333Y-100938152D02*
X185985714Y-101033390D01*
X185985714Y-101033390D02*
X185938095Y-101081009D01*
X185938095Y-101081009D02*
X185842857Y-101128628D01*
X185842857Y-101128628D02*
X185461905Y-101128628D01*
X186890476Y-100604819D02*
X186700000Y-100604819D01*
X186700000Y-100604819D02*
X186604762Y-100652438D01*
X186604762Y-100652438D02*
X186557143Y-100700057D01*
X186557143Y-100700057D02*
X186461905Y-100842914D01*
X186461905Y-100842914D02*
X186414286Y-101033390D01*
X186414286Y-101033390D02*
X186414286Y-101414342D01*
X186414286Y-101414342D02*
X186461905Y-101509580D01*
X186461905Y-101509580D02*
X186509524Y-101557200D01*
X186509524Y-101557200D02*
X186604762Y-101604819D01*
X186604762Y-101604819D02*
X186795238Y-101604819D01*
X186795238Y-101604819D02*
X186890476Y-101557200D01*
X186890476Y-101557200D02*
X186938095Y-101509580D01*
X186938095Y-101509580D02*
X186985714Y-101414342D01*
X186985714Y-101414342D02*
X186985714Y-101176247D01*
X186985714Y-101176247D02*
X186938095Y-101081009D01*
X186938095Y-101081009D02*
X186890476Y-101033390D01*
X186890476Y-101033390D02*
X186795238Y-100985771D01*
X186795238Y-100985771D02*
X186604762Y-100985771D01*
X186604762Y-100985771D02*
X186509524Y-101033390D01*
X186509524Y-101033390D02*
X186461905Y-101081009D01*
X186461905Y-101081009D02*
X186414286Y-101176247D01*
X165545180Y-93178095D02*
X164735657Y-93178095D01*
X164735657Y-93178095D02*
X164640419Y-93225714D01*
X164640419Y-93225714D02*
X164592800Y-93273333D01*
X164592800Y-93273333D02*
X164545180Y-93368571D01*
X164545180Y-93368571D02*
X164545180Y-93559047D01*
X164545180Y-93559047D02*
X164592800Y-93654285D01*
X164592800Y-93654285D02*
X164640419Y-93701904D01*
X164640419Y-93701904D02*
X164735657Y-93749523D01*
X164735657Y-93749523D02*
X165545180Y-93749523D01*
X165211847Y-94654285D02*
X164545180Y-94654285D01*
X165592800Y-94416190D02*
X164878514Y-94178095D01*
X164878514Y-94178095D02*
X164878514Y-94797142D01*
X176004819Y-123566666D02*
X175528628Y-123899999D01*
X176004819Y-124138094D02*
X175004819Y-124138094D01*
X175004819Y-124138094D02*
X175004819Y-123757142D01*
X175004819Y-123757142D02*
X175052438Y-123661904D01*
X175052438Y-123661904D02*
X175100057Y-123614285D01*
X175100057Y-123614285D02*
X175195295Y-123566666D01*
X175195295Y-123566666D02*
X175338152Y-123566666D01*
X175338152Y-123566666D02*
X175433390Y-123614285D01*
X175433390Y-123614285D02*
X175481009Y-123661904D01*
X175481009Y-123661904D02*
X175528628Y-123757142D01*
X175528628Y-123757142D02*
X175528628Y-124138094D01*
X175433390Y-122995237D02*
X175385771Y-123090475D01*
X175385771Y-123090475D02*
X175338152Y-123138094D01*
X175338152Y-123138094D02*
X175242914Y-123185713D01*
X175242914Y-123185713D02*
X175195295Y-123185713D01*
X175195295Y-123185713D02*
X175100057Y-123138094D01*
X175100057Y-123138094D02*
X175052438Y-123090475D01*
X175052438Y-123090475D02*
X175004819Y-122995237D01*
X175004819Y-122995237D02*
X175004819Y-122804761D01*
X175004819Y-122804761D02*
X175052438Y-122709523D01*
X175052438Y-122709523D02*
X175100057Y-122661904D01*
X175100057Y-122661904D02*
X175195295Y-122614285D01*
X175195295Y-122614285D02*
X175242914Y-122614285D01*
X175242914Y-122614285D02*
X175338152Y-122661904D01*
X175338152Y-122661904D02*
X175385771Y-122709523D01*
X175385771Y-122709523D02*
X175433390Y-122804761D01*
X175433390Y-122804761D02*
X175433390Y-122995237D01*
X175433390Y-122995237D02*
X175481009Y-123090475D01*
X175481009Y-123090475D02*
X175528628Y-123138094D01*
X175528628Y-123138094D02*
X175623866Y-123185713D01*
X175623866Y-123185713D02*
X175814342Y-123185713D01*
X175814342Y-123185713D02*
X175909580Y-123138094D01*
X175909580Y-123138094D02*
X175957200Y-123090475D01*
X175957200Y-123090475D02*
X176004819Y-122995237D01*
X176004819Y-122995237D02*
X176004819Y-122804761D01*
X176004819Y-122804761D02*
X175957200Y-122709523D01*
X175957200Y-122709523D02*
X175909580Y-122661904D01*
X175909580Y-122661904D02*
X175814342Y-122614285D01*
X175814342Y-122614285D02*
X175623866Y-122614285D01*
X175623866Y-122614285D02*
X175528628Y-122661904D01*
X175528628Y-122661904D02*
X175481009Y-122709523D01*
X175481009Y-122709523D02*
X175433390Y-122804761D01*
X184361904Y-124745180D02*
X184361904Y-123935657D01*
X184361904Y-123935657D02*
X184314285Y-123840419D01*
X184314285Y-123840419D02*
X184266666Y-123792800D01*
X184266666Y-123792800D02*
X184171428Y-123745180D01*
X184171428Y-123745180D02*
X183980952Y-123745180D01*
X183980952Y-123745180D02*
X183885714Y-123792800D01*
X183885714Y-123792800D02*
X183838095Y-123840419D01*
X183838095Y-123840419D02*
X183790476Y-123935657D01*
X183790476Y-123935657D02*
X183790476Y-124745180D01*
X182838095Y-124745180D02*
X183314285Y-124745180D01*
X183314285Y-124745180D02*
X183361904Y-124268990D01*
X183361904Y-124268990D02*
X183314285Y-124316609D01*
X183314285Y-124316609D02*
X183219047Y-124364228D01*
X183219047Y-124364228D02*
X182980952Y-124364228D01*
X182980952Y-124364228D02*
X182885714Y-124316609D01*
X182885714Y-124316609D02*
X182838095Y-124268990D01*
X182838095Y-124268990D02*
X182790476Y-124173752D01*
X182790476Y-124173752D02*
X182790476Y-123935657D01*
X182790476Y-123935657D02*
X182838095Y-123840419D01*
X182838095Y-123840419D02*
X182885714Y-123792800D01*
X182885714Y-123792800D02*
X182980952Y-123745180D01*
X182980952Y-123745180D02*
X183219047Y-123745180D01*
X183219047Y-123745180D02*
X183314285Y-123792800D01*
X183314285Y-123792800D02*
X183361904Y-123840419D01*
X198967261Y-93550057D02*
X198872023Y-93502438D01*
X198872023Y-93502438D02*
X198776785Y-93407200D01*
X198776785Y-93407200D02*
X198633928Y-93264342D01*
X198633928Y-93264342D02*
X198538690Y-93216723D01*
X198538690Y-93216723D02*
X198443452Y-93216723D01*
X198491071Y-93454819D02*
X198395833Y-93407200D01*
X198395833Y-93407200D02*
X198300595Y-93311961D01*
X198300595Y-93311961D02*
X198252976Y-93121485D01*
X198252976Y-93121485D02*
X198252976Y-92788152D01*
X198252976Y-92788152D02*
X198300595Y-92597676D01*
X198300595Y-92597676D02*
X198395833Y-92502438D01*
X198395833Y-92502438D02*
X198491071Y-92454819D01*
X198491071Y-92454819D02*
X198681547Y-92454819D01*
X198681547Y-92454819D02*
X198776785Y-92502438D01*
X198776785Y-92502438D02*
X198872023Y-92597676D01*
X198872023Y-92597676D02*
X198919642Y-92788152D01*
X198919642Y-92788152D02*
X198919642Y-93121485D01*
X198919642Y-93121485D02*
X198872023Y-93311961D01*
X198872023Y-93311961D02*
X198776785Y-93407200D01*
X198776785Y-93407200D02*
X198681547Y-93454819D01*
X198681547Y-93454819D02*
X198491071Y-93454819D01*
X199872023Y-93454819D02*
X199300595Y-93454819D01*
X199586309Y-93454819D02*
X199586309Y-92454819D01*
X199586309Y-92454819D02*
X199491071Y-92597676D01*
X199491071Y-92597676D02*
X199395833Y-92692914D01*
X199395833Y-92692914D02*
X199300595Y-92740533D01*
X180204819Y-129766666D02*
X179728628Y-130099999D01*
X180204819Y-130338094D02*
X179204819Y-130338094D01*
X179204819Y-130338094D02*
X179204819Y-129957142D01*
X179204819Y-129957142D02*
X179252438Y-129861904D01*
X179252438Y-129861904D02*
X179300057Y-129814285D01*
X179300057Y-129814285D02*
X179395295Y-129766666D01*
X179395295Y-129766666D02*
X179538152Y-129766666D01*
X179538152Y-129766666D02*
X179633390Y-129814285D01*
X179633390Y-129814285D02*
X179681009Y-129861904D01*
X179681009Y-129861904D02*
X179728628Y-129957142D01*
X179728628Y-129957142D02*
X179728628Y-130338094D01*
X179204819Y-128861904D02*
X179204819Y-129338094D01*
X179204819Y-129338094D02*
X179681009Y-129385713D01*
X179681009Y-129385713D02*
X179633390Y-129338094D01*
X179633390Y-129338094D02*
X179585771Y-129242856D01*
X179585771Y-129242856D02*
X179585771Y-129004761D01*
X179585771Y-129004761D02*
X179633390Y-128909523D01*
X179633390Y-128909523D02*
X179681009Y-128861904D01*
X179681009Y-128861904D02*
X179776247Y-128814285D01*
X179776247Y-128814285D02*
X180014342Y-128814285D01*
X180014342Y-128814285D02*
X180109580Y-128861904D01*
X180109580Y-128861904D02*
X180157200Y-128909523D01*
X180157200Y-128909523D02*
X180204819Y-129004761D01*
X180204819Y-129004761D02*
X180204819Y-129242856D01*
X180204819Y-129242856D02*
X180157200Y-129338094D01*
X180157200Y-129338094D02*
X180109580Y-129385713D01*
X203357142Y-93804819D02*
X203023809Y-93328628D01*
X202785714Y-93804819D02*
X202785714Y-92804819D01*
X202785714Y-92804819D02*
X203166666Y-92804819D01*
X203166666Y-92804819D02*
X203261904Y-92852438D01*
X203261904Y-92852438D02*
X203309523Y-92900057D01*
X203309523Y-92900057D02*
X203357142Y-92995295D01*
X203357142Y-92995295D02*
X203357142Y-93138152D01*
X203357142Y-93138152D02*
X203309523Y-93233390D01*
X203309523Y-93233390D02*
X203261904Y-93281009D01*
X203261904Y-93281009D02*
X203166666Y-93328628D01*
X203166666Y-93328628D02*
X202785714Y-93328628D01*
X204309523Y-93804819D02*
X203738095Y-93804819D01*
X204023809Y-93804819D02*
X204023809Y-92804819D01*
X204023809Y-92804819D02*
X203928571Y-92947676D01*
X203928571Y-92947676D02*
X203833333Y-93042914D01*
X203833333Y-93042914D02*
X203738095Y-93090533D01*
X205166666Y-93138152D02*
X205166666Y-93804819D01*
X204928571Y-92757200D02*
X204690476Y-93471485D01*
X204690476Y-93471485D02*
X205309523Y-93471485D01*
X210239580Y-95966666D02*
X210287200Y-96014285D01*
X210287200Y-96014285D02*
X210334819Y-96157142D01*
X210334819Y-96157142D02*
X210334819Y-96252380D01*
X210334819Y-96252380D02*
X210287200Y-96395237D01*
X210287200Y-96395237D02*
X210191961Y-96490475D01*
X210191961Y-96490475D02*
X210096723Y-96538094D01*
X210096723Y-96538094D02*
X209906247Y-96585713D01*
X209906247Y-96585713D02*
X209763390Y-96585713D01*
X209763390Y-96585713D02*
X209572914Y-96538094D01*
X209572914Y-96538094D02*
X209477676Y-96490475D01*
X209477676Y-96490475D02*
X209382438Y-96395237D01*
X209382438Y-96395237D02*
X209334819Y-96252380D01*
X209334819Y-96252380D02*
X209334819Y-96157142D01*
X209334819Y-96157142D02*
X209382438Y-96014285D01*
X209382438Y-96014285D02*
X209430057Y-95966666D01*
X209334819Y-95061904D02*
X209334819Y-95538094D01*
X209334819Y-95538094D02*
X209811009Y-95585713D01*
X209811009Y-95585713D02*
X209763390Y-95538094D01*
X209763390Y-95538094D02*
X209715771Y-95442856D01*
X209715771Y-95442856D02*
X209715771Y-95204761D01*
X209715771Y-95204761D02*
X209763390Y-95109523D01*
X209763390Y-95109523D02*
X209811009Y-95061904D01*
X209811009Y-95061904D02*
X209906247Y-95014285D01*
X209906247Y-95014285D02*
X210144342Y-95014285D01*
X210144342Y-95014285D02*
X210239580Y-95061904D01*
X210239580Y-95061904D02*
X210287200Y-95109523D01*
X210287200Y-95109523D02*
X210334819Y-95204761D01*
X210334819Y-95204761D02*
X210334819Y-95442856D01*
X210334819Y-95442856D02*
X210287200Y-95538094D01*
X210287200Y-95538094D02*
X210239580Y-95585713D01*
X190957142Y-93604819D02*
X190623809Y-93128628D01*
X190385714Y-93604819D02*
X190385714Y-92604819D01*
X190385714Y-92604819D02*
X190766666Y-92604819D01*
X190766666Y-92604819D02*
X190861904Y-92652438D01*
X190861904Y-92652438D02*
X190909523Y-92700057D01*
X190909523Y-92700057D02*
X190957142Y-92795295D01*
X190957142Y-92795295D02*
X190957142Y-92938152D01*
X190957142Y-92938152D02*
X190909523Y-93033390D01*
X190909523Y-93033390D02*
X190861904Y-93081009D01*
X190861904Y-93081009D02*
X190766666Y-93128628D01*
X190766666Y-93128628D02*
X190385714Y-93128628D01*
X191909523Y-93604819D02*
X191338095Y-93604819D01*
X191623809Y-93604819D02*
X191623809Y-92604819D01*
X191623809Y-92604819D02*
X191528571Y-92747676D01*
X191528571Y-92747676D02*
X191433333Y-92842914D01*
X191433333Y-92842914D02*
X191338095Y-92890533D01*
X192814285Y-92604819D02*
X192338095Y-92604819D01*
X192338095Y-92604819D02*
X192290476Y-93081009D01*
X192290476Y-93081009D02*
X192338095Y-93033390D01*
X192338095Y-93033390D02*
X192433333Y-92985771D01*
X192433333Y-92985771D02*
X192671428Y-92985771D01*
X192671428Y-92985771D02*
X192766666Y-93033390D01*
X192766666Y-93033390D02*
X192814285Y-93081009D01*
X192814285Y-93081009D02*
X192861904Y-93176247D01*
X192861904Y-93176247D02*
X192861904Y-93414342D01*
X192861904Y-93414342D02*
X192814285Y-93509580D01*
X192814285Y-93509580D02*
X192766666Y-93557200D01*
X192766666Y-93557200D02*
X192671428Y-93604819D01*
X192671428Y-93604819D02*
X192433333Y-93604819D01*
X192433333Y-93604819D02*
X192338095Y-93557200D01*
X192338095Y-93557200D02*
X192290476Y-93509580D01*
X194633333Y-86759580D02*
X194585714Y-86807200D01*
X194585714Y-86807200D02*
X194442857Y-86854819D01*
X194442857Y-86854819D02*
X194347619Y-86854819D01*
X194347619Y-86854819D02*
X194204762Y-86807200D01*
X194204762Y-86807200D02*
X194109524Y-86711961D01*
X194109524Y-86711961D02*
X194061905Y-86616723D01*
X194061905Y-86616723D02*
X194014286Y-86426247D01*
X194014286Y-86426247D02*
X194014286Y-86283390D01*
X194014286Y-86283390D02*
X194061905Y-86092914D01*
X194061905Y-86092914D02*
X194109524Y-85997676D01*
X194109524Y-85997676D02*
X194204762Y-85902438D01*
X194204762Y-85902438D02*
X194347619Y-85854819D01*
X194347619Y-85854819D02*
X194442857Y-85854819D01*
X194442857Y-85854819D02*
X194585714Y-85902438D01*
X194585714Y-85902438D02*
X194633333Y-85950057D01*
X195490476Y-86188152D02*
X195490476Y-86854819D01*
X195252381Y-85807200D02*
X195014286Y-86521485D01*
X195014286Y-86521485D02*
X195633333Y-86521485D01*
X195984819Y-132203333D02*
X196699104Y-132203333D01*
X196699104Y-132203333D02*
X196841961Y-132250952D01*
X196841961Y-132250952D02*
X196937200Y-132346190D01*
X196937200Y-132346190D02*
X196984819Y-132489047D01*
X196984819Y-132489047D02*
X196984819Y-132584285D01*
X196080057Y-131774761D02*
X196032438Y-131727142D01*
X196032438Y-131727142D02*
X195984819Y-131631904D01*
X195984819Y-131631904D02*
X195984819Y-131393809D01*
X195984819Y-131393809D02*
X196032438Y-131298571D01*
X196032438Y-131298571D02*
X196080057Y-131250952D01*
X196080057Y-131250952D02*
X196175295Y-131203333D01*
X196175295Y-131203333D02*
X196270533Y-131203333D01*
X196270533Y-131203333D02*
X196413390Y-131250952D01*
X196413390Y-131250952D02*
X196984819Y-131822380D01*
X196984819Y-131822380D02*
X196984819Y-131203333D01*
X162604819Y-85566666D02*
X162128628Y-85899999D01*
X162604819Y-86138094D02*
X161604819Y-86138094D01*
X161604819Y-86138094D02*
X161604819Y-85757142D01*
X161604819Y-85757142D02*
X161652438Y-85661904D01*
X161652438Y-85661904D02*
X161700057Y-85614285D01*
X161700057Y-85614285D02*
X161795295Y-85566666D01*
X161795295Y-85566666D02*
X161938152Y-85566666D01*
X161938152Y-85566666D02*
X162033390Y-85614285D01*
X162033390Y-85614285D02*
X162081009Y-85661904D01*
X162081009Y-85661904D02*
X162128628Y-85757142D01*
X162128628Y-85757142D02*
X162128628Y-86138094D01*
X161604819Y-85233332D02*
X161604819Y-84566666D01*
X161604819Y-84566666D02*
X162604819Y-84995237D01*
X186961666Y-125874819D02*
X186961666Y-126589104D01*
X186961666Y-126589104D02*
X186914047Y-126731961D01*
X186914047Y-126731961D02*
X186818809Y-126827200D01*
X186818809Y-126827200D02*
X186675952Y-126874819D01*
X186675952Y-126874819D02*
X186580714Y-126874819D01*
X187914047Y-125874819D02*
X187437857Y-125874819D01*
X187437857Y-125874819D02*
X187390238Y-126351009D01*
X187390238Y-126351009D02*
X187437857Y-126303390D01*
X187437857Y-126303390D02*
X187533095Y-126255771D01*
X187533095Y-126255771D02*
X187771190Y-126255771D01*
X187771190Y-126255771D02*
X187866428Y-126303390D01*
X187866428Y-126303390D02*
X187914047Y-126351009D01*
X187914047Y-126351009D02*
X187961666Y-126446247D01*
X187961666Y-126446247D02*
X187961666Y-126684342D01*
X187961666Y-126684342D02*
X187914047Y-126779580D01*
X187914047Y-126779580D02*
X187866428Y-126827200D01*
X187866428Y-126827200D02*
X187771190Y-126874819D01*
X187771190Y-126874819D02*
X187533095Y-126874819D01*
X187533095Y-126874819D02*
X187437857Y-126827200D01*
X187437857Y-126827200D02*
X187390238Y-126779580D01*
X197704819Y-96842857D02*
X197228628Y-97176190D01*
X197704819Y-97414285D02*
X196704819Y-97414285D01*
X196704819Y-97414285D02*
X196704819Y-97033333D01*
X196704819Y-97033333D02*
X196752438Y-96938095D01*
X196752438Y-96938095D02*
X196800057Y-96890476D01*
X196800057Y-96890476D02*
X196895295Y-96842857D01*
X196895295Y-96842857D02*
X197038152Y-96842857D01*
X197038152Y-96842857D02*
X197133390Y-96890476D01*
X197133390Y-96890476D02*
X197181009Y-96938095D01*
X197181009Y-96938095D02*
X197228628Y-97033333D01*
X197228628Y-97033333D02*
X197228628Y-97414285D01*
X197704819Y-95890476D02*
X197704819Y-96461904D01*
X197704819Y-96176190D02*
X196704819Y-96176190D01*
X196704819Y-96176190D02*
X196847676Y-96271428D01*
X196847676Y-96271428D02*
X196942914Y-96366666D01*
X196942914Y-96366666D02*
X196990533Y-96461904D01*
X197704819Y-94938095D02*
X197704819Y-95509523D01*
X197704819Y-95223809D02*
X196704819Y-95223809D01*
X196704819Y-95223809D02*
X196847676Y-95319047D01*
X196847676Y-95319047D02*
X196942914Y-95414285D01*
X196942914Y-95414285D02*
X196990533Y-95509523D01*
X221838095Y-72254819D02*
X221838095Y-71254819D01*
X221838095Y-71731009D02*
X222409523Y-71731009D01*
X222409523Y-72254819D02*
X222409523Y-71254819D01*
X223409523Y-72254819D02*
X222838095Y-72254819D01*
X223123809Y-72254819D02*
X223123809Y-71254819D01*
X223123809Y-71254819D02*
X223028571Y-71397676D01*
X223028571Y-71397676D02*
X222933333Y-71492914D01*
X222933333Y-71492914D02*
X222838095Y-71540533D01*
X193633333Y-79004819D02*
X193300000Y-78528628D01*
X193061905Y-79004819D02*
X193061905Y-78004819D01*
X193061905Y-78004819D02*
X193442857Y-78004819D01*
X193442857Y-78004819D02*
X193538095Y-78052438D01*
X193538095Y-78052438D02*
X193585714Y-78100057D01*
X193585714Y-78100057D02*
X193633333Y-78195295D01*
X193633333Y-78195295D02*
X193633333Y-78338152D01*
X193633333Y-78338152D02*
X193585714Y-78433390D01*
X193585714Y-78433390D02*
X193538095Y-78481009D01*
X193538095Y-78481009D02*
X193442857Y-78528628D01*
X193442857Y-78528628D02*
X193061905Y-78528628D01*
X194585714Y-79004819D02*
X194014286Y-79004819D01*
X194300000Y-79004819D02*
X194300000Y-78004819D01*
X194300000Y-78004819D02*
X194204762Y-78147676D01*
X194204762Y-78147676D02*
X194109524Y-78242914D01*
X194109524Y-78242914D02*
X194014286Y-78290533D01*
X199709580Y-90766666D02*
X199757200Y-90814285D01*
X199757200Y-90814285D02*
X199804819Y-90957142D01*
X199804819Y-90957142D02*
X199804819Y-91052380D01*
X199804819Y-91052380D02*
X199757200Y-91195237D01*
X199757200Y-91195237D02*
X199661961Y-91290475D01*
X199661961Y-91290475D02*
X199566723Y-91338094D01*
X199566723Y-91338094D02*
X199376247Y-91385713D01*
X199376247Y-91385713D02*
X199233390Y-91385713D01*
X199233390Y-91385713D02*
X199042914Y-91338094D01*
X199042914Y-91338094D02*
X198947676Y-91290475D01*
X198947676Y-91290475D02*
X198852438Y-91195237D01*
X198852438Y-91195237D02*
X198804819Y-91052380D01*
X198804819Y-91052380D02*
X198804819Y-90957142D01*
X198804819Y-90957142D02*
X198852438Y-90814285D01*
X198852438Y-90814285D02*
X198900057Y-90766666D01*
X198900057Y-90385713D02*
X198852438Y-90338094D01*
X198852438Y-90338094D02*
X198804819Y-90242856D01*
X198804819Y-90242856D02*
X198804819Y-90004761D01*
X198804819Y-90004761D02*
X198852438Y-89909523D01*
X198852438Y-89909523D02*
X198900057Y-89861904D01*
X198900057Y-89861904D02*
X198995295Y-89814285D01*
X198995295Y-89814285D02*
X199090533Y-89814285D01*
X199090533Y-89814285D02*
X199233390Y-89861904D01*
X199233390Y-89861904D02*
X199804819Y-90433332D01*
X199804819Y-90433332D02*
X199804819Y-89814285D01*
X188526667Y-70467200D02*
X188669524Y-70514819D01*
X188669524Y-70514819D02*
X188907619Y-70514819D01*
X188907619Y-70514819D02*
X189002857Y-70467200D01*
X189002857Y-70467200D02*
X189050476Y-70419580D01*
X189050476Y-70419580D02*
X189098095Y-70324342D01*
X189098095Y-70324342D02*
X189098095Y-70229104D01*
X189098095Y-70229104D02*
X189050476Y-70133866D01*
X189050476Y-70133866D02*
X189002857Y-70086247D01*
X189002857Y-70086247D02*
X188907619Y-70038628D01*
X188907619Y-70038628D02*
X188717143Y-69991009D01*
X188717143Y-69991009D02*
X188621905Y-69943390D01*
X188621905Y-69943390D02*
X188574286Y-69895771D01*
X188574286Y-69895771D02*
X188526667Y-69800533D01*
X188526667Y-69800533D02*
X188526667Y-69705295D01*
X188526667Y-69705295D02*
X188574286Y-69610057D01*
X188574286Y-69610057D02*
X188621905Y-69562438D01*
X188621905Y-69562438D02*
X188717143Y-69514819D01*
X188717143Y-69514819D02*
X188955238Y-69514819D01*
X188955238Y-69514819D02*
X189098095Y-69562438D01*
X189431429Y-69514819D02*
X189669524Y-70514819D01*
X189669524Y-70514819D02*
X189860000Y-69800533D01*
X189860000Y-69800533D02*
X190050476Y-70514819D01*
X190050476Y-70514819D02*
X190288572Y-69514819D01*
X191098095Y-69848152D02*
X191098095Y-70514819D01*
X190860000Y-69467200D02*
X190621905Y-70181485D01*
X190621905Y-70181485D02*
X191240952Y-70181485D01*
X193471666Y-130584819D02*
X193471666Y-131299104D01*
X193471666Y-131299104D02*
X193424047Y-131441961D01*
X193424047Y-131441961D02*
X193328809Y-131537200D01*
X193328809Y-131537200D02*
X193185952Y-131584819D01*
X193185952Y-131584819D02*
X193090714Y-131584819D01*
X194376428Y-130918152D02*
X194376428Y-131584819D01*
X194138333Y-130537200D02*
X193900238Y-131251485D01*
X193900238Y-131251485D02*
X194519285Y-131251485D01*
X162633614Y-81255137D02*
X163349548Y-81255137D01*
X163349548Y-81255137D02*
X163492735Y-81302865D01*
X163492735Y-81302865D02*
X163588193Y-81398323D01*
X163588193Y-81398323D02*
X163635921Y-81541510D01*
X163635921Y-81541510D02*
X163635921Y-81636968D01*
X163063175Y-80634661D02*
X163015446Y-80730119D01*
X163015446Y-80730119D02*
X162967717Y-80777848D01*
X162967717Y-80777848D02*
X162872259Y-80825577D01*
X162872259Y-80825577D02*
X162824530Y-80825577D01*
X162824530Y-80825577D02*
X162729072Y-80777848D01*
X162729072Y-80777848D02*
X162681343Y-80730119D01*
X162681343Y-80730119D02*
X162633614Y-80634661D01*
X162633614Y-80634661D02*
X162633614Y-80443746D01*
X162633614Y-80443746D02*
X162681343Y-80348288D01*
X162681343Y-80348288D02*
X162729072Y-80300559D01*
X162729072Y-80300559D02*
X162824530Y-80252830D01*
X162824530Y-80252830D02*
X162872259Y-80252830D01*
X162872259Y-80252830D02*
X162967717Y-80300559D01*
X162967717Y-80300559D02*
X163015446Y-80348288D01*
X163015446Y-80348288D02*
X163063175Y-80443746D01*
X163063175Y-80443746D02*
X163063175Y-80634661D01*
X163063175Y-80634661D02*
X163110903Y-80730119D01*
X163110903Y-80730119D02*
X163158632Y-80777848D01*
X163158632Y-80777848D02*
X163254090Y-80825577D01*
X163254090Y-80825577D02*
X163445006Y-80825577D01*
X163445006Y-80825577D02*
X163540464Y-80777848D01*
X163540464Y-80777848D02*
X163588193Y-80730119D01*
X163588193Y-80730119D02*
X163635921Y-80634661D01*
X163635921Y-80634661D02*
X163635921Y-80443746D01*
X163635921Y-80443746D02*
X163588193Y-80348288D01*
X163588193Y-80348288D02*
X163540464Y-80300559D01*
X163540464Y-80300559D02*
X163445006Y-80252830D01*
X163445006Y-80252830D02*
X163254090Y-80252830D01*
X163254090Y-80252830D02*
X163158632Y-80300559D01*
X163158632Y-80300559D02*
X163110903Y-80348288D01*
X163110903Y-80348288D02*
X163063175Y-80443746D01*
X193304819Y-87166666D02*
X192828628Y-87499999D01*
X193304819Y-87738094D02*
X192304819Y-87738094D01*
X192304819Y-87738094D02*
X192304819Y-87357142D01*
X192304819Y-87357142D02*
X192352438Y-87261904D01*
X192352438Y-87261904D02*
X192400057Y-87214285D01*
X192400057Y-87214285D02*
X192495295Y-87166666D01*
X192495295Y-87166666D02*
X192638152Y-87166666D01*
X192638152Y-87166666D02*
X192733390Y-87214285D01*
X192733390Y-87214285D02*
X192781009Y-87261904D01*
X192781009Y-87261904D02*
X192828628Y-87357142D01*
X192828628Y-87357142D02*
X192828628Y-87738094D01*
X192400057Y-86785713D02*
X192352438Y-86738094D01*
X192352438Y-86738094D02*
X192304819Y-86642856D01*
X192304819Y-86642856D02*
X192304819Y-86404761D01*
X192304819Y-86404761D02*
X192352438Y-86309523D01*
X192352438Y-86309523D02*
X192400057Y-86261904D01*
X192400057Y-86261904D02*
X192495295Y-86214285D01*
X192495295Y-86214285D02*
X192590533Y-86214285D01*
X192590533Y-86214285D02*
X192733390Y-86261904D01*
X192733390Y-86261904D02*
X193304819Y-86833332D01*
X193304819Y-86833332D02*
X193304819Y-86214285D01*
X181357142Y-101104819D02*
X181023809Y-100628628D01*
X180785714Y-101104819D02*
X180785714Y-100104819D01*
X180785714Y-100104819D02*
X181166666Y-100104819D01*
X181166666Y-100104819D02*
X181261904Y-100152438D01*
X181261904Y-100152438D02*
X181309523Y-100200057D01*
X181309523Y-100200057D02*
X181357142Y-100295295D01*
X181357142Y-100295295D02*
X181357142Y-100438152D01*
X181357142Y-100438152D02*
X181309523Y-100533390D01*
X181309523Y-100533390D02*
X181261904Y-100581009D01*
X181261904Y-100581009D02*
X181166666Y-100628628D01*
X181166666Y-100628628D02*
X180785714Y-100628628D01*
X182309523Y-101104819D02*
X181738095Y-101104819D01*
X182023809Y-101104819D02*
X182023809Y-100104819D01*
X182023809Y-100104819D02*
X181928571Y-100247676D01*
X181928571Y-100247676D02*
X181833333Y-100342914D01*
X181833333Y-100342914D02*
X181738095Y-100390533D01*
X182642857Y-100104819D02*
X183261904Y-100104819D01*
X183261904Y-100104819D02*
X182928571Y-100485771D01*
X182928571Y-100485771D02*
X183071428Y-100485771D01*
X183071428Y-100485771D02*
X183166666Y-100533390D01*
X183166666Y-100533390D02*
X183214285Y-100581009D01*
X183214285Y-100581009D02*
X183261904Y-100676247D01*
X183261904Y-100676247D02*
X183261904Y-100914342D01*
X183261904Y-100914342D02*
X183214285Y-101009580D01*
X183214285Y-101009580D02*
X183166666Y-101057200D01*
X183166666Y-101057200D02*
X183071428Y-101104819D01*
X183071428Y-101104819D02*
X182785714Y-101104819D01*
X182785714Y-101104819D02*
X182690476Y-101057200D01*
X182690476Y-101057200D02*
X182642857Y-101009580D01*
X181833333Y-98009580D02*
X181785714Y-98057200D01*
X181785714Y-98057200D02*
X181642857Y-98104819D01*
X181642857Y-98104819D02*
X181547619Y-98104819D01*
X181547619Y-98104819D02*
X181404762Y-98057200D01*
X181404762Y-98057200D02*
X181309524Y-97961961D01*
X181309524Y-97961961D02*
X181261905Y-97866723D01*
X181261905Y-97866723D02*
X181214286Y-97676247D01*
X181214286Y-97676247D02*
X181214286Y-97533390D01*
X181214286Y-97533390D02*
X181261905Y-97342914D01*
X181261905Y-97342914D02*
X181309524Y-97247676D01*
X181309524Y-97247676D02*
X181404762Y-97152438D01*
X181404762Y-97152438D02*
X181547619Y-97104819D01*
X181547619Y-97104819D02*
X181642857Y-97104819D01*
X181642857Y-97104819D02*
X181785714Y-97152438D01*
X181785714Y-97152438D02*
X181833333Y-97200057D01*
X182309524Y-98104819D02*
X182500000Y-98104819D01*
X182500000Y-98104819D02*
X182595238Y-98057200D01*
X182595238Y-98057200D02*
X182642857Y-98009580D01*
X182642857Y-98009580D02*
X182738095Y-97866723D01*
X182738095Y-97866723D02*
X182785714Y-97676247D01*
X182785714Y-97676247D02*
X182785714Y-97295295D01*
X182785714Y-97295295D02*
X182738095Y-97200057D01*
X182738095Y-97200057D02*
X182690476Y-97152438D01*
X182690476Y-97152438D02*
X182595238Y-97104819D01*
X182595238Y-97104819D02*
X182404762Y-97104819D01*
X182404762Y-97104819D02*
X182309524Y-97152438D01*
X182309524Y-97152438D02*
X182261905Y-97200057D01*
X182261905Y-97200057D02*
X182214286Y-97295295D01*
X182214286Y-97295295D02*
X182214286Y-97533390D01*
X182214286Y-97533390D02*
X182261905Y-97628628D01*
X182261905Y-97628628D02*
X182309524Y-97676247D01*
X182309524Y-97676247D02*
X182404762Y-97723866D01*
X182404762Y-97723866D02*
X182595238Y-97723866D01*
X182595238Y-97723866D02*
X182690476Y-97676247D01*
X182690476Y-97676247D02*
X182738095Y-97628628D01*
X182738095Y-97628628D02*
X182785714Y-97533390D01*
X160638095Y-101254819D02*
X160638095Y-100254819D01*
X160638095Y-100731009D02*
X161209523Y-100731009D01*
X161209523Y-101254819D02*
X161209523Y-100254819D01*
X162114285Y-100588152D02*
X162114285Y-101254819D01*
X161876190Y-100207200D02*
X161638095Y-100921485D01*
X161638095Y-100921485D02*
X162257142Y-100921485D01*
X193433333Y-85409580D02*
X193385714Y-85457200D01*
X193385714Y-85457200D02*
X193242857Y-85504819D01*
X193242857Y-85504819D02*
X193147619Y-85504819D01*
X193147619Y-85504819D02*
X193004762Y-85457200D01*
X193004762Y-85457200D02*
X192909524Y-85361961D01*
X192909524Y-85361961D02*
X192861905Y-85266723D01*
X192861905Y-85266723D02*
X192814286Y-85076247D01*
X192814286Y-85076247D02*
X192814286Y-84933390D01*
X192814286Y-84933390D02*
X192861905Y-84742914D01*
X192861905Y-84742914D02*
X192909524Y-84647676D01*
X192909524Y-84647676D02*
X193004762Y-84552438D01*
X193004762Y-84552438D02*
X193147619Y-84504819D01*
X193147619Y-84504819D02*
X193242857Y-84504819D01*
X193242857Y-84504819D02*
X193385714Y-84552438D01*
X193385714Y-84552438D02*
X193433333Y-84600057D01*
X193766667Y-84504819D02*
X194385714Y-84504819D01*
X194385714Y-84504819D02*
X194052381Y-84885771D01*
X194052381Y-84885771D02*
X194195238Y-84885771D01*
X194195238Y-84885771D02*
X194290476Y-84933390D01*
X194290476Y-84933390D02*
X194338095Y-84981009D01*
X194338095Y-84981009D02*
X194385714Y-85076247D01*
X194385714Y-85076247D02*
X194385714Y-85314342D01*
X194385714Y-85314342D02*
X194338095Y-85409580D01*
X194338095Y-85409580D02*
X194290476Y-85457200D01*
X194290476Y-85457200D02*
X194195238Y-85504819D01*
X194195238Y-85504819D02*
X193909524Y-85504819D01*
X193909524Y-85504819D02*
X193814286Y-85457200D01*
X193814286Y-85457200D02*
X193766667Y-85409580D01*
X221633333Y-81495180D02*
X221633333Y-80780895D01*
X221633333Y-80780895D02*
X221680952Y-80638038D01*
X221680952Y-80638038D02*
X221776190Y-80542800D01*
X221776190Y-80542800D02*
X221919047Y-80495180D01*
X221919047Y-80495180D02*
X222014285Y-80495180D01*
X220633333Y-80495180D02*
X221204761Y-80495180D01*
X220919047Y-80495180D02*
X220919047Y-81495180D01*
X220919047Y-81495180D02*
X221014285Y-81352323D01*
X221014285Y-81352323D02*
X221109523Y-81257085D01*
X221109523Y-81257085D02*
X221204761Y-81209466D01*
X183471666Y-120784819D02*
X183471666Y-121499104D01*
X183471666Y-121499104D02*
X183424047Y-121641961D01*
X183424047Y-121641961D02*
X183328809Y-121737200D01*
X183328809Y-121737200D02*
X183185952Y-121784819D01*
X183185952Y-121784819D02*
X183090714Y-121784819D01*
X183852619Y-120784819D02*
X184519285Y-120784819D01*
X184519285Y-120784819D02*
X184090714Y-121784819D01*
X196900595Y-93304819D02*
X196900595Y-94114342D01*
X196900595Y-94114342D02*
X196948214Y-94209580D01*
X196948214Y-94209580D02*
X196995833Y-94257200D01*
X196995833Y-94257200D02*
X197091071Y-94304819D01*
X197091071Y-94304819D02*
X197281547Y-94304819D01*
X197281547Y-94304819D02*
X197376785Y-94257200D01*
X197376785Y-94257200D02*
X197424404Y-94209580D01*
X197424404Y-94209580D02*
X197472023Y-94114342D01*
X197472023Y-94114342D02*
X197472023Y-93304819D01*
X198472023Y-94304819D02*
X197900595Y-94304819D01*
X198186309Y-94304819D02*
X198186309Y-93304819D01*
X198186309Y-93304819D02*
X198091071Y-93447676D01*
X198091071Y-93447676D02*
X197995833Y-93542914D01*
X197995833Y-93542914D02*
X197900595Y-93590533D01*
X212839580Y-96442857D02*
X212887200Y-96490476D01*
X212887200Y-96490476D02*
X212934819Y-96633333D01*
X212934819Y-96633333D02*
X212934819Y-96728571D01*
X212934819Y-96728571D02*
X212887200Y-96871428D01*
X212887200Y-96871428D02*
X212791961Y-96966666D01*
X212791961Y-96966666D02*
X212696723Y-97014285D01*
X212696723Y-97014285D02*
X212506247Y-97061904D01*
X212506247Y-97061904D02*
X212363390Y-97061904D01*
X212363390Y-97061904D02*
X212172914Y-97014285D01*
X212172914Y-97014285D02*
X212077676Y-96966666D01*
X212077676Y-96966666D02*
X211982438Y-96871428D01*
X211982438Y-96871428D02*
X211934819Y-96728571D01*
X211934819Y-96728571D02*
X211934819Y-96633333D01*
X211934819Y-96633333D02*
X211982438Y-96490476D01*
X211982438Y-96490476D02*
X212030057Y-96442857D01*
X212934819Y-95490476D02*
X212934819Y-96061904D01*
X212934819Y-95776190D02*
X211934819Y-95776190D01*
X211934819Y-95776190D02*
X212077676Y-95871428D01*
X212077676Y-95871428D02*
X212172914Y-95966666D01*
X212172914Y-95966666D02*
X212220533Y-96061904D01*
X211934819Y-94871428D02*
X211934819Y-94776190D01*
X211934819Y-94776190D02*
X211982438Y-94680952D01*
X211982438Y-94680952D02*
X212030057Y-94633333D01*
X212030057Y-94633333D02*
X212125295Y-94585714D01*
X212125295Y-94585714D02*
X212315771Y-94538095D01*
X212315771Y-94538095D02*
X212553866Y-94538095D01*
X212553866Y-94538095D02*
X212744342Y-94585714D01*
X212744342Y-94585714D02*
X212839580Y-94633333D01*
X212839580Y-94633333D02*
X212887200Y-94680952D01*
X212887200Y-94680952D02*
X212934819Y-94776190D01*
X212934819Y-94776190D02*
X212934819Y-94871428D01*
X212934819Y-94871428D02*
X212887200Y-94966666D01*
X212887200Y-94966666D02*
X212839580Y-95014285D01*
X212839580Y-95014285D02*
X212744342Y-95061904D01*
X212744342Y-95061904D02*
X212553866Y-95109523D01*
X212553866Y-95109523D02*
X212315771Y-95109523D01*
X212315771Y-95109523D02*
X212125295Y-95061904D01*
X212125295Y-95061904D02*
X212030057Y-95014285D01*
X212030057Y-95014285D02*
X211982438Y-94966666D01*
X211982438Y-94966666D02*
X211934819Y-94871428D01*
X189233333Y-120904819D02*
X188900000Y-120428628D01*
X188661905Y-120904819D02*
X188661905Y-119904819D01*
X188661905Y-119904819D02*
X189042857Y-119904819D01*
X189042857Y-119904819D02*
X189138095Y-119952438D01*
X189138095Y-119952438D02*
X189185714Y-120000057D01*
X189185714Y-120000057D02*
X189233333Y-120095295D01*
X189233333Y-120095295D02*
X189233333Y-120238152D01*
X189233333Y-120238152D02*
X189185714Y-120333390D01*
X189185714Y-120333390D02*
X189138095Y-120381009D01*
X189138095Y-120381009D02*
X189042857Y-120428628D01*
X189042857Y-120428628D02*
X188661905Y-120428628D01*
X190090476Y-120238152D02*
X190090476Y-120904819D01*
X189852381Y-119857200D02*
X189614286Y-120571485D01*
X189614286Y-120571485D02*
X190233333Y-120571485D01*
D12*
%TO.C,SW6*%
X167005000Y-132700000D02*
X167005000Y-128100000D01*
X171150000Y-127405000D02*
X168850000Y-127405000D01*
X171150000Y-133400000D02*
X168850000Y-133400000D01*
X172995000Y-128200000D02*
X172995000Y-132700000D01*
X171755000Y-130400000D02*
G75*
G02*
X168245000Y-130400000I-1755000J0D01*
G01*
X168245000Y-130400000D02*
G75*
G02*
X171755000Y-130400000I1755000J0D01*
G01*
D10*
X172350000Y-125955000D02*
G75*
G02*
X172150000Y-125955000I-100000J0D01*
G01*
X172150000Y-125955000D02*
G75*
G02*
X172350000Y-125955000I100000J0D01*
G01*
D13*
%TO.C,D2*%
X207530000Y-83680000D02*
X207530000Y-89120000D01*
X207530000Y-88100000D02*
X210470000Y-88100000D01*
X207530000Y-88220000D02*
X210470000Y-88220000D01*
X207530000Y-88340000D02*
X210470000Y-88340000D01*
X207530000Y-89120000D02*
X210470000Y-89120000D01*
X209000000Y-82660000D02*
X209000000Y-83680000D01*
X209000000Y-90140000D02*
X209000000Y-89120000D01*
X210470000Y-83680000D02*
X207530000Y-83680000D01*
X210470000Y-89120000D02*
X210470000Y-83680000D01*
%TO.C,R3*%
X186427064Y-104665000D02*
X185972936Y-104665000D01*
X186427064Y-106135000D02*
X185972936Y-106135000D01*
%TO.C,Q2*%
X185040000Y-98862500D02*
X185040000Y-98212500D01*
X185040000Y-98862500D02*
X185040000Y-99512500D01*
X188160000Y-98862500D02*
X188160000Y-98212500D01*
X188160000Y-98862500D02*
X188160000Y-99512500D01*
X188440000Y-97940000D02*
X188110000Y-97700000D01*
X188440000Y-97460000D01*
X188440000Y-97940000D01*
G36*
X188440000Y-97940000D02*
G01*
X188110000Y-97700000D01*
X188440000Y-97460000D01*
X188440000Y-97940000D01*
G37*
%TO.C,SW5*%
X206150000Y-71240000D02*
X216370000Y-71240000D01*
X216370000Y-73960000D01*
X206150000Y-73960000D01*
X206150000Y-71240000D01*
D12*
%TO.C,U3*%
X198400000Y-83560000D02*
X200000000Y-83560000D01*
X200000000Y-80440000D02*
X198400000Y-80440000D01*
D10*
X201800000Y-82950000D02*
G75*
G02*
X201600000Y-82950000I-100000J0D01*
G01*
X201600000Y-82950000D02*
G75*
G02*
X201800000Y-82950000I100000J0D01*
G01*
D13*
%TO.C,R12*%
X191372936Y-96665000D02*
X191827064Y-96665000D01*
X191372936Y-98135000D02*
X191827064Y-98135000D01*
%TO.C,U2*%
X192790000Y-100750000D02*
X192790000Y-102250000D01*
X192790000Y-119150000D02*
X192790000Y-117650000D01*
X192790000Y-119150000D02*
X193790000Y-119150000D01*
X193790000Y-100750000D02*
X192790000Y-100750000D01*
X218640000Y-100750000D02*
X212440000Y-100750000D01*
X218640000Y-100750000D02*
X218640000Y-119150000D01*
X218640000Y-119150000D02*
X212440000Y-119150000D01*
X212265000Y-100750000D02*
X211765000Y-100750000D01*
X211765000Y-100250000D01*
X212265000Y-100750000D01*
G36*
X212265000Y-100750000D02*
G01*
X211765000Y-100750000D01*
X211765000Y-100250000D01*
X212265000Y-100750000D01*
G37*
%TO.C,JP1*%
X177400000Y-100850000D02*
X179350000Y-100850000D01*
X177400000Y-106350000D02*
X177400000Y-100850000D01*
X179350000Y-100850000D02*
X179350000Y-106350000D01*
X179350000Y-106350000D02*
X177400000Y-106350000D01*
X179600000Y-105000000D02*
X179900000Y-105300000D01*
X179900000Y-104700000D02*
X179600000Y-105000000D01*
X179900000Y-105300000D02*
X179900000Y-104700000D01*
%TO.C,R9*%
X165665000Y-86227064D02*
X165665000Y-85772936D01*
X167135000Y-86227064D02*
X167135000Y-85772936D01*
%TO.C,C1*%
X192890000Y-91311252D02*
X192890000Y-89888748D01*
X194710000Y-91311252D02*
X194710000Y-89888748D01*
%TO.C,J3*%
X189730000Y-121270000D02*
X189730000Y-126470000D01*
X192330000Y-121270000D02*
X189730000Y-121270000D01*
X192330000Y-121270000D02*
X192330000Y-123870000D01*
X192330000Y-123870000D02*
X194930000Y-123870000D01*
X193600000Y-121270000D02*
X194930000Y-121270000D01*
X194930000Y-121270000D02*
X194930000Y-122600000D01*
X194930000Y-123870000D02*
X194930000Y-126470000D01*
X194930000Y-126470000D02*
X189730000Y-126470000D01*
%TO.C,C6*%
X195865000Y-125161252D02*
X195865000Y-123738748D01*
X197685000Y-125161252D02*
X197685000Y-123738748D01*
D14*
%TO.C,J9*%
X147186200Y-68843500D02*
X147186200Y-78419300D01*
X147186200Y-78419300D02*
X150046886Y-78419300D01*
X151793114Y-78419300D02*
X152586886Y-78419300D01*
X154333114Y-78419300D02*
X155126886Y-78419300D01*
X156873114Y-78419300D02*
X157666886Y-78419300D01*
X159413114Y-78419300D02*
X160206886Y-78419300D01*
X161953114Y-78419300D02*
X164813800Y-78419300D01*
X164813800Y-68843500D02*
X147186200Y-68843500D01*
X164813800Y-78419300D02*
X164813800Y-68843500D01*
D15*
X151301000Y-83524700D02*
G75*
G02*
X150539000Y-83524700I-381000J0D01*
G01*
X150539000Y-83524700D02*
G75*
G02*
X151301000Y-83524700I381000J0D01*
G01*
D13*
%TO.C,R10*%
X198640000Y-124677064D02*
X198640000Y-124222936D01*
X200110000Y-124677064D02*
X200110000Y-124222936D01*
D12*
%TO.C,SW3*%
X181955000Y-89800000D02*
X181955000Y-92100000D01*
X182750000Y-87955000D02*
X187250000Y-87955000D01*
X187250000Y-93945000D02*
X182650000Y-93945000D01*
X187950000Y-89800000D02*
X187950000Y-92100000D01*
D10*
X180605000Y-88700000D02*
G75*
G02*
X180405000Y-88700000I-100000J0D01*
G01*
X180405000Y-88700000D02*
G75*
G02*
X180605000Y-88700000I100000J0D01*
G01*
D12*
X186705000Y-90950000D02*
G75*
G02*
X183195000Y-90950000I-1755000J0D01*
G01*
X183195000Y-90950000D02*
G75*
G02*
X186705000Y-90950000I1755000J0D01*
G01*
D13*
%TO.C,R16*%
X198227064Y-120065000D02*
X197772936Y-120065000D01*
X198227064Y-121535000D02*
X197772936Y-121535000D01*
D12*
%TO.C,USB-C1*%
X195930000Y-68900000D02*
X195930000Y-70150000D01*
X195930000Y-72850000D02*
X195930000Y-73950000D01*
X204870000Y-68900000D02*
X195930000Y-68900000D01*
X204870000Y-68900000D02*
X204870000Y-70150000D01*
X204870000Y-72850000D02*
X204870000Y-73950000D01*
D13*
%TO.C,D1*%
X203130000Y-83600000D02*
X203130000Y-89040000D01*
X203130000Y-88020000D02*
X206070000Y-88020000D01*
X203130000Y-88140000D02*
X206070000Y-88140000D01*
X203130000Y-88260000D02*
X206070000Y-88260000D01*
X203130000Y-89040000D02*
X206070000Y-89040000D01*
X204600000Y-82580000D02*
X204600000Y-83600000D01*
X204600000Y-90060000D02*
X204600000Y-89040000D01*
X206070000Y-83600000D02*
X203130000Y-83600000D01*
X206070000Y-89040000D02*
X206070000Y-83600000D01*
%TO.C,R6*%
X185972936Y-102065000D02*
X186427064Y-102065000D01*
X185972936Y-103535000D02*
X186427064Y-103535000D01*
D14*
%TO.C,U4*%
X162421900Y-88631400D02*
X162421900Y-99248600D01*
X162421900Y-99248600D02*
X167578100Y-99248600D01*
X166104900Y-88758400D02*
X166104900Y-91052558D01*
X166104900Y-91747442D02*
X166104900Y-93592558D01*
X166104900Y-94287442D02*
X166104900Y-96132558D01*
X166104900Y-96827442D02*
X166104900Y-99121600D01*
X167578100Y-88631400D02*
X162421900Y-88631400D01*
X167578100Y-99248600D02*
X167578100Y-88631400D01*
X165127000Y-86853400D02*
G75*
G02*
X164873000Y-86853400I-127000J0D01*
G01*
X164873000Y-86853400D02*
G75*
G02*
X165127000Y-86853400I127000J0D01*
G01*
D13*
%TO.C,R8*%
X176465000Y-123627064D02*
X176465000Y-123172936D01*
X177935000Y-123627064D02*
X177935000Y-123172936D01*
D14*
%TO.C,U5*%
X178291400Y-121621900D02*
X178291400Y-126778100D01*
X178291400Y-126778100D02*
X188908600Y-126778100D01*
X180712558Y-125304900D02*
X178418400Y-125304900D01*
X183252558Y-125304900D02*
X181407442Y-125304900D01*
X185792558Y-125304900D02*
X183947442Y-125304900D01*
X188781600Y-125304900D02*
X186487442Y-125304900D01*
X188908600Y-121621900D02*
X178291400Y-121621900D01*
X188908600Y-126778100D02*
X188908600Y-121621900D01*
X190813600Y-124200000D02*
G75*
G02*
X190559600Y-124200000I-127000J0D01*
G01*
X190559600Y-124200000D02*
G75*
G02*
X190813600Y-124200000I127000J0D01*
G01*
D13*
%TO.C,Q1*%
X199062500Y-93840000D02*
X198412500Y-93840000D01*
X199062500Y-93840000D02*
X199712500Y-93840000D01*
X199062500Y-96960000D02*
X198412500Y-96960000D01*
X199062500Y-96960000D02*
X199712500Y-96960000D01*
X197900000Y-93890000D02*
X197660000Y-93560000D01*
X198140000Y-93560000D01*
X197900000Y-93890000D01*
G36*
X197900000Y-93890000D02*
G01*
X197660000Y-93560000D01*
X198140000Y-93560000D01*
X197900000Y-93890000D01*
G37*
%TO.C,R5*%
X180665000Y-129827064D02*
X180665000Y-129372936D01*
X182135000Y-129827064D02*
X182135000Y-129372936D01*
%TO.C,R14*%
X203772936Y-94265000D02*
X204227064Y-94265000D01*
X203772936Y-95735000D02*
X204227064Y-95735000D01*
%TO.C,C5*%
X207465000Y-95538748D02*
X207465000Y-96061252D01*
X208935000Y-95538748D02*
X208935000Y-96061252D01*
%TO.C,R15*%
X191372936Y-94065000D02*
X191827064Y-94065000D01*
X191372936Y-95535000D02*
X191827064Y-95535000D01*
%TO.C,C4*%
X197688748Y-84890000D02*
X199111252Y-84890000D01*
X197688748Y-86710000D02*
X199111252Y-86710000D01*
%TO.C,J2*%
X197530000Y-129270000D02*
X205270000Y-129270000D01*
X197530000Y-131870000D02*
X197530000Y-129270000D01*
X197530000Y-134470000D02*
X197530000Y-133140000D01*
X198860000Y-134470000D02*
X197530000Y-134470000D01*
X200130000Y-131870000D02*
X197530000Y-131870000D01*
X200130000Y-134470000D02*
X200130000Y-131870000D01*
X200130000Y-134470000D02*
X205270000Y-134470000D01*
X205270000Y-134470000D02*
X205270000Y-129270000D01*
%TO.C,R7*%
X163065000Y-85627064D02*
X163065000Y-85172936D01*
X164535000Y-85627064D02*
X164535000Y-85172936D01*
%TO.C,J5*%
X184695000Y-127420000D02*
X186025000Y-127420000D01*
X184695000Y-128750000D02*
X184695000Y-127420000D01*
X184695000Y-130020000D02*
X184695000Y-130080000D01*
X184695000Y-130020000D02*
X187295000Y-130020000D01*
X184695000Y-130080000D02*
X189895000Y-130080000D01*
X187295000Y-127420000D02*
X189895000Y-127420000D01*
X187295000Y-130020000D02*
X187295000Y-127420000D01*
X189895000Y-127420000D02*
X189895000Y-130080000D01*
%TO.C,R11*%
X194865000Y-95972936D02*
X194865000Y-96427064D01*
X196335000Y-95972936D02*
X196335000Y-96427064D01*
%TO.C,R1*%
X193572936Y-79465000D02*
X194027064Y-79465000D01*
X193572936Y-80935000D02*
X194027064Y-80935000D01*
%TO.C,C2*%
X200290000Y-91311252D02*
X200290000Y-89888748D01*
X202110000Y-91311252D02*
X202110000Y-89888748D01*
%TO.C,SW4*%
X184750000Y-71240000D02*
X194970000Y-71240000D01*
X194970000Y-73960000D01*
X184750000Y-73960000D01*
X184750000Y-71240000D01*
%TO.C,J4*%
X191205000Y-130130000D02*
X191205000Y-127470000D01*
X193805000Y-127530000D02*
X193805000Y-130130000D01*
X193805000Y-130130000D02*
X191205000Y-130130000D01*
X196405000Y-127470000D02*
X191205000Y-127470000D01*
X196405000Y-127530000D02*
X193805000Y-127530000D01*
X196405000Y-127530000D02*
X196405000Y-127470000D01*
X196405000Y-128800000D02*
X196405000Y-130130000D01*
X196405000Y-130130000D02*
X195075000Y-130130000D01*
D12*
%TO.C,J8*%
X165315000Y-68917500D02*
X182685000Y-68917500D01*
X165315000Y-78487500D02*
X165315000Y-68917500D01*
X182685000Y-68917500D02*
X182685000Y-78487500D01*
X182685000Y-78487500D02*
X165315000Y-78487500D01*
D16*
X170390000Y-85367500D02*
G75*
G02*
X169990000Y-85367500I-200000J0D01*
G01*
X169990000Y-85367500D02*
G75*
G02*
X170390000Y-85367500I200000J0D01*
G01*
D13*
%TO.C,R2*%
X190465000Y-86772936D02*
X190465000Y-87227064D01*
X191935000Y-86772936D02*
X191935000Y-87227064D01*
%TO.C,R13*%
X182227064Y-98265000D02*
X181772936Y-98265000D01*
X182227064Y-99735000D02*
X181772936Y-99735000D01*
%TO.C,C9*%
X182711252Y-94890000D02*
X181288748Y-94890000D01*
X182711252Y-96710000D02*
X181288748Y-96710000D01*
%TO.C,C3*%
X194311252Y-82290000D02*
X192888748Y-82290000D01*
X194311252Y-84110000D02*
X192888748Y-84110000D01*
D14*
%TO.C,J1*%
X216372400Y-75821801D02*
X216372400Y-85677001D01*
X216372400Y-85677001D02*
X226227600Y-85677001D01*
X226227600Y-75821801D02*
X216372400Y-75821801D01*
X226227600Y-85677001D02*
X226227600Y-75821801D01*
D15*
X216118400Y-78200000D02*
G75*
G02*
X215356400Y-78200000I-381000J0D01*
G01*
X215356400Y-78200000D02*
G75*
G02*
X216118400Y-78200000I381000J0D01*
G01*
D13*
%TO.C,J7*%
X181205000Y-120330000D02*
X181205000Y-117670000D01*
X183805000Y-117730000D02*
X183805000Y-120330000D01*
X183805000Y-120330000D02*
X181205000Y-120330000D01*
X186405000Y-117670000D02*
X181205000Y-117670000D01*
X186405000Y-117730000D02*
X183805000Y-117730000D01*
X186405000Y-117730000D02*
X186405000Y-117670000D01*
X186405000Y-119000000D02*
X186405000Y-120330000D01*
X186405000Y-120330000D02*
X185075000Y-120330000D01*
%TO.C,U1*%
X197662500Y-89890000D02*
X196862500Y-89890000D01*
X197662500Y-89890000D02*
X198462500Y-89890000D01*
X197662500Y-93010000D02*
X196862500Y-93010000D01*
X197662500Y-93010000D02*
X198462500Y-93010000D01*
X199202500Y-93290000D02*
X198722500Y-93290000D01*
X198962500Y-92960000D01*
X199202500Y-93290000D01*
G36*
X199202500Y-93290000D02*
G01*
X198722500Y-93290000D01*
X198962500Y-92960000D01*
X199202500Y-93290000D01*
G37*
%TO.C,C10*%
X210065000Y-95538748D02*
X210065000Y-96061252D01*
X211535000Y-95538748D02*
X211535000Y-96061252D01*
%TO.C,R4*%
X189627064Y-118065000D02*
X189172936Y-118065000D01*
X189627064Y-119535000D02*
X189172936Y-119535000D01*
%TD*%
M02*
