%TF.GenerationSoftware,KiCad,Pcbnew,8.0.8*%
%TF.CreationDate,2025-03-13T10:44:28-05:00*%
%TF.ProjectId,Final Project V1,46696e61-6c20-4507-926f-6a6563742056,rev?*%
%TF.SameCoordinates,Original*%
%TF.FileFunction,Soldermask,Bot*%
%TF.FilePolarity,Negative*%
%FSLAX46Y46*%
G04 Gerber Fmt 4.6, Leading zero omitted, Abs format (unit mm)*
G04 Created by KiCad (PCBNEW 8.0.8) date 2025-03-13 10:44:28*
%MOMM*%
%LPD*%
G01*
G04 APERTURE LIST*
G04 Aperture macros list*
%AMRoundRect*
0 Rectangle with rounded corners*
0 $1 Rounding radius*
0 $2 $3 $4 $5 $6 $7 $8 $9 X,Y pos of 4 corners*
0 Add a 4 corners polygon primitive as box body*
4,1,4,$2,$3,$4,$5,$6,$7,$8,$9,$2,$3,0*
0 Add four circle primitives for the rounded corners*
1,1,$1+$1,$2,$3*
1,1,$1+$1,$4,$5*
1,1,$1+$1,$6,$7*
1,1,$1+$1,$8,$9*
0 Add four rect primitives between the rounded corners*
20,1,$1+$1,$2,$3,$4,$5,0*
20,1,$1+$1,$4,$5,$6,$7,0*
20,1,$1+$1,$6,$7,$8,$9,0*
20,1,$1+$1,$8,$9,$2,$3,0*%
G04 Aperture macros list end*
%ADD10RoundRect,0.102000X-0.749000X0.749000X-0.749000X-0.749000X0.749000X-0.749000X0.749000X0.749000X0*%
%ADD11C,1.702000*%
%ADD12R,2.200000X2.200000*%
%ADD13O,2.200000X2.200000*%
%ADD14C,3.200000*%
%ADD15R,1.500000X1.500000*%
%ADD16C,1.600000*%
%ADD17R,1.700000X1.700000*%
%ADD18O,1.700000X1.700000*%
%ADD19C,1.524000*%
%ADD20RoundRect,0.102000X-0.749000X-0.749000X0.749000X-0.749000X0.749000X0.749000X-0.749000X0.749000X0*%
%ADD21O,1.204000X2.204000*%
%ADD22C,1.651000*%
%ADD23RoundRect,0.102000X0.765000X-0.765000X0.765000X0.765000X-0.765000X0.765000X-0.765000X-0.765000X0*%
%ADD24C,1.734000*%
%ADD25C,3.048000*%
%ADD26C,1.955800*%
G04 APERTURE END LIST*
D10*
%TO.C,SW6*%
X172250000Y-127150000D03*
D11*
X172250000Y-133650000D03*
X167750000Y-127150000D03*
X167750000Y-133650000D03*
%TD*%
D12*
%TO.C,D2*%
X209000000Y-91480000D03*
D13*
X209000000Y-81320000D03*
%TD*%
D14*
%TO.C,H3*%
X150800000Y-135600000D03*
%TD*%
D15*
%TO.C,SW5*%
X211260000Y-72600000D03*
D16*
X208720000Y-72600000D03*
X213800000Y-72600000D03*
%TD*%
D14*
%TO.C,H2*%
X226000000Y-137000000D03*
%TD*%
D17*
%TO.C,J3*%
X193600000Y-122600000D03*
D18*
X193600000Y-125140000D03*
X191060000Y-122600000D03*
X191060000Y-125140000D03*
%TD*%
D19*
%TO.C,J9*%
X150920000Y-81619700D03*
X150920000Y-79079700D03*
X153460000Y-81619700D03*
X153460000Y-79079700D03*
X156000000Y-81619700D03*
X156000000Y-79079700D03*
X158540000Y-81619700D03*
X158540000Y-79079700D03*
X161080000Y-81619700D03*
X161080000Y-79079700D03*
%TD*%
D20*
%TO.C,SW3*%
X181700000Y-88700000D03*
D11*
X188200000Y-88700000D03*
X181700000Y-93200000D03*
X188200000Y-93200000D03*
%TD*%
D21*
%TO.C,USB-C1*%
X204720000Y-75300000D03*
X196080000Y-75300000D03*
X204720000Y-71500000D03*
X196080000Y-71500000D03*
%TD*%
D12*
%TO.C,D1*%
X204600000Y-91400000D03*
D13*
X204600000Y-81240000D03*
%TD*%
D22*
%TO.C,U4*%
X165000000Y-91400000D03*
X165000000Y-93940000D03*
X165000000Y-96480000D03*
%TD*%
%TO.C,U5*%
X186140000Y-124200000D03*
X183600000Y-124200000D03*
X181060000Y-124200000D03*
%TD*%
D17*
%TO.C,J2*%
X198860000Y-133140000D03*
D18*
X198860000Y-130600000D03*
X201400000Y-133140000D03*
X201400000Y-130600000D03*
X203940000Y-133140000D03*
X203940000Y-130600000D03*
%TD*%
D17*
%TO.C,J5*%
X186025000Y-128750000D03*
D18*
X188565000Y-128750000D03*
%TD*%
D14*
%TO.C,H1*%
X227000000Y-72200000D03*
%TD*%
D15*
%TO.C,SW4*%
X189860000Y-72600000D03*
D16*
X187320000Y-72600000D03*
X192400000Y-72600000D03*
%TD*%
D17*
%TO.C,J4*%
X195075000Y-128800000D03*
D18*
X192535000Y-128800000D03*
%TD*%
D23*
%TO.C,J8*%
X170190000Y-82827500D03*
D24*
X170190000Y-80287500D03*
X172730000Y-82827500D03*
X172730000Y-80287500D03*
X175270000Y-82827500D03*
X175270000Y-80287500D03*
X177810000Y-82827500D03*
X177810000Y-80287500D03*
%TD*%
D14*
%TO.C,H4*%
X161400000Y-104600000D03*
%TD*%
D25*
%TO.C,J1*%
X228099999Y-83240000D03*
X214500000Y-83240000D03*
D26*
X219200000Y-78200000D03*
X223399998Y-78200000D03*
X219200000Y-83699999D03*
X223399998Y-83699999D03*
%TD*%
D17*
%TO.C,J7*%
X185075000Y-119000000D03*
D18*
X182535000Y-119000000D03*
%TD*%
M02*
