%TF.GenerationSoftware,KiCad,Pcbnew,8.0.8*%
%TF.CreationDate,2025-03-13T10:44:28-05:00*%
%TF.ProjectId,Final Project V1,46696e61-6c20-4507-926f-6a6563742056,rev?*%
%TF.SameCoordinates,Original*%
%TF.FileFunction,Soldermask,Top*%
%TF.FilePolarity,Negative*%
%FSLAX46Y46*%
G04 Gerber Fmt 4.6, Leading zero omitted, Abs format (unit mm)*
G04 Created by KiCad (PCBNEW 8.0.8) date 2025-03-13 10:44:28*
%MOMM*%
%LPD*%
G01*
G04 APERTURE LIST*
G04 Aperture macros list*
%AMRoundRect*
0 Rectangle with rounded corners*
0 $1 Rounding radius*
0 $2 $3 $4 $5 $6 $7 $8 $9 X,Y pos of 4 corners*
0 Add a 4 corners polygon primitive as box body*
4,1,4,$2,$3,$4,$5,$6,$7,$8,$9,$2,$3,0*
0 Add four circle primitives for the rounded corners*
1,1,$1+$1,$2,$3*
1,1,$1+$1,$4,$5*
1,1,$1+$1,$6,$7*
1,1,$1+$1,$8,$9*
0 Add four rect primitives between the rounded corners*
20,1,$1+$1,$2,$3,$4,$5,0*
20,1,$1+$1,$4,$5,$6,$7,0*
20,1,$1+$1,$6,$7,$8,$9,0*
20,1,$1+$1,$8,$9,$2,$3,0*%
%AMFreePoly0*
4,1,6,1.000000,0.000000,0.500000,-0.750000,-0.500000,-0.750000,-0.500000,0.750000,0.500000,0.750000,1.000000,0.000000,1.000000,0.000000,$1*%
G04 Aperture macros list end*
%ADD10RoundRect,0.102000X-0.749000X0.749000X-0.749000X-0.749000X0.749000X-0.749000X0.749000X0.749000X0*%
%ADD11C,1.702000*%
%ADD12R,2.200000X2.200000*%
%ADD13O,2.200000X2.200000*%
%ADD14C,3.200000*%
%ADD15RoundRect,0.250000X0.350000X0.450000X-0.350000X0.450000X-0.350000X-0.450000X0.350000X-0.450000X0*%
%ADD16RoundRect,0.150000X-0.150000X0.587500X-0.150000X-0.587500X0.150000X-0.587500X0.150000X0.587500X0*%
%ADD17R,1.500000X1.500000*%
%ADD18C,1.600000*%
%ADD19RoundRect,0.098000X0.609000X0.294000X-0.609000X0.294000X-0.609000X-0.294000X0.609000X-0.294000X0*%
%ADD20RoundRect,0.250000X-0.350000X-0.450000X0.350000X-0.450000X0.350000X0.450000X-0.350000X0.450000X0*%
%ADD21R,0.900000X1.500000*%
%ADD22R,1.500000X0.900000*%
%ADD23C,0.600000*%
%ADD24R,3.900000X3.900000*%
%ADD25FreePoly0,90.000000*%
%ADD26FreePoly0,270.000000*%
%ADD27RoundRect,0.250000X0.450000X-0.350000X0.450000X0.350000X-0.450000X0.350000X-0.450000X-0.350000X0*%
%ADD28RoundRect,0.250000X0.650000X-0.412500X0.650000X0.412500X-0.650000X0.412500X-0.650000X-0.412500X0*%
%ADD29R,1.700000X1.700000*%
%ADD30O,1.700000X1.700000*%
%ADD31C,1.524000*%
%ADD32RoundRect,0.102000X-0.749000X-0.749000X0.749000X-0.749000X0.749000X0.749000X-0.749000X0.749000X0*%
%ADD33RoundRect,0.102000X0.350000X0.575000X-0.350000X0.575000X-0.350000X-0.575000X0.350000X-0.575000X0*%
%ADD34RoundRect,0.102000X0.400000X0.575000X-0.400000X0.575000X-0.400000X-0.575000X0.400000X-0.575000X0*%
%ADD35RoundRect,0.102000X0.450000X0.575000X-0.450000X0.575000X-0.450000X-0.575000X0.450000X-0.575000X0*%
%ADD36O,1.204000X2.204000*%
%ADD37C,1.651000*%
%ADD38RoundRect,0.150000X-0.587500X-0.150000X0.587500X-0.150000X0.587500X0.150000X-0.587500X0.150000X0*%
%ADD39RoundRect,0.250000X-0.475000X0.337500X-0.475000X-0.337500X0.475000X-0.337500X0.475000X0.337500X0*%
%ADD40RoundRect,0.250000X-0.412500X-0.650000X0.412500X-0.650000X0.412500X0.650000X-0.412500X0.650000X0*%
%ADD41RoundRect,0.250000X-0.450000X0.350000X-0.450000X-0.350000X0.450000X-0.350000X0.450000X0.350000X0*%
%ADD42RoundRect,0.102000X0.765000X-0.765000X0.765000X0.765000X-0.765000X0.765000X-0.765000X-0.765000X0*%
%ADD43C,1.734000*%
%ADD44RoundRect,0.250000X0.412500X0.650000X-0.412500X0.650000X-0.412500X-0.650000X0.412500X-0.650000X0*%
%ADD45C,3.048000*%
%ADD46C,1.955800*%
%ADD47RoundRect,0.150000X0.512500X0.150000X-0.512500X0.150000X-0.512500X-0.150000X0.512500X-0.150000X0*%
G04 APERTURE END LIST*
D10*
%TO.C,SW6*%
X172250000Y-127150000D03*
D11*
X172250000Y-133650000D03*
X167750000Y-127150000D03*
X167750000Y-133650000D03*
%TD*%
D12*
%TO.C,D2*%
X209000000Y-91480000D03*
D13*
X209000000Y-81320000D03*
%TD*%
D14*
%TO.C,H3*%
X150800000Y-135600000D03*
%TD*%
D15*
%TO.C,R3*%
X187200000Y-105400000D03*
X185200000Y-105400000D03*
%TD*%
D16*
%TO.C,Q2*%
X187550000Y-97925000D03*
X185650000Y-97925000D03*
X186600000Y-99800000D03*
%TD*%
D17*
%TO.C,SW5*%
X211260000Y-72600000D03*
D18*
X208720000Y-72600000D03*
X213800000Y-72600000D03*
%TD*%
D14*
%TO.C,H2*%
X226000000Y-137000000D03*
%TD*%
D19*
%TO.C,U3*%
X200455000Y-82950000D03*
X200455000Y-82000000D03*
X200455000Y-81050000D03*
X197945000Y-81050000D03*
X197945000Y-82000000D03*
X197945000Y-82950000D03*
%TD*%
D20*
%TO.C,R12*%
X190600000Y-97400000D03*
X192600000Y-97400000D03*
%TD*%
D21*
%TO.C,U2*%
X211000000Y-101200000D03*
X209730000Y-101200000D03*
X208460000Y-101200000D03*
X207190000Y-101200000D03*
X205920000Y-101200000D03*
X204650000Y-101200000D03*
X203380000Y-101200000D03*
X202110000Y-101200000D03*
X200840000Y-101200000D03*
X199570000Y-101200000D03*
X198300000Y-101200000D03*
X197030000Y-101200000D03*
X195760000Y-101200000D03*
X194490000Y-101200000D03*
D22*
X193240000Y-102965000D03*
X193240000Y-104235000D03*
X193240000Y-105505000D03*
X193240000Y-106775000D03*
X193240000Y-108045000D03*
X193240000Y-109315000D03*
X193240000Y-110585000D03*
X193240000Y-111855000D03*
X193240000Y-113125000D03*
X193240000Y-114395000D03*
X193240000Y-115665000D03*
X193240000Y-116935000D03*
D21*
X194490000Y-118700000D03*
X195760000Y-118700000D03*
X197030000Y-118700000D03*
X198300000Y-118700000D03*
X199570000Y-118700000D03*
X200840000Y-118700000D03*
X202110000Y-118700000D03*
X203380000Y-118700000D03*
X204650000Y-118700000D03*
X205920000Y-118700000D03*
X207190000Y-118700000D03*
X208460000Y-118700000D03*
X209730000Y-118700000D03*
X211000000Y-118700000D03*
D23*
X203980000Y-107050000D03*
X202580000Y-107050000D03*
X204680000Y-107750000D03*
X203280000Y-107750000D03*
X201880000Y-107750000D03*
X203980000Y-108450000D03*
D24*
X203280000Y-108450000D03*
D23*
X202580000Y-108450000D03*
X204680000Y-109150000D03*
X203280000Y-109150000D03*
X201880000Y-109150000D03*
X203980000Y-109850000D03*
X202580000Y-109850000D03*
%TD*%
D17*
%TO.C,JP1*%
X178400000Y-104800000D03*
X178400000Y-102400000D03*
D25*
X178400000Y-105600000D03*
D26*
X178400000Y-101600000D03*
%TD*%
D27*
%TO.C,R9*%
X166400000Y-87000000D03*
X166400000Y-85000000D03*
%TD*%
D28*
%TO.C,C1*%
X193800000Y-92162500D03*
X193800000Y-89037500D03*
%TD*%
D29*
%TO.C,J3*%
X193600000Y-122600000D03*
D30*
X193600000Y-125140000D03*
X191060000Y-122600000D03*
X191060000Y-125140000D03*
%TD*%
D28*
%TO.C,C6*%
X196775000Y-126012500D03*
X196775000Y-122887500D03*
%TD*%
D31*
%TO.C,J9*%
X150920000Y-81619700D03*
X150920000Y-79079700D03*
X153460000Y-81619700D03*
X153460000Y-79079700D03*
X156000000Y-81619700D03*
X156000000Y-79079700D03*
X158540000Y-81619700D03*
X158540000Y-79079700D03*
X161080000Y-81619700D03*
X161080000Y-79079700D03*
%TD*%
D27*
%TO.C,R10*%
X199375000Y-125450000D03*
X199375000Y-123450000D03*
%TD*%
D32*
%TO.C,SW3*%
X181700000Y-88700000D03*
D11*
X188200000Y-88700000D03*
X181700000Y-93200000D03*
X188200000Y-93200000D03*
%TD*%
D15*
%TO.C,R16*%
X199000000Y-120800000D03*
X197000000Y-120800000D03*
%TD*%
D33*
%TO.C,USB-C1*%
X200900000Y-75305000D03*
D34*
X198880000Y-75305000D03*
D35*
X197650000Y-75305000D03*
D33*
X199900000Y-75305000D03*
D34*
X201920000Y-75305000D03*
D35*
X203150000Y-75305000D03*
D36*
X204720000Y-75300000D03*
X196080000Y-75300000D03*
X204720000Y-71500000D03*
X196080000Y-71500000D03*
%TD*%
D12*
%TO.C,D1*%
X204600000Y-91400000D03*
D13*
X204600000Y-81240000D03*
%TD*%
D20*
%TO.C,R6*%
X185200000Y-102800000D03*
X187200000Y-102800000D03*
%TD*%
D37*
%TO.C,U4*%
X165000000Y-91400000D03*
X165000000Y-93940000D03*
X165000000Y-96480000D03*
%TD*%
D27*
%TO.C,R8*%
X177200000Y-124400000D03*
X177200000Y-122400000D03*
%TD*%
D37*
%TO.C,U5*%
X186140000Y-124200000D03*
X183600000Y-124200000D03*
X181060000Y-124200000D03*
%TD*%
D38*
%TO.C,Q1*%
X198125000Y-94450000D03*
X198125000Y-96350000D03*
X200000000Y-95400000D03*
%TD*%
D27*
%TO.C,R5*%
X181400000Y-130600000D03*
X181400000Y-128600000D03*
%TD*%
D20*
%TO.C,R14*%
X203000000Y-95000000D03*
X205000000Y-95000000D03*
%TD*%
D39*
%TO.C,C5*%
X208200000Y-94762500D03*
X208200000Y-96837500D03*
%TD*%
D20*
%TO.C,R15*%
X190600000Y-94800000D03*
X192600000Y-94800000D03*
%TD*%
D40*
%TO.C,C4*%
X196837500Y-85800000D03*
X199962500Y-85800000D03*
%TD*%
D29*
%TO.C,J2*%
X198860000Y-133140000D03*
D30*
X198860000Y-130600000D03*
X201400000Y-133140000D03*
X201400000Y-130600000D03*
X203940000Y-133140000D03*
X203940000Y-130600000D03*
%TD*%
D27*
%TO.C,R7*%
X163800000Y-86400000D03*
X163800000Y-84400000D03*
%TD*%
D29*
%TO.C,J5*%
X186025000Y-128750000D03*
D30*
X188565000Y-128750000D03*
%TD*%
D41*
%TO.C,R11*%
X195600000Y-95200000D03*
X195600000Y-97200000D03*
%TD*%
D14*
%TO.C,H1*%
X227000000Y-72200000D03*
%TD*%
D20*
%TO.C,R1*%
X192800000Y-80200000D03*
X194800000Y-80200000D03*
%TD*%
D28*
%TO.C,C2*%
X201200000Y-92162500D03*
X201200000Y-89037500D03*
%TD*%
D17*
%TO.C,SW4*%
X189860000Y-72600000D03*
D18*
X187320000Y-72600000D03*
X192400000Y-72600000D03*
%TD*%
D29*
%TO.C,J4*%
X195075000Y-128800000D03*
D30*
X192535000Y-128800000D03*
%TD*%
D42*
%TO.C,J8*%
X170190000Y-82827500D03*
D43*
X170190000Y-80287500D03*
X172730000Y-82827500D03*
X172730000Y-80287500D03*
X175270000Y-82827500D03*
X175270000Y-80287500D03*
X177810000Y-82827500D03*
X177810000Y-80287500D03*
%TD*%
D41*
%TO.C,R2*%
X191200000Y-86000000D03*
X191200000Y-88000000D03*
%TD*%
D15*
%TO.C,R13*%
X183000000Y-99000000D03*
X181000000Y-99000000D03*
%TD*%
D44*
%TO.C,C9*%
X183562500Y-95800000D03*
X180437500Y-95800000D03*
%TD*%
D14*
%TO.C,H4*%
X161400000Y-104600000D03*
%TD*%
D44*
%TO.C,C3*%
X195162500Y-83200000D03*
X192037500Y-83200000D03*
%TD*%
D45*
%TO.C,J1*%
X228099999Y-83240000D03*
X214500000Y-83240000D03*
D46*
X219200000Y-78200000D03*
X223399998Y-78200000D03*
X219200000Y-83699999D03*
X223399998Y-83699999D03*
%TD*%
D29*
%TO.C,J7*%
X185075000Y-119000000D03*
D30*
X182535000Y-119000000D03*
%TD*%
D47*
%TO.C,U1*%
X198800000Y-92400000D03*
X198800000Y-91450000D03*
X198800000Y-90500000D03*
X196525000Y-90500000D03*
X196525000Y-92400000D03*
%TD*%
D39*
%TO.C,C10*%
X210800000Y-94762500D03*
X210800000Y-96837500D03*
%TD*%
D15*
%TO.C,R4*%
X190400000Y-118800000D03*
X188400000Y-118800000D03*
%TD*%
M02*
