G04 #@! TF.GenerationSoftware,KiCad,Pcbnew,6.0.9-1.fc35*
G04 #@! TF.CreationDate,2023-07-15T13:58:04-04:00*
G04 #@! TF.ProjectId,esp32_example,65737033-325f-4657-9861-6d706c652e6b,rev?*
G04 #@! TF.SameCoordinates,Original*
G04 #@! TF.FileFunction,Soldermask,Bot*
G04 #@! TF.FilePolarity,Negative*
%FSLAX46Y46*%
G04 Gerber Fmt 4.6, Leading zero omitted, Abs format (unit mm)*
G04 Created by KiCad (PCBNEW 6.0.9-1.fc35) date 2023-07-15 13:58:04*
%MOMM*%
%LPD*%
G01*
G04 APERTURE LIST*
G04 Aperture macros list*
%AMRoundRect*
0 Rectangle with rounded corners*
0 $1 Rounding radius*
0 $2 $3 $4 $5 $6 $7 $8 $9 X,Y pos of 4 corners*
0 Add a 4 corners polygon primitive as box body*
4,1,4,$2,$3,$4,$5,$6,$7,$8,$9,$2,$3,0*
0 Add four circle primitives for the rounded corners*
1,1,$1+$1,$2,$3*
1,1,$1+$1,$4,$5*
1,1,$1+$1,$6,$7*
1,1,$1+$1,$8,$9*
0 Add four rect primitives between the rounded corners*
20,1,$1+$1,$2,$3,$4,$5,0*
20,1,$1+$1,$4,$5,$6,$7,0*
20,1,$1+$1,$6,$7,$8,$9,0*
20,1,$1+$1,$8,$9,$2,$3,0*%
%AMFreePoly0*
4,1,6,1.000000,0.000000,0.500000,-0.750000,-0.500000,-0.750000,-0.500000,0.750000,0.500000,0.750000,1.000000,0.000000,1.000000,0.000000,$1*%
%AMFreePoly1*
4,1,6,0.500000,-0.750000,-0.650000,-0.750000,-0.150000,0.000000,-0.650000,0.750000,0.500000,0.750000,0.500000,-0.750000,0.500000,-0.750000,$1*%
G04 Aperture macros list end*
%ADD10C,2.800000*%
%ADD11R,1.700000X1.700000*%
%ADD12O,1.700000X1.700000*%
%ADD13C,3.200000*%
%ADD14R,2.600000X2.600000*%
%ADD15C,2.600000*%
%ADD16O,0.950000X1.250000*%
%ADD17O,1.550000X0.890000*%
%ADD18RoundRect,0.250000X0.600000X0.600000X-0.600000X0.600000X-0.600000X-0.600000X0.600000X-0.600000X0*%
%ADD19C,1.700000*%
%ADD20RoundRect,0.250000X-0.262500X-0.450000X0.262500X-0.450000X0.262500X0.450000X-0.262500X0.450000X0*%
%ADD21FreePoly0,90.000000*%
%ADD22FreePoly1,90.000000*%
G04 APERTURE END LIST*
D10*
X161300000Y-126100000D03*
X160730000Y-89290000D03*
D11*
X119400000Y-96600000D03*
D12*
X119400000Y-99140000D03*
X119400000Y-101680000D03*
X119400000Y-104220000D03*
X119400000Y-106760000D03*
X119400000Y-109300000D03*
X119400000Y-111840000D03*
X119400000Y-114380000D03*
X119400000Y-116920000D03*
D10*
X168555000Y-118995000D03*
X172550000Y-143600000D03*
D11*
X161800000Y-94525000D03*
D12*
X161800000Y-97065000D03*
X161800000Y-99605000D03*
X161800000Y-102145000D03*
X161800000Y-104685000D03*
D10*
X146530000Y-125240000D03*
D13*
X121500000Y-162500000D03*
D10*
X155920000Y-89270000D03*
D14*
X128555000Y-161405000D03*
D15*
X133635000Y-161405000D03*
D11*
X172440000Y-136785000D03*
D12*
X172440000Y-134245000D03*
X172440000Y-131705000D03*
X172440000Y-129165000D03*
X172440000Y-126625000D03*
X172440000Y-124085000D03*
X172440000Y-121545000D03*
X172440000Y-119005000D03*
D16*
X121650000Y-122700000D03*
X121650000Y-127700000D03*
D17*
X118950000Y-128700000D03*
X118950000Y-121700000D03*
D10*
X165400000Y-128700000D03*
D13*
X171000000Y-162500000D03*
X171000000Y-91000000D03*
D18*
X170730000Y-110850000D03*
D19*
X168190000Y-110850000D03*
X170730000Y-108310000D03*
X168190000Y-108310000D03*
X170730000Y-105770000D03*
X168190000Y-105770000D03*
X170730000Y-103230000D03*
X168190000Y-103230000D03*
X170730000Y-100690000D03*
X168190000Y-100690000D03*
D10*
X161200000Y-130700000D03*
X146620000Y-129810000D03*
D14*
X149661800Y-161455000D03*
D15*
X154741800Y-161455000D03*
D14*
X123000000Y-134750000D03*
D15*
X123000000Y-139830000D03*
D10*
X164155000Y-118995000D03*
X165300000Y-133000000D03*
X165200000Y-151750000D03*
D13*
X121500000Y-91000000D03*
D20*
X136697500Y-109810000D03*
X138522500Y-109810000D03*
D21*
X170740000Y-114780000D03*
D22*
X170740000Y-113330000D03*
M02*
