M48
INCH,TZ
T1C0.0118
T2C0.0157
T3C0.0197
T4C0.0217
T5C0.0394
T6C0.0512
T7C0.0630
%
G90
G05
T1
X47402Y-48504
X47402Y-48819
X47500Y-59665
X47500Y-60079
X47791Y-58622
X47791Y-59035
X48189Y-56378
X48189Y-56693
X48189Y-57008
X48189Y-57402
X48189Y-57717
X48189Y-58110
X48661Y-56378
X48661Y-56693
X48661Y-57087
X48661Y-57402
X48661Y-57717
X48661Y-58110
X48701Y-59665
X48701Y-60059
X48740Y-50394
X48740Y-50787
X48992Y-58583
X48992Y-58996
X49026Y-45128
X49311Y-36909
X49646Y-56732
X49902Y-42579
X49911Y-34724
X49921Y-38248
X50000Y-35492
X50591Y-60315
X50719Y-37490
X50876Y-42579
X50945Y-59961
X50945Y-60315
X51014Y-45551
X51132Y-43967
X51142Y-43563
X51358Y-59961
X51358Y-60315
X51575Y-43967
X51772Y-59961
X51772Y-60315
X52185Y-59961
X52382Y-43150
X52470Y-41900
X52746Y-43150
X52756Y-43504
X53150Y-35260
X53150Y-35906
X53307Y-34715
X53455Y-45020
X53740Y-49311
X53740Y-49803
X53740Y-50295
X53740Y-50787
X53740Y-58366
X53811Y-42240
X53848Y-45020
X54134Y-58366
X54213Y-60472
X54228Y-41228
X54232Y-45010
X54232Y-49311
X54232Y-49803
X54232Y-50295
X54232Y-50787
X54236Y-42437
X54409Y-37244
X54409Y-37795
X54409Y-38346
X54429Y-65256
X54567Y-43839
X54724Y-49803
X54724Y-50295
X54724Y-50787
X54764Y-59587
X54764Y-60020
X54764Y-60472
X54783Y-59094
X54961Y-36614
X54961Y-38976
X55217Y-50295
X55217Y-50787
X55217Y-59094
X55492Y-60492
X55512Y-36614
X55512Y-38976
X55630Y-59094
X55807Y-64724
X55945Y-60492
X56063Y-36614
X56063Y-38976
X56063Y-59094
X56535Y-43429
X56693Y-37244
X56693Y-37795
X56693Y-38346
X56909Y-59646
X56909Y-59980
X57047Y-57323
X57165Y-45906
X57165Y-46220
X57165Y-46535
X57165Y-46850
X57283Y-58701
X57283Y-59075
X57480Y-45906
X57480Y-46220
X57480Y-46535
X57480Y-46850
X57890Y-36382
X58413Y-36378
X58736Y-40098
X58799Y-60335
X58819Y-37323
X58819Y-37795
X58819Y-38268
X58819Y-38740
X58819Y-41102
X58937Y-36260
X59028Y-54496
X59094Y-42480
X59176Y-60000
X59176Y-60335
X59589Y-60000
X59589Y-60335
X59626Y-43602
X59650Y-55803
X60003Y-60000
X60003Y-60335
X60416Y-60000
X60945Y-46299
X61339Y-36929
X61457Y-44921
X61693Y-46299
X61890Y-58307
X62283Y-58307
X62362Y-41260
X62382Y-60453
X62417Y-64142
X62417Y-64902
X62516Y-39457
X62669Y-40299
X62756Y-42126
X62933Y-59567
X62933Y-60000
X62933Y-60453
X63150Y-45787
X63150Y-47402
X63632Y-59203
X63671Y-60591
X65148Y-64530
X65740Y-61740
X65965Y-49295
X66209Y-60315
X66453Y-49291
X67480Y-58268
X67480Y-58661
T2
X48563Y-49557
X50020Y-48406
X51870Y-50295
T5
X47008Y-38031
X47008Y-39031
X47008Y-40031
X47008Y-41031
X47008Y-42031
X47008Y-43031
X47008Y-44031
X47008Y-45031
X47008Y-46031
X63701Y-37215
X63701Y-38215
X63701Y-39215
X63701Y-40215
X63701Y-41215
X66217Y-39642
X66217Y-40642
X66217Y-41642
X66217Y-42642
X66217Y-43642
X67217Y-39642
X67217Y-40642
X67217Y-41642
X67217Y-42642
X67217Y-43642
X67890Y-46852
X67890Y-47852
X67890Y-48852
X67890Y-49852
X67890Y-50852
X67890Y-51852
X67890Y-52852
X67890Y-53852
T6
X48425Y-53051
X48425Y-55051
X50612Y-63545
X52612Y-63545
X58922Y-63565
X60922Y-63565
T7
X57689Y-49307
X57724Y-51106
X61386Y-35146
X63280Y-35154
X63465Y-51457
X63504Y-49646
X64628Y-46848
X65039Y-59744
X65079Y-52362
X65118Y-50669
X66360Y-46848
X67933Y-56535
T3
X46959Y-47913G85X46703Y-47913
G05
X46959Y-50669G85X46703Y-50669
G05
T4
X47894Y-48248G85X47894Y-48366
G05
X47894Y-50217G85X47894Y-50335
G05
T0
M30
