G04 #@! TF.GenerationSoftware,KiCad,Pcbnew,6.0.9-1.fc35*
G04 #@! TF.CreationDate,2023-07-15T13:58:04-04:00*
G04 #@! TF.ProjectId,esp32_example,65737033-325f-4657-9861-6d706c652e6b,rev?*
G04 #@! TF.SameCoordinates,Original*
G04 #@! TF.FileFunction,Legend,Top*
G04 #@! TF.FilePolarity,Positive*
%FSLAX46Y46*%
G04 Gerber Fmt 4.6, Leading zero omitted, Abs format (unit mm)*
G04 Created by KiCad (PCBNEW 6.0.9-1.fc35) date 2023-07-15 13:58:04*
%MOMM*%
%LPD*%
G01*
G04 APERTURE LIST*
%ADD10C,0.300000*%
%ADD11C,0.150000*%
%ADD12C,0.120000*%
%ADD13C,0.152400*%
G04 APERTURE END LIST*
D10*
X118667142Y-131211428D02*
X118667142Y-130068571D01*
X118668571Y-144227142D02*
X119811428Y-144227142D01*
X119240000Y-144798571D02*
X119240000Y-143655714D01*
D11*
X149463571Y-136870476D02*
X149463571Y-136537142D01*
X149987380Y-136394285D02*
X149987380Y-136870476D01*
X148987380Y-136870476D01*
X148987380Y-136394285D01*
X149939761Y-136013333D02*
X149987380Y-135870476D01*
X149987380Y-135632380D01*
X149939761Y-135537142D01*
X149892142Y-135489523D01*
X149796904Y-135441904D01*
X149701666Y-135441904D01*
X149606428Y-135489523D01*
X149558809Y-135537142D01*
X149511190Y-135632380D01*
X149463571Y-135822857D01*
X149415952Y-135918095D01*
X149368333Y-135965714D01*
X149273095Y-136013333D01*
X149177857Y-136013333D01*
X149082619Y-135965714D01*
X149035000Y-135918095D01*
X148987380Y-135822857D01*
X148987380Y-135584761D01*
X149035000Y-135441904D01*
X149987380Y-135013333D02*
X148987380Y-135013333D01*
X148987380Y-134632380D01*
X149035000Y-134537142D01*
X149082619Y-134489523D01*
X149177857Y-134441904D01*
X149320714Y-134441904D01*
X149415952Y-134489523D01*
X149463571Y-134537142D01*
X149511190Y-134632380D01*
X149511190Y-135013333D01*
X148987380Y-134108571D02*
X148987380Y-133489523D01*
X149368333Y-133822857D01*
X149368333Y-133680000D01*
X149415952Y-133584761D01*
X149463571Y-133537142D01*
X149558809Y-133489523D01*
X149796904Y-133489523D01*
X149892142Y-133537142D01*
X149939761Y-133584761D01*
X149987380Y-133680000D01*
X149987380Y-133965714D01*
X149939761Y-134060952D01*
X149892142Y-134108571D01*
X149082619Y-133108571D02*
X149035000Y-133060952D01*
X148987380Y-132965714D01*
X148987380Y-132727619D01*
X149035000Y-132632380D01*
X149082619Y-132584761D01*
X149177857Y-132537142D01*
X149273095Y-132537142D01*
X149415952Y-132584761D01*
X149987380Y-133156190D01*
X149987380Y-132537142D01*
X149987380Y-131346666D02*
X148987380Y-131346666D01*
X149701666Y-131013333D01*
X148987380Y-130680000D01*
X149987380Y-130680000D01*
X149987380Y-130060952D02*
X149939761Y-130156190D01*
X149892142Y-130203809D01*
X149796904Y-130251428D01*
X149511190Y-130251428D01*
X149415952Y-130203809D01*
X149368333Y-130156190D01*
X149320714Y-130060952D01*
X149320714Y-129918095D01*
X149368333Y-129822857D01*
X149415952Y-129775238D01*
X149511190Y-129727619D01*
X149796904Y-129727619D01*
X149892142Y-129775238D01*
X149939761Y-129822857D01*
X149987380Y-129918095D01*
X149987380Y-130060952D01*
X149320714Y-129441904D02*
X149320714Y-129060952D01*
X148987380Y-129299047D02*
X149844523Y-129299047D01*
X149939761Y-129251428D01*
X149987380Y-129156190D01*
X149987380Y-129060952D01*
X149987380Y-128584761D02*
X149939761Y-128680000D01*
X149892142Y-128727619D01*
X149796904Y-128775238D01*
X149511190Y-128775238D01*
X149415952Y-128727619D01*
X149368333Y-128680000D01*
X149320714Y-128584761D01*
X149320714Y-128441904D01*
X149368333Y-128346666D01*
X149415952Y-128299047D01*
X149511190Y-128251428D01*
X149796904Y-128251428D01*
X149892142Y-128299047D01*
X149939761Y-128346666D01*
X149987380Y-128441904D01*
X149987380Y-128584761D01*
X149987380Y-127822857D02*
X149320714Y-127822857D01*
X149511190Y-127822857D02*
X149415952Y-127775238D01*
X149368333Y-127727619D01*
X149320714Y-127632380D01*
X149320714Y-127537142D01*
X149892142Y-125870476D02*
X149939761Y-125918095D01*
X149987380Y-126060952D01*
X149987380Y-126156190D01*
X149939761Y-126299047D01*
X149844523Y-126394285D01*
X149749285Y-126441904D01*
X149558809Y-126489523D01*
X149415952Y-126489523D01*
X149225476Y-126441904D01*
X149130238Y-126394285D01*
X149035000Y-126299047D01*
X148987380Y-126156190D01*
X148987380Y-126060952D01*
X149035000Y-125918095D01*
X149082619Y-125870476D01*
X149987380Y-125299047D02*
X149939761Y-125394285D01*
X149892142Y-125441904D01*
X149796904Y-125489523D01*
X149511190Y-125489523D01*
X149415952Y-125441904D01*
X149368333Y-125394285D01*
X149320714Y-125299047D01*
X149320714Y-125156190D01*
X149368333Y-125060952D01*
X149415952Y-125013333D01*
X149511190Y-124965714D01*
X149796904Y-124965714D01*
X149892142Y-125013333D01*
X149939761Y-125060952D01*
X149987380Y-125156190D01*
X149987380Y-125299047D01*
X149320714Y-124537142D02*
X149987380Y-124537142D01*
X149415952Y-124537142D02*
X149368333Y-124489523D01*
X149320714Y-124394285D01*
X149320714Y-124251428D01*
X149368333Y-124156190D01*
X149463571Y-124108571D01*
X149987380Y-124108571D01*
X149320714Y-123775238D02*
X149320714Y-123394285D01*
X148987380Y-123632380D02*
X149844523Y-123632380D01*
X149939761Y-123584761D01*
X149987380Y-123489523D01*
X149987380Y-123394285D01*
X149987380Y-123060952D02*
X149320714Y-123060952D01*
X149511190Y-123060952D02*
X149415952Y-123013333D01*
X149368333Y-122965714D01*
X149320714Y-122870476D01*
X149320714Y-122775238D01*
X149987380Y-122299047D02*
X149939761Y-122394285D01*
X149892142Y-122441904D01*
X149796904Y-122489523D01*
X149511190Y-122489523D01*
X149415952Y-122441904D01*
X149368333Y-122394285D01*
X149320714Y-122299047D01*
X149320714Y-122156190D01*
X149368333Y-122060952D01*
X149415952Y-122013333D01*
X149511190Y-121965714D01*
X149796904Y-121965714D01*
X149892142Y-122013333D01*
X149939761Y-122060952D01*
X149987380Y-122156190D01*
X149987380Y-122299047D01*
X149987380Y-121394285D02*
X149939761Y-121489523D01*
X149844523Y-121537142D01*
X148987380Y-121537142D01*
X149987380Y-120870476D02*
X149939761Y-120965714D01*
X149844523Y-121013333D01*
X148987380Y-121013333D01*
X149939761Y-120108571D02*
X149987380Y-120203809D01*
X149987380Y-120394285D01*
X149939761Y-120489523D01*
X149844523Y-120537142D01*
X149463571Y-120537142D01*
X149368333Y-120489523D01*
X149320714Y-120394285D01*
X149320714Y-120203809D01*
X149368333Y-120108571D01*
X149463571Y-120060952D01*
X149558809Y-120060952D01*
X149654047Y-120537142D01*
X149987380Y-119632380D02*
X149320714Y-119632380D01*
X149511190Y-119632380D02*
X149415952Y-119584761D01*
X149368333Y-119537142D01*
X149320714Y-119441904D01*
X149320714Y-119346666D01*
X149987380Y-117680000D02*
X149511190Y-118013333D01*
X149987380Y-118251428D02*
X148987380Y-118251428D01*
X148987380Y-117870476D01*
X149035000Y-117775238D01*
X149082619Y-117727619D01*
X149177857Y-117680000D01*
X149320714Y-117680000D01*
X149415952Y-117727619D01*
X149463571Y-117775238D01*
X149511190Y-117870476D01*
X149511190Y-118251428D01*
X149939761Y-116870476D02*
X149987380Y-116965714D01*
X149987380Y-117156190D01*
X149939761Y-117251428D01*
X149844523Y-117299047D01*
X149463571Y-117299047D01*
X149368333Y-117251428D01*
X149320714Y-117156190D01*
X149320714Y-116965714D01*
X149368333Y-116870476D01*
X149463571Y-116822857D01*
X149558809Y-116822857D01*
X149654047Y-117299047D01*
X149320714Y-116489523D02*
X149987380Y-116251428D01*
X149320714Y-116013333D01*
X149701666Y-114918095D02*
X149701666Y-114441904D01*
X149987380Y-115013333D02*
X148987380Y-114680000D01*
X149987380Y-114346666D01*
X150597380Y-131703809D02*
X151311666Y-131703809D01*
X151454523Y-131751428D01*
X151549761Y-131846666D01*
X151597380Y-131989523D01*
X151597380Y-132084761D01*
X151597380Y-130799047D02*
X151073571Y-130799047D01*
X150978333Y-130846666D01*
X150930714Y-130941904D01*
X150930714Y-131132380D01*
X150978333Y-131227619D01*
X151549761Y-130799047D02*
X151597380Y-130894285D01*
X151597380Y-131132380D01*
X151549761Y-131227619D01*
X151454523Y-131275238D01*
X151359285Y-131275238D01*
X151264047Y-131227619D01*
X151216428Y-131132380D01*
X151216428Y-130894285D01*
X151168809Y-130799047D01*
X151549761Y-130370476D02*
X151597380Y-130275238D01*
X151597380Y-130084761D01*
X151549761Y-129989523D01*
X151454523Y-129941904D01*
X151406904Y-129941904D01*
X151311666Y-129989523D01*
X151264047Y-130084761D01*
X151264047Y-130227619D01*
X151216428Y-130322857D01*
X151121190Y-130370476D01*
X151073571Y-130370476D01*
X150978333Y-130322857D01*
X150930714Y-130227619D01*
X150930714Y-130084761D01*
X150978333Y-129989523D01*
X151597380Y-129370476D02*
X151549761Y-129465714D01*
X151502142Y-129513333D01*
X151406904Y-129560952D01*
X151121190Y-129560952D01*
X151025952Y-129513333D01*
X150978333Y-129465714D01*
X150930714Y-129370476D01*
X150930714Y-129227619D01*
X150978333Y-129132380D01*
X151025952Y-129084761D01*
X151121190Y-129037142D01*
X151406904Y-129037142D01*
X151502142Y-129084761D01*
X151549761Y-129132380D01*
X151597380Y-129227619D01*
X151597380Y-129370476D01*
X150930714Y-128608571D02*
X151597380Y-128608571D01*
X151025952Y-128608571D02*
X150978333Y-128560952D01*
X150930714Y-128465714D01*
X150930714Y-128322857D01*
X150978333Y-128227619D01*
X151073571Y-128180000D01*
X151597380Y-128180000D01*
X151597380Y-126941904D02*
X150597380Y-126941904D01*
X150597380Y-126560952D01*
X150645000Y-126465714D01*
X150692619Y-126418095D01*
X150787857Y-126370476D01*
X150930714Y-126370476D01*
X151025952Y-126418095D01*
X151073571Y-126465714D01*
X151121190Y-126560952D01*
X151121190Y-126941904D01*
X151597380Y-125513333D02*
X151073571Y-125513333D01*
X150978333Y-125560952D01*
X150930714Y-125656190D01*
X150930714Y-125846666D01*
X150978333Y-125941904D01*
X151549761Y-125513333D02*
X151597380Y-125608571D01*
X151597380Y-125846666D01*
X151549761Y-125941904D01*
X151454523Y-125989523D01*
X151359285Y-125989523D01*
X151264047Y-125941904D01*
X151216428Y-125846666D01*
X151216428Y-125608571D01*
X151168809Y-125513333D01*
X151597380Y-125132380D02*
X150930714Y-124608571D01*
X150930714Y-125132380D02*
X151597380Y-124608571D01*
X151597380Y-124227619D02*
X150930714Y-124227619D01*
X150597380Y-124227619D02*
X150645000Y-124275238D01*
X150692619Y-124227619D01*
X150645000Y-124180000D01*
X150597380Y-124227619D01*
X150692619Y-124227619D01*
X151597380Y-123751428D02*
X150930714Y-123751428D01*
X151025952Y-123751428D02*
X150978333Y-123703809D01*
X150930714Y-123608571D01*
X150930714Y-123465714D01*
X150978333Y-123370476D01*
X151073571Y-123322857D01*
X151597380Y-123322857D01*
X151073571Y-123322857D02*
X150978333Y-123275238D01*
X150930714Y-123180000D01*
X150930714Y-123037142D01*
X150978333Y-122941904D01*
X151073571Y-122894285D01*
X151597380Y-122894285D01*
X151597380Y-121989523D02*
X151073571Y-121989523D01*
X150978333Y-122037142D01*
X150930714Y-122132380D01*
X150930714Y-122322857D01*
X150978333Y-122418095D01*
X151549761Y-121989523D02*
X151597380Y-122084761D01*
X151597380Y-122322857D01*
X151549761Y-122418095D01*
X151454523Y-122465714D01*
X151359285Y-122465714D01*
X151264047Y-122418095D01*
X151216428Y-122322857D01*
X151216428Y-122084761D01*
X151168809Y-121989523D01*
X151597380Y-121084761D02*
X150597380Y-121084761D01*
X151549761Y-121084761D02*
X151597380Y-121180000D01*
X151597380Y-121370476D01*
X151549761Y-121465714D01*
X151502142Y-121513333D01*
X151406904Y-121560952D01*
X151121190Y-121560952D01*
X151025952Y-121513333D01*
X150978333Y-121465714D01*
X150930714Y-121370476D01*
X150930714Y-121180000D01*
X150978333Y-121084761D01*
X151597380Y-120180000D02*
X151073571Y-120180000D01*
X150978333Y-120227619D01*
X150930714Y-120322857D01*
X150930714Y-120513333D01*
X150978333Y-120608571D01*
X151549761Y-120180000D02*
X151597380Y-120275238D01*
X151597380Y-120513333D01*
X151549761Y-120608571D01*
X151454523Y-120656190D01*
X151359285Y-120656190D01*
X151264047Y-120608571D01*
X151216428Y-120513333D01*
X151216428Y-120275238D01*
X151168809Y-120180000D01*
X151549761Y-119751428D02*
X151597380Y-119656190D01*
X151597380Y-119465714D01*
X151549761Y-119370476D01*
X151454523Y-119322857D01*
X151406904Y-119322857D01*
X151311666Y-119370476D01*
X151264047Y-119465714D01*
X151264047Y-119608571D01*
X151216428Y-119703809D01*
X151121190Y-119751428D01*
X151073571Y-119751428D01*
X150978333Y-119703809D01*
X150930714Y-119608571D01*
X150930714Y-119465714D01*
X150978333Y-119370476D01*
X161988095Y-156052380D02*
X161988095Y-156861904D01*
X162035714Y-156957142D01*
X162083333Y-157004761D01*
X162178571Y-157052380D01*
X162369047Y-157052380D01*
X162464285Y-157004761D01*
X162511904Y-156957142D01*
X162559523Y-156861904D01*
X162559523Y-156052380D01*
X163464285Y-156385714D02*
X163464285Y-157052380D01*
X163226190Y-156004761D02*
X162988095Y-156719047D01*
X163607142Y-156719047D01*
X136707142Y-130707142D02*
X136659523Y-130754761D01*
X136516666Y-130802380D01*
X136421428Y-130802380D01*
X136278571Y-130754761D01*
X136183333Y-130659523D01*
X136135714Y-130564285D01*
X136088095Y-130373809D01*
X136088095Y-130230952D01*
X136135714Y-130040476D01*
X136183333Y-129945238D01*
X136278571Y-129850000D01*
X136421428Y-129802380D01*
X136516666Y-129802380D01*
X136659523Y-129850000D01*
X136707142Y-129897619D01*
X137088095Y-129897619D02*
X137135714Y-129850000D01*
X137230952Y-129802380D01*
X137469047Y-129802380D01*
X137564285Y-129850000D01*
X137611904Y-129897619D01*
X137659523Y-129992857D01*
X137659523Y-130088095D01*
X137611904Y-130230952D01*
X137040476Y-130802380D01*
X137659523Y-130802380D01*
X138611904Y-130802380D02*
X138040476Y-130802380D01*
X138326190Y-130802380D02*
X138326190Y-129802380D01*
X138230952Y-129945238D01*
X138135714Y-130040476D01*
X138040476Y-130088095D01*
X155857142Y-117602380D02*
X155523809Y-117126190D01*
X155285714Y-117602380D02*
X155285714Y-116602380D01*
X155666666Y-116602380D01*
X155761904Y-116650000D01*
X155809523Y-116697619D01*
X155857142Y-116792857D01*
X155857142Y-116935714D01*
X155809523Y-117030952D01*
X155761904Y-117078571D01*
X155666666Y-117126190D01*
X155285714Y-117126190D01*
X156238095Y-116697619D02*
X156285714Y-116650000D01*
X156380952Y-116602380D01*
X156619047Y-116602380D01*
X156714285Y-116650000D01*
X156761904Y-116697619D01*
X156809523Y-116792857D01*
X156809523Y-116888095D01*
X156761904Y-117030952D01*
X156190476Y-117602380D01*
X156809523Y-117602380D01*
X157714285Y-116602380D02*
X157238095Y-116602380D01*
X157190476Y-117078571D01*
X157238095Y-117030952D01*
X157333333Y-116983333D01*
X157571428Y-116983333D01*
X157666666Y-117030952D01*
X157714285Y-117078571D01*
X157761904Y-117173809D01*
X157761904Y-117411904D01*
X157714285Y-117507142D01*
X157666666Y-117554761D01*
X157571428Y-117602380D01*
X157333333Y-117602380D01*
X157238095Y-117554761D01*
X157190476Y-117507142D01*
X122936904Y-131377380D02*
X122936904Y-130377380D01*
X123175000Y-130377380D01*
X123317857Y-130425000D01*
X123413095Y-130520238D01*
X123460714Y-130615476D01*
X123508333Y-130805952D01*
X123508333Y-130948809D01*
X123460714Y-131139285D01*
X123413095Y-131234523D01*
X123317857Y-131329761D01*
X123175000Y-131377380D01*
X122936904Y-131377380D01*
X124365476Y-130710714D02*
X124365476Y-131377380D01*
X124127380Y-130329761D02*
X123889285Y-131044047D01*
X124508333Y-131044047D01*
X160282142Y-147617857D02*
X160329761Y-147665476D01*
X160377380Y-147808333D01*
X160377380Y-147903571D01*
X160329761Y-148046428D01*
X160234523Y-148141666D01*
X160139285Y-148189285D01*
X159948809Y-148236904D01*
X159805952Y-148236904D01*
X159615476Y-148189285D01*
X159520238Y-148141666D01*
X159425000Y-148046428D01*
X159377380Y-147903571D01*
X159377380Y-147808333D01*
X159425000Y-147665476D01*
X159472619Y-147617857D01*
X160377380Y-146665476D02*
X160377380Y-147236904D01*
X160377380Y-146951190D02*
X159377380Y-146951190D01*
X159520238Y-147046428D01*
X159615476Y-147141666D01*
X159663095Y-147236904D01*
X159377380Y-146332142D02*
X159377380Y-145713095D01*
X159758333Y-146046428D01*
X159758333Y-145903571D01*
X159805952Y-145808333D01*
X159853571Y-145760714D01*
X159948809Y-145713095D01*
X160186904Y-145713095D01*
X160282142Y-145760714D01*
X160329761Y-145808333D01*
X160377380Y-145903571D01*
X160377380Y-146189285D01*
X160329761Y-146284523D01*
X160282142Y-146332142D01*
X122652380Y-96938095D02*
X121652380Y-96938095D01*
X121652380Y-96700000D01*
X121700000Y-96557142D01*
X121795238Y-96461904D01*
X121890476Y-96414285D01*
X122080952Y-96366666D01*
X122223809Y-96366666D01*
X122414285Y-96414285D01*
X122509523Y-96461904D01*
X122604761Y-96557142D01*
X122652380Y-96700000D01*
X122652380Y-96938095D01*
X121652380Y-96033333D02*
X121652380Y-95414285D01*
X122033333Y-95747619D01*
X122033333Y-95604761D01*
X122080952Y-95509523D01*
X122128571Y-95461904D01*
X122223809Y-95414285D01*
X122461904Y-95414285D01*
X122557142Y-95461904D01*
X122604761Y-95509523D01*
X122652380Y-95604761D01*
X122652380Y-95890476D01*
X122604761Y-95985714D01*
X122557142Y-96033333D01*
X145582142Y-144552380D02*
X145248809Y-144076190D01*
X145010714Y-144552380D02*
X145010714Y-143552380D01*
X145391666Y-143552380D01*
X145486904Y-143600000D01*
X145534523Y-143647619D01*
X145582142Y-143742857D01*
X145582142Y-143885714D01*
X145534523Y-143980952D01*
X145486904Y-144028571D01*
X145391666Y-144076190D01*
X145010714Y-144076190D01*
X145963095Y-143647619D02*
X146010714Y-143600000D01*
X146105952Y-143552380D01*
X146344047Y-143552380D01*
X146439285Y-143600000D01*
X146486904Y-143647619D01*
X146534523Y-143742857D01*
X146534523Y-143838095D01*
X146486904Y-143980952D01*
X145915476Y-144552380D01*
X146534523Y-144552380D01*
X147105952Y-143980952D02*
X147010714Y-143933333D01*
X146963095Y-143885714D01*
X146915476Y-143790476D01*
X146915476Y-143742857D01*
X146963095Y-143647619D01*
X147010714Y-143600000D01*
X147105952Y-143552380D01*
X147296428Y-143552380D01*
X147391666Y-143600000D01*
X147439285Y-143647619D01*
X147486904Y-143742857D01*
X147486904Y-143790476D01*
X147439285Y-143885714D01*
X147391666Y-143933333D01*
X147296428Y-143980952D01*
X147105952Y-143980952D01*
X147010714Y-144028571D01*
X146963095Y-144076190D01*
X146915476Y-144171428D01*
X146915476Y-144361904D01*
X146963095Y-144457142D01*
X147010714Y-144504761D01*
X147105952Y-144552380D01*
X147296428Y-144552380D01*
X147391666Y-144504761D01*
X147439285Y-144457142D01*
X147486904Y-144361904D01*
X147486904Y-144171428D01*
X147439285Y-144076190D01*
X147391666Y-144028571D01*
X147296428Y-143980952D01*
X157782142Y-92177380D02*
X157448809Y-91701190D01*
X157210714Y-92177380D02*
X157210714Y-91177380D01*
X157591666Y-91177380D01*
X157686904Y-91225000D01*
X157734523Y-91272619D01*
X157782142Y-91367857D01*
X157782142Y-91510714D01*
X157734523Y-91605952D01*
X157686904Y-91653571D01*
X157591666Y-91701190D01*
X157210714Y-91701190D01*
X158734523Y-92177380D02*
X158163095Y-92177380D01*
X158448809Y-92177380D02*
X158448809Y-91177380D01*
X158353571Y-91320238D01*
X158258333Y-91415476D01*
X158163095Y-91463095D01*
X159591666Y-91510714D02*
X159591666Y-92177380D01*
X159353571Y-91129761D02*
X159115476Y-91844047D01*
X159734523Y-91844047D01*
X153202380Y-95442857D02*
X152726190Y-95776190D01*
X153202380Y-96014285D02*
X152202380Y-96014285D01*
X152202380Y-95633333D01*
X152250000Y-95538095D01*
X152297619Y-95490476D01*
X152392857Y-95442857D01*
X152535714Y-95442857D01*
X152630952Y-95490476D01*
X152678571Y-95538095D01*
X152726190Y-95633333D01*
X152726190Y-96014285D01*
X153202380Y-94490476D02*
X153202380Y-95061904D01*
X153202380Y-94776190D02*
X152202380Y-94776190D01*
X152345238Y-94871428D01*
X152440476Y-94966666D01*
X152488095Y-95061904D01*
X152630952Y-93919047D02*
X152583333Y-94014285D01*
X152535714Y-94061904D01*
X152440476Y-94109523D01*
X152392857Y-94109523D01*
X152297619Y-94061904D01*
X152250000Y-94014285D01*
X152202380Y-93919047D01*
X152202380Y-93728571D01*
X152250000Y-93633333D01*
X152297619Y-93585714D01*
X152392857Y-93538095D01*
X152440476Y-93538095D01*
X152535714Y-93585714D01*
X152583333Y-93633333D01*
X152630952Y-93728571D01*
X152630952Y-93919047D01*
X152678571Y-94014285D01*
X152726190Y-94061904D01*
X152821428Y-94109523D01*
X153011904Y-94109523D01*
X153107142Y-94061904D01*
X153154761Y-94014285D01*
X153202380Y-93919047D01*
X153202380Y-93728571D01*
X153154761Y-93633333D01*
X153107142Y-93585714D01*
X153011904Y-93538095D01*
X152821428Y-93538095D01*
X152726190Y-93585714D01*
X152678571Y-93633333D01*
X152630952Y-93728571D01*
X149357142Y-144677142D02*
X149309523Y-144724761D01*
X149166666Y-144772380D01*
X149071428Y-144772380D01*
X148928571Y-144724761D01*
X148833333Y-144629523D01*
X148785714Y-144534285D01*
X148738095Y-144343809D01*
X148738095Y-144200952D01*
X148785714Y-144010476D01*
X148833333Y-143915238D01*
X148928571Y-143820000D01*
X149071428Y-143772380D01*
X149166666Y-143772380D01*
X149309523Y-143820000D01*
X149357142Y-143867619D01*
X149738095Y-143867619D02*
X149785714Y-143820000D01*
X149880952Y-143772380D01*
X150119047Y-143772380D01*
X150214285Y-143820000D01*
X150261904Y-143867619D01*
X150309523Y-143962857D01*
X150309523Y-144058095D01*
X150261904Y-144200952D01*
X149690476Y-144772380D01*
X150309523Y-144772380D01*
X150690476Y-143867619D02*
X150738095Y-143820000D01*
X150833333Y-143772380D01*
X151071428Y-143772380D01*
X151166666Y-143820000D01*
X151214285Y-143867619D01*
X151261904Y-143962857D01*
X151261904Y-144058095D01*
X151214285Y-144200952D01*
X150642857Y-144772380D01*
X151261904Y-144772380D01*
X147482142Y-112317857D02*
X147529761Y-112365476D01*
X147577380Y-112508333D01*
X147577380Y-112603571D01*
X147529761Y-112746428D01*
X147434523Y-112841666D01*
X147339285Y-112889285D01*
X147148809Y-112936904D01*
X147005952Y-112936904D01*
X146815476Y-112889285D01*
X146720238Y-112841666D01*
X146625000Y-112746428D01*
X146577380Y-112603571D01*
X146577380Y-112508333D01*
X146625000Y-112365476D01*
X146672619Y-112317857D01*
X147577380Y-111365476D02*
X147577380Y-111936904D01*
X147577380Y-111651190D02*
X146577380Y-111651190D01*
X146720238Y-111746428D01*
X146815476Y-111841666D01*
X146863095Y-111936904D01*
X147577380Y-110889285D02*
X147577380Y-110698809D01*
X147529761Y-110603571D01*
X147482142Y-110555952D01*
X147339285Y-110460714D01*
X147148809Y-110413095D01*
X146767857Y-110413095D01*
X146672619Y-110460714D01*
X146625000Y-110508333D01*
X146577380Y-110603571D01*
X146577380Y-110794047D01*
X146625000Y-110889285D01*
X146672619Y-110936904D01*
X146767857Y-110984523D01*
X147005952Y-110984523D01*
X147101190Y-110936904D01*
X147148809Y-110889285D01*
X147196428Y-110794047D01*
X147196428Y-110603571D01*
X147148809Y-110508333D01*
X147101190Y-110460714D01*
X147005952Y-110413095D01*
X140067142Y-116022380D02*
X139733809Y-115546190D01*
X139495714Y-116022380D02*
X139495714Y-115022380D01*
X139876666Y-115022380D01*
X139971904Y-115070000D01*
X140019523Y-115117619D01*
X140067142Y-115212857D01*
X140067142Y-115355714D01*
X140019523Y-115450952D01*
X139971904Y-115498571D01*
X139876666Y-115546190D01*
X139495714Y-115546190D01*
X140400476Y-115022380D02*
X141019523Y-115022380D01*
X140686190Y-115403333D01*
X140829047Y-115403333D01*
X140924285Y-115450952D01*
X140971904Y-115498571D01*
X141019523Y-115593809D01*
X141019523Y-115831904D01*
X140971904Y-115927142D01*
X140924285Y-115974761D01*
X140829047Y-116022380D01*
X140543333Y-116022380D01*
X140448095Y-115974761D01*
X140400476Y-115927142D01*
X141971904Y-116022380D02*
X141400476Y-116022380D01*
X141686190Y-116022380D02*
X141686190Y-115022380D01*
X141590952Y-115165238D01*
X141495714Y-115260476D01*
X141400476Y-115308095D01*
X126057142Y-131452380D02*
X125723809Y-130976190D01*
X125485714Y-131452380D02*
X125485714Y-130452380D01*
X125866666Y-130452380D01*
X125961904Y-130500000D01*
X126009523Y-130547619D01*
X126057142Y-130642857D01*
X126057142Y-130785714D01*
X126009523Y-130880952D01*
X125961904Y-130928571D01*
X125866666Y-130976190D01*
X125485714Y-130976190D01*
X126438095Y-130547619D02*
X126485714Y-130500000D01*
X126580952Y-130452380D01*
X126819047Y-130452380D01*
X126914285Y-130500000D01*
X126961904Y-130547619D01*
X127009523Y-130642857D01*
X127009523Y-130738095D01*
X126961904Y-130880952D01*
X126390476Y-131452380D01*
X127009523Y-131452380D01*
X127390476Y-130547619D02*
X127438095Y-130500000D01*
X127533333Y-130452380D01*
X127771428Y-130452380D01*
X127866666Y-130500000D01*
X127914285Y-130547619D01*
X127961904Y-130642857D01*
X127961904Y-130738095D01*
X127914285Y-130880952D01*
X127342857Y-131452380D01*
X127961904Y-131452380D01*
X167422380Y-123076666D02*
X166946190Y-123410000D01*
X167422380Y-123648095D02*
X166422380Y-123648095D01*
X166422380Y-123267142D01*
X166470000Y-123171904D01*
X166517619Y-123124285D01*
X166612857Y-123076666D01*
X166755714Y-123076666D01*
X166850952Y-123124285D01*
X166898571Y-123171904D01*
X166946190Y-123267142D01*
X166946190Y-123648095D01*
X166755714Y-122219523D02*
X167422380Y-122219523D01*
X166374761Y-122457619D02*
X167089047Y-122695714D01*
X167089047Y-122076666D01*
X155377380Y-104692857D02*
X154901190Y-105026190D01*
X155377380Y-105264285D02*
X154377380Y-105264285D01*
X154377380Y-104883333D01*
X154425000Y-104788095D01*
X154472619Y-104740476D01*
X154567857Y-104692857D01*
X154710714Y-104692857D01*
X154805952Y-104740476D01*
X154853571Y-104788095D01*
X154901190Y-104883333D01*
X154901190Y-105264285D01*
X155377380Y-103740476D02*
X155377380Y-104311904D01*
X155377380Y-104026190D02*
X154377380Y-104026190D01*
X154520238Y-104121428D01*
X154615476Y-104216666D01*
X154663095Y-104311904D01*
X155377380Y-103264285D02*
X155377380Y-103073809D01*
X155329761Y-102978571D01*
X155282142Y-102930952D01*
X155139285Y-102835714D01*
X154948809Y-102788095D01*
X154567857Y-102788095D01*
X154472619Y-102835714D01*
X154425000Y-102883333D01*
X154377380Y-102978571D01*
X154377380Y-103169047D01*
X154425000Y-103264285D01*
X154472619Y-103311904D01*
X154567857Y-103359523D01*
X154805952Y-103359523D01*
X154901190Y-103311904D01*
X154948809Y-103264285D01*
X154996428Y-103169047D01*
X154996428Y-102978571D01*
X154948809Y-102883333D01*
X154901190Y-102835714D01*
X154805952Y-102788095D01*
X139732142Y-130807142D02*
X139684523Y-130854761D01*
X139541666Y-130902380D01*
X139446428Y-130902380D01*
X139303571Y-130854761D01*
X139208333Y-130759523D01*
X139160714Y-130664285D01*
X139113095Y-130473809D01*
X139113095Y-130330952D01*
X139160714Y-130140476D01*
X139208333Y-130045238D01*
X139303571Y-129950000D01*
X139446428Y-129902380D01*
X139541666Y-129902380D01*
X139684523Y-129950000D01*
X139732142Y-129997619D01*
X140113095Y-129997619D02*
X140160714Y-129950000D01*
X140255952Y-129902380D01*
X140494047Y-129902380D01*
X140589285Y-129950000D01*
X140636904Y-129997619D01*
X140684523Y-130092857D01*
X140684523Y-130188095D01*
X140636904Y-130330952D01*
X140065476Y-130902380D01*
X140684523Y-130902380D01*
X141303571Y-129902380D02*
X141398809Y-129902380D01*
X141494047Y-129950000D01*
X141541666Y-129997619D01*
X141589285Y-130092857D01*
X141636904Y-130283333D01*
X141636904Y-130521428D01*
X141589285Y-130711904D01*
X141541666Y-130807142D01*
X141494047Y-130854761D01*
X141398809Y-130902380D01*
X141303571Y-130902380D01*
X141208333Y-130854761D01*
X141160714Y-130807142D01*
X141113095Y-130711904D01*
X141065476Y-130521428D01*
X141065476Y-130283333D01*
X141113095Y-130092857D01*
X141160714Y-129997619D01*
X141208333Y-129950000D01*
X141303571Y-129902380D01*
X119066666Y-93722380D02*
X119066666Y-94436666D01*
X119019047Y-94579523D01*
X118923809Y-94674761D01*
X118780952Y-94722380D01*
X118685714Y-94722380D01*
X120019047Y-93722380D02*
X119542857Y-93722380D01*
X119495238Y-94198571D01*
X119542857Y-94150952D01*
X119638095Y-94103333D01*
X119876190Y-94103333D01*
X119971428Y-94150952D01*
X120019047Y-94198571D01*
X120066666Y-94293809D01*
X120066666Y-94531904D01*
X120019047Y-94627142D01*
X119971428Y-94674761D01*
X119876190Y-94722380D01*
X119638095Y-94722380D01*
X119542857Y-94674761D01*
X119495238Y-94627142D01*
X162507142Y-166037142D02*
X162459523Y-166084761D01*
X162316666Y-166132380D01*
X162221428Y-166132380D01*
X162078571Y-166084761D01*
X161983333Y-165989523D01*
X161935714Y-165894285D01*
X161888095Y-165703809D01*
X161888095Y-165560952D01*
X161935714Y-165370476D01*
X161983333Y-165275238D01*
X162078571Y-165180000D01*
X162221428Y-165132380D01*
X162316666Y-165132380D01*
X162459523Y-165180000D01*
X162507142Y-165227619D01*
X163459523Y-166132380D02*
X162888095Y-166132380D01*
X163173809Y-166132380D02*
X163173809Y-165132380D01*
X163078571Y-165275238D01*
X162983333Y-165370476D01*
X162888095Y-165418095D01*
X164316666Y-165465714D02*
X164316666Y-166132380D01*
X164078571Y-165084761D02*
X163840476Y-165799047D01*
X164459523Y-165799047D01*
X166267380Y-143806666D02*
X165791190Y-144140000D01*
X166267380Y-144378095D02*
X165267380Y-144378095D01*
X165267380Y-143997142D01*
X165315000Y-143901904D01*
X165362619Y-143854285D01*
X165457857Y-143806666D01*
X165600714Y-143806666D01*
X165695952Y-143854285D01*
X165743571Y-143901904D01*
X165791190Y-143997142D01*
X165791190Y-144378095D01*
X165267380Y-143473333D02*
X165267380Y-142806666D01*
X166267380Y-143235238D01*
X165407142Y-148567142D02*
X165359523Y-148614761D01*
X165216666Y-148662380D01*
X165121428Y-148662380D01*
X164978571Y-148614761D01*
X164883333Y-148519523D01*
X164835714Y-148424285D01*
X164788095Y-148233809D01*
X164788095Y-148090952D01*
X164835714Y-147900476D01*
X164883333Y-147805238D01*
X164978571Y-147710000D01*
X165121428Y-147662380D01*
X165216666Y-147662380D01*
X165359523Y-147710000D01*
X165407142Y-147757619D01*
X166359523Y-148662380D02*
X165788095Y-148662380D01*
X166073809Y-148662380D02*
X166073809Y-147662380D01*
X165978571Y-147805238D01*
X165883333Y-147900476D01*
X165788095Y-147948095D01*
X166692857Y-147662380D02*
X167359523Y-147662380D01*
X166930952Y-148662380D01*
X128833333Y-144677142D02*
X128785714Y-144724761D01*
X128642857Y-144772380D01*
X128547619Y-144772380D01*
X128404761Y-144724761D01*
X128309523Y-144629523D01*
X128261904Y-144534285D01*
X128214285Y-144343809D01*
X128214285Y-144200952D01*
X128261904Y-144010476D01*
X128309523Y-143915238D01*
X128404761Y-143820000D01*
X128547619Y-143772380D01*
X128642857Y-143772380D01*
X128785714Y-143820000D01*
X128833333Y-143867619D01*
X129404761Y-144200952D02*
X129309523Y-144153333D01*
X129261904Y-144105714D01*
X129214285Y-144010476D01*
X129214285Y-143962857D01*
X129261904Y-143867619D01*
X129309523Y-143820000D01*
X129404761Y-143772380D01*
X129595238Y-143772380D01*
X129690476Y-143820000D01*
X129738095Y-143867619D01*
X129785714Y-143962857D01*
X129785714Y-144010476D01*
X129738095Y-144105714D01*
X129690476Y-144153333D01*
X129595238Y-144200952D01*
X129404761Y-144200952D01*
X129309523Y-144248571D01*
X129261904Y-144296190D01*
X129214285Y-144391428D01*
X129214285Y-144581904D01*
X129261904Y-144677142D01*
X129309523Y-144724761D01*
X129404761Y-144772380D01*
X129595238Y-144772380D01*
X129690476Y-144724761D01*
X129738095Y-144677142D01*
X129785714Y-144581904D01*
X129785714Y-144391428D01*
X129738095Y-144296190D01*
X129690476Y-144248571D01*
X129595238Y-144200952D01*
X126402380Y-93166666D02*
X125926190Y-93500000D01*
X126402380Y-93738095D02*
X125402380Y-93738095D01*
X125402380Y-93357142D01*
X125450000Y-93261904D01*
X125497619Y-93214285D01*
X125592857Y-93166666D01*
X125735714Y-93166666D01*
X125830952Y-93214285D01*
X125878571Y-93261904D01*
X125926190Y-93357142D01*
X125926190Y-93738095D01*
X125830952Y-92595238D02*
X125783333Y-92690476D01*
X125735714Y-92738095D01*
X125640476Y-92785714D01*
X125592857Y-92785714D01*
X125497619Y-92738095D01*
X125450000Y-92690476D01*
X125402380Y-92595238D01*
X125402380Y-92404761D01*
X125450000Y-92309523D01*
X125497619Y-92261904D01*
X125592857Y-92214285D01*
X125640476Y-92214285D01*
X125735714Y-92261904D01*
X125783333Y-92309523D01*
X125830952Y-92404761D01*
X125830952Y-92595238D01*
X125878571Y-92690476D01*
X125926190Y-92738095D01*
X126021428Y-92785714D01*
X126211904Y-92785714D01*
X126307142Y-92738095D01*
X126354761Y-92690476D01*
X126402380Y-92595238D01*
X126402380Y-92404761D01*
X126354761Y-92309523D01*
X126307142Y-92261904D01*
X126211904Y-92214285D01*
X126021428Y-92214285D01*
X125926190Y-92261904D01*
X125878571Y-92309523D01*
X125830952Y-92404761D01*
X140513095Y-156167380D02*
X140513095Y-156976904D01*
X140560714Y-157072142D01*
X140608333Y-157119761D01*
X140703571Y-157167380D01*
X140894047Y-157167380D01*
X140989285Y-157119761D01*
X141036904Y-157072142D01*
X141084523Y-156976904D01*
X141084523Y-156167380D01*
X142084523Y-157167380D02*
X141513095Y-157167380D01*
X141798809Y-157167380D02*
X141798809Y-156167380D01*
X141703571Y-156310238D01*
X141608333Y-156405476D01*
X141513095Y-156453095D01*
X131747619Y-133561904D02*
X132747619Y-133561904D01*
X132747619Y-133800000D01*
X132700000Y-133942857D01*
X132604761Y-134038095D01*
X132509523Y-134085714D01*
X132319047Y-134133333D01*
X132176190Y-134133333D01*
X131985714Y-134085714D01*
X131890476Y-134038095D01*
X131795238Y-133942857D01*
X131747619Y-133800000D01*
X131747619Y-133561904D01*
X132652380Y-134514285D02*
X132700000Y-134561904D01*
X132747619Y-134657142D01*
X132747619Y-134895238D01*
X132700000Y-134990476D01*
X132652380Y-135038095D01*
X132557142Y-135085714D01*
X132461904Y-135085714D01*
X132319047Y-135038095D01*
X131747619Y-134466666D01*
X131747619Y-135085714D01*
X130882380Y-131190000D02*
X131120476Y-131190000D01*
X131025238Y-131428095D02*
X131120476Y-131190000D01*
X131025238Y-130951904D01*
X131310952Y-131332857D02*
X131120476Y-131190000D01*
X131310952Y-131047142D01*
X132177619Y-131210000D02*
X131939523Y-131210000D01*
X132034761Y-130971904D02*
X131939523Y-131210000D01*
X132034761Y-131448095D01*
X131749047Y-131067142D02*
X131939523Y-131210000D01*
X131749047Y-131352857D01*
X141538095Y-93002380D02*
X141538095Y-93811904D01*
X141585714Y-93907142D01*
X141633333Y-93954761D01*
X141728571Y-94002380D01*
X141919047Y-94002380D01*
X142014285Y-93954761D01*
X142061904Y-93907142D01*
X142109523Y-93811904D01*
X142109523Y-93002380D01*
X142490476Y-93002380D02*
X143157142Y-93002380D01*
X142728571Y-94002380D01*
X131725000Y-91202380D02*
X131725000Y-91440476D01*
X131486904Y-91345238D02*
X131725000Y-91440476D01*
X131963095Y-91345238D01*
X131582142Y-91630952D02*
X131725000Y-91440476D01*
X131867857Y-91630952D01*
X132165700Y-87742380D02*
X132165700Y-87980476D01*
X131927604Y-87885238D02*
X132165700Y-87980476D01*
X132403795Y-87885238D01*
X132022842Y-88170952D02*
X132165700Y-87980476D01*
X132308557Y-88170952D01*
X119503333Y-149887142D02*
X119455714Y-149934761D01*
X119312857Y-149982380D01*
X119217619Y-149982380D01*
X119074761Y-149934761D01*
X118979523Y-149839523D01*
X118931904Y-149744285D01*
X118884285Y-149553809D01*
X118884285Y-149410952D01*
X118931904Y-149220476D01*
X118979523Y-149125238D01*
X119074761Y-149030000D01*
X119217619Y-148982380D01*
X119312857Y-148982380D01*
X119455714Y-149030000D01*
X119503333Y-149077619D01*
X120455714Y-149982380D02*
X119884285Y-149982380D01*
X120170000Y-149982380D02*
X120170000Y-148982380D01*
X120074761Y-149125238D01*
X119979523Y-149220476D01*
X119884285Y-149268095D01*
X131902380Y-93166666D02*
X131426190Y-93500000D01*
X131902380Y-93738095D02*
X130902380Y-93738095D01*
X130902380Y-93357142D01*
X130950000Y-93261904D01*
X130997619Y-93214285D01*
X131092857Y-93166666D01*
X131235714Y-93166666D01*
X131330952Y-93214285D01*
X131378571Y-93261904D01*
X131426190Y-93357142D01*
X131426190Y-93738095D01*
X131902380Y-92690476D02*
X131902380Y-92500000D01*
X131854761Y-92404761D01*
X131807142Y-92357142D01*
X131664285Y-92261904D01*
X131473809Y-92214285D01*
X131092857Y-92214285D01*
X130997619Y-92261904D01*
X130950000Y-92309523D01*
X130902380Y-92404761D01*
X130902380Y-92595238D01*
X130950000Y-92690476D01*
X130997619Y-92738095D01*
X131092857Y-92785714D01*
X131330952Y-92785714D01*
X131426190Y-92738095D01*
X131473809Y-92690476D01*
X131521428Y-92595238D01*
X131521428Y-92404761D01*
X131473809Y-92309523D01*
X131426190Y-92261904D01*
X131330952Y-92214285D01*
X142286666Y-117952380D02*
X142286666Y-118666666D01*
X142239047Y-118809523D01*
X142143809Y-118904761D01*
X142000952Y-118952380D01*
X141905714Y-118952380D01*
X142762857Y-118952380D02*
X142762857Y-117952380D01*
X143143809Y-117952380D01*
X143239047Y-118000000D01*
X143286666Y-118047619D01*
X143334285Y-118142857D01*
X143334285Y-118285714D01*
X143286666Y-118380952D01*
X143239047Y-118428571D01*
X143143809Y-118476190D01*
X142762857Y-118476190D01*
X143667619Y-117952380D02*
X144286666Y-117952380D01*
X143953333Y-118333333D01*
X144096190Y-118333333D01*
X144191428Y-118380952D01*
X144239047Y-118428571D01*
X144286666Y-118523809D01*
X144286666Y-118761904D01*
X144239047Y-118857142D01*
X144191428Y-118904761D01*
X144096190Y-118952380D01*
X143810476Y-118952380D01*
X143715238Y-118904761D01*
X143667619Y-118857142D01*
X137432142Y-124282142D02*
X137384523Y-124329761D01*
X137241666Y-124377380D01*
X137146428Y-124377380D01*
X137003571Y-124329761D01*
X136908333Y-124234523D01*
X136860714Y-124139285D01*
X136813095Y-123948809D01*
X136813095Y-123805952D01*
X136860714Y-123615476D01*
X136908333Y-123520238D01*
X137003571Y-123425000D01*
X137146428Y-123377380D01*
X137241666Y-123377380D01*
X137384523Y-123425000D01*
X137432142Y-123472619D01*
X138384523Y-124377380D02*
X137813095Y-124377380D01*
X138098809Y-124377380D02*
X138098809Y-123377380D01*
X138003571Y-123520238D01*
X137908333Y-123615476D01*
X137813095Y-123663095D01*
X139241666Y-123377380D02*
X139051190Y-123377380D01*
X138955952Y-123425000D01*
X138908333Y-123472619D01*
X138813095Y-123615476D01*
X138765476Y-123805952D01*
X138765476Y-124186904D01*
X138813095Y-124282142D01*
X138860714Y-124329761D01*
X138955952Y-124377380D01*
X139146428Y-124377380D01*
X139241666Y-124329761D01*
X139289285Y-124282142D01*
X139336904Y-124186904D01*
X139336904Y-123948809D01*
X139289285Y-123853571D01*
X139241666Y-123805952D01*
X139146428Y-123758333D01*
X138955952Y-123758333D01*
X138860714Y-123805952D01*
X138813095Y-123853571D01*
X138765476Y-123948809D01*
X140043333Y-149457142D02*
X139995714Y-149504761D01*
X139852857Y-149552380D01*
X139757619Y-149552380D01*
X139614761Y-149504761D01*
X139519523Y-149409523D01*
X139471904Y-149314285D01*
X139424285Y-149123809D01*
X139424285Y-148980952D01*
X139471904Y-148790476D01*
X139519523Y-148695238D01*
X139614761Y-148600000D01*
X139757619Y-148552380D01*
X139852857Y-148552380D01*
X139995714Y-148600000D01*
X140043333Y-148647619D01*
X140376666Y-148552380D02*
X140995714Y-148552380D01*
X140662380Y-148933333D01*
X140805238Y-148933333D01*
X140900476Y-148980952D01*
X140948095Y-149028571D01*
X140995714Y-149123809D01*
X140995714Y-149361904D01*
X140948095Y-149457142D01*
X140900476Y-149504761D01*
X140805238Y-149552380D01*
X140519523Y-149552380D01*
X140424285Y-149504761D01*
X140376666Y-149457142D01*
X161466666Y-91352380D02*
X161466666Y-92066666D01*
X161419047Y-92209523D01*
X161323809Y-92304761D01*
X161180952Y-92352380D01*
X161085714Y-92352380D01*
X161847619Y-91352380D02*
X162466666Y-91352380D01*
X162133333Y-91733333D01*
X162276190Y-91733333D01*
X162371428Y-91780952D01*
X162419047Y-91828571D01*
X162466666Y-91923809D01*
X162466666Y-92161904D01*
X162419047Y-92257142D01*
X162371428Y-92304761D01*
X162276190Y-92352380D01*
X161990476Y-92352380D01*
X161895238Y-92304761D01*
X161847619Y-92257142D01*
X150192142Y-139571666D02*
X150239761Y-139619285D01*
X150287380Y-139762142D01*
X150287380Y-139857380D01*
X150239761Y-140000238D01*
X150144523Y-140095476D01*
X150049285Y-140143095D01*
X149858809Y-140190714D01*
X149715952Y-140190714D01*
X149525476Y-140143095D01*
X149430238Y-140095476D01*
X149335000Y-140000238D01*
X149287380Y-139857380D01*
X149287380Y-139762142D01*
X149335000Y-139619285D01*
X149382619Y-139571666D01*
X150287380Y-139095476D02*
X150287380Y-138905000D01*
X150239761Y-138809761D01*
X150192142Y-138762142D01*
X150049285Y-138666904D01*
X149858809Y-138619285D01*
X149477857Y-138619285D01*
X149382619Y-138666904D01*
X149335000Y-138714523D01*
X149287380Y-138809761D01*
X149287380Y-139000238D01*
X149335000Y-139095476D01*
X149382619Y-139143095D01*
X149477857Y-139190714D01*
X149715952Y-139190714D01*
X149811190Y-139143095D01*
X149858809Y-139095476D01*
X149906428Y-139000238D01*
X149906428Y-138809761D01*
X149858809Y-138714523D01*
X149811190Y-138666904D01*
X149715952Y-138619285D01*
X137404761Y-134747619D02*
X137309523Y-134700000D01*
X137214285Y-134604761D01*
X137071428Y-134461904D01*
X136976190Y-134414285D01*
X136880952Y-134414285D01*
X136928571Y-134652380D02*
X136833333Y-134604761D01*
X136738095Y-134509523D01*
X136690476Y-134319047D01*
X136690476Y-133985714D01*
X136738095Y-133795238D01*
X136833333Y-133700000D01*
X136928571Y-133652380D01*
X137119047Y-133652380D01*
X137214285Y-133700000D01*
X137309523Y-133795238D01*
X137357142Y-133985714D01*
X137357142Y-134319047D01*
X137309523Y-134509523D01*
X137214285Y-134604761D01*
X137119047Y-134652380D01*
X136928571Y-134652380D01*
X138309523Y-134652380D02*
X137738095Y-134652380D01*
X138023809Y-134652380D02*
X138023809Y-133652380D01*
X137928571Y-133795238D01*
X137833333Y-133890476D01*
X137738095Y-133938095D01*
X133480000Y-131122380D02*
X133480000Y-131360476D01*
X133241904Y-131265238D02*
X133480000Y-131360476D01*
X133718095Y-131265238D01*
X133337142Y-131550952D02*
X133480000Y-131360476D01*
X133622857Y-131550952D01*
X134390000Y-131112380D02*
X134390000Y-131350476D01*
X134151904Y-131255238D02*
X134390000Y-131350476D01*
X134628095Y-131255238D01*
X134247142Y-131540952D02*
X134390000Y-131350476D01*
X134532857Y-131540952D01*
X137983333Y-155177380D02*
X137650000Y-154701190D01*
X137411904Y-155177380D02*
X137411904Y-154177380D01*
X137792857Y-154177380D01*
X137888095Y-154225000D01*
X137935714Y-154272619D01*
X137983333Y-154367857D01*
X137983333Y-154510714D01*
X137935714Y-154605952D01*
X137888095Y-154653571D01*
X137792857Y-154701190D01*
X137411904Y-154701190D01*
X138935714Y-155177380D02*
X138364285Y-155177380D01*
X138650000Y-155177380D02*
X138650000Y-154177380D01*
X138554761Y-154320238D01*
X138459523Y-154415476D01*
X138364285Y-154463095D01*
X141607142Y-147882142D02*
X141559523Y-147929761D01*
X141416666Y-147977380D01*
X141321428Y-147977380D01*
X141178571Y-147929761D01*
X141083333Y-147834523D01*
X141035714Y-147739285D01*
X140988095Y-147548809D01*
X140988095Y-147405952D01*
X141035714Y-147215476D01*
X141083333Y-147120238D01*
X141178571Y-147025000D01*
X141321428Y-146977380D01*
X141416666Y-146977380D01*
X141559523Y-147025000D01*
X141607142Y-147072619D01*
X142559523Y-147977380D02*
X141988095Y-147977380D01*
X142273809Y-147977380D02*
X142273809Y-146977380D01*
X142178571Y-147120238D01*
X142083333Y-147215476D01*
X141988095Y-147263095D01*
X143511904Y-147977380D02*
X142940476Y-147977380D01*
X143226190Y-147977380D02*
X143226190Y-146977380D01*
X143130952Y-147120238D01*
X143035714Y-147215476D01*
X142940476Y-147263095D01*
X160932142Y-155482142D02*
X160884523Y-155529761D01*
X160741666Y-155577380D01*
X160646428Y-155577380D01*
X160503571Y-155529761D01*
X160408333Y-155434523D01*
X160360714Y-155339285D01*
X160313095Y-155148809D01*
X160313095Y-155005952D01*
X160360714Y-154815476D01*
X160408333Y-154720238D01*
X160503571Y-154625000D01*
X160646428Y-154577380D01*
X160741666Y-154577380D01*
X160884523Y-154625000D01*
X160932142Y-154672619D01*
X161884523Y-155577380D02*
X161313095Y-155577380D01*
X161598809Y-155577380D02*
X161598809Y-154577380D01*
X161503571Y-154720238D01*
X161408333Y-154815476D01*
X161313095Y-154863095D01*
X162265476Y-154672619D02*
X162313095Y-154625000D01*
X162408333Y-154577380D01*
X162646428Y-154577380D01*
X162741666Y-154625000D01*
X162789285Y-154672619D01*
X162836904Y-154767857D01*
X162836904Y-154863095D01*
X162789285Y-155005952D01*
X162217857Y-155577380D01*
X162836904Y-155577380D01*
X170547142Y-140806666D02*
X170594761Y-140854285D01*
X170642380Y-140997142D01*
X170642380Y-141092380D01*
X170594761Y-141235238D01*
X170499523Y-141330476D01*
X170404285Y-141378095D01*
X170213809Y-141425714D01*
X170070952Y-141425714D01*
X169880476Y-141378095D01*
X169785238Y-141330476D01*
X169690000Y-141235238D01*
X169642380Y-141092380D01*
X169642380Y-140997142D01*
X169690000Y-140854285D01*
X169737619Y-140806666D01*
X169642380Y-139949523D02*
X169642380Y-140140000D01*
X169690000Y-140235238D01*
X169737619Y-140282857D01*
X169880476Y-140378095D01*
X170070952Y-140425714D01*
X170451904Y-140425714D01*
X170547142Y-140378095D01*
X170594761Y-140330476D01*
X170642380Y-140235238D01*
X170642380Y-140044761D01*
X170594761Y-139949523D01*
X170547142Y-139901904D01*
X170451904Y-139854285D01*
X170213809Y-139854285D01*
X170118571Y-139901904D01*
X170070952Y-139949523D01*
X170023333Y-140044761D01*
X170023333Y-140235238D01*
X170070952Y-140330476D01*
X170118571Y-140378095D01*
X170213809Y-140425714D01*
X135107142Y-115922380D02*
X134773809Y-115446190D01*
X134535714Y-115922380D02*
X134535714Y-114922380D01*
X134916666Y-114922380D01*
X135011904Y-114970000D01*
X135059523Y-115017619D01*
X135107142Y-115112857D01*
X135107142Y-115255714D01*
X135059523Y-115350952D01*
X135011904Y-115398571D01*
X134916666Y-115446190D01*
X134535714Y-115446190D01*
X135440476Y-114922380D02*
X136059523Y-114922380D01*
X135726190Y-115303333D01*
X135869047Y-115303333D01*
X135964285Y-115350952D01*
X136011904Y-115398571D01*
X136059523Y-115493809D01*
X136059523Y-115731904D01*
X136011904Y-115827142D01*
X135964285Y-115874761D01*
X135869047Y-115922380D01*
X135583333Y-115922380D01*
X135488095Y-115874761D01*
X135440476Y-115827142D01*
X136678571Y-114922380D02*
X136773809Y-114922380D01*
X136869047Y-114970000D01*
X136916666Y-115017619D01*
X136964285Y-115112857D01*
X137011904Y-115303333D01*
X137011904Y-115541428D01*
X136964285Y-115731904D01*
X136916666Y-115827142D01*
X136869047Y-115874761D01*
X136773809Y-115922380D01*
X136678571Y-115922380D01*
X136583333Y-115874761D01*
X136535714Y-115827142D01*
X136488095Y-115731904D01*
X136440476Y-115541428D01*
X136440476Y-115303333D01*
X136488095Y-115112857D01*
X136535714Y-115017619D01*
X136583333Y-114970000D01*
X136678571Y-114922380D01*
X139083333Y-166287142D02*
X139035714Y-166334761D01*
X138892857Y-166382380D01*
X138797619Y-166382380D01*
X138654761Y-166334761D01*
X138559523Y-166239523D01*
X138511904Y-166144285D01*
X138464285Y-165953809D01*
X138464285Y-165810952D01*
X138511904Y-165620476D01*
X138559523Y-165525238D01*
X138654761Y-165430000D01*
X138797619Y-165382380D01*
X138892857Y-165382380D01*
X139035714Y-165430000D01*
X139083333Y-165477619D01*
X139988095Y-165382380D02*
X139511904Y-165382380D01*
X139464285Y-165858571D01*
X139511904Y-165810952D01*
X139607142Y-165763333D01*
X139845238Y-165763333D01*
X139940476Y-165810952D01*
X139988095Y-165858571D01*
X140035714Y-165953809D01*
X140035714Y-166191904D01*
X139988095Y-166287142D01*
X139940476Y-166334761D01*
X139845238Y-166382380D01*
X139607142Y-166382380D01*
X139511904Y-166334761D01*
X139464285Y-166287142D01*
X162857380Y-123061666D02*
X162381190Y-123395000D01*
X162857380Y-123633095D02*
X161857380Y-123633095D01*
X161857380Y-123252142D01*
X161905000Y-123156904D01*
X161952619Y-123109285D01*
X162047857Y-123061666D01*
X162190714Y-123061666D01*
X162285952Y-123109285D01*
X162333571Y-123156904D01*
X162381190Y-123252142D01*
X162381190Y-123633095D01*
X161857380Y-122728333D02*
X161857380Y-122109285D01*
X162238333Y-122442619D01*
X162238333Y-122299761D01*
X162285952Y-122204523D01*
X162333571Y-122156904D01*
X162428809Y-122109285D01*
X162666904Y-122109285D01*
X162762142Y-122156904D01*
X162809761Y-122204523D01*
X162857380Y-122299761D01*
X162857380Y-122585476D01*
X162809761Y-122680714D01*
X162762142Y-122728333D01*
X132571904Y-146547619D02*
X132571904Y-145738095D01*
X132524285Y-145642857D01*
X132476666Y-145595238D01*
X132381428Y-145547619D01*
X132190952Y-145547619D01*
X132095714Y-145595238D01*
X132048095Y-145642857D01*
X132000476Y-145738095D01*
X132000476Y-146547619D01*
X131571904Y-146452380D02*
X131524285Y-146500000D01*
X131429047Y-146547619D01*
X131190952Y-146547619D01*
X131095714Y-146500000D01*
X131048095Y-146452380D01*
X131000476Y-146357142D01*
X131000476Y-146261904D01*
X131048095Y-146119047D01*
X131619523Y-145547619D01*
X131000476Y-145547619D01*
X135575000Y-152797619D02*
X135575000Y-152559523D01*
X135813095Y-152654761D02*
X135575000Y-152559523D01*
X135336904Y-152654761D01*
X135717857Y-152369047D02*
X135575000Y-152559523D01*
X135432142Y-152369047D01*
X135625000Y-151502380D02*
X135625000Y-151740476D01*
X135386904Y-151645238D02*
X135625000Y-151740476D01*
X135863095Y-151645238D01*
X135482142Y-151930952D02*
X135625000Y-151740476D01*
X135767857Y-151930952D01*
X137157142Y-89692857D02*
X137204761Y-89740476D01*
X137252380Y-89883333D01*
X137252380Y-89978571D01*
X137204761Y-90121428D01*
X137109523Y-90216666D01*
X137014285Y-90264285D01*
X136823809Y-90311904D01*
X136680952Y-90311904D01*
X136490476Y-90264285D01*
X136395238Y-90216666D01*
X136300000Y-90121428D01*
X136252380Y-89978571D01*
X136252380Y-89883333D01*
X136300000Y-89740476D01*
X136347619Y-89692857D01*
X136347619Y-89311904D02*
X136300000Y-89264285D01*
X136252380Y-89169047D01*
X136252380Y-88930952D01*
X136300000Y-88835714D01*
X136347619Y-88788095D01*
X136442857Y-88740476D01*
X136538095Y-88740476D01*
X136680952Y-88788095D01*
X137252380Y-89359523D01*
X137252380Y-88740476D01*
X136585714Y-87883333D02*
X137252380Y-87883333D01*
X136204761Y-88121428D02*
X136919047Y-88359523D01*
X136919047Y-87740476D01*
X166573333Y-136167142D02*
X166525714Y-136214761D01*
X166382857Y-136262380D01*
X166287619Y-136262380D01*
X166144761Y-136214761D01*
X166049523Y-136119523D01*
X166001904Y-136024285D01*
X165954285Y-135833809D01*
X165954285Y-135690952D01*
X166001904Y-135500476D01*
X166049523Y-135405238D01*
X166144761Y-135310000D01*
X166287619Y-135262380D01*
X166382857Y-135262380D01*
X166525714Y-135310000D01*
X166573333Y-135357619D01*
X166906666Y-135262380D02*
X167573333Y-135262380D01*
X167144761Y-136262380D01*
X140866666Y-113082380D02*
X140866666Y-113796666D01*
X140819047Y-113939523D01*
X140723809Y-114034761D01*
X140580952Y-114082380D01*
X140485714Y-114082380D01*
X141342857Y-114082380D02*
X141342857Y-113082380D01*
X141723809Y-113082380D01*
X141819047Y-113130000D01*
X141866666Y-113177619D01*
X141914285Y-113272857D01*
X141914285Y-113415714D01*
X141866666Y-113510952D01*
X141819047Y-113558571D01*
X141723809Y-113606190D01*
X141342857Y-113606190D01*
X142295238Y-113177619D02*
X142342857Y-113130000D01*
X142438095Y-113082380D01*
X142676190Y-113082380D01*
X142771428Y-113130000D01*
X142819047Y-113177619D01*
X142866666Y-113272857D01*
X142866666Y-113368095D01*
X142819047Y-113510952D01*
X142247619Y-114082380D01*
X142866666Y-114082380D01*
X124141904Y-123932380D02*
X124141904Y-122932380D01*
X124380000Y-122932380D01*
X124522857Y-122980000D01*
X124618095Y-123075238D01*
X124665714Y-123170476D01*
X124713333Y-123360952D01*
X124713333Y-123503809D01*
X124665714Y-123694285D01*
X124618095Y-123789523D01*
X124522857Y-123884761D01*
X124380000Y-123932380D01*
X124141904Y-123932380D01*
X125665714Y-123932380D02*
X125094285Y-123932380D01*
X125380000Y-123932380D02*
X125380000Y-122932380D01*
X125284761Y-123075238D01*
X125189523Y-123170476D01*
X125094285Y-123218095D01*
X134463095Y-123277380D02*
X134463095Y-124086904D01*
X134510714Y-124182142D01*
X134558333Y-124229761D01*
X134653571Y-124277380D01*
X134844047Y-124277380D01*
X134939285Y-124229761D01*
X134986904Y-124182142D01*
X135034523Y-124086904D01*
X135034523Y-123277380D01*
X135939285Y-123277380D02*
X135748809Y-123277380D01*
X135653571Y-123325000D01*
X135605952Y-123372619D01*
X135510714Y-123515476D01*
X135463095Y-123705952D01*
X135463095Y-124086904D01*
X135510714Y-124182142D01*
X135558333Y-124229761D01*
X135653571Y-124277380D01*
X135844047Y-124277380D01*
X135939285Y-124229761D01*
X135986904Y-124182142D01*
X136034523Y-124086904D01*
X136034523Y-123848809D01*
X135986904Y-123753571D01*
X135939285Y-123705952D01*
X135844047Y-123658333D01*
X135653571Y-123658333D01*
X135558333Y-123705952D01*
X135510714Y-123753571D01*
X135463095Y-123848809D01*
X153202380Y-99442857D02*
X152726190Y-99776190D01*
X153202380Y-100014285D02*
X152202380Y-100014285D01*
X152202380Y-99633333D01*
X152250000Y-99538095D01*
X152297619Y-99490476D01*
X152392857Y-99442857D01*
X152535714Y-99442857D01*
X152630952Y-99490476D01*
X152678571Y-99538095D01*
X152726190Y-99633333D01*
X152726190Y-100014285D01*
X153202380Y-98490476D02*
X153202380Y-99061904D01*
X153202380Y-98776190D02*
X152202380Y-98776190D01*
X152345238Y-98871428D01*
X152440476Y-98966666D01*
X152488095Y-99061904D01*
X152202380Y-98157142D02*
X152202380Y-97538095D01*
X152583333Y-97871428D01*
X152583333Y-97728571D01*
X152630952Y-97633333D01*
X152678571Y-97585714D01*
X152773809Y-97538095D01*
X153011904Y-97538095D01*
X153107142Y-97585714D01*
X153154761Y-97633333D01*
X153202380Y-97728571D01*
X153202380Y-98014285D01*
X153154761Y-98109523D01*
X153107142Y-98157142D01*
X158979761Y-103247619D02*
X158884523Y-103200000D01*
X158789285Y-103104761D01*
X158646428Y-102961904D01*
X158551190Y-102914285D01*
X158455952Y-102914285D01*
X158503571Y-103152380D02*
X158408333Y-103104761D01*
X158313095Y-103009523D01*
X158265476Y-102819047D01*
X158265476Y-102485714D01*
X158313095Y-102295238D01*
X158408333Y-102200000D01*
X158503571Y-102152380D01*
X158694047Y-102152380D01*
X158789285Y-102200000D01*
X158884523Y-102295238D01*
X158932142Y-102485714D01*
X158932142Y-102819047D01*
X158884523Y-103009523D01*
X158789285Y-103104761D01*
X158694047Y-103152380D01*
X158503571Y-103152380D01*
X159265476Y-102152380D02*
X159884523Y-102152380D01*
X159551190Y-102533333D01*
X159694047Y-102533333D01*
X159789285Y-102580952D01*
X159836904Y-102628571D01*
X159884523Y-102723809D01*
X159884523Y-102961904D01*
X159836904Y-103057142D01*
X159789285Y-103104761D01*
X159694047Y-103152380D01*
X159408333Y-103152380D01*
X159313095Y-103104761D01*
X159265476Y-103057142D01*
X120738095Y-158752380D02*
X120738095Y-157752380D01*
X120738095Y-158228571D02*
X121309523Y-158228571D01*
X121309523Y-158752380D02*
X121309523Y-157752380D01*
X122214285Y-158085714D02*
X122214285Y-158752380D01*
X121976190Y-157704761D02*
X121738095Y-158419047D01*
X122357142Y-158419047D01*
X143397142Y-115157142D02*
X143349523Y-115204761D01*
X143206666Y-115252380D01*
X143111428Y-115252380D01*
X142968571Y-115204761D01*
X142873333Y-115109523D01*
X142825714Y-115014285D01*
X142778095Y-114823809D01*
X142778095Y-114680952D01*
X142825714Y-114490476D01*
X142873333Y-114395238D01*
X142968571Y-114300000D01*
X143111428Y-114252380D01*
X143206666Y-114252380D01*
X143349523Y-114300000D01*
X143397142Y-114347619D01*
X143778095Y-114347619D02*
X143825714Y-114300000D01*
X143920952Y-114252380D01*
X144159047Y-114252380D01*
X144254285Y-114300000D01*
X144301904Y-114347619D01*
X144349523Y-114442857D01*
X144349523Y-114538095D01*
X144301904Y-114680952D01*
X143730476Y-115252380D01*
X144349523Y-115252380D01*
X145254285Y-114252380D02*
X144778095Y-114252380D01*
X144730476Y-114728571D01*
X144778095Y-114680952D01*
X144873333Y-114633333D01*
X145111428Y-114633333D01*
X145206666Y-114680952D01*
X145254285Y-114728571D01*
X145301904Y-114823809D01*
X145301904Y-115061904D01*
X145254285Y-115157142D01*
X145206666Y-115204761D01*
X145111428Y-115252380D01*
X144873333Y-115252380D01*
X144778095Y-115204761D01*
X144730476Y-115157142D01*
X120227142Y-120352380D02*
X119893809Y-119876190D01*
X119655714Y-120352380D02*
X119655714Y-119352380D01*
X120036666Y-119352380D01*
X120131904Y-119400000D01*
X120179523Y-119447619D01*
X120227142Y-119542857D01*
X120227142Y-119685714D01*
X120179523Y-119780952D01*
X120131904Y-119828571D01*
X120036666Y-119876190D01*
X119655714Y-119876190D01*
X120608095Y-119447619D02*
X120655714Y-119400000D01*
X120750952Y-119352380D01*
X120989047Y-119352380D01*
X121084285Y-119400000D01*
X121131904Y-119447619D01*
X121179523Y-119542857D01*
X121179523Y-119638095D01*
X121131904Y-119780952D01*
X120560476Y-120352380D01*
X121179523Y-120352380D01*
X121655714Y-120352380D02*
X121846190Y-120352380D01*
X121941428Y-120304761D01*
X121989047Y-120257142D01*
X122084285Y-120114285D01*
X122131904Y-119923809D01*
X122131904Y-119542857D01*
X122084285Y-119447619D01*
X122036666Y-119400000D01*
X121941428Y-119352380D01*
X121750952Y-119352380D01*
X121655714Y-119400000D01*
X121608095Y-119447619D01*
X121560476Y-119542857D01*
X121560476Y-119780952D01*
X121608095Y-119876190D01*
X121655714Y-119923809D01*
X121750952Y-119971428D01*
X121941428Y-119971428D01*
X122036666Y-119923809D01*
X122084285Y-119876190D01*
X122131904Y-119780952D01*
X130541666Y-154502380D02*
X130541666Y-155216666D01*
X130494047Y-155359523D01*
X130398809Y-155454761D01*
X130255952Y-155502380D01*
X130160714Y-155502380D01*
X131446428Y-154835714D02*
X131446428Y-155502380D01*
X131208333Y-154454761D02*
X130970238Y-155169047D01*
X131589285Y-155169047D01*
X172656666Y-139512380D02*
X172656666Y-140226666D01*
X172609047Y-140369523D01*
X172513809Y-140464761D01*
X172370952Y-140512380D01*
X172275714Y-140512380D01*
X173561428Y-139512380D02*
X173370952Y-139512380D01*
X173275714Y-139560000D01*
X173228095Y-139607619D01*
X173132857Y-139750476D01*
X173085238Y-139940952D01*
X173085238Y-140321904D01*
X173132857Y-140417142D01*
X173180476Y-140464761D01*
X173275714Y-140512380D01*
X173466190Y-140512380D01*
X173561428Y-140464761D01*
X173609047Y-140417142D01*
X173656666Y-140321904D01*
X173656666Y-140083809D01*
X173609047Y-139988571D01*
X173561428Y-139940952D01*
X173466190Y-139893333D01*
X173275714Y-139893333D01*
X173180476Y-139940952D01*
X173132857Y-139988571D01*
X173085238Y-140083809D01*
X123202380Y-125533333D02*
X123916666Y-125533333D01*
X124059523Y-125580952D01*
X124154761Y-125676190D01*
X124202380Y-125819047D01*
X124202380Y-125914285D01*
X123297619Y-125104761D02*
X123250000Y-125057142D01*
X123202380Y-124961904D01*
X123202380Y-124723809D01*
X123250000Y-124628571D01*
X123297619Y-124580952D01*
X123392857Y-124533333D01*
X123488095Y-124533333D01*
X123630952Y-124580952D01*
X124202380Y-125152380D01*
X124202380Y-124533333D01*
X138083333Y-116202380D02*
X137607142Y-116202380D01*
X137607142Y-115202380D01*
X138940476Y-116202380D02*
X138369047Y-116202380D01*
X138654761Y-116202380D02*
X138654761Y-115202380D01*
X138559523Y-115345238D01*
X138464285Y-115440476D01*
X138369047Y-115488095D01*
X149532142Y-155027380D02*
X149198809Y-154551190D01*
X148960714Y-155027380D02*
X148960714Y-154027380D01*
X149341666Y-154027380D01*
X149436904Y-154075000D01*
X149484523Y-154122619D01*
X149532142Y-154217857D01*
X149532142Y-154360714D01*
X149484523Y-154455952D01*
X149436904Y-154503571D01*
X149341666Y-154551190D01*
X148960714Y-154551190D01*
X150484523Y-155027380D02*
X149913095Y-155027380D01*
X150198809Y-155027380D02*
X150198809Y-154027380D01*
X150103571Y-154170238D01*
X150008333Y-154265476D01*
X149913095Y-154313095D01*
X151389285Y-154027380D02*
X150913095Y-154027380D01*
X150865476Y-154503571D01*
X150913095Y-154455952D01*
X151008333Y-154408333D01*
X151246428Y-154408333D01*
X151341666Y-154455952D01*
X151389285Y-154503571D01*
X151436904Y-154598809D01*
X151436904Y-154836904D01*
X151389285Y-154932142D01*
X151341666Y-154979761D01*
X151246428Y-155027380D01*
X151008333Y-155027380D01*
X150913095Y-154979761D01*
X150865476Y-154932142D01*
X169552380Y-155392857D02*
X169076190Y-155726190D01*
X169552380Y-155964285D02*
X168552380Y-155964285D01*
X168552380Y-155583333D01*
X168600000Y-155488095D01*
X168647619Y-155440476D01*
X168742857Y-155392857D01*
X168885714Y-155392857D01*
X168980952Y-155440476D01*
X169028571Y-155488095D01*
X169076190Y-155583333D01*
X169076190Y-155964285D01*
X168647619Y-155011904D02*
X168600000Y-154964285D01*
X168552380Y-154869047D01*
X168552380Y-154630952D01*
X168600000Y-154535714D01*
X168647619Y-154488095D01*
X168742857Y-154440476D01*
X168838095Y-154440476D01*
X168980952Y-154488095D01*
X169552380Y-155059523D01*
X169552380Y-154440476D01*
X168552380Y-153821428D02*
X168552380Y-153726190D01*
X168600000Y-153630952D01*
X168647619Y-153583333D01*
X168742857Y-153535714D01*
X168933333Y-153488095D01*
X169171428Y-153488095D01*
X169361904Y-153535714D01*
X169457142Y-153583333D01*
X169504761Y-153630952D01*
X169552380Y-153726190D01*
X169552380Y-153821428D01*
X169504761Y-153916666D01*
X169457142Y-153964285D01*
X169361904Y-154011904D01*
X169171428Y-154059523D01*
X168933333Y-154059523D01*
X168742857Y-154011904D01*
X168647619Y-153964285D01*
X168600000Y-153916666D01*
X168552380Y-153821428D01*
X125227142Y-118042857D02*
X125274761Y-118090476D01*
X125322380Y-118233333D01*
X125322380Y-118328571D01*
X125274761Y-118471428D01*
X125179523Y-118566666D01*
X125084285Y-118614285D01*
X124893809Y-118661904D01*
X124750952Y-118661904D01*
X124560476Y-118614285D01*
X124465238Y-118566666D01*
X124370000Y-118471428D01*
X124322380Y-118328571D01*
X124322380Y-118233333D01*
X124370000Y-118090476D01*
X124417619Y-118042857D01*
X125322380Y-117090476D02*
X125322380Y-117661904D01*
X125322380Y-117376190D02*
X124322380Y-117376190D01*
X124465238Y-117471428D01*
X124560476Y-117566666D01*
X124608095Y-117661904D01*
X124750952Y-116519047D02*
X124703333Y-116614285D01*
X124655714Y-116661904D01*
X124560476Y-116709523D01*
X124512857Y-116709523D01*
X124417619Y-116661904D01*
X124370000Y-116614285D01*
X124322380Y-116519047D01*
X124322380Y-116328571D01*
X124370000Y-116233333D01*
X124417619Y-116185714D01*
X124512857Y-116138095D01*
X124560476Y-116138095D01*
X124655714Y-116185714D01*
X124703333Y-116233333D01*
X124750952Y-116328571D01*
X124750952Y-116519047D01*
X124798571Y-116614285D01*
X124846190Y-116661904D01*
X124941428Y-116709523D01*
X125131904Y-116709523D01*
X125227142Y-116661904D01*
X125274761Y-116614285D01*
X125322380Y-116519047D01*
X125322380Y-116328571D01*
X125274761Y-116233333D01*
X125227142Y-116185714D01*
X125131904Y-116138095D01*
X124941428Y-116138095D01*
X124846190Y-116185714D01*
X124798571Y-116233333D01*
X124750952Y-116328571D01*
X144302380Y-109962857D02*
X143826190Y-110296190D01*
X144302380Y-110534285D02*
X143302380Y-110534285D01*
X143302380Y-110153333D01*
X143350000Y-110058095D01*
X143397619Y-110010476D01*
X143492857Y-109962857D01*
X143635714Y-109962857D01*
X143730952Y-110010476D01*
X143778571Y-110058095D01*
X143826190Y-110153333D01*
X143826190Y-110534285D01*
X143397619Y-109581904D02*
X143350000Y-109534285D01*
X143302380Y-109439047D01*
X143302380Y-109200952D01*
X143350000Y-109105714D01*
X143397619Y-109058095D01*
X143492857Y-109010476D01*
X143588095Y-109010476D01*
X143730952Y-109058095D01*
X144302380Y-109629523D01*
X144302380Y-109010476D01*
X143302380Y-108677142D02*
X143302380Y-108010476D01*
X144302380Y-108439047D01*
X153611904Y-146797619D02*
X153611904Y-145988095D01*
X153564285Y-145892857D01*
X153516666Y-145845238D01*
X153421428Y-145797619D01*
X153230952Y-145797619D01*
X153135714Y-145845238D01*
X153088095Y-145892857D01*
X153040476Y-145988095D01*
X153040476Y-146797619D01*
X152088095Y-146797619D02*
X152564285Y-146797619D01*
X152611904Y-146321428D01*
X152564285Y-146369047D01*
X152469047Y-146416666D01*
X152230952Y-146416666D01*
X152135714Y-146369047D01*
X152088095Y-146321428D01*
X152040476Y-146226190D01*
X152040476Y-145988095D01*
X152088095Y-145892857D01*
X152135714Y-145845238D01*
X152230952Y-145797619D01*
X152469047Y-145797619D01*
X152564285Y-145845238D01*
X152611904Y-145892857D01*
X156450000Y-152547619D02*
X156450000Y-152309523D01*
X156688095Y-152404761D02*
X156450000Y-152309523D01*
X156211904Y-152404761D01*
X156592857Y-152119047D02*
X156450000Y-152309523D01*
X156307142Y-152119047D01*
X156475000Y-151052380D02*
X156475000Y-151290476D01*
X156236904Y-151195238D02*
X156475000Y-151290476D01*
X156713095Y-151195238D01*
X156332142Y-151480952D02*
X156475000Y-151290476D01*
X156617857Y-151480952D01*
X130352380Y-132141666D02*
X129876190Y-132475000D01*
X130352380Y-132713095D02*
X129352380Y-132713095D01*
X129352380Y-132332142D01*
X129400000Y-132236904D01*
X129447619Y-132189285D01*
X129542857Y-132141666D01*
X129685714Y-132141666D01*
X129780952Y-132189285D01*
X129828571Y-132236904D01*
X129876190Y-132332142D01*
X129876190Y-132713095D01*
X129352380Y-131284523D02*
X129352380Y-131475000D01*
X129400000Y-131570238D01*
X129447619Y-131617857D01*
X129590476Y-131713095D01*
X129780952Y-131760714D01*
X130161904Y-131760714D01*
X130257142Y-131713095D01*
X130304761Y-131665476D01*
X130352380Y-131570238D01*
X130352380Y-131379761D01*
X130304761Y-131284523D01*
X130257142Y-131236904D01*
X130161904Y-131189285D01*
X129923809Y-131189285D01*
X129828571Y-131236904D01*
X129780952Y-131284523D01*
X129733333Y-131379761D01*
X129733333Y-131570238D01*
X129780952Y-131665476D01*
X129828571Y-131713095D01*
X129923809Y-131760714D01*
X143594642Y-154177142D02*
X143547023Y-154224761D01*
X143404166Y-154272380D01*
X143308928Y-154272380D01*
X143166071Y-154224761D01*
X143070833Y-154129523D01*
X143023214Y-154034285D01*
X142975595Y-153843809D01*
X142975595Y-153700952D01*
X143023214Y-153510476D01*
X143070833Y-153415238D01*
X143166071Y-153320000D01*
X143308928Y-153272380D01*
X143404166Y-153272380D01*
X143547023Y-153320000D01*
X143594642Y-153367619D01*
X144547023Y-154272380D02*
X143975595Y-154272380D01*
X144261309Y-154272380D02*
X144261309Y-153272380D01*
X144166071Y-153415238D01*
X144070833Y-153510476D01*
X143975595Y-153558095D01*
X145166071Y-153272380D02*
X145261309Y-153272380D01*
X145356547Y-153320000D01*
X145404166Y-153367619D01*
X145451785Y-153462857D01*
X145499404Y-153653333D01*
X145499404Y-153891428D01*
X145451785Y-154081904D01*
X145404166Y-154177142D01*
X145356547Y-154224761D01*
X145261309Y-154272380D01*
X145166071Y-154272380D01*
X145070833Y-154224761D01*
X145023214Y-154177142D01*
X144975595Y-154081904D01*
X144927976Y-153891428D01*
X144927976Y-153653333D01*
X144975595Y-153462857D01*
X145023214Y-153367619D01*
X145070833Y-153320000D01*
X145166071Y-153272380D01*
X151616666Y-115779761D02*
X151759523Y-115827380D01*
X151997619Y-115827380D01*
X152092857Y-115779761D01*
X152140476Y-115732142D01*
X152188095Y-115636904D01*
X152188095Y-115541666D01*
X152140476Y-115446428D01*
X152092857Y-115398809D01*
X151997619Y-115351190D01*
X151807142Y-115303571D01*
X151711904Y-115255952D01*
X151664285Y-115208333D01*
X151616666Y-115113095D01*
X151616666Y-115017857D01*
X151664285Y-114922619D01*
X151711904Y-114875000D01*
X151807142Y-114827380D01*
X152045238Y-114827380D01*
X152188095Y-114875000D01*
X152521428Y-114827380D02*
X152759523Y-115827380D01*
X152950000Y-115113095D01*
X153140476Y-115827380D01*
X153378571Y-114827380D01*
X153711904Y-114922619D02*
X153759523Y-114875000D01*
X153854761Y-114827380D01*
X154092857Y-114827380D01*
X154188095Y-114875000D01*
X154235714Y-114922619D01*
X154283333Y-115017857D01*
X154283333Y-115113095D01*
X154235714Y-115255952D01*
X153664285Y-115827380D01*
X154283333Y-115827380D01*
X170238095Y-158752380D02*
X170238095Y-157752380D01*
X170238095Y-158228571D02*
X170809523Y-158228571D01*
X170809523Y-158752380D02*
X170809523Y-157752380D01*
X171238095Y-157847619D02*
X171285714Y-157800000D01*
X171380952Y-157752380D01*
X171619047Y-157752380D01*
X171714285Y-157800000D01*
X171761904Y-157847619D01*
X171809523Y-157942857D01*
X171809523Y-158038095D01*
X171761904Y-158180952D01*
X171190476Y-158752380D01*
X171809523Y-158752380D01*
X126157142Y-89917857D02*
X126204761Y-89965476D01*
X126252380Y-90108333D01*
X126252380Y-90203571D01*
X126204761Y-90346428D01*
X126109523Y-90441666D01*
X126014285Y-90489285D01*
X125823809Y-90536904D01*
X125680952Y-90536904D01*
X125490476Y-90489285D01*
X125395238Y-90441666D01*
X125300000Y-90346428D01*
X125252380Y-90203571D01*
X125252380Y-90108333D01*
X125300000Y-89965476D01*
X125347619Y-89917857D01*
X125347619Y-89536904D02*
X125300000Y-89489285D01*
X125252380Y-89394047D01*
X125252380Y-89155952D01*
X125300000Y-89060714D01*
X125347619Y-89013095D01*
X125442857Y-88965476D01*
X125538095Y-88965476D01*
X125680952Y-89013095D01*
X126252380Y-89584523D01*
X126252380Y-88965476D01*
X125252380Y-88632142D02*
X125252380Y-88013095D01*
X125633333Y-88346428D01*
X125633333Y-88203571D01*
X125680952Y-88108333D01*
X125728571Y-88060714D01*
X125823809Y-88013095D01*
X126061904Y-88013095D01*
X126157142Y-88060714D01*
X126204761Y-88108333D01*
X126252380Y-88203571D01*
X126252380Y-88489285D01*
X126204761Y-88584523D01*
X126157142Y-88632142D01*
X123283333Y-154227142D02*
X123235714Y-154274761D01*
X123092857Y-154322380D01*
X122997619Y-154322380D01*
X122854761Y-154274761D01*
X122759523Y-154179523D01*
X122711904Y-154084285D01*
X122664285Y-153893809D01*
X122664285Y-153750952D01*
X122711904Y-153560476D01*
X122759523Y-153465238D01*
X122854761Y-153370000D01*
X122997619Y-153322380D01*
X123092857Y-153322380D01*
X123235714Y-153370000D01*
X123283333Y-153417619D01*
X123664285Y-153417619D02*
X123711904Y-153370000D01*
X123807142Y-153322380D01*
X124045238Y-153322380D01*
X124140476Y-153370000D01*
X124188095Y-153417619D01*
X124235714Y-153512857D01*
X124235714Y-153608095D01*
X124188095Y-153750952D01*
X123616666Y-154322380D01*
X124235714Y-154322380D01*
X122222380Y-111022857D02*
X121746190Y-111356190D01*
X122222380Y-111594285D02*
X121222380Y-111594285D01*
X121222380Y-111213333D01*
X121270000Y-111118095D01*
X121317619Y-111070476D01*
X121412857Y-111022857D01*
X121555714Y-111022857D01*
X121650952Y-111070476D01*
X121698571Y-111118095D01*
X121746190Y-111213333D01*
X121746190Y-111594285D01*
X121317619Y-110641904D02*
X121270000Y-110594285D01*
X121222380Y-110499047D01*
X121222380Y-110260952D01*
X121270000Y-110165714D01*
X121317619Y-110118095D01*
X121412857Y-110070476D01*
X121508095Y-110070476D01*
X121650952Y-110118095D01*
X122222380Y-110689523D01*
X122222380Y-110070476D01*
X121555714Y-109213333D02*
X122222380Y-109213333D01*
X121174761Y-109451428D02*
X121889047Y-109689523D01*
X121889047Y-109070476D01*
X142747142Y-129122857D02*
X142794761Y-129170476D01*
X142842380Y-129313333D01*
X142842380Y-129408571D01*
X142794761Y-129551428D01*
X142699523Y-129646666D01*
X142604285Y-129694285D01*
X142413809Y-129741904D01*
X142270952Y-129741904D01*
X142080476Y-129694285D01*
X141985238Y-129646666D01*
X141890000Y-129551428D01*
X141842380Y-129408571D01*
X141842380Y-129313333D01*
X141890000Y-129170476D01*
X141937619Y-129122857D01*
X141937619Y-128741904D02*
X141890000Y-128694285D01*
X141842380Y-128599047D01*
X141842380Y-128360952D01*
X141890000Y-128265714D01*
X141937619Y-128218095D01*
X142032857Y-128170476D01*
X142128095Y-128170476D01*
X142270952Y-128218095D01*
X142842380Y-128789523D01*
X142842380Y-128170476D01*
X141842380Y-127837142D02*
X141842380Y-127170476D01*
X142842380Y-127599047D01*
X155853095Y-141257380D02*
X155853095Y-142066904D01*
X155900714Y-142162142D01*
X155948333Y-142209761D01*
X156043571Y-142257380D01*
X156234047Y-142257380D01*
X156329285Y-142209761D01*
X156376904Y-142162142D01*
X156424523Y-142066904D01*
X156424523Y-141257380D01*
X156805476Y-141257380D02*
X157424523Y-141257380D01*
X157091190Y-141638333D01*
X157234047Y-141638333D01*
X157329285Y-141685952D01*
X157376904Y-141733571D01*
X157424523Y-141828809D01*
X157424523Y-142066904D01*
X157376904Y-142162142D01*
X157329285Y-142209761D01*
X157234047Y-142257380D01*
X156948333Y-142257380D01*
X156853095Y-142209761D01*
X156805476Y-142162142D01*
X137602380Y-110022857D02*
X137126190Y-110356190D01*
X137602380Y-110594285D02*
X136602380Y-110594285D01*
X136602380Y-110213333D01*
X136650000Y-110118095D01*
X136697619Y-110070476D01*
X136792857Y-110022857D01*
X136935714Y-110022857D01*
X137030952Y-110070476D01*
X137078571Y-110118095D01*
X137126190Y-110213333D01*
X137126190Y-110594285D01*
X137602380Y-109070476D02*
X137602380Y-109641904D01*
X137602380Y-109356190D02*
X136602380Y-109356190D01*
X136745238Y-109451428D01*
X136840476Y-109546666D01*
X136888095Y-109641904D01*
X136602380Y-108737142D02*
X136602380Y-108070476D01*
X137602380Y-108499047D01*
X173182142Y-151692857D02*
X173229761Y-151740476D01*
X173277380Y-151883333D01*
X173277380Y-151978571D01*
X173229761Y-152121428D01*
X173134523Y-152216666D01*
X173039285Y-152264285D01*
X172848809Y-152311904D01*
X172705952Y-152311904D01*
X172515476Y-152264285D01*
X172420238Y-152216666D01*
X172325000Y-152121428D01*
X172277380Y-151978571D01*
X172277380Y-151883333D01*
X172325000Y-151740476D01*
X172372619Y-151692857D01*
X173277380Y-150740476D02*
X173277380Y-151311904D01*
X173277380Y-151026190D02*
X172277380Y-151026190D01*
X172420238Y-151121428D01*
X172515476Y-151216666D01*
X172563095Y-151311904D01*
X172277380Y-149835714D02*
X172277380Y-150311904D01*
X172753571Y-150359523D01*
X172705952Y-150311904D01*
X172658333Y-150216666D01*
X172658333Y-149978571D01*
X172705952Y-149883333D01*
X172753571Y-149835714D01*
X172848809Y-149788095D01*
X173086904Y-149788095D01*
X173182142Y-149835714D01*
X173229761Y-149883333D01*
X173277380Y-149978571D01*
X173277380Y-150216666D01*
X173229761Y-150311904D01*
X173182142Y-150359523D01*
X170567380Y-144331666D02*
X170091190Y-144665000D01*
X170567380Y-144903095D02*
X169567380Y-144903095D01*
X169567380Y-144522142D01*
X169615000Y-144426904D01*
X169662619Y-144379285D01*
X169757857Y-144331666D01*
X169900714Y-144331666D01*
X169995952Y-144379285D01*
X170043571Y-144426904D01*
X170091190Y-144522142D01*
X170091190Y-144903095D01*
X169567380Y-143426904D02*
X169567380Y-143903095D01*
X170043571Y-143950714D01*
X169995952Y-143903095D01*
X169948333Y-143807857D01*
X169948333Y-143569761D01*
X169995952Y-143474523D01*
X170043571Y-143426904D01*
X170138809Y-143379285D01*
X170376904Y-143379285D01*
X170472142Y-143426904D01*
X170519761Y-143474523D01*
X170567380Y-143569761D01*
X170567380Y-143807857D01*
X170519761Y-143903095D01*
X170472142Y-143950714D01*
X154844761Y-92667619D02*
X154749523Y-92620000D01*
X154654285Y-92524761D01*
X154511428Y-92381904D01*
X154416190Y-92334285D01*
X154320952Y-92334285D01*
X154368571Y-92572380D02*
X154273333Y-92524761D01*
X154178095Y-92429523D01*
X154130476Y-92239047D01*
X154130476Y-91905714D01*
X154178095Y-91715238D01*
X154273333Y-91620000D01*
X154368571Y-91572380D01*
X154559047Y-91572380D01*
X154654285Y-91620000D01*
X154749523Y-91715238D01*
X154797142Y-91905714D01*
X154797142Y-92239047D01*
X154749523Y-92429523D01*
X154654285Y-92524761D01*
X154559047Y-92572380D01*
X154368571Y-92572380D01*
X155178095Y-91667619D02*
X155225714Y-91620000D01*
X155320952Y-91572380D01*
X155559047Y-91572380D01*
X155654285Y-91620000D01*
X155701904Y-91667619D01*
X155749523Y-91762857D01*
X155749523Y-91858095D01*
X155701904Y-92000952D01*
X155130476Y-92572380D01*
X155749523Y-92572380D01*
X164758095Y-89742380D02*
X164758095Y-88742380D01*
X164758095Y-89218571D02*
X165329523Y-89218571D01*
X165329523Y-89742380D02*
X165329523Y-88742380D01*
X166329523Y-89742380D02*
X165758095Y-89742380D01*
X166043809Y-89742380D02*
X166043809Y-88742380D01*
X165948571Y-88885238D01*
X165853333Y-88980476D01*
X165758095Y-89028095D01*
X162216666Y-115622380D02*
X162216666Y-116336666D01*
X162169047Y-116479523D01*
X162073809Y-116574761D01*
X161930952Y-116622380D01*
X161835714Y-116622380D01*
X162597619Y-115622380D02*
X163264285Y-115622380D01*
X162835714Y-116622380D01*
X138783333Y-148232142D02*
X138735714Y-148279761D01*
X138592857Y-148327380D01*
X138497619Y-148327380D01*
X138354761Y-148279761D01*
X138259523Y-148184523D01*
X138211904Y-148089285D01*
X138164285Y-147898809D01*
X138164285Y-147755952D01*
X138211904Y-147565476D01*
X138259523Y-147470238D01*
X138354761Y-147375000D01*
X138497619Y-147327380D01*
X138592857Y-147327380D01*
X138735714Y-147375000D01*
X138783333Y-147422619D01*
X139640476Y-147660714D02*
X139640476Y-148327380D01*
X139402380Y-147279761D02*
X139164285Y-147994047D01*
X139783333Y-147994047D01*
X151868466Y-154647380D02*
X151868466Y-155361666D01*
X151820847Y-155504523D01*
X151725609Y-155599761D01*
X151582752Y-155647380D01*
X151487514Y-155647380D01*
X152487514Y-155075952D02*
X152392276Y-155028333D01*
X152344657Y-154980714D01*
X152297038Y-154885476D01*
X152297038Y-154837857D01*
X152344657Y-154742619D01*
X152392276Y-154695000D01*
X152487514Y-154647380D01*
X152677990Y-154647380D01*
X152773228Y-154695000D01*
X152820847Y-154742619D01*
X152868466Y-154837857D01*
X152868466Y-154885476D01*
X152820847Y-154980714D01*
X152773228Y-155028333D01*
X152677990Y-155075952D01*
X152487514Y-155075952D01*
X152392276Y-155123571D01*
X152344657Y-155171190D01*
X152297038Y-155266428D01*
X152297038Y-155456904D01*
X152344657Y-155552142D01*
X152392276Y-155599761D01*
X152487514Y-155647380D01*
X152677990Y-155647380D01*
X152773228Y-155599761D01*
X152820847Y-155552142D01*
X152868466Y-155456904D01*
X152868466Y-155266428D01*
X152820847Y-155171190D01*
X152773228Y-155123571D01*
X152677990Y-155075952D01*
X167727380Y-155717857D02*
X167251190Y-156051190D01*
X167727380Y-156289285D02*
X166727380Y-156289285D01*
X166727380Y-155908333D01*
X166775000Y-155813095D01*
X166822619Y-155765476D01*
X166917857Y-155717857D01*
X167060714Y-155717857D01*
X167155952Y-155765476D01*
X167203571Y-155813095D01*
X167251190Y-155908333D01*
X167251190Y-156289285D01*
X166822619Y-155336904D02*
X166775000Y-155289285D01*
X166727380Y-155194047D01*
X166727380Y-154955952D01*
X166775000Y-154860714D01*
X166822619Y-154813095D01*
X166917857Y-154765476D01*
X167013095Y-154765476D01*
X167155952Y-154813095D01*
X167727380Y-155384523D01*
X167727380Y-154765476D01*
X167727380Y-153813095D02*
X167727380Y-154384523D01*
X167727380Y-154098809D02*
X166727380Y-154098809D01*
X166870238Y-154194047D01*
X166965476Y-154289285D01*
X167013095Y-154384523D01*
X140702380Y-110142857D02*
X140226190Y-110476190D01*
X140702380Y-110714285D02*
X139702380Y-110714285D01*
X139702380Y-110333333D01*
X139750000Y-110238095D01*
X139797619Y-110190476D01*
X139892857Y-110142857D01*
X140035714Y-110142857D01*
X140130952Y-110190476D01*
X140178571Y-110238095D01*
X140226190Y-110333333D01*
X140226190Y-110714285D01*
X140702380Y-109190476D02*
X140702380Y-109761904D01*
X140702380Y-109476190D02*
X139702380Y-109476190D01*
X139845238Y-109571428D01*
X139940476Y-109666666D01*
X139988095Y-109761904D01*
X139702380Y-108571428D02*
X139702380Y-108476190D01*
X139750000Y-108380952D01*
X139797619Y-108333333D01*
X139892857Y-108285714D01*
X140083333Y-108238095D01*
X140321428Y-108238095D01*
X140511904Y-108285714D01*
X140607142Y-108333333D01*
X140654761Y-108380952D01*
X140702380Y-108476190D01*
X140702380Y-108571428D01*
X140654761Y-108666666D01*
X140607142Y-108714285D01*
X140511904Y-108761904D01*
X140321428Y-108809523D01*
X140083333Y-108809523D01*
X139892857Y-108761904D01*
X139797619Y-108714285D01*
X139750000Y-108666666D01*
X139702380Y-108571428D01*
X137583333Y-146522380D02*
X137250000Y-146046190D01*
X137011904Y-146522380D02*
X137011904Y-145522380D01*
X137392857Y-145522380D01*
X137488095Y-145570000D01*
X137535714Y-145617619D01*
X137583333Y-145712857D01*
X137583333Y-145855714D01*
X137535714Y-145950952D01*
X137488095Y-145998571D01*
X137392857Y-146046190D01*
X137011904Y-146046190D01*
X137964285Y-145617619D02*
X138011904Y-145570000D01*
X138107142Y-145522380D01*
X138345238Y-145522380D01*
X138440476Y-145570000D01*
X138488095Y-145617619D01*
X138535714Y-145712857D01*
X138535714Y-145808095D01*
X138488095Y-145950952D01*
X137916666Y-146522380D01*
X138535714Y-146522380D01*
X119552380Y-131083333D02*
X120266666Y-131083333D01*
X120409523Y-131130952D01*
X120504761Y-131226190D01*
X120552380Y-131369047D01*
X120552380Y-131464285D01*
X120552380Y-130083333D02*
X120552380Y-130654761D01*
X120552380Y-130369047D02*
X119552380Y-130369047D01*
X119695238Y-130464285D01*
X119790476Y-130559523D01*
X119838095Y-130654761D01*
X127827380Y-126092857D02*
X127351190Y-126426190D01*
X127827380Y-126664285D02*
X126827380Y-126664285D01*
X126827380Y-126283333D01*
X126875000Y-126188095D01*
X126922619Y-126140476D01*
X127017857Y-126092857D01*
X127160714Y-126092857D01*
X127255952Y-126140476D01*
X127303571Y-126188095D01*
X127351190Y-126283333D01*
X127351190Y-126664285D01*
X126922619Y-125711904D02*
X126875000Y-125664285D01*
X126827380Y-125569047D01*
X126827380Y-125330952D01*
X126875000Y-125235714D01*
X126922619Y-125188095D01*
X127017857Y-125140476D01*
X127113095Y-125140476D01*
X127255952Y-125188095D01*
X127827380Y-125759523D01*
X127827380Y-125140476D01*
X126827380Y-124807142D02*
X126827380Y-124188095D01*
X127208333Y-124521428D01*
X127208333Y-124378571D01*
X127255952Y-124283333D01*
X127303571Y-124235714D01*
X127398809Y-124188095D01*
X127636904Y-124188095D01*
X127732142Y-124235714D01*
X127779761Y-124283333D01*
X127827380Y-124378571D01*
X127827380Y-124664285D01*
X127779761Y-124759523D01*
X127732142Y-124807142D01*
X144357142Y-129062857D02*
X144404761Y-129110476D01*
X144452380Y-129253333D01*
X144452380Y-129348571D01*
X144404761Y-129491428D01*
X144309523Y-129586666D01*
X144214285Y-129634285D01*
X144023809Y-129681904D01*
X143880952Y-129681904D01*
X143690476Y-129634285D01*
X143595238Y-129586666D01*
X143500000Y-129491428D01*
X143452380Y-129348571D01*
X143452380Y-129253333D01*
X143500000Y-129110476D01*
X143547619Y-129062857D01*
X143547619Y-128681904D02*
X143500000Y-128634285D01*
X143452380Y-128539047D01*
X143452380Y-128300952D01*
X143500000Y-128205714D01*
X143547619Y-128158095D01*
X143642857Y-128110476D01*
X143738095Y-128110476D01*
X143880952Y-128158095D01*
X144452380Y-128729523D01*
X144452380Y-128110476D01*
X143452380Y-127253333D02*
X143452380Y-127443809D01*
X143500000Y-127539047D01*
X143547619Y-127586666D01*
X143690476Y-127681904D01*
X143880952Y-127729523D01*
X144261904Y-127729523D01*
X144357142Y-127681904D01*
X144404761Y-127634285D01*
X144452380Y-127539047D01*
X144452380Y-127348571D01*
X144404761Y-127253333D01*
X144357142Y-127205714D01*
X144261904Y-127158095D01*
X144023809Y-127158095D01*
X143928571Y-127205714D01*
X143880952Y-127253333D01*
X143833333Y-127348571D01*
X143833333Y-127539047D01*
X143880952Y-127634285D01*
X143928571Y-127681904D01*
X144023809Y-127729523D01*
X126096666Y-115444761D02*
X126239523Y-115492380D01*
X126477619Y-115492380D01*
X126572857Y-115444761D01*
X126620476Y-115397142D01*
X126668095Y-115301904D01*
X126668095Y-115206666D01*
X126620476Y-115111428D01*
X126572857Y-115063809D01*
X126477619Y-115016190D01*
X126287142Y-114968571D01*
X126191904Y-114920952D01*
X126144285Y-114873333D01*
X126096666Y-114778095D01*
X126096666Y-114682857D01*
X126144285Y-114587619D01*
X126191904Y-114540000D01*
X126287142Y-114492380D01*
X126525238Y-114492380D01*
X126668095Y-114540000D01*
X127001428Y-114492380D02*
X127239523Y-115492380D01*
X127430000Y-114778095D01*
X127620476Y-115492380D01*
X127858571Y-114492380D01*
X128763333Y-115492380D02*
X128191904Y-115492380D01*
X128477619Y-115492380D02*
X128477619Y-114492380D01*
X128382380Y-114635238D01*
X128287142Y-114730476D01*
X128191904Y-114778095D01*
X154857142Y-144452380D02*
X154523809Y-143976190D01*
X154285714Y-144452380D02*
X154285714Y-143452380D01*
X154666666Y-143452380D01*
X154761904Y-143500000D01*
X154809523Y-143547619D01*
X154857142Y-143642857D01*
X154857142Y-143785714D01*
X154809523Y-143880952D01*
X154761904Y-143928571D01*
X154666666Y-143976190D01*
X154285714Y-143976190D01*
X155809523Y-144452380D02*
X155238095Y-144452380D01*
X155523809Y-144452380D02*
X155523809Y-143452380D01*
X155428571Y-143595238D01*
X155333333Y-143690476D01*
X155238095Y-143738095D01*
X156666666Y-143452380D02*
X156476190Y-143452380D01*
X156380952Y-143500000D01*
X156333333Y-143547619D01*
X156238095Y-143690476D01*
X156190476Y-143880952D01*
X156190476Y-144261904D01*
X156238095Y-144357142D01*
X156285714Y-144404761D01*
X156380952Y-144452380D01*
X156571428Y-144452380D01*
X156666666Y-144404761D01*
X156714285Y-144357142D01*
X156761904Y-144261904D01*
X156761904Y-144023809D01*
X156714285Y-143928571D01*
X156666666Y-143880952D01*
X156571428Y-143833333D01*
X156380952Y-143833333D01*
X156285714Y-143880952D01*
X156238095Y-143928571D01*
X156190476Y-144023809D01*
X141236666Y-138438571D02*
X140903333Y-138438571D01*
X140903333Y-138962380D02*
X140903333Y-137962380D01*
X141379523Y-137962380D01*
X142284285Y-138962380D02*
X141712857Y-138962380D01*
X141998571Y-138962380D02*
X141998571Y-137962380D01*
X141903333Y-138105238D01*
X141808095Y-138200476D01*
X141712857Y-138248095D01*
X118488095Y-89077380D02*
X118488095Y-88077380D01*
X118488095Y-88553571D02*
X119059523Y-88553571D01*
X119059523Y-89077380D02*
X119059523Y-88077380D01*
X119440476Y-88077380D02*
X120059523Y-88077380D01*
X119726190Y-88458333D01*
X119869047Y-88458333D01*
X119964285Y-88505952D01*
X120011904Y-88553571D01*
X120059523Y-88648809D01*
X120059523Y-88886904D01*
X120011904Y-88982142D01*
X119964285Y-89029761D01*
X119869047Y-89077380D01*
X119583333Y-89077380D01*
X119488095Y-89029761D01*
X119440476Y-88982142D01*
X125942380Y-126052857D02*
X125466190Y-126386190D01*
X125942380Y-126624285D02*
X124942380Y-126624285D01*
X124942380Y-126243333D01*
X124990000Y-126148095D01*
X125037619Y-126100476D01*
X125132857Y-126052857D01*
X125275714Y-126052857D01*
X125370952Y-126100476D01*
X125418571Y-126148095D01*
X125466190Y-126243333D01*
X125466190Y-126624285D01*
X125037619Y-125671904D02*
X124990000Y-125624285D01*
X124942380Y-125529047D01*
X124942380Y-125290952D01*
X124990000Y-125195714D01*
X125037619Y-125148095D01*
X125132857Y-125100476D01*
X125228095Y-125100476D01*
X125370952Y-125148095D01*
X125942380Y-125719523D01*
X125942380Y-125100476D01*
X124942380Y-124243333D02*
X124942380Y-124433809D01*
X124990000Y-124529047D01*
X125037619Y-124576666D01*
X125180476Y-124671904D01*
X125370952Y-124719523D01*
X125751904Y-124719523D01*
X125847142Y-124671904D01*
X125894761Y-124624285D01*
X125942380Y-124529047D01*
X125942380Y-124338571D01*
X125894761Y-124243333D01*
X125847142Y-124195714D01*
X125751904Y-124148095D01*
X125513809Y-124148095D01*
X125418571Y-124195714D01*
X125370952Y-124243333D01*
X125323333Y-124338571D01*
X125323333Y-124529047D01*
X125370952Y-124624285D01*
X125418571Y-124671904D01*
X125513809Y-124719523D01*
X124302380Y-146892857D02*
X123826190Y-147226190D01*
X124302380Y-147464285D02*
X123302380Y-147464285D01*
X123302380Y-147083333D01*
X123350000Y-146988095D01*
X123397619Y-146940476D01*
X123492857Y-146892857D01*
X123635714Y-146892857D01*
X123730952Y-146940476D01*
X123778571Y-146988095D01*
X123826190Y-147083333D01*
X123826190Y-147464285D01*
X124302380Y-145940476D02*
X124302380Y-146511904D01*
X124302380Y-146226190D02*
X123302380Y-146226190D01*
X123445238Y-146321428D01*
X123540476Y-146416666D01*
X123588095Y-146511904D01*
X124302380Y-144988095D02*
X124302380Y-145559523D01*
X124302380Y-145273809D02*
X123302380Y-145273809D01*
X123445238Y-145369047D01*
X123540476Y-145464285D01*
X123588095Y-145559523D01*
D12*
X162750000Y-162560000D02*
X164700000Y-162560000D01*
X162750000Y-157440000D02*
X159300000Y-157440000D01*
X162750000Y-157440000D02*
X164700000Y-157440000D01*
X162750000Y-162560000D02*
X160800000Y-162560000D01*
X133688748Y-129265000D02*
X134211252Y-129265000D01*
X133688748Y-130735000D02*
X134211252Y-130735000D01*
X156727064Y-114765000D02*
X156272936Y-114765000D01*
X156727064Y-116235000D02*
X156272936Y-116235000D01*
X131150000Y-126850000D02*
X125750000Y-126850000D01*
X131150000Y-130150000D02*
X131150000Y-126850000D01*
X131150000Y-130150000D02*
X125750000Y-130150000D01*
X157488748Y-148915000D02*
X158011252Y-148915000D01*
X157488748Y-150385000D02*
X158011252Y-150385000D01*
D11*
X163050000Y-126100000D02*
G75*
G03*
X163050000Y-126100000I-1750000J0D01*
G01*
D12*
X126160000Y-96200000D02*
X126160000Y-96850000D01*
X123040000Y-96200000D02*
X123040000Y-97875000D01*
X126160000Y-96200000D02*
X126160000Y-95550000D01*
X123040000Y-96200000D02*
X123040000Y-95550000D01*
X145765000Y-146727064D02*
X145765000Y-146272936D01*
X147235000Y-146727064D02*
X147235000Y-146272936D01*
X158227064Y-94335000D02*
X157772936Y-94335000D01*
X158227064Y-92865000D02*
X157772936Y-92865000D01*
X153665000Y-95027064D02*
X153665000Y-94572936D01*
X155135000Y-95027064D02*
X155135000Y-94572936D01*
X149738748Y-145265000D02*
X150261252Y-145265000D01*
X149738748Y-146735000D02*
X150261252Y-146735000D01*
X148465000Y-111263748D02*
X148465000Y-111786252D01*
X149935000Y-111263748D02*
X149935000Y-111786252D01*
X132272936Y-116765000D02*
X132727064Y-116765000D01*
X132272936Y-118235000D02*
X132727064Y-118235000D01*
D11*
X162480000Y-89290000D02*
G75*
G03*
X162480000Y-89290000I-1750000J0D01*
G01*
D12*
X130477064Y-126235000D02*
X130022936Y-126235000D01*
X130477064Y-124765000D02*
X130022936Y-124765000D01*
X169355000Y-123137064D02*
X169355000Y-122682936D01*
X167885000Y-123137064D02*
X167885000Y-122682936D01*
X156065000Y-103772936D02*
X156065000Y-104227064D01*
X157535000Y-103772936D02*
X157535000Y-104227064D01*
X133688748Y-128485000D02*
X134211252Y-128485000D01*
X133688748Y-127015000D02*
X134211252Y-127015000D01*
X118070000Y-97870000D02*
X118070000Y-118250000D01*
X118070000Y-118250000D02*
X120730000Y-118250000D01*
X120730000Y-97870000D02*
X120730000Y-118250000D01*
X118070000Y-96600000D02*
X118070000Y-95270000D01*
X118070000Y-95270000D02*
X119400000Y-95270000D01*
X118070000Y-97870000D02*
X120730000Y-97870000D01*
X163411252Y-164735000D02*
X162888748Y-164735000D01*
X163411252Y-163265000D02*
X162888748Y-163265000D01*
X166475000Y-140967064D02*
X166475000Y-140512936D01*
X165005000Y-140967064D02*
X165005000Y-140512936D01*
X128200000Y-117450000D02*
G75*
G03*
X128200000Y-117450000I-1200000J0D01*
G01*
X168988748Y-147265000D02*
X169511252Y-147265000D01*
X168988748Y-148735000D02*
X169511252Y-148735000D01*
X128738748Y-146735000D02*
X129261252Y-146735000D01*
X128738748Y-145265000D02*
X129261252Y-145265000D01*
X128335000Y-93227064D02*
X128335000Y-92772936D01*
X126865000Y-93227064D02*
X126865000Y-92772936D01*
X141275000Y-162675000D02*
X139325000Y-162675000D01*
X141275000Y-157555000D02*
X137825000Y-157555000D01*
X141275000Y-157555000D02*
X143225000Y-157555000D01*
X141275000Y-162675000D02*
X143225000Y-162675000D01*
D11*
X170305000Y-118995000D02*
G75*
G03*
X170305000Y-118995000I-1750000J0D01*
G01*
D13*
X132913740Y-135849400D02*
X133228700Y-135849400D01*
X133228700Y-132750600D02*
X132913740Y-132750600D01*
X131171300Y-132750600D02*
X131171300Y-135849400D01*
X131486260Y-132750600D02*
X131171300Y-132750600D01*
X133228700Y-135849400D02*
X133228700Y-132750600D01*
X131171300Y-135849400D02*
X131486260Y-135849400D01*
X151431300Y-106427800D02*
X150062240Y-106427800D01*
X133168700Y-106427800D02*
X133168700Y-105577240D01*
X134537760Y-106427800D02*
X133168700Y-106427800D01*
X151431300Y-105577240D02*
X151431300Y-106427800D01*
D12*
X124915936Y-148540000D02*
X123461808Y-148540000D01*
X124915936Y-150360000D02*
X123461808Y-150360000D01*
X129065000Y-92772936D02*
X129065000Y-93227064D01*
X130535000Y-92772936D02*
X130535000Y-93227064D01*
X145375000Y-119600000D02*
X145375000Y-121600000D01*
X142575000Y-119600000D02*
X145375000Y-119600000D01*
X145375000Y-121600000D02*
X142575000Y-121600000D01*
X142575000Y-121600000D02*
X142575000Y-119600000D01*
X133688748Y-126235000D02*
X134211252Y-126235000D01*
X133688748Y-124765000D02*
X134211252Y-124765000D01*
D11*
X174300000Y-143600000D02*
G75*
G03*
X174300000Y-143600000I-1750000J0D01*
G01*
D12*
X138372936Y-151040000D02*
X139827064Y-151040000D01*
X138372936Y-152860000D02*
X139827064Y-152860000D01*
X160470000Y-93195000D02*
X161800000Y-93195000D01*
X163130000Y-95795000D02*
X163130000Y-106015000D01*
X160470000Y-95795000D02*
X163130000Y-95795000D01*
X160470000Y-94525000D02*
X160470000Y-93195000D01*
X160470000Y-106015000D02*
X163130000Y-106015000D01*
X160470000Y-95795000D02*
X160470000Y-106015000D01*
X150780000Y-139666252D02*
X150780000Y-139143748D01*
X152250000Y-139666252D02*
X152250000Y-139143748D01*
D13*
X139620900Y-131571100D02*
X135379100Y-131571100D01*
X135379100Y-136828900D02*
X139620900Y-136828900D01*
D12*
X133472936Y-153390000D02*
X134927064Y-153390000D01*
X133472936Y-155210000D02*
X134927064Y-155210000D01*
X145914564Y-148640000D02*
X144460436Y-148640000D01*
X145914564Y-150460000D02*
X144460436Y-150460000D01*
X159272936Y-151090000D02*
X160727064Y-151090000D01*
X159272936Y-152910000D02*
X160727064Y-152910000D01*
X168725000Y-141001252D02*
X168725000Y-140478748D01*
X167255000Y-141001252D02*
X167255000Y-140478748D01*
X132727064Y-115985000D02*
X132272936Y-115985000D01*
X132727064Y-114515000D02*
X132272936Y-114515000D01*
X139511252Y-163515000D02*
X138988748Y-163515000D01*
X139511252Y-164985000D02*
X138988748Y-164985000D01*
X164790000Y-123122064D02*
X164790000Y-122667936D01*
X163320000Y-123122064D02*
X163320000Y-122667936D01*
D13*
X132993424Y-147320300D02*
X128984376Y-147320300D01*
X128984376Y-152679700D02*
X132993424Y-152679700D01*
G36*
X127128100Y-148565499D02*
G01*
X126874100Y-148565499D01*
X126874100Y-148184499D01*
X127128100Y-148184499D01*
X127128100Y-148565499D01*
G37*
D12*
X131735000Y-89461252D02*
X131735000Y-88938748D01*
X130265000Y-89461252D02*
X130265000Y-88938748D01*
X166478748Y-138225000D02*
X167001252Y-138225000D01*
X166478748Y-136755000D02*
X167001252Y-136755000D01*
X134680000Y-113690000D02*
X134680000Y-111740000D01*
X140180000Y-111740000D02*
X140180000Y-113690000D01*
X135730000Y-114240000D02*
X136330000Y-114240000D01*
X140180000Y-113690000D02*
X134680000Y-113690000D01*
X136330000Y-114240000D02*
X136030000Y-113940000D01*
X134680000Y-111740000D02*
X140180000Y-111740000D01*
X136030000Y-113940000D02*
X135730000Y-114240000D01*
X125550000Y-119540000D02*
X124250000Y-119540000D01*
X124250000Y-122660000D02*
X126250000Y-122660000D01*
D11*
X148280000Y-125240000D02*
G75*
G03*
X148280000Y-125240000I-1750000J0D01*
G01*
D13*
X131518100Y-121975300D02*
X131518100Y-123524700D01*
X133981900Y-123524700D02*
X133981900Y-121975300D01*
X132101411Y-124456626D02*
G75*
G03*
X132101411Y-124456626I-101600J0D01*
G01*
D12*
X153665000Y-99027064D02*
X153665000Y-98572936D01*
X155135000Y-99027064D02*
X155135000Y-98572936D01*
X157800000Y-101760000D02*
X159475000Y-101760000D01*
X157800000Y-98640000D02*
X158450000Y-98640000D01*
X157800000Y-98640000D02*
X157150000Y-98640000D01*
X157800000Y-101760000D02*
X157150000Y-101760000D01*
D11*
X157670000Y-89270000D02*
G75*
G03*
X157670000Y-89270000I-1750000J0D01*
G01*
D12*
X132238748Y-120485000D02*
X132761252Y-120485000D01*
X132238748Y-119015000D02*
X132761252Y-119015000D01*
X128765000Y-118022936D02*
X128765000Y-118477064D01*
X130235000Y-118022936D02*
X130235000Y-118477064D01*
X134910000Y-160336000D02*
X134863000Y-160382000D01*
X125715000Y-165565000D02*
X125715000Y-166305000D01*
X125955000Y-159104000D02*
X136235000Y-159104000D01*
X125715000Y-166305000D02*
X126215000Y-166305000D01*
X125955000Y-156144000D02*
X125955000Y-166065000D01*
X125955000Y-165505000D02*
X136235000Y-165505000D01*
X136235000Y-156144000D02*
X136235000Y-166065000D01*
X125955000Y-166065000D02*
X136235000Y-166065000D01*
X132601000Y-162644000D02*
X132566000Y-162679000D01*
X132408000Y-162428000D02*
X132361000Y-162474000D01*
X125955000Y-156144000D02*
X136235000Y-156144000D01*
X125955000Y-164005000D02*
X136235000Y-164005000D01*
X134705000Y-160130000D02*
X134670000Y-160166000D01*
X130090001Y-162089000D02*
G75*
G03*
X130090427Y-160721958I-1535001J684000D01*
G01*
X128555000Y-163085000D02*
G75*
G03*
X129238318Y-162939756I0J1680000D01*
G01*
X127871000Y-162940000D02*
G75*
G03*
X128583805Y-163085253I683999J1535001D01*
G01*
X129239000Y-159870000D02*
G75*
G03*
X127871958Y-159869573I-684001J-1534993D01*
G01*
X127020000Y-160721000D02*
G75*
G03*
X127019573Y-162088042I1534993J-684001D01*
G01*
X135315000Y-161405000D02*
G75*
G03*
X135315000Y-161405000I-1680000J0D01*
G01*
X173770000Y-135515000D02*
X171110000Y-135515000D01*
X173770000Y-135515000D02*
X173770000Y-117675000D01*
X171110000Y-135515000D02*
X171110000Y-117675000D01*
X173770000Y-136785000D02*
X173770000Y-138115000D01*
X173770000Y-138115000D02*
X172440000Y-138115000D01*
X173770000Y-117675000D02*
X171110000Y-117675000D01*
X119930000Y-121440000D02*
X121910000Y-121440000D01*
X117960000Y-128960000D02*
X117560000Y-128960000D01*
X117560000Y-121440000D02*
X117960000Y-121440000D01*
X121910000Y-128960000D02*
X121910000Y-128540000D01*
X121910000Y-121440000D02*
X121910000Y-121860000D01*
X122590000Y-123890000D02*
X122590000Y-123440000D01*
X119930000Y-128960000D02*
X121910000Y-128960000D01*
X122140000Y-123440000D02*
X122590000Y-123440000D01*
X135100000Y-122850000D02*
X141400000Y-122850000D01*
X135100000Y-116650000D02*
X141400000Y-116650000D01*
X154472936Y-153490000D02*
X155927064Y-153490000D01*
X154472936Y-155310000D02*
X155927064Y-155310000D01*
X170015000Y-154977064D02*
X170015000Y-154522936D01*
X171485000Y-154977064D02*
X171485000Y-154522936D01*
X122165000Y-117238748D02*
X122165000Y-117761252D01*
X123635000Y-117238748D02*
X123635000Y-117761252D01*
D11*
X167150000Y-128700000D02*
G75*
G03*
X167150000Y-128700000I-1750000J0D01*
G01*
D12*
X142935000Y-109092936D02*
X142935000Y-109547064D01*
X141465000Y-109092936D02*
X141465000Y-109547064D01*
D13*
X153911324Y-147320300D02*
X149902276Y-147320300D01*
X149902276Y-152679700D02*
X153911324Y-152679700D01*
G36*
X148046000Y-148565499D02*
G01*
X147792000Y-148565499D01*
X147792000Y-148184499D01*
X148046000Y-148184499D01*
X148046000Y-148565499D01*
G37*
D12*
X130535000Y-135227064D02*
X130535000Y-134772936D01*
X129065000Y-135227064D02*
X129065000Y-134772936D01*
X144964564Y-151090000D02*
X143510436Y-151090000D01*
X144964564Y-152910000D02*
X143510436Y-152910000D01*
X152350000Y-111900000D02*
X152350000Y-109300000D01*
X152350000Y-114050000D02*
X152350000Y-113800000D01*
X158650000Y-109300000D02*
X158650000Y-111900000D01*
X158650000Y-107150000D02*
X158650000Y-107400000D01*
X152350000Y-107150000D02*
X158650000Y-107150000D01*
X158650000Y-114050000D02*
X152350000Y-114050000D01*
X158650000Y-113800000D02*
X158650000Y-114050000D01*
X152350000Y-107400000D02*
X152350000Y-107150000D01*
X129335000Y-89461252D02*
X129335000Y-88938748D01*
X127865000Y-89461252D02*
X127865000Y-88938748D01*
X124177064Y-151140000D02*
X122722936Y-151140000D01*
X124177064Y-152960000D02*
X122722936Y-152960000D01*
X123635000Y-114027064D02*
X123635000Y-113572936D01*
X122165000Y-114027064D02*
X122165000Y-113572936D01*
X141485000Y-124738748D02*
X141485000Y-125261252D01*
X140015000Y-124738748D02*
X140015000Y-125261252D01*
X156615000Y-140965000D02*
X154665000Y-140965000D01*
X156615000Y-135845000D02*
X154665000Y-135845000D01*
X156615000Y-135845000D02*
X158565000Y-135845000D01*
X156615000Y-140965000D02*
X160065000Y-140965000D01*
X136335000Y-108892936D02*
X136335000Y-109347064D01*
X134865000Y-108892936D02*
X134865000Y-109347064D01*
X170015000Y-151311252D02*
X170015000Y-150788748D01*
X171485000Y-151311252D02*
X171485000Y-150788748D01*
X167255000Y-144717064D02*
X167255000Y-144262936D01*
X168725000Y-144717064D02*
X168725000Y-144262936D01*
X157800000Y-95040000D02*
X157150000Y-95040000D01*
X157800000Y-98160000D02*
X159475000Y-98160000D01*
X157800000Y-95040000D02*
X158450000Y-95040000D01*
X157800000Y-98160000D02*
X157150000Y-98160000D01*
X172710000Y-103720000D02*
X172710000Y-103720000D01*
X164900000Y-95480000D02*
X174020000Y-95480000D01*
X166210000Y-96780000D02*
X172710000Y-96780000D01*
X164900000Y-116060000D02*
X164900000Y-95480000D01*
X166210000Y-114760000D02*
X166210000Y-96780000D01*
X172710000Y-107820000D02*
X172710000Y-114760000D01*
X174020000Y-95480000D02*
X174020000Y-116060000D01*
X172710000Y-103720000D02*
X174020000Y-103720000D01*
X174020000Y-116060000D02*
X164900000Y-116060000D01*
X172710000Y-96780000D02*
X172710000Y-103720000D01*
X172710000Y-114760000D02*
X166210000Y-114760000D01*
X174020000Y-107820000D02*
X172710000Y-107820000D01*
D11*
X162950000Y-130700000D02*
G75*
G03*
X162950000Y-130700000I-1750000J0D01*
G01*
X148370000Y-129810000D02*
G75*
G03*
X148370000Y-129810000I-1750000J0D01*
G01*
D12*
X136688748Y-148915000D02*
X137211252Y-148915000D01*
X136688748Y-150385000D02*
X137211252Y-150385000D01*
X147061800Y-156194000D02*
X147061800Y-166115000D01*
X147061800Y-166115000D02*
X157341800Y-166115000D01*
X147061800Y-159154000D02*
X157341800Y-159154000D01*
X157341800Y-156194000D02*
X157341800Y-166115000D01*
X146821800Y-165615000D02*
X146821800Y-166355000D01*
X147061800Y-156194000D02*
X157341800Y-156194000D01*
X156016800Y-160386000D02*
X155969800Y-160432000D01*
X147061800Y-165555000D02*
X157341800Y-165555000D01*
X155811800Y-160180000D02*
X155776800Y-160216000D01*
X146821800Y-166355000D02*
X147321800Y-166355000D01*
X147061800Y-164055000D02*
X157341800Y-164055000D01*
X153707800Y-162694000D02*
X153672800Y-162729000D01*
X153514800Y-162478000D02*
X153467800Y-162524000D01*
X148126800Y-160771000D02*
G75*
G03*
X148126373Y-162138042I1534993J-684001D01*
G01*
X151196801Y-162139000D02*
G75*
G03*
X151197227Y-160771958I-1535001J684000D01*
G01*
X148977800Y-162990000D02*
G75*
G03*
X149690605Y-163135253I683999J1535001D01*
G01*
X149661800Y-163135000D02*
G75*
G03*
X150345118Y-162989756I0J1680000D01*
G01*
X150345800Y-159920000D02*
G75*
G03*
X148978758Y-159919573I-684001J-1534993D01*
G01*
X156421800Y-161455000D02*
G75*
G03*
X156421800Y-161455000I-1680000J0D01*
G01*
X169235000Y-151227064D02*
X169235000Y-150772936D01*
X167765000Y-151227064D02*
X167765000Y-150772936D01*
X137865000Y-109272936D02*
X137865000Y-109727064D01*
X139335000Y-109272936D02*
X139335000Y-109727064D01*
X135052064Y-146735000D02*
X134597936Y-146735000D01*
X135052064Y-145265000D02*
X134597936Y-145265000D01*
X121977000Y-138603000D02*
X121931000Y-138556000D01*
X118100000Y-131910000D02*
X118100000Y-132410000D01*
X118340000Y-132150000D02*
X118340000Y-142430000D01*
X125301000Y-132150000D02*
X125301000Y-142430000D01*
X118900000Y-132150000D02*
X118900000Y-142430000D01*
X128261000Y-132150000D02*
X118340000Y-132150000D01*
X124069000Y-141105000D02*
X124023000Y-141058000D01*
X121761000Y-138796000D02*
X121726000Y-138761000D01*
X120400000Y-132150000D02*
X120400000Y-142430000D01*
X128261000Y-132150000D02*
X128261000Y-142430000D01*
X128261000Y-142430000D02*
X118340000Y-142430000D01*
X124275000Y-140900000D02*
X124239000Y-140865000D01*
X118840000Y-131910000D02*
X118100000Y-131910000D01*
X124535000Y-135434000D02*
G75*
G03*
X124535427Y-134066958I-1534993J684001D01*
G01*
X122316000Y-136285001D02*
G75*
G03*
X123683042Y-136285427I684000J1535001D01*
G01*
X121465000Y-134066000D02*
G75*
G03*
X121319747Y-134778805I1535001J-683999D01*
G01*
X123684000Y-133215000D02*
G75*
G03*
X122316958Y-133214573I-684001J-1534993D01*
G01*
X121320000Y-134750000D02*
G75*
G03*
X121465244Y-135433318I1680000J0D01*
G01*
X124680000Y-139830000D02*
G75*
G03*
X124680000Y-139830000I-1680000J0D01*
G01*
X129502064Y-124135000D02*
X129047936Y-124135000D01*
X129502064Y-122665000D02*
X129047936Y-122665000D01*
X143985000Y-124688748D02*
X143985000Y-125211252D01*
X142515000Y-124688748D02*
X142515000Y-125211252D01*
X132450000Y-113600000D02*
X132450000Y-113850000D01*
X126150000Y-106950000D02*
X132450000Y-106950000D01*
X126150000Y-111700000D02*
X126150000Y-109100000D01*
X132450000Y-106950000D02*
X132450000Y-107200000D01*
X126150000Y-107200000D02*
X126150000Y-106950000D01*
X132450000Y-109100000D02*
X132450000Y-111700000D01*
X126150000Y-113850000D02*
X126150000Y-113600000D01*
X132450000Y-113850000D02*
X126150000Y-113850000D01*
D11*
X165905000Y-118995000D02*
G75*
G03*
X165905000Y-118995000I-1750000J0D01*
G01*
D12*
X155977064Y-145265000D02*
X155522936Y-145265000D01*
X155977064Y-146735000D02*
X155522936Y-146735000D01*
X129775000Y-137375000D02*
X139725000Y-137375000D01*
X129775000Y-142165000D02*
X129775000Y-142625000D01*
X139725000Y-142625000D02*
X139725000Y-142165000D01*
X139725000Y-137375000D02*
X139725000Y-137835000D01*
X129775000Y-142625000D02*
X139725000Y-142625000D01*
X129775000Y-137375000D02*
X129775000Y-137835000D01*
D11*
X167050000Y-133000000D02*
G75*
G03*
X167050000Y-133000000I-1750000J0D01*
G01*
X166950000Y-151750000D02*
G75*
G03*
X166950000Y-151750000I-1750000J0D01*
G01*
D12*
X128097936Y-122035000D02*
X128552064Y-122035000D01*
X128097936Y-120565000D02*
X128552064Y-120565000D01*
X124765000Y-146477064D02*
X124765000Y-146022936D01*
X126235000Y-146477064D02*
X126235000Y-146022936D01*
M02*
