G04 #@! TF.GenerationSoftware,KiCad,Pcbnew,6.0.9-1.fc35*
G04 #@! TF.CreationDate,2023-07-15T13:58:04-04:00*
G04 #@! TF.ProjectId,esp32_example,65737033-325f-4657-9861-6d706c652e6b,rev?*
G04 #@! TF.SameCoordinates,Original*
G04 #@! TF.FileFunction,Paste,Top*
G04 #@! TF.FilePolarity,Positive*
%FSLAX46Y46*%
G04 Gerber Fmt 4.6, Leading zero omitted, Abs format (unit mm)*
G04 Created by KiCad (PCBNEW 6.0.9-1.fc35) date 2023-07-15 13:58:04*
%MOMM*%
%LPD*%
G01*
G04 APERTURE LIST*
G04 Aperture macros list*
%AMRoundRect*
0 Rectangle with rounded corners*
0 $1 Rounding radius*
0 $2 $3 $4 $5 $6 $7 $8 $9 X,Y pos of 4 corners*
0 Add a 4 corners polygon primitive as box body*
4,1,4,$2,$3,$4,$5,$6,$7,$8,$9,$2,$3,0*
0 Add four circle primitives for the rounded corners*
1,1,$1+$1,$2,$3*
1,1,$1+$1,$4,$5*
1,1,$1+$1,$6,$7*
1,1,$1+$1,$8,$9*
0 Add four rect primitives between the rounded corners*
20,1,$1+$1,$2,$3,$4,$5,0*
20,1,$1+$1,$4,$5,$6,$7,0*
20,1,$1+$1,$6,$7,$8,$9,0*
20,1,$1+$1,$8,$9,$2,$3,0*%
G04 Aperture macros list end*
%ADD10RoundRect,0.150000X-0.825000X-0.150000X0.825000X-0.150000X0.825000X0.150000X-0.825000X0.150000X0*%
%ADD11RoundRect,0.250000X-0.250000X-0.475000X0.250000X-0.475000X0.250000X0.475000X-0.250000X0.475000X0*%
%ADD12RoundRect,0.250000X0.262500X0.450000X-0.262500X0.450000X-0.262500X-0.450000X0.262500X-0.450000X0*%
%ADD13R,2.500000X1.800000*%
%ADD14RoundRect,0.150000X0.150000X-0.587500X0.150000X0.587500X-0.150000X0.587500X-0.150000X-0.587500X0*%
%ADD15RoundRect,0.250000X0.450000X-0.262500X0.450000X0.262500X-0.450000X0.262500X-0.450000X-0.262500X0*%
%ADD16RoundRect,0.250000X-0.475000X0.250000X-0.475000X-0.250000X0.475000X-0.250000X0.475000X0.250000X0*%
%ADD17RoundRect,0.250000X-0.262500X-0.450000X0.262500X-0.450000X0.262500X0.450000X-0.262500X0.450000X0*%
%ADD18RoundRect,0.250000X-0.450000X0.262500X-0.450000X-0.262500X0.450000X-0.262500X0.450000X0.262500X0*%
%ADD19RoundRect,0.250000X0.250000X0.475000X-0.250000X0.475000X-0.250000X-0.475000X0.250000X-0.475000X0*%
%ADD20R,0.762000X1.219200*%
%ADD21R,1.498600X0.889000*%
%ADD22R,0.889000X1.498600*%
%ADD23R,0.889000X0.889000*%
%ADD24RoundRect,0.250000X0.312500X0.625000X-0.312500X0.625000X-0.312500X-0.625000X0.312500X-0.625000X0*%
%ADD25RoundRect,0.250000X-0.312500X-0.625000X0.312500X-0.625000X0.312500X0.625000X-0.312500X0.625000X0*%
%ADD26RoundRect,0.250000X0.475000X-0.250000X0.475000X0.250000X-0.475000X0.250000X-0.475000X-0.250000X0*%
%ADD27R,1.460500X0.558800*%
%ADD28R,1.358900X0.355600*%
%ADD29R,0.700000X1.000000*%
%ADD30R,0.700000X0.600000*%
%ADD31R,0.228600X0.711200*%
%ADD32RoundRect,0.150000X0.587500X0.150000X-0.587500X0.150000X-0.587500X-0.150000X0.587500X-0.150000X0*%
%ADD33O,0.950000X1.250000*%
%ADD34O,1.550000X0.890000*%
%ADD35R,1.350000X0.400000*%
%ADD36R,1.550000X1.500000*%
%ADD37R,1.550000X1.200000*%
%ADD38R,1.600000X5.700000*%
%ADD39R,1.550000X1.300000*%
%ADD40RoundRect,0.150000X0.825000X0.150000X-0.825000X0.150000X-0.825000X-0.150000X0.825000X-0.150000X0*%
%ADD41R,4.240000X3.810000*%
G04 APERTURE END LIST*
G36*
X130888900Y-151449400D02*
G01*
X129539500Y-151449400D01*
X129539500Y-150100000D01*
X130888900Y-150100000D01*
X130888900Y-151449400D01*
G37*
G36*
X130888900Y-149900000D02*
G01*
X129539500Y-149900000D01*
X129539500Y-148550600D01*
X130888900Y-148550600D01*
X130888900Y-149900000D01*
G37*
G36*
X132438300Y-149900000D02*
G01*
X131088900Y-149900000D01*
X131088900Y-148550600D01*
X132438300Y-148550600D01*
X132438300Y-149900000D01*
G37*
G36*
X132438300Y-151449400D02*
G01*
X131088900Y-151449400D01*
X131088900Y-150100000D01*
X132438300Y-150100000D01*
X132438300Y-151449400D01*
G37*
G36*
X151806800Y-149900000D02*
G01*
X150457400Y-149900000D01*
X150457400Y-148550600D01*
X151806800Y-148550600D01*
X151806800Y-149900000D01*
G37*
G36*
X153356200Y-151449400D02*
G01*
X152006800Y-151449400D01*
X152006800Y-150100000D01*
X153356200Y-150100000D01*
X153356200Y-151449400D01*
G37*
G36*
X153356200Y-149900000D02*
G01*
X152006800Y-149900000D01*
X152006800Y-148550600D01*
X153356200Y-148550600D01*
X153356200Y-149900000D01*
G37*
G36*
X151806800Y-151449400D02*
G01*
X150457400Y-151449400D01*
X150457400Y-150100000D01*
X151806800Y-150100000D01*
X151806800Y-151449400D01*
G37*
D10*
X160275000Y-158095000D03*
X160275000Y-159365000D03*
X160275000Y-160635000D03*
X160275000Y-161905000D03*
X165225000Y-161905000D03*
X165225000Y-160635000D03*
X165225000Y-159365000D03*
X165225000Y-158095000D03*
D11*
X133000000Y-130000000D03*
X134900000Y-130000000D03*
D12*
X157412500Y-115500000D03*
X155587500Y-115500000D03*
D13*
X129750000Y-128500000D03*
X125750000Y-128500000D03*
D11*
X156800000Y-149650000D03*
X158700000Y-149650000D03*
D14*
X123650000Y-97137500D03*
X125550000Y-97137500D03*
X124600000Y-95262500D03*
D15*
X146500000Y-147412500D03*
X146500000Y-145587500D03*
D12*
X158912500Y-93600000D03*
X157087500Y-93600000D03*
D15*
X154400000Y-95712500D03*
X154400000Y-93887500D03*
D11*
X149050000Y-146000000D03*
X150950000Y-146000000D03*
D16*
X149200000Y-110575000D03*
X149200000Y-112475000D03*
D17*
X131587500Y-117500000D03*
X133412500Y-117500000D03*
D12*
X131162500Y-125500000D03*
X129337500Y-125500000D03*
D15*
X168620000Y-123822500D03*
X168620000Y-121997500D03*
D18*
X156800000Y-103087500D03*
X156800000Y-104912500D03*
D11*
X133000000Y-127750000D03*
X134900000Y-127750000D03*
D19*
X164100000Y-164000000D03*
X162200000Y-164000000D03*
D15*
X165740000Y-141652500D03*
X165740000Y-139827500D03*
D11*
X168300000Y-148000000D03*
X170200000Y-148000000D03*
X128050000Y-146000000D03*
X129950000Y-146000000D03*
D15*
X127600000Y-93912500D03*
X127600000Y-92087500D03*
D10*
X138800000Y-158210000D03*
X138800000Y-159480000D03*
X138800000Y-160750000D03*
X138800000Y-162020000D03*
X143750000Y-162020000D03*
X143750000Y-160750000D03*
X143750000Y-159480000D03*
X143750000Y-158210000D03*
D20*
X132200000Y-132623600D03*
X132200000Y-135976400D03*
D21*
X133550000Y-88290000D03*
X133550000Y-89560000D03*
X133550000Y-90830000D03*
X133550000Y-92100000D03*
X133550000Y-93370000D03*
X133550000Y-94640000D03*
X133550000Y-95910000D03*
X133550000Y-97180000D03*
X133550000Y-98450000D03*
X133550000Y-99720000D03*
X133550000Y-100990000D03*
X133550000Y-102260000D03*
X133550000Y-103530000D03*
X133550000Y-104800000D03*
D22*
X135315000Y-106050000D03*
X136585000Y-106050000D03*
X137855000Y-106050000D03*
X139125000Y-106050000D03*
X140395000Y-106050000D03*
X141665000Y-106050000D03*
X142935000Y-106050000D03*
X144205000Y-106050000D03*
X145475000Y-106050000D03*
X146745000Y-106050000D03*
X148015000Y-106050000D03*
X149285000Y-106050000D03*
D21*
X151050000Y-104800000D03*
X151050000Y-103530000D03*
X151050000Y-102260000D03*
X151050000Y-100990000D03*
X151050000Y-99720000D03*
X151050000Y-98450000D03*
X151050000Y-97180000D03*
X151050000Y-95910000D03*
X151050000Y-94640000D03*
X151050000Y-93370000D03*
X151050000Y-92100000D03*
X151050000Y-90830000D03*
X151050000Y-89560000D03*
X151050000Y-88290000D03*
D23*
X141050000Y-96010000D03*
X141050000Y-94610000D03*
X139650000Y-94610000D03*
X139650000Y-96010000D03*
X139650000Y-97410000D03*
X141050000Y-97410000D03*
X142450000Y-97410000D03*
X142450000Y-96010000D03*
X142450000Y-94610000D03*
D24*
X125651372Y-149450000D03*
X122726372Y-149450000D03*
D18*
X129800000Y-92087500D03*
X129800000Y-93912500D03*
D11*
X133000000Y-125500000D03*
X134900000Y-125500000D03*
D25*
X137637500Y-151950000D03*
X140562500Y-151950000D03*
D26*
X151515000Y-140355000D03*
X151515000Y-138455000D03*
D27*
X134775850Y-132295000D03*
X134775850Y-133565000D03*
X134775850Y-134835000D03*
X134775850Y-136105000D03*
X140224150Y-136105000D03*
X140224150Y-134835000D03*
X140224150Y-133565000D03*
X140224150Y-132295000D03*
D25*
X132737500Y-154300000D03*
X135662500Y-154300000D03*
D24*
X146650000Y-149550000D03*
X143725000Y-149550000D03*
D25*
X158537500Y-152000000D03*
X161462500Y-152000000D03*
D26*
X167990000Y-141690000D03*
X167990000Y-139790000D03*
D12*
X133412500Y-115250000D03*
X131587500Y-115250000D03*
D19*
X140200000Y-164250000D03*
X138300000Y-164250000D03*
D15*
X164055000Y-123807500D03*
X164055000Y-121982500D03*
D28*
X133916250Y-152274999D03*
X133916250Y-151625001D03*
X133916250Y-150974999D03*
X133916250Y-150325001D03*
X133916250Y-149675002D03*
X133916250Y-149025001D03*
X133916250Y-148375002D03*
X133916250Y-147725001D03*
X128061550Y-147725001D03*
X128061550Y-148374999D03*
X128061550Y-149025001D03*
X128061550Y-149674999D03*
X128061550Y-150324998D03*
X128061550Y-150974999D03*
X128061550Y-151624998D03*
X128061550Y-152274999D03*
D26*
X131000000Y-90150000D03*
X131000000Y-88250000D03*
D11*
X165790000Y-137490000D03*
X167690000Y-137490000D03*
D29*
X125900000Y-121850000D03*
D30*
X125900000Y-120150000D03*
X123900000Y-120150000D03*
X123900000Y-122050000D03*
D31*
X131999811Y-123550100D03*
X132499937Y-123550100D03*
X133000063Y-123550100D03*
X133500189Y-123550100D03*
X133500189Y-121949900D03*
X133000063Y-121949900D03*
X132499937Y-121949900D03*
X131999811Y-121949900D03*
D15*
X154400000Y-99712500D03*
X154400000Y-97887500D03*
D32*
X158737500Y-101150000D03*
X158737500Y-99250000D03*
X156862500Y-100200000D03*
D11*
X131550000Y-119750000D03*
X133450000Y-119750000D03*
D18*
X129500000Y-117337500D03*
X129500000Y-119162500D03*
D33*
X121650000Y-122700000D03*
X121650000Y-127700000D03*
D34*
X118950000Y-128700000D03*
X118950000Y-121700000D03*
D35*
X121650000Y-123900000D03*
X121650000Y-124550000D03*
X121650000Y-125200000D03*
X121650000Y-125850000D03*
X121650000Y-126500000D03*
D36*
X118950000Y-124200000D03*
D37*
X118950000Y-128100000D03*
D36*
X118950000Y-126200000D03*
D37*
X118950000Y-122300000D03*
D38*
X135900000Y-119750000D03*
X140600000Y-119750000D03*
D25*
X153737500Y-154400000D03*
X156662500Y-154400000D03*
D15*
X170750000Y-155662500D03*
X170750000Y-153837500D03*
D16*
X122900000Y-116550000D03*
X122900000Y-118450000D03*
D18*
X142200000Y-108407500D03*
X142200000Y-110232500D03*
D28*
X154834150Y-152274999D03*
X154834150Y-151625001D03*
X154834150Y-150974999D03*
X154834150Y-150325001D03*
X154834150Y-149675002D03*
X154834150Y-149025001D03*
X154834150Y-148375002D03*
X154834150Y-147725001D03*
X148979450Y-147725001D03*
X148979450Y-148374999D03*
X148979450Y-149025001D03*
X148979450Y-149674999D03*
X148979450Y-150324998D03*
X148979450Y-150974999D03*
X148979450Y-151624998D03*
X148979450Y-152274999D03*
D15*
X129800000Y-135912500D03*
X129800000Y-134087500D03*
D24*
X145700000Y-152000000D03*
X142775000Y-152000000D03*
D39*
X151525000Y-112850000D03*
X159475000Y-112850000D03*
X151525000Y-108350000D03*
X159475000Y-108350000D03*
D26*
X128600000Y-90150000D03*
X128600000Y-88250000D03*
D24*
X124912500Y-152050000D03*
X121987500Y-152050000D03*
D15*
X122900000Y-114712500D03*
X122900000Y-112887500D03*
D16*
X140750000Y-124050000D03*
X140750000Y-125950000D03*
D40*
X159090000Y-140310000D03*
X159090000Y-139040000D03*
X159090000Y-137770000D03*
X159090000Y-136500000D03*
X154140000Y-136500000D03*
X154140000Y-137770000D03*
X154140000Y-139040000D03*
X154140000Y-140310000D03*
D18*
X135600000Y-108207500D03*
X135600000Y-110032500D03*
D26*
X170750000Y-152000000D03*
X170750000Y-150100000D03*
D15*
X167990000Y-145402500D03*
X167990000Y-143577500D03*
D32*
X158737500Y-97550000D03*
X158737500Y-95650000D03*
X156862500Y-96600000D03*
D11*
X136000000Y-149650000D03*
X137900000Y-149650000D03*
D15*
X168500000Y-151912500D03*
X168500000Y-150087500D03*
D18*
X138600000Y-108587500D03*
X138600000Y-110412500D03*
D12*
X135737500Y-146000000D03*
X133912500Y-146000000D03*
X130187500Y-123400000D03*
X128362500Y-123400000D03*
D16*
X143250000Y-124000000D03*
X143250000Y-125900000D03*
D39*
X125325000Y-112650000D03*
X133275000Y-112650000D03*
X133275000Y-108150000D03*
X125325000Y-108150000D03*
D12*
X156662500Y-146000000D03*
X154837500Y-146000000D03*
D41*
X131565000Y-140000000D03*
X137935000Y-140000000D03*
D17*
X127412500Y-121300000D03*
X129237500Y-121300000D03*
D15*
X125500000Y-147162500D03*
X125500000Y-145337500D03*
M02*
