%TF.GenerationSoftware,KiCad,Pcbnew,8.0.8*%
%TF.CreationDate,2025-03-31T15:53:02-05:00*%
%TF.ProjectId,Final Project V1,46696e61-6c20-4507-926f-6a6563742056,rev?*%
%TF.SameCoordinates,Original*%
%TF.FileFunction,Copper,L1,Top*%
%TF.FilePolarity,Positive*%
%FSLAX46Y46*%
G04 Gerber Fmt 4.6, Leading zero omitted, Abs format (unit mm)*
G04 Created by KiCad (PCBNEW 8.0.8) date 2025-03-31 15:53:02*
%MOMM*%
%LPD*%
G01*
G04 APERTURE LIST*
G04 Aperture macros list*
%AMRoundRect*
0 Rectangle with rounded corners*
0 $1 Rounding radius*
0 $2 $3 $4 $5 $6 $7 $8 $9 X,Y pos of 4 corners*
0 Add a 4 corners polygon primitive as box body*
4,1,4,$2,$3,$4,$5,$6,$7,$8,$9,$2,$3,0*
0 Add four circle primitives for the rounded corners*
1,1,$1+$1,$2,$3*
1,1,$1+$1,$4,$5*
1,1,$1+$1,$6,$7*
1,1,$1+$1,$8,$9*
0 Add four rect primitives between the rounded corners*
20,1,$1+$1,$2,$3,$4,$5,0*
20,1,$1+$1,$4,$5,$6,$7,0*
20,1,$1+$1,$6,$7,$8,$9,0*
20,1,$1+$1,$8,$9,$2,$3,0*%
%AMFreePoly0*
4,1,6,1.000000,0.000000,0.500000,-0.750000,-0.500000,-0.750000,-0.500000,0.750000,0.500000,0.750000,1.000000,0.000000,1.000000,0.000000,$1*%
%AMFreePoly1*
4,1,7,0.700000,0.000000,1.200000,-0.750000,-1.200000,-0.750000,-0.700000,0.000000,-1.200000,0.750000,1.200000,0.750000,0.700000,0.000000,0.700000,0.000000,$1*%
G04 Aperture macros list end*
%TA.AperFunction,ComponentPad*%
%ADD10C,1.651000*%
%TD*%
%TA.AperFunction,ComponentPad*%
%ADD11C,1.524000*%
%TD*%
%TA.AperFunction,ComponentPad*%
%ADD12R,1.498000X1.498000*%
%TD*%
%TA.AperFunction,ComponentPad*%
%ADD13C,1.498000*%
%TD*%
%TA.AperFunction,ComponentPad*%
%ADD14R,2.200000X2.200000*%
%TD*%
%TA.AperFunction,ComponentPad*%
%ADD15O,2.200000X2.200000*%
%TD*%
%TA.AperFunction,SMDPad,CuDef*%
%ADD16RoundRect,0.250000X0.350000X0.450000X-0.350000X0.450000X-0.350000X-0.450000X0.350000X-0.450000X0*%
%TD*%
%TA.AperFunction,ComponentPad*%
%ADD17R,1.500000X1.500000*%
%TD*%
%TA.AperFunction,ComponentPad*%
%ADD18C,1.600000*%
%TD*%
%TA.AperFunction,SMDPad,CuDef*%
%ADD19RoundRect,0.072500X0.532500X0.217500X-0.532500X0.217500X-0.532500X-0.217500X0.532500X-0.217500X0*%
%TD*%
%TA.AperFunction,SMDPad,CuDef*%
%ADD20FreePoly0,90.000000*%
%TD*%
%TA.AperFunction,SMDPad,CuDef*%
%ADD21FreePoly1,90.000000*%
%TD*%
%TA.AperFunction,SMDPad,CuDef*%
%ADD22FreePoly0,270.000000*%
%TD*%
%TA.AperFunction,SMDPad,CuDef*%
%ADD23RoundRect,0.250000X0.450000X-0.350000X0.450000X0.350000X-0.450000X0.350000X-0.450000X-0.350000X0*%
%TD*%
%TA.AperFunction,SMDPad,CuDef*%
%ADD24RoundRect,0.250000X0.650000X-0.412500X0.650000X0.412500X-0.650000X0.412500X-0.650000X-0.412500X0*%
%TD*%
%TA.AperFunction,ComponentPad*%
%ADD25R,1.700000X1.700000*%
%TD*%
%TA.AperFunction,ComponentPad*%
%ADD26O,1.700000X1.700000*%
%TD*%
%TA.AperFunction,SMDPad,CuDef*%
%ADD27R,0.700000X1.150000*%
%TD*%
%TA.AperFunction,SMDPad,CuDef*%
%ADD28R,0.800000X1.150000*%
%TD*%
%TA.AperFunction,SMDPad,CuDef*%
%ADD29R,0.900000X1.150000*%
%TD*%
%TA.AperFunction,ComponentPad*%
%ADD30O,1.000000X2.000000*%
%TD*%
%TA.AperFunction,SMDPad,CuDef*%
%ADD31RoundRect,0.250000X-0.350000X-0.450000X0.350000X-0.450000X0.350000X0.450000X-0.350000X0.450000X0*%
%TD*%
%TA.AperFunction,SMDPad,CuDef*%
%ADD32RoundRect,0.250000X-0.475000X0.337500X-0.475000X-0.337500X0.475000X-0.337500X0.475000X0.337500X0*%
%TD*%
%TA.AperFunction,SMDPad,CuDef*%
%ADD33RoundRect,0.250000X-0.412500X-0.650000X0.412500X-0.650000X0.412500X0.650000X-0.412500X0.650000X0*%
%TD*%
%TA.AperFunction,ComponentPad*%
%ADD34R,1.530000X1.530000*%
%TD*%
%TA.AperFunction,ComponentPad*%
%ADD35C,1.530000*%
%TD*%
%TA.AperFunction,SMDPad,CuDef*%
%ADD36RoundRect,0.250000X-0.450000X0.350000X-0.450000X-0.350000X0.450000X-0.350000X0.450000X0.350000X0*%
%TD*%
%TA.AperFunction,SMDPad,CuDef*%
%ADD37RoundRect,0.250000X0.412500X0.650000X-0.412500X0.650000X-0.412500X-0.650000X0.412500X-0.650000X0*%
%TD*%
%TA.AperFunction,ComponentPad*%
%ADD38C,1.955800*%
%TD*%
%TA.AperFunction,SMDPad,CuDef*%
%ADD39RoundRect,0.150000X0.512500X0.150000X-0.512500X0.150000X-0.512500X-0.150000X0.512500X-0.150000X0*%
%TD*%
%TA.AperFunction,SMDPad,CuDef*%
%ADD40R,0.900000X1.500000*%
%TD*%
%TA.AperFunction,SMDPad,CuDef*%
%ADD41R,1.500000X0.900000*%
%TD*%
%TA.AperFunction,HeatsinkPad*%
%ADD42C,0.600000*%
%TD*%
%TA.AperFunction,HeatsinkPad*%
%ADD43R,3.900000X3.900000*%
%TD*%
%TA.AperFunction,ViaPad*%
%ADD44C,0.600000*%
%TD*%
%TA.AperFunction,Conductor*%
%ADD45C,0.200000*%
%TD*%
G04 APERTURE END LIST*
D10*
%TO.P,U5,1,G*%
%TO.N,Motor Power Signal*%
X186140000Y-124200000D03*
%TO.P,U5,2,D*%
%TO.N,Motor Out*%
X183600000Y-124200000D03*
%TO.P,U5,3,S*%
%TO.N,3.3V*%
X181060000Y-124200000D03*
%TD*%
%TO.P,U4,1,G*%
%TO.N,Camera Power Signal*%
X165000000Y-91400000D03*
%TO.P,U4,2,D*%
%TO.N,Camera Power*%
X165000000Y-93940000D03*
%TO.P,U4,3,S*%
%TO.N,3.3V*%
X165000000Y-96480000D03*
%TD*%
D11*
%TO.P,J9,1*%
%TO.N,D4*%
X150920000Y-81619700D03*
%TO.P,J9,2*%
%TO.N,GND*%
X150920000Y-79079700D03*
%TO.P,J9,3*%
%TO.N,D6*%
X153460000Y-81619700D03*
%TO.P,J9,4*%
%TO.N,D5*%
X153460000Y-79079700D03*
%TO.P,J9,5*%
%TO.N,MCLK*%
X156000000Y-81619700D03*
%TO.P,J9,6*%
%TO.N,D7*%
X156000000Y-79079700D03*
%TO.P,J9,7*%
%TO.N,HS*%
X158540000Y-81619700D03*
%TO.P,J9,8*%
%TO.N,PCLK*%
X158540000Y-79079700D03*
%TO.P,J9,9*%
%TO.N,D0*%
X161080000Y-81619700D03*
%TO.P,J9,10*%
%TO.N,VS*%
X161080000Y-79079700D03*
%TD*%
D12*
%TO.P,SW6,1*%
%TO.N,Net-(U2-IO0)*%
X172250000Y-127150000D03*
D13*
%TO.P,SW6,2*%
X172250000Y-133650000D03*
%TO.P,SW6,3*%
%TO.N,GND*%
X167750000Y-127150000D03*
%TO.P,SW6,4*%
X167750000Y-133650000D03*
%TD*%
D14*
%TO.P,D2,1,K*%
%TO.N,Net-(D1-K)*%
X209000000Y-91480000D03*
D15*
%TO.P,D2,2,A*%
%TO.N,Net-(D2-A)*%
X209000000Y-81320000D03*
%TD*%
D16*
%TO.P,R3,1*%
%TO.N,Net-(U2-IO46)*%
X187200000Y-105400000D03*
%TO.P,R3,2*%
%TO.N,3.3V*%
X185200000Y-105400000D03*
%TD*%
D17*
%TO.P,SW5,1,B*%
%TO.N,Net-(D2-A)*%
X211260000Y-72600000D03*
D18*
%TO.P,SW5,2,C*%
%TO.N,Net-(SW5-C)*%
X208720000Y-72600000D03*
%TO.P,SW5,3,A*%
%TO.N,GND*%
X213800000Y-72600000D03*
%TD*%
D19*
%TO.P,U3,1,TS*%
%TO.N,Connector for thermistor*%
X200455000Y-82950000D03*
%TO.P,U3,2,OUT*%
%TO.N,Net-(D2-A)*%
X200455000Y-82000000D03*
%TO.P,U3,3,~{CHG}*%
%TO.N,Net-(U3-~{CHG})*%
X200455000Y-81050000D03*
%TO.P,U3,4,ISET*%
%TO.N,Net-(U3-ISET)*%
X197945000Y-81050000D03*
%TO.P,U3,5,GND*%
%TO.N,GND*%
X197945000Y-82000000D03*
%TO.P,U3,6,VIN*%
%TO.N,Net-(D1-A)*%
X197945000Y-82950000D03*
%TD*%
D16*
%TO.P,R18,1*%
%TO.N,GND*%
X209200000Y-75600000D03*
%TO.P,R18,2*%
%TO.N,Net-(USB-C1-CC1)*%
X207200000Y-75600000D03*
%TD*%
D20*
%TO.P,JP1,1,A*%
%TO.N,GND*%
X178400000Y-105600000D03*
D21*
%TO.P,JP1,2,C*%
%TO.N,Net-(JP1-C)*%
X178400000Y-103600000D03*
D22*
%TO.P,JP1,3,B*%
%TO.N,3.3V*%
X178400000Y-101600000D03*
%TD*%
D23*
%TO.P,R9,1*%
%TO.N,Camera Power*%
X166400000Y-87000000D03*
%TO.P,R9,2*%
%TO.N,SCL*%
X166400000Y-85000000D03*
%TD*%
D24*
%TO.P,C1,1*%
%TO.N,3.3V*%
X193800000Y-92162500D03*
%TO.P,C1,2*%
%TO.N,GND*%
X193800000Y-89037500D03*
%TD*%
D25*
%TO.P,J3,1,Pin_1*%
%TO.N,GND*%
X193600000Y-122600000D03*
D26*
%TO.P,J3,2,Pin_2*%
%TO.N,Hall Read*%
X193600000Y-125140000D03*
%TO.P,J3,3,Pin_3*%
%TO.N,3.3V*%
X191060000Y-122600000D03*
%TO.P,J3,4,Pin_4*%
%TO.N,GND*%
X191060000Y-125140000D03*
%TD*%
D24*
%TO.P,C6,1*%
%TO.N,GND*%
X196775000Y-126012500D03*
%TO.P,C6,2*%
%TO.N,Net-(U2-IO0)*%
X196775000Y-122887500D03*
%TD*%
D23*
%TO.P,R10,1*%
%TO.N,Net-(U2-IO0)*%
X199375000Y-125450000D03*
%TO.P,R10,2*%
%TO.N,3.3V*%
X199375000Y-123450000D03*
%TD*%
D12*
%TO.P,SW3,1*%
%TO.N,GND*%
X181700000Y-88700000D03*
D13*
%TO.P,SW3,2*%
X188200000Y-88700000D03*
%TO.P,SW3,3*%
%TO.N,Chip_PU*%
X181700000Y-93200000D03*
%TO.P,SW3,4*%
X188200000Y-93200000D03*
%TD*%
D16*
%TO.P,R16,1*%
%TO.N,Manual Feed*%
X199000000Y-120800000D03*
%TO.P,R16,2*%
%TO.N,GND*%
X197000000Y-120800000D03*
%TD*%
D27*
%TO.P,USB-C1,A5,CC1*%
%TO.N,Net-(USB-C1-CC1)*%
X200900000Y-75305000D03*
D28*
%TO.P,USB-C1,A9,V-BUS*%
%TO.N,Net-(SW4-B)*%
X198880000Y-75305000D03*
D29*
%TO.P,USB-C1,A12,GND*%
%TO.N,GND*%
X197650000Y-75305000D03*
D27*
%TO.P,USB-C1,B5,CC2*%
%TO.N,Net-(USB-C1-CC2)*%
X199900000Y-75305000D03*
D28*
%TO.P,USB-C1,B9,V-BUS__1*%
%TO.N,Net-(SW4-B)*%
X201920000Y-75305000D03*
D29*
%TO.P,USB-C1,B12,GND__1*%
%TO.N,GND*%
X203150000Y-75305000D03*
D30*
%TO.P,USB-C1,S1,SHIELD*%
X204720000Y-75300000D03*
%TO.P,USB-C1,S2,SHIELD__1*%
X196080000Y-75300000D03*
%TO.P,USB-C1,S3,SHIELD__2*%
X204720000Y-71500000D03*
%TO.P,USB-C1,S4,SHIELD__3*%
X196080000Y-71500000D03*
%TD*%
D14*
%TO.P,D1,1,K*%
%TO.N,Net-(D1-K)*%
X204600000Y-91400000D03*
D15*
%TO.P,D1,2,A*%
%TO.N,Net-(D1-A)*%
X204600000Y-81240000D03*
%TD*%
D31*
%TO.P,R6,1*%
%TO.N,Net-(JP1-C)*%
X185200000Y-102800000D03*
%TO.P,R6,2*%
%TO.N,Net-(U2-IO3)*%
X187200000Y-102800000D03*
%TD*%
D23*
%TO.P,R8,1*%
%TO.N,Camera Power*%
X177200000Y-124400000D03*
%TO.P,R8,2*%
%TO.N,SDA*%
X177200000Y-122400000D03*
%TD*%
%TO.P,R5,1*%
%TO.N,GND*%
X181400000Y-130600000D03*
%TO.P,R5,2*%
%TO.N,Net-(J5-Pin_1)*%
X181400000Y-128600000D03*
%TD*%
D32*
%TO.P,C5,1*%
%TO.N,GND*%
X208200000Y-94762500D03*
%TO.P,C5,2*%
%TO.N,3.3V*%
X208200000Y-96837500D03*
%TD*%
D31*
%TO.P,R15,1*%
%TO.N,Chip_PU*%
X190600000Y-94800000D03*
%TO.P,R15,2*%
%TO.N,3.3V*%
X192600000Y-94800000D03*
%TD*%
D33*
%TO.P,C4,1*%
%TO.N,GND*%
X196837500Y-85800000D03*
%TO.P,C4,2*%
%TO.N,Net-(D2-A)*%
X199962500Y-85800000D03*
%TD*%
D25*
%TO.P,J2,1,Pin_1*%
%TO.N,GND*%
X198860000Y-133140000D03*
D26*
%TO.P,J2,2,Pin_2*%
%TO.N,RX*%
X198860000Y-130600000D03*
%TO.P,J2,3,Pin_3*%
%TO.N,GND*%
X201400000Y-133140000D03*
%TO.P,J2,4,Pin_4*%
%TO.N,TX*%
X201400000Y-130600000D03*
%TO.P,J2,5,Pin_5*%
%TO.N,3.3V*%
X203940000Y-133140000D03*
%TO.P,J2,6,Pin_6*%
X203940000Y-130600000D03*
%TD*%
D23*
%TO.P,R7,1*%
%TO.N,GND*%
X163800000Y-86400000D03*
%TO.P,R7,2*%
%TO.N,Net-(J8-Pad7)*%
X163800000Y-84400000D03*
%TD*%
D25*
%TO.P,J5,1,Pin_1*%
%TO.N,Net-(J5-Pin_1)*%
X186025000Y-128750000D03*
D26*
%TO.P,J5,2,Pin_2*%
%TO.N,3.3V*%
X188565000Y-128750000D03*
%TD*%
D31*
%TO.P,R1,1*%
%TO.N,GND*%
X192800000Y-80200000D03*
%TO.P,R1,2*%
%TO.N,Net-(U3-ISET)*%
X194800000Y-80200000D03*
%TD*%
D24*
%TO.P,C2,1*%
%TO.N,Net-(D1-K)*%
X201200000Y-92162500D03*
%TO.P,C2,2*%
%TO.N,GND*%
X201200000Y-89037500D03*
%TD*%
D17*
%TO.P,SW4,1,B*%
%TO.N,Net-(SW4-B)*%
X189860000Y-72600000D03*
D18*
%TO.P,SW4,2,C*%
%TO.N,Net-(D1-A)*%
X187320000Y-72600000D03*
%TO.P,SW4,3,A*%
%TO.N,GND*%
X192400000Y-72600000D03*
%TD*%
D25*
%TO.P,J4,1,Pin_1*%
%TO.N,GND*%
X195075000Y-128800000D03*
D26*
%TO.P,J4,2,Pin_2*%
%TO.N,Motor Out*%
X192535000Y-128800000D03*
%TD*%
D34*
%TO.P,J8,1,1*%
%TO.N,Camera Power*%
X170190000Y-82827500D03*
D35*
%TO.P,J8,2,2*%
X170190000Y-80287500D03*
%TO.P,J8,3,3*%
%TO.N,D1*%
X172730000Y-82827500D03*
%TO.P,J8,4,4*%
%TO.N,SDA*%
X172730000Y-80287500D03*
%TO.P,J8,5,5*%
%TO.N,D2*%
X175270000Y-82827500D03*
%TO.P,J8,6,6*%
%TO.N,SCL*%
X175270000Y-80287500D03*
%TO.P,J8,7,7*%
%TO.N,Net-(J8-Pad7)*%
X177810000Y-82827500D03*
%TO.P,J8,8,8*%
%TO.N,D3*%
X177810000Y-80287500D03*
%TD*%
D36*
%TO.P,R2,1*%
%TO.N,Net-(U3-~{CHG})*%
X191200000Y-86000000D03*
%TO.P,R2,2*%
%TO.N,Microcontroller Charge Read*%
X191200000Y-88000000D03*
%TD*%
D37*
%TO.P,C9,1*%
%TO.N,Chip_PU*%
X183562500Y-95800000D03*
%TO.P,C9,2*%
%TO.N,GND*%
X180437500Y-95800000D03*
%TD*%
D16*
%TO.P,R17,1*%
%TO.N,GND*%
X209200000Y-78550000D03*
%TO.P,R17,2*%
%TO.N,Net-(USB-C1-CC2)*%
X207200000Y-78550000D03*
%TD*%
D37*
%TO.P,C3,1*%
%TO.N,Net-(D1-A)*%
X195162500Y-83200000D03*
%TO.P,C3,2*%
%TO.N,GND*%
X192037500Y-83200000D03*
%TD*%
D38*
%TO.P,J1,1,1*%
%TO.N,Net-(SW5-C)*%
X219200000Y-78200000D03*
%TO.P,J1,2,2*%
%TO.N,GND*%
X223399998Y-78200000D03*
%TO.P,J1,3,3*%
%TO.N,unconnected-(J1-Pad3)*%
X219200000Y-83699999D03*
%TO.P,J1,4,4*%
%TO.N,unconnected-(J1-Pad4)*%
X223399998Y-83699999D03*
%TD*%
D25*
%TO.P,J7,1,Pin_1*%
%TO.N,Net-(J7-Pin_1)*%
X185075000Y-119000000D03*
D26*
%TO.P,J7,2,Pin_2*%
%TO.N,3.3V*%
X182535000Y-119000000D03*
%TD*%
D39*
%TO.P,U1,1,VIN*%
%TO.N,Net-(D1-K)*%
X198800000Y-92400000D03*
%TO.P,U1,2,GND*%
%TO.N,GND*%
X198800000Y-91450000D03*
%TO.P,U1,3,EN*%
%TO.N,Net-(D1-K)*%
X198800000Y-90500000D03*
%TO.P,U1,4,NC*%
%TO.N,unconnected-(U1-NC-Pad4)*%
X196525000Y-90500000D03*
%TO.P,U1,5,VOUT*%
%TO.N,3.3V*%
X196525000Y-92400000D03*
%TD*%
D32*
%TO.P,C10,1*%
%TO.N,GND*%
X210800000Y-94762500D03*
%TO.P,C10,2*%
%TO.N,3.3V*%
X210800000Y-96837500D03*
%TD*%
D16*
%TO.P,R4,1*%
%TO.N,Manual Feed*%
X190400000Y-118800000D03*
%TO.P,R4,2*%
%TO.N,Net-(J7-Pin_1)*%
X188400000Y-118800000D03*
%TD*%
D40*
%TO.P,U2,1,GND*%
%TO.N,GND*%
X211000000Y-101200000D03*
%TO.P,U2,2,3V3*%
%TO.N,3.3V*%
X209730000Y-101200000D03*
%TO.P,U2,3,EN*%
%TO.N,Chip_PU*%
X208460000Y-101200000D03*
%TO.P,U2,4,IO4*%
%TO.N,unconnected-(U2-IO4-Pad4)*%
X207190000Y-101200000D03*
%TO.P,U2,5,IO5*%
%TO.N,Hall Read*%
X205920000Y-101200000D03*
%TO.P,U2,6,IO6*%
%TO.N,unconnected-(U2-IO6-Pad6)*%
X204650000Y-101200000D03*
%TO.P,U2,7,IO7*%
%TO.N,Microcontroller Charge Read*%
X203380000Y-101200000D03*
%TO.P,U2,8,IO15*%
%TO.N,D3*%
X202110000Y-101200000D03*
%TO.P,U2,9,IO16*%
%TO.N,D2*%
X200840000Y-101200000D03*
%TO.P,U2,10,IO17*%
%TO.N,D1*%
X199570000Y-101200000D03*
%TO.P,U2,11,IO18*%
%TO.N,D0*%
X198300000Y-101200000D03*
%TO.P,U2,12,IO8*%
%TO.N,unconnected-(U2-IO8-Pad12)*%
X197030000Y-101200000D03*
%TO.P,U2,13,USB_D-*%
%TO.N,unconnected-(U2-USB_D--Pad13)*%
X195760000Y-101200000D03*
%TO.P,U2,14,USB_D+*%
%TO.N,unconnected-(U2-USB_D+-Pad14)*%
X194490000Y-101200000D03*
D41*
%TO.P,U2,15,IO3*%
%TO.N,Net-(U2-IO3)*%
X193240000Y-102965000D03*
%TO.P,U2,16,IO46*%
%TO.N,Net-(U2-IO46)*%
X193240000Y-104235000D03*
%TO.P,U2,17,IO9*%
%TO.N,VS*%
X193240000Y-105505000D03*
%TO.P,U2,18,IO10*%
%TO.N,HS*%
X193240000Y-106775000D03*
%TO.P,U2,19,IO11*%
%TO.N,PCLK*%
X193240000Y-108045000D03*
%TO.P,U2,20,IO12*%
%TO.N,MCLK*%
X193240000Y-109315000D03*
%TO.P,U2,21,IO13*%
%TO.N,D7*%
X193240000Y-110585000D03*
%TO.P,U2,22,IO14*%
%TO.N,D6*%
X193240000Y-111855000D03*
%TO.P,U2,23,IO21*%
%TO.N,D5*%
X193240000Y-113125000D03*
%TO.P,U2,24,IO47*%
%TO.N,D4*%
X193240000Y-114395000D03*
%TO.P,U2,25,IO48*%
%TO.N,Camera Power Signal*%
X193240000Y-115665000D03*
%TO.P,U2,26,IO45*%
%TO.N,Motor Power Signal*%
X193240000Y-116935000D03*
D40*
%TO.P,U2,27,IO0*%
%TO.N,Net-(U2-IO0)*%
X194490000Y-118700000D03*
%TO.P,U2,28,IO35*%
%TO.N,unconnected-(U2-IO35-Pad28)*%
X195760000Y-118700000D03*
%TO.P,U2,29,IO36*%
%TO.N,unconnected-(U2-IO36-Pad29)*%
X197030000Y-118700000D03*
%TO.P,U2,30,IO37*%
%TO.N,unconnected-(U2-IO37-Pad30)*%
X198300000Y-118700000D03*
%TO.P,U2,31,IO38*%
%TO.N,unconnected-(U2-IO38-Pad31)*%
X199570000Y-118700000D03*
%TO.P,U2,32,IO39*%
%TO.N,unconnected-(U2-IO39-Pad32)*%
X200840000Y-118700000D03*
%TO.P,U2,33,IO40*%
%TO.N,Manual Feed*%
X202110000Y-118700000D03*
%TO.P,U2,34,IO41*%
%TO.N,unconnected-(U2-IO41-Pad34)*%
X203380000Y-118700000D03*
%TO.P,U2,35,IO42*%
%TO.N,unconnected-(U2-IO42-Pad35)*%
X204650000Y-118700000D03*
%TO.P,U2,36,RXD0*%
%TO.N,RX*%
X205920000Y-118700000D03*
%TO.P,U2,37,TXD0*%
%TO.N,TX*%
X207190000Y-118700000D03*
%TO.P,U2,38,IO2*%
%TO.N,SDA*%
X208460000Y-118700000D03*
%TO.P,U2,39,IO1*%
%TO.N,SCL*%
X209730000Y-118700000D03*
%TO.P,U2,40,GND*%
%TO.N,GND*%
X211000000Y-118700000D03*
D42*
%TO.P,U2,41,GND*%
X203980000Y-107050000D03*
X202580000Y-107050000D03*
X204680000Y-107750000D03*
X203280000Y-107750000D03*
X201880000Y-107750000D03*
X203980000Y-108450000D03*
D43*
X203280000Y-108450000D03*
D42*
X202580000Y-108450000D03*
X204680000Y-109150000D03*
X203280000Y-109150000D03*
X201880000Y-109150000D03*
X203980000Y-109850000D03*
X202580000Y-109850000D03*
%TD*%
D44*
%TO.N,3.3V*%
X211000000Y-123000000D03*
X207400000Y-123000000D03*
X203200000Y-124800000D03*
X200800000Y-124600000D03*
X192000000Y-120800000D03*
X182800000Y-133200000D03*
X181000000Y-135000000D03*
X195800000Y-120600000D03*
X190200000Y-120400000D03*
X182000000Y-132600000D03*
X179800000Y-133800000D03*
%TO.N,GND*%
X198800000Y-91450000D03*
X209200000Y-75600000D03*
X210800000Y-94762500D03*
X193800000Y-89037500D03*
X167800000Y-122400000D03*
X211000000Y-101200000D03*
X203150000Y-75305000D03*
X178400000Y-105600000D03*
X209200000Y-78550000D03*
X197000000Y-120800000D03*
X197945000Y-82000000D03*
X201200000Y-89037500D03*
X163800000Y-86400000D03*
X211000000Y-118700000D03*
X196837500Y-85800000D03*
X195400000Y-126200000D03*
X181400000Y-130600000D03*
X170000000Y-124200000D03*
X171200000Y-119000000D03*
X208200000Y-94762500D03*
X192037500Y-83200000D03*
X201000000Y-107600000D03*
X192800000Y-80200000D03*
X180437500Y-95800000D03*
X197777815Y-75179315D03*
X173800000Y-120400000D03*
%TO.N,Chip_PU*%
X205600000Y-93400000D03*
X190000000Y-93200000D03*
%TO.N,Net-(U3-ISET)*%
X195800000Y-81600000D03*
X197400000Y-80200000D03*
%TO.N,Net-(U3-~{CHG})*%
X201800000Y-81200000D03*
X190800000Y-84200000D03*
%TO.N,Hall Read*%
X200600000Y-116800000D03*
%TO.N,D0*%
X184200000Y-113400000D03*
X192200000Y-101600000D03*
%TO.N,D1*%
X191400000Y-101600000D03*
X184200000Y-112600000D03*
%TO.N,D2*%
X184200000Y-111800000D03*
X190600000Y-101600000D03*
%TO.N,Camera Power*%
X177200000Y-124400000D03*
%TO.N,SDA*%
X177200000Y-122400000D03*
%TO.N,D3*%
X184200000Y-110800000D03*
X189700000Y-101500000D03*
%TO.N,SCL*%
X166400000Y-85000000D03*
X174400000Y-123000000D03*
%TO.N,Manual Feed*%
X195800000Y-116800000D03*
X191800000Y-118800000D03*
%TO.N,Camera Power Signal*%
X191800000Y-117200000D03*
%TO.N,Net-(J8-Pad7)*%
X163800000Y-84600000D03*
%TO.N,Net-(U2-IO0)*%
X201187500Y-126012500D03*
%TD*%
D45*
%TO.N,3.3V*%
X192000000Y-120800000D02*
X192000000Y-121660000D01*
X199375000Y-123450000D02*
X197725000Y-121800000D01*
X195800000Y-121200000D02*
X195800000Y-120600000D01*
X196400000Y-121800000D02*
X195800000Y-121200000D01*
X197725000Y-121800000D02*
X196400000Y-121800000D01*
X192000000Y-121660000D02*
X191060000Y-122600000D01*
%TO.N,GND*%
X195400000Y-126200000D02*
X196587500Y-126200000D01*
X202580000Y-107050000D02*
X203280000Y-107750000D01*
X167800000Y-122400000D02*
X171200000Y-119000000D01*
X203280000Y-107750000D02*
X202580000Y-108450000D01*
X203280000Y-109150000D02*
X202580000Y-109850000D01*
X202580000Y-107050000D02*
X201880000Y-107750000D01*
X201730000Y-107600000D02*
X201880000Y-107750000D01*
X203280000Y-107750000D02*
X203980000Y-107050000D01*
X201000000Y-108270000D02*
X201000000Y-107600000D01*
X202580000Y-108450000D02*
X203280000Y-109150000D01*
X202580000Y-109850000D02*
X201000000Y-108270000D01*
X170000000Y-124200000D02*
X173800000Y-120400000D01*
X201000000Y-107600000D02*
X201730000Y-107600000D01*
X196587500Y-126200000D02*
X196775000Y-126012500D01*
X201880000Y-109150000D02*
X202580000Y-108450000D01*
X201880000Y-107750000D02*
X202580000Y-108450000D01*
%TO.N,Net-(D1-K)*%
X201200000Y-92162500D02*
X203837500Y-92162500D01*
X203837500Y-92162500D02*
X204600000Y-91400000D01*
X199037500Y-92162500D02*
X198800000Y-92400000D01*
X199537500Y-90500000D02*
X198800000Y-90500000D01*
X201200000Y-92162500D02*
X199037500Y-92162500D01*
X204600000Y-91400000D02*
X208920000Y-91400000D01*
X201200000Y-92162500D02*
X199537500Y-90500000D01*
X208920000Y-91400000D02*
X209000000Y-91480000D01*
%TO.N,Net-(D1-A)*%
X196600000Y-82209999D02*
X197340001Y-82950000D01*
X196600000Y-80200000D02*
X196600000Y-82209999D01*
X203600000Y-80000000D02*
X198400000Y-80000000D01*
X197200000Y-79551471D02*
X197151471Y-79600000D01*
X197151471Y-79600000D02*
X196800000Y-79951471D01*
X204600000Y-81240000D02*
X204600000Y-81000000D01*
X196800000Y-79951471D02*
X196800000Y-80000000D01*
X198000000Y-79600000D02*
X197151471Y-79600000D01*
X197200000Y-79200000D02*
X197200000Y-79551471D01*
X193720000Y-79000000D02*
X197000000Y-79000000D01*
X196600000Y-82209999D02*
X195609999Y-83200000D01*
X197000000Y-79000000D02*
X197200000Y-79200000D01*
X198400000Y-80000000D02*
X198000000Y-79600000D01*
X196800000Y-80000000D02*
X196600000Y-80200000D01*
X187320000Y-72600000D02*
X193720000Y-79000000D01*
X204600000Y-81000000D02*
X203600000Y-80000000D01*
X195609999Y-83200000D02*
X195162500Y-83200000D01*
X197340001Y-82950000D02*
X197945000Y-82950000D01*
%TO.N,Net-(D2-A)*%
X211260000Y-79060000D02*
X209000000Y-81320000D01*
X211260000Y-72600000D02*
X211260000Y-79060000D01*
X201200000Y-85800000D02*
X199962500Y-85800000D01*
X206920000Y-83400000D02*
X209000000Y-81320000D01*
X201800000Y-82000000D02*
X202600000Y-82800000D01*
X200455000Y-82000000D02*
X201800000Y-82000000D01*
X202600000Y-83400000D02*
X206920000Y-83400000D01*
X202600000Y-84400000D02*
X201200000Y-85800000D01*
X202600000Y-83400000D02*
X202600000Y-84400000D01*
X202600000Y-82800000D02*
X202600000Y-83400000D01*
%TO.N,Net-(U2-IO0)*%
X194490000Y-120602500D02*
X194490000Y-118700000D01*
X196775000Y-122887500D02*
X194490000Y-120602500D01*
X199375000Y-126000000D02*
X201175000Y-126000000D01*
X201175000Y-126000000D02*
X201187500Y-126012500D01*
X199375000Y-126000000D02*
X199375000Y-125487500D01*
X199375000Y-125487500D02*
X196775000Y-122887500D01*
%TO.N,Chip_PU*%
X183562500Y-95062500D02*
X183562500Y-95800000D01*
X205550000Y-95000000D02*
X205550000Y-93450000D01*
X181700000Y-93200000D02*
X183562500Y-95062500D01*
X205550000Y-95000000D02*
X205550000Y-97150000D01*
X205550000Y-97150000D02*
X208460000Y-100060000D01*
X190000000Y-93200000D02*
X190000000Y-94750000D01*
X181700000Y-93200000D02*
X188200000Y-93200000D01*
X188200000Y-93200000D02*
X190000000Y-93200000D01*
X190000000Y-94750000D02*
X190050000Y-94800000D01*
X205550000Y-93450000D02*
X205600000Y-93400000D01*
X208460000Y-100060000D02*
X208460000Y-101200000D01*
%TO.N,Net-(JP1-C)*%
X184650000Y-102800000D02*
X179200000Y-102800000D01*
X179200000Y-102800000D02*
X178400000Y-103600000D01*
%TO.N,Net-(U3-ISET)*%
X197400000Y-80200000D02*
X197400000Y-80505000D01*
X197400000Y-80505000D02*
X197945000Y-81050000D01*
X195350000Y-81150000D02*
X195800000Y-81600000D01*
X195350000Y-80200000D02*
X195350000Y-81150000D01*
%TO.N,Microcontroller Charge Read*%
X197487500Y-89887500D02*
X195600000Y-88000000D01*
X203380000Y-101200000D02*
X203900000Y-100680000D01*
X195600000Y-88000000D02*
X191200000Y-88000000D01*
X202784744Y-93200000D02*
X198296948Y-93200000D01*
X197487500Y-92390552D02*
X197487500Y-89887500D01*
X203900000Y-94315256D02*
X202784744Y-93200000D01*
X198296948Y-93200000D02*
X197487500Y-92390552D01*
X203900000Y-100680000D02*
X203900000Y-94315256D01*
%TO.N,Net-(U3-~{CHG})*%
X200455000Y-81050000D02*
X201650000Y-81050000D01*
X190800000Y-84200000D02*
X190800000Y-85050000D01*
X201650000Y-81050000D02*
X201800000Y-81200000D01*
X190800000Y-85050000D02*
X191200000Y-85450000D01*
%TO.N,Net-(U2-IO46)*%
X192235000Y-104235000D02*
X193240000Y-104235000D01*
X189400000Y-103800000D02*
X191800000Y-103800000D01*
X191800000Y-103800000D02*
X192235000Y-104235000D01*
X187800000Y-105400000D02*
X189400000Y-103800000D01*
X187750000Y-105400000D02*
X187800000Y-105400000D01*
%TO.N,Net-(U2-IO3)*%
X187750000Y-102800000D02*
X193075000Y-102800000D01*
X193075000Y-102800000D02*
X193240000Y-102965000D01*
%TO.N,Net-(SW5-C)*%
X209600000Y-71720000D02*
X208720000Y-72600000D01*
X210400000Y-70400000D02*
X209600000Y-71200000D01*
X219200000Y-77100001D02*
X219200000Y-73200000D01*
X216400000Y-70400000D02*
X210400000Y-70400000D01*
X209600000Y-71200000D02*
X209600000Y-71720000D01*
X219200000Y-78000000D02*
X219200000Y-77100001D01*
X219200000Y-73200000D02*
X216400000Y-70400000D01*
%TO.N,Hall Read*%
X205920000Y-101200000D02*
X205920000Y-111480000D01*
X205920000Y-111480000D02*
X200600000Y-116800000D01*
%TO.N,Motor Out*%
X190600000Y-126865000D02*
X192535000Y-128800000D01*
X186200000Y-126800000D02*
X190600000Y-126800000D01*
X183600000Y-124200000D02*
X186200000Y-126800000D01*
X190600000Y-126800000D02*
X190600000Y-126865000D01*
%TO.N,Net-(J5-Pin_1)*%
X185875000Y-128600000D02*
X186025000Y-128750000D01*
X181400000Y-128600000D02*
X185875000Y-128600000D01*
%TO.N,RX*%
X201787500Y-123212500D02*
X205920000Y-119080000D01*
X198860000Y-130600000D02*
X201787500Y-127672500D01*
X205920000Y-119080000D02*
X205920000Y-118700000D01*
X201787500Y-127672500D02*
X201787500Y-123212500D01*
%TO.N,D5*%
X151982000Y-83738000D02*
X151982000Y-80557700D01*
X151982000Y-80557700D02*
X153460000Y-79079700D01*
X189015000Y-116400000D02*
X160565686Y-116400000D01*
X160565686Y-116400000D02*
X151320000Y-107154314D01*
X151320000Y-84400000D02*
X151982000Y-83738000D01*
X193240000Y-113125000D02*
X192290000Y-113125000D01*
X192290000Y-113125000D02*
X189015000Y-116400000D01*
X151320000Y-107154314D02*
X151320000Y-84400000D01*
%TO.N,PCLK*%
X157062000Y-82138000D02*
X157062000Y-80557700D01*
X192355000Y-108045000D02*
X185600000Y-114800000D01*
X153000000Y-106571570D02*
X153000000Y-86200000D01*
X157062000Y-80557700D02*
X158540000Y-79079700D01*
X185600000Y-114800000D02*
X161228430Y-114800000D01*
X192710000Y-108045000D02*
X193240000Y-108045000D01*
X193240000Y-108045000D02*
X192355000Y-108045000D01*
X161228430Y-114800000D02*
X153000000Y-106571570D01*
X153000000Y-86200000D02*
X157062000Y-82138000D01*
%TO.N,D7*%
X193240000Y-110585000D02*
X191015000Y-110585000D01*
X152120000Y-85800000D02*
X154522000Y-83398000D01*
X154522000Y-80557700D02*
X156000000Y-79079700D01*
X154522000Y-83398000D02*
X154522000Y-80557700D01*
X186000000Y-115600000D02*
X160897058Y-115600000D01*
X191015000Y-110585000D02*
X186000000Y-115600000D01*
X152120000Y-106822942D02*
X152120000Y-85800000D01*
X160897058Y-115600000D02*
X152120000Y-106822942D01*
%TO.N,D4*%
X192205000Y-114395000D02*
X193240000Y-114395000D01*
X160400000Y-116800000D02*
X189800000Y-116800000D01*
X150920000Y-81619700D02*
X150920000Y-107320000D01*
X150920000Y-107320000D02*
X160400000Y-116800000D01*
X189800000Y-116800000D02*
X192205000Y-114395000D01*
%TO.N,MCLK*%
X152520000Y-106657256D02*
X152520000Y-85965686D01*
X191685000Y-109315000D02*
X185800000Y-115200000D01*
X156000000Y-82485686D02*
X156000000Y-81619700D01*
X185800000Y-115200000D02*
X161062744Y-115200000D01*
X193240000Y-109315000D02*
X191685000Y-109315000D01*
X152520000Y-85965686D02*
X156000000Y-82485686D01*
X161062744Y-115200000D02*
X152520000Y-106657256D01*
%TO.N,D6*%
X191145000Y-111855000D02*
X193240000Y-111855000D01*
X187000000Y-116000000D02*
X191145000Y-111855000D01*
X160731372Y-116000000D02*
X187000000Y-116000000D01*
X151720000Y-84800000D02*
X151720000Y-106988628D01*
X151720000Y-106988628D02*
X160731372Y-116000000D01*
X153460000Y-81619700D02*
X153460000Y-83060000D01*
X153460000Y-83060000D02*
X151720000Y-84800000D01*
%TO.N,D0*%
X161525488Y-113400000D02*
X154200000Y-106074512D01*
X198300000Y-100670000D02*
X197780000Y-100150000D01*
X198300000Y-101200000D02*
X198300000Y-100670000D01*
X154600000Y-87000000D02*
X155699700Y-87000000D01*
X197780000Y-100150000D02*
X193650000Y-100150000D01*
X193650000Y-100150000D02*
X192200000Y-101600000D01*
X154200000Y-87400000D02*
X154600000Y-87000000D01*
X155699700Y-87000000D02*
X161080000Y-81619700D01*
X184200000Y-113400000D02*
X161525488Y-113400000D01*
X154200000Y-106074512D02*
X154200000Y-87400000D01*
%TO.N,D1*%
X199070000Y-99750000D02*
X193050000Y-99750000D01*
X174000000Y-84097500D02*
X172730000Y-82827500D01*
X184200000Y-112600000D02*
X177200000Y-112600000D01*
X199570000Y-100250000D02*
X199070000Y-99750000D01*
X193050000Y-99750000D02*
X191400000Y-101400000D01*
X199570000Y-101200000D02*
X199570000Y-100250000D01*
X191400000Y-101400000D02*
X191400000Y-101600000D01*
X174000000Y-109400000D02*
X174000000Y-84097500D01*
X177200000Y-112600000D02*
X174000000Y-109400000D01*
%TO.N,D2*%
X174400000Y-108600000D02*
X177600000Y-111800000D01*
X200840000Y-101200000D02*
X200840000Y-100670000D01*
X174400000Y-83697500D02*
X174400000Y-108600000D01*
X199520000Y-99350000D02*
X192650000Y-99350000D01*
X175270000Y-82827500D02*
X174400000Y-83697500D01*
X200840000Y-100670000D02*
X199520000Y-99350000D01*
X190600000Y-101400000D02*
X190600000Y-101600000D01*
X177600000Y-111800000D02*
X184200000Y-111800000D01*
X192650000Y-99350000D02*
X190600000Y-101400000D01*
%TO.N,Camera Power*%
X170190000Y-80287500D02*
X170190000Y-82827500D01*
X166400000Y-87000000D02*
X165400000Y-86000000D01*
X166200000Y-83600000D02*
X166877500Y-83600000D01*
X166877500Y-83600000D02*
X170190000Y-80287500D01*
X163874500Y-92814500D02*
X165000000Y-93940000D01*
X163874500Y-89525500D02*
X163874500Y-92814500D01*
X165400000Y-84400000D02*
X166200000Y-83600000D01*
X165400000Y-86000000D02*
X165400000Y-84400000D01*
X166400000Y-87000000D02*
X163874500Y-89525500D01*
%TO.N,HS*%
X161394116Y-114400000D02*
X153400000Y-106405884D01*
X155082843Y-84682843D02*
X155476857Y-84682843D01*
X155476857Y-84682843D02*
X158540000Y-81619700D01*
X193240000Y-106775000D02*
X192290000Y-106775000D01*
X153400000Y-106405884D02*
X153400000Y-86365686D01*
X153400000Y-86365686D02*
X155082843Y-84682843D01*
X184665000Y-114400000D02*
X161394116Y-114400000D01*
X192290000Y-106775000D02*
X184665000Y-114400000D01*
%TO.N,SDA*%
X178200000Y-123400000D02*
X177200000Y-122400000D01*
X208460000Y-118700000D02*
X208460000Y-133188529D01*
X207358529Y-134290000D02*
X182841471Y-134290000D01*
X178200000Y-129648529D02*
X178200000Y-123400000D01*
X182841471Y-134290000D02*
X178200000Y-129648529D01*
X208460000Y-133188529D02*
X207358529Y-134290000D01*
%TO.N,TX*%
X207190000Y-119230000D02*
X202187500Y-124232500D01*
X207190000Y-118700000D02*
X207190000Y-119230000D01*
X202187500Y-124232500D02*
X202187500Y-128186154D01*
%TO.N,Net-(USB-C1-CC2)*%
X207200000Y-78550000D02*
X200550000Y-78550000D01*
X200550000Y-78550000D02*
X199900000Y-77900000D01*
X199900000Y-77900000D02*
X199900000Y-75305000D01*
%TO.N,Net-(USB-C1-CC1)*%
X200900000Y-76900000D02*
X200900000Y-75305000D01*
X205200000Y-77600000D02*
X201600000Y-77600000D01*
X207200000Y-75600000D02*
X205200000Y-77600000D01*
X201600000Y-77600000D02*
X200900000Y-76900000D01*
%TO.N,D3*%
X192250000Y-98950000D02*
X189700000Y-101500000D01*
X189700000Y-101500000D02*
X189600000Y-101600000D01*
X176745000Y-81352500D02*
X177810000Y-80287500D01*
X174800000Y-85200000D02*
X176745000Y-83255000D01*
X200810000Y-98950000D02*
X192250000Y-98950000D01*
X177165686Y-110800000D02*
X174800000Y-108434314D01*
X174800000Y-108434314D02*
X174800000Y-85200000D01*
X176745000Y-83255000D02*
X176745000Y-81352500D01*
X202110000Y-101200000D02*
X202110000Y-100250000D01*
X184200000Y-110800000D02*
X177165686Y-110800000D01*
X202110000Y-100250000D02*
X200810000Y-98950000D01*
%TO.N,VS*%
X156578752Y-85082843D02*
X155311171Y-85082843D01*
X159602000Y-82059595D02*
X156578752Y-85082843D01*
X161080000Y-79079700D02*
X159602000Y-80557700D01*
X155311171Y-85082843D02*
X153800000Y-86594014D01*
X153800000Y-106240198D02*
X161559802Y-114000000D01*
X161559802Y-114000000D02*
X184499314Y-114000000D01*
X184499314Y-114000000D02*
X189600000Y-108899314D01*
X189600000Y-108195000D02*
X192290000Y-105505000D01*
X153800000Y-86594014D02*
X153800000Y-106240198D01*
X159602000Y-80557700D02*
X159602000Y-82059595D01*
X189600000Y-108899314D02*
X189600000Y-108195000D01*
X192290000Y-105505000D02*
X193240000Y-105505000D01*
%TO.N,SCL*%
X174400000Y-126800000D02*
X174400000Y-123000000D01*
X207524215Y-134690000D02*
X182290000Y-134690000D01*
X209730000Y-132484215D02*
X207524215Y-134690000D01*
X182290000Y-134690000D02*
X174400000Y-126800000D01*
X209730000Y-118700000D02*
X209730000Y-132484215D01*
%TO.N,Manual Feed*%
X202110000Y-118700000D02*
X202110000Y-117510000D01*
X199000000Y-120800000D02*
X200960000Y-120800000D01*
X200960000Y-120800000D02*
X202110000Y-119650000D01*
X196710000Y-117510000D02*
X196000000Y-116800000D01*
X196000000Y-116800000D02*
X195800000Y-116800000D01*
X202110000Y-119650000D02*
X202110000Y-118700000D01*
X190400000Y-118800000D02*
X191800000Y-118800000D01*
X202110000Y-117510000D02*
X196710000Y-117510000D01*
%TO.N,Net-(SW4-B)*%
X198000000Y-76600000D02*
X198880000Y-75720000D01*
X198880000Y-74800000D02*
X199280000Y-74400000D01*
X201400000Y-74400000D02*
X201920000Y-74920000D01*
X189860000Y-72600000D02*
X193860000Y-76600000D01*
X198880000Y-75720000D02*
X198880000Y-75305000D01*
X199280000Y-74400000D02*
X201400000Y-74400000D01*
X201920000Y-74920000D02*
X201920000Y-75305000D01*
X198880000Y-75305000D02*
X198880000Y-74800000D01*
X193860000Y-76600000D02*
X198000000Y-76600000D01*
%TO.N,Camera Power Signal*%
X193240000Y-115665000D02*
X192290000Y-115665000D01*
X191800000Y-116155000D02*
X191800000Y-117200000D01*
X192290000Y-115665000D02*
X191800000Y-116155000D01*
%TO.N,Motor Power Signal*%
X193240000Y-118267433D02*
X193240000Y-116935000D01*
X186140000Y-124200000D02*
X187307433Y-124200000D01*
X187307433Y-124200000D02*
X193240000Y-118267433D01*
%TO.N,Net-(J7-Pin_1)*%
X185075000Y-119000000D02*
X188200000Y-119000000D01*
X188200000Y-119000000D02*
X188400000Y-118800000D01*
%TO.N,TX*%
X202187500Y-128186154D02*
X201400000Y-128973654D01*
X201400000Y-128973654D02*
X201400000Y-130600000D01*
%TD*%
%TA.AperFunction,Conductor*%
%TO.N,3.3V*%
G36*
X192414855Y-125806546D02*
G01*
X192431575Y-125825842D01*
X192556586Y-126004377D01*
X192561505Y-126011401D01*
X192728599Y-126178495D01*
X192780188Y-126214618D01*
X192922165Y-126314032D01*
X192922167Y-126314033D01*
X192922170Y-126314035D01*
X193136337Y-126413903D01*
X193364592Y-126475063D01*
X193533936Y-126489879D01*
X193599999Y-126495659D01*
X193600000Y-126495659D01*
X193600001Y-126495659D01*
X193666064Y-126489879D01*
X193835408Y-126475063D01*
X194063663Y-126413903D01*
X194277830Y-126314035D01*
X194412218Y-126219935D01*
X194478422Y-126197608D01*
X194546189Y-126214618D01*
X194594002Y-126265565D01*
X194606560Y-126307625D01*
X194614631Y-126379250D01*
X194614631Y-126379254D01*
X194674211Y-126549523D01*
X194729063Y-126636819D01*
X194770184Y-126702262D01*
X194897738Y-126829816D01*
X195050478Y-126925789D01*
X195187597Y-126973769D01*
X195220745Y-126985368D01*
X195220750Y-126985369D01*
X195399996Y-127005565D01*
X195400000Y-127005565D01*
X195400004Y-127005565D01*
X195560186Y-126987517D01*
X195629007Y-126999572D01*
X195650977Y-127013469D01*
X195656337Y-127017707D01*
X195656342Y-127017710D01*
X195656344Y-127017712D01*
X195805666Y-127109814D01*
X195972203Y-127164999D01*
X196074991Y-127175500D01*
X197475008Y-127175499D01*
X197577797Y-127164999D01*
X197744334Y-127109814D01*
X197893656Y-127017712D01*
X198017712Y-126893656D01*
X198109814Y-126744334D01*
X198164999Y-126577797D01*
X198175500Y-126475009D01*
X198175499Y-126411227D01*
X198195183Y-126344191D01*
X198247986Y-126298435D01*
X198317144Y-126288491D01*
X198380700Y-126317515D01*
X198387180Y-126323548D01*
X198456344Y-126392712D01*
X198605666Y-126484814D01*
X198772203Y-126539999D01*
X198874991Y-126550500D01*
X199096634Y-126550499D01*
X199135179Y-126558165D01*
X199135365Y-126557473D01*
X199143214Y-126559576D01*
X199143216Y-126559577D01*
X199295943Y-126600500D01*
X199454057Y-126600500D01*
X200592060Y-126600500D01*
X200659099Y-126620185D01*
X200679741Y-126636819D01*
X200685238Y-126642316D01*
X200740162Y-126676827D01*
X200810494Y-126721020D01*
X200837978Y-126738289D01*
X201008245Y-126797868D01*
X201076884Y-126805601D01*
X201141296Y-126832666D01*
X201180852Y-126890260D01*
X201187000Y-126928821D01*
X201187000Y-127372402D01*
X201167315Y-127439441D01*
X201150681Y-127460083D01*
X199343530Y-129267233D01*
X199282207Y-129300718D01*
X199223756Y-129299327D01*
X199095413Y-129264938D01*
X199095403Y-129264936D01*
X198860001Y-129244341D01*
X198859999Y-129244341D01*
X198624596Y-129264936D01*
X198624586Y-129264938D01*
X198396344Y-129326094D01*
X198396335Y-129326098D01*
X198182171Y-129425964D01*
X198182169Y-129425965D01*
X197988597Y-129561505D01*
X197821505Y-129728597D01*
X197685965Y-129922169D01*
X197685964Y-129922171D01*
X197586098Y-130136335D01*
X197586094Y-130136344D01*
X197524938Y-130364586D01*
X197524936Y-130364596D01*
X197504341Y-130599999D01*
X197504341Y-130600000D01*
X197524936Y-130835403D01*
X197524938Y-130835413D01*
X197586094Y-131063655D01*
X197586096Y-131063659D01*
X197586097Y-131063663D01*
X197666004Y-131235023D01*
X197685965Y-131277830D01*
X197685967Y-131277834D01*
X197784573Y-131418657D01*
X197821501Y-131471396D01*
X197821506Y-131471402D01*
X197943430Y-131593326D01*
X197976915Y-131654649D01*
X197971931Y-131724341D01*
X197930059Y-131780274D01*
X197899083Y-131797189D01*
X197767669Y-131846203D01*
X197767664Y-131846206D01*
X197652455Y-131932452D01*
X197652452Y-131932455D01*
X197566206Y-132047664D01*
X197566202Y-132047671D01*
X197515908Y-132182517D01*
X197509501Y-132242116D01*
X197509500Y-132242127D01*
X197509500Y-132964736D01*
X197509501Y-133565500D01*
X197489816Y-133632539D01*
X197437013Y-133678294D01*
X197385501Y-133689500D01*
X183141568Y-133689500D01*
X183074529Y-133669815D01*
X183053887Y-133653181D01*
X181312886Y-131912180D01*
X181279401Y-131850857D01*
X181284385Y-131781165D01*
X181326257Y-131725232D01*
X181391721Y-131700815D01*
X181400567Y-131700499D01*
X181900002Y-131700499D01*
X181900008Y-131700499D01*
X182002797Y-131689999D01*
X182169334Y-131634814D01*
X182318656Y-131542712D01*
X182442712Y-131418656D01*
X182534814Y-131269334D01*
X182589999Y-131102797D01*
X182600500Y-131000009D01*
X182600499Y-130199992D01*
X182593866Y-130135063D01*
X182589999Y-130097203D01*
X182589998Y-130097200D01*
X182588869Y-130093793D01*
X182534814Y-129930666D01*
X182442712Y-129781344D01*
X182349049Y-129687681D01*
X182315564Y-129626358D01*
X182320548Y-129556666D01*
X182349049Y-129512319D01*
X182383538Y-129477830D01*
X182442712Y-129418656D01*
X182534814Y-129269334D01*
X182534815Y-129269331D01*
X182538605Y-129263187D01*
X182540399Y-129264293D01*
X182579687Y-129219663D01*
X182645908Y-129200500D01*
X184550501Y-129200500D01*
X184617540Y-129220185D01*
X184663295Y-129272989D01*
X184674501Y-129324500D01*
X184674501Y-129647876D01*
X184680908Y-129707483D01*
X184731202Y-129842328D01*
X184731206Y-129842335D01*
X184817452Y-129957544D01*
X184817455Y-129957547D01*
X184932664Y-130043793D01*
X184932671Y-130043797D01*
X185067517Y-130094091D01*
X185067516Y-130094091D01*
X185074444Y-130094835D01*
X185127127Y-130100500D01*
X186922872Y-130100499D01*
X186982483Y-130094091D01*
X187117331Y-130043796D01*
X187232546Y-129957546D01*
X187318796Y-129842331D01*
X187318797Y-129842327D01*
X187318800Y-129842323D01*
X187361095Y-129728922D01*
X187368002Y-129710401D01*
X187409872Y-129654468D01*
X187475337Y-129630050D01*
X187543610Y-129644901D01*
X187571865Y-129666053D01*
X187693917Y-129788105D01*
X187887421Y-129923600D01*
X188101507Y-130023429D01*
X188101516Y-130023433D01*
X188315000Y-130080634D01*
X188315000Y-129183012D01*
X188372007Y-129215925D01*
X188499174Y-129250000D01*
X188630826Y-129250000D01*
X188757993Y-129215925D01*
X188815000Y-129183012D01*
X188815000Y-130080633D01*
X189028483Y-130023433D01*
X189028492Y-130023429D01*
X189242578Y-129923600D01*
X189436082Y-129788105D01*
X189603105Y-129621082D01*
X189738600Y-129427578D01*
X189838429Y-129213492D01*
X189838432Y-129213486D01*
X189895636Y-129000000D01*
X188998012Y-129000000D01*
X189030925Y-128942993D01*
X189065000Y-128815826D01*
X189065000Y-128684174D01*
X189030925Y-128557007D01*
X188998012Y-128500000D01*
X189895636Y-128500000D01*
X189895635Y-128499999D01*
X189838432Y-128286513D01*
X189838429Y-128286507D01*
X189738600Y-128072422D01*
X189738599Y-128072420D01*
X189603113Y-127878926D01*
X189603108Y-127878920D01*
X189436078Y-127711890D01*
X189313521Y-127626074D01*
X189269896Y-127571497D01*
X189262704Y-127501999D01*
X189294226Y-127439644D01*
X189354456Y-127404231D01*
X189384645Y-127400500D01*
X190234903Y-127400500D01*
X190301942Y-127420185D01*
X190322584Y-127436819D01*
X191202233Y-128316468D01*
X191235718Y-128377791D01*
X191234327Y-128436241D01*
X191199939Y-128564583D01*
X191199936Y-128564596D01*
X191179341Y-128799999D01*
X191179341Y-128800000D01*
X191199936Y-129035403D01*
X191199938Y-129035413D01*
X191261094Y-129263655D01*
X191261096Y-129263659D01*
X191261097Y-129263663D01*
X191336780Y-129425965D01*
X191360965Y-129477830D01*
X191360967Y-129477834D01*
X191467551Y-129630050D01*
X191496505Y-129671401D01*
X191663599Y-129838495D01*
X191760384Y-129906265D01*
X191857165Y-129974032D01*
X191857167Y-129974033D01*
X191857170Y-129974035D01*
X192071337Y-130073903D01*
X192071343Y-130073904D01*
X192071344Y-130073905D01*
X192126285Y-130088626D01*
X192299592Y-130135063D01*
X192476034Y-130150500D01*
X192534999Y-130155659D01*
X192535000Y-130155659D01*
X192535001Y-130155659D01*
X192593966Y-130150500D01*
X192770408Y-130135063D01*
X192998663Y-130073903D01*
X193212830Y-129974035D01*
X193406401Y-129838495D01*
X193528329Y-129716566D01*
X193589648Y-129683084D01*
X193659340Y-129688068D01*
X193715274Y-129729939D01*
X193732189Y-129760917D01*
X193781202Y-129892328D01*
X193781206Y-129892335D01*
X193867452Y-130007544D01*
X193867455Y-130007547D01*
X193982664Y-130093793D01*
X193982671Y-130093797D01*
X194117517Y-130144091D01*
X194117516Y-130144091D01*
X194124444Y-130144835D01*
X194177127Y-130150500D01*
X195972872Y-130150499D01*
X196032483Y-130144091D01*
X196167331Y-130093796D01*
X196282546Y-130007546D01*
X196368796Y-129892331D01*
X196419091Y-129757483D01*
X196425500Y-129697873D01*
X196425499Y-127902128D01*
X196419091Y-127842517D01*
X196417810Y-127839083D01*
X196368797Y-127707671D01*
X196368793Y-127707664D01*
X196282547Y-127592455D01*
X196282544Y-127592452D01*
X196167335Y-127506206D01*
X196167328Y-127506202D01*
X196032482Y-127455908D01*
X196032483Y-127455908D01*
X195972883Y-127449501D01*
X195972881Y-127449500D01*
X195972873Y-127449500D01*
X195972864Y-127449500D01*
X194177129Y-127449500D01*
X194177123Y-127449501D01*
X194117516Y-127455908D01*
X193982671Y-127506202D01*
X193982664Y-127506206D01*
X193867455Y-127592452D01*
X193867452Y-127592455D01*
X193781206Y-127707664D01*
X193781203Y-127707669D01*
X193732189Y-127839083D01*
X193690317Y-127895016D01*
X193624853Y-127919433D01*
X193556580Y-127904581D01*
X193528326Y-127883430D01*
X193406402Y-127761506D01*
X193406395Y-127761501D01*
X193212834Y-127625967D01*
X193212830Y-127625965D01*
X193154600Y-127598812D01*
X192998663Y-127526097D01*
X192998659Y-127526096D01*
X192998655Y-127526094D01*
X192770413Y-127464938D01*
X192770403Y-127464936D01*
X192535001Y-127444341D01*
X192534999Y-127444341D01*
X192299596Y-127464936D01*
X192299583Y-127464939D01*
X192171241Y-127499327D01*
X192101392Y-127497664D01*
X192051468Y-127467233D01*
X191261062Y-126676827D01*
X191227577Y-126615504D01*
X191232561Y-126545812D01*
X191274433Y-126489879D01*
X191316648Y-126469371D01*
X191523663Y-126413903D01*
X191737830Y-126314035D01*
X191931401Y-126178495D01*
X192098495Y-126011401D01*
X192228425Y-125825842D01*
X192283002Y-125782217D01*
X192352500Y-125775023D01*
X192414855Y-125806546D01*
G37*
%TD.AperFunction*%
%TA.AperFunction,Conductor*%
G36*
X207791003Y-119959208D02*
G01*
X207842141Y-120006818D01*
X207859500Y-120070093D01*
X207859500Y-132888432D01*
X207839815Y-132955471D01*
X207823181Y-132976113D01*
X207146113Y-133653181D01*
X207084790Y-133686666D01*
X207058432Y-133689500D01*
X205351985Y-133689500D01*
X205284946Y-133669815D01*
X205239191Y-133617011D01*
X205229247Y-133547853D01*
X205232210Y-133533406D01*
X205270636Y-133390000D01*
X204373012Y-133390000D01*
X204405925Y-133332993D01*
X204440000Y-133205826D01*
X204440000Y-133074174D01*
X204405925Y-132947007D01*
X204373012Y-132890000D01*
X205270636Y-132890000D01*
X205270635Y-132889999D01*
X205213432Y-132676513D01*
X205213429Y-132676507D01*
X205113600Y-132462422D01*
X205113599Y-132462420D01*
X204978113Y-132268926D01*
X204978108Y-132268920D01*
X204811082Y-132101894D01*
X204624968Y-131971575D01*
X204581344Y-131916998D01*
X204574151Y-131847499D01*
X204605673Y-131785145D01*
X204624968Y-131768425D01*
X204811082Y-131638105D01*
X204978105Y-131471082D01*
X205113600Y-131277578D01*
X205213429Y-131063492D01*
X205213432Y-131063486D01*
X205270636Y-130850000D01*
X204373012Y-130850000D01*
X204405925Y-130792993D01*
X204440000Y-130665826D01*
X204440000Y-130534174D01*
X204405925Y-130407007D01*
X204373012Y-130350000D01*
X205270636Y-130350000D01*
X205270635Y-130349999D01*
X205213432Y-130136513D01*
X205213429Y-130136507D01*
X205113600Y-129922422D01*
X205113599Y-129922420D01*
X204978113Y-129728926D01*
X204978108Y-129728920D01*
X204811082Y-129561894D01*
X204617578Y-129426399D01*
X204403492Y-129326570D01*
X204403486Y-129326567D01*
X204190000Y-129269364D01*
X204190000Y-130166988D01*
X204132993Y-130134075D01*
X204005826Y-130100000D01*
X203874174Y-130100000D01*
X203747007Y-130134075D01*
X203690000Y-130166988D01*
X203690000Y-129269364D01*
X203689999Y-129269364D01*
X203476513Y-129326567D01*
X203476507Y-129326570D01*
X203262422Y-129426399D01*
X203262420Y-129426400D01*
X203068926Y-129561886D01*
X203068920Y-129561891D01*
X202901891Y-129728920D01*
X202901890Y-129728922D01*
X202771880Y-129914595D01*
X202717303Y-129958219D01*
X202647804Y-129965412D01*
X202585450Y-129933890D01*
X202568730Y-129914594D01*
X202438494Y-129728597D01*
X202271402Y-129561506D01*
X202271395Y-129561501D01*
X202077831Y-129425965D01*
X202077826Y-129425962D01*
X202072091Y-129423288D01*
X202019653Y-129377113D01*
X202000500Y-129310908D01*
X202000500Y-129273750D01*
X202020185Y-129206711D01*
X202036815Y-129186073D01*
X202546006Y-128676881D01*
X202546011Y-128676878D01*
X202556214Y-128666674D01*
X202556216Y-128666674D01*
X202668020Y-128554870D01*
X202739371Y-128431286D01*
X202739372Y-128431285D01*
X202742498Y-128425869D01*
X202747077Y-128417939D01*
X202788000Y-128265211D01*
X202788000Y-128107097D01*
X202788000Y-124532596D01*
X202807685Y-124465557D01*
X202824314Y-124444920D01*
X207282416Y-119986817D01*
X207343739Y-119953333D01*
X207370097Y-119950499D01*
X207687871Y-119950499D01*
X207687872Y-119950499D01*
X207687873Y-119950498D01*
X207687887Y-119950498D01*
X207716803Y-119947388D01*
X207722244Y-119946804D01*
X207791003Y-119959208D01*
G37*
%TD.AperFunction*%
%TA.AperFunction,Conductor*%
G36*
X204190000Y-132706988D02*
G01*
X204132993Y-132674075D01*
X204005826Y-132640000D01*
X203874174Y-132640000D01*
X203747007Y-132674075D01*
X203690000Y-132706988D01*
X203690000Y-131033012D01*
X203747007Y-131065925D01*
X203874174Y-131100000D01*
X204005826Y-131100000D01*
X204132993Y-131065925D01*
X204190000Y-131033012D01*
X204190000Y-132706988D01*
G37*
%TD.AperFunction*%
%TA.AperFunction,Conductor*%
G36*
X202788332Y-119931341D02*
G01*
X202822517Y-119944091D01*
X202822516Y-119944091D01*
X202829444Y-119944835D01*
X202882127Y-119950500D01*
X203877872Y-119950499D01*
X203889621Y-119949236D01*
X203958381Y-119961643D01*
X204009517Y-120009254D01*
X204026796Y-120076953D01*
X204004730Y-120143247D01*
X203990556Y-120160207D01*
X201418786Y-122731978D01*
X201306981Y-122843782D01*
X201306979Y-122843784D01*
X201292459Y-122868935D01*
X201279238Y-122891835D01*
X201227923Y-122980715D01*
X201186999Y-123133443D01*
X201186999Y-123133445D01*
X201186999Y-123301546D01*
X201187000Y-123301559D01*
X201187000Y-125096177D01*
X201167315Y-125163216D01*
X201114511Y-125208971D01*
X201076884Y-125219397D01*
X201008250Y-125227130D01*
X200837978Y-125286710D01*
X200765471Y-125332270D01*
X200698234Y-125351270D01*
X200631399Y-125330902D01*
X200586185Y-125277634D01*
X200575499Y-125227276D01*
X200575499Y-125049998D01*
X200575498Y-125049981D01*
X200564999Y-124947203D01*
X200564998Y-124947200D01*
X200554390Y-124915187D01*
X200509814Y-124780666D01*
X200417712Y-124631344D01*
X200323695Y-124537327D01*
X200290210Y-124476004D01*
X200295194Y-124406312D01*
X200323695Y-124361964D01*
X200417317Y-124268342D01*
X200509356Y-124119124D01*
X200509358Y-124119119D01*
X200564505Y-123952697D01*
X200564506Y-123952690D01*
X200574999Y-123849986D01*
X200575000Y-123849973D01*
X200575000Y-123700000D01*
X199499000Y-123700000D01*
X199431961Y-123680315D01*
X199386206Y-123627511D01*
X199375000Y-123576000D01*
X199375000Y-123450000D01*
X199249000Y-123450000D01*
X199181961Y-123430315D01*
X199136206Y-123377511D01*
X199125000Y-123326000D01*
X199125000Y-123200000D01*
X199625000Y-123200000D01*
X200574999Y-123200000D01*
X200574999Y-123050028D01*
X200574998Y-123050013D01*
X200564505Y-122947302D01*
X200509358Y-122780880D01*
X200509356Y-122780875D01*
X200417315Y-122631654D01*
X200293345Y-122507684D01*
X200144124Y-122415643D01*
X200144119Y-122415641D01*
X199977697Y-122360494D01*
X199977690Y-122360493D01*
X199874986Y-122350000D01*
X199625000Y-122350000D01*
X199625000Y-123200000D01*
X199125000Y-123200000D01*
X199125000Y-122350000D01*
X198875029Y-122350000D01*
X198875012Y-122350001D01*
X198772302Y-122360494D01*
X198605880Y-122415641D01*
X198605875Y-122415643D01*
X198456654Y-122507684D01*
X198387180Y-122577159D01*
X198325857Y-122610644D01*
X198256165Y-122605660D01*
X198200232Y-122563788D01*
X198175815Y-122498324D01*
X198175499Y-122489478D01*
X198175499Y-122424998D01*
X198175498Y-122424981D01*
X198164999Y-122322203D01*
X198164998Y-122322200D01*
X198149096Y-122274211D01*
X198109814Y-122155666D01*
X198028983Y-122024618D01*
X198010544Y-121957227D01*
X198031467Y-121890564D01*
X198085109Y-121845794D01*
X198154439Y-121837133D01*
X198199617Y-121853982D01*
X198330666Y-121934814D01*
X198497203Y-121989999D01*
X198599991Y-122000500D01*
X199400008Y-122000499D01*
X199400016Y-122000498D01*
X199400019Y-122000498D01*
X199456302Y-121994748D01*
X199502797Y-121989999D01*
X199669334Y-121934814D01*
X199818656Y-121842712D01*
X199942712Y-121718656D01*
X200034814Y-121569334D01*
X200062595Y-121485495D01*
X200102368Y-121428051D01*
X200166884Y-121401228D01*
X200180301Y-121400500D01*
X200873331Y-121400500D01*
X200873347Y-121400501D01*
X200880943Y-121400501D01*
X201039054Y-121400501D01*
X201039057Y-121400501D01*
X201191785Y-121359577D01*
X201241904Y-121330639D01*
X201328716Y-121280520D01*
X201440520Y-121168716D01*
X201440520Y-121168714D01*
X201450728Y-121158507D01*
X201450729Y-121158504D01*
X202590520Y-120018716D01*
X202602019Y-119998797D01*
X202652580Y-119950585D01*
X202666074Y-119944615D01*
X202667477Y-119944091D01*
X202667483Y-119944091D01*
X202701670Y-119931339D01*
X202771360Y-119926357D01*
X202788332Y-119931341D01*
G37*
%TD.AperFunction*%
%TA.AperFunction,Conductor*%
G36*
X193458834Y-119000347D02*
G01*
X193514767Y-119042219D01*
X193539184Y-119107683D01*
X193539500Y-119116529D01*
X193539500Y-119497869D01*
X193539501Y-119497876D01*
X193545908Y-119557483D01*
X193596202Y-119692328D01*
X193596206Y-119692335D01*
X193682452Y-119807544D01*
X193682455Y-119807547D01*
X193797665Y-119893794D01*
X193797667Y-119893794D01*
X193797669Y-119893796D01*
X193808830Y-119897958D01*
X193864764Y-119939826D01*
X193889184Y-120005289D01*
X193889500Y-120014141D01*
X193889500Y-120515830D01*
X193889499Y-120515848D01*
X193889499Y-120681554D01*
X193889498Y-120681554D01*
X193930423Y-120834286D01*
X193930424Y-120834287D01*
X193956272Y-120879057D01*
X194009480Y-120971216D01*
X194009482Y-120971218D01*
X194076083Y-121037819D01*
X194109568Y-121099142D01*
X194104584Y-121168834D01*
X194062712Y-121224767D01*
X193997248Y-121249184D01*
X193988402Y-121249500D01*
X192702129Y-121249500D01*
X192702123Y-121249501D01*
X192642516Y-121255908D01*
X192507671Y-121306202D01*
X192507664Y-121306206D01*
X192392455Y-121392452D01*
X192392452Y-121392455D01*
X192306206Y-121507664D01*
X192306202Y-121507671D01*
X192256997Y-121639598D01*
X192215126Y-121695532D01*
X192149661Y-121719949D01*
X192081388Y-121705097D01*
X192053134Y-121683946D01*
X191931082Y-121561894D01*
X191737578Y-121426399D01*
X191523492Y-121326570D01*
X191523486Y-121326567D01*
X191341819Y-121277890D01*
X191282159Y-121241525D01*
X191251630Y-121178678D01*
X191259925Y-121109302D01*
X191286228Y-121070438D01*
X193327821Y-119028846D01*
X193389142Y-118995363D01*
X193458834Y-119000347D01*
G37*
%TD.AperFunction*%
%TA.AperFunction,Conductor*%
G36*
X195262127Y-119950500D02*
G01*
X195820030Y-119950499D01*
X195887069Y-119970183D01*
X195932824Y-120022987D01*
X195942768Y-120092146D01*
X195937736Y-120113502D01*
X195910001Y-120197200D01*
X195910000Y-120197204D01*
X195899500Y-120299983D01*
X195899500Y-120863403D01*
X195879815Y-120930442D01*
X195827011Y-120976197D01*
X195757853Y-120986141D01*
X195694297Y-120957116D01*
X195687819Y-120951084D01*
X195126819Y-120390084D01*
X195093334Y-120328761D01*
X195090500Y-120302403D01*
X195090500Y-120070093D01*
X195110185Y-120003054D01*
X195162989Y-119957299D01*
X195227754Y-119946804D01*
X195262127Y-119950500D01*
G37*
%TD.AperFunction*%
%TA.AperFunction,Conductor*%
G36*
X230842539Y-69120185D02*
G01*
X230888294Y-69172989D01*
X230899500Y-69224500D01*
X230899500Y-85826000D01*
X230879815Y-85893039D01*
X230827011Y-85938794D01*
X230775500Y-85950000D01*
X212490000Y-85950000D01*
X212490000Y-133950000D01*
X230775500Y-133950000D01*
X230842539Y-133969685D01*
X230888294Y-134022489D01*
X230899500Y-134074000D01*
X230899500Y-139975500D01*
X230879815Y-140042539D01*
X230827011Y-140088294D01*
X230775500Y-140099500D01*
X146424500Y-140099500D01*
X146357461Y-140079815D01*
X146311706Y-140027011D01*
X146300500Y-139975500D01*
X146300500Y-135478711D01*
X148949500Y-135478711D01*
X148949500Y-135721288D01*
X148981161Y-135961785D01*
X149043947Y-136196104D01*
X149130017Y-136403895D01*
X149136776Y-136420212D01*
X149258064Y-136630289D01*
X149258066Y-136630292D01*
X149258067Y-136630293D01*
X149405733Y-136822736D01*
X149405739Y-136822743D01*
X149577256Y-136994260D01*
X149577262Y-136994265D01*
X149769711Y-137141936D01*
X149979788Y-137263224D01*
X150203900Y-137356054D01*
X150438211Y-137418838D01*
X150618586Y-137442584D01*
X150678711Y-137450500D01*
X150678712Y-137450500D01*
X150921289Y-137450500D01*
X150969388Y-137444167D01*
X151161789Y-137418838D01*
X151396100Y-137356054D01*
X151620212Y-137263224D01*
X151830289Y-137141936D01*
X152022738Y-136994265D01*
X152138292Y-136878711D01*
X224149500Y-136878711D01*
X224149500Y-137121288D01*
X224181161Y-137361785D01*
X224243947Y-137596104D01*
X224336773Y-137820205D01*
X224336776Y-137820212D01*
X224458064Y-138030289D01*
X224458066Y-138030292D01*
X224458067Y-138030293D01*
X224605733Y-138222736D01*
X224605739Y-138222743D01*
X224777256Y-138394260D01*
X224777262Y-138394265D01*
X224969711Y-138541936D01*
X225179788Y-138663224D01*
X225403900Y-138756054D01*
X225638211Y-138818838D01*
X225818586Y-138842584D01*
X225878711Y-138850500D01*
X225878712Y-138850500D01*
X226121289Y-138850500D01*
X226169388Y-138844167D01*
X226361789Y-138818838D01*
X226596100Y-138756054D01*
X226820212Y-138663224D01*
X227030289Y-138541936D01*
X227222738Y-138394265D01*
X227394265Y-138222738D01*
X227541936Y-138030289D01*
X227663224Y-137820212D01*
X227756054Y-137596100D01*
X227818838Y-137361789D01*
X227850500Y-137121288D01*
X227850500Y-136878712D01*
X227818838Y-136638211D01*
X227756054Y-136403900D01*
X227663224Y-136179788D01*
X227541936Y-135969711D01*
X227394265Y-135777262D01*
X227394260Y-135777256D01*
X227222743Y-135605739D01*
X227222736Y-135605733D01*
X227030293Y-135458067D01*
X227030292Y-135458066D01*
X227030289Y-135458064D01*
X226820212Y-135336776D01*
X226820205Y-135336773D01*
X226596104Y-135243947D01*
X226361785Y-135181161D01*
X226121289Y-135149500D01*
X226121288Y-135149500D01*
X225878712Y-135149500D01*
X225878711Y-135149500D01*
X225638214Y-135181161D01*
X225403895Y-135243947D01*
X225179794Y-135336773D01*
X225179785Y-135336777D01*
X224969706Y-135458067D01*
X224777263Y-135605733D01*
X224777256Y-135605739D01*
X224605739Y-135777256D01*
X224605733Y-135777263D01*
X224458067Y-135969706D01*
X224336777Y-136179785D01*
X224336773Y-136179794D01*
X224243947Y-136403895D01*
X224181161Y-136638214D01*
X224149500Y-136878711D01*
X152138292Y-136878711D01*
X152194265Y-136822738D01*
X152341936Y-136630289D01*
X152463224Y-136420212D01*
X152556054Y-136196100D01*
X152618838Y-135961789D01*
X152650500Y-135721288D01*
X152650500Y-135478712D01*
X152618838Y-135238211D01*
X152556054Y-135003900D01*
X152463224Y-134779788D01*
X152341936Y-134569711D01*
X152194265Y-134377262D01*
X152194260Y-134377256D01*
X152022743Y-134205739D01*
X152022736Y-134205733D01*
X151830293Y-134058067D01*
X151830292Y-134058066D01*
X151830289Y-134058064D01*
X151620212Y-133936776D01*
X151620205Y-133936773D01*
X151396104Y-133843947D01*
X151161785Y-133781161D01*
X150921289Y-133749500D01*
X150921288Y-133749500D01*
X150678712Y-133749500D01*
X150678711Y-133749500D01*
X150438214Y-133781161D01*
X150203895Y-133843947D01*
X149979794Y-133936773D01*
X149979785Y-133936777D01*
X149769706Y-134058067D01*
X149577263Y-134205733D01*
X149577256Y-134205739D01*
X149405739Y-134377256D01*
X149405733Y-134377263D01*
X149258067Y-134569706D01*
X149136777Y-134779785D01*
X149136773Y-134779794D01*
X149043947Y-135003895D01*
X148981161Y-135238214D01*
X148949500Y-135478711D01*
X146300500Y-135478711D01*
X146300500Y-133649998D01*
X166495727Y-133649998D01*
X166495727Y-133650001D01*
X166514781Y-133867796D01*
X166514783Y-133867807D01*
X166571366Y-134078979D01*
X166571368Y-134078983D01*
X166571369Y-134078987D01*
X166630472Y-134205733D01*
X166663768Y-134277137D01*
X166663770Y-134277141D01*
X166789167Y-134456226D01*
X166789172Y-134456232D01*
X166943767Y-134610827D01*
X166943773Y-134610832D01*
X167122858Y-134736229D01*
X167122860Y-134736230D01*
X167122863Y-134736232D01*
X167321013Y-134828631D01*
X167532198Y-134885218D01*
X167687770Y-134898828D01*
X167749998Y-134904273D01*
X167750000Y-134904273D01*
X167750002Y-134904273D01*
X167804450Y-134899509D01*
X167967802Y-134885218D01*
X168178987Y-134828631D01*
X168377137Y-134736232D01*
X168556231Y-134610829D01*
X168710829Y-134456231D01*
X168836232Y-134277137D01*
X168928631Y-134078987D01*
X168985218Y-133867802D01*
X169004273Y-133650000D01*
X169004273Y-133649998D01*
X170995727Y-133649998D01*
X170995727Y-133650001D01*
X171014781Y-133867796D01*
X171014783Y-133867807D01*
X171071366Y-134078979D01*
X171071368Y-134078983D01*
X171071369Y-134078987D01*
X171130472Y-134205733D01*
X171163768Y-134277137D01*
X171163770Y-134277141D01*
X171289167Y-134456226D01*
X171289172Y-134456232D01*
X171443767Y-134610827D01*
X171443773Y-134610832D01*
X171622858Y-134736229D01*
X171622860Y-134736230D01*
X171622863Y-134736232D01*
X171821013Y-134828631D01*
X172032198Y-134885218D01*
X172187770Y-134898828D01*
X172249998Y-134904273D01*
X172250000Y-134904273D01*
X172250002Y-134904273D01*
X172304450Y-134899509D01*
X172467802Y-134885218D01*
X172678987Y-134828631D01*
X172877137Y-134736232D01*
X173056231Y-134610829D01*
X173210829Y-134456231D01*
X173336232Y-134277137D01*
X173428631Y-134078987D01*
X173485218Y-133867802D01*
X173504273Y-133650000D01*
X173502745Y-133632539D01*
X173494072Y-133533406D01*
X173485218Y-133432198D01*
X173428631Y-133221013D01*
X173336232Y-133022864D01*
X173264522Y-132920450D01*
X173210830Y-132843770D01*
X173200053Y-132832993D01*
X173056231Y-132689171D01*
X173056227Y-132689168D01*
X173056226Y-132689167D01*
X172877141Y-132563770D01*
X172877137Y-132563768D01*
X172751992Y-132505412D01*
X172678987Y-132471369D01*
X172678983Y-132471368D01*
X172678979Y-132471366D01*
X172467807Y-132414783D01*
X172467803Y-132414782D01*
X172467802Y-132414782D01*
X172467801Y-132414781D01*
X172467796Y-132414781D01*
X172250002Y-132395727D01*
X172249998Y-132395727D01*
X172032203Y-132414781D01*
X172032192Y-132414783D01*
X171821020Y-132471366D01*
X171821011Y-132471370D01*
X171622866Y-132563766D01*
X171443766Y-132689172D01*
X171289172Y-132843766D01*
X171163766Y-133022866D01*
X171071370Y-133221011D01*
X171071366Y-133221020D01*
X171014783Y-133432192D01*
X171014781Y-133432203D01*
X170995727Y-133649998D01*
X169004273Y-133649998D01*
X169002745Y-133632539D01*
X168994072Y-133533406D01*
X168985218Y-133432198D01*
X168928631Y-133221013D01*
X168836232Y-133022864D01*
X168764522Y-132920450D01*
X168710830Y-132843770D01*
X168700053Y-132832993D01*
X168556231Y-132689171D01*
X168556227Y-132689168D01*
X168556226Y-132689167D01*
X168377141Y-132563770D01*
X168377137Y-132563768D01*
X168251992Y-132505412D01*
X168178987Y-132471369D01*
X168178983Y-132471368D01*
X168178979Y-132471366D01*
X167967807Y-132414783D01*
X167967803Y-132414782D01*
X167967802Y-132414782D01*
X167967801Y-132414781D01*
X167967796Y-132414781D01*
X167750002Y-132395727D01*
X167749998Y-132395727D01*
X167532203Y-132414781D01*
X167532192Y-132414783D01*
X167321020Y-132471366D01*
X167321011Y-132471370D01*
X167122866Y-132563766D01*
X166943766Y-132689172D01*
X166789172Y-132843766D01*
X166663766Y-133022866D01*
X166571370Y-133221011D01*
X166571366Y-133221020D01*
X166514783Y-133432192D01*
X166514781Y-133432203D01*
X166495727Y-133649998D01*
X146300500Y-133649998D01*
X146300500Y-127149998D01*
X166495727Y-127149998D01*
X166495727Y-127150001D01*
X166514781Y-127367796D01*
X166514783Y-127367807D01*
X166571366Y-127578979D01*
X166571368Y-127578983D01*
X166571369Y-127578987D01*
X166633341Y-127711886D01*
X166663768Y-127777137D01*
X166663770Y-127777141D01*
X166789167Y-127956226D01*
X166789172Y-127956232D01*
X166943767Y-128110827D01*
X166943773Y-128110832D01*
X167122858Y-128236229D01*
X167122860Y-128236230D01*
X167122863Y-128236232D01*
X167321013Y-128328631D01*
X167532198Y-128385218D01*
X167687770Y-128398828D01*
X167749998Y-128404273D01*
X167750000Y-128404273D01*
X167750002Y-128404273D01*
X167804579Y-128399498D01*
X167967802Y-128385218D01*
X168178987Y-128328631D01*
X168377137Y-128236232D01*
X168556231Y-128110829D01*
X168710829Y-127956231D01*
X168836232Y-127777137D01*
X168928631Y-127578987D01*
X168985218Y-127367802D01*
X169002042Y-127175498D01*
X169004273Y-127150001D01*
X169004273Y-127149998D01*
X168998315Y-127081900D01*
X168985218Y-126932198D01*
X168928631Y-126721013D01*
X168836232Y-126522864D01*
X168764522Y-126420450D01*
X168717387Y-126353135D01*
X171000500Y-126353135D01*
X171000500Y-127946870D01*
X171000501Y-127946876D01*
X171006908Y-128006483D01*
X171057202Y-128141328D01*
X171057206Y-128141335D01*
X171143452Y-128256544D01*
X171143455Y-128256547D01*
X171258664Y-128342793D01*
X171258671Y-128342797D01*
X171393517Y-128393091D01*
X171393516Y-128393091D01*
X171400444Y-128393835D01*
X171453127Y-128399500D01*
X173046872Y-128399499D01*
X173106483Y-128393091D01*
X173241331Y-128342796D01*
X173356546Y-128256546D01*
X173442796Y-128141331D01*
X173493091Y-128006483D01*
X173499500Y-127946873D01*
X173499499Y-126353128D01*
X173493091Y-126293517D01*
X173491216Y-126288491D01*
X173442797Y-126158671D01*
X173442793Y-126158664D01*
X173356547Y-126043455D01*
X173356544Y-126043452D01*
X173241335Y-125957206D01*
X173241328Y-125957202D01*
X173106482Y-125906908D01*
X173106483Y-125906908D01*
X173046883Y-125900501D01*
X173046881Y-125900500D01*
X173046873Y-125900500D01*
X173046864Y-125900500D01*
X171453129Y-125900500D01*
X171453123Y-125900501D01*
X171393516Y-125906908D01*
X171258671Y-125957202D01*
X171258664Y-125957206D01*
X171143455Y-126043452D01*
X171143452Y-126043455D01*
X171057206Y-126158664D01*
X171057202Y-126158671D01*
X171006908Y-126293517D01*
X171000501Y-126353116D01*
X171000501Y-126353123D01*
X171000500Y-126353135D01*
X168717387Y-126353135D01*
X168710830Y-126343770D01*
X168635716Y-126268656D01*
X168556231Y-126189171D01*
X168556227Y-126189168D01*
X168556226Y-126189167D01*
X168377141Y-126063770D01*
X168377137Y-126063768D01*
X168377133Y-126063766D01*
X168178987Y-125971369D01*
X168178983Y-125971368D01*
X168178979Y-125971366D01*
X167967807Y-125914783D01*
X167967803Y-125914782D01*
X167967802Y-125914782D01*
X167967801Y-125914781D01*
X167967796Y-125914781D01*
X167750002Y-125895727D01*
X167749998Y-125895727D01*
X167532203Y-125914781D01*
X167532192Y-125914783D01*
X167321020Y-125971366D01*
X167321011Y-125971370D01*
X167122866Y-126063766D01*
X166943766Y-126189172D01*
X166789172Y-126343766D01*
X166663766Y-126522866D01*
X166571370Y-126721011D01*
X166571366Y-126721020D01*
X166514783Y-126932192D01*
X166514781Y-126932203D01*
X166495727Y-127149998D01*
X146300500Y-127149998D01*
X146300500Y-124199996D01*
X169194435Y-124199996D01*
X169194435Y-124200003D01*
X169214630Y-124379249D01*
X169214631Y-124379254D01*
X169274211Y-124549523D01*
X169370184Y-124702262D01*
X169497738Y-124829816D01*
X169588080Y-124886582D01*
X169616749Y-124904596D01*
X169650478Y-124925789D01*
X169711676Y-124947203D01*
X169820745Y-124985368D01*
X169820750Y-124985369D01*
X169999996Y-125005565D01*
X170000000Y-125005565D01*
X170000004Y-125005565D01*
X170179249Y-124985369D01*
X170179252Y-124985368D01*
X170179255Y-124985368D01*
X170349522Y-124925789D01*
X170502262Y-124829816D01*
X170629816Y-124702262D01*
X170725789Y-124549522D01*
X170785368Y-124379255D01*
X170795161Y-124292329D01*
X170822226Y-124227918D01*
X170830690Y-124218543D01*
X173818536Y-121230698D01*
X173879857Y-121197215D01*
X173892310Y-121195163D01*
X173979255Y-121185368D01*
X174149522Y-121125789D01*
X174302262Y-121029816D01*
X174429816Y-120902262D01*
X174525789Y-120749522D01*
X174585368Y-120579255D01*
X174585369Y-120579249D01*
X174605565Y-120400003D01*
X174605565Y-120399996D01*
X174585369Y-120220750D01*
X174585368Y-120220745D01*
X174533665Y-120072987D01*
X174525789Y-120050478D01*
X174518016Y-120038108D01*
X174463022Y-119950585D01*
X174429816Y-119897738D01*
X174302262Y-119770184D01*
X174231608Y-119725789D01*
X174149523Y-119674211D01*
X173979254Y-119614631D01*
X173979249Y-119614630D01*
X173800004Y-119594435D01*
X173799996Y-119594435D01*
X173620750Y-119614630D01*
X173620745Y-119614631D01*
X173450476Y-119674211D01*
X173297737Y-119770184D01*
X173170184Y-119897737D01*
X173074210Y-120050478D01*
X173014630Y-120220750D01*
X173004837Y-120307667D01*
X172977770Y-120372081D01*
X172969298Y-120381464D01*
X169981465Y-123369298D01*
X169920142Y-123402783D01*
X169907668Y-123404837D01*
X169820750Y-123414630D01*
X169650478Y-123474210D01*
X169497737Y-123570184D01*
X169370184Y-123697737D01*
X169274211Y-123850476D01*
X169214631Y-124020745D01*
X169214630Y-124020750D01*
X169194435Y-124199996D01*
X146300500Y-124199996D01*
X146300500Y-122399996D01*
X166994435Y-122399996D01*
X166994435Y-122400003D01*
X167014630Y-122579249D01*
X167014631Y-122579254D01*
X167074211Y-122749523D01*
X167133440Y-122843784D01*
X167170184Y-122902262D01*
X167297738Y-123029816D01*
X167450478Y-123125789D01*
X167603258Y-123179249D01*
X167620745Y-123185368D01*
X167620750Y-123185369D01*
X167799996Y-123205565D01*
X167800000Y-123205565D01*
X167800004Y-123205565D01*
X167979249Y-123185369D01*
X167979252Y-123185368D01*
X167979255Y-123185368D01*
X168149522Y-123125789D01*
X168302262Y-123029816D01*
X168429816Y-122902262D01*
X168525789Y-122749522D01*
X168585368Y-122579255D01*
X168595161Y-122492329D01*
X168622226Y-122427918D01*
X168630690Y-122418543D01*
X171218535Y-119830698D01*
X171279856Y-119797215D01*
X171292311Y-119795163D01*
X171379255Y-119785368D01*
X171549522Y-119725789D01*
X171702262Y-119629816D01*
X171829816Y-119502262D01*
X171925789Y-119349522D01*
X171985368Y-119179255D01*
X171985369Y-119179249D01*
X172005565Y-119000003D01*
X172005565Y-118999996D01*
X171985369Y-118820750D01*
X171985368Y-118820745D01*
X171960613Y-118749999D01*
X171925789Y-118650478D01*
X171829816Y-118497738D01*
X171702262Y-118370184D01*
X171633553Y-118327011D01*
X171549523Y-118274211D01*
X171379254Y-118214631D01*
X171379249Y-118214630D01*
X171200004Y-118194435D01*
X171199996Y-118194435D01*
X171020750Y-118214630D01*
X171020745Y-118214631D01*
X170850476Y-118274211D01*
X170697737Y-118370184D01*
X170570184Y-118497737D01*
X170474210Y-118650478D01*
X170414630Y-118820750D01*
X170404837Y-118907668D01*
X170377770Y-118972082D01*
X170369298Y-118981465D01*
X167781465Y-121569298D01*
X167720142Y-121602783D01*
X167707668Y-121604837D01*
X167620750Y-121614630D01*
X167450478Y-121674210D01*
X167297737Y-121770184D01*
X167170184Y-121897737D01*
X167074211Y-122050476D01*
X167014631Y-122220745D01*
X167014630Y-122220750D01*
X166994435Y-122399996D01*
X146300500Y-122399996D01*
X146300500Y-79079697D01*
X149652677Y-79079697D01*
X149652677Y-79079702D01*
X149671929Y-79299762D01*
X149671930Y-79299770D01*
X149729104Y-79513145D01*
X149729105Y-79513147D01*
X149729106Y-79513150D01*
X149817077Y-79701806D01*
X149822466Y-79713362D01*
X149822468Y-79713366D01*
X149949170Y-79894315D01*
X149949175Y-79894321D01*
X150105378Y-80050524D01*
X150105384Y-80050529D01*
X150286333Y-80177231D01*
X150286335Y-80177232D01*
X150286338Y-80177234D01*
X150405748Y-80232915D01*
X150415189Y-80237318D01*
X150467628Y-80283490D01*
X150486780Y-80350684D01*
X150466564Y-80417565D01*
X150415189Y-80462082D01*
X150286340Y-80522165D01*
X150286338Y-80522166D01*
X150105377Y-80648875D01*
X149949175Y-80805077D01*
X149822466Y-80986038D01*
X149822465Y-80986040D01*
X149729107Y-81186248D01*
X149729104Y-81186254D01*
X149671930Y-81399629D01*
X149671929Y-81399637D01*
X149652677Y-81619697D01*
X149652677Y-81619702D01*
X149671929Y-81839762D01*
X149671930Y-81839770D01*
X149729104Y-82053145D01*
X149729105Y-82053147D01*
X149729106Y-82053150D01*
X149783597Y-82170007D01*
X149822466Y-82253362D01*
X149822468Y-82253366D01*
X149949170Y-82434315D01*
X149949175Y-82434321D01*
X150105378Y-82590524D01*
X150105384Y-82590529D01*
X150145811Y-82618836D01*
X150266623Y-82703429D01*
X150310248Y-82758006D01*
X150319500Y-82805004D01*
X150319500Y-107233330D01*
X150319499Y-107233348D01*
X150319499Y-107399054D01*
X150319498Y-107399054D01*
X150319499Y-107399057D01*
X150360423Y-107551785D01*
X150367749Y-107564474D01*
X150367751Y-107564482D01*
X150367754Y-107564481D01*
X150388262Y-107600003D01*
X150439479Y-107688714D01*
X150439481Y-107688717D01*
X150558349Y-107807585D01*
X150558354Y-107807589D01*
X160031284Y-117280520D01*
X160031286Y-117280521D01*
X160031290Y-117280524D01*
X160120132Y-117331816D01*
X160168216Y-117359577D01*
X160320943Y-117400501D01*
X160320945Y-117400501D01*
X160486654Y-117400501D01*
X160486670Y-117400500D01*
X187761011Y-117400500D01*
X187828050Y-117420185D01*
X187873805Y-117472989D01*
X187883749Y-117542147D01*
X187854724Y-117605703D01*
X187800017Y-117642205D01*
X187730669Y-117665185D01*
X187730666Y-117665186D01*
X187730663Y-117665187D01*
X187581342Y-117757289D01*
X187457289Y-117881342D01*
X187365187Y-118030663D01*
X187365185Y-118030668D01*
X187350544Y-118074853D01*
X187310919Y-118194435D01*
X187310001Y-118197204D01*
X187310000Y-118197205D01*
X187300714Y-118288103D01*
X187274317Y-118352795D01*
X187217136Y-118392946D01*
X187177356Y-118399500D01*
X186549499Y-118399500D01*
X186482460Y-118379815D01*
X186436705Y-118327011D01*
X186425499Y-118275500D01*
X186425499Y-118102129D01*
X186425498Y-118102123D01*
X186419091Y-118042516D01*
X186368797Y-117907671D01*
X186368793Y-117907664D01*
X186282547Y-117792455D01*
X186282544Y-117792452D01*
X186167335Y-117706206D01*
X186167328Y-117706202D01*
X186032482Y-117655908D01*
X186032483Y-117655908D01*
X185972883Y-117649501D01*
X185972881Y-117649500D01*
X185972873Y-117649500D01*
X185972864Y-117649500D01*
X184177129Y-117649500D01*
X184177123Y-117649501D01*
X184117516Y-117655908D01*
X183982671Y-117706202D01*
X183982664Y-117706206D01*
X183867455Y-117792452D01*
X183867452Y-117792455D01*
X183781206Y-117907664D01*
X183781202Y-117907671D01*
X183731997Y-118039598D01*
X183690126Y-118095532D01*
X183624661Y-118119949D01*
X183556388Y-118105097D01*
X183528134Y-118083946D01*
X183406082Y-117961894D01*
X183212578Y-117826399D01*
X182998492Y-117726570D01*
X182998486Y-117726567D01*
X182785000Y-117669364D01*
X182785000Y-118566988D01*
X182727993Y-118534075D01*
X182600826Y-118500000D01*
X182469174Y-118500000D01*
X182342007Y-118534075D01*
X182285000Y-118566988D01*
X182285000Y-117669364D01*
X182284999Y-117669364D01*
X182071513Y-117726567D01*
X182071507Y-117726570D01*
X181857422Y-117826399D01*
X181857420Y-117826400D01*
X181663926Y-117961886D01*
X181663920Y-117961891D01*
X181496891Y-118128920D01*
X181496886Y-118128926D01*
X181361400Y-118322420D01*
X181361399Y-118322422D01*
X181261570Y-118536507D01*
X181261567Y-118536513D01*
X181204364Y-118749999D01*
X181204364Y-118750000D01*
X182101988Y-118750000D01*
X182069075Y-118807007D01*
X182035000Y-118934174D01*
X182035000Y-119065826D01*
X182069075Y-119192993D01*
X182101988Y-119250000D01*
X181204364Y-119250000D01*
X181261567Y-119463486D01*
X181261570Y-119463492D01*
X181361399Y-119677578D01*
X181496894Y-119871082D01*
X181663917Y-120038105D01*
X181857421Y-120173600D01*
X182071507Y-120273429D01*
X182071516Y-120273433D01*
X182285000Y-120330634D01*
X182285000Y-119433012D01*
X182342007Y-119465925D01*
X182469174Y-119500000D01*
X182600826Y-119500000D01*
X182727993Y-119465925D01*
X182785000Y-119433012D01*
X182785000Y-120330633D01*
X182998483Y-120273433D01*
X182998492Y-120273429D01*
X183212578Y-120173600D01*
X183406078Y-120038108D01*
X183528133Y-119916053D01*
X183589456Y-119882568D01*
X183659148Y-119887552D01*
X183715082Y-119929423D01*
X183731997Y-119960401D01*
X183781202Y-120092328D01*
X183781206Y-120092335D01*
X183867452Y-120207544D01*
X183867455Y-120207547D01*
X183982664Y-120293793D01*
X183982671Y-120293797D01*
X184117517Y-120344091D01*
X184117516Y-120344091D01*
X184124444Y-120344835D01*
X184177127Y-120350500D01*
X185972872Y-120350499D01*
X186032483Y-120344091D01*
X186167331Y-120293796D01*
X186282546Y-120207546D01*
X186368796Y-120092331D01*
X186419091Y-119957483D01*
X186425500Y-119897873D01*
X186425500Y-119724500D01*
X186445185Y-119657461D01*
X186497989Y-119611706D01*
X186549500Y-119600500D01*
X187315202Y-119600500D01*
X187382241Y-119620185D01*
X187420739Y-119659401D01*
X187457288Y-119718656D01*
X187581344Y-119842712D01*
X187730666Y-119934814D01*
X187897203Y-119989999D01*
X187999991Y-120000500D01*
X188800008Y-120000499D01*
X188800016Y-120000498D01*
X188800019Y-120000498D01*
X188856302Y-119994748D01*
X188902797Y-119989999D01*
X189069334Y-119934814D01*
X189218656Y-119842712D01*
X189312319Y-119749049D01*
X189373642Y-119715564D01*
X189443334Y-119720548D01*
X189487681Y-119749049D01*
X189581344Y-119842712D01*
X189730666Y-119934814D01*
X189897203Y-119989999D01*
X189999991Y-120000500D01*
X190358336Y-120000499D01*
X190425374Y-120020183D01*
X190471129Y-120072987D01*
X190481073Y-120142146D01*
X190452048Y-120205701D01*
X190446016Y-120212180D01*
X187324403Y-123333794D01*
X187263080Y-123367279D01*
X187193388Y-123362295D01*
X187149041Y-123333794D01*
X186995596Y-123180349D01*
X186995592Y-123180345D01*
X186828709Y-123063492D01*
X186805532Y-123047263D01*
X186662818Y-122980715D01*
X186595251Y-122949208D01*
X186595247Y-122949207D01*
X186595243Y-122949205D01*
X186371142Y-122889158D01*
X186371132Y-122889156D01*
X186140001Y-122868935D01*
X186139999Y-122868935D01*
X185908867Y-122889156D01*
X185908857Y-122889158D01*
X185684756Y-122949205D01*
X185684747Y-122949209D01*
X185474467Y-123047264D01*
X185474463Y-123047266D01*
X185284406Y-123180345D01*
X185120345Y-123344406D01*
X184987266Y-123534463D01*
X184987264Y-123534467D01*
X184982382Y-123544938D01*
X184936209Y-123597377D01*
X184869016Y-123616529D01*
X184802135Y-123596313D01*
X184757618Y-123544938D01*
X184752736Y-123534468D01*
X184752734Y-123534465D01*
X184752733Y-123534463D01*
X184619654Y-123344406D01*
X184455596Y-123180349D01*
X184455592Y-123180345D01*
X184288709Y-123063492D01*
X184265532Y-123047263D01*
X184122818Y-122980715D01*
X184055251Y-122949208D01*
X184055247Y-122949207D01*
X184055243Y-122949205D01*
X183831142Y-122889158D01*
X183831132Y-122889156D01*
X183600001Y-122868935D01*
X183599999Y-122868935D01*
X183368867Y-122889156D01*
X183368857Y-122889158D01*
X183144756Y-122949205D01*
X183144747Y-122949209D01*
X182934467Y-123047264D01*
X182934463Y-123047266D01*
X182744406Y-123180345D01*
X182580345Y-123344406D01*
X182447266Y-123534463D01*
X182447263Y-123534469D01*
X182442105Y-123545531D01*
X182395931Y-123597970D01*
X182328737Y-123617120D01*
X182261857Y-123596903D01*
X182217342Y-123545529D01*
X182212302Y-123534721D01*
X182157333Y-123456219D01*
X181601342Y-124012210D01*
X181592553Y-123979409D01*
X181517313Y-123849091D01*
X181410909Y-123742687D01*
X181280591Y-123667447D01*
X181247789Y-123658657D01*
X181803781Y-123102665D01*
X181803780Y-123102664D01*
X181725282Y-123047699D01*
X181725280Y-123047698D01*
X181515080Y-122949681D01*
X181515074Y-122949678D01*
X181291051Y-122889651D01*
X181291044Y-122889650D01*
X181060002Y-122869437D01*
X181059998Y-122869437D01*
X180828955Y-122889650D01*
X180828948Y-122889651D01*
X180604917Y-122949681D01*
X180394720Y-123047698D01*
X180394718Y-123047699D01*
X180316218Y-123102664D01*
X180316218Y-123102665D01*
X180872211Y-123658657D01*
X180839409Y-123667447D01*
X180709091Y-123742687D01*
X180602687Y-123849091D01*
X180527447Y-123979409D01*
X180518657Y-124012210D01*
X179962665Y-123456218D01*
X179962664Y-123456218D01*
X179907699Y-123534718D01*
X179907698Y-123534720D01*
X179809681Y-123744917D01*
X179749651Y-123968948D01*
X179749650Y-123968955D01*
X179729437Y-124199998D01*
X179729437Y-124200001D01*
X179749650Y-124431044D01*
X179749651Y-124431051D01*
X179809678Y-124655074D01*
X179809681Y-124655080D01*
X179907698Y-124865280D01*
X179907699Y-124865282D01*
X179962664Y-124943780D01*
X179962665Y-124943781D01*
X180518657Y-124387788D01*
X180527447Y-124420591D01*
X180602687Y-124550909D01*
X180709091Y-124657313D01*
X180839409Y-124732553D01*
X180872210Y-124741342D01*
X180316217Y-125297334D01*
X180316217Y-125297335D01*
X180394717Y-125352300D01*
X180394719Y-125352301D01*
X180604919Y-125450318D01*
X180604925Y-125450321D01*
X180828948Y-125510348D01*
X180828955Y-125510349D01*
X181059998Y-125530563D01*
X181060002Y-125530563D01*
X181291044Y-125510349D01*
X181291051Y-125510348D01*
X181515074Y-125450321D01*
X181515080Y-125450318D01*
X181725281Y-125352300D01*
X181803781Y-125297334D01*
X181247788Y-124741342D01*
X181280591Y-124732553D01*
X181410909Y-124657313D01*
X181517313Y-124550909D01*
X181592553Y-124420591D01*
X181601342Y-124387788D01*
X182157334Y-124943781D01*
X182212300Y-124865282D01*
X182217337Y-124854479D01*
X182263505Y-124802036D01*
X182330697Y-124782879D01*
X182397580Y-124803090D01*
X182442103Y-124854466D01*
X182447264Y-124865533D01*
X182580345Y-125055592D01*
X182744408Y-125219655D01*
X182934467Y-125352736D01*
X183144749Y-125450792D01*
X183144755Y-125450793D01*
X183144756Y-125450794D01*
X183175912Y-125459142D01*
X183368863Y-125510843D01*
X183543410Y-125526114D01*
X183599999Y-125531065D01*
X183600000Y-125531065D01*
X183600001Y-125531065D01*
X183616018Y-125529663D01*
X183831137Y-125510843D01*
X183943752Y-125480667D01*
X184013600Y-125482330D01*
X184063526Y-125512761D01*
X185715139Y-127164374D01*
X185715160Y-127164397D01*
X185738582Y-127187819D01*
X185772067Y-127249142D01*
X185767083Y-127318834D01*
X185725211Y-127374767D01*
X185659747Y-127399184D01*
X185650901Y-127399500D01*
X185127129Y-127399500D01*
X185127123Y-127399501D01*
X185067516Y-127405908D01*
X184932671Y-127456202D01*
X184932664Y-127456206D01*
X184817455Y-127542452D01*
X184817452Y-127542455D01*
X184731206Y-127657664D01*
X184731202Y-127657671D01*
X184680908Y-127792517D01*
X184674501Y-127852116D01*
X184674500Y-127852135D01*
X184674500Y-127875500D01*
X184654815Y-127942539D01*
X184602011Y-127988294D01*
X184550500Y-127999500D01*
X182645908Y-127999500D01*
X182578869Y-127979815D01*
X182540363Y-127935728D01*
X182538605Y-127936813D01*
X182527885Y-127919433D01*
X182442712Y-127781344D01*
X182318656Y-127657288D01*
X182213543Y-127592454D01*
X182169336Y-127565187D01*
X182169331Y-127565185D01*
X182167862Y-127564698D01*
X182002797Y-127510001D01*
X182002795Y-127510000D01*
X181900010Y-127499500D01*
X180899998Y-127499500D01*
X180899980Y-127499501D01*
X180797203Y-127510000D01*
X180797200Y-127510001D01*
X180630668Y-127565185D01*
X180630663Y-127565187D01*
X180481342Y-127657289D01*
X180357289Y-127781342D01*
X180265187Y-127930663D01*
X180265185Y-127930668D01*
X180246090Y-127988294D01*
X180210001Y-128097203D01*
X180210001Y-128097204D01*
X180210000Y-128097204D01*
X180199500Y-128199983D01*
X180199500Y-128199996D01*
X180199501Y-129000000D01*
X180199501Y-129000019D01*
X180210000Y-129102796D01*
X180210001Y-129102799D01*
X180265185Y-129269331D01*
X180265187Y-129269336D01*
X180267440Y-129272989D01*
X180339554Y-129389905D01*
X180357289Y-129418657D01*
X180450951Y-129512319D01*
X180484436Y-129573642D01*
X180479452Y-129643334D01*
X180450951Y-129687681D01*
X180357289Y-129781342D01*
X180265187Y-129930663D01*
X180265185Y-129930668D01*
X180256056Y-129958219D01*
X180210001Y-130097203D01*
X180210001Y-130097204D01*
X180210000Y-130097204D01*
X180199500Y-130199983D01*
X180199500Y-130499432D01*
X180179815Y-130566471D01*
X180127011Y-130612226D01*
X180057853Y-130622170D01*
X179994297Y-130593145D01*
X179987819Y-130587113D01*
X178836819Y-129436113D01*
X178803334Y-129374790D01*
X178800500Y-129348432D01*
X178800500Y-123489060D01*
X178800501Y-123489047D01*
X178800501Y-123320944D01*
X178795303Y-123301546D01*
X178759577Y-123168216D01*
X178735082Y-123125789D01*
X178680524Y-123031290D01*
X178680518Y-123031282D01*
X178436818Y-122787582D01*
X178403333Y-122726259D01*
X178400499Y-122699901D01*
X178400499Y-121999998D01*
X178400498Y-121999981D01*
X178389999Y-121897203D01*
X178389998Y-121897200D01*
X178385057Y-121882288D01*
X178334814Y-121730666D01*
X178242712Y-121581344D01*
X178118656Y-121457288D01*
X178013543Y-121392454D01*
X177969336Y-121365187D01*
X177969331Y-121365185D01*
X177952404Y-121359576D01*
X177802797Y-121310001D01*
X177802795Y-121310000D01*
X177700010Y-121299500D01*
X176699998Y-121299500D01*
X176699980Y-121299501D01*
X176597203Y-121310000D01*
X176597200Y-121310001D01*
X176430668Y-121365185D01*
X176430663Y-121365187D01*
X176281342Y-121457289D01*
X176157289Y-121581342D01*
X176065187Y-121730663D01*
X176065186Y-121730666D01*
X176010001Y-121897203D01*
X176010001Y-121897204D01*
X176010000Y-121897204D01*
X175999500Y-121999983D01*
X175999500Y-122800001D01*
X175999501Y-122800019D01*
X176010000Y-122902796D01*
X176010001Y-122902799D01*
X176058017Y-123047699D01*
X176065186Y-123069334D01*
X176149213Y-123205565D01*
X176157289Y-123218657D01*
X176250951Y-123312319D01*
X176284436Y-123373642D01*
X176279452Y-123443334D01*
X176250951Y-123487681D01*
X176157289Y-123581342D01*
X176065187Y-123730663D01*
X176065185Y-123730668D01*
X176052775Y-123768119D01*
X176010001Y-123897203D01*
X176010001Y-123897204D01*
X176010000Y-123897204D01*
X175999500Y-123999983D01*
X175999500Y-124800001D01*
X175999501Y-124800019D01*
X176010000Y-124902796D01*
X176010001Y-124902799D01*
X176044055Y-125005565D01*
X176065186Y-125069334D01*
X176157288Y-125218656D01*
X176281344Y-125342712D01*
X176430666Y-125434814D01*
X176597203Y-125489999D01*
X176699991Y-125500500D01*
X177475500Y-125500499D01*
X177542539Y-125520183D01*
X177588294Y-125572987D01*
X177599500Y-125624499D01*
X177599500Y-128850903D01*
X177579815Y-128917942D01*
X177527011Y-128963697D01*
X177457853Y-128973641D01*
X177394297Y-128944616D01*
X177387819Y-128938584D01*
X175036819Y-126587584D01*
X175003334Y-126526261D01*
X175000500Y-126499903D01*
X175000500Y-123582412D01*
X175020185Y-123515373D01*
X175027555Y-123505097D01*
X175029810Y-123502267D01*
X175029816Y-123502262D01*
X175125789Y-123349522D01*
X175185368Y-123179255D01*
X175186613Y-123168209D01*
X175205565Y-123000003D01*
X175205565Y-122999996D01*
X175185369Y-122820750D01*
X175185368Y-122820745D01*
X175171417Y-122780875D01*
X175125789Y-122650478D01*
X175029816Y-122497738D01*
X174902262Y-122370184D01*
X174892610Y-122364119D01*
X174749523Y-122274211D01*
X174579254Y-122214631D01*
X174579249Y-122214630D01*
X174400004Y-122194435D01*
X174399996Y-122194435D01*
X174220750Y-122214630D01*
X174220745Y-122214631D01*
X174050476Y-122274211D01*
X173897737Y-122370184D01*
X173770184Y-122497737D01*
X173674211Y-122650476D01*
X173614631Y-122820745D01*
X173614630Y-122820750D01*
X173594435Y-122999996D01*
X173594435Y-123000003D01*
X173614630Y-123179249D01*
X173614631Y-123179254D01*
X173674211Y-123349523D01*
X173715121Y-123414630D01*
X173767432Y-123497883D01*
X173770185Y-123502263D01*
X173772445Y-123505097D01*
X173773334Y-123507275D01*
X173773889Y-123508158D01*
X173773734Y-123508255D01*
X173798855Y-123569783D01*
X173799500Y-123582412D01*
X173799500Y-126713330D01*
X173799499Y-126713348D01*
X173799499Y-126879054D01*
X173799498Y-126879054D01*
X173840423Y-127031785D01*
X173869358Y-127081900D01*
X173869359Y-127081904D01*
X173869360Y-127081904D01*
X173917333Y-127164998D01*
X173919479Y-127168714D01*
X173919481Y-127168717D01*
X174038349Y-127287585D01*
X174038355Y-127287590D01*
X181805139Y-135054374D01*
X181805149Y-135054385D01*
X181809479Y-135058715D01*
X181809480Y-135058716D01*
X181921284Y-135170520D01*
X182008095Y-135220639D01*
X182008097Y-135220641D01*
X182046151Y-135242611D01*
X182058215Y-135249577D01*
X182210943Y-135290501D01*
X182210946Y-135290501D01*
X182376653Y-135290501D01*
X182376669Y-135290500D01*
X207437546Y-135290500D01*
X207437562Y-135290501D01*
X207445158Y-135290501D01*
X207603269Y-135290501D01*
X207603272Y-135290501D01*
X207756000Y-135249577D01*
X207806119Y-135220639D01*
X207892931Y-135170520D01*
X208004735Y-135058716D01*
X208004735Y-135058714D01*
X208014943Y-135048507D01*
X208014945Y-135048504D01*
X210098713Y-132964736D01*
X210098716Y-132964735D01*
X210210520Y-132852931D01*
X210260639Y-132766119D01*
X210289577Y-132716000D01*
X210330500Y-132563272D01*
X210330500Y-132405158D01*
X210330500Y-120070093D01*
X210350185Y-120003054D01*
X210402989Y-119957299D01*
X210467754Y-119946804D01*
X210502127Y-119950500D01*
X211497872Y-119950499D01*
X211557483Y-119944091D01*
X211692331Y-119893796D01*
X211807546Y-119807546D01*
X211893796Y-119692331D01*
X211944091Y-119557483D01*
X211950500Y-119497873D01*
X211950499Y-117902128D01*
X211944091Y-117842517D01*
X211938079Y-117826399D01*
X211893797Y-117707671D01*
X211893793Y-117707664D01*
X211807547Y-117592455D01*
X211807544Y-117592452D01*
X211692335Y-117506206D01*
X211692328Y-117506202D01*
X211557482Y-117455908D01*
X211557483Y-117455908D01*
X211497883Y-117449501D01*
X211497881Y-117449500D01*
X211497873Y-117449500D01*
X211497864Y-117449500D01*
X210502129Y-117449500D01*
X210502123Y-117449501D01*
X210442518Y-117455908D01*
X210408331Y-117468659D01*
X210338639Y-117473642D01*
X210321669Y-117468659D01*
X210287480Y-117455908D01*
X210287482Y-117455908D01*
X210227883Y-117449501D01*
X210227881Y-117449500D01*
X210227873Y-117449500D01*
X210227864Y-117449500D01*
X209232129Y-117449500D01*
X209232123Y-117449501D01*
X209172518Y-117455908D01*
X209138331Y-117468659D01*
X209068639Y-117473642D01*
X209051669Y-117468659D01*
X209017480Y-117455908D01*
X209017482Y-117455908D01*
X208957883Y-117449501D01*
X208957881Y-117449500D01*
X208957873Y-117449500D01*
X208957864Y-117449500D01*
X207962129Y-117449500D01*
X207962123Y-117449501D01*
X207902518Y-117455908D01*
X207868331Y-117468659D01*
X207798639Y-117473642D01*
X207781669Y-117468659D01*
X207747480Y-117455908D01*
X207747482Y-117455908D01*
X207687883Y-117449501D01*
X207687881Y-117449500D01*
X207687873Y-117449500D01*
X207687864Y-117449500D01*
X206692129Y-117449500D01*
X206692123Y-117449501D01*
X206632518Y-117455908D01*
X206598331Y-117468659D01*
X206528639Y-117473642D01*
X206511669Y-117468659D01*
X206477480Y-117455908D01*
X206477482Y-117455908D01*
X206417883Y-117449501D01*
X206417881Y-117449500D01*
X206417873Y-117449500D01*
X206417864Y-117449500D01*
X205422129Y-117449500D01*
X205422123Y-117449501D01*
X205362518Y-117455908D01*
X205328331Y-117468659D01*
X205258639Y-117473642D01*
X205241669Y-117468659D01*
X205207480Y-117455908D01*
X205207482Y-117455908D01*
X205147883Y-117449501D01*
X205147881Y-117449500D01*
X205147873Y-117449500D01*
X205147864Y-117449500D01*
X204152129Y-117449500D01*
X204152123Y-117449501D01*
X204092518Y-117455908D01*
X204058331Y-117468659D01*
X203988639Y-117473642D01*
X203971669Y-117468659D01*
X203937480Y-117455908D01*
X203937482Y-117455908D01*
X203877883Y-117449501D01*
X203877881Y-117449500D01*
X203877873Y-117449500D01*
X203877864Y-117449500D01*
X202882129Y-117449500D01*
X202882118Y-117449501D01*
X202825687Y-117455567D01*
X202756928Y-117443159D01*
X202705792Y-117395547D01*
X202692663Y-117364375D01*
X202669577Y-117278216D01*
X202624421Y-117200003D01*
X202590524Y-117141290D01*
X202590518Y-117141282D01*
X202478717Y-117029481D01*
X202478709Y-117029475D01*
X202341790Y-116950426D01*
X202341786Y-116950424D01*
X202341784Y-116950423D01*
X202189057Y-116909500D01*
X202189056Y-116909500D01*
X201639096Y-116909500D01*
X201572057Y-116889815D01*
X201526302Y-116837011D01*
X201516358Y-116767853D01*
X201545383Y-116704297D01*
X201551415Y-116697819D01*
X203356370Y-114892864D01*
X206288713Y-111960521D01*
X206288716Y-111960520D01*
X206400520Y-111848716D01*
X206450639Y-111761904D01*
X206479577Y-111711785D01*
X206520500Y-111559057D01*
X206520500Y-111400943D01*
X206520500Y-102570093D01*
X206540185Y-102503054D01*
X206592989Y-102457299D01*
X206657754Y-102446804D01*
X206692127Y-102450500D01*
X207687872Y-102450499D01*
X207747483Y-102444091D01*
X207781667Y-102431340D01*
X207851358Y-102426357D01*
X207868327Y-102431338D01*
X207902517Y-102444091D01*
X207962127Y-102450500D01*
X208957872Y-102450499D01*
X209017483Y-102444091D01*
X209052381Y-102431074D01*
X209122069Y-102426089D01*
X209139050Y-102431075D01*
X209172623Y-102443598D01*
X209232155Y-102449999D01*
X209232172Y-102450000D01*
X209480000Y-102450000D01*
X209480000Y-99950000D01*
X209980000Y-99950000D01*
X209980000Y-102450000D01*
X210227828Y-102450000D01*
X210227844Y-102449999D01*
X210287372Y-102443598D01*
X210287375Y-102443597D01*
X210320949Y-102431075D01*
X210390640Y-102426089D01*
X210407619Y-102431075D01*
X210442511Y-102444089D01*
X210442512Y-102444089D01*
X210442517Y-102444091D01*
X210502127Y-102450500D01*
X211497872Y-102450499D01*
X211557483Y-102444091D01*
X211692331Y-102393796D01*
X211807546Y-102307546D01*
X211893796Y-102192331D01*
X211944091Y-102057483D01*
X211950500Y-101997873D01*
X211950499Y-100402128D01*
X211944091Y-100342517D01*
X211893796Y-100207669D01*
X211893795Y-100207668D01*
X211893793Y-100207664D01*
X211807547Y-100092455D01*
X211807544Y-100092452D01*
X211692335Y-100006206D01*
X211692328Y-100006202D01*
X211557482Y-99955908D01*
X211557483Y-99955908D01*
X211497883Y-99949501D01*
X211497881Y-99949500D01*
X211497873Y-99949500D01*
X211497864Y-99949500D01*
X210502129Y-99949500D01*
X210502123Y-99949501D01*
X210442520Y-99955908D01*
X210442517Y-99955908D01*
X210442517Y-99955909D01*
X210407620Y-99968925D01*
X210407617Y-99968926D01*
X210337925Y-99973909D01*
X210320952Y-99968925D01*
X210287379Y-99956403D01*
X210287372Y-99956401D01*
X210227844Y-99950000D01*
X209980000Y-99950000D01*
X209480000Y-99950000D01*
X209232155Y-99950000D01*
X209164913Y-99957231D01*
X209164606Y-99954383D01*
X209108319Y-99951346D01*
X209051662Y-99910459D01*
X209029840Y-99866519D01*
X209019577Y-99828216D01*
X209019574Y-99828211D01*
X209019574Y-99828209D01*
X208940524Y-99691290D01*
X208940521Y-99691286D01*
X208940520Y-99691284D01*
X208828716Y-99579480D01*
X208828715Y-99579479D01*
X208824385Y-99575149D01*
X208824374Y-99575139D01*
X207331219Y-98081984D01*
X207297734Y-98020661D01*
X207302718Y-97950969D01*
X207344590Y-97895036D01*
X207410054Y-97870619D01*
X207457904Y-97876597D01*
X207572302Y-97914505D01*
X207572309Y-97914506D01*
X207675019Y-97924999D01*
X207949999Y-97924999D01*
X208450000Y-97924999D01*
X208724972Y-97924999D01*
X208724986Y-97924998D01*
X208827697Y-97914505D01*
X208994119Y-97859358D01*
X208994124Y-97859356D01*
X209143345Y-97767315D01*
X209267315Y-97643345D01*
X209359356Y-97494124D01*
X209359360Y-97494115D01*
X209382293Y-97424906D01*
X209422064Y-97367460D01*
X209486580Y-97340636D01*
X209555356Y-97352950D01*
X209606556Y-97400492D01*
X209617705Y-97424903D01*
X209640642Y-97494121D01*
X209640643Y-97494124D01*
X209732684Y-97643345D01*
X209856654Y-97767315D01*
X210005875Y-97859356D01*
X210005880Y-97859358D01*
X210172302Y-97914505D01*
X210172309Y-97914506D01*
X210275019Y-97924999D01*
X210549999Y-97924999D01*
X211050000Y-97924999D01*
X211324972Y-97924999D01*
X211324986Y-97924998D01*
X211427697Y-97914505D01*
X211594119Y-97859358D01*
X211594124Y-97859356D01*
X211743345Y-97767315D01*
X211867315Y-97643345D01*
X211959356Y-97494124D01*
X211959358Y-97494119D01*
X212014505Y-97327697D01*
X212014506Y-97327690D01*
X212024999Y-97224986D01*
X212025000Y-97224973D01*
X212025000Y-97087500D01*
X211050000Y-97087500D01*
X211050000Y-97924999D01*
X210549999Y-97924999D01*
X210550000Y-97924998D01*
X210550000Y-97087500D01*
X209564459Y-97087500D01*
X209526356Y-97108305D01*
X209456664Y-97103319D01*
X209432050Y-97087500D01*
X208450000Y-97087500D01*
X208450000Y-97924999D01*
X207949999Y-97924999D01*
X207950000Y-97924998D01*
X207950000Y-97087500D01*
X206975001Y-97087500D01*
X206975001Y-97224986D01*
X206985494Y-97327697D01*
X207023402Y-97442095D01*
X207025804Y-97511923D01*
X206990072Y-97571965D01*
X206927552Y-97603158D01*
X206858092Y-97595597D01*
X206818015Y-97568780D01*
X206186819Y-96937584D01*
X206153334Y-96876261D01*
X206150500Y-96849903D01*
X206150500Y-94374983D01*
X206974500Y-94374983D01*
X206974500Y-95150001D01*
X206974501Y-95150019D01*
X206985000Y-95252796D01*
X206985001Y-95252799D01*
X207009820Y-95327697D01*
X207040186Y-95419334D01*
X207132288Y-95568656D01*
X207256344Y-95692712D01*
X207259628Y-95694737D01*
X207259653Y-95694753D01*
X207261445Y-95696746D01*
X207262011Y-95697193D01*
X207261934Y-95697289D01*
X207306379Y-95746699D01*
X207317603Y-95815661D01*
X207289761Y-95879744D01*
X207259665Y-95905826D01*
X207256660Y-95907679D01*
X207256655Y-95907683D01*
X207132684Y-96031654D01*
X207040643Y-96180875D01*
X207040641Y-96180880D01*
X206985494Y-96347302D01*
X206985493Y-96347309D01*
X206975000Y-96450013D01*
X206975000Y-96587500D01*
X209435540Y-96587500D01*
X209473638Y-96566695D01*
X209543330Y-96571678D01*
X209567950Y-96587500D01*
X212024999Y-96587500D01*
X212024999Y-96450028D01*
X212024998Y-96450013D01*
X212014505Y-96347302D01*
X211959358Y-96180880D01*
X211959356Y-96180875D01*
X211867315Y-96031654D01*
X211743344Y-95907683D01*
X211743341Y-95907681D01*
X211740339Y-95905829D01*
X211738713Y-95904021D01*
X211737677Y-95903202D01*
X211737817Y-95903024D01*
X211693617Y-95853880D01*
X211682397Y-95784917D01*
X211710243Y-95720836D01*
X211740344Y-95694754D01*
X211743656Y-95692712D01*
X211867712Y-95568656D01*
X211959814Y-95419334D01*
X212014999Y-95252797D01*
X212025500Y-95150009D01*
X212025499Y-94374992D01*
X212024292Y-94363181D01*
X212014999Y-94272203D01*
X212014998Y-94272200D01*
X211982294Y-94173507D01*
X211959814Y-94105666D01*
X211867712Y-93956344D01*
X211743656Y-93832288D01*
X211625772Y-93759577D01*
X211594336Y-93740187D01*
X211594331Y-93740185D01*
X211592862Y-93739698D01*
X211427797Y-93685001D01*
X211427795Y-93685000D01*
X211325010Y-93674500D01*
X210274998Y-93674500D01*
X210274980Y-93674501D01*
X210172203Y-93685000D01*
X210172200Y-93685001D01*
X210005668Y-93740185D01*
X210005663Y-93740187D01*
X209856342Y-93832289D01*
X209732289Y-93956342D01*
X209640187Y-94105663D01*
X209640186Y-94105666D01*
X209618490Y-94171142D01*
X209617706Y-94173507D01*
X209577933Y-94230951D01*
X209513417Y-94257774D01*
X209444641Y-94245459D01*
X209393441Y-94197915D01*
X209382294Y-94173507D01*
X209359814Y-94105666D01*
X209267712Y-93956344D01*
X209143656Y-93832288D01*
X209025772Y-93759577D01*
X208994336Y-93740187D01*
X208994331Y-93740185D01*
X208992862Y-93739698D01*
X208827797Y-93685001D01*
X208827795Y-93685000D01*
X208725010Y-93674500D01*
X207674998Y-93674500D01*
X207674980Y-93674501D01*
X207572203Y-93685000D01*
X207572200Y-93685001D01*
X207405668Y-93740185D01*
X207405663Y-93740187D01*
X207256342Y-93832289D01*
X207132289Y-93956342D01*
X207040187Y-94105663D01*
X207040186Y-94105666D01*
X206985001Y-94272203D01*
X206985001Y-94272204D01*
X206985000Y-94272204D01*
X206974500Y-94374983D01*
X206150500Y-94374983D01*
X206150500Y-94032940D01*
X206170185Y-93965901D01*
X206186819Y-93945259D01*
X206195369Y-93936709D01*
X206229816Y-93902262D01*
X206325789Y-93749522D01*
X206385368Y-93579255D01*
X206385369Y-93579249D01*
X206405565Y-93400003D01*
X206405565Y-93399996D01*
X206385369Y-93220750D01*
X206385368Y-93220745D01*
X206371207Y-93180275D01*
X206325789Y-93050478D01*
X206325781Y-93050466D01*
X206263635Y-92951561D01*
X206229816Y-92897738D01*
X206181295Y-92849217D01*
X206147810Y-92787894D01*
X206152793Y-92718207D01*
X206194091Y-92607483D01*
X206200500Y-92547873D01*
X206200500Y-92124500D01*
X206220185Y-92057461D01*
X206272989Y-92011706D01*
X206324500Y-92000500D01*
X207275501Y-92000500D01*
X207342540Y-92020185D01*
X207388295Y-92072989D01*
X207399501Y-92124500D01*
X207399501Y-92627876D01*
X207405908Y-92687483D01*
X207456202Y-92822328D01*
X207456206Y-92822335D01*
X207542452Y-92937544D01*
X207542455Y-92937547D01*
X207657664Y-93023793D01*
X207657671Y-93023797D01*
X207792517Y-93074091D01*
X207792516Y-93074091D01*
X207799444Y-93074835D01*
X207852127Y-93080500D01*
X210147872Y-93080499D01*
X210207483Y-93074091D01*
X210342331Y-93023796D01*
X210457546Y-92937546D01*
X210543796Y-92822331D01*
X210594091Y-92687483D01*
X210600500Y-92627873D01*
X210600499Y-90332128D01*
X210594091Y-90272517D01*
X210586486Y-90252128D01*
X210543797Y-90137671D01*
X210543793Y-90137664D01*
X210457547Y-90022455D01*
X210457544Y-90022452D01*
X210342335Y-89936206D01*
X210342328Y-89936202D01*
X210207482Y-89885908D01*
X210207483Y-89885908D01*
X210147883Y-89879501D01*
X210147881Y-89879500D01*
X210147873Y-89879500D01*
X210147864Y-89879500D01*
X207852129Y-89879500D01*
X207852123Y-89879501D01*
X207792516Y-89885908D01*
X207657671Y-89936202D01*
X207657664Y-89936206D01*
X207542455Y-90022452D01*
X207542452Y-90022455D01*
X207456206Y-90137664D01*
X207456202Y-90137671D01*
X207405908Y-90272517D01*
X207404642Y-90284298D01*
X207399501Y-90332123D01*
X207399500Y-90332135D01*
X207399500Y-90675500D01*
X207379815Y-90742539D01*
X207327011Y-90788294D01*
X207275500Y-90799500D01*
X206324499Y-90799500D01*
X206257460Y-90779815D01*
X206211705Y-90727011D01*
X206200499Y-90675500D01*
X206200499Y-90252129D01*
X206200498Y-90252123D01*
X206200497Y-90252116D01*
X206194091Y-90192517D01*
X206193151Y-90189998D01*
X206143797Y-90057671D01*
X206143793Y-90057664D01*
X206057547Y-89942455D01*
X206057544Y-89942452D01*
X205942335Y-89856206D01*
X205942328Y-89856202D01*
X205807482Y-89805908D01*
X205807483Y-89805908D01*
X205747883Y-89799501D01*
X205747881Y-89799500D01*
X205747873Y-89799500D01*
X205747864Y-89799500D01*
X203452129Y-89799500D01*
X203452123Y-89799501D01*
X203392516Y-89805908D01*
X203257671Y-89856202D01*
X203257664Y-89856206D01*
X203142455Y-89942452D01*
X203142452Y-89942455D01*
X203056206Y-90057664D01*
X203056202Y-90057671D01*
X203005908Y-90192517D01*
X203003754Y-90212557D01*
X202999501Y-90252123D01*
X202999500Y-90252135D01*
X202999501Y-91438000D01*
X202979816Y-91505039D01*
X202927013Y-91550794D01*
X202875501Y-91562000D01*
X202667875Y-91562000D01*
X202600836Y-91542315D01*
X202555081Y-91489511D01*
X202550169Y-91477005D01*
X202549836Y-91476000D01*
X202534814Y-91430666D01*
X202442712Y-91281344D01*
X202318656Y-91157288D01*
X202169334Y-91065186D01*
X202002797Y-91010001D01*
X202002795Y-91010000D01*
X201900016Y-90999500D01*
X201900009Y-90999500D01*
X200937597Y-90999500D01*
X200870558Y-90979815D01*
X200849916Y-90963181D01*
X200286240Y-90399505D01*
X200252755Y-90338182D01*
X200257739Y-90268490D01*
X200299611Y-90212557D01*
X200365075Y-90188140D01*
X200390407Y-90189910D01*
X200390469Y-90189311D01*
X200397202Y-90189998D01*
X200397203Y-90189999D01*
X200499991Y-90200500D01*
X201900008Y-90200499D01*
X202002797Y-90189999D01*
X202169334Y-90134814D01*
X202318656Y-90042712D01*
X202442712Y-89918656D01*
X202534814Y-89769334D01*
X202589999Y-89602797D01*
X202600500Y-89500009D01*
X202600499Y-88574992D01*
X202589999Y-88472203D01*
X202534814Y-88305666D01*
X202442712Y-88156344D01*
X202318656Y-88032288D01*
X202225888Y-87975069D01*
X202169336Y-87940187D01*
X202169331Y-87940185D01*
X202167862Y-87939698D01*
X202002797Y-87885001D01*
X202002795Y-87885000D01*
X201900010Y-87874500D01*
X200499998Y-87874500D01*
X200499981Y-87874501D01*
X200397203Y-87885000D01*
X200397200Y-87885001D01*
X200230668Y-87940185D01*
X200230663Y-87940187D01*
X200081342Y-88032289D01*
X199957289Y-88156342D01*
X199865187Y-88305663D01*
X199865186Y-88305666D01*
X199810001Y-88472203D01*
X199810001Y-88472204D01*
X199810000Y-88472204D01*
X199799500Y-88574983D01*
X199799500Y-89500001D01*
X199799501Y-89500019D01*
X199810000Y-89602796D01*
X199823603Y-89643844D01*
X199826005Y-89713673D01*
X199790274Y-89773715D01*
X199727753Y-89804908D01*
X199658294Y-89797348D01*
X199642777Y-89789582D01*
X199590316Y-89758557D01*
X199572898Y-89748256D01*
X199572896Y-89748255D01*
X199572894Y-89748254D01*
X199415073Y-89702402D01*
X199415067Y-89702401D01*
X199378201Y-89699500D01*
X199378194Y-89699500D01*
X198221806Y-89699500D01*
X198221798Y-89699500D01*
X198184932Y-89702401D01*
X198184927Y-89702402D01*
X198183315Y-89702871D01*
X198182378Y-89702868D01*
X198178701Y-89703540D01*
X198178576Y-89702856D01*
X198113445Y-89702663D01*
X198054780Y-89664714D01*
X198041347Y-89645791D01*
X198040223Y-89643844D01*
X197989785Y-89556483D01*
X197968020Y-89518784D01*
X197856216Y-89406980D01*
X197856215Y-89406979D01*
X197851885Y-89402649D01*
X197851874Y-89402639D01*
X196087590Y-87638355D01*
X196087588Y-87638352D01*
X195968717Y-87519481D01*
X195968716Y-87519480D01*
X195881904Y-87469360D01*
X195881904Y-87469359D01*
X195881900Y-87469358D01*
X195831785Y-87440423D01*
X195679057Y-87399499D01*
X195520943Y-87399499D01*
X195513347Y-87399499D01*
X195513331Y-87399500D01*
X192445908Y-87399500D01*
X192378869Y-87379815D01*
X192340363Y-87335728D01*
X192338605Y-87336813D01*
X192334812Y-87330663D01*
X192242712Y-87181344D01*
X192149049Y-87087681D01*
X192115564Y-87026358D01*
X192120548Y-86956666D01*
X192149049Y-86912319D01*
X192158572Y-86902796D01*
X192242712Y-86818656D01*
X192334814Y-86669334D01*
X192389999Y-86502797D01*
X192400500Y-86400009D01*
X192400499Y-85599992D01*
X192389999Y-85497203D01*
X192334814Y-85330666D01*
X192242712Y-85181344D01*
X192118656Y-85057288D01*
X191969334Y-84965186D01*
X191802797Y-84910001D01*
X191802795Y-84910000D01*
X191700016Y-84899500D01*
X191700009Y-84899500D01*
X191550097Y-84899500D01*
X191483058Y-84879815D01*
X191462416Y-84863181D01*
X191450223Y-84850988D01*
X191416738Y-84789665D01*
X191421722Y-84719973D01*
X191432905Y-84697344D01*
X191457681Y-84657913D01*
X191510016Y-84611623D01*
X191571791Y-84601126D01*
X191571832Y-84600339D01*
X191574968Y-84600497D01*
X191574991Y-84600500D01*
X192500008Y-84600499D01*
X192500016Y-84600498D01*
X192500019Y-84600498D01*
X192576346Y-84592701D01*
X192602797Y-84589999D01*
X192769334Y-84534814D01*
X192918656Y-84442712D01*
X193042712Y-84318656D01*
X193134814Y-84169334D01*
X193189999Y-84002797D01*
X193200500Y-83900009D01*
X193200499Y-82499992D01*
X193189999Y-82397203D01*
X193134814Y-82230666D01*
X193042712Y-82081344D01*
X192918656Y-81957288D01*
X192825888Y-81900069D01*
X192769336Y-81865187D01*
X192769331Y-81865185D01*
X192736687Y-81854368D01*
X192602797Y-81810001D01*
X192602795Y-81810000D01*
X192500010Y-81799500D01*
X191574998Y-81799500D01*
X191574980Y-81799501D01*
X191472203Y-81810000D01*
X191472200Y-81810001D01*
X191305668Y-81865185D01*
X191305663Y-81865187D01*
X191156342Y-81957289D01*
X191032289Y-82081342D01*
X190940187Y-82230663D01*
X190940185Y-82230668D01*
X190929827Y-82261926D01*
X190885001Y-82397203D01*
X190885001Y-82397204D01*
X190885000Y-82397204D01*
X190874500Y-82499983D01*
X190874500Y-83275227D01*
X190854815Y-83342266D01*
X190802011Y-83388021D01*
X190764384Y-83398447D01*
X190620749Y-83414630D01*
X190620745Y-83414631D01*
X190450476Y-83474211D01*
X190297737Y-83570184D01*
X190170184Y-83697737D01*
X190074211Y-83850476D01*
X190014631Y-84020745D01*
X190014630Y-84020750D01*
X189994435Y-84199996D01*
X189994435Y-84200003D01*
X190014630Y-84379249D01*
X190014631Y-84379254D01*
X190074211Y-84549523D01*
X190134515Y-84645496D01*
X190157040Y-84681344D01*
X190170185Y-84702263D01*
X190172445Y-84705097D01*
X190173334Y-84707275D01*
X190173889Y-84708158D01*
X190173734Y-84708255D01*
X190198855Y-84769783D01*
X190199500Y-84782412D01*
X190199500Y-84963330D01*
X190199499Y-84963348D01*
X190199499Y-85087770D01*
X190179814Y-85154809D01*
X190163184Y-85175447D01*
X190157291Y-85181339D01*
X190065187Y-85330663D01*
X190065186Y-85330666D01*
X190010001Y-85497203D01*
X190010001Y-85497204D01*
X190010000Y-85497204D01*
X189999500Y-85599983D01*
X189999500Y-86400001D01*
X189999501Y-86400019D01*
X190010000Y-86502796D01*
X190010001Y-86502799D01*
X190042204Y-86599980D01*
X190065186Y-86669334D01*
X190126867Y-86769336D01*
X190157289Y-86818657D01*
X190250951Y-86912319D01*
X190284436Y-86973642D01*
X190279452Y-87043334D01*
X190250951Y-87087681D01*
X190157289Y-87181342D01*
X190065187Y-87330663D01*
X190065185Y-87330668D01*
X190042377Y-87399499D01*
X190010001Y-87497203D01*
X190010001Y-87497204D01*
X190010000Y-87497204D01*
X189999500Y-87599983D01*
X189999500Y-88400001D01*
X189999501Y-88400019D01*
X190010000Y-88502796D01*
X190010001Y-88502799D01*
X190065185Y-88669331D01*
X190065187Y-88669336D01*
X190084101Y-88700000D01*
X190157288Y-88818656D01*
X190281344Y-88942712D01*
X190430666Y-89034814D01*
X190597203Y-89089999D01*
X190699991Y-89100500D01*
X191700008Y-89100499D01*
X191700016Y-89100498D01*
X191700019Y-89100498D01*
X191756302Y-89094748D01*
X191802797Y-89089999D01*
X191969334Y-89034814D01*
X192118656Y-88942712D01*
X192187822Y-88873545D01*
X192249141Y-88840063D01*
X192318833Y-88845047D01*
X192374767Y-88886918D01*
X192399184Y-88952382D01*
X192399500Y-88961229D01*
X192399500Y-89500001D01*
X192399501Y-89500019D01*
X192410000Y-89602796D01*
X192410001Y-89602799D01*
X192465185Y-89769331D01*
X192465187Y-89769336D01*
X192488137Y-89806544D01*
X192557288Y-89918656D01*
X192681344Y-90042712D01*
X192830666Y-90134814D01*
X192997203Y-90189999D01*
X193099991Y-90200500D01*
X194500008Y-90200499D01*
X194602797Y-90189999D01*
X194769334Y-90134814D01*
X194918656Y-90042712D01*
X195042712Y-89918656D01*
X195134814Y-89769334D01*
X195189999Y-89602797D01*
X195200500Y-89500009D01*
X195200499Y-88749095D01*
X195220183Y-88682057D01*
X195272987Y-88636302D01*
X195342146Y-88626358D01*
X195405702Y-88655383D01*
X195412180Y-88661415D01*
X196238584Y-89487819D01*
X196272069Y-89549142D01*
X196267085Y-89618834D01*
X196225213Y-89674767D01*
X196159749Y-89699184D01*
X196150903Y-89699500D01*
X195946798Y-89699500D01*
X195909932Y-89702401D01*
X195909926Y-89702402D01*
X195752106Y-89748254D01*
X195752103Y-89748255D01*
X195610637Y-89831917D01*
X195610629Y-89831923D01*
X195494423Y-89948129D01*
X195494417Y-89948137D01*
X195410755Y-90089603D01*
X195410754Y-90089606D01*
X195364902Y-90247426D01*
X195364901Y-90247432D01*
X195362000Y-90284298D01*
X195362000Y-90715701D01*
X195364901Y-90752567D01*
X195364902Y-90752573D01*
X195410754Y-90910393D01*
X195410755Y-90910396D01*
X195494417Y-91051862D01*
X195494423Y-91051870D01*
X195610629Y-91168076D01*
X195610633Y-91168079D01*
X195610635Y-91168081D01*
X195752102Y-91251744D01*
X195793724Y-91263836D01*
X195909926Y-91297597D01*
X195909929Y-91297597D01*
X195909931Y-91297598D01*
X195946806Y-91300500D01*
X196763000Y-91300500D01*
X196830039Y-91320185D01*
X196875794Y-91372989D01*
X196887000Y-91424500D01*
X196887000Y-91476000D01*
X196867315Y-91543039D01*
X196814511Y-91588794D01*
X196778336Y-91596663D01*
X196775000Y-91600000D01*
X196775000Y-93200000D01*
X197103134Y-93200000D01*
X197103149Y-93199999D01*
X197139989Y-93197100D01*
X197139995Y-93197099D01*
X197305190Y-93149106D01*
X197306117Y-93152299D01*
X197360382Y-93145592D01*
X197423350Y-93175870D01*
X197427988Y-93180275D01*
X197812087Y-93564374D01*
X197812097Y-93564385D01*
X197816427Y-93568715D01*
X197816428Y-93568716D01*
X197928232Y-93680520D01*
X197928234Y-93680521D01*
X197928238Y-93680524D01*
X198061199Y-93757288D01*
X198065164Y-93759577D01*
X198176967Y-93789534D01*
X198217890Y-93800500D01*
X198217891Y-93800500D01*
X202484647Y-93800500D01*
X202551686Y-93820185D01*
X202572328Y-93836819D01*
X203263181Y-94527672D01*
X203296666Y-94588995D01*
X203299500Y-94615353D01*
X203299500Y-99825500D01*
X203279815Y-99892539D01*
X203227011Y-99938294D01*
X203175500Y-99949500D01*
X202882130Y-99949500D01*
X202882123Y-99949501D01*
X202822518Y-99955908D01*
X202788331Y-99968659D01*
X202718639Y-99973642D01*
X202701666Y-99968658D01*
X202666072Y-99955382D01*
X202610139Y-99913510D01*
X202602019Y-99901200D01*
X202590522Y-99881287D01*
X202590518Y-99881282D01*
X201297590Y-98588355D01*
X201297588Y-98588352D01*
X201178717Y-98469481D01*
X201178716Y-98469480D01*
X201091904Y-98419360D01*
X201091904Y-98419359D01*
X201091900Y-98419358D01*
X201041785Y-98390423D01*
X200889057Y-98349499D01*
X200730943Y-98349499D01*
X200723347Y-98349499D01*
X200723331Y-98349500D01*
X192336670Y-98349500D01*
X192336654Y-98349499D01*
X192329058Y-98349499D01*
X192170943Y-98349499D01*
X192094579Y-98369961D01*
X192018214Y-98390423D01*
X192018209Y-98390426D01*
X191881290Y-98469475D01*
X191881282Y-98469481D01*
X189681465Y-100669298D01*
X189620142Y-100702783D01*
X189607668Y-100704837D01*
X189520750Y-100714630D01*
X189350478Y-100774210D01*
X189197737Y-100870184D01*
X189070184Y-100997737D01*
X188974211Y-101150476D01*
X188914631Y-101320745D01*
X188914630Y-101320750D01*
X188894435Y-101499996D01*
X188894435Y-101500003D01*
X188914630Y-101679249D01*
X188914631Y-101679254D01*
X188974211Y-101849523D01*
X189032326Y-101942011D01*
X189067432Y-101997883D01*
X189073889Y-102008158D01*
X189071590Y-102009602D01*
X189093341Y-102062849D01*
X189080599Y-102131547D01*
X189032739Y-102182450D01*
X188969988Y-102199500D01*
X188380301Y-102199500D01*
X188313262Y-102179815D01*
X188267507Y-102127011D01*
X188262595Y-102114504D01*
X188243700Y-102057483D01*
X188234814Y-102030666D01*
X188142712Y-101881344D01*
X188018656Y-101757288D01*
X187869334Y-101665186D01*
X187702797Y-101610001D01*
X187702795Y-101610000D01*
X187600010Y-101599500D01*
X186799998Y-101599500D01*
X186799980Y-101599501D01*
X186697203Y-101610000D01*
X186697200Y-101610001D01*
X186530668Y-101665185D01*
X186530663Y-101665187D01*
X186381342Y-101757289D01*
X186287681Y-101850951D01*
X186226358Y-101884436D01*
X186156666Y-101879452D01*
X186112319Y-101850951D01*
X186018657Y-101757289D01*
X186018656Y-101757288D01*
X185869334Y-101665186D01*
X185702797Y-101610001D01*
X185702795Y-101610000D01*
X185600010Y-101599500D01*
X184799998Y-101599500D01*
X184799980Y-101599501D01*
X184697203Y-101610000D01*
X184697200Y-101610001D01*
X184530668Y-101665185D01*
X184530663Y-101665187D01*
X184381342Y-101757289D01*
X184257289Y-101881342D01*
X184165187Y-102030663D01*
X184165185Y-102030668D01*
X184137405Y-102114504D01*
X184097632Y-102171949D01*
X184033116Y-102198772D01*
X184019699Y-102199500D01*
X179684048Y-102199500D01*
X179617009Y-102179815D01*
X179580874Y-102144283D01*
X179526415Y-102062595D01*
X179488287Y-102030663D01*
X179416110Y-101970214D01*
X179416107Y-101970212D01*
X179416105Y-101970211D01*
X179284245Y-101912651D01*
X179141509Y-101894570D01*
X178999454Y-101917438D01*
X178999451Y-101917439D01*
X178869598Y-101979399D01*
X178468783Y-102246609D01*
X178402084Y-102267417D01*
X178334723Y-102248862D01*
X178331217Y-102246609D01*
X177930401Y-101979399D01*
X177859994Y-101940182D01*
X177859987Y-101940179D01*
X177721942Y-101899645D01*
X177721940Y-101899645D01*
X177578060Y-101899645D01*
X177578059Y-101899645D01*
X177440005Y-101940182D01*
X177318969Y-102017967D01*
X177318965Y-102017971D01*
X177224750Y-102126700D01*
X177224744Y-102126709D01*
X177164976Y-102257580D01*
X177164975Y-102257585D01*
X177144500Y-102399999D01*
X177144500Y-104800021D01*
X177150923Y-104880330D01*
X177150925Y-104880338D01*
X177159787Y-104908745D01*
X177164151Y-104963319D01*
X177144500Y-105099999D01*
X177144500Y-106100002D01*
X177149644Y-106171940D01*
X177174816Y-106257664D01*
X177180531Y-106277129D01*
X177190182Y-106309994D01*
X177267967Y-106431030D01*
X177267971Y-106431034D01*
X177376700Y-106525249D01*
X177376706Y-106525254D01*
X177417174Y-106543735D01*
X177507580Y-106585023D01*
X177507583Y-106585023D01*
X177507584Y-106585024D01*
X177650000Y-106605500D01*
X177650003Y-106605500D01*
X179150000Y-106605500D01*
X179221940Y-106600355D01*
X179359992Y-106559819D01*
X179481032Y-106482031D01*
X179575254Y-106373294D01*
X179619174Y-106277123D01*
X179635023Y-106242419D01*
X179635024Y-106242414D01*
X179655500Y-106100000D01*
X179655500Y-105899986D01*
X184100001Y-105899986D01*
X184110494Y-106002697D01*
X184165641Y-106169119D01*
X184165643Y-106169124D01*
X184257684Y-106318345D01*
X184381654Y-106442315D01*
X184530875Y-106534356D01*
X184530880Y-106534358D01*
X184697302Y-106589505D01*
X184697309Y-106589506D01*
X184800019Y-106599999D01*
X184949999Y-106599999D01*
X184950000Y-106599998D01*
X184950000Y-105650000D01*
X184100001Y-105650000D01*
X184100001Y-105899986D01*
X179655500Y-105899986D01*
X179655500Y-105100000D01*
X179651493Y-105036478D01*
X179638659Y-104989891D01*
X179635469Y-104939318D01*
X179655500Y-104800000D01*
X179655500Y-103524500D01*
X179675185Y-103457461D01*
X179727989Y-103411706D01*
X179779500Y-103400500D01*
X184019699Y-103400500D01*
X184086738Y-103420185D01*
X184132493Y-103472989D01*
X184137403Y-103485492D01*
X184156177Y-103542147D01*
X184165185Y-103569331D01*
X184165187Y-103569336D01*
X184167843Y-103573642D01*
X184257288Y-103718656D01*
X184381344Y-103842712D01*
X184530666Y-103934814D01*
X184674746Y-103982557D01*
X184732190Y-104022328D01*
X184759013Y-104086844D01*
X184746698Y-104155620D01*
X184699155Y-104206820D01*
X184674746Y-104217968D01*
X184530878Y-104265642D01*
X184530875Y-104265643D01*
X184381654Y-104357684D01*
X184257684Y-104481654D01*
X184165643Y-104630875D01*
X184165641Y-104630880D01*
X184110494Y-104797302D01*
X184110493Y-104797309D01*
X184100000Y-104900013D01*
X184100000Y-105150000D01*
X185076000Y-105150000D01*
X185143039Y-105169685D01*
X185188794Y-105222489D01*
X185200000Y-105274000D01*
X185200000Y-105400000D01*
X185326000Y-105400000D01*
X185393039Y-105419685D01*
X185438794Y-105472489D01*
X185450000Y-105524000D01*
X185450000Y-106599999D01*
X185599972Y-106599999D01*
X185599986Y-106599998D01*
X185702697Y-106589505D01*
X185869119Y-106534358D01*
X185869124Y-106534356D01*
X186018342Y-106442317D01*
X186111964Y-106348695D01*
X186173287Y-106315210D01*
X186242979Y-106320194D01*
X186287327Y-106348695D01*
X186381344Y-106442712D01*
X186530666Y-106534814D01*
X186697203Y-106589999D01*
X186799991Y-106600500D01*
X187600008Y-106600499D01*
X187600016Y-106600498D01*
X187600019Y-106600498D01*
X187656302Y-106594748D01*
X187702797Y-106589999D01*
X187869334Y-106534814D01*
X188018656Y-106442712D01*
X188142712Y-106318656D01*
X188234814Y-106169334D01*
X188289999Y-106002797D01*
X188300500Y-105900009D01*
X188300499Y-105800095D01*
X188320183Y-105733058D01*
X188336813Y-105712420D01*
X189612417Y-104436819D01*
X189673740Y-104403334D01*
X189700098Y-104400500D01*
X191499903Y-104400500D01*
X191566942Y-104420185D01*
X191587584Y-104436819D01*
X191750139Y-104599374D01*
X191750149Y-104599385D01*
X191754479Y-104603715D01*
X191754480Y-104603716D01*
X191866284Y-104715520D01*
X191953095Y-104765639D01*
X191953122Y-104765655D01*
X191953328Y-104765774D01*
X192001531Y-104816352D01*
X192014738Y-104884963D01*
X192007485Y-104916476D01*
X191995384Y-104948923D01*
X191953514Y-105004858D01*
X191941204Y-105012979D01*
X191921284Y-105024480D01*
X191921281Y-105024482D01*
X189119481Y-107826282D01*
X189119477Y-107826287D01*
X189102576Y-107855563D01*
X189102575Y-107855565D01*
X189040423Y-107963215D01*
X188999499Y-108115943D01*
X188999499Y-108115945D01*
X188999499Y-108284046D01*
X188999500Y-108284059D01*
X188999500Y-108599216D01*
X188979815Y-108666255D01*
X188963181Y-108686897D01*
X185188151Y-112461927D01*
X185126828Y-112495412D01*
X185057136Y-112490428D01*
X185001203Y-112448556D01*
X184983429Y-112415201D01*
X184923489Y-112243905D01*
X184925637Y-112243153D01*
X184916035Y-112184872D01*
X184924392Y-112156411D01*
X184923489Y-112156095D01*
X184985366Y-111979262D01*
X184985369Y-111979249D01*
X185005565Y-111800003D01*
X185005565Y-111799996D01*
X184985369Y-111620750D01*
X184985368Y-111620745D01*
X184925788Y-111450475D01*
X184872691Y-111365973D01*
X184853690Y-111298736D01*
X184872691Y-111234027D01*
X184925788Y-111149524D01*
X184928252Y-111142483D01*
X184985368Y-110979255D01*
X184992024Y-110920184D01*
X185005565Y-110800003D01*
X185005565Y-110799996D01*
X184985369Y-110620750D01*
X184985368Y-110620745D01*
X184925788Y-110450476D01*
X184829815Y-110297737D01*
X184702262Y-110170184D01*
X184549523Y-110074211D01*
X184379254Y-110014631D01*
X184379249Y-110014630D01*
X184200004Y-109994435D01*
X184199996Y-109994435D01*
X184020750Y-110014630D01*
X184020745Y-110014631D01*
X183850476Y-110074211D01*
X183697736Y-110170185D01*
X183694903Y-110172445D01*
X183692724Y-110173334D01*
X183691842Y-110173889D01*
X183691744Y-110173734D01*
X183630217Y-110198855D01*
X183617588Y-110199500D01*
X177465783Y-110199500D01*
X177398744Y-110179815D01*
X177378102Y-110163181D01*
X175436819Y-108221898D01*
X175403334Y-108160575D01*
X175400500Y-108134217D01*
X175400500Y-95099983D01*
X179274500Y-95099983D01*
X179274500Y-96500001D01*
X179274501Y-96500018D01*
X179285000Y-96602796D01*
X179285001Y-96602799D01*
X179320873Y-96711051D01*
X179340186Y-96769334D01*
X179432288Y-96918656D01*
X179556344Y-97042712D01*
X179705666Y-97134814D01*
X179872203Y-97189999D01*
X179974991Y-97200500D01*
X180900008Y-97200499D01*
X180900016Y-97200498D01*
X180900019Y-97200498D01*
X180956302Y-97194748D01*
X181002797Y-97189999D01*
X181169334Y-97134814D01*
X181318656Y-97042712D01*
X181442712Y-96918656D01*
X181534814Y-96769334D01*
X181589999Y-96602797D01*
X181600500Y-96500009D01*
X181600499Y-95099992D01*
X181589999Y-94997203D01*
X181534814Y-94830666D01*
X181442712Y-94681344D01*
X181410104Y-94648736D01*
X181376619Y-94587413D01*
X181381603Y-94517721D01*
X181423475Y-94461788D01*
X181488939Y-94437371D01*
X181508590Y-94437526D01*
X181597203Y-94445279D01*
X181699998Y-94454273D01*
X181700000Y-94454273D01*
X181700002Y-94454273D01*
X181754450Y-94449509D01*
X181917802Y-94435218D01*
X181981290Y-94418206D01*
X182051139Y-94419869D01*
X182101064Y-94450300D01*
X182415146Y-94764381D01*
X182448631Y-94825704D01*
X182445171Y-94891065D01*
X182410001Y-94997200D01*
X182410000Y-94997204D01*
X182399500Y-95099983D01*
X182399500Y-96500001D01*
X182399501Y-96500018D01*
X182410000Y-96602796D01*
X182410001Y-96602799D01*
X182445873Y-96711051D01*
X182465186Y-96769334D01*
X182557288Y-96918656D01*
X182681344Y-97042712D01*
X182830666Y-97134814D01*
X182997203Y-97189999D01*
X183099991Y-97200500D01*
X184025008Y-97200499D01*
X184025016Y-97200498D01*
X184025019Y-97200498D01*
X184081302Y-97194748D01*
X184127797Y-97189999D01*
X184294334Y-97134814D01*
X184443656Y-97042712D01*
X184567712Y-96918656D01*
X184659814Y-96769334D01*
X184714999Y-96602797D01*
X184725500Y-96500009D01*
X184725499Y-95099992D01*
X184714999Y-94997203D01*
X184659814Y-94830666D01*
X184567712Y-94681344D01*
X184443656Y-94557288D01*
X184294334Y-94465186D01*
X184127797Y-94410001D01*
X184127795Y-94410000D01*
X184025016Y-94399500D01*
X184025009Y-94399500D01*
X183800098Y-94399500D01*
X183733059Y-94379815D01*
X183712417Y-94363181D01*
X183361417Y-94012181D01*
X183327932Y-93950858D01*
X183332916Y-93881166D01*
X183374788Y-93825233D01*
X183440252Y-93800816D01*
X183449098Y-93800500D01*
X187030566Y-93800500D01*
X187097605Y-93820185D01*
X187132140Y-93853375D01*
X187196478Y-93945259D01*
X187239171Y-94006231D01*
X187393767Y-94160827D01*
X187393773Y-94160832D01*
X187572858Y-94286229D01*
X187572860Y-94286230D01*
X187572863Y-94286232D01*
X187771013Y-94378631D01*
X187771019Y-94378632D01*
X187771020Y-94378633D01*
X187821846Y-94392251D01*
X187982198Y-94435218D01*
X188137770Y-94448828D01*
X188199998Y-94454273D01*
X188200000Y-94454273D01*
X188200002Y-94454273D01*
X188254450Y-94449509D01*
X188417802Y-94435218D01*
X188628987Y-94378631D01*
X188827137Y-94286232D01*
X189006231Y-94160829D01*
X189160829Y-94006231D01*
X189173924Y-93987528D01*
X189228501Y-93943903D01*
X189297999Y-93936709D01*
X189360354Y-93968231D01*
X189395769Y-94028460D01*
X189399500Y-94058651D01*
X189399500Y-94663330D01*
X189399499Y-94663348D01*
X189399499Y-94829054D01*
X189399498Y-94829054D01*
X189440422Y-94981783D01*
X189469291Y-95031786D01*
X189482887Y-95055335D01*
X189499500Y-95117334D01*
X189499500Y-95300000D01*
X189499501Y-95300019D01*
X189510000Y-95402796D01*
X189510001Y-95402799D01*
X189515481Y-95419336D01*
X189565186Y-95569334D01*
X189657288Y-95718656D01*
X189781344Y-95842712D01*
X189930666Y-95934814D01*
X190097203Y-95989999D01*
X190199991Y-96000500D01*
X191000008Y-96000499D01*
X191000016Y-96000498D01*
X191000019Y-96000498D01*
X191056302Y-95994748D01*
X191102797Y-95989999D01*
X191269334Y-95934814D01*
X191418656Y-95842712D01*
X191512675Y-95748692D01*
X191573994Y-95715210D01*
X191643686Y-95720194D01*
X191688034Y-95748695D01*
X191781654Y-95842315D01*
X191930875Y-95934356D01*
X191930880Y-95934358D01*
X192097302Y-95989505D01*
X192097309Y-95989506D01*
X192200019Y-95999999D01*
X192349999Y-95999999D01*
X192850000Y-95999999D01*
X192999972Y-95999999D01*
X192999986Y-95999998D01*
X193102697Y-95989505D01*
X193269119Y-95934358D01*
X193269124Y-95934356D01*
X193418345Y-95842315D01*
X193542315Y-95718345D01*
X193634356Y-95569124D01*
X193634358Y-95569119D01*
X193689505Y-95402697D01*
X193689506Y-95402690D01*
X193699999Y-95299986D01*
X193700000Y-95299973D01*
X193700000Y-95050000D01*
X192850000Y-95050000D01*
X192850000Y-95999999D01*
X192349999Y-95999999D01*
X192350000Y-95999998D01*
X192350000Y-94550000D01*
X192850000Y-94550000D01*
X193699999Y-94550000D01*
X193699999Y-94300028D01*
X193699998Y-94300013D01*
X193689505Y-94197302D01*
X193634358Y-94030880D01*
X193634356Y-94030875D01*
X193542315Y-93881654D01*
X193418345Y-93757684D01*
X193269124Y-93665643D01*
X193269119Y-93665641D01*
X193102697Y-93610494D01*
X193102690Y-93610493D01*
X192999986Y-93600000D01*
X192850000Y-93600000D01*
X192850000Y-94550000D01*
X192350000Y-94550000D01*
X192350000Y-93600000D01*
X192200027Y-93600000D01*
X192200012Y-93600001D01*
X192097302Y-93610494D01*
X191930880Y-93665641D01*
X191930875Y-93665643D01*
X191781657Y-93757682D01*
X191688034Y-93851305D01*
X191626710Y-93884789D01*
X191557019Y-93879805D01*
X191512672Y-93851304D01*
X191418657Y-93757289D01*
X191418656Y-93757288D01*
X191325888Y-93700069D01*
X191269336Y-93665187D01*
X191269331Y-93665185D01*
X191267862Y-93664698D01*
X191102797Y-93610001D01*
X191102795Y-93610000D01*
X191000016Y-93599500D01*
X191000009Y-93599500D01*
X190883063Y-93599500D01*
X190816024Y-93579815D01*
X190770269Y-93527011D01*
X190760325Y-93457853D01*
X190766022Y-93434545D01*
X190785366Y-93379262D01*
X190785369Y-93379249D01*
X190805565Y-93200000D01*
X190805565Y-93199996D01*
X190785369Y-93020750D01*
X190785368Y-93020745D01*
X190750238Y-92920349D01*
X190725789Y-92850478D01*
X190629816Y-92697738D01*
X190557064Y-92624986D01*
X192400001Y-92624986D01*
X192410494Y-92727697D01*
X192465641Y-92894119D01*
X192465643Y-92894124D01*
X192557684Y-93043345D01*
X192681654Y-93167315D01*
X192830875Y-93259356D01*
X192830880Y-93259358D01*
X192997302Y-93314505D01*
X192997309Y-93314506D01*
X193100019Y-93324999D01*
X193549999Y-93324999D01*
X194050000Y-93324999D01*
X194499972Y-93324999D01*
X194499986Y-93324998D01*
X194602697Y-93314505D01*
X194769119Y-93259358D01*
X194769124Y-93259356D01*
X194918345Y-93167315D01*
X195042315Y-93043345D01*
X195134356Y-92894124D01*
X195134359Y-92894117D01*
X195169386Y-92788411D01*
X195209158Y-92730966D01*
X195273673Y-92704142D01*
X195342449Y-92716456D01*
X195393650Y-92763999D01*
X195406168Y-92792818D01*
X195411216Y-92810194D01*
X195411217Y-92810196D01*
X195494814Y-92951552D01*
X195494821Y-92951561D01*
X195610938Y-93067678D01*
X195610947Y-93067685D01*
X195752303Y-93151282D01*
X195752306Y-93151283D01*
X195910004Y-93197099D01*
X195910010Y-93197100D01*
X195946850Y-93199999D01*
X195946866Y-93200000D01*
X196275000Y-93200000D01*
X196275000Y-92650000D01*
X195324000Y-92650000D01*
X195256961Y-92630315D01*
X195211206Y-92577511D01*
X195200000Y-92526000D01*
X195200000Y-92412500D01*
X194050000Y-92412500D01*
X194050000Y-93324999D01*
X193549999Y-93324999D01*
X193550000Y-93324998D01*
X193550000Y-92412500D01*
X192400001Y-92412500D01*
X192400001Y-92624986D01*
X190557064Y-92624986D01*
X190502262Y-92570184D01*
X190466770Y-92547883D01*
X190349523Y-92474211D01*
X190179254Y-92414631D01*
X190179249Y-92414630D01*
X190000004Y-92394435D01*
X189999996Y-92394435D01*
X189820750Y-92414630D01*
X189820745Y-92414631D01*
X189650476Y-92474211D01*
X189497736Y-92570185D01*
X189494903Y-92572445D01*
X189492724Y-92573334D01*
X189491842Y-92573889D01*
X189491744Y-92573734D01*
X189430217Y-92598855D01*
X189417588Y-92599500D01*
X189369433Y-92599500D01*
X189302394Y-92579815D01*
X189267858Y-92546623D01*
X189160830Y-92393770D01*
X189160826Y-92393766D01*
X189006231Y-92239171D01*
X189006227Y-92239168D01*
X189006226Y-92239167D01*
X188878880Y-92149998D01*
X195365204Y-92149998D01*
X195365205Y-92150000D01*
X196275000Y-92150000D01*
X196275000Y-91600000D01*
X195946850Y-91600000D01*
X195910010Y-91602899D01*
X195910004Y-91602900D01*
X195752306Y-91648716D01*
X195752303Y-91648717D01*
X195610947Y-91732314D01*
X195610938Y-91732321D01*
X195494821Y-91848438D01*
X195494814Y-91848447D01*
X195430731Y-91956807D01*
X195394464Y-91990669D01*
X195399235Y-92003460D01*
X195394628Y-92046903D01*
X195365399Y-92147511D01*
X195365204Y-92149998D01*
X188878880Y-92149998D01*
X188827141Y-92113770D01*
X188827137Y-92113768D01*
X188739686Y-92072989D01*
X188628987Y-92021369D01*
X188628983Y-92021368D01*
X188628979Y-92021366D01*
X188417807Y-91964783D01*
X188417803Y-91964782D01*
X188417802Y-91964782D01*
X188417801Y-91964781D01*
X188417796Y-91964781D01*
X188200002Y-91945727D01*
X188199998Y-91945727D01*
X187982203Y-91964781D01*
X187982192Y-91964783D01*
X187771020Y-92021366D01*
X187771011Y-92021370D01*
X187572866Y-92113766D01*
X187393766Y-92239172D01*
X187239172Y-92393766D01*
X187132142Y-92546623D01*
X187077565Y-92590248D01*
X187030567Y-92599500D01*
X182869433Y-92599500D01*
X182802394Y-92579815D01*
X182767858Y-92546623D01*
X182660830Y-92393770D01*
X182660826Y-92393766D01*
X182506231Y-92239171D01*
X182506227Y-92239168D01*
X182506226Y-92239167D01*
X182327141Y-92113770D01*
X182327137Y-92113768D01*
X182239686Y-92072989D01*
X182128987Y-92021369D01*
X182128983Y-92021368D01*
X182128979Y-92021366D01*
X181917807Y-91964783D01*
X181917803Y-91964782D01*
X181917802Y-91964782D01*
X181917801Y-91964781D01*
X181917796Y-91964781D01*
X181700002Y-91945727D01*
X181699998Y-91945727D01*
X181482203Y-91964781D01*
X181482192Y-91964783D01*
X181271020Y-92021366D01*
X181271011Y-92021370D01*
X181072866Y-92113766D01*
X180893766Y-92239172D01*
X180739172Y-92393766D01*
X180613766Y-92572866D01*
X180521370Y-92771011D01*
X180521366Y-92771020D01*
X180464783Y-92982192D01*
X180464781Y-92982203D01*
X180445727Y-93199998D01*
X180445727Y-93200000D01*
X180464781Y-93417796D01*
X180464783Y-93417807D01*
X180521366Y-93628979D01*
X180521368Y-93628983D01*
X180521369Y-93628987D01*
X180601347Y-93800500D01*
X180613768Y-93827137D01*
X180613770Y-93827141D01*
X180739167Y-94006226D01*
X180739170Y-94006230D01*
X180893767Y-94160827D01*
X180893776Y-94160835D01*
X180912472Y-94173926D01*
X180956097Y-94228503D01*
X180963289Y-94298002D01*
X180931766Y-94360356D01*
X180871536Y-94395769D01*
X180841348Y-94399500D01*
X179974998Y-94399500D01*
X179974980Y-94399501D01*
X179872203Y-94410000D01*
X179872200Y-94410001D01*
X179705668Y-94465185D01*
X179705663Y-94465187D01*
X179556342Y-94557289D01*
X179432289Y-94681342D01*
X179340187Y-94830663D01*
X179340186Y-94830666D01*
X179285001Y-94997203D01*
X179285001Y-94997204D01*
X179285000Y-94997204D01*
X179274500Y-95099983D01*
X175400500Y-95099983D01*
X175400500Y-91700013D01*
X192400000Y-91700013D01*
X192400000Y-91912500D01*
X193550000Y-91912500D01*
X194050000Y-91912500D01*
X195203062Y-91912500D01*
X195199999Y-91893686D01*
X195199999Y-91700028D01*
X195199998Y-91700013D01*
X195189505Y-91597302D01*
X195134358Y-91430880D01*
X195134356Y-91430875D01*
X195042315Y-91281654D01*
X194918345Y-91157684D01*
X194769124Y-91065643D01*
X194769119Y-91065641D01*
X194602697Y-91010494D01*
X194602690Y-91010493D01*
X194499986Y-91000000D01*
X194050000Y-91000000D01*
X194050000Y-91912500D01*
X193550000Y-91912500D01*
X193550000Y-91000000D01*
X193100028Y-91000000D01*
X193100012Y-91000001D01*
X192997302Y-91010494D01*
X192830880Y-91065641D01*
X192830875Y-91065643D01*
X192681654Y-91157684D01*
X192557684Y-91281654D01*
X192465643Y-91430875D01*
X192465641Y-91430880D01*
X192410494Y-91597302D01*
X192410493Y-91597309D01*
X192400000Y-91700013D01*
X175400500Y-91700013D01*
X175400500Y-87903127D01*
X180450500Y-87903127D01*
X180450500Y-88699998D01*
X180450501Y-89496861D01*
X180450501Y-89496876D01*
X180456908Y-89556483D01*
X180507202Y-89691328D01*
X180507206Y-89691335D01*
X180593452Y-89806544D01*
X180593455Y-89806547D01*
X180708664Y-89892793D01*
X180708671Y-89892797D01*
X180843517Y-89943091D01*
X180843516Y-89943091D01*
X180850444Y-89943835D01*
X180903127Y-89949500D01*
X182496872Y-89949499D01*
X182556483Y-89943091D01*
X182691331Y-89892796D01*
X182806546Y-89806546D01*
X182892796Y-89691331D01*
X182943091Y-89556483D01*
X182949500Y-89496873D01*
X182949499Y-88700000D01*
X182949499Y-88699998D01*
X186945727Y-88699998D01*
X186945727Y-88700001D01*
X186964781Y-88917796D01*
X186964783Y-88917807D01*
X187021366Y-89128979D01*
X187021368Y-89128983D01*
X187021369Y-89128987D01*
X187098182Y-89293713D01*
X187113768Y-89327137D01*
X187113770Y-89327141D01*
X187239167Y-89506226D01*
X187239172Y-89506232D01*
X187393767Y-89660827D01*
X187393773Y-89660832D01*
X187572858Y-89786229D01*
X187572860Y-89786230D01*
X187572863Y-89786232D01*
X187771013Y-89878631D01*
X187771019Y-89878632D01*
X187771020Y-89878633D01*
X187798171Y-89885908D01*
X187982198Y-89935218D01*
X188137770Y-89948828D01*
X188199998Y-89954273D01*
X188200000Y-89954273D01*
X188200002Y-89954273D01*
X188254579Y-89949498D01*
X188417802Y-89935218D01*
X188628987Y-89878631D01*
X188827137Y-89786232D01*
X189006231Y-89660829D01*
X189160829Y-89506231D01*
X189286232Y-89327137D01*
X189378631Y-89128987D01*
X189435218Y-88917802D01*
X189454273Y-88700000D01*
X189435218Y-88482198D01*
X189387916Y-88305666D01*
X189378633Y-88271020D01*
X189378632Y-88271019D01*
X189378631Y-88271013D01*
X189286232Y-88072864D01*
X189160829Y-87893769D01*
X189006231Y-87739171D01*
X189006227Y-87739168D01*
X189006226Y-87739167D01*
X188827141Y-87613770D01*
X188827137Y-87613768D01*
X188797575Y-87599983D01*
X188628987Y-87521369D01*
X188628983Y-87521368D01*
X188628979Y-87521366D01*
X188417807Y-87464783D01*
X188417803Y-87464782D01*
X188417802Y-87464782D01*
X188417801Y-87464781D01*
X188417796Y-87464781D01*
X188200002Y-87445727D01*
X188199998Y-87445727D01*
X187982203Y-87464781D01*
X187982192Y-87464783D01*
X187771020Y-87521366D01*
X187771011Y-87521370D01*
X187572866Y-87613766D01*
X187393766Y-87739172D01*
X187239172Y-87893766D01*
X187113766Y-88072866D01*
X187021370Y-88271011D01*
X187021366Y-88271020D01*
X186964783Y-88482192D01*
X186964781Y-88482203D01*
X186945727Y-88699998D01*
X182949499Y-88699998D01*
X182949499Y-87903129D01*
X182949498Y-87903123D01*
X182949497Y-87903116D01*
X182943091Y-87843517D01*
X182933818Y-87818656D01*
X182892797Y-87708671D01*
X182892793Y-87708664D01*
X182806547Y-87593455D01*
X182806544Y-87593452D01*
X182691335Y-87507206D01*
X182691328Y-87507202D01*
X182556482Y-87456908D01*
X182556483Y-87456908D01*
X182496883Y-87450501D01*
X182496881Y-87450500D01*
X182496873Y-87450500D01*
X182496864Y-87450500D01*
X180903129Y-87450500D01*
X180903123Y-87450501D01*
X180843516Y-87456908D01*
X180708671Y-87507202D01*
X180708664Y-87507206D01*
X180593455Y-87593452D01*
X180593452Y-87593455D01*
X180507206Y-87708664D01*
X180507202Y-87708671D01*
X180456908Y-87843517D01*
X180451506Y-87893766D01*
X180450500Y-87903127D01*
X175400500Y-87903127D01*
X175400500Y-85500096D01*
X175420185Y-85433057D01*
X175436814Y-85412420D01*
X176952314Y-83896919D01*
X177013635Y-83863436D01*
X177083327Y-83868420D01*
X177111114Y-83883025D01*
X177174833Y-83927642D01*
X177295572Y-83983943D01*
X177375513Y-84021220D01*
X177375515Y-84021220D01*
X177375520Y-84021223D01*
X177589409Y-84078535D01*
X177746974Y-84092320D01*
X177809998Y-84097834D01*
X177810000Y-84097834D01*
X177810002Y-84097834D01*
X177865276Y-84092998D01*
X178030591Y-84078535D01*
X178244480Y-84021223D01*
X178445167Y-83927642D01*
X178626555Y-83800632D01*
X178783132Y-83644055D01*
X178910142Y-83462667D01*
X179003723Y-83261980D01*
X179061035Y-83048091D01*
X179080334Y-82827500D01*
X179080009Y-82823790D01*
X179071542Y-82727011D01*
X179061035Y-82606909D01*
X179003723Y-82393020D01*
X178991628Y-82367083D01*
X178966443Y-82313072D01*
X178910142Y-82192333D01*
X178783132Y-82010945D01*
X178626555Y-81854368D01*
X178445167Y-81727358D01*
X178321907Y-81669881D01*
X178269468Y-81623710D01*
X178250316Y-81556517D01*
X178270531Y-81489636D01*
X178321908Y-81445118D01*
X178445167Y-81387642D01*
X178626555Y-81260632D01*
X178783132Y-81104055D01*
X178910142Y-80922667D01*
X179003723Y-80721980D01*
X179061035Y-80508091D01*
X179080334Y-80287500D01*
X179079838Y-80281835D01*
X179061035Y-80066914D01*
X179061035Y-80066909D01*
X179003723Y-79853020D01*
X178993587Y-79831284D01*
X178949429Y-79736585D01*
X178910142Y-79652333D01*
X178783132Y-79470945D01*
X178626555Y-79314368D01*
X178445167Y-79187358D01*
X178445163Y-79187356D01*
X178244486Y-79093779D01*
X178244475Y-79093775D01*
X178030592Y-79036465D01*
X178030585Y-79036464D01*
X177810002Y-79017166D01*
X177809998Y-79017166D01*
X177589414Y-79036464D01*
X177589407Y-79036465D01*
X177375524Y-79093775D01*
X177375513Y-79093779D01*
X177174836Y-79187356D01*
X177174834Y-79187357D01*
X176993444Y-79314368D01*
X176836868Y-79470944D01*
X176709857Y-79652334D01*
X176709856Y-79652336D01*
X176652382Y-79775591D01*
X176606210Y-79828031D01*
X176539017Y-79847183D01*
X176472135Y-79826967D01*
X176427618Y-79775591D01*
X176393211Y-79701806D01*
X176370142Y-79652333D01*
X176243132Y-79470945D01*
X176086555Y-79314368D01*
X175905167Y-79187358D01*
X175905163Y-79187356D01*
X175704486Y-79093779D01*
X175704475Y-79093775D01*
X175490592Y-79036465D01*
X175490585Y-79036464D01*
X175270002Y-79017166D01*
X175269998Y-79017166D01*
X175049414Y-79036464D01*
X175049407Y-79036465D01*
X174835524Y-79093775D01*
X174835513Y-79093779D01*
X174634836Y-79187356D01*
X174634834Y-79187357D01*
X174453444Y-79314368D01*
X174296868Y-79470944D01*
X174169857Y-79652334D01*
X174169856Y-79652336D01*
X174112382Y-79775591D01*
X174066210Y-79828031D01*
X173999017Y-79847183D01*
X173932135Y-79826967D01*
X173887618Y-79775591D01*
X173853211Y-79701806D01*
X173830142Y-79652333D01*
X173703132Y-79470945D01*
X173546555Y-79314368D01*
X173365167Y-79187358D01*
X173365163Y-79187356D01*
X173164486Y-79093779D01*
X173164475Y-79093775D01*
X172950592Y-79036465D01*
X172950585Y-79036464D01*
X172730002Y-79017166D01*
X172729998Y-79017166D01*
X172509414Y-79036464D01*
X172509407Y-79036465D01*
X172295524Y-79093775D01*
X172295513Y-79093779D01*
X172094836Y-79187356D01*
X172094834Y-79187357D01*
X171913444Y-79314368D01*
X171756868Y-79470944D01*
X171629857Y-79652334D01*
X171629856Y-79652336D01*
X171572382Y-79775591D01*
X171526210Y-79828031D01*
X171459017Y-79847183D01*
X171392135Y-79826967D01*
X171347618Y-79775591D01*
X171313211Y-79701806D01*
X171290142Y-79652333D01*
X171163132Y-79470945D01*
X171006555Y-79314368D01*
X170825167Y-79187358D01*
X170825163Y-79187356D01*
X170624486Y-79093779D01*
X170624475Y-79093775D01*
X170410592Y-79036465D01*
X170410585Y-79036464D01*
X170190002Y-79017166D01*
X170189998Y-79017166D01*
X169969414Y-79036464D01*
X169969407Y-79036465D01*
X169755524Y-79093775D01*
X169755513Y-79093779D01*
X169554836Y-79187356D01*
X169554834Y-79187357D01*
X169373444Y-79314368D01*
X169216868Y-79470944D01*
X169089857Y-79652334D01*
X169089856Y-79652336D01*
X168996279Y-79853013D01*
X168996275Y-79853024D01*
X168938965Y-80066907D01*
X168938964Y-80066914D01*
X168919666Y-80287498D01*
X168919666Y-80287501D01*
X168938964Y-80508085D01*
X168938967Y-80508099D01*
X168958729Y-80581855D01*
X168957066Y-80651705D01*
X168926635Y-80701628D01*
X166665084Y-82963181D01*
X166603761Y-82996666D01*
X166577403Y-82999500D01*
X166286669Y-82999500D01*
X166286653Y-82999499D01*
X166279057Y-82999499D01*
X166120943Y-82999499D01*
X166013587Y-83028265D01*
X165968210Y-83040424D01*
X165968209Y-83040425D01*
X165918096Y-83069359D01*
X165918095Y-83069360D01*
X165885352Y-83088264D01*
X165831285Y-83119479D01*
X165831282Y-83119481D01*
X165719478Y-83231286D01*
X165147971Y-83802792D01*
X165086648Y-83836277D01*
X165016956Y-83831293D01*
X164961023Y-83789421D01*
X164942585Y-83754119D01*
X164934814Y-83730666D01*
X164842712Y-83581344D01*
X164718656Y-83457288D01*
X164623259Y-83398447D01*
X164569336Y-83365187D01*
X164569331Y-83365185D01*
X164542518Y-83356300D01*
X164402797Y-83310001D01*
X164402795Y-83310000D01*
X164300010Y-83299500D01*
X163299998Y-83299500D01*
X163299980Y-83299501D01*
X163197203Y-83310000D01*
X163197200Y-83310001D01*
X163030668Y-83365185D01*
X163030663Y-83365187D01*
X162881342Y-83457289D01*
X162757289Y-83581342D01*
X162665187Y-83730663D01*
X162665185Y-83730668D01*
X162641286Y-83802792D01*
X162610001Y-83897203D01*
X162610001Y-83897204D01*
X162610000Y-83897204D01*
X162599500Y-83999983D01*
X162599500Y-84800001D01*
X162599501Y-84800019D01*
X162610000Y-84902796D01*
X162610001Y-84902799D01*
X162665185Y-85069331D01*
X162665187Y-85069336D01*
X162700069Y-85125888D01*
X162732457Y-85178399D01*
X162757289Y-85218657D01*
X162850951Y-85312319D01*
X162884436Y-85373642D01*
X162879452Y-85443334D01*
X162850951Y-85487681D01*
X162757289Y-85581342D01*
X162665187Y-85730663D01*
X162665186Y-85730666D01*
X162610001Y-85897203D01*
X162610001Y-85897204D01*
X162610000Y-85897204D01*
X162599500Y-85999983D01*
X162599500Y-86800001D01*
X162599501Y-86800019D01*
X162610000Y-86902796D01*
X162610001Y-86902799D01*
X162642205Y-86999983D01*
X162665186Y-87069334D01*
X162757288Y-87218656D01*
X162881344Y-87342712D01*
X163030666Y-87434814D01*
X163197203Y-87489999D01*
X163299991Y-87500500D01*
X164300008Y-87500499D01*
X164300016Y-87500498D01*
X164300019Y-87500498D01*
X164356302Y-87494748D01*
X164402797Y-87489999D01*
X164569334Y-87434814D01*
X164718656Y-87342712D01*
X164842712Y-87218656D01*
X164934814Y-87069334D01*
X164957795Y-86999981D01*
X164997566Y-86942538D01*
X165062082Y-86915715D01*
X165130858Y-86928030D01*
X165182058Y-86975573D01*
X165199500Y-87038987D01*
X165199500Y-87299902D01*
X165179815Y-87366941D01*
X165163181Y-87387583D01*
X163393981Y-89156782D01*
X163393980Y-89156784D01*
X163359356Y-89216755D01*
X163314923Y-89293715D01*
X163273999Y-89446443D01*
X163273999Y-89446445D01*
X163273999Y-89614546D01*
X163274000Y-89614559D01*
X163274000Y-92727830D01*
X163273999Y-92727848D01*
X163273999Y-92893554D01*
X163273998Y-92893554D01*
X163274151Y-92894124D01*
X163314923Y-93046285D01*
X163317338Y-93050468D01*
X163317341Y-93050479D01*
X163317344Y-93050478D01*
X163393977Y-93183212D01*
X163393981Y-93183217D01*
X163512849Y-93302085D01*
X163512855Y-93302090D01*
X163687238Y-93476473D01*
X163720723Y-93537796D01*
X163719332Y-93596247D01*
X163689158Y-93708857D01*
X163689156Y-93708867D01*
X163668935Y-93939999D01*
X163668935Y-93940000D01*
X163689156Y-94171132D01*
X163689158Y-94171142D01*
X163749205Y-94395243D01*
X163749207Y-94395247D01*
X163749208Y-94395251D01*
X163780235Y-94461788D01*
X163847263Y-94605532D01*
X163847264Y-94605533D01*
X163980345Y-94795592D01*
X164144408Y-94959655D01*
X164334467Y-95092736D01*
X164345529Y-95097894D01*
X164397968Y-95144066D01*
X164417120Y-95211260D01*
X164396904Y-95278141D01*
X164345532Y-95322657D01*
X164334718Y-95327699D01*
X164256218Y-95382664D01*
X164256218Y-95382665D01*
X164812211Y-95938657D01*
X164779409Y-95947447D01*
X164649091Y-96022687D01*
X164542687Y-96129091D01*
X164467447Y-96259409D01*
X164458657Y-96292210D01*
X163902665Y-95736218D01*
X163902664Y-95736218D01*
X163847699Y-95814718D01*
X163847698Y-95814720D01*
X163749681Y-96024917D01*
X163689651Y-96248948D01*
X163689650Y-96248955D01*
X163669437Y-96479998D01*
X163669437Y-96480001D01*
X163689650Y-96711044D01*
X163689651Y-96711051D01*
X163749678Y-96935074D01*
X163749681Y-96935080D01*
X163847698Y-97145280D01*
X163847699Y-97145282D01*
X163902664Y-97223780D01*
X163902665Y-97223781D01*
X164458657Y-96667788D01*
X164467447Y-96700591D01*
X164542687Y-96830909D01*
X164649091Y-96937313D01*
X164779409Y-97012553D01*
X164812210Y-97021342D01*
X164256217Y-97577334D01*
X164256217Y-97577335D01*
X164334717Y-97632300D01*
X164334719Y-97632301D01*
X164544919Y-97730318D01*
X164544925Y-97730321D01*
X164768948Y-97790348D01*
X164768955Y-97790349D01*
X164999998Y-97810563D01*
X165000002Y-97810563D01*
X165231044Y-97790349D01*
X165231051Y-97790348D01*
X165455074Y-97730321D01*
X165455080Y-97730318D01*
X165665281Y-97632300D01*
X165743781Y-97577334D01*
X165187788Y-97021342D01*
X165220591Y-97012553D01*
X165350909Y-96937313D01*
X165457313Y-96830909D01*
X165532553Y-96700591D01*
X165541342Y-96667789D01*
X166097334Y-97223781D01*
X166152300Y-97145281D01*
X166250318Y-96935080D01*
X166250321Y-96935074D01*
X166310348Y-96711051D01*
X166310349Y-96711044D01*
X166330563Y-96480001D01*
X166330563Y-96479998D01*
X166310349Y-96248955D01*
X166310348Y-96248948D01*
X166250318Y-96024917D01*
X166152302Y-95814721D01*
X166097333Y-95736219D01*
X165541342Y-96292210D01*
X165532553Y-96259409D01*
X165457313Y-96129091D01*
X165350909Y-96022687D01*
X165220591Y-95947447D01*
X165187789Y-95938657D01*
X165743781Y-95382665D01*
X165743780Y-95382664D01*
X165665282Y-95327699D01*
X165665278Y-95327697D01*
X165654473Y-95322659D01*
X165602032Y-95276488D01*
X165582879Y-95209295D01*
X165603093Y-95142413D01*
X165654472Y-95097893D01*
X165665533Y-95092736D01*
X165855592Y-94959655D01*
X166019655Y-94795592D01*
X166152736Y-94605533D01*
X166250792Y-94395251D01*
X166310843Y-94171137D01*
X166331065Y-93940000D01*
X166310843Y-93708863D01*
X166250792Y-93484749D01*
X166152736Y-93274468D01*
X166152734Y-93274465D01*
X166152733Y-93274463D01*
X166019654Y-93084406D01*
X165855596Y-92920349D01*
X165855592Y-92920345D01*
X165665533Y-92787264D01*
X165655064Y-92782382D01*
X165602624Y-92736212D01*
X165583471Y-92669019D01*
X165603685Y-92602137D01*
X165655064Y-92557617D01*
X165665533Y-92552736D01*
X165855592Y-92419655D01*
X166019655Y-92255592D01*
X166152736Y-92065533D01*
X166250792Y-91855251D01*
X166310843Y-91631137D01*
X166331065Y-91400000D01*
X166310843Y-91168863D01*
X166250792Y-90944749D01*
X166152736Y-90734468D01*
X166152734Y-90734465D01*
X166152733Y-90734463D01*
X166019654Y-90544406D01*
X165855596Y-90380349D01*
X165855592Y-90380345D01*
X165695847Y-90268490D01*
X165665532Y-90247263D01*
X165560392Y-90198236D01*
X165455251Y-90149208D01*
X165455247Y-90149207D01*
X165455243Y-90149205D01*
X165231142Y-90089158D01*
X165231132Y-90089156D01*
X165000001Y-90068935D01*
X164999999Y-90068935D01*
X164768867Y-90089156D01*
X164768857Y-90089158D01*
X164631093Y-90126072D01*
X164561243Y-90124409D01*
X164503381Y-90085246D01*
X164475877Y-90021018D01*
X164475000Y-90006297D01*
X164475000Y-89825596D01*
X164494685Y-89758557D01*
X164511314Y-89737920D01*
X166112416Y-88136817D01*
X166173739Y-88103333D01*
X166200097Y-88100499D01*
X166900002Y-88100499D01*
X166900008Y-88100499D01*
X167002797Y-88089999D01*
X167169334Y-88034814D01*
X167318656Y-87942712D01*
X167442712Y-87818656D01*
X167534814Y-87669334D01*
X167589999Y-87502797D01*
X167600500Y-87400009D01*
X167600499Y-86599992D01*
X167589999Y-86497203D01*
X167534814Y-86330666D01*
X167442712Y-86181344D01*
X167349049Y-86087681D01*
X167315564Y-86026358D01*
X167320548Y-85956666D01*
X167349049Y-85912319D01*
X167372822Y-85888546D01*
X167442712Y-85818656D01*
X167534814Y-85669334D01*
X167589999Y-85502797D01*
X167600500Y-85400009D01*
X167600499Y-84599992D01*
X167595343Y-84549522D01*
X167589999Y-84497203D01*
X167589998Y-84497200D01*
X167579390Y-84465187D01*
X167534814Y-84330666D01*
X167442712Y-84181344D01*
X167381732Y-84120364D01*
X167348247Y-84059041D01*
X167353231Y-83989349D01*
X167381732Y-83945002D01*
X168033239Y-83293495D01*
X168712821Y-82613912D01*
X168774142Y-82580429D01*
X168843834Y-82585413D01*
X168899767Y-82627285D01*
X168924184Y-82692749D01*
X168924500Y-82701595D01*
X168924500Y-83640370D01*
X168924501Y-83640376D01*
X168930908Y-83699983D01*
X168981202Y-83834828D01*
X168981206Y-83834835D01*
X169067452Y-83950044D01*
X169067455Y-83950047D01*
X169182664Y-84036293D01*
X169182671Y-84036297D01*
X169317517Y-84086591D01*
X169317516Y-84086591D01*
X169324444Y-84087335D01*
X169377127Y-84093000D01*
X171002872Y-84092999D01*
X171062483Y-84086591D01*
X171197331Y-84036296D01*
X171312546Y-83950046D01*
X171398796Y-83834831D01*
X171449091Y-83699983D01*
X171455500Y-83640373D01*
X171455499Y-83606934D01*
X171475182Y-83539898D01*
X171527984Y-83494142D01*
X171597143Y-83484197D01*
X171660699Y-83513220D01*
X171681073Y-83535811D01*
X171756862Y-83644047D01*
X171756868Y-83644055D01*
X171913445Y-83800632D01*
X172094833Y-83927642D01*
X172215572Y-83983943D01*
X172295513Y-84021220D01*
X172295515Y-84021220D01*
X172295520Y-84021223D01*
X172509409Y-84078535D01*
X172666974Y-84092320D01*
X172729998Y-84097834D01*
X172730000Y-84097834D01*
X172730002Y-84097834D01*
X172760575Y-84095159D01*
X172950591Y-84078535D01*
X173024352Y-84058770D01*
X173094201Y-84060431D01*
X173144128Y-84090863D01*
X173363181Y-84309916D01*
X173396666Y-84371239D01*
X173399500Y-84397597D01*
X173399500Y-109313330D01*
X173399499Y-109313348D01*
X173399499Y-109479054D01*
X173399498Y-109479054D01*
X173399499Y-109479057D01*
X173440423Y-109631785D01*
X173440424Y-109631787D01*
X173440423Y-109631787D01*
X173445691Y-109640910D01*
X173445692Y-109640911D01*
X173519477Y-109768712D01*
X173519481Y-109768717D01*
X173638349Y-109887585D01*
X173638355Y-109887590D01*
X176338584Y-112587819D01*
X176372069Y-112649142D01*
X176367085Y-112718834D01*
X176325213Y-112774767D01*
X176259749Y-112799184D01*
X176250903Y-112799500D01*
X161825585Y-112799500D01*
X161758546Y-112779815D01*
X161737904Y-112763181D01*
X154836819Y-105862096D01*
X154803334Y-105800773D01*
X154800500Y-105774415D01*
X154800500Y-104478711D01*
X159549500Y-104478711D01*
X159549500Y-104721288D01*
X159581161Y-104961785D01*
X159643947Y-105196104D01*
X159676213Y-105274000D01*
X159736776Y-105420212D01*
X159858064Y-105630289D01*
X159858066Y-105630292D01*
X159858067Y-105630293D01*
X160005733Y-105822736D01*
X160005739Y-105822743D01*
X160177256Y-105994260D01*
X160177263Y-105994266D01*
X160188381Y-106002797D01*
X160369711Y-106141936D01*
X160579788Y-106263224D01*
X160803900Y-106356054D01*
X161038211Y-106418838D01*
X161216540Y-106442315D01*
X161278711Y-106450500D01*
X161278712Y-106450500D01*
X161521289Y-106450500D01*
X161583460Y-106442315D01*
X161761789Y-106418838D01*
X161996100Y-106356054D01*
X162220212Y-106263224D01*
X162430289Y-106141936D01*
X162622738Y-105994265D01*
X162794265Y-105822738D01*
X162941936Y-105630289D01*
X163063224Y-105420212D01*
X163156054Y-105196100D01*
X163218838Y-104961789D01*
X163250500Y-104721288D01*
X163250500Y-104478712D01*
X163218838Y-104238211D01*
X163156054Y-104003900D01*
X163063224Y-103779788D01*
X162941936Y-103569711D01*
X162859964Y-103462883D01*
X162794266Y-103377263D01*
X162794260Y-103377256D01*
X162622743Y-103205739D01*
X162622736Y-103205733D01*
X162430293Y-103058067D01*
X162430292Y-103058066D01*
X162430289Y-103058064D01*
X162220212Y-102936776D01*
X162220205Y-102936773D01*
X161996104Y-102843947D01*
X161761785Y-102781161D01*
X161521289Y-102749500D01*
X161521288Y-102749500D01*
X161278712Y-102749500D01*
X161278711Y-102749500D01*
X161038214Y-102781161D01*
X160803895Y-102843947D01*
X160579794Y-102936773D01*
X160579785Y-102936777D01*
X160369706Y-103058067D01*
X160177263Y-103205733D01*
X160177256Y-103205739D01*
X160005739Y-103377256D01*
X160005733Y-103377263D01*
X159858067Y-103569706D01*
X159858064Y-103569710D01*
X159858064Y-103569711D01*
X159841817Y-103597851D01*
X159736777Y-103779785D01*
X159736773Y-103779794D01*
X159643947Y-104003895D01*
X159581161Y-104238214D01*
X159549500Y-104478711D01*
X154800500Y-104478711D01*
X154800500Y-87724500D01*
X154820185Y-87657461D01*
X154872989Y-87611706D01*
X154924500Y-87600500D01*
X155613031Y-87600500D01*
X155613047Y-87600501D01*
X155620643Y-87600501D01*
X155778754Y-87600501D01*
X155778757Y-87600501D01*
X155931485Y-87559577D01*
X155981604Y-87530639D01*
X156068416Y-87480520D01*
X156180220Y-87368716D01*
X156180220Y-87368714D01*
X156190428Y-87358507D01*
X156190430Y-87358504D01*
X160668321Y-82880612D01*
X160729642Y-82847129D01*
X160788095Y-82848521D01*
X160859924Y-82867768D01*
X160859925Y-82867768D01*
X160859932Y-82867770D01*
X161047226Y-82884155D01*
X161079998Y-82887023D01*
X161080000Y-82887023D01*
X161080002Y-82887023D01*
X161135017Y-82882209D01*
X161300068Y-82867770D01*
X161513450Y-82810594D01*
X161713662Y-82717234D01*
X161894620Y-82590526D01*
X162050826Y-82434320D01*
X162177534Y-82253362D01*
X162270894Y-82053150D01*
X162328070Y-81839768D01*
X162345102Y-81645083D01*
X162347323Y-81619702D01*
X162347323Y-81619697D01*
X162335208Y-81481223D01*
X162328070Y-81399632D01*
X162270894Y-81186250D01*
X162177534Y-80986039D01*
X162082614Y-80850478D01*
X162050827Y-80805081D01*
X161973562Y-80727816D01*
X161894620Y-80648874D01*
X161894616Y-80648871D01*
X161894615Y-80648870D01*
X161713666Y-80522168D01*
X161713658Y-80522164D01*
X161584811Y-80462082D01*
X161532371Y-80415910D01*
X161513219Y-80348717D01*
X161533435Y-80281835D01*
X161584811Y-80237318D01*
X161590802Y-80234524D01*
X161713662Y-80177234D01*
X161894620Y-80050526D01*
X162050826Y-79894320D01*
X162177534Y-79713362D01*
X162270894Y-79513150D01*
X162328070Y-79299768D01*
X162346091Y-79093779D01*
X162347323Y-79079702D01*
X162347323Y-79079697D01*
X162338143Y-78974767D01*
X162328070Y-78859632D01*
X162270894Y-78646250D01*
X162177534Y-78446039D01*
X162050826Y-78265080D01*
X161894620Y-78108874D01*
X161894616Y-78108871D01*
X161894615Y-78108870D01*
X161713666Y-77982168D01*
X161713662Y-77982166D01*
X161638683Y-77947203D01*
X161513450Y-77888806D01*
X161513447Y-77888805D01*
X161513445Y-77888804D01*
X161300070Y-77831630D01*
X161300062Y-77831629D01*
X161080002Y-77812377D01*
X161079998Y-77812377D01*
X160859937Y-77831629D01*
X160859929Y-77831630D01*
X160646554Y-77888804D01*
X160646548Y-77888807D01*
X160446340Y-77982165D01*
X160446338Y-77982166D01*
X160265377Y-78108875D01*
X160109175Y-78265077D01*
X159982466Y-78446038D01*
X159982465Y-78446040D01*
X159922382Y-78574889D01*
X159876209Y-78627328D01*
X159809016Y-78646480D01*
X159742135Y-78626264D01*
X159697618Y-78574889D01*
X159643811Y-78459500D01*
X159637534Y-78446039D01*
X159510826Y-78265080D01*
X159354620Y-78108874D01*
X159354616Y-78108871D01*
X159354615Y-78108870D01*
X159173666Y-77982168D01*
X159173662Y-77982166D01*
X159098683Y-77947203D01*
X158973450Y-77888806D01*
X158973447Y-77888805D01*
X158973445Y-77888804D01*
X158760070Y-77831630D01*
X158760062Y-77831629D01*
X158540002Y-77812377D01*
X158539998Y-77812377D01*
X158319937Y-77831629D01*
X158319929Y-77831630D01*
X158106554Y-77888804D01*
X158106548Y-77888807D01*
X157906340Y-77982165D01*
X157906338Y-77982166D01*
X157725377Y-78108875D01*
X157569175Y-78265077D01*
X157442466Y-78446038D01*
X157442465Y-78446040D01*
X157382382Y-78574889D01*
X157336209Y-78627328D01*
X157269016Y-78646480D01*
X157202135Y-78626264D01*
X157157618Y-78574889D01*
X157103811Y-78459500D01*
X157097534Y-78446039D01*
X156970826Y-78265080D01*
X156814620Y-78108874D01*
X156814616Y-78108871D01*
X156814615Y-78108870D01*
X156633666Y-77982168D01*
X156633662Y-77982166D01*
X156558683Y-77947203D01*
X156433450Y-77888806D01*
X156433447Y-77888805D01*
X156433445Y-77888804D01*
X156220070Y-77831630D01*
X156220062Y-77831629D01*
X156000002Y-77812377D01*
X155999998Y-77812377D01*
X155779937Y-77831629D01*
X155779929Y-77831630D01*
X155566554Y-77888804D01*
X155566548Y-77888807D01*
X155366340Y-77982165D01*
X155366338Y-77982166D01*
X155185377Y-78108875D01*
X155029175Y-78265077D01*
X154902466Y-78446038D01*
X154902465Y-78446040D01*
X154842382Y-78574889D01*
X154796209Y-78627328D01*
X154729016Y-78646480D01*
X154662135Y-78626264D01*
X154617618Y-78574889D01*
X154563811Y-78459500D01*
X154557534Y-78446039D01*
X154430826Y-78265080D01*
X154274620Y-78108874D01*
X154274616Y-78108871D01*
X154274615Y-78108870D01*
X154093666Y-77982168D01*
X154093662Y-77982166D01*
X154018683Y-77947203D01*
X153893450Y-77888806D01*
X153893447Y-77888805D01*
X153893445Y-77888804D01*
X153680070Y-77831630D01*
X153680062Y-77831629D01*
X153460002Y-77812377D01*
X153459998Y-77812377D01*
X153239937Y-77831629D01*
X153239929Y-77831630D01*
X153026554Y-77888804D01*
X153026548Y-77888807D01*
X152826340Y-77982165D01*
X152826338Y-77982166D01*
X152645377Y-78108875D01*
X152489175Y-78265077D01*
X152362466Y-78446038D01*
X152362465Y-78446040D01*
X152302382Y-78574889D01*
X152256209Y-78627328D01*
X152189016Y-78646480D01*
X152122135Y-78626264D01*
X152077618Y-78574889D01*
X152023811Y-78459500D01*
X152017534Y-78446039D01*
X151890826Y-78265080D01*
X151734620Y-78108874D01*
X151734616Y-78108871D01*
X151734615Y-78108870D01*
X151553666Y-77982168D01*
X151553662Y-77982166D01*
X151478683Y-77947203D01*
X151353450Y-77888806D01*
X151353447Y-77888805D01*
X151353445Y-77888804D01*
X151140070Y-77831630D01*
X151140062Y-77831629D01*
X150920002Y-77812377D01*
X150919998Y-77812377D01*
X150699937Y-77831629D01*
X150699929Y-77831630D01*
X150486554Y-77888804D01*
X150486548Y-77888807D01*
X150286340Y-77982165D01*
X150286338Y-77982166D01*
X150105377Y-78108875D01*
X149949175Y-78265077D01*
X149822466Y-78446038D01*
X149822465Y-78446040D01*
X149729107Y-78646248D01*
X149729104Y-78646254D01*
X149671930Y-78859629D01*
X149671929Y-78859637D01*
X149652677Y-79079697D01*
X146300500Y-79079697D01*
X146300500Y-72599998D01*
X186014532Y-72599998D01*
X186014532Y-72600001D01*
X186034364Y-72826686D01*
X186034366Y-72826697D01*
X186093258Y-73046488D01*
X186093261Y-73046497D01*
X186189431Y-73252732D01*
X186189432Y-73252734D01*
X186319954Y-73439141D01*
X186480858Y-73600045D01*
X186480861Y-73600047D01*
X186667266Y-73730568D01*
X186873504Y-73826739D01*
X186873509Y-73826740D01*
X186873511Y-73826741D01*
X186915344Y-73837950D01*
X187093308Y-73885635D01*
X187235361Y-73898063D01*
X187319998Y-73905468D01*
X187320000Y-73905468D01*
X187320002Y-73905468D01*
X187376673Y-73900509D01*
X187546692Y-73885635D01*
X187642932Y-73859847D01*
X187712781Y-73861510D01*
X187762706Y-73891941D01*
X192658583Y-78787819D01*
X192692068Y-78849142D01*
X192687084Y-78918834D01*
X192645212Y-78974767D01*
X192579748Y-78999184D01*
X192570903Y-78999500D01*
X192399999Y-78999500D01*
X192399980Y-78999501D01*
X192297203Y-79010000D01*
X192297200Y-79010001D01*
X192130668Y-79065185D01*
X192130663Y-79065187D01*
X191981342Y-79157289D01*
X191857289Y-79281342D01*
X191765187Y-79430663D01*
X191765185Y-79430668D01*
X191752597Y-79468656D01*
X191710001Y-79597203D01*
X191710001Y-79597204D01*
X191710000Y-79597204D01*
X191699500Y-79699983D01*
X191699500Y-80700001D01*
X191699501Y-80700019D01*
X191710000Y-80802796D01*
X191710001Y-80802799D01*
X191749721Y-80922663D01*
X191765186Y-80969334D01*
X191857288Y-81118656D01*
X191981344Y-81242712D01*
X192130666Y-81334814D01*
X192297203Y-81389999D01*
X192399991Y-81400500D01*
X193200008Y-81400499D01*
X193200016Y-81400498D01*
X193200019Y-81400498D01*
X193256302Y-81394748D01*
X193302797Y-81389999D01*
X193469334Y-81334814D01*
X193618656Y-81242712D01*
X193712319Y-81149049D01*
X193773642Y-81115564D01*
X193843334Y-81120548D01*
X193887681Y-81149049D01*
X193981344Y-81242712D01*
X194130666Y-81334814D01*
X194297203Y-81389999D01*
X194399991Y-81400500D01*
X194729636Y-81400499D01*
X194796675Y-81420183D01*
X194837023Y-81462499D01*
X194869477Y-81518712D01*
X194869481Y-81518717D01*
X194938583Y-81587819D01*
X194972068Y-81649142D01*
X194967084Y-81718834D01*
X194925212Y-81774767D01*
X194859748Y-81799184D01*
X194850903Y-81799500D01*
X194699999Y-81799500D01*
X194699980Y-81799501D01*
X194597203Y-81810000D01*
X194597200Y-81810001D01*
X194430668Y-81865185D01*
X194430663Y-81865187D01*
X194281342Y-81957289D01*
X194157289Y-82081342D01*
X194065187Y-82230663D01*
X194065185Y-82230668D01*
X194054827Y-82261926D01*
X194010001Y-82397203D01*
X194010001Y-82397204D01*
X194010000Y-82397204D01*
X193999500Y-82499983D01*
X193999500Y-83900001D01*
X193999501Y-83900018D01*
X194010000Y-84002796D01*
X194010001Y-84002799D01*
X194065185Y-84169331D01*
X194065187Y-84169336D01*
X194072594Y-84181344D01*
X194157288Y-84318656D01*
X194281344Y-84442712D01*
X194430666Y-84534814D01*
X194597203Y-84589999D01*
X194699991Y-84600500D01*
X195625008Y-84600499D01*
X195649304Y-84598017D01*
X195717997Y-84610786D01*
X195768881Y-84658667D01*
X195785802Y-84726457D01*
X195767445Y-84786471D01*
X195740189Y-84830659D01*
X195740185Y-84830668D01*
X195723666Y-84880520D01*
X195685001Y-84997203D01*
X195685001Y-84997204D01*
X195685000Y-84997204D01*
X195674500Y-85099983D01*
X195674500Y-86500001D01*
X195674501Y-86500018D01*
X195685000Y-86602796D01*
X195685001Y-86602799D01*
X195740185Y-86769331D01*
X195740187Y-86769336D01*
X195770608Y-86818656D01*
X195832288Y-86918656D01*
X195956344Y-87042712D01*
X196105666Y-87134814D01*
X196272203Y-87189999D01*
X196374991Y-87200500D01*
X197300008Y-87200499D01*
X197300016Y-87200498D01*
X197300019Y-87200498D01*
X197356302Y-87194748D01*
X197402797Y-87189999D01*
X197569334Y-87134814D01*
X197718656Y-87042712D01*
X197842712Y-86918656D01*
X197934814Y-86769334D01*
X197989999Y-86602797D01*
X198000500Y-86500009D01*
X198000499Y-85099992D01*
X197997367Y-85069336D01*
X197989999Y-84997203D01*
X197989998Y-84997200D01*
X197979390Y-84965187D01*
X197934814Y-84830666D01*
X197842712Y-84681344D01*
X197718656Y-84557288D01*
X197569334Y-84465186D01*
X197402797Y-84410001D01*
X197402795Y-84410000D01*
X197300010Y-84399500D01*
X196374998Y-84399500D01*
X196374972Y-84399502D01*
X196350691Y-84401982D01*
X196281998Y-84389210D01*
X196231115Y-84341328D01*
X196214197Y-84273538D01*
X196232553Y-84213530D01*
X196259814Y-84169334D01*
X196314999Y-84002797D01*
X196325500Y-83900009D01*
X196325499Y-83385095D01*
X196345183Y-83318057D01*
X196361812Y-83297420D01*
X196512322Y-83146910D01*
X196573641Y-83113429D01*
X196643332Y-83118413D01*
X196687680Y-83146914D01*
X196834261Y-83293495D01*
X196861141Y-83333723D01*
X196894655Y-83414632D01*
X196911986Y-83456472D01*
X197003832Y-83576168D01*
X197123528Y-83668014D01*
X197123531Y-83668015D01*
X197123532Y-83668016D01*
X197193222Y-83696882D01*
X197262917Y-83725751D01*
X197374947Y-83740500D01*
X198515052Y-83740499D01*
X198515054Y-83740499D01*
X198627075Y-83725752D01*
X198627074Y-83725752D01*
X198627083Y-83725751D01*
X198766467Y-83668016D01*
X198766468Y-83668016D01*
X198766468Y-83668015D01*
X198766472Y-83668014D01*
X198886168Y-83576168D01*
X198978014Y-83456472D01*
X199035751Y-83317083D01*
X199050500Y-83205053D01*
X199050499Y-82694948D01*
X199049915Y-82690514D01*
X199035752Y-82582924D01*
X199035751Y-82582920D01*
X199035751Y-82582917D01*
X199010704Y-82522449D01*
X199003236Y-82452984D01*
X199010702Y-82427556D01*
X199035751Y-82367083D01*
X199050500Y-82255053D01*
X199050499Y-81744948D01*
X199048183Y-81727358D01*
X199035752Y-81632924D01*
X199035751Y-81632920D01*
X199035751Y-81632917D01*
X199010704Y-81572449D01*
X199003236Y-81502984D01*
X199010702Y-81477556D01*
X199035751Y-81417083D01*
X199050500Y-81305053D01*
X199050499Y-80794948D01*
X199044183Y-80746968D01*
X199043356Y-80740684D01*
X199054122Y-80671649D01*
X199100503Y-80619393D01*
X199166295Y-80600500D01*
X199233705Y-80600500D01*
X199300744Y-80620185D01*
X199346499Y-80672989D01*
X199356643Y-80740684D01*
X199356222Y-80743889D01*
X199349500Y-80794939D01*
X199349500Y-81305054D01*
X199364247Y-81417079D01*
X199389294Y-81477548D01*
X199396762Y-81547018D01*
X199389294Y-81572451D01*
X199364249Y-81632916D01*
X199364249Y-81632917D01*
X199349500Y-81744939D01*
X199349500Y-82255054D01*
X199364247Y-82367079D01*
X199389294Y-82427548D01*
X199396762Y-82497018D01*
X199389294Y-82522451D01*
X199364249Y-82582916D01*
X199364249Y-82582917D01*
X199349500Y-82694939D01*
X199349500Y-83205054D01*
X199364247Y-83317075D01*
X199364250Y-83317086D01*
X199421983Y-83456467D01*
X199421983Y-83456468D01*
X199421985Y-83456471D01*
X199421986Y-83456472D01*
X199513832Y-83576168D01*
X199633528Y-83668014D01*
X199633531Y-83668015D01*
X199633532Y-83668016D01*
X199703222Y-83696882D01*
X199772917Y-83725751D01*
X199884947Y-83740500D01*
X201025052Y-83740499D01*
X201025054Y-83740499D01*
X201137075Y-83725752D01*
X201137074Y-83725752D01*
X201137083Y-83725751D01*
X201276467Y-83668016D01*
X201276468Y-83668016D01*
X201276468Y-83668015D01*
X201276472Y-83668014D01*
X201396168Y-83576168D01*
X201488014Y-83456472D01*
X201545751Y-83317083D01*
X201560500Y-83205053D01*
X201560499Y-82909094D01*
X201580183Y-82842057D01*
X201632987Y-82796302D01*
X201702146Y-82786358D01*
X201765701Y-82815383D01*
X201772180Y-82821415D01*
X201963181Y-83012416D01*
X201996666Y-83073739D01*
X201999500Y-83100097D01*
X201999500Y-84099902D01*
X201979815Y-84166941D01*
X201963181Y-84187583D01*
X201266748Y-84884015D01*
X201205425Y-84917500D01*
X201135733Y-84912516D01*
X201079800Y-84870644D01*
X201061362Y-84835338D01*
X201059814Y-84830666D01*
X200967712Y-84681344D01*
X200843656Y-84557288D01*
X200694334Y-84465186D01*
X200527797Y-84410001D01*
X200527795Y-84410000D01*
X200425010Y-84399500D01*
X199499998Y-84399500D01*
X199499980Y-84399501D01*
X199397203Y-84410000D01*
X199397200Y-84410001D01*
X199230668Y-84465185D01*
X199230663Y-84465187D01*
X199081342Y-84557289D01*
X198957289Y-84681342D01*
X198865187Y-84830663D01*
X198865185Y-84830668D01*
X198848666Y-84880520D01*
X198810001Y-84997203D01*
X198810001Y-84997204D01*
X198810000Y-84997204D01*
X198799500Y-85099983D01*
X198799500Y-86500001D01*
X198799501Y-86500018D01*
X198810000Y-86602796D01*
X198810001Y-86602799D01*
X198865185Y-86769331D01*
X198865187Y-86769336D01*
X198895608Y-86818656D01*
X198957288Y-86918656D01*
X199081344Y-87042712D01*
X199230666Y-87134814D01*
X199397203Y-87189999D01*
X199499991Y-87200500D01*
X200425008Y-87200499D01*
X200425016Y-87200498D01*
X200425019Y-87200498D01*
X200481302Y-87194748D01*
X200527797Y-87189999D01*
X200694334Y-87134814D01*
X200843656Y-87042712D01*
X200967712Y-86918656D01*
X201059814Y-86769334D01*
X201114999Y-86602797D01*
X201124285Y-86511898D01*
X201150681Y-86447207D01*
X201207861Y-86407056D01*
X201247643Y-86400501D01*
X201279054Y-86400501D01*
X201279057Y-86400501D01*
X201431785Y-86359577D01*
X201481904Y-86330639D01*
X201568716Y-86280520D01*
X201680520Y-86168716D01*
X201680520Y-86168714D01*
X201690728Y-86158507D01*
X201690730Y-86158504D01*
X202958506Y-84890728D01*
X202958511Y-84890724D01*
X202968714Y-84880520D01*
X202968716Y-84880520D01*
X203080520Y-84768716D01*
X203148784Y-84650478D01*
X203159577Y-84631785D01*
X203200501Y-84479057D01*
X203200501Y-84320943D01*
X203200501Y-84313348D01*
X203200500Y-84313330D01*
X203200500Y-84124500D01*
X203220185Y-84057461D01*
X203272989Y-84011706D01*
X203324500Y-84000500D01*
X206833331Y-84000500D01*
X206833347Y-84000501D01*
X206840943Y-84000501D01*
X206999054Y-84000501D01*
X206999057Y-84000501D01*
X207151785Y-83959577D01*
X207204252Y-83929285D01*
X207288716Y-83880520D01*
X207400520Y-83768716D01*
X207400520Y-83768714D01*
X207410724Y-83758511D01*
X207410728Y-83758506D01*
X208045548Y-83123685D01*
X212725500Y-83123685D01*
X212725500Y-83356314D01*
X212749115Y-83535680D01*
X212755863Y-83586930D01*
X212777590Y-83668016D01*
X212816068Y-83811620D01*
X212905083Y-84026521D01*
X212905088Y-84026532D01*
X213021387Y-84227966D01*
X213021398Y-84227982D01*
X213162996Y-84412517D01*
X213163002Y-84412524D01*
X213327475Y-84576997D01*
X213327482Y-84577003D01*
X213372600Y-84611623D01*
X213512026Y-84718608D01*
X213512033Y-84718612D01*
X213713467Y-84834911D01*
X213713472Y-84834913D01*
X213713475Y-84834915D01*
X213799733Y-84870644D01*
X213928379Y-84923931D01*
X213928380Y-84923931D01*
X213928382Y-84923932D01*
X214153070Y-84984137D01*
X214383693Y-85014500D01*
X214383700Y-85014500D01*
X214616300Y-85014500D01*
X214616307Y-85014500D01*
X214846930Y-84984137D01*
X215071618Y-84923932D01*
X215286525Y-84834915D01*
X215487974Y-84718608D01*
X215672519Y-84577002D01*
X215837002Y-84412519D01*
X215978608Y-84227974D01*
X216094915Y-84026525D01*
X216183932Y-83811618D01*
X216213842Y-83699993D01*
X217716533Y-83699993D01*
X217716533Y-83700004D01*
X217736765Y-83944166D01*
X217736765Y-83944169D01*
X217736766Y-83944170D01*
X217757620Y-84026521D01*
X217796911Y-84181680D01*
X217895329Y-84406050D01*
X218029333Y-84611160D01*
X218029336Y-84611163D01*
X218195275Y-84791421D01*
X218195278Y-84791423D01*
X218195281Y-84791426D01*
X218388616Y-84941905D01*
X218388620Y-84941908D01*
X218490790Y-84997200D01*
X218604098Y-85058519D01*
X218604101Y-85058520D01*
X218835826Y-85138071D01*
X218835828Y-85138071D01*
X218835830Y-85138072D01*
X219077496Y-85178399D01*
X219077497Y-85178399D01*
X219322503Y-85178399D01*
X219322504Y-85178399D01*
X219564170Y-85138072D01*
X219795902Y-85058519D01*
X220011380Y-84941908D01*
X220204725Y-84791421D01*
X220370664Y-84611163D01*
X220504670Y-84406051D01*
X220603089Y-84181680D01*
X220663234Y-83944170D01*
X220677773Y-83768713D01*
X220683467Y-83700004D01*
X220683467Y-83699993D01*
X221916531Y-83699993D01*
X221916531Y-83700004D01*
X221936763Y-83944166D01*
X221936763Y-83944169D01*
X221936764Y-83944170D01*
X221957618Y-84026521D01*
X221996909Y-84181680D01*
X222095327Y-84406050D01*
X222229331Y-84611160D01*
X222229334Y-84611163D01*
X222395273Y-84791421D01*
X222395276Y-84791423D01*
X222395279Y-84791426D01*
X222588614Y-84941905D01*
X222588618Y-84941908D01*
X222690788Y-84997200D01*
X222804096Y-85058519D01*
X222804099Y-85058520D01*
X223035824Y-85138071D01*
X223035826Y-85138071D01*
X223035828Y-85138072D01*
X223277494Y-85178399D01*
X223277495Y-85178399D01*
X223522501Y-85178399D01*
X223522502Y-85178399D01*
X223764168Y-85138072D01*
X223995900Y-85058519D01*
X224211378Y-84941908D01*
X224404723Y-84791421D01*
X224570662Y-84611163D01*
X224704668Y-84406051D01*
X224803087Y-84181680D01*
X224863232Y-83944170D01*
X224877771Y-83768713D01*
X224883465Y-83700004D01*
X224883465Y-83699993D01*
X224864755Y-83474211D01*
X224863232Y-83455828D01*
X224803087Y-83218318D01*
X224761577Y-83123685D01*
X226325499Y-83123685D01*
X226325499Y-83356314D01*
X226349114Y-83535680D01*
X226355862Y-83586930D01*
X226377589Y-83668016D01*
X226416067Y-83811620D01*
X226505082Y-84026521D01*
X226505087Y-84026532D01*
X226621386Y-84227966D01*
X226621397Y-84227982D01*
X226762995Y-84412517D01*
X226763001Y-84412524D01*
X226927474Y-84576997D01*
X226927481Y-84577003D01*
X226972599Y-84611623D01*
X227112025Y-84718608D01*
X227112032Y-84718612D01*
X227313466Y-84834911D01*
X227313471Y-84834913D01*
X227313474Y-84834915D01*
X227399732Y-84870644D01*
X227528378Y-84923931D01*
X227528379Y-84923931D01*
X227528381Y-84923932D01*
X227753069Y-84984137D01*
X227983692Y-85014500D01*
X227983699Y-85014500D01*
X228216299Y-85014500D01*
X228216306Y-85014500D01*
X228446929Y-84984137D01*
X228671617Y-84923932D01*
X228886524Y-84834915D01*
X229087973Y-84718608D01*
X229272518Y-84577002D01*
X229437001Y-84412519D01*
X229578607Y-84227974D01*
X229694914Y-84026525D01*
X229783931Y-83811618D01*
X229844136Y-83586930D01*
X229874499Y-83356307D01*
X229874499Y-83123693D01*
X229844136Y-82893070D01*
X229783931Y-82668382D01*
X229763408Y-82618836D01*
X229739422Y-82560928D01*
X229694914Y-82453475D01*
X229694912Y-82453472D01*
X229694910Y-82453467D01*
X229578611Y-82252033D01*
X229578607Y-82252026D01*
X229476679Y-82119190D01*
X229437002Y-82067482D01*
X229436996Y-82067475D01*
X229272523Y-81903002D01*
X229272516Y-81902996D01*
X229087981Y-81761398D01*
X229087979Y-81761396D01*
X229087973Y-81761392D01*
X229087968Y-81761389D01*
X229087965Y-81761387D01*
X228886531Y-81645088D01*
X228886520Y-81645083D01*
X228671619Y-81556068D01*
X228532221Y-81518717D01*
X228446929Y-81495863D01*
X228395679Y-81489115D01*
X228216313Y-81465500D01*
X228216306Y-81465500D01*
X227983692Y-81465500D01*
X227983684Y-81465500D01*
X227800366Y-81489636D01*
X227753069Y-81495863D01*
X227696897Y-81510914D01*
X227528378Y-81556068D01*
X227313477Y-81645083D01*
X227313466Y-81645088D01*
X227112032Y-81761387D01*
X227112016Y-81761398D01*
X226927481Y-81902996D01*
X226927474Y-81903002D01*
X226763001Y-82067475D01*
X226762995Y-82067482D01*
X226621397Y-82252017D01*
X226621386Y-82252033D01*
X226505087Y-82453467D01*
X226505082Y-82453478D01*
X226416067Y-82668379D01*
X226373991Y-82825411D01*
X226357483Y-82887023D01*
X226355862Y-82893071D01*
X226325499Y-83123685D01*
X224761577Y-83123685D01*
X224704668Y-82993947D01*
X224659916Y-82925449D01*
X224570664Y-82788837D01*
X224508163Y-82720943D01*
X224404723Y-82608577D01*
X224404718Y-82608573D01*
X224404716Y-82608571D01*
X224211381Y-82458092D01*
X224211377Y-82458089D01*
X223995901Y-82341479D01*
X223995896Y-82341477D01*
X223764171Y-82261926D01*
X223576819Y-82230663D01*
X223522502Y-82221599D01*
X223277494Y-82221599D01*
X223229160Y-82229664D01*
X223035824Y-82261926D01*
X222804099Y-82341477D01*
X222804094Y-82341479D01*
X222588618Y-82458089D01*
X222588614Y-82458092D01*
X222395279Y-82608571D01*
X222395276Y-82608574D01*
X222229331Y-82788837D01*
X222095327Y-82993947D01*
X221996909Y-83218317D01*
X221936763Y-83455831D01*
X221916531Y-83699993D01*
X220683467Y-83699993D01*
X220664757Y-83474211D01*
X220663234Y-83455828D01*
X220603089Y-83218318D01*
X220504670Y-82993947D01*
X220459918Y-82925449D01*
X220370666Y-82788837D01*
X220308165Y-82720943D01*
X220204725Y-82608577D01*
X220204720Y-82608573D01*
X220204718Y-82608571D01*
X220011383Y-82458092D01*
X220011379Y-82458089D01*
X219795903Y-82341479D01*
X219795898Y-82341477D01*
X219564173Y-82261926D01*
X219376821Y-82230663D01*
X219322504Y-82221599D01*
X219077496Y-82221599D01*
X219029162Y-82229664D01*
X218835826Y-82261926D01*
X218604101Y-82341477D01*
X218604096Y-82341479D01*
X218388620Y-82458089D01*
X218388616Y-82458092D01*
X218195281Y-82608571D01*
X218195278Y-82608574D01*
X218029333Y-82788837D01*
X217895329Y-82993947D01*
X217796911Y-83218317D01*
X217736765Y-83455831D01*
X217716533Y-83699993D01*
X216213842Y-83699993D01*
X216244137Y-83586930D01*
X216274500Y-83356307D01*
X216274500Y-83123693D01*
X216244137Y-82893070D01*
X216183932Y-82668382D01*
X216163409Y-82618836D01*
X216139423Y-82560928D01*
X216094915Y-82453475D01*
X216094913Y-82453472D01*
X216094911Y-82453467D01*
X215978612Y-82252033D01*
X215978608Y-82252026D01*
X215876680Y-82119190D01*
X215837003Y-82067482D01*
X215836997Y-82067475D01*
X215672524Y-81903002D01*
X215672517Y-81902996D01*
X215487982Y-81761398D01*
X215487980Y-81761396D01*
X215487974Y-81761392D01*
X215487969Y-81761389D01*
X215487966Y-81761387D01*
X215286532Y-81645088D01*
X215286521Y-81645083D01*
X215071620Y-81556068D01*
X214932222Y-81518717D01*
X214846930Y-81495863D01*
X214795680Y-81489115D01*
X214616314Y-81465500D01*
X214616307Y-81465500D01*
X214383693Y-81465500D01*
X214383685Y-81465500D01*
X214200367Y-81489636D01*
X214153070Y-81495863D01*
X214096898Y-81510914D01*
X213928379Y-81556068D01*
X213713478Y-81645083D01*
X213713467Y-81645088D01*
X213512033Y-81761387D01*
X213512017Y-81761398D01*
X213327482Y-81902996D01*
X213327475Y-81903002D01*
X213163002Y-82067475D01*
X213162996Y-82067482D01*
X213021398Y-82252017D01*
X213021387Y-82252033D01*
X212905088Y-82453467D01*
X212905083Y-82453478D01*
X212816068Y-82668379D01*
X212773992Y-82825411D01*
X212757484Y-82887023D01*
X212755863Y-82893071D01*
X212725500Y-83123685D01*
X208045548Y-83123685D01*
X208316944Y-82852289D01*
X208378265Y-82818806D01*
X208447957Y-82823790D01*
X208452031Y-82825393D01*
X208503889Y-82846873D01*
X208748852Y-82905683D01*
X209000000Y-82925449D01*
X209251148Y-82905683D01*
X209496111Y-82846873D01*
X209728859Y-82750466D01*
X209943659Y-82618836D01*
X210135224Y-82455224D01*
X210298836Y-82263659D01*
X210430466Y-82048859D01*
X210526873Y-81816111D01*
X210585683Y-81571148D01*
X210605449Y-81320000D01*
X210585683Y-81068852D01*
X210526873Y-80823889D01*
X210521697Y-80811392D01*
X210505412Y-80772076D01*
X210497943Y-80702606D01*
X210529218Y-80640127D01*
X210532263Y-80636972D01*
X211740520Y-79428716D01*
X211819577Y-79291784D01*
X211860501Y-79139057D01*
X211860501Y-78980942D01*
X211860501Y-78973347D01*
X211860500Y-78973329D01*
X211860500Y-73974499D01*
X211880185Y-73907460D01*
X211932989Y-73861705D01*
X211984500Y-73850499D01*
X212057871Y-73850499D01*
X212057872Y-73850499D01*
X212117483Y-73844091D01*
X212252331Y-73793796D01*
X212367546Y-73707546D01*
X212453796Y-73592331D01*
X212504091Y-73457483D01*
X212509858Y-73403842D01*
X212536593Y-73339296D01*
X212593985Y-73299447D01*
X212663810Y-73296952D01*
X212723900Y-73332604D01*
X212734721Y-73345978D01*
X212799954Y-73439141D01*
X212960858Y-73600045D01*
X212960861Y-73600047D01*
X213147266Y-73730568D01*
X213353504Y-73826739D01*
X213353509Y-73826740D01*
X213353511Y-73826741D01*
X213395344Y-73837950D01*
X213573308Y-73885635D01*
X213715361Y-73898063D01*
X213799998Y-73905468D01*
X213800000Y-73905468D01*
X213800002Y-73905468D01*
X213856673Y-73900509D01*
X214026692Y-73885635D01*
X214246496Y-73826739D01*
X214452734Y-73730568D01*
X214639139Y-73600047D01*
X214800047Y-73439139D01*
X214930568Y-73252734D01*
X215026739Y-73046496D01*
X215085635Y-72826692D01*
X215105468Y-72600000D01*
X215085635Y-72373308D01*
X215026739Y-72153504D01*
X214930568Y-71947266D01*
X214800047Y-71760861D01*
X214800045Y-71760858D01*
X214639141Y-71599954D01*
X214452734Y-71469432D01*
X214452732Y-71469431D01*
X214246497Y-71373261D01*
X214246488Y-71373258D01*
X214026697Y-71314366D01*
X214026693Y-71314365D01*
X214026692Y-71314365D01*
X214026691Y-71314364D01*
X214026686Y-71314364D01*
X213800002Y-71294532D01*
X213799998Y-71294532D01*
X213573313Y-71314364D01*
X213573302Y-71314366D01*
X213353511Y-71373258D01*
X213353502Y-71373261D01*
X213147267Y-71469431D01*
X213147265Y-71469432D01*
X212960858Y-71599954D01*
X212799956Y-71760856D01*
X212734721Y-71854022D01*
X212680144Y-71897646D01*
X212610645Y-71904839D01*
X212548291Y-71873317D01*
X212512877Y-71813087D01*
X212509856Y-71796150D01*
X212504091Y-71742516D01*
X212453797Y-71607671D01*
X212453793Y-71607664D01*
X212367547Y-71492455D01*
X212367544Y-71492452D01*
X212252335Y-71406206D01*
X212252328Y-71406202D01*
X212117482Y-71355908D01*
X212117483Y-71355908D01*
X212057883Y-71349501D01*
X212057881Y-71349500D01*
X212057873Y-71349500D01*
X212057865Y-71349500D01*
X210599096Y-71349500D01*
X210532057Y-71329815D01*
X210486302Y-71277011D01*
X210476358Y-71207853D01*
X210505383Y-71144297D01*
X210511388Y-71137846D01*
X210612418Y-71036816D01*
X210673740Y-71003334D01*
X210700097Y-71000500D01*
X216099903Y-71000500D01*
X216166942Y-71020185D01*
X216187584Y-71036819D01*
X218563181Y-73412416D01*
X218596666Y-73473739D01*
X218599500Y-73500097D01*
X218599500Y-76770079D01*
X218579815Y-76837118D01*
X218534518Y-76879133D01*
X218388630Y-76958084D01*
X218388616Y-76958093D01*
X218195281Y-77108572D01*
X218195278Y-77108575D01*
X218195275Y-77108577D01*
X218195275Y-77108578D01*
X218174965Y-77130641D01*
X218029333Y-77288838D01*
X217895329Y-77493948D01*
X217796911Y-77718318D01*
X217736765Y-77955832D01*
X217716533Y-78199994D01*
X217716533Y-78200005D01*
X217736765Y-78444167D01*
X217796911Y-78681681D01*
X217895329Y-78906051D01*
X218029333Y-79111161D01*
X218029336Y-79111164D01*
X218195275Y-79291422D01*
X218195278Y-79291424D01*
X218195281Y-79291427D01*
X218388616Y-79441906D01*
X218388620Y-79441909D01*
X218520263Y-79513151D01*
X218604098Y-79558520D01*
X218604101Y-79558521D01*
X218835826Y-79638072D01*
X218835828Y-79638072D01*
X218835830Y-79638073D01*
X219077496Y-79678400D01*
X219077497Y-79678400D01*
X219322503Y-79678400D01*
X219322504Y-79678400D01*
X219564170Y-79638073D01*
X219795902Y-79558520D01*
X220011380Y-79441909D01*
X220204725Y-79291422D01*
X220370664Y-79111164D01*
X220504670Y-78906052D01*
X220603089Y-78681681D01*
X220663234Y-78444171D01*
X220677773Y-78268716D01*
X220683467Y-78200005D01*
X220683467Y-78199994D01*
X221916531Y-78199994D01*
X221916531Y-78200005D01*
X221936763Y-78444167D01*
X221996909Y-78681681D01*
X222095327Y-78906051D01*
X222229331Y-79111161D01*
X222229334Y-79111164D01*
X222395273Y-79291422D01*
X222395276Y-79291424D01*
X222395279Y-79291427D01*
X222588614Y-79441906D01*
X222588618Y-79441909D01*
X222720261Y-79513151D01*
X222804096Y-79558520D01*
X222804099Y-79558521D01*
X223035824Y-79638072D01*
X223035826Y-79638072D01*
X223035828Y-79638073D01*
X223277494Y-79678400D01*
X223277495Y-79678400D01*
X223522501Y-79678400D01*
X223522502Y-79678400D01*
X223764168Y-79638073D01*
X223995900Y-79558520D01*
X224211378Y-79441909D01*
X224404723Y-79291422D01*
X224570662Y-79111164D01*
X224704668Y-78906052D01*
X224803087Y-78681681D01*
X224863232Y-78444171D01*
X224877771Y-78268716D01*
X224883465Y-78200005D01*
X224883465Y-78199994D01*
X224869976Y-78037219D01*
X224863232Y-77955829D01*
X224803087Y-77718319D01*
X224704668Y-77493948D01*
X224653211Y-77415187D01*
X224570664Y-77288838D01*
X224551794Y-77268340D01*
X224404723Y-77108578D01*
X224404718Y-77108574D01*
X224404716Y-77108572D01*
X224211381Y-76958093D01*
X224211377Y-76958090D01*
X223995901Y-76841480D01*
X223995896Y-76841478D01*
X223764171Y-76761927D01*
X223582918Y-76731681D01*
X223522502Y-76721600D01*
X223277494Y-76721600D01*
X223229160Y-76729665D01*
X223035824Y-76761927D01*
X222804099Y-76841478D01*
X222804094Y-76841480D01*
X222588618Y-76958090D01*
X222588614Y-76958093D01*
X222395279Y-77108572D01*
X222395276Y-77108575D01*
X222395273Y-77108577D01*
X222395273Y-77108578D01*
X222374963Y-77130641D01*
X222229331Y-77288838D01*
X222095327Y-77493948D01*
X221996909Y-77718318D01*
X221936763Y-77955832D01*
X221916531Y-78199994D01*
X220683467Y-78199994D01*
X220669978Y-78037219D01*
X220663234Y-77955829D01*
X220603089Y-77718319D01*
X220504670Y-77493948D01*
X220453213Y-77415187D01*
X220370666Y-77288838D01*
X220351796Y-77268340D01*
X220204725Y-77108578D01*
X220204720Y-77108574D01*
X220204718Y-77108572D01*
X220011383Y-76958093D01*
X220011369Y-76958084D01*
X219865482Y-76879133D01*
X219815892Y-76829914D01*
X219800500Y-76770079D01*
X219800500Y-73289059D01*
X219800501Y-73289046D01*
X219800501Y-73120945D01*
X219800501Y-73120943D01*
X219759577Y-72968215D01*
X219698638Y-72862666D01*
X219680520Y-72831284D01*
X219568716Y-72719480D01*
X219568715Y-72719479D01*
X219564385Y-72715149D01*
X219564374Y-72715139D01*
X218927946Y-72078711D01*
X225149500Y-72078711D01*
X225149500Y-72321288D01*
X225181161Y-72561785D01*
X225243947Y-72796104D01*
X225336773Y-73020205D01*
X225336776Y-73020212D01*
X225458064Y-73230289D01*
X225458066Y-73230292D01*
X225458067Y-73230293D01*
X225605733Y-73422736D01*
X225605739Y-73422743D01*
X225777256Y-73594260D01*
X225777263Y-73594266D01*
X225784797Y-73600047D01*
X225969711Y-73741936D01*
X226177157Y-73861705D01*
X226179785Y-73863222D01*
X226179790Y-73863225D01*
X226343812Y-73931165D01*
X226403900Y-73956054D01*
X226638211Y-74018838D01*
X226786460Y-74038355D01*
X226878711Y-74050500D01*
X226878712Y-74050500D01*
X227121289Y-74050500D01*
X227169388Y-74044167D01*
X227361789Y-74018838D01*
X227596100Y-73956054D01*
X227803409Y-73870184D01*
X227820210Y-73863225D01*
X227820210Y-73863224D01*
X227820212Y-73863224D01*
X228030289Y-73741936D01*
X228222738Y-73594265D01*
X228394265Y-73422738D01*
X228541936Y-73230289D01*
X228663224Y-73020212D01*
X228756054Y-72796100D01*
X228818838Y-72561789D01*
X228850500Y-72321288D01*
X228850500Y-72078712D01*
X228818838Y-71838211D01*
X228756054Y-71603900D01*
X228663224Y-71379788D01*
X228541936Y-71169711D01*
X228394265Y-70977262D01*
X228394260Y-70977256D01*
X228222743Y-70805739D01*
X228222736Y-70805733D01*
X228030293Y-70658067D01*
X228030292Y-70658066D01*
X228030289Y-70658064D01*
X227820212Y-70536776D01*
X227820205Y-70536773D01*
X227596104Y-70443947D01*
X227361785Y-70381161D01*
X227121289Y-70349500D01*
X227121288Y-70349500D01*
X226878712Y-70349500D01*
X226878711Y-70349500D01*
X226638214Y-70381161D01*
X226403895Y-70443947D01*
X226179794Y-70536773D01*
X226179785Y-70536777D01*
X225969706Y-70658067D01*
X225777263Y-70805733D01*
X225777256Y-70805739D01*
X225605739Y-70977256D01*
X225605733Y-70977263D01*
X225458067Y-71169706D01*
X225336777Y-71379785D01*
X225336773Y-71379794D01*
X225243947Y-71603895D01*
X225181161Y-71838214D01*
X225149500Y-72078711D01*
X218927946Y-72078711D01*
X216887590Y-70038355D01*
X216887588Y-70038352D01*
X216768717Y-69919481D01*
X216768716Y-69919480D01*
X216681904Y-69869360D01*
X216681904Y-69869359D01*
X216681900Y-69869358D01*
X216631785Y-69840423D01*
X216479057Y-69799499D01*
X216320943Y-69799499D01*
X216313347Y-69799499D01*
X216313331Y-69799500D01*
X210486669Y-69799500D01*
X210486653Y-69799499D01*
X210479057Y-69799499D01*
X210320943Y-69799499D01*
X210213587Y-69828265D01*
X210168210Y-69840424D01*
X210168209Y-69840425D01*
X210118096Y-69869359D01*
X210118095Y-69869360D01*
X210074689Y-69894420D01*
X210031285Y-69919479D01*
X210031282Y-69919481D01*
X209119479Y-70831284D01*
X209099499Y-70865891D01*
X209091054Y-70880520D01*
X209040423Y-70968215D01*
X208999499Y-71120943D01*
X208999499Y-71120945D01*
X208999499Y-71183662D01*
X208979814Y-71250701D01*
X208927010Y-71296456D01*
X208864692Y-71307190D01*
X208720002Y-71294532D01*
X208719998Y-71294532D01*
X208493313Y-71314364D01*
X208493302Y-71314366D01*
X208273511Y-71373258D01*
X208273502Y-71373261D01*
X208067267Y-71469431D01*
X208067265Y-71469432D01*
X207880858Y-71599954D01*
X207719954Y-71760858D01*
X207589432Y-71947265D01*
X207589431Y-71947267D01*
X207493261Y-72153502D01*
X207493258Y-72153511D01*
X207434366Y-72373302D01*
X207434364Y-72373313D01*
X207414532Y-72599998D01*
X207414532Y-72600001D01*
X207434364Y-72826686D01*
X207434366Y-72826697D01*
X207493258Y-73046488D01*
X207493261Y-73046497D01*
X207589431Y-73252732D01*
X207589432Y-73252734D01*
X207719954Y-73439141D01*
X207880858Y-73600045D01*
X207880861Y-73600047D01*
X208067266Y-73730568D01*
X208273504Y-73826739D01*
X208273509Y-73826740D01*
X208273511Y-73826741D01*
X208315344Y-73837950D01*
X208493308Y-73885635D01*
X208635361Y-73898063D01*
X208719998Y-73905468D01*
X208720000Y-73905468D01*
X208720002Y-73905468D01*
X208776673Y-73900509D01*
X208946692Y-73885635D01*
X209166496Y-73826739D01*
X209372734Y-73730568D01*
X209559139Y-73600047D01*
X209720047Y-73439139D01*
X209785278Y-73345977D01*
X209839854Y-73302353D01*
X209909352Y-73295159D01*
X209971707Y-73326681D01*
X210007122Y-73386911D01*
X210010143Y-73403847D01*
X210015909Y-73457483D01*
X210066202Y-73592328D01*
X210066206Y-73592335D01*
X210152452Y-73707544D01*
X210152455Y-73707547D01*
X210267664Y-73793793D01*
X210267671Y-73793797D01*
X210282962Y-73799500D01*
X210402517Y-73844091D01*
X210462127Y-73850500D01*
X210535500Y-73850499D01*
X210602538Y-73870183D01*
X210648294Y-73922986D01*
X210659500Y-73974499D01*
X210659500Y-78759902D01*
X210639815Y-78826941D01*
X210623185Y-78847578D01*
X210564713Y-78906051D01*
X210512180Y-78958584D01*
X210450857Y-78992068D01*
X210381165Y-78987084D01*
X210325232Y-78945212D01*
X210300815Y-78879748D01*
X210300499Y-78870924D01*
X210300499Y-78049992D01*
X210289999Y-77947203D01*
X210234814Y-77780666D01*
X210142712Y-77631344D01*
X210018656Y-77507288D01*
X209869334Y-77415186D01*
X209702797Y-77360001D01*
X209702795Y-77360000D01*
X209600010Y-77349500D01*
X208799998Y-77349500D01*
X208799980Y-77349501D01*
X208697203Y-77360000D01*
X208697200Y-77360001D01*
X208530668Y-77415185D01*
X208530663Y-77415187D01*
X208381342Y-77507289D01*
X208287681Y-77600951D01*
X208226358Y-77634436D01*
X208156666Y-77629452D01*
X208112319Y-77600951D01*
X208018657Y-77507289D01*
X208018656Y-77507288D01*
X207869334Y-77415186D01*
X207702797Y-77360001D01*
X207702795Y-77360000D01*
X207600010Y-77349500D01*
X206799998Y-77349500D01*
X206799980Y-77349501D01*
X206697203Y-77360000D01*
X206697200Y-77360001D01*
X206583690Y-77397615D01*
X206513861Y-77400017D01*
X206453820Y-77364285D01*
X206422627Y-77301764D01*
X206430188Y-77232305D01*
X206457002Y-77192232D01*
X206812416Y-76836817D01*
X206873739Y-76803333D01*
X206900097Y-76800499D01*
X207600002Y-76800499D01*
X207600008Y-76800499D01*
X207702797Y-76789999D01*
X207869334Y-76734814D01*
X208018656Y-76642712D01*
X208112319Y-76549049D01*
X208173642Y-76515564D01*
X208243334Y-76520548D01*
X208287681Y-76549049D01*
X208381344Y-76642712D01*
X208530666Y-76734814D01*
X208697203Y-76789999D01*
X208799991Y-76800500D01*
X209600008Y-76800499D01*
X209600016Y-76800498D01*
X209600019Y-76800498D01*
X209656302Y-76794748D01*
X209702797Y-76789999D01*
X209869334Y-76734814D01*
X210018656Y-76642712D01*
X210142712Y-76518656D01*
X210234814Y-76369334D01*
X210289999Y-76202797D01*
X210300500Y-76100009D01*
X210300499Y-75099992D01*
X210289999Y-74997203D01*
X210234814Y-74830666D01*
X210142712Y-74681344D01*
X210018656Y-74557288D01*
X209869334Y-74465186D01*
X209702797Y-74410001D01*
X209702795Y-74410000D01*
X209600010Y-74399500D01*
X208799998Y-74399500D01*
X208799980Y-74399501D01*
X208697203Y-74410000D01*
X208697200Y-74410001D01*
X208530668Y-74465185D01*
X208530663Y-74465187D01*
X208381342Y-74557289D01*
X208287681Y-74650951D01*
X208226358Y-74684436D01*
X208156666Y-74679452D01*
X208112319Y-74650951D01*
X208018657Y-74557289D01*
X208018656Y-74557288D01*
X207869334Y-74465186D01*
X207702797Y-74410001D01*
X207702795Y-74410000D01*
X207600010Y-74399500D01*
X206799998Y-74399500D01*
X206799980Y-74399501D01*
X206697203Y-74410000D01*
X206697200Y-74410001D01*
X206530668Y-74465185D01*
X206530663Y-74465187D01*
X206381342Y-74557289D01*
X206257289Y-74681342D01*
X206165187Y-74830663D01*
X206165186Y-74830666D01*
X206110001Y-74997203D01*
X206110001Y-74997204D01*
X206110000Y-74997204D01*
X206099500Y-75099983D01*
X206099500Y-75799902D01*
X206079815Y-75866941D01*
X206063185Y-75887579D01*
X205987583Y-75963181D01*
X205927178Y-76023586D01*
X205865855Y-76057070D01*
X205796163Y-76052086D01*
X205740230Y-76010214D01*
X205715813Y-75944750D01*
X205717879Y-75911714D01*
X205720500Y-75898541D01*
X205720500Y-74701459D01*
X205720500Y-74701456D01*
X205682052Y-74508170D01*
X205682051Y-74508169D01*
X205682051Y-74508165D01*
X205664248Y-74465185D01*
X205606635Y-74326092D01*
X205606628Y-74326079D01*
X205497139Y-74162218D01*
X205497136Y-74162214D01*
X205357785Y-74022863D01*
X205357781Y-74022860D01*
X205193920Y-73913371D01*
X205193907Y-73913364D01*
X205011839Y-73837950D01*
X205011829Y-73837947D01*
X204818543Y-73799500D01*
X204818541Y-73799500D01*
X204621459Y-73799500D01*
X204621457Y-73799500D01*
X204428170Y-73837947D01*
X204428160Y-73837950D01*
X204246092Y-73913364D01*
X204246079Y-73913371D01*
X204082218Y-74022860D01*
X204082214Y-74022863D01*
X203942867Y-74162211D01*
X203942864Y-74162214D01*
X203910995Y-74209908D01*
X203857382Y-74254712D01*
X203788056Y-74263418D01*
X203764562Y-74257197D01*
X203707485Y-74235909D01*
X203707483Y-74235908D01*
X203647883Y-74229501D01*
X203647881Y-74229500D01*
X203647873Y-74229500D01*
X203647864Y-74229500D01*
X202652129Y-74229500D01*
X202652123Y-74229501D01*
X202592518Y-74235908D01*
X202553331Y-74250524D01*
X202483639Y-74255507D01*
X202466668Y-74250523D01*
X202427485Y-74235909D01*
X202427483Y-74235908D01*
X202367883Y-74229501D01*
X202367881Y-74229500D01*
X202367873Y-74229500D01*
X202367865Y-74229500D01*
X202130097Y-74229500D01*
X202063058Y-74209815D01*
X202042416Y-74193181D01*
X201887590Y-74038355D01*
X201887588Y-74038352D01*
X201768717Y-73919481D01*
X201768716Y-73919480D01*
X201671277Y-73863224D01*
X201631785Y-73840423D01*
X201479057Y-73799499D01*
X201320943Y-73799499D01*
X201313347Y-73799499D01*
X201313331Y-73799500D01*
X199200940Y-73799500D01*
X199160019Y-73810464D01*
X199160019Y-73810465D01*
X199122751Y-73820451D01*
X199048214Y-73840423D01*
X199048209Y-73840426D01*
X198911290Y-73919475D01*
X198911282Y-73919481D01*
X198852351Y-73978413D01*
X198799480Y-74031284D01*
X198799478Y-74031286D01*
X198668553Y-74162211D01*
X198637582Y-74193182D01*
X198576259Y-74226666D01*
X198549902Y-74229500D01*
X198432130Y-74229500D01*
X198432123Y-74229501D01*
X198372518Y-74235908D01*
X198333331Y-74250524D01*
X198263639Y-74255507D01*
X198246668Y-74250523D01*
X198207485Y-74235909D01*
X198207483Y-74235908D01*
X198147883Y-74229501D01*
X198147881Y-74229500D01*
X198147873Y-74229500D01*
X198147864Y-74229500D01*
X197152129Y-74229500D01*
X197152123Y-74229501D01*
X197092514Y-74235909D01*
X197035437Y-74257197D01*
X196965745Y-74262181D01*
X196904422Y-74228695D01*
X196889004Y-74209908D01*
X196857139Y-74162218D01*
X196857137Y-74162215D01*
X196717785Y-74022863D01*
X196717781Y-74022860D01*
X196553920Y-73913371D01*
X196553907Y-73913364D01*
X196371839Y-73837950D01*
X196371829Y-73837947D01*
X196178543Y-73799500D01*
X196178541Y-73799500D01*
X195981459Y-73799500D01*
X195981457Y-73799500D01*
X195788170Y-73837947D01*
X195788160Y-73837950D01*
X195606092Y-73913364D01*
X195606079Y-73913371D01*
X195442218Y-74022860D01*
X195442214Y-74022863D01*
X195302863Y-74162214D01*
X195302860Y-74162218D01*
X195193371Y-74326079D01*
X195193364Y-74326092D01*
X195117950Y-74508160D01*
X195117947Y-74508170D01*
X195079500Y-74701456D01*
X195079500Y-75875500D01*
X195059815Y-75942539D01*
X195007011Y-75988294D01*
X194955500Y-75999500D01*
X194160097Y-75999500D01*
X194093058Y-75979815D01*
X194072416Y-75963181D01*
X192218663Y-74109428D01*
X192185178Y-74048105D01*
X192190162Y-73978413D01*
X192232034Y-73922480D01*
X192297498Y-73898063D01*
X192317142Y-73898218D01*
X192400000Y-73905468D01*
X192400002Y-73905468D01*
X192456673Y-73900509D01*
X192626692Y-73885635D01*
X192846496Y-73826739D01*
X193052734Y-73730568D01*
X193239139Y-73600047D01*
X193400047Y-73439139D01*
X193530568Y-73252734D01*
X193626739Y-73046496D01*
X193685635Y-72826692D01*
X193705468Y-72600000D01*
X193685635Y-72373308D01*
X193626739Y-72153504D01*
X193601110Y-72098543D01*
X195079499Y-72098543D01*
X195117947Y-72291829D01*
X195117950Y-72291839D01*
X195193364Y-72473907D01*
X195193371Y-72473920D01*
X195302860Y-72637781D01*
X195302863Y-72637785D01*
X195442214Y-72777136D01*
X195442218Y-72777139D01*
X195606079Y-72886628D01*
X195606092Y-72886635D01*
X195788160Y-72962049D01*
X195788165Y-72962051D01*
X195788169Y-72962051D01*
X195788170Y-72962052D01*
X195981456Y-73000500D01*
X195981459Y-73000500D01*
X196178543Y-73000500D01*
X196308582Y-72974632D01*
X196371835Y-72962051D01*
X196553914Y-72886632D01*
X196717782Y-72777139D01*
X196857139Y-72637782D01*
X196966632Y-72473914D01*
X197042051Y-72291835D01*
X197069567Y-72153504D01*
X197080500Y-72098543D01*
X203719499Y-72098543D01*
X203757947Y-72291829D01*
X203757950Y-72291839D01*
X203833364Y-72473907D01*
X203833371Y-72473920D01*
X203942860Y-72637781D01*
X203942863Y-72637785D01*
X204082214Y-72777136D01*
X204082218Y-72777139D01*
X204246079Y-72886628D01*
X204246092Y-72886635D01*
X204428160Y-72962049D01*
X204428165Y-72962051D01*
X204428169Y-72962051D01*
X204428170Y-72962052D01*
X204621456Y-73000500D01*
X204621459Y-73000500D01*
X204818543Y-73000500D01*
X204948582Y-72974632D01*
X205011835Y-72962051D01*
X205193914Y-72886632D01*
X205357782Y-72777139D01*
X205497139Y-72637782D01*
X205606632Y-72473914D01*
X205682051Y-72291835D01*
X205709567Y-72153504D01*
X205720500Y-72098543D01*
X205720500Y-70901456D01*
X205682052Y-70708170D01*
X205682051Y-70708169D01*
X205682051Y-70708165D01*
X205661299Y-70658064D01*
X205606635Y-70526092D01*
X205606628Y-70526079D01*
X205497139Y-70362218D01*
X205497136Y-70362214D01*
X205357785Y-70222863D01*
X205357781Y-70222860D01*
X205193920Y-70113371D01*
X205193907Y-70113364D01*
X205011839Y-70037950D01*
X205011829Y-70037947D01*
X204818543Y-69999500D01*
X204818541Y-69999500D01*
X204621459Y-69999500D01*
X204621457Y-69999500D01*
X204428170Y-70037947D01*
X204428160Y-70037950D01*
X204246092Y-70113364D01*
X204246079Y-70113371D01*
X204082218Y-70222860D01*
X204082214Y-70222863D01*
X203942863Y-70362214D01*
X203942860Y-70362218D01*
X203833371Y-70526079D01*
X203833364Y-70526092D01*
X203757950Y-70708160D01*
X203757947Y-70708170D01*
X203719500Y-70901456D01*
X203719500Y-70901459D01*
X203719500Y-72098541D01*
X203719500Y-72098543D01*
X203719499Y-72098543D01*
X197080500Y-72098543D01*
X197080500Y-70901456D01*
X197042052Y-70708170D01*
X197042051Y-70708169D01*
X197042051Y-70708165D01*
X197021299Y-70658064D01*
X196966635Y-70526092D01*
X196966628Y-70526079D01*
X196857139Y-70362218D01*
X196857136Y-70362214D01*
X196717785Y-70222863D01*
X196717781Y-70222860D01*
X196553920Y-70113371D01*
X196553907Y-70113364D01*
X196371839Y-70037950D01*
X196371829Y-70037947D01*
X196178543Y-69999500D01*
X196178541Y-69999500D01*
X195981459Y-69999500D01*
X195981457Y-69999500D01*
X195788170Y-70037947D01*
X195788160Y-70037950D01*
X195606092Y-70113364D01*
X195606079Y-70113371D01*
X195442218Y-70222860D01*
X195442214Y-70222863D01*
X195302863Y-70362214D01*
X195302860Y-70362218D01*
X195193371Y-70526079D01*
X195193364Y-70526092D01*
X195117950Y-70708160D01*
X195117947Y-70708170D01*
X195079500Y-70901456D01*
X195079500Y-70901459D01*
X195079500Y-72098541D01*
X195079500Y-72098543D01*
X195079499Y-72098543D01*
X193601110Y-72098543D01*
X193530568Y-71947266D01*
X193400047Y-71760861D01*
X193400045Y-71760858D01*
X193239141Y-71599954D01*
X193052734Y-71469432D01*
X193052732Y-71469431D01*
X192846497Y-71373261D01*
X192846488Y-71373258D01*
X192626697Y-71314366D01*
X192626693Y-71314365D01*
X192626692Y-71314365D01*
X192626691Y-71314364D01*
X192626686Y-71314364D01*
X192400002Y-71294532D01*
X192399998Y-71294532D01*
X192173313Y-71314364D01*
X192173302Y-71314366D01*
X191953511Y-71373258D01*
X191953502Y-71373261D01*
X191747267Y-71469431D01*
X191747265Y-71469432D01*
X191560858Y-71599954D01*
X191399956Y-71760856D01*
X191334721Y-71854022D01*
X191280144Y-71897646D01*
X191210645Y-71904839D01*
X191148291Y-71873317D01*
X191112877Y-71813087D01*
X191109856Y-71796150D01*
X191104091Y-71742516D01*
X191053797Y-71607671D01*
X191053793Y-71607664D01*
X190967547Y-71492455D01*
X190967544Y-71492452D01*
X190852335Y-71406206D01*
X190852328Y-71406202D01*
X190717482Y-71355908D01*
X190717483Y-71355908D01*
X190657883Y-71349501D01*
X190657881Y-71349500D01*
X190657873Y-71349500D01*
X190657864Y-71349500D01*
X189062129Y-71349500D01*
X189062123Y-71349501D01*
X189002516Y-71355908D01*
X188867671Y-71406202D01*
X188867664Y-71406206D01*
X188752455Y-71492452D01*
X188752452Y-71492455D01*
X188666206Y-71607664D01*
X188666202Y-71607671D01*
X188615908Y-71742516D01*
X188610142Y-71796154D01*
X188583404Y-71860705D01*
X188526012Y-71900553D01*
X188456186Y-71903046D01*
X188396098Y-71867393D01*
X188385278Y-71854021D01*
X188320045Y-71760858D01*
X188159141Y-71599954D01*
X187972734Y-71469432D01*
X187972732Y-71469431D01*
X187766497Y-71373261D01*
X187766488Y-71373258D01*
X187546697Y-71314366D01*
X187546693Y-71314365D01*
X187546692Y-71314365D01*
X187546691Y-71314364D01*
X187546686Y-71314364D01*
X187320002Y-71294532D01*
X187319998Y-71294532D01*
X187093313Y-71314364D01*
X187093302Y-71314366D01*
X186873511Y-71373258D01*
X186873502Y-71373261D01*
X186667267Y-71469431D01*
X186667265Y-71469432D01*
X186480858Y-71599954D01*
X186319954Y-71760858D01*
X186189432Y-71947265D01*
X186189431Y-71947267D01*
X186093261Y-72153502D01*
X186093258Y-72153511D01*
X186034366Y-72373302D01*
X186034364Y-72373313D01*
X186014532Y-72599998D01*
X146300500Y-72599998D01*
X146300500Y-69224500D01*
X146320185Y-69157461D01*
X146372989Y-69111706D01*
X146424500Y-69100500D01*
X230775500Y-69100500D01*
X230842539Y-69120185D01*
G37*
%TD.AperFunction*%
%TD*%
M02*
