%TF.GenerationSoftware,KiCad,Pcbnew,8.0.8*%
%TF.CreationDate,2025-04-07T16:11:34-05:00*%
%TF.ProjectId,Final Project V1,46696e61-6c20-4507-926f-6a6563742056,rev?*%
%TF.SameCoordinates,Original*%
%TF.FileFunction,Soldermask,Top*%
%TF.FilePolarity,Negative*%
%FSLAX46Y46*%
G04 Gerber Fmt 4.6, Leading zero omitted, Abs format (unit mm)*
G04 Created by KiCad (PCBNEW 8.0.8) date 2025-04-07 16:11:34*
%MOMM*%
%LPD*%
G01*
G04 APERTURE LIST*
G04 Aperture macros list*
%AMRoundRect*
0 Rectangle with rounded corners*
0 $1 Rounding radius*
0 $2 $3 $4 $5 $6 $7 $8 $9 X,Y pos of 4 corners*
0 Add a 4 corners polygon primitive as box body*
4,1,4,$2,$3,$4,$5,$6,$7,$8,$9,$2,$3,0*
0 Add four circle primitives for the rounded corners*
1,1,$1+$1,$2,$3*
1,1,$1+$1,$4,$5*
1,1,$1+$1,$6,$7*
1,1,$1+$1,$8,$9*
0 Add four rect primitives between the rounded corners*
20,1,$1+$1,$2,$3,$4,$5,0*
20,1,$1+$1,$4,$5,$6,$7,0*
20,1,$1+$1,$6,$7,$8,$9,0*
20,1,$1+$1,$8,$9,$2,$3,0*%
%AMFreePoly0*
4,1,6,1.000000,0.000000,0.500000,-0.750000,-0.500000,-0.750000,-0.500000,0.750000,0.500000,0.750000,1.000000,0.000000,1.000000,0.000000,$1*%
G04 Aperture macros list end*
%ADD10C,0.010000*%
%ADD11C,1.651000*%
%ADD12C,1.524000*%
%ADD13O,1.154000X1.504000*%
%ADD14RoundRect,0.102000X-0.675000X0.200000X-0.675000X-0.200000X0.675000X-0.200000X0.675000X0.200000X0*%
%ADD15RoundRect,0.102000X-0.775000X0.750000X-0.775000X-0.750000X0.775000X-0.750000X0.775000X0.750000X0*%
%ADD16RoundRect,0.102000X-0.749000X0.749000X-0.749000X-0.749000X0.749000X-0.749000X0.749000X0.749000X0*%
%ADD17C,1.702000*%
%ADD18R,2.200000X2.200000*%
%ADD19O,2.200000X2.200000*%
%ADD20C,3.200000*%
%ADD21RoundRect,0.250000X0.350000X0.450000X-0.350000X0.450000X-0.350000X-0.450000X0.350000X-0.450000X0*%
%ADD22R,1.500000X1.500000*%
%ADD23C,1.600000*%
%ADD24RoundRect,0.098000X0.609000X0.294000X-0.609000X0.294000X-0.609000X-0.294000X0.609000X-0.294000X0*%
%ADD25R,0.900000X1.500000*%
%ADD26R,1.500000X0.900000*%
%ADD27C,0.600000*%
%ADD28R,3.900000X3.900000*%
%ADD29FreePoly0,90.000000*%
%ADD30FreePoly0,270.000000*%
%ADD31RoundRect,0.250000X0.450000X-0.350000X0.450000X0.350000X-0.450000X0.350000X-0.450000X-0.350000X0*%
%ADD32RoundRect,0.250000X0.650000X-0.412500X0.650000X0.412500X-0.650000X0.412500X-0.650000X-0.412500X0*%
%ADD33R,1.700000X1.700000*%
%ADD34O,1.700000X1.700000*%
%ADD35RoundRect,0.102000X-0.749000X-0.749000X0.749000X-0.749000X0.749000X0.749000X-0.749000X0.749000X0*%
%ADD36RoundRect,0.102000X0.350000X0.575000X-0.350000X0.575000X-0.350000X-0.575000X0.350000X-0.575000X0*%
%ADD37RoundRect,0.102000X0.400000X0.575000X-0.400000X0.575000X-0.400000X-0.575000X0.400000X-0.575000X0*%
%ADD38RoundRect,0.102000X0.450000X0.575000X-0.450000X0.575000X-0.450000X-0.575000X0.450000X-0.575000X0*%
%ADD39O,1.204000X2.204000*%
%ADD40RoundRect,0.250000X-0.350000X-0.450000X0.350000X-0.450000X0.350000X0.450000X-0.350000X0.450000X0*%
%ADD41RoundRect,0.250000X-0.475000X0.337500X-0.475000X-0.337500X0.475000X-0.337500X0.475000X0.337500X0*%
%ADD42RoundRect,0.250000X-0.412500X-0.650000X0.412500X-0.650000X0.412500X0.650000X-0.412500X0.650000X0*%
%ADD43RoundRect,0.102000X0.765000X-0.765000X0.765000X0.765000X-0.765000X0.765000X-0.765000X-0.765000X0*%
%ADD44C,1.734000*%
%ADD45RoundRect,0.250000X-0.450000X0.350000X-0.450000X-0.350000X0.450000X-0.350000X0.450000X0.350000X0*%
%ADD46RoundRect,0.250000X0.412500X0.650000X-0.412500X0.650000X-0.412500X-0.650000X0.412500X-0.650000X0*%
%ADD47C,3.048000*%
%ADD48C,1.955800*%
%ADD49RoundRect,0.150000X0.512500X0.150000X-0.512500X0.150000X-0.512500X-0.150000X0.512500X-0.150000X0*%
G04 APERTURE END LIST*
D10*
%TO.C,J6*%
X147506000Y-112656000D02*
X147538000Y-112658000D01*
X147569000Y-112662000D01*
X147600000Y-112668000D01*
X147630000Y-112675000D01*
X147660000Y-112684000D01*
X147690000Y-112695000D01*
X147719000Y-112707000D01*
X147747000Y-112720000D01*
X147775000Y-112735000D01*
X147802000Y-112752000D01*
X147828000Y-112770000D01*
X147853000Y-112789000D01*
X147876000Y-112809000D01*
X147899000Y-112831000D01*
X147921000Y-112854000D01*
X147941000Y-112877000D01*
X147960000Y-112902000D01*
X147978000Y-112928000D01*
X147995000Y-112955000D01*
X148010000Y-112983000D01*
X148023000Y-113011000D01*
X148035000Y-113040000D01*
X148046000Y-113070000D01*
X148055000Y-113100000D01*
X148062000Y-113130000D01*
X148068000Y-113161000D01*
X148072000Y-113192000D01*
X148074000Y-113224000D01*
X148075000Y-113255000D01*
X148075000Y-114500000D01*
X146325000Y-114500000D01*
X146325000Y-113255000D01*
X146326000Y-113224000D01*
X146328000Y-113192000D01*
X146332000Y-113161000D01*
X146338000Y-113130000D01*
X146345000Y-113100000D01*
X146354000Y-113070000D01*
X146365000Y-113040000D01*
X146377000Y-113011000D01*
X146390000Y-112983000D01*
X146405000Y-112955000D01*
X146422000Y-112928000D01*
X146440000Y-112902000D01*
X146459000Y-112877000D01*
X146479000Y-112854000D01*
X146501000Y-112831000D01*
X146524000Y-112809000D01*
X146547000Y-112789000D01*
X146572000Y-112770000D01*
X146598000Y-112752000D01*
X146625000Y-112735000D01*
X146653000Y-112720000D01*
X146681000Y-112707000D01*
X146710000Y-112695000D01*
X146740000Y-112684000D01*
X146770000Y-112675000D01*
X146800000Y-112668000D01*
X146831000Y-112662000D01*
X146862000Y-112658000D01*
X146894000Y-112656000D01*
X146925000Y-112655000D01*
X147475000Y-112655000D01*
X147506000Y-112656000D01*
G36*
X147506000Y-112656000D02*
G01*
X147538000Y-112658000D01*
X147569000Y-112662000D01*
X147600000Y-112668000D01*
X147630000Y-112675000D01*
X147660000Y-112684000D01*
X147690000Y-112695000D01*
X147719000Y-112707000D01*
X147747000Y-112720000D01*
X147775000Y-112735000D01*
X147802000Y-112752000D01*
X147828000Y-112770000D01*
X147853000Y-112789000D01*
X147876000Y-112809000D01*
X147899000Y-112831000D01*
X147921000Y-112854000D01*
X147941000Y-112877000D01*
X147960000Y-112902000D01*
X147978000Y-112928000D01*
X147995000Y-112955000D01*
X148010000Y-112983000D01*
X148023000Y-113011000D01*
X148035000Y-113040000D01*
X148046000Y-113070000D01*
X148055000Y-113100000D01*
X148062000Y-113130000D01*
X148068000Y-113161000D01*
X148072000Y-113192000D01*
X148074000Y-113224000D01*
X148075000Y-113255000D01*
X148075000Y-114500000D01*
X146325000Y-114500000D01*
X146325000Y-113255000D01*
X146326000Y-113224000D01*
X146328000Y-113192000D01*
X146332000Y-113161000D01*
X146338000Y-113130000D01*
X146345000Y-113100000D01*
X146354000Y-113070000D01*
X146365000Y-113040000D01*
X146377000Y-113011000D01*
X146390000Y-112983000D01*
X146405000Y-112955000D01*
X146422000Y-112928000D01*
X146440000Y-112902000D01*
X146459000Y-112877000D01*
X146479000Y-112854000D01*
X146501000Y-112831000D01*
X146524000Y-112809000D01*
X146547000Y-112789000D01*
X146572000Y-112770000D01*
X146598000Y-112752000D01*
X146625000Y-112735000D01*
X146653000Y-112720000D01*
X146681000Y-112707000D01*
X146710000Y-112695000D01*
X146740000Y-112684000D01*
X146770000Y-112675000D01*
X146800000Y-112668000D01*
X146831000Y-112662000D01*
X146862000Y-112658000D01*
X146894000Y-112656000D01*
X146925000Y-112655000D01*
X147475000Y-112655000D01*
X147506000Y-112656000D01*
G37*
X148075000Y-120145000D02*
X148074000Y-120176000D01*
X148072000Y-120208000D01*
X148068000Y-120239000D01*
X148062000Y-120270000D01*
X148055000Y-120300000D01*
X148046000Y-120330000D01*
X148035000Y-120360000D01*
X148023000Y-120389000D01*
X148010000Y-120417000D01*
X147995000Y-120445000D01*
X147978000Y-120472000D01*
X147960000Y-120498000D01*
X147941000Y-120523000D01*
X147921000Y-120546000D01*
X147899000Y-120569000D01*
X147876000Y-120591000D01*
X147853000Y-120611000D01*
X147828000Y-120630000D01*
X147802000Y-120648000D01*
X147775000Y-120665000D01*
X147747000Y-120680000D01*
X147719000Y-120693000D01*
X147690000Y-120705000D01*
X147660000Y-120716000D01*
X147630000Y-120725000D01*
X147600000Y-120732000D01*
X147569000Y-120738000D01*
X147538000Y-120742000D01*
X147506000Y-120744000D01*
X147475000Y-120745000D01*
X146925000Y-120745000D01*
X146894000Y-120744000D01*
X146862000Y-120742000D01*
X146831000Y-120738000D01*
X146800000Y-120732000D01*
X146770000Y-120725000D01*
X146740000Y-120716000D01*
X146710000Y-120705000D01*
X146681000Y-120693000D01*
X146653000Y-120680000D01*
X146625000Y-120665000D01*
X146598000Y-120648000D01*
X146572000Y-120630000D01*
X146547000Y-120611000D01*
X146524000Y-120591000D01*
X146501000Y-120569000D01*
X146479000Y-120546000D01*
X146459000Y-120523000D01*
X146440000Y-120498000D01*
X146422000Y-120472000D01*
X146405000Y-120445000D01*
X146390000Y-120417000D01*
X146377000Y-120389000D01*
X146365000Y-120360000D01*
X146354000Y-120330000D01*
X146345000Y-120300000D01*
X146338000Y-120270000D01*
X146332000Y-120239000D01*
X146328000Y-120208000D01*
X146326000Y-120176000D01*
X146325000Y-120145000D01*
X146325000Y-118900000D01*
X148075000Y-118900000D01*
X148075000Y-120145000D01*
G36*
X148075000Y-120145000D02*
G01*
X148074000Y-120176000D01*
X148072000Y-120208000D01*
X148068000Y-120239000D01*
X148062000Y-120270000D01*
X148055000Y-120300000D01*
X148046000Y-120330000D01*
X148035000Y-120360000D01*
X148023000Y-120389000D01*
X148010000Y-120417000D01*
X147995000Y-120445000D01*
X147978000Y-120472000D01*
X147960000Y-120498000D01*
X147941000Y-120523000D01*
X147921000Y-120546000D01*
X147899000Y-120569000D01*
X147876000Y-120591000D01*
X147853000Y-120611000D01*
X147828000Y-120630000D01*
X147802000Y-120648000D01*
X147775000Y-120665000D01*
X147747000Y-120680000D01*
X147719000Y-120693000D01*
X147690000Y-120705000D01*
X147660000Y-120716000D01*
X147630000Y-120725000D01*
X147600000Y-120732000D01*
X147569000Y-120738000D01*
X147538000Y-120742000D01*
X147506000Y-120744000D01*
X147475000Y-120745000D01*
X146925000Y-120745000D01*
X146894000Y-120744000D01*
X146862000Y-120742000D01*
X146831000Y-120738000D01*
X146800000Y-120732000D01*
X146770000Y-120725000D01*
X146740000Y-120716000D01*
X146710000Y-120705000D01*
X146681000Y-120693000D01*
X146653000Y-120680000D01*
X146625000Y-120665000D01*
X146598000Y-120648000D01*
X146572000Y-120630000D01*
X146547000Y-120611000D01*
X146524000Y-120591000D01*
X146501000Y-120569000D01*
X146479000Y-120546000D01*
X146459000Y-120523000D01*
X146440000Y-120498000D01*
X146422000Y-120472000D01*
X146405000Y-120445000D01*
X146390000Y-120417000D01*
X146377000Y-120389000D01*
X146365000Y-120360000D01*
X146354000Y-120330000D01*
X146345000Y-120300000D01*
X146338000Y-120270000D01*
X146332000Y-120239000D01*
X146328000Y-120208000D01*
X146326000Y-120176000D01*
X146325000Y-120145000D01*
X146325000Y-118900000D01*
X148075000Y-118900000D01*
X148075000Y-120145000D01*
G37*
%TD*%
D11*
%TO.C,U5*%
X186140000Y-124200000D03*
X183600000Y-124200000D03*
X181060000Y-124200000D03*
%TD*%
%TO.C,U4*%
X165000000Y-91400000D03*
X165000000Y-93940000D03*
X165000000Y-96480000D03*
%TD*%
D12*
%TO.C,J9*%
X150920000Y-81619700D03*
X150920000Y-79079700D03*
X153460000Y-81619700D03*
X153460000Y-79079700D03*
X156000000Y-81619700D03*
X156000000Y-79079700D03*
X158540000Y-81619700D03*
X158540000Y-79079700D03*
X161080000Y-81619700D03*
X161080000Y-79079700D03*
%TD*%
D13*
%TO.C,J6*%
X149900000Y-114200000D03*
X149900000Y-119200000D03*
D14*
X149875000Y-115400000D03*
X149875000Y-116050000D03*
X149875000Y-116700000D03*
X149875000Y-117350000D03*
X149875000Y-118000000D03*
D15*
X147200000Y-115700000D03*
X147200000Y-117700000D03*
%TD*%
D16*
%TO.C,SW6*%
X172250000Y-127150000D03*
D17*
X172250000Y-133650000D03*
X167750000Y-127150000D03*
X167750000Y-133650000D03*
%TD*%
D18*
%TO.C,D2*%
X209000000Y-91480000D03*
D19*
X209000000Y-81320000D03*
%TD*%
D20*
%TO.C,H3*%
X150800000Y-135600000D03*
%TD*%
D21*
%TO.C,R3*%
X187200000Y-105400000D03*
X185200000Y-105400000D03*
%TD*%
D22*
%TO.C,SW5*%
X211260000Y-72600000D03*
D23*
X208720000Y-72600000D03*
X213800000Y-72600000D03*
%TD*%
D20*
%TO.C,H2*%
X226000000Y-137000000D03*
%TD*%
D24*
%TO.C,U3*%
X200455000Y-82950000D03*
X200455000Y-82000000D03*
X200455000Y-81050000D03*
X197945000Y-81050000D03*
X197945000Y-82000000D03*
X197945000Y-82950000D03*
%TD*%
D21*
%TO.C,R18*%
X209200000Y-75600000D03*
X207200000Y-75600000D03*
%TD*%
D25*
%TO.C,U2*%
X211000000Y-101200000D03*
X209730000Y-101200000D03*
X208460000Y-101200000D03*
X207190000Y-101200000D03*
X205920000Y-101200000D03*
X204650000Y-101200000D03*
X203380000Y-101200000D03*
X202110000Y-101200000D03*
X200840000Y-101200000D03*
X199570000Y-101200000D03*
X198300000Y-101200000D03*
X197030000Y-101200000D03*
X195760000Y-101200000D03*
X194490000Y-101200000D03*
D26*
X193240000Y-102965000D03*
X193240000Y-104235000D03*
X193240000Y-105505000D03*
X193240000Y-106775000D03*
X193240000Y-108045000D03*
X193240000Y-109315000D03*
X193240000Y-110585000D03*
X193240000Y-111855000D03*
X193240000Y-113125000D03*
X193240000Y-114395000D03*
X193240000Y-115665000D03*
X193240000Y-116935000D03*
D25*
X194490000Y-118700000D03*
X195760000Y-118700000D03*
X197030000Y-118700000D03*
X198300000Y-118700000D03*
X199570000Y-118700000D03*
X200840000Y-118700000D03*
X202110000Y-118700000D03*
X203380000Y-118700000D03*
X204650000Y-118700000D03*
X205920000Y-118700000D03*
X207190000Y-118700000D03*
X208460000Y-118700000D03*
X209730000Y-118700000D03*
X211000000Y-118700000D03*
D27*
X203980000Y-107050000D03*
X202580000Y-107050000D03*
X204680000Y-107750000D03*
X203280000Y-107750000D03*
X201880000Y-107750000D03*
X203980000Y-108450000D03*
D28*
X203280000Y-108450000D03*
D27*
X202580000Y-108450000D03*
X204680000Y-109150000D03*
X203280000Y-109150000D03*
X201880000Y-109150000D03*
X203980000Y-109850000D03*
X202580000Y-109850000D03*
%TD*%
D22*
%TO.C,JP1*%
X178400000Y-104800000D03*
X178400000Y-102400000D03*
D29*
X178400000Y-105600000D03*
D30*
X178400000Y-101600000D03*
%TD*%
D31*
%TO.C,R9*%
X166400000Y-87000000D03*
X166400000Y-85000000D03*
%TD*%
D32*
%TO.C,C1*%
X193800000Y-92162500D03*
X193800000Y-89037500D03*
%TD*%
D33*
%TO.C,J3*%
X193600000Y-122600000D03*
D34*
X193600000Y-125140000D03*
X191060000Y-122600000D03*
X191060000Y-125140000D03*
%TD*%
D32*
%TO.C,C6*%
X196775000Y-126012500D03*
X196775000Y-122887500D03*
%TD*%
D31*
%TO.C,R10*%
X199375000Y-125450000D03*
X199375000Y-123450000D03*
%TD*%
D35*
%TO.C,SW3*%
X181700000Y-88700000D03*
D17*
X188200000Y-88700000D03*
X181700000Y-93200000D03*
X188200000Y-93200000D03*
%TD*%
D21*
%TO.C,R16*%
X199000000Y-120800000D03*
X197000000Y-120800000D03*
%TD*%
D36*
%TO.C,USB-C1*%
X200900000Y-75305000D03*
D37*
X198880000Y-75305000D03*
D38*
X197650000Y-75305000D03*
D36*
X199900000Y-75305000D03*
D37*
X201920000Y-75305000D03*
D38*
X203150000Y-75305000D03*
D39*
X204720000Y-75300000D03*
X196080000Y-75300000D03*
X204720000Y-71500000D03*
X196080000Y-71500000D03*
%TD*%
D18*
%TO.C,D1*%
X204600000Y-91400000D03*
D19*
X204600000Y-81240000D03*
%TD*%
D40*
%TO.C,R6*%
X185200000Y-102800000D03*
X187200000Y-102800000D03*
%TD*%
D31*
%TO.C,R8*%
X177200000Y-124400000D03*
X177200000Y-122400000D03*
%TD*%
%TO.C,R5*%
X181400000Y-130600000D03*
X181400000Y-128600000D03*
%TD*%
D41*
%TO.C,C5*%
X208200000Y-94762500D03*
X208200000Y-96837500D03*
%TD*%
D40*
%TO.C,R15*%
X190600000Y-94800000D03*
X192600000Y-94800000D03*
%TD*%
D42*
%TO.C,C4*%
X196837500Y-85800000D03*
X199962500Y-85800000D03*
%TD*%
D33*
%TO.C,J2*%
X198860000Y-133140000D03*
D34*
X198860000Y-130600000D03*
X201400000Y-133140000D03*
X201400000Y-130600000D03*
X203940000Y-133140000D03*
X203940000Y-130600000D03*
%TD*%
D31*
%TO.C,R7*%
X163800000Y-86400000D03*
X163800000Y-84400000D03*
%TD*%
D33*
%TO.C,J5*%
X186025000Y-128750000D03*
D34*
X188565000Y-128750000D03*
%TD*%
D20*
%TO.C,H1*%
X227000000Y-72200000D03*
%TD*%
D40*
%TO.C,R1*%
X192800000Y-80200000D03*
X194800000Y-80200000D03*
%TD*%
D32*
%TO.C,C2*%
X201200000Y-92162500D03*
X201200000Y-89037500D03*
%TD*%
D22*
%TO.C,SW4*%
X189860000Y-72600000D03*
D23*
X187320000Y-72600000D03*
X192400000Y-72600000D03*
%TD*%
D33*
%TO.C,J4*%
X195075000Y-128800000D03*
D34*
X192535000Y-128800000D03*
%TD*%
D43*
%TO.C,J8*%
X170190000Y-82827500D03*
D44*
X170190000Y-80287500D03*
X172730000Y-82827500D03*
X172730000Y-80287500D03*
X175270000Y-82827500D03*
X175270000Y-80287500D03*
X177810000Y-82827500D03*
X177810000Y-80287500D03*
%TD*%
D45*
%TO.C,R2*%
X191200000Y-86000000D03*
X191200000Y-88000000D03*
%TD*%
D46*
%TO.C,C9*%
X183562500Y-95800000D03*
X180437500Y-95800000D03*
%TD*%
D21*
%TO.C,R17*%
X209200000Y-78550000D03*
X207200000Y-78550000D03*
%TD*%
D20*
%TO.C,H4*%
X161400000Y-104600000D03*
%TD*%
D46*
%TO.C,C3*%
X195162500Y-83200000D03*
X192037500Y-83200000D03*
%TD*%
D47*
%TO.C,J1*%
X228099999Y-83240000D03*
X214500000Y-83240000D03*
D48*
X219200000Y-78200000D03*
X223399998Y-78200000D03*
X219200000Y-83699999D03*
X223399998Y-83699999D03*
%TD*%
D33*
%TO.C,J7*%
X185075000Y-119000000D03*
D34*
X182535000Y-119000000D03*
%TD*%
D49*
%TO.C,U1*%
X198800000Y-92400000D03*
X198800000Y-91450000D03*
X198800000Y-90500000D03*
X196525000Y-90500000D03*
X196525000Y-92400000D03*
%TD*%
D41*
%TO.C,C10*%
X210800000Y-94762500D03*
X210800000Y-96837500D03*
%TD*%
D21*
%TO.C,R4*%
X190400000Y-118800000D03*
X188400000Y-118800000D03*
%TD*%
M02*
